  0
SECTION
  2
HEADER
  9
$ACADVER
  1
AC1009
  9
$DWGCODEPAGE
  3
ansi_1252
  9
$INSBASE
 10
0.0
 20
0.0
 30
0.0
  9
$EXTMIN
 10
176.9608477227399
 20
5.0038
 30
0.0
  9
$EXTMAX
 10
362.5332477227398
 20
34.3662
 30
0.0
  9
$LIMMIN
 10
0.0
 20
0.0
  9
$LIMMAX
 10
12.0
 20
9.0
  9
$ORTHOMODE
 70
     0
  9
$REGENMODE
 70
     1
  9
$FILLMODE
 70
     1
  9
$QTEXTMODE
 70
     0
  9
$MIRRTEXT
 70
     1
  9
$DRAGMODE
 70
     2
  9
$LTSCALE
 40
1.0
  9
$OSMODE
 70
    37
  9
$ATTMODE
 70
     1
  9
$TEXTSIZE
 40
0.2
  9
$TRACEWID
 40
0.05
  9
$TEXTSTYLE
  7
STANDARD
  9
$CLAYER
  8
16
  9
$CELTYPE
  6
BYLAYER
  9
$CECOLOR
 62
   256
  9
$DIMSCALE
 40
1.0
  9
$DIMASZ
 40
0.18
  9
$DIMEXO
 40
0.0625
  9
$DIMDLI
 40
0.38
  9
$DIMRND
 40
0.0
  9
$DIMDLE
 40
0.0
  9
$DIMEXE
 40
0.18
  9
$DIMTP
 40
0.0
  9
$DIMTM
 40
0.0
  9
$DIMTXT
 40
0.18
  9
$DIMCEN
 40
0.09
  9
$DIMTSZ
 40
0.0
  9
$DIMTOL
 70
     0
  9
$DIMLIM
 70
     0
  9
$DIMTIH
 70
     1
  9
$DIMTOH
 70
     1
  9
$DIMSE1
 70
     0
  9
$DIMSE2
 70
     0
  9
$DIMTAD
 70
     0
  9
$DIMZIN
 70
     0
  9
$DIMBLK
  1

  9
$DIMASO
 70
     1
  9
$DIMSHO
 70
     1
  9
$DIMPOST
  1

  9
$DIMAPOST
  1

  9
$DIMALT
 70
     0
  9
$DIMALTD
 70
     2
  9
$DIMALTF
 40
25.4
  9
$DIMLFAC
 40
1.0
  9
$DIMTOFL
 70
     0
  9
$DIMTVP
 40
0.0
  9
$DIMTIX
 70
     0
  9
$DIMSOXD
 70
     0
  9
$DIMSAH
 70
     0
  9
$DIMBLK1
  1

  9
$DIMBLK2
  1

  9
$DIMSTYLE
  2
STANDARD
  9
$DIMCLRD
 70
     0
  9
$DIMCLRE
 70
     0
  9
$DIMCLRT
 70
     0
  9
$DIMTFAC
 40
1.0
  9
$DIMGAP
 40
0.09
  9
$LUNITS
 70
     2
  9
$LUPREC
 70
     3
  9
$SKETCHINC
 40
0.1
  9
$FILLETRAD
 40
0.5
  9
$AUNITS
 70
     0
  9
$AUPREC
 70
     0
  9
$MENU
  1
.
  9
$ELEVATION
 40
0.0
  9
$PELEVATION
 40
0.0
  9
$THICKNESS
 40
0.0
  9
$LIMCHECK
 70
     0
  9
$CHAMFERA
 40
0.0
  9
$CHAMFERB
 40
0.0
  9
$SKPOLY
 70
     0
  9
$TDCREATE
 40
2458292.739761829
  9
$TDUPDATE
 40
2458292.739778889
  9
$TDINDWG
 40
0.0000000116
  9
$TDUSRTIMER
 40
0.0000000116
  9
$USRTIMER
 70
     1
  9
$ANGBASE
 50
0.0
  9
$ANGDIR
 70
     0
  9
$PDMODE
 70
     0
  9
$PDSIZE
 40
0.0
  9
$PLINEWID
 40
0.0
  9
$COORDS
 70
     1
  9
$SPLFRAME
 70
     0
  9
$SPLINETYPE
 70
     6
  9
$SPLINESEGS
 70
     8
  9
$ATTDIA
 70
     0
  9
$ATTREQ
 70
     1
  9
$HANDLING
 70
     1
  9
$HANDSEED
  5
4B4
  9
$SURFTAB1
 70
     6
  9
$SURFTAB2
 70
     6
  9
$SURFTYPE
 70
     6
  9
$SURFU
 70
     6
  9
$SURFV
 70
     6
  9
$UCSNAME
  2

  9
$UCSORG
 10
0.0
 20
0.0
 30
0.0
  9
$UCSXDIR
 10
1.0
 20
0.0
 30
0.0
  9
$UCSYDIR
 10
0.0
 20
1.0
 30
0.0
  9
$PUCSNAME
  2

  9
$PUCSORG
 10
0.0
 20
0.0
 30
0.0
  9
$PUCSXDIR
 10
1.0
 20
0.0
 30
0.0
  9
$PUCSYDIR
 10
0.0
 20
1.0
 30
0.0
  9
$USERI1
 70
     0
  9
$USERI2
 70
     0
  9
$USERI3
 70
     0
  9
$USERI4
 70
     0
  9
$USERI5
 70
     0
  9
$USERR1
 40
0.0
  9
$USERR2
 40
0.0
  9
$USERR3
 40
0.0
  9
$USERR4
 40
0.0
  9
$USERR5
 40
0.0
  9
$WORLDVIEW
 70
     1
  9
$SHADEDGE
 70
     3
  9
$SHADEDIF
 70
    70
  9
$TILEMODE
 70
     1
  9
$MAXACTVP
 70
    64
  9
$PLIMCHECK
 70
     0
  9
$PEXTMIN
 10
1.000000000000000E+20
 20
1.000000000000000E+20
 30
1.000000000000000E+20
  9
$PEXTMAX
 10
-1.000000000000000E+20
 20
-1.000000000000000E+20
 30
-1.000000000000000E+20
  9
$PLIMMIN
 10
0.0
 20
0.0
  9
$PLIMMAX
 10
12.0
 20
9.0
  9
$UNITMODE
 70
     0
  9
$VISRETAIN
 70
     1
  9
$PLINEGEN
 70
     0
  9
$PSLTSCALE
 70
     1
  0
ENDSEC
  0
SECTION
  2
TABLES
  0
TABLE
  2
VPORT
 70
     1
  0
VPORT
  2
*ACTIVE
 70
     0
 10
0.0
 20
0.0
 11
1.0
 21
1.0
 12
269.7470477227398
 22
19.685
 13
0.0
 23
0.0
 14
0.5
 24
0.5
 15
0.5
 25
0.5
 16
0.0
 26
0.0
 36
1.0
 17
0.0
 27
0.0
 37
0.0
 40
29.949648
 41
6.320069204152247
 42
50.0
 43
0.0
 44
0.0
 50
0.0
 51
0.0
 71
     0
 72
   100
 73
     1
 74
     3
 75
     0
 76
     0
 77
     0
 78
     0
  0
ENDTAB
  0
TABLE
  2
LTYPE
 70
     1
  0
LTYPE
  2
CONTINUOUS
 70
     0
  3
Solid line
 72
    65
 73
     0
 40
0.0
  0
ENDTAB
  0
TABLE
  2
LAYER
 70
     4
  0
LAYER
  2
0
 70
     0
 62
     7
  6
CONTINUOUS
  0
LAYER
  2
44
 70
     0
 62
     4
  6
CONTINUOUS
  0
LAYER
  2
16
 70
     0
 62
   177
  6
CONTINUOUS
  0
LAYER
  2
20
 70
     0
 62
    30
  6
CONTINUOUS
  0
ENDTAB
  0
TABLE
  2
STYLE
 70
     1
  0
STYLE
  2
STANDARD
 70
     0
 40
0.0
 41
1.0
 50
0.0
 71
     0
 42
0.2
  3
txt
  4

  0
ENDTAB
  0
TABLE
  2
VIEW
 70
     0
  0
ENDTAB
  0
TABLE
  2
UCS
 70
     0
  0
ENDTAB
  0
TABLE
  2
APPID
 70
     1
  0
APPID
  2
ACAD
 70
     0
  0
ENDTAB
  0
TABLE
  2
DIMSTYLE
 70
     1
  0
DIMSTYLE
  2
STANDARD
 70
     0
  3

  4

  5

  6

  7

 40
1.0
 41
0.18
 42
0.0625
 43
0.38
 44
0.18
 45
0.0
 46
0.0
 47
0.0
 48
0.0
140
0.18
141
0.09
142
0.0
143
25.4
144
1.0
145
0.0
146
1.0
147
0.09
 71
     0
 72
     0
 73
     1
 74
     1
 75
     0
 76
     0
 77
     0
 78
     0
170
     0
171
     2
172
     0
173
     0
174
     0
175
     0
176
     0
177
     0
178
     0
  0
ENDTAB
  0
ENDSEC
  0
SECTION
  2
BLOCKS
  0
BLOCK
  8
0
  2
$MODEL_SPACE
 70
     0
 10
0.0
 20
0.0
 30
0.0
  3
$MODEL_SPACE
  1

  0
ENDBLK
  5
21
  8
0
  0
BLOCK
 67
     1
  8
0
  2
$PAPER_SPACE
 70
     0
 10
0.0
 20
0.0
 30
0.0
  3
$PAPER_SPACE
  1

  0
ENDBLK
  5
1D
 67
     1
  8
0
  0
ENDSEC
  0
SECTION
  2
ENTITIES
  0
CIRCLE
  5
6B
  8
44
 10
-326.2620477227399
 20
17.78
 30
0.0
 40
0.4
210
0.0
220
0.0
230
-1.0
  0
CIRCLE
  5
6C
  8
44
 10
-328.8020477227399
 20
17.78
 30
0.0
 40
0.4
210
0.0
220
0.0
230
-1.0
  0
CIRCLE
  5
6D
  8
44
 10
-305.9420477227399
 20
17.78
 30
0.0
 40
0.4
210
0.0
220
0.0
230
-1.0
  0
CIRCLE
  5
6E
  8
44
 10
-308.4820477227398
 20
17.78
 30
0.0
 40
0.4
210
0.0
220
0.0
230
-1.0
  0
CIRCLE
  5
6F
  8
44
 10
-285.6220477227399
 20
17.78
 30
0.0
 40
0.4
210
0.0
220
0.0
230
-1.0
  0
CIRCLE
  5
70
  8
44
 10
-288.1620477227398
 20
17.78
 30
0.0
 40
0.4
210
0.0
220
0.0
230
-1.0
  0
CIRCLE
  5
71
  8
44
 10
-265.3020477227399
 20
17.78
 30
0.0
 40
0.4
210
0.0
220
0.0
230
-1.0
  0
CIRCLE
  5
72
  8
44
 10
-267.8420477227398
 20
17.78
 30
0.0
 40
0.4
210
0.0
220
0.0
230
-1.0
  0
CIRCLE
  5
73
  8
44
 10
-241.1720477227398
 20
17.78
 30
0.0
 40
0.4
210
0.0
220
0.0
230
-1.0
  0
CIRCLE
  5
74
  8
44
 10
-243.7120477227398
 20
17.78
 30
0.0
 40
0.4
210
0.0
220
0.0
230
-1.0
  0
CIRCLE
  5
75
  8
44
 10
-220.8520477227399
 20
17.78
 30
0.0
 40
0.4
210
0.0
220
0.0
230
-1.0
  0
CIRCLE
  5
76
  8
44
 10
-223.3920477227398
 20
17.78
 30
0.0
 40
0.4
210
0.0
220
0.0
230
-1.0
  0
CIRCLE
  5
77
  8
44
 10
-200.5320477227398
 20
17.78
 30
0.0
 40
0.4
210
0.0
220
0.0
230
-1.0
  0
CIRCLE
  5
78
  8
44
 10
-203.0720477227399
 20
17.78
 30
0.0
 40
0.4
210
0.0
220
0.0
230
-1.0
  0
CIRCLE
  5
79
  8
44
 10
-180.2120477227398
 20
17.78
 30
0.0
 40
0.4
210
0.0
220
0.0
230
-1.0
  0
CIRCLE
  5
7A
  8
44
 10
-182.7520477227399
 20
17.78
 30
0.0
 40
0.4
210
0.0
220
0.0
230
-1.0
  0
CIRCLE
  5
7B
  8
44
 10
-328.8020477227399
 20
29.21
 30
0.0
 40
0.4064
210
0.0
220
0.0
230
-1.0
  0
CIRCLE
  5
7C
  8
44
 10
-328.8020477227399
 20
21.59
 30
0.0
 40
0.4064
210
0.0
220
0.0
230
-1.0
  0
CIRCLE
  5
7D
  8
44
 10
-308.4820477227398
 20
29.21
 30
0.0
 40
0.4064
210
0.0
220
0.0
230
-1.0
  0
CIRCLE
  5
7E
  8
44
 10
-308.4820477227398
 20
21.59
 30
0.0
 40
0.4064
210
0.0
220
0.0
230
-1.0
  0
CIRCLE
  5
7F
  8
44
 10
-288.1620477227398
 20
29.21
 30
0.0
 40
0.4064
210
0.0
220
0.0
230
-1.0
  0
CIRCLE
  5
80
  8
44
 10
-288.1620477227398
 20
21.59
 30
0.0
 40
0.4064
210
0.0
220
0.0
230
-1.0
  0
CIRCLE
  5
81
  8
44
 10
-267.8420477227398
 20
29.21
 30
0.0
 40
0.4064
210
0.0
220
0.0
230
-1.0
  0
CIRCLE
  5
82
  8
44
 10
-267.8420477227398
 20
21.59
 30
0.0
 40
0.4064
210
0.0
220
0.0
230
-1.0
  0
CIRCLE
  5
83
  8
44
 10
-243.7120477227398
 20
29.21
 30
0.0
 40
0.4064
210
0.0
220
0.0
230
-1.0
  0
CIRCLE
  5
84
  8
44
 10
-243.7120477227398
 20
21.59
 30
0.0
 40
0.4064
210
0.0
220
0.0
230
-1.0
  0
CIRCLE
  5
85
  8
44
 10
-223.3920477227398
 20
29.21
 30
0.0
 40
0.4064
210
0.0
220
0.0
230
-1.0
  0
CIRCLE
  5
86
  8
44
 10
-223.3920477227398
 20
21.59
 30
0.0
 40
0.4064
210
0.0
220
0.0
230
-1.0
  0
CIRCLE
  5
87
  8
44
 10
-203.0720477227399
 20
29.21
 30
0.0
 40
0.4064
210
0.0
220
0.0
230
-1.0
  0
CIRCLE
  5
88
  8
44
 10
-203.0720477227399
 20
21.59
 30
0.0
 40
0.4064
210
0.0
220
0.0
230
-1.0
  0
CIRCLE
  5
89
  8
44
 10
-182.7520477227399
 20
29.21
 30
0.0
 40
0.4064
210
0.0
220
0.0
230
-1.0
  0
CIRCLE
  5
8A
  8
44
 10
-182.7520477227399
 20
21.59
 30
0.0
 40
0.4064
210
0.0
220
0.0
230
-1.0
  0
CIRCLE
  5
8B
  8
44
 10
-354.2020477227398
 20
12.065
 30
0.0
 40
0.5
210
0.0
220
0.0
230
-1.0
  0
CIRCLE
  5
8C
  8
44
 10
-356.7420477227399
 20
12.065
 30
0.0
 40
0.5
210
0.0
220
0.0
230
-1.0
  0
CIRCLE
  5
8D
  8
44
 10
-354.2020477227398
 20
14.605
 30
0.0
 40
0.5
210
0.0
220
0.0
230
-1.0
  0
CIRCLE
  5
8E
  8
44
 10
-356.7420477227399
 20
14.605
 30
0.0
 40
0.5
210
0.0
220
0.0
230
-1.0
  0
CIRCLE
  5
8F
  8
44
 10
-354.2020477227398
 20
17.145
 30
0.0
 40
0.5
210
0.0
220
0.0
230
-1.0
  0
CIRCLE
  5
90
  8
44
 10
-356.7420477227399
 20
17.145
 30
0.0
 40
0.5
210
0.0
220
0.0
230
-1.0
  0
CIRCLE
  5
91
  8
44
 10
-354.2020477227398
 20
19.685
 30
0.0
 40
0.5
210
0.0
220
0.0
230
-1.0
  0
CIRCLE
  5
92
  8
44
 10
-356.7420477227399
 20
19.685
 30
0.0
 40
0.5
210
0.0
220
0.0
230
-1.0
  0
CIRCLE
  5
93
  8
44
 10
-354.2020477227398
 20
22.225
 30
0.0
 40
0.5
210
0.0
220
0.0
230
-1.0
  0
CIRCLE
  5
94
  8
44
 10
-356.7420477227399
 20
22.225
 30
0.0
 40
0.5
210
0.0
220
0.0
230
-1.0
  0
CIRCLE
  5
95
  8
44
 10
-354.2020477227398
 20
24.765
 30
0.0
 40
0.5
210
0.0
220
0.0
230
-1.0
  0
CIRCLE
  5
96
  8
44
 10
-356.7420477227399
 20
24.765
 30
0.0
 40
0.5
210
0.0
220
0.0
230
-1.0
  0
CIRCLE
  5
97
  8
44
 10
-354.2020477227398
 20
27.305
 30
0.0
 40
0.5
210
0.0
220
0.0
230
-1.0
  0
CIRCLE
  5
98
  8
44
 10
-356.7420477227399
 20
27.305
 30
0.0
 40
0.5
210
0.0
220
0.0
230
-1.0
  0
CIRCLE
  5
9A
  8
16
 10
-356.7420477227399
 20
17.145
 30
0.0
 40
1.150000000000034
210
0.0
220
0.0
230
-1.0
  0
CIRCLE
  5
9B
  8
16
 10
-356.7420477227398
 20
19.68500000000003
 30
0.0
 40
1.149999999999977
210
0.0
220
0.0
230
-1.0
  0
CIRCLE
  5
9C
  8
16
 10
-356.7420477227399
 20
22.22500000000004
 30
0.0
 40
1.150000000000034
210
0.0
220
0.0
230
-1.0
  0
CIRCLE
  5
9D
  8
16
 10
-356.7420477227399
 20
24.76500000000002
 30
0.0
 40
1.150000000000034
210
0.0
220
0.0
230
-1.0
  0
POLYLINE
  5
9F
  8
20
 66
     1
 10
0.0
 20
0.0
 30
0.0
  0
VERTEX
  5
A0
  8
20
 10
362.4570477227398
 20
5.1562
 30
0.0
 42
-0.9999999999999999
  0
VERTEX
  5
A1
  8
20
 10
362.4570477227398
 20
5.0038
 30
0.0
  0
VERTEX
  5
A2
  8
20
 10
177.0370477227399
 20
5.0038
 30
0.0
 42
-0.9999999999998134
  0
VERTEX
  5
A3
  8
20
 10
177.0370477227399
 20
5.1562
 30
0.0
  0
VERTEX
  5
A4
  8
20
 10
362.4570477227398
 20
5.1562
 30
0.0
  0
SEQEND
  5
A5
  8
20
  0
POLYLINE
  5
A6
  8
20
 66
     1
 10
0.0
 20
0.0
 30
0.0
  0
VERTEX
  5
A7
  8
20
 10
177.1132477227399
 20
5.08
 30
0.0
 42
-0.9999999999998134
  0
VERTEX
  5
A8
  8
20
 10
176.9608477227399
 20
5.08
 30
0.0
  0
VERTEX
  5
A9
  8
20
 10
176.9608477227399
 20
34.29
 30
0.0
 42
-0.9999999999998134
  0
VERTEX
  5
AA
  8
20
 10
177.1132477227399
 20
34.29
 30
0.0
  0
VERTEX
  5
AB
  8
20
 10
177.1132477227399
 20
5.08
 30
0.0
  0
SEQEND
  5
AC
  8
20
  0
POLYLINE
  5
AD
  8
20
 66
     1
 10
0.0
 20
0.0
 30
0.0
  0
VERTEX
  5
AE
  8
20
 10
177.0370477227399
 20
34.2138
 30
0.0
 42
-0.9999999999998134
  0
VERTEX
  5
AF
  8
20
 10
177.0370477227399
 20
34.3662
 30
0.0
  0
VERTEX
  5
B0
  8
20
 10
362.4570477227398
 20
34.3662
 30
0.0
 42
-0.9999999999999999
  0
VERTEX
  5
B1
  8
20
 10
362.4570477227398
 20
34.2138
 30
0.0
  0
VERTEX
  5
B2
  8
20
 10
177.0370477227399
 20
34.2138
 30
0.0
  0
SEQEND
  5
B3
  8
20
  0
POLYLINE
  5
B4
  8
20
 66
     1
 10
0.0
 20
0.0
 30
0.0
  0
VERTEX
  5
B5
  8
20
 10
362.3808477227399
 20
34.29
 30
0.0
 42
-0.9999999999999999
  0
VERTEX
  5
B6
  8
20
 10
362.5332477227398
 20
34.29
 30
0.0
  0
VERTEX
  5
B7
  8
20
 10
362.5332477227398
 20
5.08
 30
0.0
 42
-0.9999999999999999
  0
VERTEX
  5
B8
  8
20
 10
362.3808477227399
 20
5.08
 30
0.0
  0
VERTEX
  5
B9
  8
20
 10
362.3808477227399
 20
34.29
 30
0.0
  0
SEQEND
  5
BA
  8
20
  0
POLYLINE
  5
BB
  8
16
 66
     1
 10
0.0
 20
0.0
 30
0.0
  0
VERTEX
  5
BC
  8
16
 10
333.7136583957419
 20
24.53640355766733
 30
0.0
  0
VERTEX
  5
BD
  8
16
 10
340.5871991775973
 20
31.40972512240529
 30
0.0
  0
VERTEX
  5
BE
  8
16
 10
340.5949195526773
 20
31.41686628209522
 30
0.0
  0
VERTEX
  5
BF
  8
16
 10
340.6028167704556
 20
31.42380075805762
 30
0.0
  0
VERTEX
  5
C0
  8
16
 10
340.6108824697451
 20
31.4305221157034
 30
0.0
  0
VERTEX
  5
C1
  8
16
 10
340.6191079855018
 20
31.43702437292291
 30
0.0
  0
VERTEX
  5
C2
  8
16
 10
340.6274843794587
 20
31.44330201737431
 30
0.0
  0
VERTEX
  5
C3
  8
16
 10
340.6360024718776
 20
31.44935002129218
 30
0.0
  0
VERTEX
  5
C4
  8
16
 10
340.6446528741863
 20
31.45516385373867
 30
0.0
  0
VERTEX
  5
C5
  8
16
 10
340.6534260222621
 20
31.46073949024517
 30
0.0
  0
VERTEX
  5
C6
  8
16
 10
340.6623122101234
 20
31.46607341981655
 30
0.0
  0
VERTEX
  5
C7
  8
16
 10
340.6713016237886
 20
31.4711626492953
 30
0.0
  0
VERTEX
  5
C8
  8
16
 10
340.6803843750666
 20
31.47600470510698
 30
0.0
  0
VERTEX
  5
C9
  8
16
 10
340.68955053505
 20
31.48059763243166
 30
0.0
  0
VERTEX
  5
CA
  8
16
 10
340.6987901670887
 20
31.48493999186859
 30
0.0
  0
VERTEX
  5
CB
  8
16
 10
340.7080933590341
 20
31.48903085368165
 30
0.0
  0
VERTEX
  5
CC
  8
16
 10
340.7174502545581
 20
31.49286978973261
 30
0.0
  0
VERTEX
  5
CD
  8
16
 10
340.7268510833625
 20
31.49645686322611
 30
0.0
  0
VERTEX
  5
CE
  8
16
 10
340.7362861901149
 20
31.49979261640536
 30
0.0
  0
VERTEX
  5
CF
  8
16
 10
340.745746061961
 20
31.50287805635057
 30
0.0
  0
VERTEX
  5
D0
  8
16
 10
340.7552213544855
 20
31.50571463904255
 30
0.0
  0
VERTEX
  5
D1
  8
16
 10
340.7647029160087
 20
31.50830425186216
 30
0.0
  0
VERTEX
  5
D2
  8
16
 10
340.7741818101291
 20
31.51064919470245
 30
0.0
  0
VERTEX
  5
D3
  8
16
 10
340.7836493364385
 20
31.51275215987367
 30
0.0
  0
VERTEX
  5
D4
  8
16
 10
340.7930970493593
 20
31.5146162109834
 30
0.0
  0
VERTEX
  5
D5
  8
16
 10
340.8025167750654
 20
31.51624476097263
 30
0.0
  0
VERTEX
  5
D6
  8
16
 10
340.8119006264757
 20
31.51764154948711
 30
0.0
  0
VERTEX
  5
D7
  8
16
 10
340.8212410163173
 20
31.51881061975834
 30
0.0
  0
VERTEX
  5
D8
  8
16
 10
340.8305306682759
 20
31.51975629516274
 30
0.0
  0
VERTEX
  5
D9
  8
16
 10
340.8397626262666
 20
31.52048315562083
 30
0.0
  0
VERTEX
  5
DA
  8
16
 10
340.8489302618669
 20
31.5209960139891
 30
0.0
  0
VERTEX
  5
DB
  8
16
 10
340.8580272799725
 20
31.52129989258808
 30
0.0
  0
VERTEX
  5
DC
  8
16
 10
356.7210174396016
 20
31.52115026927251
 30
0.0
  0
VERTEX
  5
DD
  8
16
 10
356.7321850268196
 20
31.52155945271749
 30
0.0
  0
VERTEX
  5
DE
  8
16
 10
356.7433637652162
 20
31.52166185906363
 30
0.0
  0
VERTEX
  5
DF
  8
16
 10
356.7545409767775
 20
31.52145723942501
 30
0.0
  0
VERTEX
  5
E0
  8
16
 10
356.765703989228
 20
31.52094604120682
 30
0.0
  0
VERTEX
  5
E1
  8
16
 10
356.7768401838711
 20
31.52012940560267
 30
0.0
  0
VERTEX
  5
E2
  8
16
 10
356.7879370430066
 20
31.51900916117432
 30
0.0
  0
VERTEX
  5
E3
  8
16
 10
356.7989821965501
 20
31.51758781358107
 30
0.0
  0
VERTEX
  5
E4
  8
16
 10
356.8099634674937
 20
31.51586853156643
 30
0.0
  0
VERTEX
  5
E5
  8
16
 10
356.8208689158604
 20
31.51385512934797
 30
0.0
  0
VERTEX
  5
E6
  8
16
 10
356.8316868808253
 20
31.51155204559176
 30
0.0
  0
VERTEX
  5
E7
  8
16
 10
356.8424060207022
 20
31.50896431918595
 30
0.0
  0
VERTEX
  5
E8
  8
16
 10
356.85301535052
 20
31.50609756205744
 30
0.0
  0
VERTEX
  5
E9
  8
16
 10
356.8635042769438
 20
31.50295792930067
 30
0.0
  0
VERTEX
  5
EA
  8
16
 10
356.8738626303321
 20
31.49955208690934
 30
0.0
  0
VERTEX
  5
EB
  8
16
 10
356.8840806937511
 20
31.49588717741827
 30
0.0
  0
VERTEX
  5
EC
  8
16
 10
356.8941492288094
 20
31.49197078377516
 30
0.0
  0
VERTEX
  5
ED
  8
16
 10
356.9040594982082
 20
31.48781089176943
 30
0.0
  0
VERTEX
  5
EE
  8
16
 10
356.9138032849411
 20
31.48341585134871
 30
0.0
  0
VERTEX
  5
EF
  8
16
 10
356.9233729081148
 20
31.47879433715199
 30
0.0
  0
VERTEX
  5
F0
  8
16
 10
356.9327612353934
 20
31.47395530858333
 30
0.0
  0
VERTEX
  5
F1
  8
16
 10
356.9419616921063
 20
31.46890796974036
 30
0.0
  0
VERTEX
  5
F2
  8
16
 10
356.9509682670883
 20
31.46366172949941
 30
0.0
  0
VERTEX
  5
F3
  8
16
 10
356.959775515349
 20
31.45822616204272
 30
0.0
  0
VERTEX
  5
F4
  8
16
 10
356.9683785576958
 20
31.45261096809496
 30
0.0
  0
VERTEX
  5
F5
  8
16
 10
356.9767730774575
 20
31.44682593711515
 30
0.0
  0
VERTEX
  5
F6
  8
16
 10
356.9849553144733
 20
31.44088091066757
 30
0.0
  0
VERTEX
  5
F7
  8
16
 10
356.9929220565307
 20
31.4347857471714
 30
0.0
  0
VERTEX
  5
F8
  8
16
 10
357.0006706284473
 20
31.42855028820381
 30
0.0
  0
VERTEX
  5
F9
  8
16
 10
357.0081988790024
 20
31.42218432650635
 30
0.0
  0
VERTEX
  5
FA
  8
16
 10
357.0155051659303
 20
31.41569757581911
 30
0.0
  0
VERTEX
  5
FB
  8
16
 10
357.0225883391915
 20
31.40909964264214
 30
0.0
  0
VERTEX
  5
FC
  8
16
 10
359.5694315178853
 20
28.86238440072871
 30
0.0
  0
VERTEX
  5
FD
  8
16
 10
359.5767725152899
 20
28.85484887784383
 30
0.0
  0
VERTEX
  5
FE
  8
16
 10
359.5839136958308
 20
28.84712848456983
 30
0.0
  0
VERTEX
  5
FF
  8
16
 10
359.5908481920818
 20
28.83923124896584
 30
0.0
  0
VERTEX
  5
100
  8
16
 10
359.5975695694303
 20
28.83116553223871
 30
0.0
  0
VERTEX
  5
101
  8
16
 10
359.6040718457443
 20
28.82293999945156
 30
0.0
  0
VERTEX
  5
102
  8
16
 10
359.6103495086612
 20
28.81456358888969
 30
0.0
  0
VERTEX
  5
103
  8
16
 10
359.6163975303965
 20
28.8060454803088
 30
0.0
  0
VERTEX
  5
104
  8
16
 10
359.6222113799948
 20
28.79739506229801
 30
0.0
  0
VERTEX
  5
105
  8
16
 10
359.6277870329719
 20
28.78862189899578
 30
0.0
  0
VERTEX
  5
106
  8
16
 10
359.6331209783183
 20
28.77973569639862
 30
0.0
  0
VERTEX
  5
107
  8
16
 10
359.6382102228642
 20
28.77074626850212
 30
0.0
  0
VERTEX
  5
108
  8
16
 10
359.6430522930248
 20
28.76166350351017
 30
0.0
  0
VERTEX
  5
109
  8
16
 10
359.6476452339712
 20
28.75249733034207
 30
0.0
  0
VERTEX
  5
10A
  8
16
 10
359.6519876062957
 20
28.74325768565875
 30
0.0
  0
VERTEX
  5
10B
  8
16
 10
359.6560784802571
 20
28.73395448161818
 30
0.0
  0
VERTEX
  5
10C
  8
16
 10
359.6599174277136
 20
28.72459757455696
 30
0.0
  0
VERTEX
  5
10D
  8
16
 10
359.6635045118683
 20
28.71519673478045
 30
0.0
  0
VERTEX
  5
10E
  8
16
 10
359.6668402749641
 20
28.70576161762722
 30
0.0
  0
VERTEX
  5
10F
  8
16
 10
359.6699257240832
 20
28.69630173595625
 30
0.0
  0
VERTEX
  5
110
  8
16
 10
359.6727623152093
 20
28.68682643418659
 30
0.0
  0
VERTEX
  5
111
  8
16
 10
359.6753519357284
 20
28.67734486400039
 30
0.0
  0
VERTEX
  5
112
  8
16
 10
359.6776968855394
 20
28.66786596180057
 30
0.0
  0
VERTEX
  5
113
  8
16
 10
359.6797998569604
 20
28.6583984279952
 30
0.0
  0
VERTEX
  5
114
  8
16
 10
359.6816639136078
 20
28.6489507081614
 30
0.0
  0
VERTEX
  5
115
  8
16
 10
359.6832924684329
 20
28.63953097612298
 30
0.0
  0
VERTEX
  5
116
  8
16
 10
359.684689261093
 20
28.63014711895793
 30
0.0
  0
VERTEX
  5
117
  8
16
 10
359.6858583348316
 20
28.62080672393517
 30
0.0
  0
VERTEX
  5
118
  8
16
 10
359.6868040130387
 20
28.61151706736372
 30
0.0
  0
VERTEX
  5
119
  8
16
 10
359.6875308756493
 20
28.60228510532273
 30
0.0
  0
VERTEX
  5
11A
  8
16
 10
359.688043735535
 20
28.59311746622758
 30
0.0
  0
VERTEX
  5
11B
  8
16
 10
359.6883476150323
 20
28.58402044517505
 30
0.0
  0
VERTEX
  5
11C
  8
16
 10
359.6881979920124
 20
15.89603028313837
 30
0.0
  0
VERTEX
  5
11D
  8
16
 10
359.6886071752841
 20
15.88486269574714
 30
0.0
  0
VERTEX
  5
11E
  8
16
 10
359.6887095811106
 20
15.87368395683086
 30
0.0
  0
VERTEX
  5
11F
  8
16
 10
359.6885049606063
 20
15.8625067444038
 30
0.0
  0
VERTEX
  5
120
  8
16
 10
359.6879937611776
 20
15.85134373074284
 30
0.0
  0
VERTEX
  5
121
  8
16
 10
359.6871771240201
 20
15.84020753454643
 30
0.0
  0
VERTEX
  5
122
  8
16
 10
359.6860568776984
 20
15.82911067351761
 30
0.0
  0
VERTEX
  5
123
  8
16
 10
359.6846355278752
 20
15.81806551774421
 30
0.0
  0
VERTEX
  5
124
  8
16
 10
359.6829162432985
 20
15.80708424423841
 30
0.0
  0
VERTEX
  5
125
  8
16
 10
359.6809028381908
 20
15.79617879298237
 30
0.0
  0
VERTEX
  5
126
  8
16
 10
359.6785997512235
 20
15.78536082480653
 30
0.0
  0
VERTEX
  5
127
  8
16
 10
359.6760120212914
 20
15.77464168140332
 30
0.0
  0
VERTEX
  5
128
  8
16
 10
359.6731452603283
 20
15.76403234775097
 30
0.0
  0
VERTEX
  5
129
  8
16
 10
359.6700056234362
 20
15.75354341719171
 30
0.0
  0
VERTEX
  5
12A
  8
16
 10
359.6665997766168
 20
15.74318505937538
 30
0.0
  0
VERTEX
  5
12B
  8
16
 10
359.6629348624136
 20
15.73296699124423
 30
0.0
  0
VERTEX
  5
12C
  8
16
 10
359.6590184637832
 20
15.72289845119873
 30
0.0
  0
VERTEX
  5
12D
  8
16
 10
359.6548585665248
 20
15.71298817654728
 30
0.0
  0
VERTEX
  5
12E
  8
16
 10
359.6504635205957
 20
15.70324438430602
 30
0.0
  0
VERTEX
  5
12F
  8
16
 10
359.6458420006452
 20
15.69367475537862
 30
0.0
  0
VERTEX
  5
130
  8
16
 10
359.6410029660879
 20
15.68428642211141
 30
0.0
  0
VERTEX
  5
131
  8
16
 10
359.6359556210322
 20
15.67508595918563
 30
0.0
  0
VERTEX
  5
132
  8
16
 10
359.6307093743653
 20
15.66607937777755
 30
0.0
  0
VERTEX
  5
133
  8
16
 10
359.6252738002805
 20
15.65727212288875
 30
0.0
  0
VERTEX
  5
134
  8
16
 10
359.6196585995137
 20
15.64866907372292
 30
0.0
  0
VERTEX
  5
135
  8
16
 10
359.6138735615352
 20
15.64027454696256
 30
0.0
  0
VERTEX
  5
136
  8
16
 10
359.6079285279206
 20
15.63209230277978
 30
0.0
  0
VERTEX
  5
137
  8
16
 10
359.6018333571005
 20
15.62412555339841
 30
0.0
  0
VERTEX
  5
138
  8
16
 10
359.5955978906632
 20
15.61637697401209
 30
0.0
  0
VERTEX
  5
139
  8
16
 10
359.5892319213613
 20
15.6088487158527
 30
0.0
  0
VERTEX
  5
13A
  8
16
 10
359.5827451629462
 20
15.60154242119694
 30
0.0
  0
VERTEX
  5
13B
  8
16
 10
359.5761472219287
 20
15.59445924009497
 30
0.0
  0
VERTEX
  5
13C
  8
16
 10
358.2994317722249
 20
14.31761585361088
 30
0.0
  0
VERTEX
  5
13D
  8
16
 10
358.2918962678824
 20
14.31027487759471
 30
0.0
  0
VERTEX
  5
13E
  8
16
 10
358.2841758928025
 20
14.30313371790478
 30
0.0
  0
VERTEX
  5
13F
  8
16
 10
358.2762786750241
 20
14.29619924194239
 30
0.0
  0
VERTEX
  5
140
  8
16
 10
358.2682129757346
 20
14.28947788429661
 30
0.0
  0
VERTEX
  5
141
  8
16
 10
358.259987459978
 20
14.28297562707711
 30
0.0
  0
VERTEX
  5
142
  8
16
 10
358.251611066021
 20
14.27669798262569
 30
0.0
  0
VERTEX
  5
143
  8
16
 10
358.2430929736021
 20
14.27064997870783
 30
0.0
  0
VERTEX
  5
144
  8
16
 10
358.2344425712935
 20
14.26483614626134
 30
0.0
  0
VERTEX
  5
145
  8
16
 10
358.2256694232178
 20
14.25926050975484
 30
0.0
  0
VERTEX
  5
146
  8
16
 10
358.2167832353565
 20
14.25392658018346
 30
0.0
  0
VERTEX
  5
147
  8
16
 10
358.2077938216913
 20
14.2488373507047
 30
0.0
  0
VERTEX
  5
148
  8
16
 10
358.1987110704132
 20
14.24399529489303
 30
0.0
  0
VERTEX
  5
149
  8
16
 10
358.1895449104297
 20
14.23940236756834
 30
0.0
  0
VERTEX
  5
14A
  8
16
 10
358.1803052783911
 20
14.23506000813142
 30
0.0
  0
VERTEX
  5
14B
  8
16
 10
358.1710020864458
 20
14.23096914631837
 30
0.0
  0
VERTEX
  5
14C
  8
16
 10
358.1616451909217
 20
14.2271302102674
 30
0.0
  0
VERTEX
  5
14D
  8
16
 10
358.1522443621172
 20
14.2235431367739
 30
0.0
  0
VERTEX
  5
14E
  8
16
 10
358.142809255365
 20
14.22020738359465
 30
0.0
  0
VERTEX
  5
14F
  8
16
 10
358.1333493835188
 20
14.21712194364944
 30
0.0
  0
VERTEX
  5
150
  8
16
 10
358.1238740909943
 20
14.21428536095746
 30
0.0
  0
VERTEX
  5
151
  8
16
 10
358.1143925294711
 20
14.21169574813785
 30
0.0
  0
VERTEX
  5
152
  8
16
 10
358.1049136353508
 20
14.20935080529757
 30
0.0
  0
VERTEX
  5
153
  8
16
 10
358.0954461090412
 20
14.20724784012633
 30
0.0
  0
VERTEX
  5
154
  8
16
 10
358.0859983961204
 20
14.2053837890166
 30
0.0
  0
VERTEX
  5
155
  8
16
 10
358.0765786704142
 20
14.20375523902737
 30
0.0
  0
VERTEX
  5
156
  8
16
 10
358.0671948190039
 20
14.20235845051288
 30
0.0
  0
VERTEX
  5
157
  8
16
 10
358.0578544291624
 20
14.20118938024166
 30
0.0
  0
VERTEX
  5
158
  8
16
 10
358.0485647772036
 20
14.20024370483726
 30
0.0
  0
VERTEX
  5
159
  8
16
 10
358.039332819213
 20
14.19951684437916
 30
0.0
  0
VERTEX
  5
15A
  8
16
 10
358.0301651836127
 20
14.1990039860109
 30
0.0
  0
VERTEX
  5
15B
  8
16
 10
358.0210681655071
 20
14.19870010741192
 30
0.0
  0
VERTEX
  5
15C
  8
16
 10
358.0120477227399
 20
14.1986
 30
0.0
  0
VERTEX
  5
15D
  8
16
 10
357.8178446552508
 20
14.1986
 30
0.0
 42
-5.476862530785263
  0
VERTEX
  5
15E
  8
16
 10
357.8178446552508
 20
15.0114
 30
0.0
  0
VERTEX
  5
15F
  8
16
 10
357.8436477227398
 20
15.0114
 30
0.0
  0
VERTEX
  5
160
  8
16
 10
358.8756477227399
 20
16.0434
 30
0.0
  0
VERTEX
  5
161
  8
16
 10
358.8756477227399
 20
28.40660000000001
 30
0.0
  0
VERTEX
  5
162
  8
16
 10
356.5736477227398
 20
30.70860000000001
 30
0.0
  0
VERTEX
  5
163
  8
16
 10
341.0354477227398
 20
30.7086
 30
0.0
  0
VERTEX
  5
164
  8
16
 10
334.1694477227398
 20
23.84259999999999
 30
0.0
 42
-0.2119985477004184
  0
VERTEX
  5
165
  8
16
 10
333.8610174396015
 20
23.7238497307342
 30
0.0
 42
-0.0000249313204345
  0
VERTEX
  5
166
  8
16
 10
326.6684477227399
 20
23.72370890980528
 30
0.0
  0
VERTEX
  5
167
  8
16
 10
326.6684477227398
 20
18.85579693251095
 30
0.0
 42
-5.476862530784561
  0
VERTEX
  5
168
  8
16
 10
325.8556477227398
 20
18.85579693251097
 30
0.0
  0
VERTEX
  5
169
  8
16
 10
325.8556477227398
 20
23.72380202007745
 30
0.0
 42
-0.00044186347389
  0
VERTEX
  5
16A
  8
16
 10
325.6270476542259
 20
23.7236
 30
0.0
  0
VERTEX
  5
16B
  8
16
 10
306.3483529068209
 20
23.7236
 30
0.0
  0
VERTEX
  5
16C
  8
16
 10
306.3484446164367
 20
18.85579810596289
 30
0.0
 42
-5.476884905679748
  0
VERTEX
  5
16D
  8
16
 10
305.5356477227399
 20
18.85579693251097
 30
0.0
  0
VERTEX
  5
16E
  8
16
 10
305.5356477227398
 20
23.7236
 30
0.0
  0
VERTEX
  5
16F
  8
16
 10
286.0283529068209
 20
23.7236
 30
0.0
  0
VERTEX
  5
170
  8
16
 10
286.0284446164379
 20
18.85579810596245
 30
0.0
 42
-5.476884905669624
  0
VERTEX
  5
171
  8
16
 10
285.2156477227398
 20
18.85579693251099
 30
0.0
  0
VERTEX
  5
172
  8
16
 10
285.2156477227398
 20
23.7236
 30
0.0
  0
VERTEX
  5
173
  8
16
 10
265.7083529068209
 20
23.7236
 30
0.0
  0
VERTEX
  5
174
  8
16
 10
265.7084446164379
 20
18.85579810596247
 30
0.0
 42
-5.476884905668832
  0
VERTEX
  5
175
  8
16
 10
264.8956477227399
 20
18.855796932511
 30
0.0
  0
VERTEX
  5
176
  8
16
 10
264.8956477227399
 20
23.7236
 30
0.0
  0
VERTEX
  5
177
  8
16
 10
241.578352906821
 20
23.7236
 30
0.0
  0
VERTEX
  5
178
  8
16
 10
241.578444616438
 20
18.85579810596255
 30
0.0
 42
-5.476884905669789
  0
VERTEX
  5
179
  8
16
 10
240.7656477227399
 20
18.85579693251096
 30
0.0
  0
VERTEX
  5
17A
  8
16
 10
240.7656477227399
 20
23.7236
 30
0.0
  0
VERTEX
  5
17B
  8
16
 10
221.258352906821
 20
23.7236
 30
0.0
  0
VERTEX
  5
17C
  8
16
 10
221.2584446164379
 20
18.85579810596251
 30
0.0
 42
-5.476884905669424
  0
VERTEX
  5
17D
  8
16
 10
220.4456477227398
 20
18.85579693251096
 30
0.0
  0
VERTEX
  5
17E
  8
16
 10
220.4456477227398
 20
23.7236
 30
0.0
  0
VERTEX
  5
17F
  8
16
 10
201.3352002181182
 20
23.72351749845964
 30
0.0
 42
-0.0001039494214376
  0
VERTEX
  5
180
  8
16
 10
200.9384477227397
 20
23.32660000000021
 30
0.0
  0
VERTEX
  5
181
  8
16
 10
200.9384477227399
 20
18.85579693251095
 30
0.0
 42
-5.476926744076196
  0
VERTEX
  5
182
  8
16
 10
200.1256566374072
 20
18.85580030012995
 30
0.0
 42
-0.0000177861329638
  0
VERTEX
  5
183
  8
16
 10
200.1258974534649
 20
23.47396971686162
 30
0.0
  0
VERTEX
  5
184
  8
16
 10
200.1960115053202
 20
23.7236101036097
 30
0.0
  0
VERTEX
  5
185
  8
16
 10
181.0154477227399
 20
23.7236
 30
0.0
  0
VERTEX
  5
186
  8
16
 10
180.6184477227399
 20
23.32660000000001
 30
0.0
  0
VERTEX
  5
187
  8
16
 10
180.6184477227398
 20
18.85579693251092
 30
0.0
 42
-5.476862530785056
  0
VERTEX
  5
188
  8
16
 10
179.8056477227398
 20
18.85579693251091
 30
0.0
  0
VERTEX
  5
189
  8
16
 10
179.8056477227399
 20
23.495
 30
0.0
 42
-0.2119261175027264
  0
VERTEX
  5
18A
  8
16
 10
179.9397251020632
 20
23.79706064109216
 30
0.0
  0
VERTEX
  5
18B
  8
16
 10
180.5665071062881
 20
24.42409964264215
 30
0.0
  0
VERTEX
  5
18C
  8
16
 10
180.5735902795495
 20
24.43069757581911
 30
0.0
  0
VERTEX
  5
18D
  8
16
 10
180.5808965664774
 20
24.43718432650637
 30
0.0
  0
VERTEX
  5
18E
  8
16
 10
180.5884248170324
 20
24.4435502882038
 30
0.0
  0
VERTEX
  5
18F
  8
16
 10
180.596173388949
 20
24.44978574717137
 30
0.0
  0
VERTEX
  5
190
  8
16
 10
180.6041401310064
 20
24.45588091066751
 30
0.0
  0
VERTEX
  5
191
  8
16
 10
180.6123223680222
 20
24.46182593711505
 30
0.0
  0
VERTEX
  5
192
  8
16
 10
180.620716887784
 20
24.46761096809483
 30
0.0
  0
VERTEX
  5
193
  8
16
 10
180.6293199301308
 20
24.47322616204254
 30
0.0
  0
VERTEX
  5
194
  8
16
 10
180.6381271783915
 20
24.47866172949917
 30
0.0
  0
VERTEX
  5
195
  8
16
 10
180.6471337533735
 20
24.48390796974005
 30
0.0
  0
VERTEX
  5
196
  8
16
 10
180.6563342100865
 20
24.48895530858293
 30
0.0
  0
VERTEX
  5
197
  8
16
 10
180.6657225373651
 20
24.4937943371515
 30
0.0
  0
VERTEX
  5
198
  8
16
 10
180.6752921605387
 20
24.49841585134811
 30
0.0
  0
VERTEX
  5
199
  8
16
 10
180.6850359472716
 20
24.50281089176873
 30
0.0
  0
VERTEX
  5
19A
  8
16
 10
180.6949462166704
 20
24.50697078377434
 30
0.0
  0
VERTEX
  5
19B
  8
16
 10
180.7050147517288
 20
24.51088717741733
 30
0.0
  0
VERTEX
  5
19C
  8
16
 10
180.7152328151478
 20
24.51455208690825
 30
0.0
  0
VERTEX
  5
19D
  8
16
 10
180.725591168536
 20
24.51795792929944
 30
0.0
  0
VERTEX
  5
19E
  8
16
 10
180.7360800949599
 20
24.52109756205605
 30
0.0
  0
VERTEX
  5
19F
  8
16
 10
180.7466894247777
 20
24.52396431918439
 30
0.0
  0
VERTEX
  5
1A0
  8
16
 10
180.7574085646546
 20
24.52655204559002
 30
0.0
  0
VERTEX
  5
1A1
  8
16
 10
180.7682265296195
 20
24.52885512934605
 30
0.0
  0
VERTEX
  5
1A2
  8
16
 10
180.7791319779861
 20
24.53086853156432
 30
0.0
  0
VERTEX
  5
1A3
  8
16
 10
180.7901132489298
 20
24.53258781357875
 30
0.0
  0
VERTEX
  5
1A4
  8
16
 10
180.8011584024733
 20
24.5340091611718
 30
0.0
  0
VERTEX
  5
1A5
  8
16
 10
180.8122552616088
 20
24.53512940559993
 30
0.0
  0
VERTEX
  5
1A6
  8
16
 10
180.8233914562518
 20
24.53594604120384
 30
0.0
  0
VERTEX
  5
1A7
  8
16
 10
180.8345544687023
 20
24.53645723942181
 30
0.0
  0
VERTEX
  5
1A8
  8
16
 10
180.8457316802636
 20
24.53666185906019
 30
0.0
  0
VERTEX
  5
1A9
  8
16
 10
180.8569104186602
 20
24.53655945271379
 30
0.0
  0
VERTEX
  5
1AA
  8
16
 10
180.8680780058782
 20
24.53615026920635
 30
0.0
 42
-0.0000123153824121
  0
VERTEX
  5
1AB
  8
16
 10
201.1460174396015
 20
24.53615026926855
 30
0.0
  0
VERTEX
  5
1AC
  8
16
 10
201.1880780063798
 20
24.53615026928605
 30
0.0
 42
-0.0000114973526048
  0
VERTEX
  5
1AD
  8
16
 10
220.8339303115178
 20
24.53619797993451
 30
0.0
  0
VERTEX
  5
1AE
  8
16
 10
220.8701651339618
 20
24.53619797991659
 30
0.0
 42
-0.000009959698462
  0
VERTEX
  5
1AF
  8
16
 10
241.1539303115179
 20
24.53619797993451
 30
0.0
  0
VERTEX
  5
1B0
  8
16
 10
241.1901651339619
 20
24.5361979800096
 30
0.0
 42
-0.0000083847421553
  0
VERTEX
  5
1B1
  8
16
 10
265.2839303115179
 20
24.53619797993451
 30
0.0
  0
VERTEX
  5
1B2
  8
16
 10
265.3201651339618
 20
24.53619797991648
 30
0.0
 42
-0.0000099596984613
  0
VERTEX
  5
1B3
  8
16
 10
285.6039303115178
 20
24.53619797993451
 30
0.0
  0
VERTEX
  5
1B4
  8
16
 10
285.6401651339619
 20
24.53619797986911
 30
0.0
 42
-0.0000099596906134
  0
VERTEX
  5
1B5
  8
16
 10
305.9239303115178
 20
24.53619797987631
 30
0.0
  0
VERTEX
  5
1B6
  8
16
 10
305.9601651339619
 20
24.536197979902
 30
0.0
 42
-0.00000513604127
  0
VERTEX
  5
1B7
  8
16
 10
325.6270477227398
 20
24.53640000009909
 30
0.0
  0
VERTEX
  5
1B8
  8
16
 10
326.2620477227399
 20
24.5364
 30
0.0
  0
VERTEX
  5
1B9
  8
16
 10
333.7136583957419
 20
24.53640355766733
 30
0.0
  0
SEQEND
  5
1BA
  8
16
  0
POLYLINE
  5
1BB
  8
16
 66
     1
 10
0.0
 20
0.0
 30
0.0
  0
VERTEX
  5
1BC
  8
16
 10
340.8880780058782
 20
27.7111502692725
 30
0.0
  0
VERTEX
  5
1BD
  8
16
 10
353.1262501742861
 20
27.71139836951071
 30
0.0
 42
-5.476874170823485
  0
VERTEX
  5
1BE
  8
16
 10
353.1262507957073
 20
26.89859998549797
 30
0.0
  0
VERTEX
  5
1BF
  8
16
 10
341.0354412059079
 20
26.89859782772269
 30
0.0
  0
VERTEX
  5
1C0
  8
16
 10
329.716897594987
 20
15.58027620185317
 30
0.0
  0
VERTEX
  5
1C1
  8
16
 10
329.7091771381249
 20
15.57313495772414
 30
0.0
  0
VERTEX
  5
1C2
  8
16
 10
329.7012798407732
 20
15.56620039972541
 30
0.0
  0
VERTEX
  5
1C3
  8
16
 10
329.693214064196
 20
15.559478962527
 30
0.0
  0
VERTEX
  5
1C4
  8
16
 10
329.6849884735099
 20
15.55297662831404
 30
0.0
  0
VERTEX
  5
1C5
  8
16
 10
329.6766120070491
 20
15.54669890949815
 30
0.0
  0
VERTEX
  5
1C6
  8
16
 10
329.668093844614
 20
15.54065083390869
 30
0.0
  0
VERTEX
  5
1C7
  8
16
 10
329.6594433748342
 20
15.53483693254134
 30
0.0
  0
VERTEX
  5
1C8
  8
16
 10
329.6506701618841
 20
15.52926122991638
 30
0.0
  0
VERTEX
  5
1C9
  8
16
 10
329.6417839117912
 20
15.52392723707428
 30
0.0
  0
VERTEX
  5
1CA
  8
16
 10
329.6327944385779
 20
15.51883794721154
 30
0.0
  0
VERTEX
  5
1CB
  8
16
 10
329.6237116304701
 20
15.51399583393518
 30
0.0
  0
VERTEX
  5
1CC
  8
16
 10
329.6145454164044
 20
15.5094028520913
 30
0.0
  0
VERTEX
  5
1CD
  8
16
 10
329.6053057330549
 20
15.50506044110044
 30
0.0
  0
VERTEX
  5
1CE
  8
16
 10
329.5960024925875
 20
15.5009695307122
 30
0.0
  0
VERTEX
  5
1CF
  8
16
 10
329.5866455513426
 20
15.49713054907205
 30
0.0
  0
VERTEX
  5
1D0
  8
16
 10
329.5772446796252
 20
15.49354343297652
 30
0.0
  0
VERTEX
  5
1D1
  8
16
 10
329.5678095327689
 20
15.49020764017757
 30
0.0
  0
VERTEX
  5
1D2
  8
16
 10
329.5583496236238
 20
15.4871221635844
 30
0.0
  0
VERTEX
  5
1D3
  8
16
 10
329.548874296596
 20
15.4842855472
 30
0.0
  0
VERTEX
  5
1D4
  8
16
 10
329.5393927033506
 20
15.48169590362194
 30
0.0
  0
VERTEX
  5
1D5
  8
16
 10
329.5299137802704
 20
15.47935093293049
 30
0.0
  0
VERTEX
  5
1D6
  8
16
 10
329.5204462277393
 20
15.47724794278376
 30
0.0
  0
VERTEX
  5
1D7
  8
16
 10
329.5109984913072
 20
15.47538386953796
 30
0.0
  0
VERTEX
  5
1D8
  8
16
 10
329.5015787447674
 20
15.4737553002115
 30
0.0
  0
VERTEX
  5
1D9
  8
16
 10
329.4921948751647
 20
15.47235849511396
 30
0.0
  0
VERTEX
  5
1DA
  8
16
 10
329.4828544697319
 20
15.47118941096542
 30
0.0
  0
VERTEX
  5
1DB
  8
16
 10
329.4735648047398
 20
15.47024372433751
 30
0.0
  0
VERTEX
  5
1DC
  8
16
 10
329.4643328362265
 20
15.46951685525456
 30
0.0
  0
VERTEX
  5
1DD
  8
16
 10
329.4551651925647
 20
15.46900399080211
 30
0.0
  0
VERTEX
  5
1DE
  8
16
 10
329.4460681688062
 20
15.46870010859897
 30
0.0
  0
VERTEX
  5
1DF
  8
16
 10
329.4370477227398
 20
15.4686
 30
0.0
  0
VERTEX
  5
1E0
  8
16
 10
325.6270477227399
 20
15.46860000000001
 30
0.0
 42
-0.2119261175038196
  0
VERTEX
  5
1E1
  8
16
 10
325.3249870816468
 20
15.6026773793222
 30
0.0
 42
-0.0000587885641338
  0
VERTEX
  5
1E2
  8
16
 10
323.5536462328309
 20
17.37360124162205
 30
0.0
  0
VERTEX
  5
1E3
  8
16
 10
309.5579106097042
 20
17.37377463342027
 30
0.0
 42
-1.549016153115669
  0
VERTEX
  5
1E4
  8
16
 10
308.0756477227399
 20
18.85579693251094
 30
0.0
  0
VERTEX
  5
1E5
  8
16
 10
308.0756477227399
 20
20.51420306748904
 30
0.0
 42
-5.476862530783068
  0
VERTEX
  5
1E6
  8
16
 10
308.8884477227398
 20
20.51420306748906
 30
0.0
  0
VERTEX
  5
1E7
  8
16
 10
308.8884477227398
 20
18.85579693251095
 30
0.0
 42
-0.2153410886981117
  0
VERTEX
  5
1E8
  8
16
 10
309.5578446552508
 20
18.1864
 30
0.0
  0
VERTEX
  5
1E9
  8
16
 10
323.7220477227398
 20
18.18640000000001
 30
0.0
 42
-0.2119260650821011
  0
VERTEX
  5
1EA
  8
16
 10
324.0241083638311
 20
18.05232262067564
 30
0.0
 42
-0.000059104231228
  0
VERTEX
  5
1EB
  8
16
 10
325.7954447426191
 20
16.2814009933727
 30
0.0
  0
VERTEX
  5
1EC
  8
16
 10
329.2686477227399
 20
16.2814
 30
0.0
  0
VERTEX
  5
1ED
  8
16
 10
340.5796477227398
 20
27.5924
 30
0.0
 42
-0.2119986001407212
  0
VERTEX
  5
1EE
  8
16
 10
340.8880780058782
 20
27.71115026927248
 30
0.0
  0
SEQEND
  5
1EF
  8
16
  0
POLYLINE
  5
1F0
  8
16
 66
     1
 10
0.0
 20
0.0
 30
0.0
  0
VERTEX
  5
1F1
  8
16
 10
340.2530780058783
 20
25.1711502692725
 30
0.0
  0
VERTEX
  5
1F2
  8
16
 10
353.1262502290888
 20
25.17139851458168
 30
0.0
 42
-5.476873123358695
  0
VERTEX
  5
1F3
  8
16
 10
353.1262507958389
 20
24.35859998514947
 30
0.0
  0
VERTEX
  5
1F4
  8
16
 10
340.4004403900765
 20
24.3585975557789
 30
0.0
  0
VERTEX
  5
1F5
  8
16
 10
330.3518962678824
 20
14.31027487759472
 30
0.0
  0
VERTEX
  5
1F6
  8
16
 10
330.3441758928025
 20
14.30313371790479
 30
0.0
  0
VERTEX
  5
1F7
  8
16
 10
330.3362786750242
 20
14.29619924194239
 30
0.0
  0
VERTEX
  5
1F8
  8
16
 10
330.3282129757347
 20
14.28947788429661
 30
0.0
  0
VERTEX
  5
1F9
  8
16
 10
330.3199874599781
 20
14.28297562707711
 30
0.0
  0
VERTEX
  5
1FA
  8
16
 10
330.3116110660211
 20
14.2766979826257
 30
0.0
  0
VERTEX
  5
1FB
  8
16
 10
330.3030929736022
 20
14.27064997870783
 30
0.0
  0
VERTEX
  5
1FC
  8
16
 10
330.2944425712935
 20
14.26483614626134
 30
0.0
  0
VERTEX
  5
1FD
  8
16
 10
330.2856694232178
 20
14.25926050975484
 30
0.0
  0
VERTEX
  5
1FE
  8
16
 10
330.2767832353565
 20
14.25392658018346
 30
0.0
  0
VERTEX
  5
1FF
  8
16
 10
330.2677938216913
 20
14.2488373507047
 30
0.0
  0
VERTEX
  5
200
  8
16
 10
330.2587110704132
 20
14.24399529489303
 30
0.0
  0
VERTEX
  5
201
  8
16
 10
330.2495449104297
 20
14.23940236756834
 30
0.0
  0
VERTEX
  5
202
  8
16
 10
330.2403052783911
 20
14.23506000813142
 30
0.0
  0
VERTEX
  5
203
  8
16
 10
330.2310020864457
 20
14.23096914631836
 30
0.0
  0
VERTEX
  5
204
  8
16
 10
330.2216451909218
 20
14.2271302102674
 30
0.0
  0
VERTEX
  5
205
  8
16
 10
330.2122443621173
 20
14.2235431367739
 30
0.0
  0
VERTEX
  5
206
  8
16
 10
330.202809255365
 20
14.22020738359465
 30
0.0
  0
VERTEX
  5
207
  8
16
 10
330.1933493835188
 20
14.21712194364944
 30
0.0
  0
VERTEX
  5
208
  8
16
 10
330.1838740909943
 20
14.21428536095746
 30
0.0
  0
VERTEX
  5
209
  8
16
 10
330.1743925294712
 20
14.21169574813785
 30
0.0
  0
VERTEX
  5
20A
  8
16
 10
330.1649136353508
 20
14.20935080529756
 30
0.0
  0
VERTEX
  5
20B
  8
16
 10
330.1554461090412
 20
14.20724784012633
 30
0.0
  0
VERTEX
  5
20C
  8
16
 10
330.1459983961204
 20
14.2053837890166
 30
0.0
  0
VERTEX
  5
20D
  8
16
 10
330.1365786704143
 20
14.20375523902738
 30
0.0
  0
VERTEX
  5
20E
  8
16
 10
330.1271948190039
 20
14.20235845051288
 30
0.0
  0
VERTEX
  5
20F
  8
16
 10
330.1178544291624
 20
14.20118938024166
 30
0.0
  0
VERTEX
  5
210
  8
16
 10
330.1085647772037
 20
14.20024370483726
 30
0.0
  0
VERTEX
  5
211
  8
16
 10
330.0993328192131
 20
14.19951684437916
 30
0.0
  0
VERTEX
  5
212
  8
16
 10
330.0901651836127
 20
14.19900398601089
 30
0.0
  0
VERTEX
  5
213
  8
16
 10
330.0810681655072
 20
14.19870010741192
 30
0.0
  0
VERTEX
  5
214
  8
16
 10
325.0130780058782
 20
14.19884973072751
 30
0.0
 42
-0.2119986000269141
  0
VERTEX
  5
215
  8
16
 10
324.7046477226407
 20
14.31759999995344
 30
0.0
  0
VERTEX
  5
216
  8
16
 10
323.5536431499058
 20
15.46860228624675
 30
0.0
 42
-0.0000069138284821
  0
VERTEX
  5
217
  8
16
 10
305.3280780060952
 20
15.46884973079433
 30
0.0
 42
-0.2119986003698385
  0
VERTEX
  5
218
  8
16
 10
305.0196477227398
 20
15.58759999999999
 30
0.0
  0
VERTEX
  5
219
  8
16
 10
303.2336477227399
 20
17.3736
 30
0.0
  0
VERTEX
  5
21A
  8
16
 10
289.2378446552509
 20
17.37360000000001
 30
0.0
 42
-1.548961175474863
  0
VERTEX
  5
21B
  8
16
 10
287.7557527576705
 20
18.85583660532637
 30
0.0
 42
-0.0000116501939793
  0
VERTEX
  5
21C
  8
16
 10
287.7556639838658
 20
20.51419692472338
 30
0.0
 42
-5.476979662422035
  0
VERTEX
  5
21D
  8
16
 10
288.5684477227398
 20
20.51420306748908
 30
0.0
  0
VERTEX
  5
21E
  8
16
 10
288.5684477227399
 20
18.85579693251098
 30
0.0
 42
-0.2153418279579287
  0
VERTEX
  5
21F
  8
16
 10
289.2378458037298
 20
18.18639695980434
 30
0.0
  0
VERTEX
  5
220
  8
16
 10
303.4116343043507
 20
18.18628708542893
 30
0.0
  0
VERTEX
  5
221
  8
16
 10
303.4213072564108
 20
18.1859440883037
 30
0.0
  0
VERTEX
  5
222
  8
16
 10
303.4310594049363
 20
18.18536479042544
 30
0.0
  0
VERTEX
  5
223
  8
16
 10
303.4408831463981
 20
18.18454321428977
 30
0.0
  0
VERTEX
  5
224
  8
16
 10
303.4507704533702
 20
18.18347365451974
 30
0.0
  0
VERTEX
  5
225
  8
16
 10
303.4607128826601
 20
18.18215070965078
 30
0.0
  0
VERTEX
  5
226
  8
16
 10
303.4707015860179
 20
18.18056931406066
 30
0.0
  0
VERTEX
  5
227
  8
16
 10
303.4807273235085
 20
18.17872476982154
 30
0.0
  0
VERTEX
  5
228
  8
16
 10
303.4907804796088
 20
18.17661277823585
 30
0.0
  0
VERTEX
  5
229
  8
16
 10
303.5008510820678
 20
18.17422947080518
 30
0.0
  0
VERTEX
  5
22A
  8
16
 10
303.5109288235465
 20
18.17157143937009
 30
0.0
  0
VERTEX
  5
22B
  8
16
 10
303.5210030860246
 20
18.16863576515098
 30
0.0
  0
VERTEX
  5
22C
  8
16
 10
303.5310629679324
 20
18.16542004641428
 30
0.0
  0
VERTEX
  5
22D
  8
16
 10
303.5410973139398
 20
18.16192242448683
 30
0.0
  0
VERTEX
  5
22E
  8
16
 10
303.5510947472978
 20
18.15814160784182
 30
0.0
  0
VERTEX
  5
22F
  8
16
 10
303.5610437046036
 20
18.15407689398566
 30
0.0
  0
VERTEX
  5
230
  8
16
 10
303.5709324728219
 20
18.14972818888343
 30
0.0
  0
VERTEX
  5
231
  8
16
 10
303.580749228369
 20
18.14509602367374
 30
0.0
  0
VERTEX
  5
232
  8
16
 10
303.5904820780325
 20
18.14018156844084
 30
0.0
  0
VERTEX
  5
233
  8
16
 10
303.6001191014753
 20
18.13498664283244
 30
0.0
  0
VERTEX
  5
234
  8
16
 10
303.6096483950408
 20
18.1295137233365
 30
0.0
  0
VERTEX
  5
235
  8
16
 10
303.6190581165579
 20
18.12376594705839
 30
0.0
  0
VERTEX
  5
236
  8
16
 10
303.6283365308175
 20
18.11774711187117
 30
0.0
  0
VERTEX
  5
237
  8
16
 10
303.6374720553834
 20
18.11146167284617
 30
0.0
  0
VERTEX
  5
238
  8
16
 10
303.6464533063788
 20
18.10491473490745
 30
0.0
  0
VERTEX
  5
239
  8
16
 10
303.6552691438881
 20
18.0981120416926
 30
0.0
  0
VERTEX
  5
23A
  8
16
 10
303.6639087166059
 20
18.09105996064163
 30
0.0
  0
VERTEX
  5
23B
  8
16
 10
303.6723615053688
 20
18.08376546437635
 30
0.0
  0
VERTEX
  5
23C
  8
16
 10
303.6806173652088
 20
18.07623610847268
 30
0.0
  0
VERTEX
  5
23D
  8
16
 10
303.6886665655822
 20
18.06848000576797
 30
0.0
  0
VERTEX
  5
23E
  8
16
 10
303.6964998284404
 20
18.06050579738334
 30
0.0
  0
VERTEX
  5
23F
  8
16
 10
303.7041083638322
 20
18.05232262067686
 30
0.0
 42
-0.0000625289344313
  0
VERTEX
  5
240
  8
16
 10
305.4754083581784
 20
16.28141312152002
 30
0.0
  0
VERTEX
  5
241
  8
16
 10
323.7220477227399
 20
16.28140000000004
 30
0.0
 42
-0.2119260650817696
  0
VERTEX
  5
242
  8
16
 10
324.0241083638319
 20
16.14732262067661
 30
0.0
 42
-0.0001004018032149
  0
VERTEX
  5
243
  8
16
 10
325.1603884361139
 20
15.01141976220924
 30
0.0
  0
VERTEX
  5
244
  8
16
 10
329.9036477227398
 20
15.0114
 30
0.0
  0
VERTEX
  5
245
  8
16
 10
339.9446477227398
 20
25.05240000000006
 30
0.0
 42
-0.2119986001408342
  0
VERTEX
  5
246
  8
16
 10
340.2530780058783
 20
25.17115026927251
 30
0.0
  0
SEQEND
  5
247
  8
16
  0
POLYLINE
  5
248
  8
16
 66
     1
 10
0.0
 20
0.0
 30
0.0
  0
VERTEX
  5
249
  8
16
 10
339.6180780058782
 20
22.6311502692725
 30
0.0
  0
VERTEX
  5
24A
  8
16
 10
353.1262502768901
 20
22.63139864111879
 30
0.0
 42
-5.476872207116031
  0
VERTEX
  5
24B
  8
16
 10
353.12625079609
 20
21.81859998448484
 30
0.0
  0
VERTEX
  5
24C
  8
16
 10
339.7654393407489
 20
21.81859720600302
 30
0.0
  0
VERTEX
  5
24D
  8
16
 10
330.9868973108717
 20
13.04027591773796
 30
0.0
  0
VERTEX
  5
24E
  8
16
 10
330.9791768721776
 20
13.03313469177695
 30
0.0
  0
VERTEX
  5
24F
  8
16
 10
330.9712795924681
 20
13.02620015142043
 30
0.0
  0
VERTEX
  5
250
  8
16
 10
330.963213832991
 20
13.019478731322
 30
0.0
  0
VERTEX
  5
251
  8
16
 10
330.9549882588474
 20
13.01297641365162
 30
0.0
  0
VERTEX
  5
252
  8
16
 10
330.9466118083578
 20
13.00669871080686
 30
0.0
  0
VERTEX
  5
253
  8
16
 10
330.9380936613096
 20
13.0006506506043
 30
0.0
  0
VERTEX
  5
254
  8
16
 10
330.929443206321
 20
12.99483676402809
 30
0.0
  0
VERTEX
  5
255
  8
16
 10
330.920670007556
 20
12.98926107558826
 30
0.0
  0
VERTEX
  5
256
  8
16
 10
330.9117837710333
 20
12.98392709631636
 30
0.0
  0
VERTEX
  5
257
  8
16
 10
330.9027943107677
 20
12.97883781940127
 30
0.0
  0
VERTEX
  5
258
  8
16
 10
330.8937115149787
 20
12.97399571844373
 30
0.0
  0
VERTEX
  5
259
  8
16
 10
330.884545312598
 20
12.96940274828484
 30
0.0
  0
VERTEX
  5
25A
  8
16
 10
330.875305640296
 20
12.9650603483415
 30
0.0
  0
VERTEX
  5
25B
  8
16
 10
330.8660024102362
 20
12.96096944836094
 30
0.0
  0
VERTEX
  5
25C
  8
16
 10
330.8566454787581
 20
12.95713047648754
 30
0.0
  0
VERTEX
  5
25D
  8
16
 10
330.8472446161667
 20
12.95354336951798
 30
0.0
  0
VERTEX
  5
25E
  8
16
 10
330.837809477797
 20
12.95020758520562
 30
0.0
  0
VERTEX
  5
25F
  8
16
 10
330.8283495765016
 20
12.94712211646219
 30
0.0
  0
VERTEX
  5
260
  8
16
 10
330.8188742566904
 20
12.94428550729442
 30
0.0
  0
VERTEX
  5
261
  8
16
 10
330.8093926700334
 20
12.94169587030468
 30
0.0
  0
VERTEX
  5
262
  8
16
 10
330.7999137529191
 20
12.93935090557907
 30
0.0
  0
VERTEX
  5
263
  8
16
 10
330.7904462057381
 20
12.93724792078254
 30
0.0
  0
VERTEX
  5
264
  8
16
 10
330.7809984740483
 20
12.93538385227913
 30
0.0
  0
VERTEX
  5
265
  8
16
 10
330.7715787316518
 20
12.93375528709591
 30
0.0
  0
VERTEX
  5
266
  8
16
 10
330.7621948656027
 20
12.93235848555198
 30
0.0
  0
VERTEX
  5
267
  8
16
 10
330.7528544631443
 20
12.9311894043777
 30
0.0
  0
VERTEX
  5
268
  8
16
 10
330.7435648005581
 20
12.93024372015571
 30
0.0
  0
VERTEX
  5
269
  8
16
 10
330.7343328338941
 20
12.929516852922
 30
0.0
  0
VERTEX
  5
26A
  8
16
 10
330.7251651915369
 20
12.92900398977431
 30
0.0
  0
VERTEX
  5
26B
  8
16
 10
330.7160681685516
 20
12.92870010834429
 30
0.0
  0
VERTEX
  5
26C
  8
16
 10
324.3780780058782
 20
12.9288497307275
 30
0.0
 42
-0.2119985514915879
  0
VERTEX
  5
26D
  8
16
 10
324.0696477229891
 20
13.04760000006423
 30
0.0
  0
VERTEX
  5
26E
  8
16
 10
322.9186454364099
 20
14.19860114320181
 30
0.0
  0
VERTEX
  5
26F
  8
16
 10
304.6720477227398
 20
14.1986
 30
0.0
 42
-0.2119260650819414
  0
VERTEX
  5
270
  8
16
 10
304.3699870816473
 20
14.33267737932277
 30
0.0
 42
-0.000091853592113
  0
VERTEX
  5
271
  8
16
 10
303.2336476201745
 20
15.46860079631069
 30
0.0
 42
-0.0000068729582252
  0
VERTEX
  5
272
  8
16
 10
285.0080780058782
 20
15.4688497306779
 30
0.0
 42
-0.2119985476241368
  0
VERTEX
  5
273
  8
16
 10
284.6996477227398
 20
15.5876
 30
0.0
  0
VERTEX
  5
274
  8
16
 10
282.9136477227398
 20
17.3736
 30
0.0
  0
VERTEX
  5
275
  8
16
 10
268.9178446552509
 20
17.3736
 30
0.0
 42
-1.548961175472777
  0
VERTEX
  5
276
  8
16
 10
267.4357527576699
 20
18.85583660532629
 30
0.0
 42
-0.0000116501976015
  0
VERTEX
  5
277
  8
16
 10
267.4356639838588
 20
20.51419692472338
 30
0.0
 42
-5.476979662353316
  0
VERTEX
  5
278
  8
16
 10
268.2484477227398
 20
20.51420306748904
 30
0.0
  0
VERTEX
  5
279
  8
16
 10
268.2484477227399
 20
18.85579693251096
 30
0.0
 42
-0.2153418279579617
  0
VERTEX
  5
27A
  8
16
 10
268.9178458037299
 20
18.18639695980434
 30
0.0
  0
VERTEX
  5
27B
  8
16
 10
283.0916343043506
 20
18.18628708542892
 30
0.0
  0
VERTEX
  5
27C
  8
16
 10
283.1013072564107
 20
18.18594408830369
 30
0.0
  0
VERTEX
  5
27D
  8
16
 10
283.1110594049363
 20
18.18536479042544
 30
0.0
  0
VERTEX
  5
27E
  8
16
 10
283.1208831463981
 20
18.18454321428977
 30
0.0
  0
VERTEX
  5
27F
  8
16
 10
283.1307704533702
 20
18.18347365451974
 30
0.0
  0
VERTEX
  5
280
  8
16
 10
283.1407128826601
 20
18.18215070965077
 30
0.0
  0
VERTEX
  5
281
  8
16
 10
283.1507015860179
 20
18.18056931406066
 30
0.0
  0
VERTEX
  5
282
  8
16
 10
283.1607273235086
 20
18.17872476982154
 30
0.0
  0
VERTEX
  5
283
  8
16
 10
283.1707804796088
 20
18.17661277823585
 30
0.0
  0
VERTEX
  5
284
  8
16
 10
283.1808510820677
 20
18.17422947080517
 30
0.0
  0
VERTEX
  5
285
  8
16
 10
283.1909288235465
 20
18.17157143937009
 30
0.0
  0
VERTEX
  5
286
  8
16
 10
283.2010030860246
 20
18.16863576515097
 30
0.0
  0
VERTEX
  5
287
  8
16
 10
283.2110629679325
 20
18.16542004641428
 30
0.0
  0
VERTEX
  5
288
  8
16
 10
283.2210973139398
 20
18.16192242448683
 30
0.0
  0
VERTEX
  5
289
  8
16
 10
283.2310947472979
 20
18.15814160784181
 30
0.0
  0
VERTEX
  5
28A
  8
16
 10
283.2410437046037
 20
18.15407689398566
 30
0.0
  0
VERTEX
  5
28B
  8
16
 10
283.2509324728221
 20
18.14972818888343
 30
0.0
  0
VERTEX
  5
28C
  8
16
 10
283.2607492283691
 20
18.14509602367375
 30
0.0
  0
VERTEX
  5
28D
  8
16
 10
283.2704820780326
 20
18.14018156844085
 30
0.0
  0
VERTEX
  5
28E
  8
16
 10
283.2801191014753
 20
18.13498664283244
 30
0.0
  0
VERTEX
  5
28F
  8
16
 10
283.289648395041
 20
18.1295137233365
 30
0.0
  0
VERTEX
  5
290
  8
16
 10
283.2990581165579
 20
18.12376594705839
 30
0.0
  0
VERTEX
  5
291
  8
16
 10
283.3083365308177
 20
18.11774711187117
 30
0.0
  0
VERTEX
  5
292
  8
16
 10
283.3174720553835
 20
18.11146167284616
 30
0.0
  0
VERTEX
  5
293
  8
16
 10
283.3264533063789
 20
18.10491473490745
 30
0.0
  0
VERTEX
  5
294
  8
16
 10
283.3352691438882
 20
18.0981120416926
 30
0.0
  0
VERTEX
  5
295
  8
16
 10
283.3439087166062
 20
18.09105996064163
 30
0.0
  0
VERTEX
  5
296
  8
16
 10
283.352361505369
 20
18.08376546437635
 30
0.0
  0
VERTEX
  5
297
  8
16
 10
283.360617365209
 20
18.07623610847267
 30
0.0
  0
VERTEX
  5
298
  8
16
 10
283.3686665655824
 20
18.06848000576797
 30
0.0
  0
VERTEX
  5
299
  8
16
 10
283.3764998284408
 20
18.06050579738334
 30
0.0
  0
VERTEX
  5
29A
  8
16
 10
283.3841083638313
 20
18.05232262067658
 30
0.0
 42
-0.0000625289317798
  0
VERTEX
  5
29B
  8
16
 10
285.1554083581777
 20
16.28141312152002
 30
0.0
  0
VERTEX
  5
29C
  8
16
 10
303.4020477227398
 20
16.28140000000004
 30
0.0
 42
-0.2119260650837843
  0
VERTEX
  5
29D
  8
16
 10
303.7041083638325
 20
16.14732262067717
 30
0.0
 42
-0.0000923571681876
  0
VERTEX
  5
29E
  8
16
 10
304.8404432525208
 20
15.01140149007324
 30
0.0
  0
VERTEX
  5
29F
  8
16
 10
323.0870477227398
 20
15.01139999999999
 30
0.0
 42
-0.2119260650818751
  0
VERTEX
  5
2A0
  8
16
 10
323.3891083638318
 20
14.87732262067661
 30
0.0
 42
-0.0001004018031749
  0
VERTEX
  5
2A1
  8
16
 10
324.5253884361141
 20
13.74141976220881
 30
0.0
  0
VERTEX
  5
2A2
  8
16
 10
330.5386477227398
 20
13.7414
 30
0.0
  0
VERTEX
  5
2A3
  8
16
 10
339.3096477227398
 20
22.5124
 30
0.0
 42
-0.2119986001407069
  0
VERTEX
  5
2A4
  8
16
 10
339.6180780058782
 20
22.63115026927247
 30
0.0
  0
SEQEND
  5
2A5
  8
16
  0
POLYLINE
  5
2A6
  8
16
 66
     1
 10
0.0
 20
0.0
 30
0.0
  0
VERTEX
  5
2A7
  8
16
 10
243.3056639838628
 20
20.51419692472334
 30
0.0
 42
-5.476979662378611
  0
VERTEX
  5
2A8
  8
16
 10
244.1184477227398
 20
20.51420306748907
 30
0.0
  0
VERTEX
  5
2A9
  8
16
 10
244.1184477227399
 20
18.85579693251096
 30
0.0
 42
-0.2153417105888701
  0
VERTEX
  5
2AA
  8
16
 10
244.7878456213915
 20
18.18639744248297
 30
0.0
  0
VERTEX
  5
2AB
  8
16
 10
262.1366343065988
 20
18.18628708542805
 30
0.0
  0
VERTEX
  5
2AC
  8
16
 10
262.1463072608482
 20
18.18594408829921
 30
0.0
  0
VERTEX
  5
2AD
  8
16
 10
262.1560594114968
 20
18.18536479041315
 30
0.0
  0
VERTEX
  5
2AE
  8
16
 10
262.1658831550067
 20
18.18454321426419
 30
0.0
  0
VERTEX
  5
2AF
  8
16
 10
262.1757704639436
 20
18.18347365447423
 30
0.0
  0
VERTEX
  5
2B0
  8
16
 10
262.1857128951062
 20
18.18215070957773
 30
0.0
  0
VERTEX
  5
2B1
  8
16
 10
262.1957016002357
 20
18.1805693139517
 30
0.0
  0
VERTEX
  5
2B2
  8
16
 10
262.2057273393877
 20
18.17872476966773
 30
0.0
  0
VERTEX
  5
2B3
  8
16
 10
262.2157804970297
 20
18.17661277802797
 30
0.0
  0
VERTEX
  5
2B4
  8
16
 10
262.2258511009012
 20
18.17422947053394
 30
0.0
  0
VERTEX
  5
2B5
  8
16
 10
262.2359288436537
 20
18.17157143902648
 30
0.0
  0
VERTEX
  5
2B6
  8
16
 10
262.2460031072574
 20
18.16863576472651
 30
0.0
  0
VERTEX
  5
2B7
  8
16
 10
262.2560629901331
 20
18.16542004590136
 30
0.0
  0
VERTEX
  5
2B8
  8
16
 10
262.2660973369408
 20
18.16192242387904
 30
0.0
  0
VERTEX
  5
2B9
  8
16
 10
262.2760947709225
 20
18.15814160713431
 30
0.0
  0
VERTEX
  5
2BA
  8
16
 10
262.2860437286662
 20
18.15407689317549
 30
0.0
  0
VERTEX
  5
2BB
  8
16
 10
262.2959324971278
 20
18.1497281879699
 30
0.0
  0
VERTEX
  5
2BC
  8
16
 10
262.3057492527147
 20
18.14509602265877
 30
0.0
  0
VERTEX
  5
2BD
  8
16
 10
262.3154821022065
 20
18.14018156732934
 30
0.0
  0
VERTEX
  5
2BE
  8
16
 10
262.3251191252584
 20
18.13498664163262
 30
0.0
  0
VERTEX
  5
2BF
  8
16
 10
262.3346484182067
 20
18.12951372206026
 30
0.0
  0
VERTEX
  5
2C0
  8
16
 10
262.3440581388729
 20
18.12376594572164
 30
0.0
  0
VERTEX
  5
2C1
  8
16
 10
262.3533365520424
 20
18.11774711049411
 30
0.0
  0
VERTEX
  5
2C2
  8
16
 10
262.3624720752735
 20
18.1114616714536
 30
0.0
  0
VERTEX
  5
2C3
  8
16
 10
262.3714533246844
 20
18.10491473352902
 30
0.0
  0
VERTEX
  5
2C4
  8
16
 10
262.3802691603558
 20
18.09811204036306
 30
0.0
  0
VERTEX
  5
2C5
  8
16
 10
262.388908730979
 20
18.09105995940102
 30
0.0
  0
VERTEX
  5
2C6
  8
16
 10
262.3973615173884
 20
18.08376546327015
 30
0.0
  0
VERTEX
  5
2C7
  8
16
 10
262.4056173746144
 20
18.07623610755198
 30
0.0
  0
VERTEX
  5
2C8
  8
16
 10
262.4136665721129
 20
18.06848000508951
 30
0.0
  0
VERTEX
  5
2C9
  8
16
 10
262.4214998318357
 20
18.06050579700957
 30
0.0
  0
VERTEX
  5
2CA
  8
16
 10
262.4291083638331
 20
18.05232262067653
 30
0.0
 42
-0.0000591042460163
  0
VERTEX
  5
2CB
  8
16
 10
264.2004447426198
 20
16.28140099337452
 30
0.0
  0
VERTEX
  5
2CC
  8
16
 10
283.0820477227398
 20
16.2814
 30
0.0
 42
-0.2119260650820657
  0
VERTEX
  5
2CD
  8
16
 10
283.384108363832
 20
16.147322620677
 30
0.0
 42
-0.0001004017826928
  0
VERTEX
  5
2CE
  8
16
 10
284.520388436114
 20
15.01141976220879
 30
0.0
  0
VERTEX
  5
2CF
  8
16
 10
302.7670477227398
 20
15.0114
 30
0.0
 42
-0.2119261175031419
  0
VERTEX
  5
2D0
  8
16
 10
303.069108363832
 20
14.87732262067702
 30
0.0
 42
-0.0000923571686011
  0
VERTEX
  5
2D1
  8
16
 10
304.205443252521
 20
13.74140149007417
 30
0.0
  0
VERTEX
  5
2D2
  8
16
 10
322.4520477227398
 20
13.74139999999998
 30
0.0
 42
-0.2119260650818041
  0
VERTEX
  5
2D3
  8
16
 10
322.7541083638325
 20
13.60732262067715
 30
0.0
 42
-0.0000923571472412
  0
VERTEX
  5
2D4
  8
16
 10
323.8904432525205
 20
12.47140149007373
 30
0.0
  0
VERTEX
  5
2D5
  8
16
 10
331.1736477227398
 20
12.4714
 30
0.0
  0
VERTEX
  5
2D6
  8
16
 10
338.6746477227398
 20
19.97240000000001
 30
0.0
 42
-0.2119986001408717
  0
VERTEX
  5
2D7
  8
16
 10
338.9830780058782
 20
20.0911502692725
 30
0.0
  0
VERTEX
  5
2D8
  8
16
 10
353.1262503188335
 20
20.09139875214923
 30
0.0
 42
-5.476871399453006
  0
VERTEX
  5
2D9
  8
16
 10
353.1262507965046
 20
19.27859998338736
 30
0.0
  0
VERTEX
  5
2DA
  8
16
 10
339.1304379409409
 20
19.27859673939928
 30
0.0
  0
VERTEX
  5
2DB
  8
16
 10
331.6218962678824
 20
11.77027487759472
 30
0.0
  0
VERTEX
  5
2DC
  8
16
 10
331.6141758928025
 20
11.76313371790478
 30
0.0
  0
VERTEX
  5
2DD
  8
16
 10
331.6062786750242
 20
11.75619924194239
 30
0.0
  0
VERTEX
  5
2DE
  8
16
 10
331.5982129757346
 20
11.74947788429661
 30
0.0
  0
VERTEX
  5
2DF
  8
16
 10
331.5899874599779
 20
11.74297562707711
 30
0.0
  0
VERTEX
  5
2E0
  8
16
 10
331.581611066021
 20
11.7366979826257
 30
0.0
  0
VERTEX
  5
2E1
  8
16
 10
331.5730929736021
 20
11.73064997870783
 30
0.0
  0
VERTEX
  5
2E2
  8
16
 10
331.5644425712934
 20
11.72483614626134
 30
0.0
  0
VERTEX
  5
2E3
  8
16
 10
331.5556694232176
 20
11.71926050975484
 30
0.0
  0
VERTEX
  5
2E4
  8
16
 10
331.5467832353564
 20
11.71392658018345
 30
0.0
  0
VERTEX
  5
2E5
  8
16
 10
331.5377938216912
 20
11.7088373507047
 30
0.0
  0
VERTEX
  5
2E6
  8
16
 10
331.5287110704131
 20
11.70399529489303
 30
0.0
  0
VERTEX
  5
2E7
  8
16
 10
331.5195449104296
 20
11.69940236756834
 30
0.0
  0
VERTEX
  5
2E8
  8
16
 10
331.510305278391
 20
11.69506000813142
 30
0.0
  0
VERTEX
  5
2E9
  8
16
 10
331.5010020864456
 20
11.69096914631836
 30
0.0
  0
VERTEX
  5
2EA
  8
16
 10
331.4916451909216
 20
11.6871302102674
 30
0.0
  0
VERTEX
  5
2EB
  8
16
 10
331.4822443621172
 20
11.6835431367739
 30
0.0
  0
VERTEX
  5
2EC
  8
16
 10
331.472809255365
 20
11.68020738359465
 30
0.0
  0
VERTEX
  5
2ED
  8
16
 10
331.4633493835188
 20
11.67712194364944
 30
0.0
  0
VERTEX
  5
2EE
  8
16
 10
331.4538740909943
 20
11.67428536095746
 30
0.0
  0
VERTEX
  5
2EF
  8
16
 10
331.4443925294711
 20
11.67169574813785
 30
0.0
  0
VERTEX
  5
2F0
  8
16
 10
331.4349136353507
 20
11.66935080529757
 30
0.0
  0
VERTEX
  5
2F1
  8
16
 10
331.425446109041
 20
11.66724784012633
 30
0.0
  0
VERTEX
  5
2F2
  8
16
 10
331.4159983961204
 20
11.66538378901661
 30
0.0
  0
VERTEX
  5
2F3
  8
16
 10
331.4065786704143
 20
11.66375523902738
 30
0.0
  0
VERTEX
  5
2F4
  8
16
 10
331.397194819004
 20
11.66235845051288
 30
0.0
  0
VERTEX
  5
2F5
  8
16
 10
331.3878544291624
 20
11.66118938024166
 30
0.0
  0
VERTEX
  5
2F6
  8
16
 10
331.3785647772037
 20
11.66024370483726
 30
0.0
  0
VERTEX
  5
2F7
  8
16
 10
331.3693328192131
 20
11.65951684437916
 30
0.0
  0
VERTEX
  5
2F8
  8
16
 10
331.3601651836127
 20
11.65900398601089
 30
0.0
  0
VERTEX
  5
2F9
  8
16
 10
331.3510681655072
 20
11.65870010741192
 30
0.0
  0
VERTEX
  5
2FA
  8
16
 10
331.3420477227398
 20
11.6586
 30
0.0
  0
VERTEX
  5
2FB
  8
16
 10
323.7220477227398
 20
11.65860000000001
 30
0.0
 42
-0.2119260650833645
  0
VERTEX
  5
2FC
  8
16
 10
323.4199870816481
 20
11.79267737932362
 30
0.0
 42
-0.0000921053817285
  0
VERTEX
  5
2FD
  8
16
 10
322.2836499065957
 20
12.92859965309526
 30
0.0
  0
VERTEX
  5
2FE
  8
16
 10
304.0370477227399
 20
12.9286
 30
0.0
 42
-0.2119261175021866
  0
VERTEX
  5
2FF
  8
16
 10
303.7349870816474
 20
13.0626773793235
 30
0.0
 42
-0.0000918536103303
  0
VERTEX
  5
300
  8
16
 10
302.5986476201688
 20
14.19860079631453
 30
0.0
 42
-0.0000068729706333
  0
VERTEX
  5
301
  8
16
 10
284.3730780058782
 20
14.19884973065928
 30
0.0
 42
-0.2119985475952955
  0
VERTEX
  5
302
  8
16
 10
284.0646477228076
 20
14.31759999998827
 30
0.0
  0
VERTEX
  5
303
  8
16
 10
282.9136455126572
 20
15.46860110503621
 30
0.0
  0
VERTEX
  5
304
  8
16
 10
264.0320477227398
 20
15.4686
 30
0.0
 42
-0.2119261175030496
  0
VERTEX
  5
305
  8
16
 10
263.7299870816473
 20
15.60267737932438
 30
0.0
 42
-0.0000591042306346
  0
VERTEX
  5
306
  8
16
 10
261.9586507028625
 20
17.37359900662705
 30
0.0
  0
VERTEX
  5
307
  8
16
 10
244.7878446539464
 20
17.37359999654691
 30
0.0
 42
-1.548961172745873
  0
VERTEX
  5
308
  8
16
 10
243.3057527576715
 20
18.85583660532637
 30
0.0
 42
-0.0000116501994273
  0
VERTEX
  5
309
  8
16
 10
243.3056639838615
 20
20.51419692472334
 30
0.0
  0
SEQEND
  5
30A
  8
16
  0
POLYLINE
  5
30B
  8
16
 66
     1
 10
0.0
 20
0.0
 30
0.0
  0
VERTEX
  5
30C
  8
16
 10
329.6447651207777
 20
18.56251350598206
 30
0.0
  0
VERTEX
  5
30D
  8
16
 10
341.222197779464
 20
30.13972372711802
 30
0.0
  0
VERTEX
  5
30E
  8
16
 10
341.2299182408681
 20
30.14686497578906
 30
0.0
  0
VERTEX
  5
30F
  8
16
 10
341.2378155426304
 20
30.15379953819834
 30
0.0
  0
VERTEX
  5
310
  8
16
 10
341.2458813234824
 20
30.16052097967175
 30
0.0
  0
VERTEX
  5
311
  8
16
 10
341.2541069183043
 20
30.16702331802035
 30
0.0
  0
VERTEX
  5
312
  8
16
 10
341.2624833887579
 20
30.17330104082902
 30
0.0
  0
VERTEX
  5
313
  8
16
 10
341.2710015550396
 20
30.1793491202652
 30
0.0
  0
VERTEX
  5
314
  8
16
 10
341.2796520285171
 20
30.18516302533033
 30
0.0
  0
VERTEX
  5
315
  8
16
 10
341.2884252450137
 20
30.19073873150158
 30
0.0
  0
VERTEX
  5
316
  8
16
 10
341.2973114984991
 20
30.19607272773623
 30
0.0
  0
VERTEX
  5
317
  8
16
 10
341.3063009749494
 20
30.20116202083589
 30
0.0
  0
VERTEX
  5
318
  8
16
 10
341.3153837861369
 20
30.20600413719195
 30
0.0
  0
VERTEX
  5
319
  8
16
 10
341.3245500031236
 20
30.21059712195708
 30
0.0
  0
VERTEX
  5
31A
  8
16
 10
341.3337896892352
 20
30.21493953570982
 30
0.0
  0
VERTEX
  5
31B
  8
16
 10
341.3430929323045
 20
30.21903044869998
 30
0.0
  0
VERTEX
  5
31C
  8
16
 10
341.352449875991
 20
30.22286943278182
 30
0.0
  0
VERTEX
  5
31D
  8
16
 10
341.36185074999
 20
30.22645655115885
 30
0.0
  0
VERTEX
  5
31E
  8
16
 10
341.3712858989679
 20
30.22979234607944
 30
0.0
  0
VERTEX
  5
31F
  8
16
 10
341.3807458100754
 20
30.23287782463506
 30
0.0
  0
VERTEX
  5
320
  8
16
 10
341.3902211389074
 20
30.23571444282361
 30
0.0
  0
VERTEX
  5
321
  8
16
 10
341.3997027337997
 20
30.23830408804874
 30
0.0
  0
VERTEX
  5
322
  8
16
 10
341.4091816583714
 20
30.24064906023165
 30
0.0
  0
VERTEX
  5
323
  8
16
 10
341.4186492122402
 20
30.24275205171594
 30
0.0
  0
VERTEX
  5
324
  8
16
 10
341.4280969498578
 20
30.24461612614734
 30
0.0
  0
VERTEX
  5
325
  8
16
 10
341.4375166974334
 20
30.2462446965096
 30
0.0
  0
VERTEX
  5
326
  8
16
 10
341.4469005679244
 20
30.24764150249554
 30
0.0
  0
VERTEX
  5
327
  8
16
 10
341.4562409741008
 20
30.24881058738764
 30
0.0
  0
VERTEX
  5
328
  8
16
 10
341.4655306396945
 20
30.24975627461705
 30
0.0
  0
VERTEX
  5
329
  8
16
 10
341.47476260867
 20
30.2504831441623
 30
0.0
  0
VERTEX
  5
32A
  8
16
 10
341.4839302526581
 20
30.25099600894094
 30
0.0
  0
VERTEX
  5
32B
  8
16
 10
341.4930272766097
 20
30.25129989133735
 30
0.0
  0
VERTEX
  5
32C
  8
16
 10
341.5020477227399
 20
30.2514
 30
0.0
  0
VERTEX
  5
32D
  8
16
 10
356.1070477227398
 20
30.2514
 30
0.0
 42
-0.2119261175023787
  0
VERTEX
  5
32E
  8
16
 10
356.4091083638319
 20
30.1173226206766
 30
0.0
  0
VERTEX
  5
32F
  8
16
 10
357.0367727283763
 20
29.48984866475742
 30
0.0
  0
VERTEX
  5
330
  8
16
 10
357.0439138952913
 20
29.48212828510944
 30
0.0
  0
VERTEX
  5
331
  8
16
 10
357.0508483783107
 20
29.47423106273709
 30
0.0
  0
VERTEX
  5
332
  8
16
 10
357.0575697428342
 20
29.46616535883496
 30
0.0
  0
VERTEX
  5
333
  8
16
 10
357.0640720067412
 20
29.45793983845474
 30
0.0
  0
VERTEX
  5
334
  8
16
 10
357.0703496576797
 20
29.44956343987122
 30
0.0
  0
VERTEX
  5
335
  8
16
 10
357.0763976678749
 20
29.44104534283051
 30
0.0
  0
VERTEX
  5
336
  8
16
 10
357.0822115063798
 20
29.43239493591307
 30
0.0
  0
VERTEX
  5
337
  8
16
 10
357.0877871487179
 20
29.42362178324968
 30
0.0
  0
VERTEX
  5
338
  8
16
 10
357.0931210838867
 20
29.41473559083018
 30
0.0
  0
VERTEX
  5
339
  8
16
 10
357.0982103187218
 20
29.40574617264442
 30
0.0
  0
VERTEX
  5
33A
  8
16
 10
357.1030523796433
 20
29.39666341689158
 30
0.0
  0
VERTEX
  5
33B
  8
16
 10
357.107645311826
 20
29.38749725248722
 30
0.0
  0
VERTEX
  5
33C
  8
16
 10
357.1119876758648
 20
29.37825761608954
 30
0.0
  0
VERTEX
  5
33D
  8
16
 10
357.1160785420204
 20
29.36895441985473
 30
0.0
  0
VERTEX
  5
33E
  8
16
 10
357.119917482152
 20
29.35959752011858
 30
0.0
  0
VERTEX
  5
33F
  8
16
 10
357.1235045594621
 20
29.35019668718654
 30
0.0
  0
VERTEX
  5
340
  8
16
 10
357.126840316193
 20
29.34076157639825
 30
0.0
  0
VERTEX
  5
341
  8
16
 10
357.1299257594247
 20
29.3313017006146
 30
0.0
  0
VERTEX
  5
342
  8
16
 10
357.1327623451385
 20
29.32182640425742
 30
0.0
  0
VERTEX
  5
343
  8
16
 10
357.1353519607162
 20
29.31234483901245
 30
0.0
  0
VERTEX
  5
344
  8
16
 10
357.1376969060528
 20
29.302865941287
 30
0.0
  0
VERTEX
  5
345
  8
16
 10
357.1397998734612
 20
29.29339841149429
 30
0.0
  0
VERTEX
  5
346
  8
16
 10
357.1416639265519
 20
29.28395069521729
 30
0.0
  0
VERTEX
  5
347
  8
16
 10
357.1432924782696
 20
29.27453096628629
 30
0.0
  0
VERTEX
  5
348
  8
16
 10
357.1446892682643
 20
29.26514711178644
 30
0.0
  0
VERTEX
  5
349
  8
16
 10
357.1458583397722
 20
29.25580671899439
 30
0.0
  0
VERTEX
  5
34A
  8
16
 10
357.1468040161749
 20
29.24651706422738
 30
0.0
  0
VERTEX
  5
34B
  8
16
 10
357.1475308773987
 20
29.23728510357331
 30
0.0
  0
VERTEX
  5
34C
  8
16
 10
357.1480437363059
 20
29.22811746545674
 30
0.0
  0
VERTEX
  5
34D
  8
16
 10
357.1483476152233
 20
29.21902044498404
 30
0.0
  0
VERTEX
  5
34E
  8
16
 10
357.1484477227398
 20
29.21
 30
0.0
  0
VERTEX
  5
34F
  8
16
 10
357.1484477227398
 20
28.38079693251095
 30
0.0
 42
-5.476862530784651
  0
VERTEX
  5
350
  8
16
 10
356.3356477227398
 20
28.38079693251096
 30
0.0
  0
VERTEX
  5
351
  8
16
 10
356.3356477227398
 20
29.0416
 30
0.0
  0
VERTEX
  5
352
  8
16
 10
355.9386477227399
 20
29.4386
 30
0.0
  0
VERTEX
  5
353
  8
16
 10
341.6704477227398
 20
29.4386
 30
0.0
  0
VERTEX
  5
354
  8
16
 10
329.9504051635759
 20
17.71855744083599
 30
0.0
 42
-1.846533793967851
  0
VERTEX
  5
355
  8
16
 10
328.395752757676
 20
18.8558366053263
 30
0.0
 42
-0.0000116502073751
  0
VERTEX
  5
356
  8
16
 10
328.3956639838652
 20
20.51419692472339
 30
0.0
 42
-5.476979662340989
  0
VERTEX
  5
357
  8
16
 10
329.2084477227399
 20
20.51420306748904
 30
0.0
  0
VERTEX
  5
358
  8
16
 10
329.2084477227398
 20
18.85579693251097
 30
0.0
 42
-0.1158214374229366
  0
VERTEX
  5
359
  8
16
 10
329.6447651207777
 20
18.56251350598206
 30
0.0
  0
SEQEND
  5
35A
  8
16
  0
POLYLINE
  5
35B
  8
16
 66
     1
 10
0.0
 20
0.0
 30
0.0
  0
VERTEX
  5
35C
  8
16
 10
202.6656639838631
 20
20.51419692472333
 30
0.0
 42
-5.476979662383339
  0
VERTEX
  5
35D
  8
16
 10
203.4784477227398
 20
20.51420306748903
 30
0.0
  0
VERTEX
  5
35E
  8
16
 10
203.4784477227398
 20
18.85579693251097
 30
0.0
 42
-0.2153418279579354
  0
VERTEX
  5
35F
  8
16
 10
204.1478458037298
 20
18.18639695980441
 30
0.0
  0
VERTEX
  5
360
  8
16
 10
218.3216343043507
 20
18.18628708542893
 30
0.0
  0
VERTEX
  5
361
  8
16
 10
218.3313072564107
 20
18.1859440883037
 30
0.0
  0
VERTEX
  5
362
  8
16
 10
218.3410594049363
 20
18.18536479042546
 30
0.0
  0
VERTEX
  5
363
  8
16
 10
218.3508831463981
 20
18.18454321428979
 30
0.0
  0
VERTEX
  5
364
  8
16
 10
218.3607704533702
 20
18.18347365451976
 30
0.0
  0
VERTEX
  5
365
  8
16
 10
218.3707128826601
 20
18.18215070965081
 30
0.0
  0
VERTEX
  5
366
  8
16
 10
218.3807015860179
 20
18.1805693140607
 30
0.0
  0
VERTEX
  5
367
  8
16
 10
218.3907273235085
 20
18.17872476982159
 30
0.0
  0
VERTEX
  5
368
  8
16
 10
218.4007804796088
 20
18.17661277823591
 30
0.0
  0
VERTEX
  5
369
  8
16
 10
218.4108510820677
 20
18.17422947080525
 30
0.0
  0
VERTEX
  5
36A
  8
16
 10
218.4209288235464
 20
18.17157143937019
 30
0.0
  0
VERTEX
  5
36B
  8
16
 10
218.4310030860246
 20
18.16863576515109
 30
0.0
  0
VERTEX
  5
36C
  8
16
 10
218.4410629679325
 20
18.16542004641443
 30
0.0
  0
VERTEX
  5
36D
  8
16
 10
218.4510973139398
 20
18.16192242448699
 30
0.0
  0
VERTEX
  5
36E
  8
16
 10
218.4610947472977
 20
18.158141607842
 30
0.0
  0
VERTEX
  5
36F
  8
16
 10
218.4710437046035
 20
18.15407689398588
 30
0.0
  0
VERTEX
  5
370
  8
16
 10
218.4809324728219
 20
18.14972818888368
 30
0.0
  0
VERTEX
  5
371
  8
16
 10
218.4907492283689
 20
18.14509602367403
 30
0.0
  0
VERTEX
  5
372
  8
16
 10
218.5004820780324
 20
18.14018156844116
 30
0.0
  0
VERTEX
  5
373
  8
16
 10
218.5101191014751
 20
18.13498664283279
 30
0.0
  0
VERTEX
  5
374
  8
16
 10
218.5196483950407
 20
18.12951372333688
 30
0.0
  0
VERTEX
  5
375
  8
16
 10
218.5290581165577
 20
18.12376594705881
 30
0.0
  0
VERTEX
  5
376
  8
16
 10
218.5383365308173
 20
18.11774711187164
 30
0.0
  0
VERTEX
  5
377
  8
16
 10
218.5474720553832
 20
18.11146167284668
 30
0.0
  0
VERTEX
  5
378
  8
16
 10
218.5564533063786
 20
18.104914734908
 30
0.0
  0
VERTEX
  5
379
  8
16
 10
218.5652691438879
 20
18.0981120416932
 30
0.0
  0
VERTEX
  5
37A
  8
16
 10
218.5739087166058
 20
18.09105996064228
 30
0.0
  0
VERTEX
  5
37B
  8
16
 10
218.5823615053687
 20
18.08376546437705
 30
0.0
  0
VERTEX
  5
37C
  8
16
 10
218.5906173652086
 20
18.07623610847342
 30
0.0
  0
VERTEX
  5
37D
  8
16
 10
218.5986665655821
 20
18.06848000576877
 30
0.0
  0
VERTEX
  5
37E
  8
16
 10
218.6064998284403
 20
18.0605057973842
 30
0.0
  0
VERTEX
  5
37F
  8
16
 10
218.6141083638317
 20
18.05232262067734
 30
0.0
 42
-0.0000591042313777
  0
VERTEX
  5
380
  8
16
 10
220.3854447426193
 20
16.2814009933727
 30
0.0
  0
VERTEX
  5
381
  8
16
 10
238.6320477227398
 20
16.28139999999998
 30
0.0
 42
-0.2119260650819046
  0
VERTEX
  5
382
  8
16
 10
238.9341083638321
 20
16.1473226206768
 30
0.0
 42
-0.0001004018026314
  0
VERTEX
  5
383
  8
16
 10
240.0703884361142
 20
15.01141976220879
 30
0.0
  0
VERTEX
  5
384
  8
16
 10
261.4920477227399
 20
15.01139999999999
 30
0.0
 42
-0.2119260650822445
  0
VERTEX
  5
385
  8
16
 10
261.7941083638322
 20
14.8773226206764
 30
0.0
 42
-0.0001004018031523
  0
VERTEX
  5
386
  8
16
 10
262.9303884361143
 20
13.74141976220926
 30
0.0
  0
VERTEX
  5
387
  8
16
 10
281.8120477227398
 20
13.74140000000002
 30
0.0
 42
-0.2119260650836317
  0
VERTEX
  5
388
  8
16
 10
282.1141083638319
 20
13.60732262067728
 30
0.0
 42
-0.0001004018031118
  0
VERTEX
  5
389
  8
16
 10
283.2503884361145
 20
12.47141976220882
 30
0.0
  0
VERTEX
  5
38A
  8
16
 10
301.4970477227399
 20
12.47140000000002
 30
0.0
 42
-0.2119261175034921
  0
VERTEX
  5
38B
  8
16
 10
301.7991083638321
 20
12.33732262067668
 30
0.0
 42
-0.0001004017838717
  0
VERTEX
  5
38C
  8
16
 10
302.935388436114
 20
11.20141976220884
 30
0.0
  0
VERTEX
  5
38D
  8
16
 10
321.1820477227398
 20
11.20139999999997
 30
0.0
 42
-0.2119260650833575
  0
VERTEX
  5
38E
  8
16
 10
321.4841083638323
 20
11.06732262067696
 30
0.0
 42
-0.0001004018160893
  0
VERTEX
  5
38F
  8
16
 10
322.6203884361148
 20
9.931419762594123
 30
0.0
  0
VERTEX
  5
390
  8
16
 10
332.4436477227399
 20
9.93140000011772
 30
0.0
  0
VERTEX
  5
391
  8
16
 10
337.4046477227399
 20
14.89240000000001
 30
0.0
 42
-0.211998600140958
  0
VERTEX
  5
392
  8
16
 10
337.7130780058783
 20
15.01115026927253
 30
0.0
  0
VERTEX
  5
393
  8
16
 10
353.1262503886521
 20
15.01139893696915
 30
0.0
 42
-5.476870035012505
  0
VERTEX
  5
394
  8
16
 10
353.1262507982442
 20
14.19859997878232
 30
0.0
  0
VERTEX
  5
395
  8
16
 10
337.8604330352615
 20
14.19859510415984
 30
0.0
  0
VERTEX
  5
396
  8
16
 10
332.8918962678824
 20
9.230274877594715
 30
0.0
  0
VERTEX
  5
397
  8
16
 10
332.8841758928025
 20
9.223133717904783
 30
0.0
  0
VERTEX
  5
398
  8
16
 10
332.8762786750241
 20
9.216199241942393
 30
0.0
  0
VERTEX
  5
399
  8
16
 10
332.8682129757345
 20
9.209477884296609
 30
0.0
  0
VERTEX
  5
39A
  8
16
 10
332.8599874599779
 20
9.202975627077109
 30
0.0
  0
VERTEX
  5
39B
  8
16
 10
332.851611066021
 20
9.196697982625697
 30
0.0
  0
VERTEX
  5
39C
  8
16
 10
332.843092973602
 20
9.19064997870783
 30
0.0
  0
VERTEX
  5
39D
  8
16
 10
332.8344425712934
 20
9.184836146261336
 30
0.0
  0
VERTEX
  5
39E
  8
16
 10
332.8256694232177
 20
9.179260509754835
 30
0.0
  0
VERTEX
  5
39F
  8
16
 10
332.8167832353564
 20
9.173926580183457
 30
0.0
  0
VERTEX
  5
3A0
  8
16
 10
332.8077938216912
 20
9.1688373507047
 30
0.0
  0
VERTEX
  5
3A1
  8
16
 10
332.7987110704131
 20
9.163995294893027
 30
0.0
  0
VERTEX
  5
3A2
  8
16
 10
332.7895449104296
 20
9.159402367568346
 30
0.0
  0
VERTEX
  5
3A3
  8
16
 10
332.780305278391
 20
9.15506000813142
 30
0.0
  0
VERTEX
  5
3A4
  8
16
 10
332.7710020864457
 20
9.150969146318364
 30
0.0
  0
VERTEX
  5
3A5
  8
16
 10
332.7616451909217
 20
9.147130210267399
 30
0.0
  0
VERTEX
  5
3A6
  8
16
 10
332.7522443621173
 20
9.143543136773904
 30
0.0
  0
VERTEX
  5
3A7
  8
16
 10
332.742809255365
 20
9.140207383594657
 30
0.0
  0
VERTEX
  5
3A8
  8
16
 10
332.7333493835188
 20
9.137121943649444
 30
0.0
  0
VERTEX
  5
3A9
  8
16
 10
332.7238740909943
 20
9.134285360957463
 30
0.0
  0
VERTEX
  5
3AA
  8
16
 10
332.7143925294711
 20
9.131695748137851
 30
0.0
  0
VERTEX
  5
3AB
  8
16
 10
332.7049136353507
 20
9.12935080529757
 30
0.0
  0
VERTEX
  5
3AC
  8
16
 10
332.6954461090411
 20
9.127247840126334
 30
0.0
  0
VERTEX
  5
3AD
  8
16
 10
332.6859983961203
 20
9.125383789016606
 30
0.0
  0
VERTEX
  5
3AE
  8
16
 10
332.6765786704143
 20
9.123755239027378
 30
0.0
  0
VERTEX
  5
3AF
  8
16
 10
332.6671948190039
 20
9.122358450512884
 30
0.0
  0
VERTEX
  5
3B0
  8
16
 10
332.6578544291625
 20
9.121189380241663
 30
0.0
  0
VERTEX
  5
3B1
  8
16
 10
332.6485647772037
 20
9.120243704837263
 30
0.0
  0
VERTEX
  5
3B2
  8
16
 10
332.6393328192131
 20
9.119516844379163
 30
0.0
  0
VERTEX
  5
3B3
  8
16
 10
332.6301651836127
 20
9.119003986010895
 30
0.0
  0
VERTEX
  5
3B4
  8
16
 10
332.6210681655072
 20
9.11870010741192
 30
0.0
  0
VERTEX
  5
3B5
  8
16
 10
322.4730780058782
 20
9.118849730727495
 30
0.0
 42
-0.2119985515260625
  0
VERTEX
  5
3B6
  8
16
 10
322.1646477227778
 20
9.237600000005045
 30
0.0
  0
VERTEX
  5
3B7
  8
16
 10
321.0136431497521
 20
10.38860228634607
 30
0.0
 42
-0.0000069138381076
  0
VERTEX
  5
3B8
  8
16
 10
302.7880780058782
 20
10.38884973071975
 30
0.0
 42
-0.2119985476638663
  0
VERTEX
  5
3B9
  8
16
 10
302.4796477227325
 20
10.50760000013073
 30
0.0
  0
VERTEX
  5
3BA
  8
16
 10
301.3286431499291
 20
11.65860228625037
 30
0.0
 42
-0.0000069138335959
  0
VERTEX
  5
3BB
  8
16
 10
283.1030780058782
 20
11.65884973073847
 30
0.0
 42
-0.2119985101838775
  0
VERTEX
  5
3BC
  8
16
 10
282.7946477711318
 20
11.77759995159113
 30
0.0
  0
VERTEX
  5
3BD
  8
16
 10
281.6436433024937
 20
12.92860221019596
 30
0.0
 42
-0.0000066790468969
  0
VERTEX
  5
3BE
  8
16
 10
262.7830780058782
 20
12.92884973075706
 30
0.0
 42
-0.2119986002017687
  0
VERTEX
  5
3BF
  8
16
 10
262.4746477227224
 20
13.04760000003992
 30
0.0
  0
VERTEX
  5
3C0
  8
16
 10
261.3236438230379
 20
14.19860194981591
 30
0.0
 42
-0.000005880225159
  0
VERTEX
  5
3C1
  8
16
 10
239.9230780058782
 20
14.19884973077571
 30
0.0
 42
-0.211998510097543
  0
VERTEX
  5
3C2
  8
16
 10
239.6146477712299
 20
14.31759995138751
 30
0.0
  0
VERTEX
  5
3C3
  8
16
 10
238.4636454365682
 20
15.46860114298761
 30
0.0
  0
VERTEX
  5
3C4
  8
16
 10
220.2170477227398
 20
15.4686
 30
0.0
 42
-0.2119261175030298
  0
VERTEX
  5
3C5
  8
16
 10
219.9149870816475
 20
15.60267737932232
 30
0.0
 42
-0.0000591042446485
  0
VERTEX
  5
3C6
  8
16
 10
218.1436507028629
 20
17.37359900662614
 30
0.0
  0
VERTEX
  5
3C7
  8
16
 10
204.1478446533389
 20
17.37359999493879
 30
0.0
 42
-1.548961171475771
  0
VERTEX
  5
3C8
  8
16
 10
202.6657527576684
 20
18.85583660532637
 30
0.0
 42
-0.0000116501976866
  0
VERTEX
  5
3C9
  8
16
 10
202.6656639838548
 20
20.51419692472333
 30
0.0
  0
SEQEND
  5
3CA
  8
16
  0
POLYLINE
  5
3CB
  8
16
 66
     1
 10
0.0
 20
0.0
 30
0.0
  0
VERTEX
  5
3CC
  8
16
 10
222.9856639838629
 20
20.51419692472334
 30
0.0
 42
-5.476979662381915
  0
VERTEX
  5
3CD
  8
16
 10
223.7984477227399
 20
20.51420306748902
 30
0.0
  0
VERTEX
  5
3CE
  8
16
 10
223.7984477227399
 20
18.85579693251097
 30
0.0
 42
-0.2153418279579047
  0
VERTEX
  5
3CF
  8
16
 10
224.4678458037298
 20
18.18639695980442
 30
0.0
  0
VERTEX
  5
3D0
  8
16
 10
238.6416343065988
 20
18.18628708542806
 30
0.0
  0
VERTEX
  5
3D1
  8
16
 10
238.6513072608483
 20
18.18594408829922
 30
0.0
  0
VERTEX
  5
3D2
  8
16
 10
238.6610594114968
 20
18.18536479041316
 30
0.0
  0
VERTEX
  5
3D3
  8
16
 10
238.6708831550067
 20
18.1845432142642
 30
0.0
  0
VERTEX
  5
3D4
  8
16
 10
238.6807704639437
 20
18.18347365447425
 30
0.0
  0
VERTEX
  5
3D5
  8
16
 10
238.6907128951064
 20
18.18215070957776
 30
0.0
  0
VERTEX
  5
3D6
  8
16
 10
238.7007016002358
 20
18.18056931395174
 30
0.0
  0
VERTEX
  5
3D7
  8
16
 10
238.7107273393879
 20
18.17872476966778
 30
0.0
  0
VERTEX
  5
3D8
  8
16
 10
238.7207804970298
 20
18.17661277802803
 30
0.0
  0
VERTEX
  5
3D9
  8
16
 10
238.7308511009013
 20
18.17422947053403
 30
0.0
  0
VERTEX
  5
3DA
  8
16
 10
238.7409288436539
 20
18.17157143902658
 30
0.0
  0
VERTEX
  5
3DB
  8
16
 10
238.7510031072576
 20
18.16863576472663
 30
0.0
  0
VERTEX
  5
3DC
  8
16
 10
238.7610629901333
 20
18.1654200459015
 30
0.0
  0
VERTEX
  5
3DD
  8
16
 10
238.771097336941
 20
18.1619224238792
 30
0.0
  0
VERTEX
  5
3DE
  8
16
 10
238.7810947709227
 20
18.1581416071345
 30
0.0
  0
VERTEX
  5
3DF
  8
16
 10
238.7910437286664
 20
18.1540768931757
 30
0.0
  0
VERTEX
  5
3E0
  8
16
 10
238.800932497128
 20
18.14972818797013
 30
0.0
  0
VERTEX
  5
3E1
  8
16
 10
238.810749252715
 20
18.14509602265904
 30
0.0
  0
VERTEX
  5
3E2
  8
16
 10
238.8204821022068
 20
18.14018156732964
 30
0.0
  0
VERTEX
  5
3E3
  8
16
 10
238.8301191252587
 20
18.13498664163296
 30
0.0
  0
VERTEX
  5
3E4
  8
16
 10
238.8396484182069
 20
18.12951372206064
 30
0.0
  0
VERTEX
  5
3E5
  8
16
 10
238.8490581388732
 20
18.12376594572206
 30
0.0
  0
VERTEX
  5
3E6
  8
16
 10
238.8583365520427
 20
18.11774711049457
 30
0.0
  0
VERTEX
  5
3E7
  8
16
 10
238.8674720752737
 20
18.11146167145409
 30
0.0
  0
VERTEX
  5
3E8
  8
16
 10
238.8764533246847
 20
18.10491473352956
 30
0.0
  0
VERTEX
  5
3E9
  8
16
 10
238.885269160356
 20
18.09811204036365
 30
0.0
  0
VERTEX
  5
3EA
  8
16
 10
238.8939087309793
 20
18.09105995940165
 30
0.0
  0
VERTEX
  5
3EB
  8
16
 10
238.9023615173886
 20
18.08376546327084
 30
0.0
  0
VERTEX
  5
3EC
  8
16
 10
238.9106173746147
 20
18.07623610755272
 30
0.0
  0
VERTEX
  5
3ED
  8
16
 10
238.9186665721131
 20
18.0684800050903
 30
0.0
  0
VERTEX
  5
3EE
  8
16
 10
238.9264998318359
 20
18.06050579701042
 30
0.0
  0
VERTEX
  5
3EF
  8
16
 10
238.9341083638332
 20
18.05232262067704
 30
0.0
 42
-0.0000625289207444
  0
VERTEX
  5
3F0
  8
16
 10
240.7054083581788
 20
16.28141312152184
 30
0.0
  0
VERTEX
  5
3F1
  8
16
 10
262.1270477227399
 20
16.28140000000006
 30
0.0
 42
-0.2119260650818442
  0
VERTEX
  5
3F2
  8
16
 10
262.429108363832
 20
16.14732262067708
 30
0.0
 42
-0.0001004018038089
  0
VERTEX
  5
3F3
  8
16
 10
263.5653884361141
 20
15.01141976220879
 30
0.0
  0
VERTEX
  5
3F4
  8
16
 10
282.4470477227399
 20
15.01139999999997
 30
0.0
 42
-0.2119260650830497
  0
VERTEX
  5
3F5
  8
16
 10
282.7491083638322
 20
14.87732262067679
 30
0.0
 42
-0.0001004018026358
  0
VERTEX
  5
3F6
  8
16
 10
283.8853884361142
 20
13.74141976220926
 30
0.0
  0
VERTEX
  5
3F7
  8
16
 10
302.1320477227399
 20
13.74140000000001
 30
0.0
 42
-0.2119260650819058
  0
VERTEX
  5
3F8
  8
16
 10
302.4341083638322
 20
13.60732262067677
 30
0.0
 42
-0.0001004018078179
  0
VERTEX
  5
3F9
  8
16
 10
303.5703884361146
 20
12.47141976220882
 30
0.0
  0
VERTEX
  5
3FA
  8
16
 10
321.8170477227399
 20
12.47139999999998
 30
0.0
 42
-0.2119260650816481
  0
VERTEX
  5
3FB
  8
16
 10
322.1191083638316
 20
12.33732262067684
 30
0.0
 42
-0.0001004017950971
  0
VERTEX
  5
3FC
  8
16
 10
323.2553884361141
 20
11.20141976206598
 30
0.0
  0
VERTEX
  5
3FD
  8
16
 10
331.8086477227399
 20
11.20139999990351
 30
0.0
  0
VERTEX
  5
3FE
  8
16
 10
338.0396477227399
 20
17.4324
 30
0.0
 42
-0.2119986001409367
  0
VERTEX
  5
3FF
  8
16
 10
338.3480780058782
 20
17.5511502692725
 30
0.0
  0
VERTEX
  5
400
  8
16
 10
353.126250355839
 20
17.55139885010843
 30
0.0
 42
-5.476870681238386
  0
VERTEX
  5
401
  8
16
 10
353.1262507971659
 20
16.73859998163678
 30
0.0
  0
VERTEX
  5
402
  8
16
 10
338.4954359798621
 20
16.73859608570746
 30
0.0
  0
VERTEX
  5
403
  8
16
 10
332.2568970267564
 20
10.50027563362275
 30
0.0
  0
VERTEX
  5
404
  8
16
 10
332.2491766062304
 20
10.49313442582977
 30
0.0
  0
VERTEX
  5
405
  8
16
 10
332.2412793441632
 20
10.48619990311543
 30
0.0
  0
VERTEX
  5
406
  8
16
 10
332.2332136017861
 20
10.47947850011701
 30
0.0
  0
VERTEX
  5
407
  8
16
 10
332.224988044185
 20
10.4729761989892
 30
0.0
  0
VERTEX
  5
408
  8
16
 10
332.2166116096664
 20
10.46669851211558
 30
0.0
  0
VERTEX
  5
409
  8
16
 10
332.2080934780053
 20
10.46065046729992
 30
0.0
  0
VERTEX
  5
40A
  8
16
 10
332.1994430378077
 20
10.45483659551484
 30
0.0
  0
VERTEX
  5
40B
  8
16
 10
332.1906698532278
 20
10.44926092126015
 30
0.0
  0
VERTEX
  5
40C
  8
16
 10
332.1817836302753
 20
10.44392695555845
 30
0.0
  0
VERTEX
  5
40D
  8
16
 10
332.1727941829573
 20
10.43883769159101
 30
0.0
  0
VERTEX
  5
40E
  8
16
 10
332.1637113994872
 20
10.43399560295227
 30
0.0
  0
VERTEX
  5
40F
  8
16
 10
332.1545452087915
 20
10.42940264447838
 30
0.0
  0
VERTEX
  5
410
  8
16
 10
332.1453055475369
 20
10.42506025558256
 30
0.0
  0
VERTEX
  5
411
  8
16
 10
332.1360023278849
 20
10.42096936600968
 30
0.0
  0
VERTEX
  5
412
  8
16
 10
332.1266454061735
 20
10.41713040390302
 30
0.0
  0
VERTEX
  5
413
  8
16
 10
332.117244552708
 20
10.41354330605944
 30
0.0
  0
VERTEX
  5
414
  8
16
 10
332.1078094228249
 20
10.41020753023366
 30
0.0
  0
VERTEX
  5
415
  8
16
 10
332.0983495293792
 20
10.40712206933999
 30
0.0
  0
VERTEX
  5
416
  8
16
 10
332.0888742167847
 20
10.40428546738886
 30
0.0
  0
VERTEX
  5
417
  8
16
 10
332.0793926367161
 20
10.40169583698742
 30
0.0
  0
VERTEX
  5
418
  8
16
 10
332.0699137255676
 20
10.39935087822764
 30
0.0
  0
VERTEX
  5
419
  8
16
 10
332.0604461837369
 20
10.39724789878133
 30
0.0
  0
VERTEX
  5
41A
  8
16
 10
332.0509984567894
 20
10.3953838350203
 30
0.0
  0
VERTEX
  5
41B
  8
16
 10
332.0415787185361
 20
10.39375527398032
 30
0.0
  0
VERTEX
  5
41C
  8
16
 10
332.0321948560406
 20
10.39235847599
 30
0.0
  0
VERTEX
  5
41D
  8
16
 10
332.0228544565566
 20
10.39118939778999
 30
0.0
  0
VERTEX
  5
41E
  8
16
 10
332.0135647963762
 20
10.39024371597391
 30
0.0
  0
VERTEX
  5
41F
  8
16
 10
332.0043328315614
 20
10.38951685058942
 30
0.0
  0
VERTEX
  5
420
  8
16
 10
331.9951651905091
 20
10.38900398874652
 30
0.0
  0
VERTEX
  5
421
  8
16
 10
331.9860681682969
 20
10.3887001080896
 30
0.0
  0
VERTEX
  5
422
  8
16
 10
323.1080780058782
 20
10.38884973072749
 30
0.0
 42
-0.2119985515579287
  0
VERTEX
  5
423
  8
16
 10
322.7996477227171
 20
10.50759999998774
 30
0.0
  0
VERTEX
  5
424
  8
16
 10
321.6486431498779
 20
11.65860228647788
 30
0.0
 42
-0.0000069138509718
  0
VERTEX
  5
425
  8
16
 10
303.4230780058782
 20
11.65884973073844
 30
0.0
 42
-0.211998547725487
  0
VERTEX
  5
426
  8
16
 10
303.1146477227319
 20
11.7776000000912
 30
0.0
  0
VERTEX
  5
427
  8
16
 10
301.9636431499384
 20
12.92860228644612
 30
0.0
 42
-0.0000069138255424
  0
VERTEX
  5
428
  8
16
 10
283.7380780058782
 20
12.92884973075705
 30
0.0
 42
-0.2119986002864777
  0
VERTEX
  5
429
  8
16
 10
283.4296477227648
 20
13.04760000008765
 30
0.0
  0
VERTEX
  5
42A
  8
16
 10
282.2786433026195
 20
14.19860221025073
 30
0.0
 42
-0.00000667902742
  0
VERTEX
  5
42B
  8
16
 10
263.4180780058782
 20
14.19884973077569
 30
0.0
 42
-0.211998510092249
  0
VERTEX
  5
42C
  8
16
 10
263.1096477712092
 20
14.31759995151704
 30
0.0
  0
VERTEX
  5
42D
  8
16
 10
261.9586438231636
 20
15.46860194999726
 30
0.0
 42
-0.0000058802295161
  0
VERTEX
  5
42E
  8
16
 10
240.5580780058783
 20
15.46884973079433
 30
0.0
 42
-0.211998600246308
  0
VERTEX
  5
42F
  8
16
 10
240.2496477227399
 20
15.58760000000001
 30
0.0
  0
VERTEX
  5
430
  8
16
 10
238.4636477227398
 20
17.3736
 30
0.0
  0
VERTEX
  5
431
  8
16
 10
224.4678446552508
 20
17.37359999999999
 30
0.0
 42
-1.5489611754737
  0
VERTEX
  5
432
  8
16
 10
222.9857527576717
 20
18.85583660532631
 30
0.0
 42
-0.0000116501930435
  0
VERTEX
  5
433
  8
16
 10
222.9856639838617
 20
20.51419692472334
 30
0.0
  0
SEQEND
  5
434
  8
16
  0
POLYLINE
  5
435
  8
16
 66
     1
 10
0.0
 20
0.0
 30
0.0
  0
VERTEX
  5
436
  8
16
 10
182.3456639838568
 20
20.51419692472543
 30
0.0
 42
-5.476979662329977
  0
VERTEX
  5
437
  8
16
 10
183.1584477227399
 20
20.51420306748899
 30
0.0
  0
VERTEX
  5
438
  8
16
 10
183.1584477227399
 20
18.85579693251096
 30
0.0
 42
-0.2153418279579365
  0
VERTEX
  5
439
  8
16
 10
183.8278458037298
 20
18.18639695980441
 30
0.0
  0
VERTEX
  5
43A
  8
16
 10
198.0016343043508
 20
18.18628708542892
 30
0.0
  0
VERTEX
  5
43B
  8
16
 10
198.0113072564109
 20
18.1859440883037
 30
0.0
  0
VERTEX
  5
43C
  8
16
 10
198.0210594049366
 20
18.18536479042545
 30
0.0
  0
VERTEX
  5
43D
  8
16
 10
198.0308831463984
 20
18.18454321428977
 30
0.0
  0
VERTEX
  5
43E
  8
16
 10
198.0407704533706
 20
18.18347365451974
 30
0.0
  0
VERTEX
  5
43F
  8
16
 10
198.0507128826605
 20
18.18215070965077
 30
0.0
  0
VERTEX
  5
440
  8
16
 10
198.0607015860184
 20
18.18056931406065
 30
0.0
  0
VERTEX
  5
441
  8
16
 10
198.0707273235091
 20
18.17872476982153
 30
0.0
  0
VERTEX
  5
442
  8
16
 10
198.0807804796093
 20
18.17661277823584
 30
0.0
  0
VERTEX
  5
443
  8
16
 10
198.0908510820684
 20
18.17422947080516
 30
0.0
  0
VERTEX
  5
444
  8
16
 10
198.1009288235471
 20
18.17157143937008
 30
0.0
  0
VERTEX
  5
445
  8
16
 10
198.1110030860252
 20
18.16863576515096
 30
0.0
  0
VERTEX
  5
446
  8
16
 10
198.1210629679332
 20
18.16542004641427
 30
0.0
  0
VERTEX
  5
447
  8
16
 10
198.1310973139405
 20
18.16192242448681
 30
0.0
  0
VERTEX
  5
448
  8
16
 10
198.1410947472985
 20
18.1581416078418
 30
0.0
  0
VERTEX
  5
449
  8
16
 10
198.1510437046043
 20
18.15407689398564
 30
0.0
  0
VERTEX
  5
44A
  8
16
 10
198.1609324728228
 20
18.1497281888834
 30
0.0
  0
VERTEX
  5
44B
  8
16
 10
198.1707492283698
 20
18.14509602367372
 30
0.0
  0
VERTEX
  5
44C
  8
16
 10
198.1804820780332
 20
18.14018156844082
 30
0.0
  0
VERTEX
  5
44D
  8
16
 10
198.190119101476
 20
18.13498664283241
 30
0.0
  0
VERTEX
  5
44E
  8
16
 10
198.1996483950415
 20
18.12951372333646
 30
0.0
  0
VERTEX
  5
44F
  8
16
 10
198.2090581165586
 20
18.12376594705834
 30
0.0
  0
VERTEX
  5
450
  8
16
 10
198.2183365308182
 20
18.11774711187113
 30
0.0
  0
VERTEX
  5
451
  8
16
 10
198.227472055384
 20
18.11146167284612
 30
0.0
  0
VERTEX
  5
452
  8
16
 10
198.2364533063794
 20
18.10491473490741
 30
0.0
  0
VERTEX
  5
453
  8
16
 10
198.2452691438885
 20
18.09811204169256
 30
0.0
  0
VERTEX
  5
454
  8
16
 10
198.2539087166064
 20
18.09105996064159
 30
0.0
  0
VERTEX
  5
455
  8
16
 10
198.2623615053692
 20
18.08376546437632
 30
0.0
  0
VERTEX
  5
456
  8
16
 10
198.2706173652091
 20
18.07623610847265
 30
0.0
  0
VERTEX
  5
457
  8
16
 10
198.2786665655824
 20
18.06848000576795
 30
0.0
  0
VERTEX
  5
458
  8
16
 10
198.2864998284407
 20
18.06050579738333
 30
0.0
  0
VERTEX
  5
459
  8
16
 10
198.2941083638319
 20
18.05232262067691
 30
0.0
 42
-0.0000625289355333
  0
VERTEX
  5
45A
  8
16
 10
200.0654083581794
 20
16.28141312152275
 30
0.0
  0
VERTEX
  5
45B
  8
16
 10
218.3120477227398
 20
16.2814
 30
0.0
 42
-0.2119260650830286
  0
VERTEX
  5
45C
  8
16
 10
218.6141083638316
 20
16.14732262067626
 30
0.0
 42
-0.0001004018276
  0
VERTEX
  5
45D
  8
16
 10
219.7503884356565
 20
15.01141976266672
 30
0.0
  0
VERTEX
  5
45E
  8
16
 10
237.9970477227398
 20
15.0114
 30
0.0
 42
-0.2119261175019718
  0
VERTEX
  5
45F
  8
16
 10
238.2991083638321
 20
14.8773226206769
 30
0.0
 42
-0.0001004018027095
  0
VERTEX
  5
460
  8
16
 10
239.4353884361144
 20
13.74141976220835
 30
0.0
  0
VERTEX
  5
461
  8
16
 10
260.8570477227399
 20
13.74140000000002
 30
0.0
 42
-0.2119260650817729
  0
VERTEX
  5
462
  8
16
 10
261.1591083638323
 20
13.607322620677
 30
0.0
 42
-0.0001004018026375
  0
VERTEX
  5
463
  8
16
 10
262.2953884361145
 20
12.47141976220882
 30
0.0
  0
VERTEX
  5
464
  8
16
 10
281.1770477227399
 20
12.47140000000004
 30
0.0
 42
-0.2119260650825374
  0
VERTEX
  5
465
  8
16
 10
281.4791083638324
 20
12.33732262067682
 30
0.0
 42
-0.0001004018275219
  0
VERTEX
  5
466
  8
16
 10
282.6153884361142
 20
11.20141976220839
 30
0.0
  0
VERTEX
  5
467
  8
16
 10
300.8620477227398
 20
11.20140000000008
 30
0.0
 42
-0.2119260650814777
  0
VERTEX
  5
468
  8
16
 10
301.164108363832
 20
11.06732262067645
 30
0.0
 42
-0.0001004018036302
  0
VERTEX
  5
469
  8
16
 10
302.3003884361146
 20
9.931419762208861
 30
0.0
  0
VERTEX
  5
46A
  8
16
 10
320.5470477227398
 20
9.931399999999998
 30
0.0
 42
-0.2119260650818605
  0
VERTEX
  5
46B
  8
16
 10
320.849108363832
 20
9.79732262067679
 30
0.0
 42
-0.0001004018270041
  0
VERTEX
  5
46C
  8
16
 10
321.9853884361137
 20
8.661419762208425
 30
0.0
  0
VERTEX
  5
46D
  8
16
 10
333.0786477227398
 20
8.6614
 30
0.0
  0
VERTEX
  5
46E
  8
16
 10
336.7696477227398
 20
12.35240000000001
 30
0.0
 42
-0.2119986005418571
  0
VERTEX
  5
46F
  8
16
 10
337.0780780065922
 20
12.4711502692725
 30
0.0
  0
VERTEX
  5
470
  8
16
 10
353.1262504178828
 20
12.47139901434714
 30
0.0
 42
-5.476869441481031
  0
VERTEX
  5
471
  8
16
 10
353.1262508001413
 20
11.65859997376027
 30
0.0
  0
VERTEX
  5
472
  8
16
 10
337.2254281197423
 20
11.65859346566748
 30
0.0
  0
VERTEX
  5
473
  8
16
 10
333.5268962678824
 20
7.96027487759471
 30
0.0
  0
VERTEX
  5
474
  8
16
 10
333.5191758928025
 20
7.953133717904779
 30
0.0
  0
VERTEX
  5
475
  8
16
 10
333.5112786750242
 20
7.946199241942388
 30
0.0
  0
VERTEX
  5
476
  8
16
 10
333.5032129757346
 20
7.939477884296608
 30
0.0
  0
VERTEX
  5
477
  8
16
 10
333.4949874599779
 20
7.932975627077108
 30
0.0
  0
VERTEX
  5
478
  8
16
 10
333.4866110660211
 20
7.926697982625695
 30
0.0
  0
VERTEX
  5
479
  8
16
 10
333.478092973602
 20
7.920649978707827
 30
0.0
  0
VERTEX
  5
47A
  8
16
 10
333.4694425712934
 20
7.914836146261335
 30
0.0
  0
VERTEX
  5
47B
  8
16
 10
333.4606694232177
 20
7.909260509754833
 30
0.0
  0
VERTEX
  5
47C
  8
16
 10
333.4517832353564
 20
7.903926580183453
 30
0.0
  0
VERTEX
  5
47D
  8
16
 10
333.4427938216912
 20
7.898837350704698
 30
0.0
  0
VERTEX
  5
47E
  8
16
 10
333.4337110704131
 20
7.893995294893023
 30
0.0
  0
VERTEX
  5
47F
  8
16
 10
333.4245449104296
 20
7.889402367568342
 30
0.0
  0
VERTEX
  5
480
  8
16
 10
333.415305278391
 20
7.885060008131417
 30
0.0
  0
VERTEX
  5
481
  8
16
 10
333.4060020864457
 20
7.88096914631836
 30
0.0
  0
VERTEX
  5
482
  8
16
 10
333.3966451909217
 20
7.877130210267397
 30
0.0
  0
VERTEX
  5
483
  8
16
 10
333.3872443621173
 20
7.8735431367739
 30
0.0
  0
VERTEX
  5
484
  8
16
 10
333.3778092553649
 20
7.870207383594654
 30
0.0
  0
VERTEX
  5
485
  8
16
 10
333.3683493835188
 20
7.867121943649439
 30
0.0
  0
VERTEX
  5
486
  8
16
 10
333.3588740909944
 20
7.86428536095746
 30
0.0
  0
VERTEX
  5
487
  8
16
 10
333.3493925294711
 20
7.861695748137846
 30
0.0
  0
VERTEX
  5
488
  8
16
 10
333.3399136353507
 20
7.859350805297566
 30
0.0
  0
VERTEX
  5
489
  8
16
 10
333.3304461090412
 20
7.85724784012633
 30
0.0
  0
VERTEX
  5
48A
  8
16
 10
333.3209983961204
 20
7.855383789016604
 30
0.0
  0
VERTEX
  5
48B
  8
16
 10
333.3115786704143
 20
7.853755239027377
 30
0.0
  0
VERTEX
  5
48C
  8
16
 10
333.3021948190039
 20
7.852358450512885
 30
0.0
  0
VERTEX
  5
48D
  8
16
 10
333.2928544291623
 20
7.851189380241662
 30
0.0
  0
VERTEX
  5
48E
  8
16
 10
333.2835647772037
 20
7.850243704837262
 30
0.0
  0
VERTEX
  5
48F
  8
16
 10
333.2743328192131
 20
7.849516844379162
 30
0.0
  0
VERTEX
  5
490
  8
16
 10
333.2651651836127
 20
7.849003986010894
 30
0.0
  0
VERTEX
  5
491
  8
16
 10
333.2560681655072
 20
7.848700107411918
 30
0.0
  0
VERTEX
  5
492
  8
16
 10
321.8380780058782
 20
7.848849730727487
 30
0.0
 42
-0.2119985514960558
  0
VERTEX
  5
493
  8
16
 10
321.5296477226591
 20
7.967599999862887
 30
0.0
  0
VERTEX
  5
494
  8
16
 10
320.3786431497429
 20
9.11860228644308
 30
0.0
 42
-0.0000069138333174
  0
VERTEX
  5
495
  8
16
 10
302.1530780060921
 20
9.118849730817642
 30
0.0
 42
-0.211998594828294
  0
VERTEX
  5
496
  8
16
 10
301.8446475713465
 20
9.237600151404772
 30
0.0
  0
VERTEX
  5
497
  8
16
 10
300.6936431498034
 20
10.38860228639187
 30
0.0
 42
-0.0000069138355891
  0
VERTEX
  5
498
  8
16
 10
282.4680780058782
 20
10.38884973071981
 30
0.0
 42
-0.2119984990908398
  0
VERTEX
  5
499
  8
16
 10
282.1596477226608
 20
10.507599999965
 30
0.0
  0
VERTEX
  5
49A
  8
16
 10
281.0086433024844
 20
11.65860221014375
 30
0.0
 42
-0.0000066790539579
  0
VERTEX
  5
49B
  8
16
 10
262.1480780058782
 20
11.65884973073844
 30
0.0
 42
-0.2119986001411607
  0
VERTEX
  5
49C
  8
16
 10
261.8396477227554
 20
11.77760000013182
 30
0.0
  0
VERTEX
  5
49D
  8
16
 10
260.6886438230285
 20
12.92860194992673
 30
0.0
 42
-0.0000058802493333
  0
VERTEX
  5
49E
  8
16
 10
239.2880780058782
 20
12.92884973064065
 30
0.0
 42
-0.2119985475846627
  0
VERTEX
  5
49F
  8
16
 10
238.9796477227809
 20
13.04760000016812
 30
0.0
  0
VERTEX
  5
4A0
  8
16
 10
237.8286431500455
 20
14.19860228653698
 30
0.0
 42
-0.0000069138395291
  0
VERTEX
  5
4A1
  8
16
 10
219.6030780058782
 20
14.19884973077568
 30
0.0
 42
-0.2119985515623914
  0
VERTEX
  5
4A2
  8
16
 10
219.2946477227758
 20
14.31759999995647
 30
0.0
  0
VERTEX
  5
4A3
  8
16
 10
218.1436431498732
 20
15.46860228641276
 30
0.0
 42
-0.0000069138434475
  0
VERTEX
  5
4A4
  8
16
 10
199.9180780058782
 20
15.46884973079433
 30
0.0
 42
-0.2119986002463611
  0
VERTEX
  5
4A5
  8
16
 10
199.6096477227399
 20
15.58759999999999
 30
0.0
  0
VERTEX
  5
4A6
  8
16
 10
197.8236477227398
 20
17.37360000000001
 30
0.0
  0
VERTEX
  5
4A7
  8
16
 10
183.8278446552508
 20
17.37360000000002
 30
0.0
 42
-1.548961175462765
  0
VERTEX
  5
4A8
  8
16
 10
182.3457527576522
 20
18.85583660532109
 30
0.0
 42
-0.0000116502158903
  0
VERTEX
  5
4A9
  8
16
 10
182.3456639838478
 20
20.51419692472543
 30
0.0
  0
SEQEND
  5
4AA
  8
16
  0
ENDSEC
  0
EOF
