  0
SECTION
  2
HEADER
  9
$ACADVER
  1
AC1015
  9
$ACADMAINTVER
 70
     6
  9
$DWGCODEPAGE
  3
ANSI_1252
  9
$INSBASE
 10
0.0
 20
0.0
 30
0.0
  9
$EXTMIN
 10
0.0
 20
0.0
 30
0.0
  9
$EXTMAX
 10
400.0
 20
400.0
 30
0.0
  9
$LIMMIN
 10
0.0
 20
0.0
  9
$LIMMAX
 10
400.0
 20
400.0
  9
$ORTHOMODE
 70
     0
  9
$REGENMODE
 70
     1
  9
$FILLMODE
 70
     1
  9
$QTEXTMODE
 70
     0
  9
$MIRRTEXT
 70
     1
  9
$LTSCALE
 40
1.0
  9
$ATTMODE
 70
     1
  9
$TEXTSIZE
 40
3.5
  9
$TRACEWID
 40
1.0
  9
$TEXTSTYLE
  7
Standard
  9
$CLAYER
  8
0
  9
$CELTYPE
  6
ByLayer
  9
$CECOLOR
 62
   256
  9
$CELTSCALE
 40
1.0
  9
$DISPSILH
 70
     0
  9
$DIMSCALE
 40
1.0
  9
$DIMASZ
 40
3.302
  9
$DIMEXO
 40
1.0
  9
$DIMDLI
 40
3.75
  9
$DIMRND
 40
0.0
  9
$DIMDLE
 40
0.0
  9
$DIMEXE
 40
1.0
  9
$DIMTP
 40
0.0
  9
$DIMTM
 40
0.0
  9
$DIMTXT
 40
3.5
  9
$DIMCEN
 40
2.5
  9
$DIMTSZ
 40
0.0
  9
$DIMTOL
 70
     0
  9
$DIMLIM
 70
     0
  9
$DIMTIH
 70
     1
  9
$DIMTOH
 70
     1
  9
$DIMSE1
 70
     0
  9
$DIMSE2
 70
     0
  9
$DIMTAD
 70
     1
  9
$DIMZIN
 70
     1
  9
$DIMBLK
  1

  9
$DIMASO
 70
     1
  9
$DIMSHO
 70
     1
  9
$DIMPOST
  1

  9
$DIMAPOST
  1

  9
$DIMALT
 70
     0
  9
$DIMALTD
 70
     3
  9
$DIMALTF
 40
0.0393700787
  9
$DIMLFAC
 40
2.0
  9
$DIMTOFL
 70
     1
  9
$DIMTVP
 40
0.0
  9
$DIMTIX
 70
     0
  9
$DIMSOXD
 70
     0
  9
$DIMSAH
 70
     0
  9
$DIMBLK1
  1

  9
$DIMBLK2
  1

  9
$DIMSTYLE
  2
ISO-25
  9
$DIMCLRD
 70
     0
  9
$DIMCLRE
 70
     0
  9
$DIMCLRT
 70
     0
  9
$DIMTFAC
 40
1.0
  9
$DIMGAP
 40
1.524
  9
$DIMJUST
 70
     0
  9
$DIMSD1
 70
     0
  9
$DIMSD2
 70
     0
  9
$DIMTOLJ
 70
     0
  9
$DIMTZIN
 70
     1
  9
$DIMALTZ
 70
     0
  9
$DIMALTTZ
 70
     0
  9
$DIMUPT
 70
     0
  9
$DIMDEC
 70
     2
  9
$DIMTDEC
 70
     2
  9
$DIMALTU
 70
     2
  9
$DIMALTTD
 70
     3
  9
$DIMTXSTY
  7
Standard
  9
$DIMAUNIT
 70
     0
  9
$DIMADEC
 70
     2
  9
$DIMALTRND
 40
0.0
  9
$DIMAZIN
 70
     0
  9
$DIMDSEP
 70
    44
  9
$DIMATFIT
 70
     3
  9
$DIMFRAC
 70
     0
  9
$DIMLDRBLK
  1

  9
$DIMLUNIT
 70
     2
  9
$DIMLWD
 70
    -2
  9
$DIMLWE
 70
    -2
  9
$DIMTMOVE
 70
     0
  9
$LUNITS
 70
     2
  9
$LUPREC
 70
     2
  9
$SKETCHINC
 40
1.0
  9
$FILLETRAD
 40
10.0
  9
$AUNITS
 70
     0
  9
$AUPREC
 70
     2
  9
$MENU
  1
.
  9
$ELEVATION
 40
0.0
  9
$PELEVATION
 40
0.0
  9
$THICKNESS
 40
0.0
  9
$LIMCHECK
 70
     0
  9
$CHAMFERA
 40
0.0
  9
$CHAMFERB
 40
0.0
  9
$CHAMFERC
 40
0.0
  9
$CHAMFERD
 40
0.0
  9
$SKPOLY
 70
     0
  9
$TDCREATE
 40
2458163.517209178
  9
$TDUCREATE
 40
2458163.767209178
  9
$TDUPDATE
 40
2458163.51721
  9
$TDUUPDATE
 40
2458163.76721
  9
$TDINDWG
 40
0.0000000116
  9
$TDUSRTIMER
 40
0.0000000116
  9
$USRTIMER
 70
     1
  9
$ANGBASE
 50
0.0
  9
$ANGDIR
 70
     0
  9
$PDMODE
 70
     0
  9
$PDSIZE
 40
-1.0
  9
$PLINEWID
 40
0.0
  9
$SPLFRAME
 70
     0
  9
$SPLINETYPE
 70
     6
  9
$SPLINESEGS
 70
     8
  9
$HANDSEED
  5
1D6
  9
$SURFTAB1
 70
     6
  9
$SURFTAB2
 70
     6
  9
$SURFTYPE
 70
     6
  9
$SURFU
 70
     6
  9
$SURFV
 70
     6
  9
$UCSBASE
  2

  9
$UCSNAME
  2

  9
$UCSORG
 10
0.0
 20
0.0
 30
0.0
  9
$UCSXDIR
 10
1.0
 20
0.0
 30
0.0
  9
$UCSYDIR
 10
0.0
 20
1.0
 30
0.0
  9
$UCSORTHOREF
  2

  9
$UCSORTHOVIEW
 70
     0
  9
$UCSORGTOP
 10
0.0
 20
0.0
 30
0.0
  9
$UCSORGBOTTOM
 10
0.0
 20
0.0
 30
0.0
  9
$UCSORGLEFT
 10
0.0
 20
0.0
 30
0.0
  9
$UCSORGRIGHT
 10
0.0
 20
0.0
 30
0.0
  9
$UCSORGFRONT
 10
0.0
 20
0.0
 30
0.0
  9
$UCSORGBACK
 10
0.0
 20
0.0
 30
0.0
  9
$PUCSBASE
  2

  9
$PUCSNAME
  2

  9
$PUCSORG
 10
0.0
 20
0.0
 30
0.0
  9
$PUCSXDIR
 10
1.0
 20
0.0
 30
0.0
  9
$PUCSYDIR
 10
0.0
 20
1.0
 30
0.0
  9
$PUCSORTHOREF
  2

  9
$PUCSORTHOVIEW
 70
     0
  9
$PUCSORGTOP
 10
0.0
 20
0.0
 30
0.0
  9
$PUCSORGBOTTOM
 10
0.0
 20
0.0
 30
0.0
  9
$PUCSORGLEFT
 10
0.0
 20
0.0
 30
0.0
  9
$PUCSORGRIGHT
 10
0.0
 20
0.0
 30
0.0
  9
$PUCSORGFRONT
 10
0.0
 20
0.0
 30
0.0
  9
$PUCSORGBACK
 10
0.0
 20
0.0
 30
0.0
  9
$USERI1
 70
     0
  9
$USERI2
 70
     0
  9
$USERI3
 70
     0
  9
$USERI4
 70
     0
  9
$USERI5
 70
     0
  9
$USERR1
 40
0.0
  9
$USERR2
 40
0.0
  9
$USERR3
 40
0.0
  9
$USERR4
 40
0.0
  9
$USERR5
 40
0.0
  9
$WORLDVIEW
 70
     1
  9
$SHADEDGE
 70
     3
  9
$SHADEDIF
 70
    70
  9
$TILEMODE
 70
     1
  9
$MAXACTVP
 70
    64
  9
$PINSBASE
 10
0.0
 20
0.0
 30
0.0
  9
$PLIMCHECK
 70
     0
  9
$PEXTMIN
 10
1.0000000000E+20
 20
1.0000000000E+20
 30
1.0000000000E+20
  9
$PEXTMAX
 10
-1.0000000000E+20
 20
-1.0000000000E+20
 30
-1.0000000000E+20
  9
$PLIMMIN
 10
0.0
 20
0.0
  9
$PLIMMAX
 10
420.0
 20
297.0
  9
$UNITMODE
 70
     0
  9
$VISRETAIN
 70
     1
  9
$PLINEGEN
 70
     0
  9
$PSLTSCALE
 70
     1
  9
$TREEDEPTH
 70
  3020
  9
$CMLSTYLE
  2
Standard
  9
$CMLJUST
 70
     0
  9
$CMLSCALE
 40
20.0
  9
$PROXYGRAPHICS
 70
     1
  9
$MEASUREMENT
 70
     1
  9
$CELWEIGHT
370
    -1
  9
$ENDCAPS
280
     0
  9
$JOINSTYLE
280
     0
  9
$LWDISPLAY
290
     1
  9
$INSUNITS
 70
     4
  9
$HYPERLINKBASE
  1

  9
$STYLESHEET
  1

  9
$XEDIT
290
     1
  9
$CEPSNTYPE
380
     0
  9
$PSTYLEMODE
290
     1
  9
$FINGERPRINTGUID
  2
{1FCF20B0-0582-4EF0-B5F6-66EAB61AF37B}
  9
$VERSIONGUID
  2
{FAEB1C32-E019-11D5-929B-00C0DF256EC4}
  9
$EXTNAMES
290
     1
  9
$PSVPSCALE
 40
0.0
  9
$OLESTARTUP
290
     0
  0
ENDSEC
  0
SECTION
  2
CLASSES
  0
CLASS
  1
ACDBDICTIONARYWDFLT
  2
AcDbDictionaryWithDefault
  3
ObjectDBX Classes
 90
        0
280
     0
281
     0
  0
CLASS
  1
VISUALSTYLE
  2
AcDbVisualStyle
  3
ObjectDBX Classes
 90
     4095
280
     0
281
     0
  0
CLASS
  1
MATERIAL
  2
AcDbMaterial
  3
ObjectDBX Classes
 90
     1153
280
     0
281
     0
  0
CLASS
  1
SCALE
  2
AcDbScale
  3
ObjectDBX Classes
 90
     1153
280
     0
281
     0
  0
CLASS
  1
TABLESTYLE
  2
AcDbTableStyle
  3
ObjectDBX Classes
 90
     4095
280
     0
281
     0
  0
CLASS
  1
MLEADERSTYLE
  2
AcDbMLeaderStyle
  3
ACDB_MLEADERSTYLE_CLASS
 90
     4095
280
     0
281
     0
  0
CLASS
  1
SUN
  2
AcDbSun
  3
SCENEOE
 90
     1153
280
     0
281
     0
  0
CLASS
  1
ACDBPLACEHOLDER
  2
AcDbPlaceHolder
  3
ObjectDBX Classes
 90
        0
280
     0
281
     0
  0
CLASS
  1
LAYOUT
  2
AcDbLayout
  3
ObjectDBX Classes
 90
        0
280
     0
281
     0
  0
ENDSEC
  0
SECTION
  2
TABLES
  0
TABLE
  2
VPORT
  5
8
330
0
100
AcDbSymbolTable
 70
     1
  0
VPORT
  5
29
330
8
100
AcDbSymbolTableRecord
100
AcDbViewportTableRecord
  2
*Active
 70
     0
 10
0.0
 20
0.0
 11
1.0
 21
1.0
 12
200.0
 22
200.0
 13
0.0
 23
0.0
 14
10.0
 24
10.0
 15
10.0
 25
10.0
 16
0.0
 26
0.0
 36
1.0
 17
0.0
 27
0.0
 37
0.0
 40
400.0
 41
1.0
 42
50.0
 43
0.0
 44
0.0
 50
0.0
 51
0.0
 71
     0
 72
  2000
 73
     1
 74
     3
 75
     0
 76
     0
 77
     0
 78
     0
281
     0
 65
     1
110
0.0
120
0.0
130
0.0
111
1.0
121
0.0
131
0.0
112
0.0
122
1.0
132
0.0
 79
     0
146
0.0
  0
ENDTAB
  0
TABLE
  2
LTYPE
  5
5
330
0
100
AcDbSymbolTable
 70
     6
  0
LTYPE
  5
14
330
5
100
AcDbSymbolTableRecord
100
AcDbLinetypeTableRecord
  2
ByBlock
 70
     0
  3

 72
    65
 73
     0
 40
0.0
  0
LTYPE
  5
15
330
5
100
AcDbSymbolTableRecord
100
AcDbLinetypeTableRecord
  2
ByLayer
 70
     0
  3

 72
    65
 73
     0
 40
0.0
  0
LTYPE
  5
16
330
5
100
AcDbSymbolTableRecord
100
AcDbLinetypeTableRecord
  2
Continuous
 70
     0
  3
Solid line
 72
    65
 73
     0
 40
0.0
  0
LTYPE
  5
6E
330
5
100
AcDbSymbolTableRecord
100
AcDbLinetypeTableRecord
  2
HIDDEN
 70
     0
  3
Hidden __ __ __ __ __ __ __ __ __ __ __ __ __ __
 72
    65
 73
     2
 40
1.905
 49
1.27
 74
     0
 49
-0.635
 74
     0
  0
LTYPE
  5
6F
330
5
100
AcDbSymbolTableRecord
100
AcDbLinetypeTableRecord
  2
PHANTOM
 70
     0
  3
Phantom ______  __  __  ______  __  __  ______
 72
    65
 73
     6
 40
12.7
 49
6.35
 74
     0
 49
-1.27
 74
     0
 49
1.27
 74
     0
 49
-1.27
 74
     0
 49
1.27
 74
     0
 49
-1.27
 74
     0
  0
LTYPE
  5
70
330
5
100
AcDbSymbolTableRecord
100
AcDbLinetypeTableRecord
  2
CENTER
 70
     0
  3
Center ____ _ ____ _ ____ _ ____ _ ____ _ ____
 72
    65
 73
     4
 40
10.16
 49
6.35
 74
     0
 49
-1.27
 74
     0
 49
1.27
 74
     0
 49
-1.27
 74
     0
  0
LTYPE
  5
71
330
5
100
AcDbSymbolTableRecord
100
AcDbLinetypeTableRecord
  2
CENTERX2
 70
     0
  3
Center (2x) ________  __  ________  __  _____
 72
    65
 73
     4
 40
20.32
 49
12.7
 74
     0
 49
-2.54
 74
     0
 49
2.54
 74
     0
 49
-2.54
 74
     0
  0
LTYPE
  5
72
330
5
100
AcDbSymbolTableRecord
100
AcDbLinetypeTableRecord
  2
DOT2
 70
     0
  3
Dot (.5x) ........................................
 72
    65
 73
     2
 40
0.635
 49
0.0
 74
     0
 49
-0.635
 74
     0
  0
ENDTAB
  0
TABLE
  2
LAYER
  5
2
330
0
100
AcDbSymbolTable
 70
     1
  0
LAYER
  5
10
330
2
100
AcDbSymbolTableRecord
100
AcDbLayerTableRecord
  2
0
 70
     0
 62
     7
  6
Continuous
370
    -3
390
F
  0
ENDTAB
  0
TABLE
  2
STYLE
  5
3
330
0
100
AcDbSymbolTable
 70
     1
  0
STYLE
  5
11
330
3
100
AcDbSymbolTableRecord
100
AcDbTextStyleTableRecord
  2
Standard
 70
     0
 40
0.0
 41
1.0
 50
0.0
 71
     0
 42
3.5
  3
txt
  4

  0
ENDTAB
  0
TABLE
  2
VIEW
  5
6
330
0
100
AcDbSymbolTable
 70
     0
  0
ENDTAB
  0
TABLE
  2
UCS
  5
7
330
0
100
AcDbSymbolTable
 70
     0
  0
ENDTAB
  0
TABLE
  2
APPID
  5
9
330
0
100
AcDbSymbolTable
 70
     1
  0
APPID
  5
12
330
9
100
AcDbSymbolTableRecord
100
AcDbRegAppTableRecord
  2
ACAD
 70
     0
  0
ENDTAB
  0
TABLE
  2
DIMSTYLE
  5
A
330
0
100
AcDbSymbolTable
 70
     1
100
AcDbDimStyleTable
  0
DIMSTYLE
105
27
330
A
100
AcDbSymbolTableRecord
100
AcDbDimStyleTableRecord
  2
ISO-25
 70
     0
 41
2.5
 42
0.625
 43
3.75
 44
1.25
 73
     0
 74
     0
 77
     1
 78
     8
140
2.5
141
2.5
143
0.0393700787
147
0.625
171
     3
172
     1
178
     0
271
     2
272
     2
274
     3
278
    44
283
     0
284
     8
340
11
  0
ENDTAB
  0
TABLE
  2
BLOCK_RECORD
  5
1
330
0
100
AcDbSymbolTable
 70
     1
  0
BLOCK_RECORD
  5
1F
330
1
100
AcDbSymbolTableRecord
100
AcDbBlockTableRecord
  2
*Model_Space
340
22
  0
BLOCK_RECORD
  5
1B
330
1
100
AcDbSymbolTableRecord
100
AcDbBlockTableRecord
  2
*Paper_Space
340
1E
  0
BLOCK_RECORD
  5
23
330
1
100
AcDbSymbolTableRecord
100
AcDbBlockTableRecord
  2
*Paper_Space0
340
26
  0
ENDTAB
  0
ENDSEC
  0
SECTION
  2
BLOCKS
  0
BLOCK
  5
20
330
1F
100
AcDbEntity
  8
0
100
AcDbBlockBegin
  2
*Model_Space
 70
     0
 10
0.0
 20
0.0
 30
0.0
  3
*Model_Space
  1

  0
ENDBLK
  5
21
330
1F
100
AcDbEntity
  8
0
100
AcDbBlockEnd
  0
BLOCK
  5
1C
330
1B
100
AcDbEntity
 67
     1
  8
0
100
AcDbBlockBegin
  2
*Paper_Space
 70
     0
 10
0.0
 20
0.0
 30
0.0
  3
*Paper_Space
  1

  0
ENDBLK
  5
1D
330
1B
100
AcDbEntity
 67
     1
  8
0
100
AcDbBlockEnd
  0
BLOCK
  5
24
330
23
100
AcDbEntity
  8
0
100
AcDbBlockBegin
  2
*Paper_Space0
 70
     0
 10
0.0
 20
0.0
 30
0.0
  3
*Paper_Space0
  1

  0
ENDBLK
  5
25
330
23
100
AcDbEntity
  8
0
100
AcDbBlockEnd
  0
ENDSEC
  0
SECTION
  2
ENTITIES
  0
CIRCLE
  5
73
330
1F
100
AcDbEntity
  8
0
  6
Continuous
 62
     7
100
AcDbCircle
 10
135.7713207941
 20
104.3927202482
 30
0.0
 40
1.999999999999995
  0
CIRCLE
  5
74
330
1F
100
AcDbEntity
  8
0
  6
Continuous
 62
     7
100
AcDbCircle
 10
135.7713207941
 20
173.8927202482
 30
0.0
 40
1.999999999999987
  0
LINE
  5
75
330
1F
100
AcDbEntity
  8
0
  6
Continuous
 62
     7
370
    25
100
AcDbLine
 10
210.5713281933
 20
158.2584657217
 30
0.0
 11
206.5713200871
 21
158.2584657217
 31
0.0
  0
LINE
  5
76
330
1F
100
AcDbEntity
  8
0
  6
Continuous
 62
     7
370
    25
100
AcDbLine
 10
206.5713200871
 20
141.6625805641
 30
0.0
 11
210.5713281933
 21
141.6625805641
 31
0.0
  0
LINE
  5
77
330
1F
100
AcDbEntity
  8
0
  6
Continuous
 62
     7
370
    25
100
AcDbLine
 10
198.1536094252
 20
152.3928620363
 30
0.0
 11
197.9213152233
 21
152.2552200103
 31
0.0
  0
LINE
  5
78
330
1F
100
AcDbEntity
  8
0
  6
Continuous
 62
     7
370
    25
100
AcDbLine
 10
197.9213152233
 20
147.0302172447
 30
0.0
 11
198.1536094252
 21
146.8925826693
 31
0.0
  0
LINE
  5
79
330
1F
100
AcDbEntity
  8
0
  6
Continuous
 62
     7
370
    25
100
AcDbLine
 10
218.7213245932
 20
152.3927204752
 30
0.0
 11
216.0213235918
 21
152.3927204752
 31
0.0
  0
LINE
  5
7A
330
1F
100
AcDbEntity
  8
0
  6
Continuous
 62
     7
370
    25
100
AcDbLine
 10
216.0213235918
 20
146.8927167798
 30
0.0
 11
218.7213245932
 21
146.8927167798
 31
0.0
  0
LINE
  5
7B
330
1F
100
AcDbEntity
  8
0
  6
Continuous
 62
     7
370
    25
100
AcDbLine
 10
218.7213245932
 20
146.8927167798
 30
0.0
 11
219.0213147703
 21
147.1927218581
 31
0.0
  0
LINE
  5
7C
330
1F
100
AcDbEntity
  8
0
  6
Continuous
 62
     7
370
    25
100
AcDbLine
 10
219.0213147703
 20
152.0927228475
 30
0.0
 11
218.7213245932
 21
152.3927204752
 31
0.0
  0
ARC
  5
7D
330
1F
100
AcDbEntity
  8
0
  6
Continuous
 62
     7
370
    25
100
AcDbCircle
 10
215.9213207941
 20
148.0427202482
 30
0.0
 40
0.1000000000000227
100
AcDbArc
 50
0.0
 51
90.0
  0
ARC
  5
7E
330
1F
100
AcDbEntity
  8
0
  6
Continuous
 62
     7
370
    25
100
AcDbCircle
 10
215.9213207941
 20
151.2427202482
 30
0.0
 40
0.1000000000000227
100
AcDbArc
 50
270.0
 51
0.0
  0
LINE
  5
7F
330
1F
100
AcDbEntity
  8
0
  6
Continuous
 62
     7
370
    25
100
AcDbLine
 10
197.9213152233
 20
151.1427216673
 30
0.0
 11
196.3018272225
 21
151.1427216673
 31
0.0
  0
LINE
  5
80
330
1F
100
AcDbEntity
  8
0
  6
Continuous
 62
     7
370
    25
100
AcDbLine
 10
196.3018272225
 20
148.1427230382
 30
0.0
 11
197.9213152233
 21
148.1427230382
 31
0.0
  0
LINE
  5
81
330
1F
100
AcDbEntity
  8
0
  6
Continuous
 62
     7
370
    25
100
AcDbLine
 10
196.3018272225
 20
151.1427216673
 30
0.0
 11
196.0213277642
 21
150.862222209
 31
0.0
  0
LINE
  5
82
330
1F
100
AcDbEntity
  8
0
  6
Continuous
 62
     7
370
    25
100
AcDbLine
 10
196.0213277642
 20
148.4232224966
 30
0.0
 11
196.3018272225
 21
148.1427230382
 31
0.0
  0
LINE
  5
83
330
1F
100
AcDbEntity
  8
0
  6
Continuous
 62
     7
370
    25
100
AcDbLine
 10
213.2713142935
 20
147.5283258105
 30
0.0
 11
213.5713193718
 21
147.8283234382
 31
0.0
  0
LINE
  5
84
330
1F
100
AcDbEntity
  8
0
  6
Continuous
 62
     7
370
    25
100
AcDbLine
 10
213.5713193718
 20
152.7283244277
 30
0.0
 11
213.2713142935
 21
153.028329506
 31
0.0
  0
LINE
  5
85
330
1F
100
AcDbEntity
  8
0
  6
Continuous
 62
     7
370
    25
100
AcDbLine
 10
213.2713142935
 20
153.028329506
 30
0.0
 11
210.5713281933
 21
153.028329506
 31
0.0
  0
LINE
  5
86
330
1F
100
AcDbEntity
  8
0
  6
Continuous
 62
     7
370
    25
100
AcDbLine
 10
210.5713281933
 20
147.5283258105
 30
0.0
 11
213.2713142935
 21
147.5283258105
 31
0.0
  0
LINE
  5
87
330
1F
100
AcDbEntity
  8
0
  6
Continuous
 62
     7
370
    25
100
AcDbLine
 10
157.4713234011
 20
147.5283258105
 30
0.0
 11
160.1713244025
 21
147.5283258105
 31
0.0
  0
LINE
  5
88
330
1F
100
AcDbEntity
  8
0
  6
Continuous
 62
     7
370
    25
100
AcDbLine
 10
160.1713244025
 20
153.028329506
 30
0.0
 11
157.4713234011
 21
153.028329506
 31
0.0
  0
LINE
  5
89
330
1F
100
AcDbEntity
  8
0
  6
Continuous
 62
     7
370
    25
100
AcDbLine
 10
157.4713234011
 20
153.028329506
 30
0.0
 11
157.1713183228
 21
152.7283244277
 31
0.0
  0
LINE
  5
8A
330
1F
100
AcDbEntity
  8
0
  6
Continuous
 62
     7
370
    25
100
AcDbLine
 10
157.1713183228
 20
147.8283234382
 30
0.0
 11
157.4713234011
 21
147.5283258105
 31
0.0
  0
LINE
  5
8B
330
1F
100
AcDbEntity
  8
0
  6
Continuous
 62
     7
370
    25
100
AcDbLine
 10
148.7713251416
 20
112.3927213693
 30
0.0
 11
149.0713153187
 21
112.692718997
 31
0.0
  0
LINE
  5
8C
330
1F
100
AcDbEntity
  8
0
  6
Continuous
 62
     7
370
    25
100
AcDbLine
 10
149.0713153187
 20
117.5927199865
 30
0.0
 11
148.7713251416
 21
117.8927176142
 31
0.0
  0
LINE
  5
8D
330
1F
100
AcDbEntity
  8
0
  6
Continuous
 62
     7
370
    25
100
AcDbLine
 10
148.7713251416
 20
117.8927176142
 30
0.0
 11
146.0713241402
 21
117.8927176142
 31
0.0
  0
LINE
  5
8E
330
1F
100
AcDbEntity
  8
0
  6
Continuous
 62
     7
370
    25
100
AcDbLine
 10
146.0713241402
 20
112.3927213693
 30
0.0
 11
148.7713251416
 21
112.3927213693
 31
0.0
  0
LINE
  5
8F
330
1F
100
AcDbEntity
  8
0
  6
Continuous
 62
     7
370
    25
100
AcDbLine
 10
148.7713251416
 20
160.3927217865
 30
0.0
 11
149.0713153187
 21
160.6927194143
 31
0.0
  0
LINE
  5
90
330
1F
100
AcDbEntity
  8
0
  6
Continuous
 62
     7
370
    25
100
AcDbLine
 10
149.0713153187
 20
165.5927204037
 30
0.0
 11
148.7713251416
 21
165.8927217567
 31
0.0
  0
LINE
  5
91
330
1F
100
AcDbEntity
  8
0
  6
Continuous
 62
     7
370
    25
100
AcDbLine
 10
148.7713251416
 20
165.8927217567
 30
0.0
 11
146.0713241402
 21
165.8927217567
 31
0.0
  0
LINE
  5
92
330
1F
100
AcDbEntity
  8
0
  6
Continuous
 62
     7
370
    25
100
AcDbLine
 10
146.0713241402
 20
160.3927217865
 30
0.0
 11
148.7713251416
 21
160.3927217865
 31
0.0
  0
LINE
  5
93
330
1F
100
AcDbEntity
  8
0
  6
Continuous
 62
     7
370
    25
100
AcDbLine
 10
164.5713243786
 20
158.2584657217
 30
0.0
 11
160.1713244025
 21
158.2584657217
 31
0.0
  0
LINE
  5
94
330
1F
100
AcDbEntity
  8
0
  6
Continuous
 62
     7
370
    25
100
AcDbLine
 10
160.1713244025
 20
141.6625805641
 30
0.0
 11
164.5713243786
 21
141.6625805641
 31
0.0
  0
ARC
  5
95
330
1F
100
AcDbEntity
  8
0
  6
Continuous
 62
     7
370
    25
100
AcDbCircle
 10
156.5713207941
 20
145.8927202482
 30
0.0
 40
0.5
100
AcDbArc
 50
180.0
 51
270.0
  0
ARC
  5
96
330
1F
100
AcDbEntity
  8
0
  6
Continuous
 62
     7
370
    25
100
AcDbCircle
 10
156.5713207941
 20
153.3927202482
 30
0.0
 40
0.5
100
AcDbArc
 50
90.0
 51
180.0
  0
LINE
  5
97
330
1F
100
AcDbEntity
  8
0
  6
Continuous
 62
     7
370
    25
100
AcDbLine
 10
160.0713227097
 20
153.8927235151
 30
0.0
 11
156.5713230673
 21
153.8927235151
 31
0.0
  0
LINE
  5
98
330
1F
100
AcDbEntity
  8
0
  6
Continuous
 62
     7
370
    25
100
AcDbLine
 10
156.5713230673
 20
145.3927211905
 30
0.0
 11
160.0713227097
 21
145.3927211905
 31
0.0
  0
ARC
  5
99
330
1F
100
AcDbEntity
  8
0
  6
Continuous
 62
     7
370
    25
100
AcDbCircle
 10
160.2713207941
 20
143.3427202482
 30
0.0
 40
0.1999999999999886
100
AcDbArc
 50
180.0
 51
240.0
  0
ARC
  5
9A
330
1F
100
AcDbEntity
  8
0
  6
Continuous
 62
     7
370
    25
100
AcDbCircle
 10
160.2713207941
 20
155.9427202482
 30
0.0
 40
0.2000000000000087
100
AcDbArc
 50
120.0
 51
180.0
  0
LINE
  5
9B
330
1F
100
AcDbEntity
  8
0
  6
Continuous
 62
     7
370
    25
100
AcDbLine
 10
154.0713254515
 20
159.8927207733
 30
0.0
 11
152.1713230912
 21
159.8927207733
 31
0.0
  0
ARC
  5
9C
330
1F
100
AcDbEntity
  8
0
  6
Continuous
 62
     7
370
    25
100
AcDbCircle
 10
154.8713207941
 20
155.9427202482
 30
0.0
 40
0.2000000000000171
100
AcDbArc
 50
0.0
 51
90.0
  0
ARC
  5
9D
330
1F
100
AcDbEntity
  8
0
  6
Continuous
 62
     7
370
    25
100
AcDbCircle
 10
154.8713207941
 20
143.3427202482
 30
0.0
 40
0.2000000000000171
100
AcDbArc
 50
270.0
 51
0.0
  0
LINE
  5
9E
330
1F
100
AcDbEntity
  8
0
  6
Continuous
 62
     7
370
    25
100
AcDbLine
 10
154.0713254515
 20
143.142720356
 30
0.0
 11
154.8713240925
 21
143.142720356
 31
0.0
  0
LINE
  5
9F
330
1F
100
AcDbEntity
  8
0
  6
Continuous
 62
     7
370
    25
100
AcDbLine
 10
154.8713240925
 20
156.142716899
 30
0.0
 11
154.0713254515
 21
156.142716899
 31
0.0
  0
ARC
  5
A0
330
1F
100
AcDbEntity
  8
0
  6
Continuous
 62
     7
370
    25
100
AcDbCircle
 10
155.3713207941
 20
154.9427202482
 30
0.0
 40
0.2000000000000171
100
AcDbArc
 50
360.0
 51
90.0
  0
ARC
  5
A1
330
1F
100
AcDbEntity
  8
0
  6
Continuous
 62
     7
370
    25
100
AcDbCircle
 10
155.3713207941
 20
144.3427202482
 30
0.0
 40
0.2000000000000171
100
AcDbArc
 50
270.0
 51
0.0
  0
LINE
  5
A2
330
1F
100
AcDbEntity
  8
0
  6
Continuous
 62
     7
370
    25
100
AcDbLine
 10
155.0713274781
 20
144.1427223826
 30
0.0
 11
155.3713176552
 21
144.1427223826
 31
0.0
  0
LINE
  5
A3
330
1F
100
AcDbEntity
  8
0
  6
Continuous
 62
     7
370
    25
100
AcDbLine
 10
155.3713176552
 20
155.142722323
 30
0.0
 11
155.0713274781
 21
155.142722323
 31
0.0
  0
ARC
  5
A4
330
1F
100
AcDbEntity
  8
0
  6
Continuous
 62
     7
370
    25
100
AcDbCircle
 10
152.2713207941
 20
122.1927202482
 30
0.0
 40
0.1999999999999886
100
AcDbArc
 50
90.0
 51
180.0
  0
LINE
  5
A5
330
1F
100
AcDbEntity
  8
0
  6
Continuous
 62
     7
370
    25
100
AcDbLine
 10
152.2713247839
 20
122.3927192832
 30
0.0
 11
154.0713254515
 21
122.3927192832
 31
0.0
  0
SPLINE
  5
A6
330
1F
100
AcDbEntity
  8
0
  6
Continuous
 62
     7
370
    25
100
AcDbSpline
210
0.0
220
0.0
230
1.0
 70
     8
 71
     3
 72
     9
 73
     5
 74
     0
 42
0.000000001
 43
0.00000001
 40
0.0
 40
0.0
 40
0.0
 40
0.0
 40
0.5086278150867586
 40
0.9999999999999999
 40
0.9999999999999999
 40
0.9999999999999999
 40
0.9999999999999999
 10
152.1550212208084
 20
159.8915100539195
 30
0.0
 10
152.1409533190835
 20
159.8917933762934
 30
0.0
 10
152.1132947811355
 20
159.8923504090894
 30
0.0
 10
152.085650223251
 20
159.8922715227771
 30
0.0
 10
152.0720664564423
 20
159.8922327602374
 30
0.0
  0
LINE
  5
A7
330
1F
100
AcDbEntity
  8
0
  6
Continuous
 62
     7
370
    25
100
AcDbLine
 10
155.5713210408
 20
147.1427210117
 30
0.0
 11
156.0713146035
 21
147.1427210117
 31
0.0
  0
LINE
  5
A8
330
1F
100
AcDbEntity
  8
0
  6
Continuous
 62
     7
370
    25
100
AcDbLine
 10
156.0713146035
 20
152.1427236939
 30
0.0
 11
155.5713210408
 21
152.1427236939
 31
0.0
  0
LINE
  5
A9
330
1F
100
AcDbEntity
  8
0
  6
Continuous
 62
     7
370
    25
100
AcDbLine
 10
154.3713156287
 20
140.209516182
 30
0.0
 11
154.0713254515
 21
140.209516182
 31
0.0
  0
SPLINE
  5
AA
330
1F
100
AcDbEntity
  8
0
  6
Continuous
 62
     7
370
    25
100
AcDbSpline
210
0.0
220
0.0
230
1.0
 70
     8
 71
     3
 72
    19
 73
    15
 74
     0
 42
0.000000001
 43
0.00000001
 40
0.0
 40
0.0
 40
0.0
 40
0.0
 40
0.7812488448783559
 40
0.8241666502855944
 40
0.8378920626830864
 40
0.8462391908164639
 40
0.8481742838582649
 40
0.8487113873115111
 40
0.848885076273834
 40
0.8490792664371818
 40
0.8499993672189968
 40
0.8526495471920402
 40
0.87952384516064
 40
0.9999999999999999
 40
0.9999999999999999
 40
0.9999999999999999
 40
0.9999999999999999
 10
152.2193197313599
 20
159.8909177327621
 30
0.0
 10
152.1970617556247
 20
159.8909471253816
 30
0.0
 10
152.1735810408383
 20
159.890978132681
 30
0.0
 10
152.1494584568417
 20
159.8916685671406
 30
0.0
 10
152.1476383831217
 20
159.8917071716712
 30
0.0
 10
152.1469057606104
 20
159.8917238322555
 30
0.0
 10
152.1466410377847
 20
159.8917338377719
 30
0.0
 10
152.1465419413611
 20
159.8917335608613
 30
0.0
 10
152.1465395535182
 20
159.8917335743164
 30
0.0
 10
152.1465809565616
 20
159.8917335514654
 30
0.0
 10
152.1466730031952
 20
159.8917342625695
 30
0.0
 10
152.1475672177475
 20
159.8916932242422
 30
0.0
 10
152.1517678634597
 20
159.8916443615717
 30
0.0
 10
152.1560008265604
 20
159.8914577443029
 30
0.0
 10
152.1594617668442
 20
159.8913051629531
 30
0.0
  0
LINE
  5
AB
330
1F
100
AcDbEntity
  8
0
  6
Continuous
 62
     7
370
    25
100
AcDbLine
 10
171.271318585
 20
199.1427202219
 30
0.0
 11
196.2713245455
 21
199.1427202219
 31
0.0
  0
LINE
  5
AC
330
1F
100
AcDbEntity
  8
0
  6
Continuous
 62
     7
370
    25
100
AcDbLine
 10
171.271318585
 20
79.1427247668
 30
0.0
 11
196.2713245455
 21
79.1427247668
 31
0.0
  0
LINE
  5
AD
330
1F
100
AcDbEntity
  8
0
  6
Continuous
 62
     7
370
    25
100
AcDbLine
 10
196.2713245455
 20
79.1427247668
 30
0.0
 11
196.2713245455
 21
138.1753139639
 31
0.0
  0
LINE
  5
AE
330
1F
100
AcDbEntity
  8
0
  6
Continuous
 62
     7
370
    25
100
AcDbLine
 10
196.2713245455
 20
144.4345914269
 30
0.0
 11
196.2713245455
 21
148.1732182646
 31
0.0
  0
LINE
  5
AF
330
1F
100
AcDbEntity
  8
0
  6
Continuous
 62
     7
370
    25
100
AcDbLine
 10
196.2713245455
 20
151.1122189904
 30
0.0
 11
196.2713245455
 21
156.1220638895
 31
0.0
  0
LINE
  5
B0
330
1F
100
AcDbEntity
  8
0
  6
Continuous
 62
     7
370
    25
100
AcDbLine
 10
196.2713245455
 20
162.3813413525
 30
0.0
 11
196.2713245455
 21
199.1427202219
 31
0.0
  0
LINE
  5
B1
330
1F
100
AcDbEntity
  8
0
  6
Continuous
 62
     7
370
    25
100
AcDbLine
 10
250.7713232342
 20
249.142720967
 30
0.0
 11
250.7713232342
 21
29.1427128458
 31
0.0
  0
LINE
  5
B2
330
1F
100
AcDbEntity
  8
0
  6
Continuous
 62
     7
370
    25
100
AcDbLine
 10
100.7713172737
 20
249.142720967
 30
0.0
 11
100.7713172737
 21
29.1427128458
 31
0.0
  0
LINE
  5
B3
330
1F
100
AcDbEntity
  8
0
  6
Continuous
 62
     7
370
    25
100
AcDbLine
 10
250.7713232342
 20
249.142720967
 30
0.0
 11
100.7713172737
 21
249.142720967
 31
0.0
  0
CIRCLE
  5
B4
330
1F
100
AcDbEntity
  8
0
  6
Continuous
 62
     7
370
    25
100
AcDbCircle
 10
125.7713207941
 20
229.1427202482
 30
0.0
 40
4.000000000000028
  0
CIRCLE
  5
B5
330
1F
100
AcDbEntity
  8
0
  6
Continuous
 62
     7
370
    25
100
AcDbCircle
 10
225.7713207941
 20
229.1427202482
 30
0.0
 40
4.000000000000028
  0
CIRCLE
  5
B6
330
1F
100
AcDbEntity
  8
0
  6
Continuous
 62
     7
370
    25
100
AcDbCircle
 10
125.7713207941
 20
49.1427202482
 30
0.0
 40
4.0
  0
CIRCLE
  5
B7
330
1F
100
AcDbEntity
  8
0
  6
Continuous
 62
     7
370
    25
100
AcDbCircle
 10
225.7713207941
 20
49.1427202482
 30
0.0
 40
4.0
  0
LINE
  5
B8
330
1F
100
AcDbEntity
  8
0
  6
Continuous
 62
     7
370
    25
100
AcDbLine
 10
171.271318585
 20
79.1427247668
 30
0.0
 11
171.271318585
 21
138.1753139639
 31
0.0
  0
LINE
  5
B9
330
1F
100
AcDbEntity
  8
0
  6
Continuous
 62
     7
370
    25
100
AcDbLine
 10
171.271318585
 20
146.833343103
 30
0.0
 11
171.271318585
 21
153.7233122135
 31
0.0
  0
LINE
  5
BA
330
1F
100
AcDbEntity
  8
0
  6
Continuous
 62
     7
370
    25
100
AcDbLine
 10
171.271318585
 20
162.3813413525
 30
0.0
 11
171.271318585
 21
199.1427202219
 31
0.0
  0
LINE
  5
BB
330
1F
100
AcDbEntity
  8
0
  6
Continuous
 62
     7
370
    25
100
AcDbLine
 10
250.7713232342
 20
29.1427128458
 30
0.0
 11
100.7713172737
 21
29.1427128458
 31
0.0
  0
ARC
  5
BC
330
1F
100
AcDbEntity
  8
0
  6
Continuous
 62
     7
370
    25
100
AcDbCircle
 10
195.5718655964
 20
149.1734273539
 30
0.0
 40
4.99945726521207
100
AcDbArc
 50
269.9938343145
 51
359.9934430337
  0
LINE
  5
BD
330
1F
100
AcDbEntity
  8
0
  6
Continuous
 62
     7
370
    25
100
AcDbLine
 10
200.5713228289
 20
151.172412231
 30
0.0
 11
200.5713228289
 21
149.1728552127
 31
0.0
  0
ARC
  5
BE
330
1F
100
AcDbEntity
  8
0
  6
Continuous
 62
     7
370
    25
100
AcDbCircle
 10
195.5718804195
 20
151.1718474648
 30
0.0
 40
4.999442441318507
100
AcDbArc
 50
0.0064724659
 51
90.0063355824
  0
LINE
  5
BF
330
1F
100
AcDbEntity
  8
0
  6
Continuous
 62
     7
370
    25
100
AcDbLine
 10
175.5713168684
 20
156.1712898756
 30
0.0
 11
195.5713275973
 21
156.1712898756
 31
0.0
  0
ARC
  5
C0
330
1F
100
AcDbEntity
  8
0
  6
Continuous
 62
     7
370
    25
100
AcDbCircle
 10
175.5707640462
 20
151.1718474648
 30
0.0
 40
4.999442441318507
100
AcDbArc
 50
89.9936644176
 51
179.9935275341
  0
LINE
  5
C1
330
1F
100
AcDbEntity
  8
0
  6
Continuous
 62
     7
370
    25
100
AcDbLine
 10
170.5713216368
 20
149.1728552127
 30
0.0
 11
170.5713216368
 21
151.172412231
 31
0.0
  0
ARC
  5
C2
330
1F
100
AcDbEntity
  8
0
  6
Continuous
 62
     7
370
    25
100
AcDbCircle
 10
175.5707788693
 20
149.1734273539
 30
0.0
 40
4.99945726521207
100
AcDbArc
 50
180.0065569663
 51
270.0061656855
  0
LINE
  5
C3
330
1F
100
AcDbEntity
  8
0
  6
Continuous
 62
     7
370
    25
100
AcDbLine
 10
195.5713275973
 20
144.1739701176
 30
0.0
 11
175.5713168684
 21
144.1739701176
 31
0.0
  0
LINE
  5
C4
330
1F
100
AcDbEntity
  8
0
  6
Continuous
 62
     7
370
    25
100
AcDbLine
 10
201.5713248555
 20
138.1753139639
 30
0.0
 11
169.5713196102
 21
138.1753139639
 31
0.0
  0
ARC
  5
C5
330
1F
100
AcDbEntity
  8
0
  6
Continuous
 62
     7
370
    25
100
AcDbCircle
 10
169.5707614095
 20
143.1747509941
 30
0.0
 40
4.999437061332097
100
AcDbArc
 50
180.006325422
 51
270.0063972298
  0
LINE
  5
C6
330
1F
100
AcDbEntity
  8
0
  6
Continuous
 62
     7
370
    25
100
AcDbLine
 10
164.5713243786
 20
143.1741990591
 30
0.0
 11
164.5713243786
 21
144.8403723979
 31
0.0
  0
LINE
  5
C7
330
1F
100
AcDbEntity
  8
0
  6
Continuous
 62
     7
370
    25
100
AcDbLine
 10
164.5713243786
 20
155.4229237581
 30
0.0
 11
164.5713243786
 21
157.1710683847
 31
0.0
  0
ARC
  5
C8
330
1F
100
AcDbEntity
  8
0
  6
Continuous
 62
     7
370
    25
100
AcDbCircle
 10
169.5707598598
 20
157.170514274
 30
0.0
 40
4.999435511881138
100
AcDbArc
 50
89.993585008
 51
179.993649642
  0
LINE
  5
C9
330
1F
100
AcDbEntity
  8
0
  6
Continuous
 62
     7
370
    25
100
AcDbLine
 10
169.5713196102
 20
162.1699497545
 30
0.0
 11
201.5713248555
 21
162.1699497545
 31
0.0
  0
ARC
  5
CA
330
1F
100
AcDbEntity
  8
0
  6
Continuous
 62
     7
370
    25
100
AcDbCircle
 10
201.571876128
 20
157.1705057942
 30
0.0
 40
4.999443990757804
100
AcDbArc
 50
0.0064475296
 51
90.0063178204
  0
LINE
  5
CB
330
1F
100
AcDbEntity
  8
0
  6
Continuous
 62
     7
370
    25
100
AcDbLine
 10
206.5713200871
 20
157.1710683847
 30
0.0
 11
206.5713200871
 21
155.4229237581
 31
0.0
  0
LINE
  5
CC
330
1F
100
AcDbEntity
  8
0
  6
Continuous
 62
     7
370
    25
100
AcDbLine
 10
206.5713200871
 20
144.8403723979
 30
0.0
 11
206.5713200871
 21
143.1741990591
 31
0.0
  0
ARC
  5
CD
330
1F
100
AcDbEntity
  8
0
  6
Continuous
 62
     7
370
    25
100
AcDbCircle
 10
201.5718745783
 20
143.1747594739
 30
0.0
 40
4.999445540200579
100
AcDbArc
 50
269.9936999417
 51
359.9935774065
  0
LINE
  5
CE
330
1F
100
AcDbEntity
  8
0
  6
Continuous
 62
     7
370
    25
100
AcDbLine
 10
169.5713196102
 20
162.3813413525
 30
0.0
 11
169.5713196102
 21
162.1699497545
 31
0.0
  0
LINE
  5
CF
330
1F
100
AcDbEntity
  8
0
  6
Continuous
 62
     7
370
    25
100
AcDbLine
 10
169.5713196102
 20
162.3813413525
 30
0.0
 11
201.5713248555
 21
162.3813413525
 31
0.0
  0
LINE
  5
D0
330
1F
100
AcDbEntity
  8
0
  6
Continuous
 62
     7
370
    25
100
AcDbLine
 10
201.5713248555
 20
162.3813413525
 30
0.0
 11
201.5713248555
 21
162.1699497545
 31
0.0
  0
LINE
  5
D1
330
1F
100
AcDbEntity
  8
0
  6
Continuous
 62
     7
370
    25
100
AcDbLine
 10
164.5713243786
 20
157.2175972605
 30
0.0
 11
164.5713243786
 21
157.1710683847
 31
0.0
  0
ARC
  5
D2
330
1F
100
AcDbEntity
  8
0
  6
Continuous
 62
     7
370
    25
100
AcDbCircle
 10
169.5707672713
 20
157.3818984592
 30
0.0
 40
4.999442923783663
100
AcDbArc
 50
89.9936699564
 51
179.9936073918
  0
ARC
  5
D3
330
1F
100
AcDbEntity
  8
0
  6
Continuous
 62
     7
370
    25
100
AcDbCircle
 10
201.5718687165
 20
157.3818899794
 30
0.0
 40
4.999451402692607
100
AcDbArc
 50
0.0064897799
 51
90.0062328719
  0
LINE
  5
D4
330
1F
100
AcDbEntity
  8
0
  6
Continuous
 62
     7
370
    25
100
AcDbLine
 10
206.5713200871
 20
157.2175972605
 30
0.0
 11
206.5713200871
 21
157.1710683847
 31
0.0
  0
ELLIPSE
  5
D5
330
1F
100
AcDbEntity
  8
0
  6
Continuous
 62
     7
370
    25
100
AcDbEllipse
 10
175.5713207941
 20
149.3687697462
 30
0.0
 11
0.0
 21
5.18195034173641
 31
0.0
210
0.0
220
0.0
230
1.0
 40
0.9648876717
 41
1.771131169118036
 42
2.08612437791143
  0
ARC
  5
D6
330
1F
100
AcDbEntity
  8
0
  6
Continuous
 62
     7
370
    25
100
AcDbCircle
 10
175.5708576456
 20
149.3850098029
 30
0.0
 40
4.999651833674498
100
AcDbArc
 50
191.4855074106
 51
270.0052626722
  0
LINE
  5
D7
330
1F
100
AcDbEntity
  8
0
  6
Continuous
 62
     7
370
    25
100
AcDbLine
 10
175.5713168684
 20
144.3853579903
 30
0.0
 11
175.5713168684
 21
144.1739701176
 31
0.0
  0
ARC
  5
D8
330
1F
100
AcDbEntity
  8
0
  6
Continuous
 62
     7
370
    25
100
AcDbCircle
 10
175.5661490131
 20
149.2149309653
 30
0.0
 40
4.994827380603216
100
AcDbArc
 50
179.9976336155
 51
188.4235055518
  0
ELLIPSE
  5
D9
330
1F
100
AcDbEntity
  8
0
  6
Continuous
 62
     7
370
    25
100
AcDbEllipse
 10
175.5713207941
 20
149.1883308872
 30
0.0
 11
5.0
 21
0.0
 31
0.0
210
0.0
220
0.0
230
1.0
 40
0.9631630318
 41
3.288530999217807
 42
3.656920704706337
  0
LINE
  5
DA
330
1F
100
AcDbEntity
  8
0
  6
Continuous
 62
     7
370
    25
100
AcDbLine
 10
195.5713275973
 20
144.3853579903
 30
0.0
 11
195.5713275973
 21
144.1739701176
 31
0.0
  0
ARC
  5
DB
330
1F
100
AcDbEntity
  8
0
  6
Continuous
 62
     7
370
    25
100
AcDbCircle
 10
195.5716578593
 20
149.385167617
 30
0.0
 40
4.999809637629889
100
AcDbArc
 50
269.9962153316
 51
348.5130145856
  0
ELLIPSE
  5
DC
330
1F
100
AcDbEntity
  8
0
  6
Continuous
 62
     7
370
    25
100
AcDbEllipse
 10
195.5713207941
 20
149.3687697462
 30
0.0
 11
0.0
 21
5.18195034173641
 31
0.0
210
0.0
220
0.0
230
1.0
 40
0.9648876717
 41
4.197060929268172
 42
4.512054138061541
  0
ELLIPSE
  5
DD
330
1F
100
AcDbEntity
  8
0
  6
Continuous
 62
     7
370
    25
100
AcDbEllipse
 10
195.5713207941
 20
149.1883308872
 30
0.0
 11
5.0
 21
-2.842170943040401E-14
 31
0.0
210
0.0
220
0.0
230
1.0
 40
0.9631630318
 41
5.767857256063077
 42
6.13624696155161
  0
ARC
  5
DE
330
1F
100
AcDbEntity
  8
0
  6
Continuous
 62
     7
370
    25
100
AcDbCircle
 10
195.5716172018
 20
149.2152901064
 30
0.0
 40
4.999705629392713
100
AcDbArc
 50
351.5806124535
 51
359.9982483792
  0
LINE
  5
DF
330
1F
100
AcDbEntity
  8
0
  6
Continuous
 62
     7
370
    25
100
AcDbLine
 10
195.5713275973
 20
144.3853579903
 30
0.0
 11
175.5713168684
 21
144.3853579903
 31
0.0
  0
LINE
  5
E0
330
1F
100
AcDbEntity
  8
0
  6
Continuous
 62
     7
370
    25
100
AcDbLine
 10
210.5713281933
 20
142.2600426221
 30
0.0
 11
206.5713200871
 21
142.2600426221
 31
0.0
  0
LINE
  5
E1
330
1F
100
AcDbEntity
  8
0
  6
Continuous
 62
     7
370
    25
100
AcDbLine
 10
210.5713281933
 20
158.2584657217
 30
0.0
 11
210.5713281933
 21
142.2600426221
 31
0.0
  0
LINE
  5
E2
330
1F
100
AcDbEntity
  8
0
  6
Continuous
 62
     7
370
    25
100
AcDbLine
 10
206.5713200871
 20
144.8403723979
 30
0.0
 11
206.5713200871
 21
155.4229237581
 31
0.0
  0
LINE
  5
E3
330
1F
100
AcDbEntity
  8
0
  6
Continuous
 62
     7
370
    25
100
AcDbLine
 10
206.5713200871
 20
141.6641600872
 30
0.0
 11
210.5713281933
 21
141.6641600872
 31
0.0
  0
LINE
  5
E4
330
1F
100
AcDbEntity
  8
0
  6
Continuous
 62
     7
370
    25
100
AcDbLine
 10
210.5713281933
 20
141.6641600872
 30
0.0
 11
210.5713281933
 21
142.2600426221
 31
0.0
  0
LINE
  5
E5
330
1F
100
AcDbEntity
  8
0
  6
Continuous
 62
     7
370
    25
100
AcDbLine
 10
206.5713200871
 20
141.6641600872
 30
0.0
 11
206.5713200871
 21
142.2600426221
 31
0.0
  0
LINE
  5
E6
330
1F
100
AcDbEntity
  8
0
  6
Continuous
 62
     7
370
    25
100
AcDbLine
 10
201.0213229958
 20
129.6427227998
 30
0.0
 11
216.0213235918
 21
129.6427227998
 31
0.0
  0
SPLINE
  5
E7
330
1F
100
AcDbEntity
  8
0
  6
Continuous
 62
     7
370
    25
100
AcDbSpline
210
0.0
220
0.0
230
1.0
 70
    24
 71
     3
 72
    13
 73
     9
 74
     0
 42
0.000000001
 43
0.00000001
 40
0.0
 40
0.0
 40
0.0
 40
0.0
 40
0.234878800355119
 40
0.4487009962011723
 40
0.6424053060596724
 40
0.8170530008238701
 40
0.9738958486769662
 40
1.0
 40
1.0
 40
1.0
 40
1.0
 10
201.0213229957871
 20
129.6427227998244
 30
0.0
 10
201.0213229957871
 20
129.9949257405696
 30
0.0
 10
201.0213229957871
 20
130.667757048199
 30
0.0
 10
201.0213229957871
 20
132.0928737719484
 30
0.0
 10
201.0213229957871
 20
133.7227970381439
 30
0.0
 10
201.0213229957871
 20
135.6137471591529
 30
0.0
 10
201.021322995787
 20
137.0756120189999
 30
0.0
 10
201.0213229957871
 20
138.0379945284189
 30
0.0
 10
201.0213229957871
 20
138.1753139639365
 30
0.0
  0
SPLINE
  5
E8
330
1F
100
AcDbEntity
  8
0
  6
Continuous
 62
     7
370
    25
100
AcDbSpline
210
0.0
220
0.0
230
1.0
 70
    24
 71
     3
 72
    12
 73
     8
 74
     0
 42
0.000000001
 43
0.00000001
 40
0.0
 40
0.0
 40
0.0
 40
0.0
 40
0.0998245351506551
 40
0.2922399035070828
 40
0.5056506569656012
 40
0.7412259196797626
 40
1.0
 40
1.0
 40
1.0
 40
1.0
 10
201.0213229957871
 20
162.3813413525092
 30
0.0
 10
201.0213229957871
 20
162.7859138030352
 30
0.0
 10
201.0213229957872
 20
163.9703141483503
 30
0.0
 10
201.021322995787
 20
165.5400832252646
 30
0.0
 10
201.021322995787
 20
167.199552615643
 30
0.0
 10
201.0213229957871
 20
168.6156560940351
 30
0.0
 10
201.0213229957871
 20
169.2898209035893
 30
0.0
 10
201.0213229957871
 20
169.6427219057548
 30
0.0
  0
LINE
  5
E9
330
1F
100
AcDbEntity
  8
0
  6
Continuous
 62
     7
370
    25
100
AcDbLine
 10
201.0213229958
 20
169.6427219058
 30
0.0
 11
216.0213235918
 21
169.6427219058
 31
0.0
  0
SPLINE
  5
EA
330
1F
100
AcDbEntity
  8
0
  6
Continuous
 62
     7
370
    25
100
AcDbSpline
210
0.0
220
0.0
230
1.0
 70
    24
 71
     3
 72
    27
 73
    23
 74
     0
 42
0.000000001
 43
0.00000001
 40
0.0
 40
0.0
 40
0.0
 40
0.0
 40
0.0751470086861138
 40
0.1435571776082708
 40
0.2055308399118349
 40
0.261407538088137
 40
0.3115877622384285
 40
0.3565640518584084
 40
0.3969636168089736
 40
0.4336000379236142
 40
0.4675186281881351
 40
0.4999999739613144
 40
0.5324813197344936
 40
0.5663999099990146
 40
0.6030364128255221
 40
0.6434359777760873
 40
0.6884122370218865
 40
0.7385924358083162
 40
0.7944691339846185
 40
0.8564428129086934
 40
0.9248529818308505
 40
1.0
 40
1.0
 40
1.0
 40
1.0
 10
216.0213235918335
 20
129.6427227998244
 30
0.0
 10
216.0213235918335
 20
129.9951770126107
 30
0.0
 10
216.0213235918335
 20
130.6684883380832
 30
0.0
 10
216.0213235918335
 20
132.0903536848045
 30
0.0
 10
216.0213235918335
 20
133.7309361174389
 30
0.0
 10
216.0213235918335
 20
135.5877388765883
 30
0.0
 10
216.0213235918335
 20
137.626254918252
 30
0.0
 10
216.0213235918335
 20
139.8207550794986
 30
0.0
 10
216.0213235918335
 20
142.1455291341218
 30
0.0
 10
216.0213235918336
 20
144.5764141546411
 30
0.0
 10
216.0213235918335
 20
147.0870774423339
 30
0.0
 10
216.0213235918335
 20
149.642718580412
 30
0.0
 10
216.0213235918335
 20
152.1983600051809
 30
0.0
 10
216.0213235918334
 20
154.7090243612769
 30
0.0
 10
216.0213235918336
 20
157.1399146652266
 30
0.0
 10
216.0213235918335
 20
159.4646893631604
 30
0.0
 10
216.0213235918335
 20
161.6591860597096
 30
0.0
 10
216.0213235918335
 20
163.6976980771086
 30
0.0
 10
216.0213235918336
 20
165.5545004639604
 30
0.0
 10
216.0213235918335
 20
167.1950886352091
 30
0.0
 10
216.0213235918335
 20
168.6169514714111
 30
0.0
 10
216.0213235918336
 20
169.2902659967557
 30
0.0
 10
216.0213235918335
 20
169.6427219057548
 30
0.0
  0
SPLINE
  5
EB
330
1F
100
AcDbEntity
  8
0
  6
Continuous
 62
     7
370
    25
100
AcDbSpline
210
0.0
220
0.0
230
1.0
 70
    24
 71
     3
 72
     9
 73
     5
 74
     0
 42
0.000000001
 43
0.00000001
 40
0.0
 40
0.0
 40
0.0
 40
0.0
 40
0.474170629219997
 40
1.0
 40
1.0
 40
1.0
 40
1.0
 10
211.5213219229035
 20
163.9106698775756
 30
0.0
 10
211.5213219229034
 20
164.5543048223786
 30
0.0
 10
211.5213219229034
 20
165.911695822875
 30
0.0
 10
211.5213219229035
 20
166.8705689628047
 30
0.0
 10
211.5213219229035
 20
167.3747726226318
 30
0.0
  0
LINE
  5
EC
330
1F
100
AcDbEntity
  8
0
  6
Continuous
 62
     7
370
    25
100
AcDbLine
 10
211.5213219229
 20
167.3747726226
 30
0.0
 11
210.5713281933
 21
167.9232545639
 31
0.0
  0
LINE
  5
ED
330
1F
100
AcDbEntity
  8
0
  6
Continuous
 62
     7
370
    25
100
AcDbLine
 10
210.5713281933
 20
168.6608657682
 30
0.0
 11
210.5713281933
 21
167.9232545639
 31
0.0
  0
LINE
  5
EE
330
1F
100
AcDbEntity
  8
0
  6
Continuous
 62
     7
370
    25
100
AcDbLine
 10
210.5713281933
 20
168.6608657682
 30
0.0
 11
209.293747336
 21
168.6608657682
 31
0.0
  0
LINE
  5
EF
330
1F
100
AcDbEntity
  8
0
  6
Continuous
 62
     7
370
    25
100
AcDbLine
 10
209.293747336
 20
168.6608657682
 30
0.0
 11
208.9101318423
 21
168.8823380018
 31
0.0
  0
LINE
  5
F0
330
1F
100
AcDbEntity
  8
0
  6
Continuous
 62
     7
370
    25
100
AcDbLine
 10
208.9101318423
 20
168.8823380018
 30
0.0
 11
208.1324998442
 21
168.8823380018
 31
0.0
  0
LINE
  5
F1
330
1F
100
AcDbEntity
  8
0
  6
Continuous
 62
     7
370
    25
100
AcDbLine
 10
208.1324998442
 20
168.8823380018
 30
0.0
 11
207.7488992516
 21
168.6608657682
 31
0.0
  0
LINE
  5
F2
330
1F
100
AcDbEntity
  8
0
  6
Continuous
 62
     7
370
    25
100
AcDbLine
 10
207.7488992516
 20
168.6608657682
 30
0.0
 11
206.4713183943
 21
168.6608657682
 31
0.0
  0
LINE
  5
F3
330
1F
100
AcDbEntity
  8
0
  6
Continuous
 62
     7
370
    25
100
AcDbLine
 10
206.4713183943
 20
167.9232545639
 30
0.0
 11
206.4713183943
 21
168.6608657682
 31
0.0
  0
LINE
  5
F4
330
1F
100
AcDbEntity
  8
0
  6
Continuous
 62
     7
370
    25
100
AcDbLine
 10
206.4713183943
 20
167.9232545639
 30
0.0
 11
205.5213246647
 21
167.3747726226
 31
0.0
  0
SPLINE
  5
F5
330
1F
100
AcDbEntity
  8
0
  6
Continuous
 62
     7
370
    25
100
AcDbSpline
210
0.0
220
0.0
230
1.0
 70
    24
 71
     3
 72
     9
 73
     5
 74
     0
 42
0.000000001
 43
0.00000001
 40
0.0
 40
0.0
 40
0.0
 40
0.0
 40
0.525829370780003
 40
1.0
 40
1.0
 40
1.0
 40
1.0
 10
205.5213246647171
 20
167.3747726226318
 30
0.0
 10
205.5213246647171
 20
166.8705689628047
 30
0.0
 10
205.5213246647171
 20
165.911695822875
 30
0.0
 10
205.5213246647171
 20
164.5543048223786
 30
0.0
 10
205.5213246647171
 20
163.9106698775756
 30
0.0
  0
LINE
  5
F6
330
1F
100
AcDbEntity
  8
0
  6
Continuous
 62
     7
370
    25
100
AcDbLine
 10
205.5213246647
 20
163.9106698776
 30
0.0
 11
206.4713183943
 21
163.3621879364
 31
0.0
  0
SPLINE
  5
F7
330
1F
100
AcDbEntity
  8
0
  6
Continuous
 62
     7
370
    25
100
AcDbSpline
210
0.0
220
0.0
230
1.0
 70
    24
 71
     3
 72
    10
 73
     6
 74
     0
 42
0.000000001
 43
0.00000001
 40
0.0
 40
0.0
 40
0.0
 40
0.0
 40
0.3525613581796904
 40
0.7063374575539116
 40
1.0
 40
1.0
 40
1.0
 40
1.0
 10
206.4713183943085
 20
135.9232567692268
 30
0.0
 10
206.4713183943086
 20
136.5167431622269
 30
0.0
 10
206.4713183943086
 20
137.7057607905029
 30
0.0
 10
206.4713183943085
 20
139.7528371826158
 30
0.0
 10
206.4713183943085
 20
141.3690004207444
 30
0.0
 10
206.4713183943085
 20
142.1020530605781
 30
0.0
  0
SPLINE
  5
F8
330
1F
100
AcDbEntity
  8
0
  6
Continuous
 62
     7
370
    25
100
AcDbSpline
210
0.0
220
0.0
230
1.0
 70
    24
 71
     3
 72
    10
 73
     6
 74
     0
 42
0.000000001
 43
0.00000001
 40
0.0
 40
0.0
 40
0.0
 40
0.0
 40
0.1504306619106899
 40
0.5759456000271332
 40
1.0
 40
1.0
 40
1.0
 40
1.0
 10
206.4713183943085
 20
158.4115937793719
 30
0.0
 10
206.4713183943085
 20
158.7203238692675
 30
0.0
 10
206.4713183943085
 20
159.902341781127
 30
0.0
 10
206.4713183943085
 20
161.5712910855205
 30
0.0
 10
206.4713183943085
 20
162.765906894474
 30
0.0
 10
206.4713183943085
 20
163.3621879363525
 30
0.0
  0
LINE
  5
F9
330
1F
100
AcDbEntity
  8
0
  6
Continuous
 62
     7
370
    25
100
AcDbLine
 10
206.4713183943
 20
135.9232567692
 30
0.0
 11
205.5213246647
 21
135.3747673774
 31
0.0
  0
SPLINE
  5
FA
330
1F
100
AcDbEntity
  8
0
  6
Continuous
 62
     7
370
    25
100
AcDbSpline
210
0.0
220
0.0
230
1.0
 70
    24
 71
     3
 72
     9
 73
     5
 74
     0
 42
0.000000001
 43
0.00000001
 40
0.0
 40
0.0
 40
0.0
 40
0.0
 40
0.4741706046030779
 40
1.0
 40
1.0
 40
1.0
 40
1.0
 10
205.5213246647171
 20
135.374767377423
 30
0.0
 10
205.5213246647172
 20
134.731133693439
 30
0.0
 10
205.5213246647171
 20
133.3737452814711
 30
0.0
 10
205.5213246647172
 20
132.4148745171921
 30
0.0
 10
205.5213246647171
 20
131.9106720829475
 30
0.0
  0
LINE
  5
FB
330
1F
100
AcDbEntity
  8
0
  6
Continuous
 62
     7
370
    25
100
AcDbLine
 10
205.5213246647
 20
131.9106720829
 30
0.0
 11
206.4713183943
 21
131.3621901417
 31
0.0
  0
LINE
  5
FC
330
1F
100
AcDbEntity
  8
0
  6
Continuous
 62
     7
370
    25
100
AcDbLine
 10
206.4713183943
 20
130.624575212
 30
0.0
 11
206.4713183943
 21
131.3621901417
 31
0.0
  0
LINE
  5
FD
330
1F
100
AcDbEntity
  8
0
  6
Continuous
 62
     7
370
    25
100
AcDbLine
 10
206.4713183943
 20
130.624575212
 30
0.0
 11
207.7488992516
 21
130.624575212
 31
0.0
  0
LINE
  5
FE
330
1F
100
AcDbEntity
  8
0
  6
Continuous
 62
     7
370
    25
100
AcDbLine
 10
207.7488992516
 20
130.624575212
 30
0.0
 11
208.1324998442
 21
130.4030992532
 31
0.0
  0
LINE
  5
FF
330
1F
100
AcDbEntity
  8
0
  6
Continuous
 62
     7
370
    25
100
AcDbLine
 10
208.1324998442
 20
130.4030992532
 30
0.0
 11
208.9101318423
 21
130.4030992532
 31
0.0
  0
LINE
  5
100
330
1F
100
AcDbEntity
  8
0
  6
Continuous
 62
     7
370
    25
100
AcDbLine
 10
208.9101318423
 20
130.4030992532
 30
0.0
 11
209.293747336
 21
130.624575212
 31
0.0
  0
LINE
  5
101
330
1F
100
AcDbEntity
  8
0
  6
Continuous
 62
     7
370
    25
100
AcDbLine
 10
209.293747336
 20
130.624575212
 30
0.0
 11
210.5713281933
 21
130.624575212
 31
0.0
  0
LINE
  5
102
330
1F
100
AcDbEntity
  8
0
  6
Continuous
 62
     7
370
    25
100
AcDbLine
 10
210.5713281933
 20
131.3621901417
 30
0.0
 11
210.5713281933
 21
130.624575212
 31
0.0
  0
LINE
  5
103
330
1F
100
AcDbEntity
  8
0
  6
Continuous
 62
     7
370
    25
100
AcDbLine
 10
210.5713281933
 20
131.3621901417
 30
0.0
 11
211.5213219229
 21
131.9106720829
 31
0.0
  0
SPLINE
  5
104
330
1F
100
AcDbEntity
  8
0
  6
Continuous
 62
     7
370
    25
100
AcDbSpline
210
0.0
220
0.0
230
1.0
 70
    24
 71
     3
 72
     9
 73
     5
 74
     0
 42
0.000000001
 43
0.00000001
 40
0.0
 40
0.0
 40
0.0
 40
0.0
 40
0.5258293953969221
 40
1.0
 40
1.0
 40
1.0
 40
1.0
 10
211.5213219229035
 20
131.9106720829475
 30
0.0
 10
211.5213219229034
 20
132.4148745171921
 30
0.0
 10
211.5213219229034
 20
133.3737452814711
 30
0.0
 10
211.5213219229036
 20
134.731133693439
 30
0.0
 10
211.5213219229035
 20
135.374767377423
 30
0.0
  0
LINE
  5
105
330
1F
100
AcDbEntity
  8
0
  6
Continuous
 62
     7
370
    25
100
AcDbLine
 10
211.5213219229
 20
135.3747673774
 30
0.0
 11
210.5713281933
 21
135.9232567692
 31
0.0
  0
SPLINE
  5
106
330
1F
100
AcDbEntity
  8
0
  6
Continuous
 62
     7
370
    25
100
AcDbSpline
210
0.0
220
0.0
230
1.0
 70
    24
 71
     3
 72
    10
 73
     6
 74
     0
 42
0.000000001
 43
0.00000001
 40
0.0
 40
0.0
 40
0.0
 40
0.0
 40
0.4248533440748576
 40
0.8511699780353695
 40
1.0
 40
1.0
 40
1.0
 40
1.0
 10
210.5713281933121
 20
163.3621879363525
 30
0.0
 10
210.5713281933121
 20
162.7658706510763
 30
0.0
 10
210.5713281933122
 20
161.5711822304972
 30
0.0
 10
210.5713281933121
 20
159.9057988358551
 30
0.0
 10
210.5713281933121
 20
158.7278090258997
 30
0.0
 10
210.5713281933121
 20
158.4229819918143
 30
0.0
  0
SPLINE
  5
107
330
1F
100
AcDbEntity
  8
0
  6
Continuous
 62
     7
370
    25
100
AcDbSpline
210
0.0
220
0.0
230
1.0
 70
    24
 71
     3
 72
    10
 73
     6
 74
     0
 42
0.000000001
 43
0.00000001
 40
0.0
 40
0.0
 40
0.0
 40
0.0
 40
0.2817118869313119
 40
0.6414735902796224
 40
1.0
 40
1.0
 40
1.0
 40
1.0
 10
210.5713281933121
 20
141.9808470154273
 30
0.0
 10
210.5713281933121
 20
141.2898887192905
 30
0.0
 10
210.5713281933121
 20
139.7165383584503
 30
0.0
 10
210.5713281933121
 20
137.7063740526433
 30
0.0
 10
210.5713281933121
 20
136.5169473484343
 30
0.0
 10
210.5713281933121
 20
135.9232567692268
 30
0.0
  0
LINE
  5
108
330
1F
100
AcDbEntity
  8
0
  6
Continuous
 62
     7
370
    25
100
AcDbLine
 10
210.5713281933
 20
163.3621879364
 30
0.0
 11
211.5213219229
 21
163.9106698776
 31
0.0
  0
LINE
  5
109
330
1F
100
AcDbEntity
  8
0
  6
Continuous
 62
     7
370
    25
100
AcDbLine
 10
209.293747336
 20
168.6608657682
 30
0.0
 11
210.5713281933
 21
167.9232545639
 31
0.0
  0
LINE
  5
10A
330
1F
100
AcDbEntity
  8
0
  6
Continuous
 62
     7
370
    25
100
AcDbLine
 10
207.7488992516
 20
130.624575212
 30
0.0
 11
206.4713183943
 21
131.3621901417
 31
0.0
  0
LINE
  5
10B
330
1F
100
AcDbEntity
  8
0
  6
Continuous
 62
     7
370
    25
100
AcDbLine
 10
210.5713281933
 20
131.3621901417
 30
0.0
 11
209.293747336
 21
130.624575212
 31
0.0
  0
LWPOLYLINE
  5
10C
330
1F
100
AcDbEntity
  8
0
  6
Continuous
 62
     7
370
    25
100
AcDbPolyline
 90
        4
 70
   128
 43
0.0
 10
208.5213158432
 20
162.178618505
 10
207.83075133
 20
162.5773176992
 10
207.1473542754
 20
162.9718818212
 10
206.4713183943
 20
163.3621879364
  0
LWPOLYLINE
  5
10D
330
1F
100
AcDbEntity
  8
0
  6
Continuous
 62
     7
370
    25
100
AcDbPolyline
 90
        4
 70
   128
 43
0.0
 10
210.5713281933
 20
163.3621879364
 10
209.8952923123
 20
162.9718818212
 10
209.2118803564
 20
162.5773176992
 10
208.5213158432
 20
162.178618505
  0
LWPOLYLINE
  5
10E
330
1F
100
AcDbEntity
  8
0
  6
Continuous
 62
     7
370
    25
100
AcDbPolyline
 90
        4
 70
   128
 43
0.0
 10
208.5213158432
 20
137.10681875
 10
209.2118803564
 20
136.708123281
 10
209.8952923123
 20
136.3135628844
 10
210.5713281933
 20
135.9232567692
  0
LWPOLYLINE
  5
10F
330
1F
100
AcDbEntity
  8
0
  6
Continuous
 62
     7
370
    25
100
AcDbPolyline
 90
        4
 70
   128
 43
0.0
 10
206.4713183943
 20
135.9232567692
 10
207.1473542754
 20
136.3135628844
 10
207.83075133
 20
136.708123281
 10
208.5213158432
 20
137.10681875
  0
LINE
  5
110
330
1F
100
AcDbEntity
  8
0
  6
Continuous
 62
     7
370
    25
100
AcDbLine
 10
206.4713183943
 20
167.9232545639
 30
0.0
 11
207.7488992516
 21
168.6608657682
 31
0.0
  0
SPLINE
  5
111
330
1F
100
AcDbEntity
  8
0
  6
Continuous
 62
     7
370
    25
100
AcDbSpline
210
0.0
220
0.0
230
1.0
 70
     8
 71
     3
 72
    12
 73
     8
 74
     0
 42
0.000000001
 43
0.00000001
 40
0.0
 40
0.0
 40
0.0
 40
0.0
 40
0.2991377089221657
 40
0.4681429749884423
 40
0.6379821907784525
 40
0.8628339232515941
 40
1.0
 40
1.0
 40
1.0
 40
1.0
 10
133.0213193002991
 20
175.4804343426692
 30
0.0
 10
133.2667828858742
 20
175.6221540722815
 30
0.0
 10
133.6509272106285
 20
175.843941877217
 30
0.0
 10
134.297514222745
 20
176.217242222097
 30
0.0
 10
134.8822386687855
 20
176.5548390904729
 30
0.0
 10
135.3728144839013
 20
176.8380641283798
 30
0.0
 10
135.6618138212689
 20
177.0049236743305
 30
0.0
 10
135.7713136974625
 20
177.0681456172931
 30
0.0
  0
SPLINE
  5
112
330
1F
100
AcDbEntity
  8
0
  6
Continuous
 62
     7
370
    25
100
AcDbSpline
210
0.0
220
0.0
230
1.0
 70
     8
 71
     3
 72
    12
 73
     8
 74
     0
 42
0.000000001
 43
0.00000001
 40
0.0
 40
0.0
 40
0.0
 40
0.0
 40
0.2991400488863993
 40
0.4681413687223525
 40
0.637980172841527
 40
0.8628313602997838
 40
1.0
 40
1.0
 40
1.0
 40
1.0
 10
135.7713136974625
 20
177.0681456172931
 30
0.0
 10
136.0167839032576
 20
176.9264280909766
 30
0.0
 10
136.4009342654349
 20
176.7046462299763
 30
0.0
 10
137.047510355767
 20
176.3313334232428
 30
0.0
 10
137.6322345967693
 20
175.9937420776632
 30
0.0
 10
138.122807669886
 20
175.7105123360728
 30
0.0
 10
138.4118176510472
 20
175.5436559262501
 30
0.0
 10
138.5213229957871
 20
175.4804343426692
 30
0.0
  0
SPLINE
  5
113
330
1F
100
AcDbEntity
  8
0
  6
Continuous
 62
     7
370
    25
100
AcDbSpline
210
0.0
220
0.0
230
1.0
 70
    24
 71
     3
 72
    13
 73
     9
 74
     0
 42
0.000000001
 43
0.00000001
 40
0.0
 40
0.0
 40
0.0
 40
0.0
 40
0.1677330983633458
 40
0.3769171346042844
 40
0.5370129181847332
 40
0.6969874209772153
 40
0.9691364460546942
 40
1.0
 40
1.0
 40
1.0
 40
1.0
 10
138.5213229957871
 20
172.3050080681312
 30
0.0
 10
138.5213229957871
 20
172.4603842687555
 30
0.0
 10
138.521322995787
 20
172.8095339171937
 30
0.0
 10
138.521322995787
 20
173.3916379856482
 30
0.0
 10
138.5213229957871
 20
174.0270212397865
 30
0.0
 10
138.521322995787
 20
174.7150329642057
 30
0.0
 10
138.5213229957872
 20
175.1772501145667
 30
0.0
 10
138.521322995787
 20
175.4524079524741
 30
0.0
 10
138.5213229957871
 20
175.4804343426692
 30
0.0
  0
SPLINE
  5
114
330
1F
100
AcDbEntity
  8
0
  6
Continuous
 62
     7
370
    25
100
AcDbSpline
210
0.0
220
0.0
230
1.0
 70
     8
 71
     3
 72
    12
 73
     8
 74
     0
 42
0.000000001
 43
0.00000001
 40
0.0
 40
0.0
 40
0.0
 40
0.0
 40
0.2991367177764518
 40
0.4681414238703809
 40
0.6379800769248825
 40
0.8628310643872005
 40
1.0
 40
1.0
 40
1.0
 40
1.0
 10
138.5213229957871
 20
172.3050080681312
 30
0.0
 10
138.2758593764604
 20
172.1632883421507
 30
0.0
 10
137.8917149988858
 20
171.9415005428989
 30
0.0
 10
137.245128252742
 20
171.568200169399
 30
0.0
 10
136.6604028443381
 20
171.230603404578
 30
0.0
 10
136.1698280795013
 20
170.947376160366
 30
0.0
 10
135.8808189331248
 20
170.7805161396124
 30
0.0
 10
135.7713136974625
 20
170.717293068217
 30
0.0
  0
SPLINE
  5
115
330
1F
100
AcDbEntity
  8
0
  6
Continuous
 62
     7
370
    25
100
AcDbSpline
210
0.0
220
0.0
230
1.0
 70
     8
 71
     3
 72
    12
 73
     8
 74
     0
 42
0.000000001
 43
0.00000001
 40
0.0
 40
0.0
 40
0.0
 40
0.0
 40
0.2991377757004508
 40
0.4681395429045271
 40
0.6379787966087528
 40
0.8628305792768803
 40
1.0
 40
1.0
 40
1.0
 40
1.0
 10
135.7713136974625
 20
170.717293068217
 30
0.0
 10
135.5258490765189
 20
170.8590112177926
 30
0.0
 10
135.1417060334723
 20
171.0807948745316
 30
0.0
 10
134.4951316943255
 20
171.4541050642996
 30
0.0
 10
133.9104078891216
 20
171.7916969989558
 30
0.0
 10
133.4198337699387
 20
172.0749250910162
 30
0.0
 10
133.1308245600327
 20
172.2417850283453
 30
0.0
 10
133.0213193002991
 20
172.3050080681312
 30
0.0
  0
SPLINE
  5
116
330
1F
100
AcDbEntity
  8
0
  6
Continuous
 62
     7
370
    25
100
AcDbSpline
210
0.0
220
0.0
230
1.0
 70
    24
 71
     3
 72
    13
 73
     9
 74
     0
 42
0.000000001
 43
0.00000001
 40
0.0
 40
0.0
 40
0.0
 40
0.0
 40
0.1677330983633458
 40
0.3769171346042844
 40
0.5370129181847332
 40
0.6969874209772153
 40
0.9691364460546942
 40
1.0
 40
1.0
 40
1.0
 40
1.0
 10
133.0213193002991
 20
172.3050080681312
 30
0.0
 10
133.0213193002991
 20
172.4603842687555
 30
0.0
 10
133.0213193002991
 20
172.8095339171937
 30
0.0
 10
133.0213193002991
 20
173.3916379856482
 30
0.0
 10
133.0213193002991
 20
174.0270212397865
 30
0.0
 10
133.0213193002991
 20
174.7150329642057
 30
0.0
 10
133.0213193002991
 20
175.1772501145667
 30
0.0
 10
133.0213193002991
 20
175.4524079524741
 30
0.0
 10
133.0213193002991
 20
175.4804343426692
 30
0.0
  0
CIRCLE
  5
117
330
1F
100
AcDbEntity
  8
0
  6
Continuous
 62
     7
370
    25
100
AcDbCircle
 10
135.7713207941
 20
173.8927202482
 30
0.0
 40
2.612500000000011
  0
SPLINE
  5
118
330
1F
100
AcDbEntity
  8
0
  6
Continuous
 62
     7
370
    25
100
AcDbSpline
210
0.0
220
0.0
230
1.0
 70
    24
 71
     3
 72
    12
 73
     8
 74
     0
 42
0.000000001
 43
0.00000001
 40
0.0
 40
0.0
 40
0.0
 40
0.0
 40
0.2991379705361404
 40
0.4681420805821143
 40
0.6379819362608319
 40
0.8628323473289738
 40
0.9999999999999999
 40
0.9999999999999999
 40
0.9999999999999999
 40
0.9999999999999999
 10
133.0213193002991
 20
102.8050087833869
 30
0.0
 10
133.0213193002991
 20
103.0884468933744
 30
0.0
 10
133.0213193002991
 20
103.5320191563271
 30
0.0
 10
133.0213193002991
 20
104.2786291318794
 30
0.0
 10
133.0213193002991
 20
104.9538127703353
 30
0.0
 10
133.0213193002991
 20
105.5202743850488
 30
0.0
 10
133.0213193002991
 20
105.8539881146385
 30
0.0
 10
133.0213193002991
 20
105.9804313326347
 30
0.0
  0
SPLINE
  5
119
330
1F
100
AcDbEntity
  8
0
  6
Continuous
 62
     7
370
    25
100
AcDbSpline
210
0.0
220
0.0
230
1.0
 70
     8
 71
     3
 72
    12
 73
     8
 74
     0
 42
0.000000001
 43
0.00000001
 40
0.0
 40
0.0
 40
0.0
 40
0.0
 40
0.2991374588838873
 40
0.4681425836848386
 40
0.6379816575124553
 40
0.8628332020402513
 40
1.0
 40
1.0
 40
1.0
 40
1.0
 10
133.0213193002991
 20
105.9804313326347
 30
0.0
 10
133.2667828765732
 20
106.1221510921876
 30
0.0
 10
133.6509271867716
 20
106.3439389439794
 30
0.0
 10
134.297514272183
 20
106.7172390529184
 30
0.0
 10
134.8822384530225
 20
107.0548367749938
 30
0.0
 10
135.372816170748
 20
107.3380586152478
 30
0.0
 10
135.6618139842192
 20
107.5049252062542
 30
0.0
 10
135.7713136974625
 20
107.5681500578391
 30
0.0
  0
SPLINE
  5
11A
330
1F
100
AcDbEntity
  8
0
  6
Continuous
 62
     7
370
    25
100
AcDbSpline
210
0.0
220
0.0
230
1.0
 70
     8
 71
     3
 72
    13
 73
     9
 74
     0
 42
0.000000001
 43
0.00000001
 40
0.0
 40
0.0
 40
0.0
 40
0.0
 40
0.1677347259034427
 40
0.3769169634109512
 40
0.537011700066738
 40
0.6969872968513764
 40
0.9691361258244161
 40
1.0
 40
1.0
 40
1.0
 40
1.0
 10
138.5213229957871
 20
105.9804313326347
 30
0.0
 10
138.386758943017
 20
106.0581184522455
 30
0.0
 10
138.0843798507854
 20
106.2326892995293
 30
0.0
 10
137.5802740863407
 20
106.5237554459157
 30
0.0
 10
137.0300126358026
 20
106.8414407318763
 30
0.0
 10
136.4341720187902
 20
107.1854429181712
 30
0.0
 10
136.0338762199545
 20
107.4165453034984
 30
0.0
 10
135.7955852313399
 20
107.5541355675149
 30
0.0
 10
135.7713136974625
 20
107.5681500578391
 30
0.0
  0
SPLINE
  5
11B
330
1F
100
AcDbEntity
  8
0
  6
Continuous
 62
     7
370
    25
100
AcDbSpline
210
0.0
220
0.0
230
1.0
 70
    24
 71
     3
 72
    12
 73
     8
 74
     0
 42
0.000000001
 43
0.00000001
 40
0.0
 40
0.0
 40
0.0
 40
0.0
 40
0.2991379705361404
 40
0.4681420805821143
 40
0.6379819362608319
 40
0.8628323473289738
 40
0.9999999999999999
 40
0.9999999999999999
 40
0.9999999999999999
 40
0.9999999999999999
 10
138.5213229957871
 20
105.9804313326347
 30
0.0
 10
138.5213229957871
 20
105.6969932226471
 30
0.0
 10
138.5213229957871
 20
105.2534209596944
 30
0.0
 10
138.521322995787
 20
104.5068109841422
 30
0.0
 10
138.5213229957871
 20
103.8316273456862
 30
0.0
 10
138.5213229957871
 20
103.2651657309728
 30
0.0
 10
138.5213229957871
 20
102.9314520013831
 30
0.0
 10
138.5213229957871
 20
102.8050087833869
 30
0.0
  0
SPLINE
  5
11C
330
1F
100
AcDbEntity
  8
0
  6
Continuous
 62
     7
370
    25
100
AcDbSpline
210
0.0
220
0.0
230
1.0
 70
     8
 71
     3
 72
    12
 73
     8
 74
     0
 42
0.000000001
 43
0.00000001
 40
0.0
 40
0.0
 40
0.0
 40
0.0
 40
0.2991365927597141
 40
0.4681412282223373
 40
0.6379798102970056
 40
0.8628307037884558
 40
1.0
 40
1.0
 40
1.0
 40
1.0
 10
138.5213229957871
 20
102.8050087833869
 30
0.0
 10
138.2758593811109
 20
102.6632890424365
 30
0.0
 10
137.891715010814
 20
102.4415012197572
 30
0.0
 10
137.2451282280233
 20
102.0682009642247
 30
0.0
 10
136.6604029522182
 20
101.7306037725651
 30
0.0
 10
136.1698272360892
 20
101.4473781271444
 30
0.0
 10
135.8808188516506
 20
101.2805145838921
 30
0.0
 10
135.7713136974625
 20
101.2172900581824
 30
0.0
  0
SPLINE
  5
11D
330
1F
100
AcDbEntity
  8
0
  6
Continuous
 62
     7
370
    25
100
AcDbSpline
210
0.0
220
0.0
230
1.0
 70
     8
 71
     3
 72
    13
 73
     9
 74
     0
 42
0.000000001
 43
0.00000001
 40
0.0
 40
0.0
 40
0.0
 40
0.0
 40
0.1677331347135015
 40
0.3769150240789185
 40
0.5370102265128042
 40
0.6969873087328697
 40
0.969136036029355
 40
1.0
 40
1.0
 40
1.0
 40
1.0
 10
135.7713136974625
 20
101.2172900581824
 30
0.0
 10
135.6367555465662
 20
101.2949809790201
 30
0.0
 10
135.3343884038325
 20
101.4695611259198
 30
0.0
 10
134.8302776414973
 20
101.7606131487763
 30
0.0
 10
134.2800163789732
 20
102.0782983554362
 30
0.0
 10
133.6841818920016
 20
102.4223131255488
 30
0.0
 10
133.2838809909211
 20
102.6534041466816
 30
0.0
 10
133.0455908222288
 20
102.7909942664339
 30
0.0
 10
133.0213193002991
 20
102.8050087833869
 30
0.0
  0
CIRCLE
  5
11E
330
1F
100
AcDbEntity
  8
0
  6
Continuous
 62
     7
370
    25
100
AcDbCircle
 10
135.7713207941
 20
104.3927202482
 30
0.0
 40
2.612499999999986
  0
SPLINE
  5
11F
330
1F
100
AcDbEntity
  8
0
  6
Continuous
 62
     7
370
    25
100
AcDbSpline
210
0.0
220
0.0
230
1.0
 70
     8
 71
     3
 72
    12
 73
     8
 74
     0
 42
0.000000001
 43
0.00000001
 40
0.0
 40
0.0
 40
0.0
 40
0.0
 40
0.2991372797250239
 40
0.4681438466786354
 40
0.6379820689311255
 40
0.8628316832491598
 40
1.0
 40
1.0
 40
1.0
 40
1.0
 10
208.522031098967
 20
136.8181460047233
 30
0.0
 10
208.767460570665
 20
136.6763708416896
 30
0.0
 10
209.1515527743336
 20
136.4544955533701
 30
0.0
 10
209.7980616768327
 20
136.0810593858137
 30
0.0
 10
210.3827018024716
 20
135.7433221304247
 30
0.0
 10
210.873206321358
 20
135.4599908629142
 30
0.0
 10
211.1621770721562
 20
135.2930699779357
 30
0.0
 10
211.2716678682617
 20
135.2298237824905
 30
0.0
  0
SPLINE
  5
120
330
1F
100
AcDbEntity
  8
0
  6
Continuous
 62
     7
370
    25
100
AcDbSpline
210
0.0
220
0.0
230
1.0
 70
     8
 71
     3
 72
    12
 73
     8
 74
     0
 42
0.000000001
 43
0.00000001
 40
0.0
 40
0.0
 40
0.0
 40
0.0
 40
0.2991377345664922
 40
0.4681414637486017
 40
0.637981186831708
 40
0.8628314207080439
 40
0.9999999999999999
 40
0.9999999999999999
 40
0.9999999999999999
 40
0.9999999999999999
 10
211.2716678682617
 20
135.2298237824905
 30
0.0
 10
211.2716079561351
 20
134.9463858714794
 30
0.0
 10
211.2715141954776
 20
134.5028141544747
 30
0.0
 10
211.2713397626024
 20
133.7562029741671
 30
0.0
 10
211.2711859856247
 20
133.081019391027
 30
0.0
 10
211.271076840888
 20
132.5145592301327
 30
0.0
 10
211.2709975550233
 20
132.1808397659184
 30
0.0
 10
211.2709675136856
 20
132.0543937826621
 30
0.0
  0
SPLINE
  5
121
330
1F
100
AcDbEntity
  8
0
  6
Continuous
 62
     7
370
    25
100
AcDbSpline
210
0.0
220
0.0
230
1.0
 70
     8
 71
     3
 72
    13
 73
     9
 74
     0
 42
0.000000001
 43
0.00000001
 40
0.0
 40
0.0
 40
0.0
 40
0.0
 40
0.1677332959107753
 40
0.3769150497347686
 40
0.5370137881008133
 40
0.6969862325307395
 40
0.9691363175685829
 40
1.0
 40
1.0
 40
1.0
 40
1.0
 10
208.5206154886536
 20
130.4672934556472
 30
0.0
 10
208.6551935948347
 20
130.5449527032979
 30
0.0
 10
208.9576053092711
 20
130.7194615211907
 30
0.0
 10
209.4617808745369
 20
131.0104005291292
 30
0.0
 10
210.0121136393939
 20
131.3279610674436
 30
0.0
 10
210.60802537018
 20
131.6718418012723
 30
0.0
 10
211.0083476988968
 20
131.9028692064142
 30
0.0
 10
211.2466908979207
 20
132.0403868277052
 30
0.0
 10
211.2709675136857
 20
132.0543937826621
 30
0.0
  0
SPLINE
  5
122
330
1F
100
AcDbEntity
  8
0
  6
Continuous
 62
     7
370
    25
100
AcDbSpline
210
0.0
220
0.0
230
1.0
 70
     8
 71
     3
 72
    12
 73
     8
 74
     0
 42
0.000000001
 43
0.00000001
 40
0.0
 40
0.0
 40
0.0
 40
0.0
 40
0.299139403568473
 40
0.4681419028408077
 40
0.6379832074921742
 40
0.8628321146490688
 40
0.9999999999999999
 40
0.9999999999999999
 40
0.9999999999999999
 40
0.9999999999999999
 10
208.5206154886536
 20
130.4672934556472
 30
0.0
 10
208.2751791834648
 20
130.609066022736
 30
0.0
 10
207.8910806074609
 20
130.83093475195
 30
0.0
 10
207.2445806406081
 20
131.2043885915115
 30
0.0
 10
206.6599307689067
 20
131.5421113919214
 30
0.0
 10
206.1694257497602
 20
131.8254492271449
 30
0.0
 10
205.8804547200012
 20
131.9923696554631
 30
0.0
 10
205.7709638181977
 20
132.05561567788
 30
0.0
  0
SPLINE
  5
123
330
1F
100
AcDbEntity
  8
0
  6
Continuous
 62
     7
370
    25
100
AcDbSpline
210
0.0
220
0.0
230
1.0
 70
     8
 71
     3
 72
    12
 73
     8
 74
     0
 42
0.000000001
 43
0.00000001
 40
0.0
 40
0.0
 40
0.0
 40
0.0
 40
0.29913774903532
 40
0.4681435269085585
 40
0.6379811694613285
 40
0.8628314144390434
 40
1.0
 40
1.0
 40
1.0
 40
1.0
 10
205.7709638181977
 20
132.05561567788
 30
0.0
 10
205.7710339147423
 20
132.3390535353384
 30
0.0
 10
205.7711436141828
 20
132.7826271019573
 30
0.0
 10
205.7712875262533
 20
133.5292392672747
 30
0.0
 10
205.7714434699546
 20
134.2044222564932
 30
0.0
 10
205.7715724361192
 20
134.7708802350012
 30
0.0
 10
205.771649771597
 20
135.1045996959699
 30
0.0
 10
205.771679073935
 20
135.2310456777084
 30
0.0
  0
SPLINE
  5
124
330
1F
100
AcDbEntity
  8
0
  6
Continuous
 62
     7
370
    25
100
AcDbSpline
210
0.0
220
0.0
230
1.0
 70
     8
 71
     3
 72
    13
 73
     9
 74
     0
 42
0.000000001
 43
0.00000001
 40
0.0
 40
0.0
 40
0.0
 40
0.0
 40
0.1677333109732533
 40
0.3769150835818029
 40
0.5370102126553308
 40
0.6969862053200528
 40
0.9691363147970191
 40
1.0
 40
1.0
 40
1.0
 40
1.0
 10
205.771679073935
 20
135.2310456777084
 30
0.0
 10
205.9062570263586
 20
135.308705183967
 30
0.0
 10
206.2086683952853
 20
135.4832145829801
 30
0.0
 10
206.7128433847255
 20
135.7741468741733
 30
0.0
 10
207.2631667698184
 20
136.0917217930418
 30
0.0
 10
207.8590892988839
 20
136.4355869594606
 30
0.0
 10
208.2594111957926
 20
136.6666215663062
 30
0.0
 10
208.4977544750317
 20
136.8041390625075
 30
0.0
 10
208.522031098967
 20
136.8181460047232
 30
0.0
  0
CIRCLE
  5
125
330
1F
100
AcDbEntity
  8
0
  6
Continuous
 62
     7
370
    25
100
AcDbCircle
 10
208.5213207941
 20
133.6427202482
 30
0.0
 40
2.612500000000006
  0
SPLINE
  5
126
330
1F
100
AcDbEntity
  8
0
  6
Continuous
 62
     7
370
    25
100
AcDbSpline
210
0.0
220
0.0
230
1.0
 70
     8
 71
     3
 72
    12
 73
     8
 74
     0
 42
0.000000001
 43
0.00000001
 40
0.0
 40
0.0
 40
0.0
 40
0.0
 40
0.2991376985154146
 40
0.4681430270303917
 40
0.6379812446634238
 40
0.8628336608080585
 40
1.0
 40
1.0
 40
1.0
 40
1.0
 10
208.4297780100159
 20
168.8168287718761
 30
0.0
 10
208.6792241209655
 20
168.6822432594421
 30
0.0
 10
209.069601054533
 20
168.4716202938381
 30
0.0
 10
209.7266807576921
 20
168.1171139407807
 30
0.0
 10
210.3208927790581
 20
167.7965126172612
 30
0.0
 10
210.8194306938272
 20
167.5275525840693
 30
0.0
 10
211.1131233283965
 20
167.3690910157243
 30
0.0
 10
211.2244013849549
 20
167.3090510511863
 30
0.0
  0
SPLINE
  5
127
330
1F
100
AcDbEntity
  8
0
  6
Continuous
 62
     7
370
    25
100
AcDbSpline
210
0.0
220
0.0
230
1.0
 70
     8
 71
     3
 72
    12
 73
     8
 74
     0
 42
0.000000001
 43
0.00000001
 40
0.0
 40
0.0
 40
0.0
 40
0.0
 40
0.2991385206990015
 40
0.4681422785809821
 40
0.6379817892054178
 40
0.8628319769165415
 40
1.0
 40
1.0
 40
1.0
 40
1.0
 10
211.2244013849549
 20
167.3090510511863
 30
0.0
 10
211.2325762813652
 20
167.0257301631169
 30
0.0
 10
211.2453697344575
 20
166.5823419769333
 30
0.0
 10
211.2668916003107
 20
165.8360409512902
 30
0.0
 10
211.2863480409775
 20
165.1611385294795
 30
0.0
 10
211.302672707848
 20
164.5949144405444
 30
0.0
 10
211.3123046097219
 20
164.261335838083
 30
0.0
 10
211.3159541193299
 20
164.1349435294139
 30
0.0
  0
SPLINE
  5
128
330
1F
100
AcDbEntity
  8
0
  6
Continuous
 62
     7
370
    25
100
AcDbSpline
210
0.0
220
0.0
230
1.0
 70
     8
 71
     3
 72
    13
 73
     9
 74
     0
 42
0.000000001
 43
0.00000001
 40
0.0
 40
0.0
 40
0.0
 40
0.0
 40
0.16773120339722
 40
0.3769168493344561
 40
0.5370113471766712
 40
0.6969850505550509
 40
0.9691351835525047
 40
1.0
 40
1.0
 40
1.0
 40
1.0
 10
208.6128685776047
 20
162.4686137283313
 30
0.0
 10
208.745130024397
 20
162.5501493359366
 30
0.0
 10
209.0423410787724
 20
162.7333719188832
 30
0.0
 10
209.5378618016707
 20
163.0388243015599
 30
0.0
 10
210.0787251421529
 20
163.3722548988413
 30
0.0
 10
210.6644003950652
 20
163.7332926961666
 30
0.0
 10
211.0578400747806
 20
163.9758456327228
 30
0.0
 10
211.2920933064823
 20
164.1202360572033
 30
0.0
 10
211.3159541193299
 20
164.1349435294139
 30
0.0
  0
SPLINE
  5
129
330
1F
100
AcDbEntity
  8
0
  6
Continuous
 62
     7
370
    25
100
AcDbSpline
210
0.0
220
0.0
230
1.0
 70
     8
 71
     3
 72
    12
 73
     8
 74
     0
 42
0.000000001
 43
0.00000001
 40
0.0
 40
0.0
 40
0.0
 40
0.0
 40
0.2991395416999149
 40
0.4681407951818001
 40
0.6379822051141929
 40
0.8628311088015783
 40
0.9999999999999999
 40
0.9999999999999999
 40
0.9999999999999999
 40
0.9999999999999999
 10
208.6128685776047
 20
162.4686137283313
 30
0.0
 10
208.3634155097988
 20
162.6031950425593
 30
0.0
 10
207.9730319554898
 20
162.8138091362405
 30
0.0
 10
207.3159617653611
 20
163.168333750125
 30
0.0
 10
206.7217402534146
 20
163.4889161095304
 30
0.0
 10
206.2232161435773
 20
163.7578967045528
 30
0.0
 10
205.9295142368673
 20
163.9163524242095
 30
0.0
 10
205.8182303015045
 20
163.9763914490211
 30
0.0
  0
SPLINE
  5
12A
330
1F
100
AcDbEntity
  8
0
  6
Continuous
 62
     7
370
    25
100
AcDbSpline
210
0.0
220
0.0
230
1.0
 70
     8
 71
     3
 72
    12
 73
     8
 74
     0
 42
0.000000001
 43
0.00000001
 40
0.0
 40
0.0
 40
0.0
 40
0.0
 40
0.2991375722126131
 40
0.4681413515516548
 40
0.6379810041539324
 40
0.8628312204124936
 40
0.9999999999999999
 40
0.9999999999999999
 40
0.9999999999999999
 40
0.9999999999999999
 10
205.8182303015045
 20
163.9763914490211
 30
0.0
 10
205.8100611374751
 20
164.2597110508636
 30
0.0
 10
205.7972766401566
 20
164.7030977519945
 30
0.0
 10
205.775759290109
 20
165.4493980967647
 30
0.0
 10
205.7562780474255
 20
166.1243000801173
 30
0.0
 10
205.7399531125706
 20
166.6905243530294
 30
0.0
 10
205.7303362802628
 20
167.0241053368445
 30
0.0
 10
205.7266924682907
 20
167.1504989707934
 30
0.0
  0
SPLINE
  5
12B
330
1F
100
AcDbEntity
  8
0
  6
Continuous
 62
     7
370
    25
100
AcDbSpline
210
0.0
220
0.0
230
1.0
 70
     8
 71
     3
 72
    13
 73
     9
 74
     0
 42
0.000000001
 43
0.00000001
 40
0.0
 40
0.0
 40
0.0
 40
0.0
 40
0.1677340060326684
 40
0.3769163063988801
 40
0.5370142983279041
 40
0.696987934458561
 40
0.969137953052983
 40
0.9999999999999999
 40
0.9999999999999999
 40
0.9999999999999999
 40
0.9999999999999999
 10
205.7266924682907
 20
167.1504989707934
 30
0.0
 10
205.8589600651996
 20
167.2320334625061
 30
0.0
 10
206.1561795453893
 20
167.4152502125698
 30
0.0
 10
206.651687559997
 20
167.7207188757308
 30
0.0
 10
207.1925636228209
 20
168.0541346991956
 30
0.0
 10
207.7782323023375
 20
168.4151820039591
 30
0.0
 10
208.1717006194285
 20
168.6577183138032
 30
0.0
 10
208.4059223223589
 20
168.8021212092256
 30
0.0
 10
208.4297780100159
 20
168.8168287718761
 30
0.0
  0
CIRCLE
  5
12C
330
1F
100
AcDbEntity
  8
0
  6
Continuous
 62
     7
370
    25
100
AcDbCircle
 10
208.5213207941
 20
165.6427202482
 30
0.0
 40
2.612500000000016
  0
SPLINE
  5
12D
330
1F
100
AcDbEntity
  8
0
  6
Continuous
 62
     7
370
    25
100
AcDbSpline
210
0.0
220
0.0
230
1.0
 70
     8
 71
     3
 72
    12
 73
     8
 74
     0
 42
0.000000001
 43
0.00000001
 40
0.0
 40
0.0
 40
0.0
 40
0.0
 40
0.2991379015526815
 40
0.4681423008183351
 40
0.6379817506751565
 40
0.8628334133114786
 40
0.9999999999999999
 40
0.9999999999999999
 40
0.9999999999999999
 40
0.9999999999999999
 10
198.871323854094
 20
152.4085753107535
 30
0.0
 10
198.6536681500346
 20
152.1645528149153
 30
0.0
 10
198.3130431688614
 20
151.7826645551522
 30
0.0
 10
198.1186982917163
 20
151.1398668335214
 30
0.0
 10
198.2031552844252
 20
150.5585754872782
 30
0.0
 10
198.502779727744
 20
150.0708798299563
 30
0.0
 10
198.7700548727297
 20
149.7835710343913
 30
0.0
 10
198.871323854094
 20
149.6747114205825
 30
0.0
  0
SPLINE
  5
12E
330
1F
100
AcDbEntity
  8
0
  6
Continuous
 62
     7
370
    25
100
AcDbSpline
210
0.0
220
0.0
230
1.0
 70
     8
 71
     3
 72
    12
 73
     8
 74
     0
 42
0.000000001
 43
0.00000001
 40
0.0
 40
0.0
 40
0.0
 40
0.0
 40
0.2991390252958211
 40
0.4681435665016869
 40
0.6379821880411701
 40
0.8628320988285092
 40
0.9999999999999999
 40
0.9999999999999999
 40
0.9999999999999999
 40
0.9999999999999999
 10
198.871323854094
 20
149.6747114205825
 30
0.0
 10
198.6536682244849
 20
149.4278311446571
 30
0.0
 10
198.3130437184928
 20
149.0414709472328
 30
0.0
 10
198.1186985673533
 20
148.3911554118563
 30
0.0
 10
198.2031542531981
 20
147.8030559086933
 30
0.0
 10
198.5027836316174
 20
147.3096673618752
 30
0.0
 10
198.7700551529178
 20
147.0189913558773
 30
0.0
 10
198.871323854094
 20
146.9088547373283
 30
0.0
  0
SPLINE
  5
12F
330
1F
100
AcDbEntity
  8
0
  6
Continuous
 62
     7
370
    25
100
AcDbSpline
210
0.0
220
0.0
230
1.0
 70
     8
 71
     3
 72
     9
 73
     5
 74
     0
 42
0.000000001
 43
0.00000001
 40
0.0
 40
0.0
 40
0.0
 40
0.0
 40
0.4450164923842276
 40
1.0
 40
1.0
 40
1.0
 40
1.0
 10
198.871323854094
 20
146.8768693948257
 30
0.0
 10
198.7451675719924
 20
146.8784261772265
 30
0.0
 10
198.461680815298
 20
146.8819244349932
 30
0.0
 10
198.3003601775596
 20
146.8861433961275
 30
0.0
 10
198.2108298841767
 20
146.8884848499763
 30
0.0
  0
SPLINE
  5
130
330
1F
100
AcDbEntity
  8
0
  6
Continuous
 62
     7
370
    25
100
AcDbSpline
210
0.0
220
0.0
230
1.0
 70
     8
 71
     3
 72
    11
 73
     7
 74
     0
 42
0.000000001
 43
0.00000001
 40
0.0
 40
0.0
 40
0.0
 40
0.0
 40
0.0860973952335587
 40
0.4018731762560331
 40
0.9390745811512943
 40
1.0
 40
1.0
 40
1.0
 40
1.0
 10
198.172876626616
 20
146.8926348233687
 30
0.0
 10
198.1664515025385
 20
146.8931517053088
 30
0.0
 10
198.1364612221844
 20
146.8955643333146
 30
0.0
 10
198.3239726914347
 20
146.9011549311764
 30
0.0
 10
198.6184353337971
 20
146.9058022520248
 30
0.0
 10
198.8479458302812
 20
146.9085725534078
 30
0.0
 10
198.871323854094
 20
146.9088547373283
 30
0.0
  0
SPLINE
  5
131
330
1F
100
AcDbEntity
  8
0
  6
Continuous
 62
     7
370
    25
100
AcDbSpline
210
0.0
220
0.0
230
1.0
 70
     8
 71
     3
 72
    11
 73
     7
 74
     0
 42
0.000000001
 43
0.00000001
 40
0.0
 40
0.0
 40
0.0
 40
0.0
 40
0.0572644978187022
 40
0.3830052508353591
 40
0.9371556480040492
 40
0.9999999999999999
 40
0.9999999999999999
 40
0.9999999999999999
 40
0.9999999999999999
 10
198.1678251329712
 20
152.3929067397582
 30
0.0
 10
198.1640057061136
 20
152.3932396493395
 30
0.0
 10
198.1384600260261
 20
152.3954662665728
 30
0.0
 10
198.3270564158709
 20
152.4008760471403
 30
0.0
 10
198.6183437299077
 20
152.4055226707451
 30
0.0
 10
198.8479383619309
 20
152.4082931245968
 30
0.0
 10
198.871323854094
 20
152.4085753107535
 30
0.0
  0
LINE
  5
132
330
1F
100
AcDbEntity
  8
0
  6
Continuous
 62
     7
370
    25
100
AcDbLine
 10
197.9213152233
 20
147.0303513551
 30
0.0
 11
197.9213152233
 21
152.2552200103
 31
0.0
  0
LINE
  5
133
330
1F
100
AcDbEntity
  8
0
  6
Continuous
 62
     7
370
    25
100
AcDbLine
 10
199.9152545039
 20
146.9088547373
 30
0.0
 11
198.8713238541
 21
146.9088547373
 31
0.0
  0
LINE
  5
134
330
1F
100
AcDbEntity
  8
0
  6
Continuous
 62
     7
370
    25
100
AcDbLine
 10
200.4713211361
 20
149.6747114206
 30
0.0
 11
198.8713238541
 21
149.6747114206
 31
0.0
  0
LINE
  5
135
330
1F
100
AcDbEntity
  8
0
  6
Continuous
 62
     7
370
    25
100
AcDbLine
 10
200.4160378281
 20
152.4085753108
 30
0.0
 11
198.8713238541
 21
152.4085753108
 31
0.0
  0
LINE
  5
136
330
1F
100
AcDbEntity
  8
0
  6
Continuous
 62
     7
370
    25
100
AcDbLine
 10
199.8968515698
 20
146.8768693948
 30
0.0
 11
198.8713238541
 21
146.8768693948
 31
0.0
  0
LINE
  5
137
330
1F
100
AcDbEntity
  8
0
  6
Continuous
 62
     7
370
    25
100
AcDbLine
 10
170.6713233296
 20
152.1671764994
 30
0.0
 11
170.6713233296
 21
148.2299991394
 31
0.0
  0
LINE
  5
138
330
1F
100
AcDbEntity
  8
0
  6
Continuous
 62
     7
370
    25
100
AcDbLine
 10
200.4713211361
 20
148.2299991394
 30
0.0
 11
200.4713211361
 21
152.1671764994
 31
0.0
  0
CIRCLE
  5
139
330
1F
100
AcDbEntity
  8
0
  6
Continuous
 62
     7
370
    25
100
AcDbCircle
 10
208.5213207941
 20
165.6427202482
 30
0.0
 40
1.219499999999978
  0
CIRCLE
  5
13A
330
1F
100
AcDbEntity
  8
0
  6
Continuous
 62
     7
370
    25
100
AcDbCircle
 10
208.5213207941
 20
165.6427202482
 30
0.0
 40
1.499999999999895
  0
CIRCLE
  5
13B
330
1F
100
AcDbEntity
  8
0
  6
Continuous
 62
     7
370
    25
100
AcDbCircle
 10
135.7713207941
 20
104.3927202482
 30
0.0
 40
1.219500000000001
  0
CIRCLE
  5
13C
330
1F
100
AcDbEntity
  8
0
  6
Continuous
 62
     7
370
    25
100
AcDbCircle
 10
135.7713207941
 20
104.3927202482
 30
0.0
 40
1.499999999999884
  0
CIRCLE
  5
13D
330
1F
100
AcDbEntity
  8
0
  6
Continuous
 62
     7
370
    25
100
AcDbCircle
 10
135.7713207941
 20
173.8927202482
 30
0.0
 40
1.219499999999972
  0
CIRCLE
  5
13E
330
1F
100
AcDbEntity
  8
0
  6
Continuous
 62
     7
370
    25
100
AcDbCircle
 10
135.7713207941
 20
173.8927202482
 30
0.0
 40
1.49999999999987
  0
LINE
  5
13F
330
1F
100
AcDbEntity
  8
0
  6
Continuous
 62
     7
370
    25
100
AcDbLine
 10
218.7213245932
 20
148.6182935977
 30
0.0
 11
218.7213245932
 21
146.8927167798
 31
0.0
  0
LINE
  5
140
330
1F
100
AcDbEntity
  8
0
  6
Continuous
 62
     7
370
    25
100
AcDbLine
 10
218.7213245932
 20
152.3927204752
 30
0.0
 11
218.7213245932
 21
148.6182935977
 31
0.0
  0
LINE
  5
141
330
1F
100
AcDbEntity
  8
0
  6
Continuous
 62
     7
370
    25
100
AcDbLine
 10
219.0213147703
 20
148.7300448561
 30
0.0
 11
219.0213147703
 21
147.1927218581
 31
0.0
  0
LINE
  5
142
330
1F
100
AcDbEntity
  8
0
  6
Continuous
 62
     7
370
    25
100
AcDbLine
 10
219.0213147703
 20
152.0927228475
 30
0.0
 11
219.0213147703
 21
148.7300448561
 31
0.0
  0
LINE
  5
143
330
1F
100
AcDbEntity
  8
0
  6
Continuous
 62
     7
370
    25
100
AcDbLine
 10
196.3018272225
 20
149.0839399839
 30
0.0
 11
196.3018272225
 21
148.1427230382
 31
0.0
  0
LINE
  5
144
330
1F
100
AcDbEntity
  8
0
  6
Continuous
 62
     7
370
    25
100
AcDbLine
 10
196.3018272225
 20
151.1427216673
 30
0.0
 11
196.3018272225
 21
149.0839399839
 31
0.0
  0
LINE
  5
145
330
1F
100
AcDbEntity
  8
0
  6
Continuous
 62
     7
370
    25
100
AcDbLine
 10
196.0213277642
 20
149.1884343768
 30
0.0
 11
196.0213277642
 21
148.4232224966
 31
0.0
  0
LINE
  5
146
330
1F
100
AcDbEntity
  8
0
  6
Continuous
 62
     7
370
    25
100
AcDbLine
 10
196.0213277642
 20
150.862222209
 30
0.0
 11
196.0213277642
 21
149.1884343768
 31
0.0
  0
CIRCLE
  5
147
330
1F
100
AcDbEntity
  8
0
  6
Continuous
 62
     7
370
    25
100
AcDbCircle
 10
208.5213207941
 20
133.6427202482
 30
0.0
 40
1.219499999999997
  0
CIRCLE
  5
148
330
1F
100
AcDbEntity
  8
0
  6
Continuous
 62
     7
370
    25
100
AcDbCircle
 10
208.5213207941
 20
133.6427202482
 30
0.0
 40
1.499999999999887
  0
LINE
  5
149
330
1F
100
AcDbEntity
  8
0
  6
Continuous
 62
     7
370
    25
100
AcDbLine
 10
213.5713193718
 20
149.3656538868
 30
0.0
 11
213.5713193718
 21
147.8283234382
 31
0.0
  0
LINE
  5
14A
330
1F
100
AcDbEntity
  8
0
  6
Continuous
 62
     7
370
    25
100
AcDbLine
 10
213.5713193718
 20
152.7283244277
 30
0.0
 11
213.5713193718
 21
149.3656538868
 31
0.0
  0
LINE
  5
14B
330
1F
100
AcDbEntity
  8
0
  6
Continuous
 62
     7
370
    25
100
AcDbLine
 10
213.2713142935
 20
149.2538951779
 30
0.0
 11
213.2713142935
 21
147.5283258105
 31
0.0
  0
LINE
  5
14C
330
1F
100
AcDbEntity
  8
0
  6
Continuous
 62
     7
370
    25
100
AcDbLine
 10
213.2713142935
 20
153.028329506
 30
0.0
 11
213.2713142935
 21
149.2538951779
 31
0.0
  0
LINE
  5
14D
330
1F
100
AcDbEntity
  8
0
  6
Continuous
 62
     7
370
    25
100
AcDbLine
 10
157.4713234011
 20
147.5284673715
 30
0.0
 11
157.4713234011
 21
153.028329506
 31
0.0
  0
LINE
  5
14E
330
1F
100
AcDbEntity
  8
0
  6
Continuous
 62
     7
370
    25
100
AcDbLine
 10
157.1713183228
 20
147.8284500981
 30
0.0
 11
157.1713183228
 21
152.7283244277
 31
0.0
  0
LINE
  5
14F
330
1F
100
AcDbEntity
  8
0
  6
Continuous
 62
     7
370
    25
100
AcDbLine
 10
149.0713153187
 20
114.2300494457
 30
0.0
 11
149.0713153187
 21
112.692718997
 31
0.0
  0
LINE
  5
150
330
1F
100
AcDbEntity
  8
0
  6
Continuous
 62
     7
370
    25
100
AcDbLine
 10
149.0713153187
 20
117.5927199865
 30
0.0
 11
149.0713153187
 21
114.2300494457
 31
0.0
  0
LINE
  5
151
330
1F
100
AcDbEntity
  8
0
  6
Continuous
 62
     7
370
    25
100
AcDbLine
 10
148.7713251416
 20
114.1182907367
 30
0.0
 11
148.7713251416
 21
112.3927213693
 31
0.0
  0
LINE
  5
152
330
1F
100
AcDbEntity
  8
0
  6
Continuous
 62
     7
370
    25
100
AcDbLine
 10
148.7713251416
 20
117.8927176142
 30
0.0
 11
148.7713251416
 21
114.1182907367
 31
0.0
  0
LINE
  5
153
330
1F
100
AcDbEntity
  8
0
  6
Continuous
 62
     7
370
    25
100
AcDbLine
 10
149.0713153187
 20
162.2300461376
 30
0.0
 11
149.0713153187
 21
160.6927194143
 31
0.0
  0
LINE
  5
154
330
1F
100
AcDbEntity
  8
0
  6
Continuous
 62
     7
370
    25
100
AcDbLine
 10
149.0713153187
 20
165.5927204037
 30
0.0
 11
149.0713153187
 21
162.2300461376
 31
0.0
  0
LINE
  5
155
330
1F
100
AcDbEntity
  8
0
  6
Continuous
 62
     7
370
    25
100
AcDbLine
 10
148.7713251416
 20
162.118291154
 30
0.0
 11
148.7713251416
 21
160.3927217865
 31
0.0
  0
LINE
  5
156
330
1F
100
AcDbEntity
  8
0
  6
Continuous
 62
     7
370
    25
100
AcDbLine
 10
148.7713251416
 20
165.8927217567
 30
0.0
 11
148.7713251416
 21
162.118291154
 31
0.0
  0
LINE
  5
157
330
1F
100
AcDbEntity
  8
0
  6
Continuous
 62
     7
370
    25
100
AcDbLine
 10
160.1713244025
 20
142.2600426221
 30
0.0
 11
160.1713244025
 21
158.2584657217
 31
0.0
  0
LINE
  5
158
330
1F
100
AcDbEntity
  8
0
  6
Continuous
 62
     7
370
    25
100
AcDbLine
 10
164.5713243786
 20
142.2600426221
 30
0.0
 11
160.1713244025
 21
142.2600426221
 31
0.0
  0
LINE
  5
159
330
1F
100
AcDbEntity
  8
0
  6
Continuous
 62
     7
370
    25
100
AcDbLine
 10
164.5713243786
 20
155.4229237581
 30
0.0
 11
164.5713243786
 21
144.8403723979
 31
0.0
  0
LINE
  5
15A
330
1F
100
AcDbEntity
  8
0
  6
Continuous
 62
     7
370
    25
100
AcDbLine
 10
160.1713244025
 20
141.6641600872
 30
0.0
 11
164.5713243786
 21
141.6641600872
 31
0.0
  0
LINE
  5
15B
330
1F
100
AcDbEntity
  8
0
  6
Continuous
 62
     7
370
    25
100
AcDbLine
 10
160.1713244025
 20
142.2600426221
 30
0.0
 11
160.1713244025
 21
141.6641600872
 31
0.0
  0
LINE
  5
15C
330
1F
100
AcDbEntity
  8
0
  6
Continuous
 62
     7
370
    25
100
AcDbLine
 10
164.5713243786
 20
142.2600426221
 30
0.0
 11
164.5713243786
 21
141.6641600872
 31
0.0
  0
LINE
  5
15D
330
1F
100
AcDbEntity
  8
0
  6
Continuous
 62
     7
370
    25
100
AcDbLine
 10
160.1713244025
 20
141.6625805641
 30
0.0
 11
160.1713244025
 21
141.6641600872
 31
0.0
  0
LINE
  5
15E
330
1F
100
AcDbEntity
  8
0
  6
Continuous
 62
     7
370
    25
100
AcDbLine
 10
164.5713243786
 20
141.6641600872
 30
0.0
 11
164.5713243786
 21
141.6625805641
 31
0.0
  0
LINE
  5
15F
330
1F
100
AcDbEntity
  8
0
  6
Continuous
 62
     7
370
    25
100
AcDbLine
 10
160.0713227097
 20
144.6756177092
 30
0.0
 11
160.0713227097
 21
147.5283258105
 31
0.0
  0
LINE
  5
160
330
1F
100
AcDbEntity
  8
0
  6
Continuous
 62
     7
370
    25
100
AcDbLine
 10
160.0713227097
 20
153.028329506
 30
0.0
 11
160.0713227097
 21
154.7794320131
 31
0.0
  0
LINE
  5
161
330
1F
100
AcDbEntity
  8
0
  6
Continuous
 62
     7
370
    25
100
AcDbLine
 10
156.0713146035
 20
145.8934598113
 30
0.0
 11
156.0713146035
 21
153.3927225018
 31
0.0
  0
LINE
  5
162
330
1F
100
AcDbEntity
  8
0
  6
Continuous
 62
     7
370
    25
100
AcDbLine
 10
160.0713227097
 20
144.6756177092
 30
0.0
 11
160.0713227097
 21
144.6102314139
 31
0.0
  0
LINE
  5
163
330
1F
100
AcDbEntity
  8
0
  6
Continuous
 62
     7
370
    25
100
AcDbLine
 10
160.0713227097
 20
143.3427237416
 30
0.0
 11
160.0713227097
 21
144.6102314139
 31
0.0
  0
LINE
  5
164
330
1F
100
AcDbEntity
  8
0
  6
Continuous
 62
     7
370
    25
100
AcDbLine
 10
160.0713227097
 20
154.7794320131
 30
0.0
 11
160.0713227097
 21
155.942720964
 31
0.0
  0
LINE
  5
165
330
1F
100
AcDbEntity
  8
0
  6
Continuous
 62
     7
370
    25
100
AcDbLine
 10
128.27132085
 20
169.8927186871
 30
0.0
 11
128.27132085
 21
108.3927207137
 31
0.0
  0
LINE
  5
166
330
1F
100
AcDbEntity
  8
0
  6
Continuous
 62
     7
370
    25
100
AcDbLine
 10
143.2713214461
 20
169.8927186871
 30
0.0
 11
143.2713214461
 21
108.3927207137
 31
0.0
  0
LINE
  5
167
330
1F
100
AcDbEntity
  8
0
  6
Continuous
 62
     7
370
    25
100
AcDbLine
 10
143.2713214461
 20
108.3927207137
 30
0.0
 11
128.27132085
 21
108.3927207137
 31
0.0
  0
LINE
  5
168
330
1F
100
AcDbEntity
  8
0
  6
Continuous
 62
     7
370
    25
100
AcDbLine
 10
143.2713214461
 20
169.8927186871
 30
0.0
 11
128.27132085
 21
169.8927186871
 31
0.0
  0
LINE
  5
169
330
1F
100
AcDbEntity
  8
0
  6
Continuous
 62
     7
370
    25
100
AcDbLine
 10
143.2713214461
 20
100.3927194024
 30
0.0
 11
128.27132085
 21
100.3927194024
 31
0.0
  0
LINE
  5
16A
330
1F
100
AcDbEntity
  8
0
  6
Continuous
 62
     7
370
    25
100
AcDbLine
 10
138.7713197771
 20
102.6606686855
 30
0.0
 11
138.7713197771
 21
106.1247714305
 31
0.0
  0
LINE
  5
16B
330
1F
100
AcDbEntity
  8
0
  6
Continuous
 62
     7
370
    25
100
AcDbLine
 10
138.7713197771
 20
106.1247714305
 30
0.0
 11
135.7713136975
 21
107.8568228031
 31
0.0
  0
LINE
  5
16C
330
1F
100
AcDbEntity
  8
0
  6
Continuous
 62
     7
370
    25
100
AcDbLine
 10
135.7713136975
 20
107.8568228031
 30
0.0
 11
132.7713225189
 21
106.1247714305
 31
0.0
  0
LINE
  5
16D
330
1F
100
AcDbEntity
  8
0
  6
Continuous
 62
     7
370
    25
100
AcDbLine
 10
132.7713225189
 20
106.1247714305
 30
0.0
 11
132.7713225189
 21
102.6606686855
 31
0.0
  0
LINE
  5
16E
330
1F
100
AcDbEntity
  8
0
  6
Continuous
 62
     7
370
    25
100
AcDbLine
 10
132.7713225189
 20
102.6606686855
 30
0.0
 11
135.7713136975
 21
100.928617313
 31
0.0
  0
LINE
  5
16F
330
1F
100
AcDbEntity
  8
0
  6
Continuous
 62
     7
370
    25
100
AcDbLine
 10
135.7713136975
 20
100.928617313
 30
0.0
 11
138.7713197771
 21
102.6606686855
 31
0.0
  0
LINE
  5
170
330
1F
100
AcDbEntity
  8
0
  6
Continuous
 62
     7
370
    25
100
AcDbLine
 10
128.27132085
 20
108.3927207137
 30
0.0
 11
128.27132085
 21
100.3927194024
 31
0.0
  0
LINE
  5
171
330
1F
100
AcDbEntity
  8
0
  6
Continuous
 62
     7
370
    25
100
AcDbLine
 10
143.2713214461
 20
108.3927207137
 30
0.0
 11
143.2713214461
 21
100.3927194024
 31
0.0
  0
LINE
  5
172
330
1F
100
AcDbEntity
  8
0
  6
Continuous
 62
     7
370
    25
100
AcDbLine
 10
143.2713214461
 20
177.8927199984
 30
0.0
 11
128.27132085
 21
177.8927199984
 31
0.0
  0
LINE
  5
173
330
1F
100
AcDbEntity
  8
0
  6
Continuous
 62
     7
370
    25
100
AcDbLine
 10
132.7713225189
 20
175.6247707153
 30
0.0
 11
132.7713225189
 21
172.1606679702
 31
0.0
  0
LINE
  5
174
330
1F
100
AcDbEntity
  8
0
  6
Continuous
 62
     7
370
    25
100
AcDbLine
 10
132.7713225189
 20
172.1606679702
 30
0.0
 11
135.7713136975
 21
170.428620323
 31
0.0
  0
LINE
  5
175
330
1F
100
AcDbEntity
  8
0
  6
Continuous
 62
     7
370
    25
100
AcDbLine
 10
135.7713136975
 20
170.428620323
 30
0.0
 11
138.7713197771
 21
172.1606679702
 31
0.0
  0
LINE
  5
176
330
1F
100
AcDbEntity
  8
0
  6
Continuous
 62
     7
370
    25
100
AcDbLine
 10
138.7713197771
 20
172.1606679702
 30
0.0
 11
138.7713197771
 21
175.6247707153
 31
0.0
  0
LINE
  5
177
330
1F
100
AcDbEntity
  8
0
  6
Continuous
 62
     7
370
    25
100
AcDbLine
 10
138.7713197771
 20
175.6247707153
 30
0.0
 11
135.7713136975
 21
177.3568220878
 31
0.0
  0
LINE
  5
178
330
1F
100
AcDbEntity
  8
0
  6
Continuous
 62
     7
370
    25
100
AcDbLine
 10
135.7713136975
 20
177.3568220878
 30
0.0
 11
132.7713225189
 21
175.6247707153
 31
0.0
  0
LINE
  5
179
330
1F
100
AcDbEntity
  8
0
  6
Continuous
 62
     7
370
    25
100
AcDbLine
 10
128.27132085
 20
177.8927199984
 30
0.0
 11
128.27132085
 21
169.8927186871
 31
0.0
  0
LINE
  5
17A
330
1F
100
AcDbEntity
  8
0
  6
Continuous
 62
     7
370
    25
100
AcDbLine
 10
143.2713214461
 20
177.8927199984
 30
0.0
 11
143.2713214461
 21
169.8927186871
 31
0.0
  0
SPLINE
  5
17B
330
1F
100
AcDbEntity
  8
0
  6
Continuous
 62
     7
370
    25
100
AcDbSpline
210
0.0
220
0.0
230
1.0
 70
     8
 71
     3
 72
    11
 73
     7
 74
     0
 42
0.000000001
 43
0.00000001
 40
0.0
 40
0.0
 40
0.0
 40
0.0
 40
0.2499679345840589
 40
0.4999628786300799
 40
0.7499909018020497
 40
1.0
 40
1.0
 40
1.0
 40
1.0
 10
152.0127449337296
 20
146.7873357677924
 30
0.0
 10
152.0214818479952
 20
146.7866518987005
 30
0.0
 10
152.0389566205649
 20
146.7852840866236
 30
0.0
 10
152.0571248100902
 20
146.783248429486
 30
0.0
 10
152.0691036147202
 20
146.7811939368465
 30
0.0
 10
152.0705821558147
 20
146.7798346486651
 30
0.0
 10
152.0713213983826
 20
146.779155030297
 30
0.0
  0
LINE
  5
17C
330
1F
100
AcDbEntity
  8
0
  6
Continuous
 62
     7
370
    25
100
AcDbLine
 10
152.0713213984
 20
146.7791550303
 30
0.0
 11
152.0713213984
 21
119.3927206541
 31
0.0
  0
LINE
  5
17D
330
1F
100
AcDbEntity
  8
0
  6
Continuous
 62
     7
370
    25
100
AcDbLine
 10
152.0713213984
 20
119.3927206541
 30
0.0
 11
151.8713180128
 21
119.3927206541
 31
0.0
  0
LINE
  5
17E
330
1F
100
AcDbEntity
  8
0
  6
Continuous
 62
     7
370
    25
100
AcDbLine
 10
151.8713180128
 20
119.3927206541
 30
0.0
 11
151.8713180128
 21
146.7791550303
 31
0.0
  0
SPLINE
  5
17F
330
1F
100
AcDbEntity
  8
0
  6
Continuous
 62
     7
370
    25
100
AcDbSpline
210
0.0
220
0.0
230
1.0
 70
     8
 71
     3
 72
    11
 73
     7
 74
     0
 42
0.000000001
 43
0.00000001
 40
0.0
 40
0.0
 40
0.0
 40
0.0
 40
0.2500400107321047
 40
0.4999611255234619
 40
0.7499816205104612
 40
1.0
 40
1.0
 40
1.0
 40
1.0
 10
151.8713180128388
 20
146.779155030297
 30
0.0
 10
151.8844164247013
 20
146.779834522972
 30
0.0
 10
151.9106070200311
 20
146.7811931852179
 30
0.0
 10
151.9482811200783
 20
146.7832491659038
 30
0.0
 10
151.9833984486234
 20
146.7852841110971
 30
0.0
 10
152.0029627996176
 20
146.7866518841562
 30
0.0
 10
152.0127449337296
 20
146.7873357677924
 30
0.0
  0
LINE
  5
180
330
1F
100
AcDbEntity
  8
0
  6
Continuous
 62
     7
370
    25
100
AcDbLine
 10
152.0713213984
 20
158.8927187467
 30
0.0
 11
152.0713213984
 21
152.5062822247
 31
0.0
  0
SPLINE
  5
181
330
1F
100
AcDbEntity
  8
0
  6
Continuous
 62
     7
370
    25
100
AcDbSpline
210
0.0
220
0.0
230
1.0
 70
     8
 71
     3
 72
    11
 73
     7
 74
     0
 42
0.000000001
 43
0.00000001
 40
0.0
 40
0.0
 40
0.0
 40
0.0
 40
0.2500097161271957
 40
0.5000358859396604
 40
0.750033919518041
 40
1.0
 40
1.0
 40
1.0
 40
1.0
 10
152.0713213983826
 20
152.5062822247016
 30
0.0
 10
152.0705821790958
 20
152.5056015006657
 30
0.0
 10
152.0691036918726
 20
152.5042400077939
 30
0.0
 10
152.0571245862468
 20
152.5022021010087
 30
0.0
 10
152.0389569025612
 20
152.5001480074673
 30
0.0
 10
152.0214818843927
 20
152.49878859872
 30
0.0
 10
152.0127449337296
 20
152.4981089377868
 30
0.0
  0
SPLINE
  5
182
330
1F
100
AcDbEntity
  8
0
  6
Continuous
 62
     7
370
    25
100
AcDbSpline
210
0.0
220
0.0
230
1.0
 70
     8
 71
     3
 72
    11
 73
     7
 74
     0
 42
0.000000001
 43
0.00000001
 40
0.0
 40
0.0
 40
0.0
 40
0.0
 40
0.2500165264543493
 40
0.5000401105857601
 40
0.7499593711397582
 40
1.0
 40
1.0
 40
1.0
 40
1.0
 10
152.0127449337296
 20
152.4981089377868
 30
0.0
 10
152.0029627166662
 20
152.4987886128533
 30
0.0
 10
151.9833980063989
 20
152.5001479821727
 30
0.0
 10
151.9482816335876
 20
152.5022013638935
 30
0.0
 10
151.910606731699
 20
152.504240758199
 30
0.0
 10
151.8844163717486
 20
152.5056016257477
 30
0.0
 10
151.8713180128388
 20
152.5062822247016
 30
0.0
  0
LINE
  5
183
330
1F
100
AcDbEntity
  8
0
  6
Continuous
 62
     7
370
    25
100
AcDbLine
 10
151.8713180128
 20
152.5062822247
 30
0.0
 11
151.8713180128
 21
158.8927187467
 31
0.0
  0
LINE
  5
184
330
1F
100
AcDbEntity
  8
0
  6
Continuous
 62
     7
370
    25
100
AcDbLine
 10
151.8713180128
 20
158.8927187467
 30
0.0
 11
152.0713213984
 21
158.8927187467
 31
0.0
  0
LINE
  5
185
330
1F
100
AcDbEntity
  8
0
  6
Continuous
 62
     7
370
    25
100
AcDbLine
 10
117.0713175241
 20
158.8927187467
 30
0.0
 11
117.0713175241
 21
119.3927206541
 31
0.0
  0
LINE
  5
186
330
1F
100
AcDbEntity
  8
0
  6
Continuous
 62
     7
370
    25
100
AcDbLine
 10
146.0713241402
 20
166.3927190447
 30
0.0
 11
143.2713214461
 21
166.3927190447
 31
0.0
  0
LINE
  5
187
330
1F
100
AcDbEntity
  8
0
  6
Continuous
 62
     7
370
    25
100
AcDbLine
 10
146.0713241402
 20
166.3927190447
 30
0.0
 11
146.0713241402
 21
158.8927187467
 31
0.0
  0
LINE
  5
188
330
1F
100
AcDbEntity
  8
0
  6
Continuous
 62
     7
370
    25
100
AcDbLine
 10
151.8713180128
 20
158.8927187467
 30
0.0
 11
146.0713241402
 21
158.8927187467
 31
0.0
  0
LINE
  5
189
330
1F
100
AcDbEntity
  8
0
  6
Continuous
 62
     7
370
    25
100
AcDbLine
 10
151.8713180128
 20
152.5062822247
 30
0.0
 11
151.8713180128
 21
149.6427186275
 31
0.0
  0
LINE
  5
18A
330
1F
100
AcDbEntity
  8
0
  6
Continuous
 62
     7
370
    25
100
AcDbLine
 10
151.8713180128
 20
149.6427186275
 30
0.0
 11
151.8713180128
 21
146.7791550303
 31
0.0
  0
LINE
  5
18B
330
1F
100
AcDbEntity
  8
0
  6
Continuous
 62
     7
370
    25
100
AcDbLine
 10
146.0713241402
 20
119.3927206541
 30
0.0
 11
151.8713180128
 21
119.3927206541
 31
0.0
  0
LINE
  5
18C
330
1F
100
AcDbEntity
  8
0
  6
Continuous
 62
     7
370
    25
100
AcDbLine
 10
146.0713241402
 20
119.3927206541
 30
0.0
 11
146.0713241402
 21
111.892720356
 31
0.0
  0
LINE
  5
18D
330
1F
100
AcDbEntity
  8
0
  6
Continuous
 62
     7
370
    25
100
AcDbLine
 10
143.2713214461
 20
111.892720356
 30
0.0
 11
146.0713241402
 21
111.892720356
 31
0.0
  0
LINE
  5
18E
330
1F
100
AcDbEntity
  8
0
  6
Continuous
 62
     7
370
    25
100
AcDbLine
 10
154.0713254515
 20
159.8927207733
 30
0.0
 11
154.0713254515
 21
146.4804389024
 31
0.0
  0
LINE
  5
18F
330
1F
100
AcDbEntity
  8
0
  6
Continuous
 62
     7
370
    25
100
AcDbLine
 10
154.0713254515
 20
146.4804389024
 30
0.0
 11
152.2713247839
 21
146.4804389024
 31
0.0
  0
LINE
  5
190
330
1F
100
AcDbEntity
  8
0
  6
Continuous
 62
     7
370
    25
100
AcDbLine
 10
152.2713247839
 20
146.8339615012
 30
0.0
 11
152.2713247839
 21
146.4804389024
 31
0.0
  0
SPLINE
  5
191
330
1F
100
AcDbEntity
  8
0
  6
Continuous
 62
     7
370
    25
100
AcDbSpline
210
0.0
220
0.0
230
1.0
 70
    24
 71
     3
 72
     9
 73
     5
 74
     0
 42
0.000000001
 43
0.00000001
 40
0.0
 40
0.0
 40
0.0
 40
0.0
 40
0.5000014053267244
 40
1.0
 40
1.0
 40
1.0
 40
1.0
 10
152.2713247839264
 20
146.833961501168
 30
0.0
 10
152.2713247839264
 20
147.2952715996443
 30
0.0
 10
152.2713247839264
 20
148.2178892034387
 30
0.0
 10
152.2713247839264
 20
149.1677763760803
 30
0.0
 10
152.2713247839264
 20
149.6427186274993
 30
0.0
  0
SPLINE
  5
192
330
1F
100
AcDbEntity
  8
0
  6
Continuous
 62
     7
370
    25
100
AcDbSpline
210
0.0
220
0.0
230
1.0
 70
    24
 71
     3
 72
     9
 73
     5
 74
     0
 42
0.000000001
 43
0.00000001
 40
0.0
 40
0.0
 40
0.0
 40
0.0
 40
0.5000011840212593
 40
0.9999999999999999
 40
0.9999999999999999
 40
0.9999999999999999
 40
0.9999999999999999
 10
152.2713247839264
 20
149.6427186274993
 30
0.0
 10
152.2713247839264
 20
150.1176634156039
 30
0.0
 10
152.2713247839264
 20
151.0675507424396
 30
0.0
 10
152.2713247839264
 20
151.990168144966
 30
0.0
 10
152.2713247839264
 20
152.4514757538306
 30
0.0
  0
LINE
  5
193
330
1F
100
AcDbEntity
  8
0
  6
Continuous
 62
     7
370
    25
100
AcDbLine
 10
152.2713247839
 20
159.5003769243
 30
0.0
 11
152.2713247839
 21
152.4514757538
 31
0.0
  0
SPLINE
  5
194
330
1F
100
AcDbEntity
  8
0
  6
Continuous
 62
     7
370
    25
100
AcDbSpline
210
0.0
220
0.0
230
1.0
 70
    24
 71
     3
 72
     9
 73
     5
 74
     0
 42
0.000000001
 43
0.00000001
 40
0.0
 40
0.0
 40
0.0
 40
0.0
 40
0.4999988614098312
 40
1.0
 40
1.0
 40
1.0
 40
1.0
 10
152.2713247839264
 20
159.5003769243228
 30
0.0
 10
152.2713247839264
 20
159.6145735256958
 30
0.0
 10
152.2713247839264
 20
159.8429672485355
 30
0.0
 10
152.2713247839264
 20
159.8761362398456
 30
0.0
 10
152.2713247839264
 20
159.8927207732665
 30
0.0
  0
SPLINE
  5
195
330
1F
100
AcDbEntity
  8
0
  6
Continuous
 62
     7
370
    25
100
AcDbSpline
210
0.0
220
0.0
230
1.0
 70
    24
 71
     3
 72
     9
 73
     5
 74
     0
 42
0.000000001
 43
0.00000001
 40
0.0
 40
0.0
 40
0.0
 40
0.0
 40
0.5483746729708465
 40
0.9999999999999999
 40
0.9999999999999999
 40
0.9999999999999999
 40
0.9999999999999999
 10
151.8713180128388
 20
149.6427186274993
 30
0.0
 10
151.9080154996347
 20
149.6427186274993
 30
0.0
 10
151.9749359622395
 20
149.6427186274993
 30
0.0
 10
152.0418475077976
 20
149.6427186274993
 30
0.0
 10
152.0720664564423
 20
149.6427186274993
 30
0.0
  0
SPLINE
  5
196
330
1F
100
AcDbEntity
  8
0
  6
Continuous
 62
     7
370
    25
100
AcDbSpline
210
0.0
220
0.0
230
1.0
 70
     8
 71
     3
 72
     9
 73
     5
 74
     0
 42
0.000000001
 43
0.00000001
 40
0.0
 40
0.0
 40
0.0
 40
0.0
 40
0.559996063570412
 40
1.0
 40
1.0
 40
1.0
 40
1.0
 10
152.0127449337296
 20
152.4981089377868
 30
0.0
 10
152.0201091059828
 20
151.9649038307711
 30
0.0
 10
152.0332595060166
 20
151.0127451609116
 30
0.0
 10
152.0602087034764
 20
150.061340446832
 30
0.0
 10
152.0720664564423
 20
149.6427186274993
 30
0.0
  0
SPLINE
  5
197
330
1F
100
AcDbEntity
  8
0
  6
Continuous
 62
     7
370
    25
100
AcDbSpline
210
0.0
220
0.0
230
1.0
 70
     8
 71
     3
 72
     9
 73
     5
 74
     0
 42
0.000000001
 43
0.00000001
 40
0.0
 40
0.0
 40
0.0
 40
0.0
 40
0.5599975229918667
 40
1.0
 40
1.0
 40
1.0
 40
1.0
 10
152.0127449337296
 20
146.7873357677924
 30
0.0
 10
152.0201090790752
 20
147.3205408763544
 30
0.0
 10
152.0332593967879
 20
148.272697067534
 30
0.0
 10
152.0602086974134
 20
149.2240992920717
 30
0.0
 10
152.0720664564423
 20
149.6427186274993
 30
0.0
  0
SPLINE
  5
198
330
1F
100
AcDbEntity
  8
0
  6
Continuous
 62
     7
370
    25
100
AcDbSpline
210
0.0
220
0.0
230
1.0
 70
     8
 71
     3
 72
     9
 73
     5
 74
     0
 42
0.000000001
 43
0.00000001
 40
0.0
 40
0.0
 40
0.0
 40
0.0
 40
0.5605329570558675
 40
1.0
 40
1.0
 40
1.0
 40
1.0
 10
152.1298978630356
 20
152.4597757006156
 30
0.0
 10
152.1394327563365
 20
151.9376259879554
 30
0.0
 10
152.1564431625594
 20
151.0061023262554
 30
0.0
 10
152.0978265332098
 20
150.0589575441369
 30
0.0
 10
152.0720664564423
 20
149.6427186274993
 30
0.0
  0
SPLINE
  5
199
330
1F
100
AcDbEntity
  8
0
  6
Continuous
 62
     7
370
    25
100
AcDbSpline
210
0.0
220
0.0
230
1.0
 70
     8
 71
     3
 72
    11
 73
     7
 74
     0
 42
0.000000001
 43
0.00000001
 40
0.0
 40
0.0
 40
0.0
 40
0.0
 40
0.2499992746946498
 40
0.4999557916261834
 40
0.749960324430913
 40
1.0
 40
1.0
 40
1.0
 40
1.0
 10
152.1298978630356
 20
152.4597757006156
 30
0.0
 10
152.1396809452731
 20
152.4580322268497
 30
0.0
 10
152.1592454365326
 20
152.454545577507
 30
0.0
 10
152.1943507264131
 20
152.4515062738103
 30
0.0
 10
152.2320328454118
 20
152.4501605241413
 30
0.0
 10
152.2582268574558
 20
152.4510373233939
 30
0.0
 10
152.2713247839264
 20
152.4514757538306
 30
0.0
  0
SPLINE
  5
19A
330
1F
100
AcDbEntity
  8
0
  6
Continuous
 62
     7
370
    25
100
AcDbSpline
210
0.0
220
0.0
230
1.0
 70
    24
 71
     3
 72
     9
 73
     5
 74
     0
 42
0.000000001
 43
0.00000001
 40
0.0
 40
0.0
 40
0.0
 40
0.0
 40
0.547420401885145
 40
0.9999999999999999
 40
0.9999999999999999
 40
0.9999999999999999
 40
0.9999999999999999
 10
152.2713247839264
 20
149.6427186274993
 30
0.0
 10
152.2349662678742
 20
149.6427186274993
 30
0.0
 10
152.1685483632309
 20
149.6427186274993
 30
0.0
 10
152.1021272824764
 20
149.6427186274993
 30
0.0
 10
152.0720664564423
 20
149.6427186274993
 30
0.0
  0
SPLINE
  5
19B
330
1F
100
AcDbEntity
  8
0
  6
Continuous
 62
     7
370
    25
100
AcDbSpline
210
0.0
220
0.0
230
1.0
 70
     8
 71
     3
 72
    11
 73
     7
 74
     0
 42
0.000000001
 43
0.00000001
 40
0.0
 40
0.0
 40
0.0
 40
0.0
 40
0.2499942449790047
 40
0.4999516070585792
 40
0.7499584212356268
 40
1.0
 40
1.0
 40
1.0
 40
1.0
 10
152.1298978630356
 20
146.8256690049636
 30
0.0
 10
152.1396810143407
 20
146.8274096018596
 30
0.0
 10
152.1592458735938
 20
146.8308905388527
 30
0.0
 10
152.1943508124392
 20
146.8339283193361
 30
0.0
 10
152.2320328079529
 20
146.835288573169
 30
0.0
 10
152.2582268515773
 20
146.8344038790036
 30
0.0
 10
152.2713247839264
 20
146.833961501168
 30
0.0
  0
SPLINE
  5
19C
330
1F
100
AcDbEntity
  8
0
  6
Continuous
 62
     7
370
    25
100
AcDbSpline
210
0.0
220
0.0
230
1.0
 70
     8
 71
     3
 72
     9
 73
     5
 74
     0
 42
0.000000001
 43
0.00000001
 40
0.0
 40
0.0
 40
0.0
 40
0.0
 40
0.560534422129991
 40
1.0
 40
1.0
 40
1.0
 40
1.0
 10
152.1298978630356
 20
146.8256690049636
 30
0.0
 10
152.1394328214556
 20
147.3478187183333
 30
0.0
 10
152.1564432993916
 20
148.2793399465667
 30
0.0
 10
152.097826515325
 20
149.2264822067866
 30
0.0
 10
152.0720664564423
 20
149.6427186274993
 30
0.0
  0
SPLINE
  5
19D
330
1F
100
AcDbEntity
  8
0
  6
Continuous
 62
     7
370
    25
100
AcDbSpline
210
0.0
220
0.0
230
1.0
 70
     8
 71
     3
 72
    11
 73
     7
 74
     0
 42
0.000000001
 43
0.00000001
 40
0.0
 40
0.0
 40
0.0
 40
0.0
 40
0.2499875530386633
 40
0.5000203295846615
 40
0.749993028439314
 40
1.0
 40
1.0
 40
1.0
 40
1.0
 10
152.0713213983826
 20
146.779155030297
 30
0.0
 10
152.0720608488224
 20
146.7833977419399
 30
0.0
 10
152.0735398834708
 20
146.7918839327452
 30
0.0
 10
152.0855164918941
 20
146.8041502281045
 30
0.0
 10
152.1036895594247
 20
146.8157048574768
 30
0.0
 10
152.1211613626118
 20
146.8223474706883
 30
0.0
 10
152.1298978630356
 20
146.8256690049636
 30
0.0
  0
SPLINE
  5
19E
330
1F
100
AcDbEntity
  8
0
  6
Continuous
 62
     7
370
    25
100
AcDbSpline
210
0.0
220
0.0
230
1.0
 70
     8
 71
     3
 72
    11
 73
     7
 74
     0
 42
0.000000001
 43
0.00000001
 40
0.0
 40
0.0
 40
0.0
 40
0.0
 40
0.2499908873106101
 40
0.5000122280726755
 40
0.7500020527771986
 40
1.0
 40
1.0
 40
1.0
 40
1.0
 10
152.0713213983826
 20
152.5062822247016
 30
0.0
 10
152.0720607136647
 20
152.5020385062908
 30
0.0
 10
152.073539434291
 20
152.4935505525067
 30
0.0
 10
152.0855177664225
 20
152.4812993627139
 30
0.0
 10
152.103688059817
 20
152.4697279975547
 30
0.0
 10
152.1211611673433
 20
152.4630931688572
 30
0.0
 10
152.1298978630356
 20
152.4597757006156
 30
0.0
  0
LINE
  5
19F
330
1F
100
AcDbEntity
  8
0
  6
Continuous
 62
     7
370
    25
100
AcDbLine
 10
151.8713180128
 20
118.3927186275
 30
0.0
 11
151.8713180128
 21
119.3927206541
 31
0.0
  0
LINE
  5
1A0
330
1F
100
AcDbEntity
  8
0
  6
Continuous
 62
     7
370
    25
100
AcDbLine
 10
151.8713180128
 20
118.3927186275
 30
0.0
 11
146.0713241402
 21
118.3927186275
 31
0.0
  0
LINE
  5
1A1
330
1F
100
AcDbEntity
  8
0
  6
Continuous
 62
     7
370
    25
100
AcDbLine
 10
146.0713241402
 20
159.8927207733
 30
0.0
 11
151.8713180128
 21
159.8927207733
 31
0.0
  0
LINE
  5
1A2
330
1F
100
AcDbEntity
  8
0
  6
Continuous
 62
     7
370
    25
100
AcDbLine
 10
151.8713180128
 20
158.8927187467
 30
0.0
 11
151.8713180128
 21
159.8927207733
 31
0.0
  0
LINE
  5
1A3
330
1F
100
AcDbEntity
  8
0
  6
Continuous
 62
     7
370
    25
100
AcDbLine
 10
152.0713213984
 20
119.3927206541
 30
0.0
 11
152.0713213984
 21
118.592722013
 31
0.0
  0
ARC
  5
1A4
330
1F
100
AcDbEntity
  8
0
  6
Continuous
 62
     7
370
    25
100
AcDbCircle
 10
151.8713207941
 20
118.5927202482
 30
0.0
 40
0.2000000000000171
100
AcDbArc
 50
270.0
 51
360.0
  0
ARC
  5
1A5
330
1F
100
AcDbEntity
  8
0
  6
Continuous
 62
     7
370
    25
100
AcDbCircle
 10
151.8713207941
 20
159.6927202482
 30
0.0
 40
0.2000000000000171
100
AcDbArc
 50
0.0
 51
90.0
  0
LINE
  5
1A6
330
1F
100
AcDbEntity
  8
0
  6
Continuous
 62
     7
370
    25
100
AcDbLine
 10
152.0713213984
 20
159.692721113
 30
0.0
 11
152.0713213984
 21
158.8927187467
 31
0.0
  0
LINE
  5
1A7
330
1F
100
AcDbEntity
  8
0
  6
Continuous
 62
     7
370
    25
100
AcDbLine
 10
146.0713241402
 20
111.3927193428
 30
0.0
 11
143.2713214461
 21
111.3927193428
 31
0.0
  0
LINE
  5
1A8
330
1F
100
AcDbEntity
  8
0
  6
Continuous
 62
     7
370
    25
100
AcDbLine
 10
146.0713241402
 20
111.892720356
 30
0.0
 11
146.0713241402
 21
111.3927193428
 31
0.0
  0
LINE
  5
1A9
330
1F
100
AcDbEntity
  8
0
  6
Continuous
 62
     7
370
    25
100
AcDbLine
 10
143.2713214461
 20
166.892720058
 30
0.0
 11
146.0713241402
 21
166.892720058
 31
0.0
  0
LINE
  5
1AA
330
1F
100
AcDbEntity
  8
0
  6
Continuous
 62
     7
370
    25
100
AcDbLine
 10
146.0713241402
 20
166.892720058
 30
0.0
 11
146.0713241402
 21
166.3927190447
 31
0.0
  0
LINE
  5
1AB
330
1F
100
AcDbEntity
  8
0
  6
Continuous
 62
     7
370
    25
100
AcDbLine
 10
128.27132085
 20
118.3927186275
 30
0.0
 11
117.0713175241
 21
118.3927186275
 31
0.0
  0
LINE
  5
1AC
330
1F
100
AcDbEntity
  8
0
  6
Continuous
 62
     7
370
    25
100
AcDbLine
 10
117.0713175241
 20
118.3927186275
 30
0.0
 11
117.0713175241
 21
119.3927206541
 31
0.0
  0
LINE
  5
1AD
330
1F
100
AcDbEntity
  8
0
  6
Continuous
 62
     7
370
    25
100
AcDbLine
 10
117.0713175241
 20
158.8927187467
 30
0.0
 11
117.0713175241
 21
159.8927207733
 31
0.0
  0
LINE
  5
1AE
330
1F
100
AcDbEntity
  8
0
  6
Continuous
 62
     7
370
    25
100
AcDbLine
 10
117.0713175241
 20
159.8927207733
 30
0.0
 11
128.27132085
 21
159.8927207733
 31
0.0
  0
LINE
  5
1AF
330
1F
100
AcDbEntity
  8
0
  6
Continuous
 62
     7
370
    25
100
AcDbLine
 10
116.0713229481
 20
119.3927206541
 30
0.0
 11
116.0713229481
 21
158.8927187467
 31
0.0
  0
LINE
  5
1B0
330
1F
100
AcDbEntity
  8
0
  6
Continuous
 62
     7
370
    25
100
AcDbLine
 10
116.0713229481
 20
158.8927187467
 30
0.0
 11
117.0713175241
 21
158.8927187467
 31
0.0
  0
LINE
  5
1B1
330
1F
100
AcDbEntity
  8
0
  6
Continuous
 62
     7
370
    25
100
AcDbLine
 10
116.0713229481
 20
119.3927206541
 30
0.0
 11
117.0713175241
 21
119.3927206541
 31
0.0
  0
ARC
  5
1B2
330
1F
100
AcDbEntity
  8
0
  6
Continuous
 62
     7
370
    25
100
AcDbCircle
 10
117.0713207941
 20
119.3927202482
 30
0.0
 40
1.0
100
AcDbArc
 50
180.0
 51
270.0
  0
ARC
  5
1B3
330
1F
100
AcDbEntity
  8
0
  6
Continuous
 62
     7
370
    25
100
AcDbCircle
 10
117.0713207941
 20
158.8927202482
 30
0.0
 40
1.0
100
AcDbArc
 50
90.0
 51
180.0
  0
SPLINE
  5
1B4
330
1F
100
AcDbEntity
  8
0
  6
Continuous
 62
     7
370
    25
100
AcDbSpline
210
0.0
220
0.0
230
1.0
 70
     8
 71
     3
 72
    13
 73
     9
 74
     0
 42
0.000000001
 43
0.00000001
 40
0.0
 40
0.0
 40
0.0
 40
0.0
 40
0.0162446133861917
 40
0.1496606812828154
 40
0.3646827684916968
 40
0.5771940312323434
 40
0.7885891951272046
 40
1.0
 40
1.0
 40
1.0
 40
1.0
 10
152.0713213983826
 20
146.4489751005637
 30
0.0
 10
152.0713336498292
 20
146.4492383285677
 30
0.0
 10
152.0714465216967
 20
146.4516634329069
 30
0.0
 10
152.0764475870547
 20
146.4575887944179
 30
0.0
 10
152.0995355774928
 20
146.4662002203421
 30
0.0
 10
152.1450822793266
 20
146.4740679252407
 30
0.0
 10
152.2044696823674
 20
146.4794142821486
 30
0.0
 10
152.2490392004826
 20
146.4800973539095
 30
0.0
 10
152.2713247839264
 20
146.4804389024245
 30
0.0
  0
SPLINE
  5
1B5
330
1F
100
AcDbEntity
  8
0
  6
Continuous
 62
     7
370
    25
100
AcDbSpline
210
0.0
220
0.0
230
1.0
 70
     8
 71
     3
 72
    11
 73
     7
 74
     0
 42
0.000000001
 43
0.00000001
 40
0.0
 40
0.0
 40
0.0
 40
0.0
 40
0.2499999158269301
 40
0.4999570737810901
 40
0.7499622477315846
 40
1.0
 40
1.0
 40
1.0
 40
1.0
 10
152.1298978630356
 20
159.5589198613631
 30
0.0
 10
152.1396809428585
 20
159.5503324764244
 30
0.0
 10
152.159245429289
 20
159.5331591752607
 30
0.0
 10
152.194350755384
 20
159.5151192474604
 30
0.0
 10
152.2320326078918
 20
159.5030552485993
 30
0.0
 10
152.2582268230547
 20
159.5012697378576
 30
0.0
 10
152.2713247839264
 20
159.5003769243228
 30
0.0
  0
LINE
  5
1B6
330
1F
100
AcDbEntity
  8
0
  6
Continuous
 62
     7
370
    25
100
AcDbLine
 10
152.2713247839
 20
146.4804389024
 30
0.0
 11
152.2713247839
 21
124.3927233363
 31
0.0
  0
ARC
  5
1B7
330
1F
100
AcDbEntity
  8
0
  6
Continuous
 62
     7
370
    25
100
AcDbCircle
 10
152.2713207941
 20
124.1927202482
 30
0.0
 40
0.2000000000000171
100
AcDbArc
 50
90.0
 51
180.0
  0
LINE
  5
1B8
330
1F
100
AcDbEntity
  8
0
  6
Continuous
 62
     7
370
    25
100
AcDbLine
 10
154.2713139359
 20
124.6203460241
 30
0.0
 11
154.0713254515
 21
124.6203460241
 31
0.0
  0
LINE
  5
1B9
330
1F
100
AcDbEntity
  8
0
  6
Continuous
 62
     7
370
    25
100
AcDbLine
 10
154.2713139359
 20
124.6203460241
 30
0.0
 11
154.2713139359
 21
124.1203450108
 31
0.0
  0
LINE
  5
1BA
330
1F
100
AcDbEntity
  8
0
  6
Continuous
 62
     7
370
    25
100
AcDbLine
 10
154.2713139359
 20
124.1203450108
 30
0.0
 11
154.0713254515
 21
124.1203450108
 31
0.0
  0
LINE
  5
1BB
330
1F
100
AcDbEntity
  8
0
  6
Continuous
 62
     7
370
    25
100
AcDbLine
 10
154.0713254515
 20
124.3927233363
 30
0.0
 11
154.0713254515
 21
124.1203450108
 31
0.0
  0
LINE
  5
1BC
330
1F
100
AcDbEntity
  8
0
  6
Continuous
 62
     7
370
    25
100
AcDbLine
 10
154.2713139359
 20
138.8206981564
 30
0.0
 11
154.0713254515
 21
138.8206981564
 31
0.0
  0
LINE
  5
1BD
330
1F
100
AcDbEntity
  8
0
  6
Continuous
 62
     7
370
    25
100
AcDbLine
 10
154.2713139359
 20
138.8206981564
 30
0.0
 11
154.2713139359
 21
138.3206971431
 31
0.0
  0
LINE
  5
1BE
330
1F
100
AcDbEntity
  8
0
  6
Continuous
 62
     7
370
    25
100
AcDbLine
 10
154.2713139359
 20
138.3206971431
 30
0.0
 11
154.0713254515
 21
138.3206971431
 31
0.0
  0
LINE
  5
1BF
330
1F
100
AcDbEntity
  8
0
  6
Continuous
 62
     7
370
    25
100
AcDbLine
 10
154.0713254515
 20
124.6203460241
 30
0.0
 11
154.0713254515
 21
124.3927233363
 31
0.0
  0
LINE
  5
1C0
330
1F
100
AcDbEntity
  8
0
  6
Continuous
 62
     7
370
    25
100
AcDbLine
 10
154.0713254515
 20
124.3927233363
 30
0.0
 11
152.2713247839
 21
124.3927233363
 31
0.0
  0
LINE
  5
1C1
330
1F
100
AcDbEntity
  8
0
  6
Continuous
 62
     7
370
    25
100
AcDbLine
 10
154.2713139359
 20
138.3206971431
 30
0.0
 11
154.2713139359
 21
124.6203460241
 31
0.0
  0
LINE
  5
1C2
330
1F
100
AcDbEntity
  8
0
  6
Continuous
 62
     7
370
    25
100
AcDbLine
 10
154.0713254515
 20
146.4804389024
 30
0.0
 11
154.0713254515
 21
138.3206971431
 31
0.0
  0
LINE
  5
1C3
330
1F
100
AcDbEntity
  8
0
  6
Continuous
 62
     7
370
    25
100
AcDbLine
 10
155.0713274781
 20
155.942720964
 30
0.0
 11
155.0713274781
 21
143.3427237416
 31
0.0
  0
LINE
  5
1C4
330
1F
100
AcDbEntity
  8
0
  6
Continuous
 62
     7
370
    25
100
AcDbLine
 10
155.5713210408
 20
154.9427189374
 30
0.0
 11
155.5713210408
 21
144.3427183176
 31
0.0
  0
LINE
  5
1C5
330
1F
100
AcDbEntity
  8
0
  6
Continuous
 62
     7
370
    25
100
AcDbLine
 10
154.0713254515
 20
124.1203450108
 30
0.0
 11
154.0713254515
 21
122.3927192832
 31
0.0
  0
SPLINE
  5
1C6
330
1F
100
AcDbEntity
  8
0
  6
Continuous
 62
     7
370
    25
100
AcDbSpline
210
0.0
220
0.0
230
1.0
 70
     8
 71
     3
 72
     9
 73
     5
 74
     0
 42
0.000000001
 43
0.00000001
 40
0.0
 40
0.0
 40
0.0
 40
0.0
 40
0.5605329161638988
 40
1.0
 40
1.0
 40
1.0
 40
1.0
 10
152.1298978630356
 20
159.5589198613631
 30
0.0
 10
152.1394327545189
 20
159.6632001216173
 30
0.0
 10
152.1564431587403
 20
159.8492378318874
 30
0.0
 10
152.0978265337091
 20
159.8791064748267
 30
0.0
 10
152.0720664564423
 20
159.8922327602374
 30
0.0
  0
SPLINE
  5
1C7
330
1F
100
AcDbEntity
  8
0
  6
Continuous
 62
     7
370
    25
100
AcDbSpline
210
0.0
220
0.0
230
1.0
 70
     8
 71
     3
 72
     9
 73
     5
 74
     0
 42
0.000000001
 43
0.00000001
 40
0.0
 40
0.0
 40
0.0
 40
0.0
 40
0.5599986414113253
 40
1.0
 40
1.0
 40
1.0
 40
1.0
 10
152.0127449337296
 20
159.8341405833232
 30
0.0
 10
152.0201090584545
 20
159.8391737641939
 30
0.0
 10
152.0332593130808
 20
159.8481616089823
 30
0.0
 10
152.0602086927672
 20
159.878766546257
 30
0.0
 10
152.0720664564423
 20
159.8922327602374
 30
0.0
  0
SPLINE
  5
1C8
330
1F
100
AcDbEntity
  8
0
  6
Continuous
 62
     7
370
    25
100
AcDbSpline
210
0.0
220
0.0
230
1.0
 70
     8
 71
     3
 72
     9
 73
     5
 74
     0
 42
0.000000001
 43
0.00000001
 40
0.0
 40
0.0
 40
0.0
 40
0.0
 40
0.4119820112747583
 40
1.0
 40
1.0
 40
1.0
 40
1.0
 10
151.9178841415696
 20
159.8931231046188
 30
0.0
 10
151.9390590781375
 20
159.893412422337
 30
0.0
 10
151.9904567993692
 20
159.8941146804704
 30
0.0
 10
152.0418476889262
 20
159.8929296055869
 30
0.0
 10
152.0720664564423
 20
159.8922327602374
 30
0.0
  0
SPLINE
  5
1C9
330
1F
100
AcDbEntity
  8
0
  6
Continuous
 62
     7
370
    25
100
AcDbSpline
210
0.0
220
0.0
230
1.0
 70
     8
 71
     3
 72
     9
 73
     5
 74
     0
 42
0.000000001
 43
0.00000001
 40
0.0
 40
0.0
 40
0.0
 40
0.0
 40
0.5474202934583167
 40
1.0
 40
1.0
 40
1.0
 40
1.0
 10
152.2713247839264
 20
159.8927207732665
 30
0.0
 10
152.2349662635187
 20
159.8920014396815
 30
0.0
 10
152.1685483377636
 20
159.8906873970828
 30
0.0
 10
152.1021272794996
 20
159.8917512720272
 30
0.0
 10
152.0720664564423
 20
159.8922327602374
 30
0.0
  0
LINE
  5
1CA
330
1F
100
AcDbEntity
  8
0
  6
Continuous
 62
     7
370
    25
100
AcDbLine
 10
154.3713156287
 20
138.5206930781
 30
0.0
 11
154.2713139359
 21
138.5206930781
 31
0.0
  0
LINE
  5
1CB
330
1F
100
AcDbEntity
  8
0
  6
Continuous
 62
     7
370
    25
100
AcDbLine
 10
154.3713156287
 20
140.209516182
 30
0.0
 11
154.3713156287
 21
138.528493836
 31
0.0
  0
LINE
  5
1CC
330
1F
100
AcDbEntity
  8
0
  6
Continuous
 62
     7
370
    25
100
AcDbLine
 10
154.3713156287
 20
138.528493836
 30
0.0
 11
154.2713139359
 21
138.528493836
 31
0.0
  0
LINE
  5
1CD
330
1F
100
AcDbEntity
  8
0
  6
Continuous
 62
     7
370
    25
100
AcDbLine
 10
154.3713156287
 20
138.528493836
 30
0.0
 11
154.3713156287
 21
138.5206930781
 31
0.0
  0
ARC
  5
1CE
330
1F
100
AcDbEntity
  8
0
  6
Continuous
 62
     8
370
    25
100
AcDbCircle
 10
160.263031878
 20
144.6773079584
 30
0.0
 40
0.191716619380173
100
AcDbArc
 50
180.505148684
 51
241.4223643802
  0
LINE
  5
1CF
330
1F
100
AcDbEntity
  8
0
  6
Continuous
 62
     8
370
    25
100
AcDbLine
 10
156.5713230673
 20
153.8927235151
 30
0.0
 11
156.5713230673
 21
145.3935556555
 31
0.0
  0
ARC
  5
1D0
330
1F
100
AcDbEntity
  8
0
  6
Continuous
 62
     8
370
    25
100
AcDbCircle
 10
160.2310192979
 20
144.620338516
 30
0.0
 40
0.160016104862393
100
AcDbArc
 50
183.621385772
 51
248.0958153633
  0
LINE
  5
1D1
330
1F
100
AcDbEntity
  8
0
  6
Continuous
 62
     8
370
    25
100
AcDbLine
 10
117.0713175241
 20
119.3927206541
 30
0.0
 11
128.27132085
 21
119.3927206541
 31
0.0
  0
LINE
  5
1D2
330
1F
100
AcDbEntity
  8
0
  6
Continuous
 62
     8
370
    25
100
AcDbLine
 10
128.27132085
 20
158.8927187467
 30
0.0
 11
117.0713175241
 21
158.8927187467
 31
0.0
  0
LINE
  5
1D3
330
1F
100
AcDbEntity
  8
0
  6
Continuous
 62
     8
370
    25
100
AcDbLine
 10
154.8713240925
 20
143.142720356
 30
0.0
 11
154.8713240925
 21
156.142716899
 31
0.0
  0
LINE
  5
1D4
330
1F
100
AcDbEntity
  8
0
  6
Continuous
 62
     8
370
    25
100
AcDbLine
 10
155.3713176552
 20
144.1427223826
 30
0.0
 11
155.3713176552
 21
155.142722323
 31
0.0
  0
LINE
  5
1D5
330
1F
100
AcDbEntity
  8
0
  6
Continuous
 62
     8
370
    25
100
AcDbLine
 10
152.2713247839
 20
124.3927233363
 30
0.0
 11
152.2713247839
 21
122.3927192832
 31
0.0
  0
ENDSEC
  0
SECTION
  2
OBJECTS
  0
DICTIONARY
  5
C
330
0
100
AcDbDictionary
281
     1
  3
ACAD_GROUP
350
D
  3
ACAD_LAYOUT
350
1A
  3
ACAD_MLINESTYLE
350
17
  3
ACAD_PLOTSETTINGS
350
19
  3
ACAD_PLOTSTYLENAME
350
E
  3
ACAD_SCALELIST
350
47
  0
DICTIONARY
  5
D
102
{ACAD_REACTORS
330
C
102
}
330
C
100
AcDbDictionary
281
     1
  0
DICTIONARY
  5
1A
102
{ACAD_REACTORS
330
C
102
}
330
C
100
AcDbDictionary
281
     1
  3
Layout1
350
1E
  3
Layout2
350
26
  3
Model
350
22
  0
DICTIONARY
  5
17
102
{ACAD_REACTORS
330
C
102
}
330
C
100
AcDbDictionary
281
     1
  3
Standard
350
18
  0
DICTIONARY
  5
19
102
{ACAD_REACTORS
330
C
102
}
330
C
100
AcDbDictionary
281
     1
  0
ACDBDICTIONARYWDFLT
  5
E
102
{ACAD_REACTORS
330
C
102
}
330
C
100
AcDbDictionary
281
     1
  3
Normal
350
F
100
AcDbDictionaryWithDefault
340
F
  0
DICTIONARY
  5
47
102
{ACAD_REACTORS
330
C
102
}
330
C
100
AcDbDictionary
281
     1
  3
A0
350
48
  3
A1
350
49
  3
A2
350
4A
  3
A3
350
4B
  3
A4
350
4C
  3
A5
350
4D
  3
A6
350
4E
  3
A7
350
4F
  3
A8
350
50
  3
A9
350
51
  3
B0
350
52
  3
B1
350
53
  3
B2
350
54
  3
B3
350
55
  3
B4
350
56
  3
B5
350
57
  3
B6
350
58
  3
B7
350
59
  3
B8
350
5A
  3
B9
350
5B
  3
C0
350
5C
  3
C1
350
5D
  3
C2
350
5E
  3
C3
350
5F
  3
C4
350
60
  3
C5
350
61
  3
C6
350
62
  3
C7
350
63
  3
C8
350
64
  3
C9
350
65
  3
D0
350
66
  3
D1
350
67
  3
D2
350
68
  0
LAYOUT
  5
1E
102
{ACAD_REACTORS
330
1A
102
}
330
1A
100
AcDbPlotSettings
  1

  2
none_device
  4

  6

 40
0.0
 41
0.0
 42
0.0
 43
0.0
 44
0.0
 45
0.0
 46
0.0
 47
0.0
 48
0.0
 49
0.0
140
0.0
141
0.0
142
1.0
143
1.0
 70
   688
 72
     1
 73
     0
 74
     5
  7

 75
    16
147
1.0
148
0.0
149
0.0
100
AcDbLayout
  1
Layout1
 70
     1
 71
     1
 10
0.0
 20
0.0
 11
420.0
 21
297.0
 12
0.0
 22
0.0
 32
0.0
 14
1.0000000000E+20
 24
1.0000000000E+20
 34
1.0000000000E+20
 15
-1.0000000000E+20
 25
-1.0000000000E+20
 35
-1.0000000000E+20
146
0.0
 13
0.0
 23
0.0
 33
0.0
 16
1.0
 26
0.0
 36
0.0
 17
0.0
 27
1.0
 37
0.0
 76
     0
330
1B
  0
LAYOUT
  5
26
102
{ACAD_REACTORS
330
1A
102
}
330
1A
100
AcDbPlotSettings
  1

  2
none_device
  4

  6

 40
0.0
 41
0.0
 42
0.0
 43
0.0
 44
0.0
 45
0.0
 46
0.0
 47
0.0
 48
0.0
 49
0.0
140
0.0
141
0.0
142
1.0
143
1.0
 70
   688
 72
     1
 73
     0
 74
     5
  7

 75
    16
147
1.0
148
0.0
149
0.0
100
AcDbLayout
  1
Layout2
 70
     1
 71
     2
 10
0.0
 20
0.0
 11
0.0
 21
0.0
 12
0.0
 22
0.0
 32
0.0
 14
0.0
 24
0.0
 34
0.0
 15
0.0
 25
0.0
 35
0.0
146
0.0
 13
0.0
 23
0.0
 33
0.0
 16
1.0
 26
0.0
 36
0.0
 17
0.0
 27
1.0
 37
0.0
 76
     0
330
23
  0
LAYOUT
  5
22
102
{ACAD_REACTORS
330
1A
102
}
330
1A
100
AcDbPlotSettings
  1

  2
none_device
  4
Letter_(8.50_x_11.00_Inches)
  6

 40
6.35
 41
6.35
 42
6.35000508
 43
6.35000508
 44
215.9
 45
279.4
 46
0.0
 47
0.0
 48
0.0
 49
0.0
140
0.0
141
0.0
142
1.0
143
1.0
 70
  1712
 72
     1
 73
     0
 74
     0
  7

 75
     0
147
1.0
148
0.0
149
0.0
100
AcDbLayout
  1
Model
 70
     1
 71
     0
 10
0.0
 20
0.0
 11
400.0
 21
400.0
 12
0.0
 22
0.0
 32
0.0
 14
0.0
 24
0.0
 34
0.0
 15
400.0
 25
400.0
 35
0.0
146
0.0
 13
0.0
 23
0.0
 33
0.0
 16
1.0
 26
0.0
 36
0.0
 17
0.0
 27
1.0
 37
0.0
 76
     0
330
1F
331
29
  0
MLINESTYLE
  5
18
102
{ACAD_REACTORS
330
17
102
}
330
17
100
AcDbMlineStyle
  2
Standard
 70
     0
  3

 62
   256
 51
90.0
 52
90.0
 71
     2
 49
0.5
 62
   256
  6
BYLAYER
 49
-0.5
 62
   256
  6
BYLAYER
  0
ACDBPLACEHOLDER
  5
F
102
{ACAD_REACTORS
330
E
102
}
330
E
  0
SCALE
  5
48
102
{ACAD_REACTORS
330
47
102
}
330
47
100
AcDbScale
 70
     0
300
1:1
140
1.0
141
1.0
290
     1
  0
SCALE
  5
49
102
{ACAD_REACTORS
330
47
102
}
330
47
100
AcDbScale
 70
     0
300
1:2
140
1.0
141
2.0
290
     0
  0
SCALE
  5
4A
102
{ACAD_REACTORS
330
47
102
}
330
47
100
AcDbScale
 70
     0
300
1:4
140
1.0
141
4.0
290
     0
  0
SCALE
  5
4B
102
{ACAD_REACTORS
330
47
102
}
330
47
100
AcDbScale
 70
     0
300
1:5
140
1.0
141
5.0
290
     0
  0
SCALE
  5
4C
102
{ACAD_REACTORS
330
47
102
}
330
47
100
AcDbScale
 70
     0
300
1:8
140
1.0
141
8.0
290
     0
  0
SCALE
  5
4D
102
{ACAD_REACTORS
330
47
102
}
330
47
100
AcDbScale
 70
     0
300
1:10
140
1.0
141
10.0
290
     0
  0
SCALE
  5
4E
102
{ACAD_REACTORS
330
47
102
}
330
47
100
AcDbScale
 70
     0
300
1:16
140
1.0
141
16.0
290
     0
  0
SCALE
  5
4F
102
{ACAD_REACTORS
330
47
102
}
330
47
100
AcDbScale
 70
     0
300
1:20
140
1.0
141
20.0
290
     0
  0
SCALE
  5
50
102
{ACAD_REACTORS
330
47
102
}
330
47
100
AcDbScale
 70
     0
300
1:30
140
1.0
141
30.0
290
     0
  0
SCALE
  5
51
102
{ACAD_REACTORS
330
47
102
}
330
47
100
AcDbScale
 70
     0
300
1:40
140
1.0
141
40.0
290
     0
  0
SCALE
  5
52
102
{ACAD_REACTORS
330
47
102
}
330
47
100
AcDbScale
 70
     0
300
1:50
140
1.0
141
50.0
290
     0
  0
SCALE
  5
53
102
{ACAD_REACTORS
330
47
102
}
330
47
100
AcDbScale
 70
     0
300
1:100
140
1.0
141
100.0
290
     0
  0
SCALE
  5
54
102
{ACAD_REACTORS
330
47
102
}
330
47
100
AcDbScale
 70
     0
300
2:1
140
2.0
141
1.0
290
     0
  0
SCALE
  5
55
102
{ACAD_REACTORS
330
47
102
}
330
47
100
AcDbScale
 70
     0
300
4:1
140
4.0
141
1.0
290
     0
  0
SCALE
  5
56
102
{ACAD_REACTORS
330
47
102
}
330
47
100
AcDbScale
 70
     0
300
8:1
140
8.0
141
1.0
290
     0
  0
SCALE
  5
57
102
{ACAD_REACTORS
330
47
102
}
330
47
100
AcDbScale
 70
     0
300
10:1
140
10.0
141
1.0
290
     0
  0
SCALE
  5
58
102
{ACAD_REACTORS
330
47
102
}
330
47
100
AcDbScale
 70
     0
300
100:1
140
100.0
141
1.0
290
     0
  0
SCALE
  5
59
102
{ACAD_REACTORS
330
47
102
}
330
47
100
AcDbScale
 70
     0
300
1/128" = 1'-0"
140
0.0078125
141
12.0
290
     0
  0
SCALE
  5
5A
102
{ACAD_REACTORS
330
47
102
}
330
47
100
AcDbScale
 70
     0
300
1/64" = 1'-0"
140
0.015625
141
12.0
290
     0
  0
SCALE
  5
5B
102
{ACAD_REACTORS
330
47
102
}
330
47
100
AcDbScale
 70
     0
300
1/32" = 1'-0"
140
0.03125
141
12.0
290
     0
  0
SCALE
  5
5C
102
{ACAD_REACTORS
330
47
102
}
330
47
100
AcDbScale
 70
     0
300
1/16" = 1'-0"
140
0.0625
141
12.0
290
     0
  0
SCALE
  5
5D
102
{ACAD_REACTORS
330
47
102
}
330
47
100
AcDbScale
 70
     0
300
3/32" = 1'-0"
140
0.09375
141
12.0
290
     0
  0
SCALE
  5
5E
102
{ACAD_REACTORS
330
47
102
}
330
47
100
AcDbScale
 70
     0
300
1/8" = 1'-0"
140
0.125
141
12.0
290
     0
  0
SCALE
  5
5F
102
{ACAD_REACTORS
330
47
102
}
330
47
100
AcDbScale
 70
     0
300
3/16" = 1'-0"
140
0.1875
141
12.0
290
     0
  0
SCALE
  5
60
102
{ACAD_REACTORS
330
47
102
}
330
47
100
AcDbScale
 70
     0
300
1/4" = 1'-0"
140
0.25
141
12.0
290
     0
  0
SCALE
  5
61
102
{ACAD_REACTORS
330
47
102
}
330
47
100
AcDbScale
 70
     0
300
3/8" = 1'-0"
140
0.375
141
12.0
290
     0
  0
SCALE
  5
62
102
{ACAD_REACTORS
330
47
102
}
330
47
100
AcDbScale
 70
     0
300
1/2" = 1'-0"
140
0.5
141
12.0
290
     0
  0
SCALE
  5
63
102
{ACAD_REACTORS
330
47
102
}
330
47
100
AcDbScale
 70
     0
300
3/4" = 1'-0"
140
0.75
141
12.0
290
     0
  0
SCALE
  5
64
102
{ACAD_REACTORS
330
47
102
}
330
47
100
AcDbScale
 70
     0
300
1" = 1'-0"
140
1.0
141
12.0
290
     0
  0
SCALE
  5
65
102
{ACAD_REACTORS
330
47
102
}
330
47
100
AcDbScale
 70
     0
300
1-1/2" = 1'-0"
140
1.5
141
12.0
290
     0
  0
SCALE
  5
66
102
{ACAD_REACTORS
330
47
102
}
330
47
100
AcDbScale
 70
     0
300
3" = 1'-0"
140
3.0
141
12.0
290
     0
  0
SCALE
  5
67
102
{ACAD_REACTORS
330
47
102
}
330
47
100
AcDbScale
 70
     0
300
6" = 1'-0"
140
6.0
141
12.0
290
     0
  0
SCALE
  5
68
102
{ACAD_REACTORS
330
47
102
}
330
47
100
AcDbScale
 70
     0
300
1'-0" = 1'-0"
140
12.0
141
12.0
290
     0
  0
ENDSEC
  0
EOF
