  0
SECTION
  2
HEADER
  9
$ACADVER
  1
AC1009
  9
$FILLMODE
 70
0
  9
$EXTMIN
 10
-5.6748
 20
-5.0800
 30
0.0000
  9
$EXTMAX
 10
122.2248
 20
16.7640
 30
0.0000
  0
ENDSEC
  0
SECTION
  2
TABLES
  0
TABLE
  2
LTYPE
 70
1
  0
LTYPE
  2
CONTINUOUS
 70
64
  3
Solid line
 72
65
 73
0
 40
0
  0
ENDTAB
  0
TABLE
  2
LAYER
 70
255
  0
LAYER
  2
16
 70
64
 62
175
  6
CONTINUOUS
  0
LAYER
  2
17
 70
64
 62
82
  6
CONTINUOUS
  0
LAYER
  2
20
 70
64
 62
30
  6
CONTINUOUS
  0
LAYER
  2
44
 70
64
 62
253
  6
CONTINUOUS
  0
LAYER
  2
45
 70
64
 62
253
  6
CONTINUOUS
  0
ENDTAB
  0
ENDSEC
  0
SECTION
  2
BLOCKS
  0
BLOCK
  8
0
  2
RECT
 70
64
 10
0.0000
 20
0.0000
 30
0.0000
  3
RECT
  0
SOLID
  8
0
 10
-0.5000
 20
-0.5000
 30
0.0000
 11
0.5000
 21
-0.5000
 31
0.0000
 12
-0.5000
 22
0.5000
 32
0.0000
 13
0.5000
 23
0.5000
 33
0.0000
  0
ENDBLK
  8
0
  0
BLOCK
  8
0
  2
PIE
 70
64
 10
0.0000
 20
0.0000
 30
0.0000
  3
PIE
  0
CIRCLE
  8
0
 10
0.0000
 20
0.0000
 30
0.0000
 40
0.5000
  0
ENDBLK
  8
0
  0
BLOCK
  8
0
  2
OCTAGONP
 70
64
 10
0.0000
 20
0.0000
 30
0.0000
  3
OCTAGONP
  0
POLYLINE
  8
0
 66
1
 10
0.0000
 20
0.0000
 30
0.0000
 40
0.0000
 41
0.0000
 70
1
  0
VERTEX
  8
0
 10
-0.5000
 20
-0.2071
 30
0.0000
  0
VERTEX
  8
0
 10
-0.5000
 20
0.2071
 30
0.0000
  0
VERTEX
  8
0
 10
-0.2071
 20
0.5000
 30
0.0000
  0
VERTEX
  8
0
 10
0.2071
 20
0.5000
 30
0.0000
  0
VERTEX
  8
0
 10
0.5000
 20
0.2071
 30
0.0000
  0
VERTEX
  8
0
 10
0.5000
 20
-0.2071
 30
0.0000
  0
VERTEX
  8
0
 10
0.2071
 20
-0.5000
 30
0.0000
  0
VERTEX
  8
0
 10
-0.2071
 20
-0.5000
 30
0.0000
  0
SEQEND
  8
0
  0
ENDBLK
  8
0
  0
BLOCK
  8
0
  2
SQUAREP
 70
64
 10
0.0000
 20
0.0000
 30
0.0000
  3
SQUAREP
  0
SOLID
  8
0
 10
-0.5000
 20
-0.5000
 30
0.0000
 11
0.5000
 21
-0.5000
 31
0.0000
 12
-0.5000
 22
0.5000
 32
0.0000
 13
0.5000
 23
0.5000
 33
0.0000
  0
ENDBLK
  8
0
  0
BLOCK
  8
0
  2
ROUNDP
 70
64
 10
0.0000
 20
0.0000
 30
0.0000
  3
ROUNDP
  0
CIRCLE
  8
0
 10
0.0000
 20
0.0000
 30
0.0000
 40
0.5000
  0
ENDBLK
  8
0
  0
BLOCK
  8
0
  2
ANNULUSP
 70
64
 10
0.0000
 20
0.0000
 30
0.0000
  3
ANNULUSP
  0
CIRCLE
  8
0
 10
0.0000
 20
0.0000
 30
0.0000
 40
0.5000
  0
ENDBLK
  8
0
  0
BLOCK
  8
0
  2
THERMALP
 70
64
 10
0.0000
 20
0.0000
 30
0.0000
  3
THERMALP
  0
POLYLINE
  8
0
 66
1
 10
0.0000
 20
0.0000
 30
0.0000
 40
0.0000
 41
0.0000
 70
1
  0
VERTEX
  8
0
 10
-0.2379
 20
0.4000
 30
0.0000
  0
VERTEX
  8
0
 10
0.2379
 20
0.4000
 30
0.0000
 42
1.0000
  0
VERTEX
  8
0
 10
0.2379
 20
0.5000
 30
0.0000
  0
VERTEX
  8
0
 10
-0.2379
 20
0.5000
 30
0.0000
 42
1.0000
  0
SEQEND
  8
0
  0
POLYLINE
  8
0
 66
1
 10
0.0000
 20
0.0000
 30
0.0000
 40
0.0000
 41
0.0000
 70
1
  0
VERTEX
  8
0
 10
0.4000
 20
0.2379
 30
0.0000
  0
VERTEX
  8
0
 10
0.4000
 20
-0.2379
 30
0.0000
 42
1.0000
  0
VERTEX
  8
0
 10
0.5000
 20
-0.2379
 30
0.0000
  0
VERTEX
  8
0
 10
0.5000
 20
0.2379
 30
0.0000
 42
1.0000
  0
SEQEND
  8
0
  0
POLYLINE
  8
0
 66
1
 10
0.0000
 20
0.0000
 30
0.0000
 40
0.0000
 41
0.0000
 70
1
  0
VERTEX
  8
0
 10
0.2379
 20
-0.4000
 30
0.0000
  0
VERTEX
  8
0
 10
-0.2379
 20
-0.4000
 30
0.0000
 42
1.0000
  0
VERTEX
  8
0
 10
-0.2379
 20
-0.5000
 30
0.0000
  0
VERTEX
  8
0
 10
0.2379
 20
-0.5000
 30
0.0000
 42
1.0000
  0
SEQEND
  8
0
  0
POLYLINE
  8
0
 66
1
 10
0.0000
 20
0.0000
 30
0.0000
 40
0.0000
 41
0.0000
 70
1
  0
VERTEX
  8
0
 10
-0.4000
 20
-0.2379
 30
0.0000
  0
VERTEX
  8
0
 10
-0.4000
 20
0.2379
 30
0.0000
 42
1.0000
  0
VERTEX
  8
0
 10
-0.5000
 20
0.2379
 30
0.0000
  0
VERTEX
  8
0
 10
-0.5000
 20
-0.2379
 30
0.0000
 42
1.0000
  0
SEQEND
  8
0
  0
ENDBLK
  8
0
  0
BLOCK
  8
0
  2
OCTAGONV
 70
64
 10
0.0000
 20
0.0000
 30
0.0000
  3
OCTAGONV
  0
POLYLINE
  8
0
 66
1
 10
0.0000
 20
0.0000
 30
0.0000
 40
0.0000
 41
0.0000
 70
1
  0
VERTEX
  8
0
 10
-0.5000
 20
-0.2071
 30
0.0000
  0
VERTEX
  8
0
 10
-0.5000
 20
0.2071
 30
0.0000
  0
VERTEX
  8
0
 10
-0.2071
 20
0.5000
 30
0.0000
  0
VERTEX
  8
0
 10
0.2071
 20
0.5000
 30
0.0000
  0
VERTEX
  8
0
 10
0.5000
 20
0.2071
 30
0.0000
  0
VERTEX
  8
0
 10
0.5000
 20
-0.2071
 30
0.0000
  0
VERTEX
  8
0
 10
0.2071
 20
-0.5000
 30
0.0000
  0
VERTEX
  8
0
 10
-0.2071
 20
-0.5000
 30
0.0000
  0
SEQEND
  8
0
  0
ENDBLK
  8
0
  0
BLOCK
  8
0
  2
SQUAREV
 70
64
 10
0.0000
 20
0.0000
 30
0.0000
  3
SQUAREV
  0
SOLID
  8
0
 10
-0.5000
 20
-0.5000
 30
0.0000
 11
0.5000
 21
-0.5000
 31
0.0000
 12
-0.5000
 22
0.5000
 32
0.0000
 13
0.5000
 23
0.5000
 33
0.0000
  0
ENDBLK
  8
0
  0
BLOCK
  8
0
  2
ROUNDV
 70
64
 10
0.0000
 20
0.0000
 30
0.0000
  3
ROUNDV
  0
CIRCLE
  8
0
 10
0.0000
 20
0.0000
 30
0.0000
 40
0.5000
  0
ENDBLK
  8
0
  0
BLOCK
  8
0
  2
ANNULUSV
 70
64
 10
0.0000
 20
0.0000
 30
0.0000
  3
ANNULUSV
  0
CIRCLE
  8
0
 10
0.0000
 20
0.0000
 30
0.0000
 40
0.5000
  0
ENDBLK
  8
0
  0
BLOCK
  8
0
  2
THERMALV
 70
64
 10
0.0000
 20
0.0000
 30
0.0000
  3
THERMALV
  0
POLYLINE
  8
0
 66
1
 10
0.0000
 20
0.0000
 30
0.0000
 40
0.0000
 41
0.0000
 70
1
  0
VERTEX
  8
0
 10
-0.2379
 20
0.4000
 30
0.0000
  0
VERTEX
  8
0
 10
0.2379
 20
0.4000
 30
0.0000
 42
1.0000
  0
VERTEX
  8
0
 10
0.2379
 20
0.5000
 30
0.0000
  0
VERTEX
  8
0
 10
-0.2379
 20
0.5000
 30
0.0000
 42
1.0000
  0
SEQEND
  8
0
  0
POLYLINE
  8
0
 66
1
 10
0.0000
 20
0.0000
 30
0.0000
 40
0.0000
 41
0.0000
 70
1
  0
VERTEX
  8
0
 10
0.4000
 20
0.2379
 30
0.0000
  0
VERTEX
  8
0
 10
0.4000
 20
-0.2379
 30
0.0000
 42
1.0000
  0
VERTEX
  8
0
 10
0.5000
 20
-0.2379
 30
0.0000
  0
VERTEX
  8
0
 10
0.5000
 20
0.2379
 30
0.0000
 42
1.0000
  0
SEQEND
  8
0
  0
POLYLINE
  8
0
 66
1
 10
0.0000
 20
0.0000
 30
0.0000
 40
0.0000
 41
0.0000
 70
1
  0
VERTEX
  8
0
 10
0.2379
 20
-0.4000
 30
0.0000
  0
VERTEX
  8
0
 10
-0.2379
 20
-0.4000
 30
0.0000
 42
1.0000
  0
VERTEX
  8
0
 10
-0.2379
 20
-0.5000
 30
0.0000
  0
VERTEX
  8
0
 10
0.2379
 20
-0.5000
 30
0.0000
 42
1.0000
  0
SEQEND
  8
0
  0
POLYLINE
  8
0
 66
1
 10
0.0000
 20
0.0000
 30
0.0000
 40
0.0000
 41
0.0000
 70
1
  0
VERTEX
  8
0
 10
-0.4000
 20
-0.2379
 30
0.0000
  0
VERTEX
  8
0
 10
-0.4000
 20
0.2379
 30
0.0000
 42
1.0000
  0
VERTEX
  8
0
 10
-0.5000
 20
0.2379
 30
0.0000
  0
VERTEX
  8
0
 10
-0.5000
 20
-0.2379
 30
0.0000
 42
1.0000
  0
SEQEND
  8
0
  0
ENDBLK
  8
0
  0
ENDSEC
  0
SECTION
  2
ENTITIES
  0
POLYLINE
  8
20
 66
1
 10
0.0000
 20
0.0000
 30
0.0000
 40
0.0000
 41
0.0000
 70
1
  0
VERTEX
  8
20
 10
0.0762
 20
2.5400
 30
0.0000
  0
VERTEX
  8
20
 10
0.0762
 20
11.4300
 30
0.0000
 42
1.0000
  0
VERTEX
  8
20
 10
-0.0762
 20
11.4300
 30
0.0000
  0
VERTEX
  8
20
 10
-0.0762
 20
2.5400
 30
0.0000
 42
1.0000
  0
SEQEND
  8
0
  0
POLYLINE
  8
20
 66
1
 10
0.0000
 20
0.0000
 30
0.0000
 40
0.0000
 41
0.0000
 70
1
  0
VERTEX
  8
20
 10
0.0539
 20
11.3761
 30
0.0000
  0
VERTEX
  8
20
 10
2.5939
 20
13.9161
 30
0.0000
 42
1.0000
  0
VERTEX
  8
20
 10
2.4861
 20
14.0239
 30
0.0000
  0
VERTEX
  8
20
 10
-0.0539
 20
11.4839
 30
0.0000
 42
1.0000
  0
SEQEND
  8
0
  0
POLYLINE
  8
20
 66
1
 10
0.0000
 20
0.0000
 30
0.0000
 40
0.0000
 41
0.0000
 70
1
  0
VERTEX
  8
20
 10
2.5400
 20
13.8938
 30
0.0000
  0
VERTEX
  8
20
 10
118.1100
 20
13.8938
 30
0.0000
 42
1.0000
  0
VERTEX
  8
20
 10
118.1100
 20
14.0462
 30
0.0000
  0
VERTEX
  8
20
 10
2.5400
 20
14.0462
 30
0.0000
 42
1.0000
  0
SEQEND
  8
0
  0
POLYLINE
  8
20
 66
1
 10
0.0000
 20
0.0000
 30
0.0000
 40
0.0000
 41
0.0000
 70
1
  0
VERTEX
  8
20
 10
118.0561
 20
13.9161
 30
0.0000
  0
VERTEX
  8
20
 10
120.5961
 20
11.3761
 30
0.0000
 42
1.0000
  0
VERTEX
  8
20
 10
120.7039
 20
11.4839
 30
0.0000
  0
VERTEX
  8
20
 10
118.1639
 20
14.0239
 30
0.0000
 42
1.0000
  0
SEQEND
  8
0
  0
POLYLINE
  8
20
 66
1
 10
0.0000
 20
0.0000
 30
0.0000
 40
0.0000
 41
0.0000
 70
1
  0
VERTEX
  8
20
 10
120.5738
 20
11.4300
 30
0.0000
  0
VERTEX
  8
20
 10
120.5738
 20
2.5400
 30
0.0000
 42
1.0000
  0
VERTEX
  8
20
 10
120.7262
 20
2.5400
 30
0.0000
  0
VERTEX
  8
20
 10
120.7262
 20
11.4300
 30
0.0000
 42
1.0000
  0
SEQEND
  8
0
  0
POLYLINE
  8
20
 66
1
 10
0.0000
 20
0.0000
 30
0.0000
 40
0.0000
 41
0.0000
 70
1
  0
VERTEX
  8
20
 10
120.5961
 20
2.5939
 30
0.0000
  0
VERTEX
  8
20
 10
118.0561
 20
0.0539
 30
0.0000
 42
1.0000
  0
VERTEX
  8
20
 10
118.1639
 20
-0.0539
 30
0.0000
  0
VERTEX
  8
20
 10
120.7039
 20
2.4861
 30
0.0000
 42
1.0000
  0
SEQEND
  8
0
  0
POLYLINE
  8
20
 66
1
 10
0.0000
 20
0.0000
 30
0.0000
 40
0.0000
 41
0.0000
 70
1
  0
VERTEX
  8
20
 10
118.1100
 20
0.0762
 30
0.0000
  0
VERTEX
  8
20
 10
2.5400
 20
0.0762
 30
0.0000
 42
1.0000
  0
VERTEX
  8
20
 10
2.5400
 20
-0.0762
 30
0.0000
  0
VERTEX
  8
20
 10
118.1100
 20
-0.0762
 30
0.0000
 42
1.0000
  0
SEQEND
  8
0
  0
POLYLINE
  8
20
 66
1
 10
0.0000
 20
0.0000
 30
0.0000
 40
0.0000
 41
0.0000
 70
1
  0
VERTEX
  8
20
 10
2.5939
 20
0.0539
 30
0.0000
  0
VERTEX
  8
20
 10
0.0539
 20
2.5939
 30
0.0000
 42
1.0000
  0
VERTEX
  8
20
 10
-0.0539
 20
2.4861
 30
0.0000
  0
VERTEX
  8
20
 10
2.4861
 20
-0.0539
 30
0.0000
 42
1.0000
  0
SEQEND
  8
0
  0
CIRCLE
  8
20
 10
5.0800
 20
6.3500
 30
0.0000
 40
1.8000
  0
CIRCLE
  8
20
 10
115.5700
 20
6.3500
 30
0.0000
 40
1.8000
  0
INSERT
  8
17
  2
SQUAREP
 10
103.9622
 20
5.0800
 30
0.0000
 41
2.0320
 42
2.0320
 43
1.0000
 50
0.0000
  0
CIRCLE
  8
44
 10
103.9622
 20
5.0800
 30
0.0000
 40
0.6000
  0
INSERT
  8
17
  2
ROUNDP
 10
107.8178
 20
5.0800
 30
0.0000
 41
2.0320
 42
2.0320
 43
1.0000
 50
0.0000
  0
CIRCLE
  8
44
 10
107.8178
 20
5.0800
 30
0.0000
 40
0.6000
  0
INSERT
  8
17
  2
SQUAREP
 10
92.5322
 20
5.0800
 30
0.0000
 41
2.0320
 42
2.0320
 43
1.0000
 50
0.0000
  0
CIRCLE
  8
44
 10
92.5322
 20
5.0800
 30
0.0000
 40
0.6000
  0
INSERT
  8
17
  2
ROUNDP
 10
96.3878
 20
5.0800
 30
0.0000
 41
2.0320
 42
2.0320
 43
1.0000
 50
0.0000
  0
CIRCLE
  8
44
 10
96.3878
 20
5.0800
 30
0.0000
 40
0.6000
  0
INSERT
  8
17
  2
SQUAREP
 10
81.1022
 20
5.0800
 30
0.0000
 41
2.0320
 42
2.0320
 43
1.0000
 50
0.0000
  0
CIRCLE
  8
44
 10
81.1022
 20
5.0800
 30
0.0000
 40
0.6000
  0
INSERT
  8
17
  2
ROUNDP
 10
84.9578
 20
5.0800
 30
0.0000
 41
2.0320
 42
2.0320
 43
1.0000
 50
0.0000
  0
CIRCLE
  8
44
 10
84.9578
 20
5.0800
 30
0.0000
 40
0.6000
  0
INSERT
  8
17
  2
SQUAREP
 10
69.6722
 20
5.0800
 30
0.0000
 41
2.0320
 42
2.0320
 43
1.0000
 50
0.0000
  0
CIRCLE
  8
44
 10
69.6722
 20
5.0800
 30
0.0000
 40
0.6000
  0
INSERT
  8
17
  2
ROUNDP
 10
73.5278
 20
5.0800
 30
0.0000
 41
2.0320
 42
2.0320
 43
1.0000
 50
0.0000
  0
CIRCLE
  8
44
 10
73.5278
 20
5.0800
 30
0.0000
 40
0.6000
  0
INSERT
  8
17
  2
SQUAREP
 10
58.2422
 20
5.0800
 30
0.0000
 41
2.0320
 42
2.0320
 43
1.0000
 50
0.0000
  0
CIRCLE
  8
44
 10
58.2422
 20
5.0800
 30
0.0000
 40
0.6000
  0
INSERT
  8
17
  2
ROUNDP
 10
62.0978
 20
5.0800
 30
0.0000
 41
2.0320
 42
2.0320
 43
1.0000
 50
0.0000
  0
CIRCLE
  8
44
 10
62.0978
 20
5.0800
 30
0.0000
 40
0.6000
  0
INSERT
  8
17
  2
SQUAREP
 10
46.8122
 20
5.0800
 30
0.0000
 41
2.0320
 42
2.0320
 43
1.0000
 50
0.0000
  0
CIRCLE
  8
44
 10
46.8122
 20
5.0800
 30
0.0000
 40
0.6000
  0
INSERT
  8
17
  2
ROUNDP
 10
50.6678
 20
5.0800
 30
0.0000
 41
2.0320
 42
2.0320
 43
1.0000
 50
0.0000
  0
CIRCLE
  8
44
 10
50.6678
 20
5.0800
 30
0.0000
 40
0.6000
  0
INSERT
  8
17
  2
SQUAREP
 10
35.3822
 20
5.0800
 30
0.0000
 41
2.0320
 42
2.0320
 43
1.0000
 50
0.0000
  0
CIRCLE
  8
44
 10
35.3822
 20
5.0800
 30
0.0000
 40
0.6000
  0
INSERT
  8
17
  2
ROUNDP
 10
39.2378
 20
5.0800
 30
0.0000
 41
2.0320
 42
2.0320
 43
1.0000
 50
0.0000
  0
CIRCLE
  8
44
 10
39.2378
 20
5.0800
 30
0.0000
 40
0.6000
  0
INSERT
  8
17
  2
SQUAREP
 10
23.9522
 20
5.0800
 30
0.0000
 41
2.0320
 42
2.0320
 43
1.0000
 50
0.0000
  0
CIRCLE
  8
44
 10
23.9522
 20
5.0800
 30
0.0000
 40
0.6000
  0
INSERT
  8
17
  2
ROUNDP
 10
27.8078
 20
5.0800
 30
0.0000
 41
2.0320
 42
2.0320
 43
1.0000
 50
0.0000
  0
CIRCLE
  8
44
 10
27.8078
 20
5.0800
 30
0.0000
 40
0.6000
  0
INSERT
  8
17
  2
SQUAREP
 10
16.6878
 20
5.0800
 30
0.0000
 41
2.0320
 42
2.0320
 43
1.0000
 50
180.0000
  0
CIRCLE
  8
44
 10
16.6878
 20
5.0800
 30
0.0000
 40
0.6000
  0
INSERT
  8
17
  2
ROUNDP
 10
12.8322
 20
5.0800
 30
0.0000
 41
2.0320
 42
2.0320
 43
1.0000
 50
180.0000
  0
CIRCLE
  8
44
 10
12.8322
 20
5.0800
 30
0.0000
 40
0.6000
  0
INSERT
  8
17
  2
OCTAGONP
 10
100.3300
 20
10.1600
 30
0.0000
 41
1.3208
 42
1.3208
 43
1.0000
 50
270.0000
  0
CIRCLE
  8
44
 10
100.3300
 20
10.1600
 30
0.0000
 40
0.4064
  0
INSERT
  8
17
  2
OCTAGONP
 10
100.3300
 20
2.5400
 30
0.0000
 41
1.3208
 42
1.3208
 43
1.0000
 50
270.0000
  0
CIRCLE
  8
44
 10
100.3300
 20
2.5400
 30
0.0000
 40
0.4064
  0
INSERT
  8
17
  2
OCTAGONP
 10
88.9000
 20
2.5400
 30
0.0000
 41
1.3208
 42
1.3208
 43
1.0000
 50
90.0000
  0
CIRCLE
  8
44
 10
88.9000
 20
2.5400
 30
0.0000
 40
0.4064
  0
INSERT
  8
17
  2
OCTAGONP
 10
88.9000
 20
10.1600
 30
0.0000
 41
1.3208
 42
1.3208
 43
1.0000
 50
90.0000
  0
CIRCLE
  8
44
 10
88.9000
 20
10.1600
 30
0.0000
 40
0.4064
  0
INSERT
  8
17
  2
OCTAGONP
 10
77.4700
 20
2.5400
 30
0.0000
 41
1.3208
 42
1.3208
 43
1.0000
 50
90.0000
  0
CIRCLE
  8
44
 10
77.4700
 20
2.5400
 30
0.0000
 40
0.4064
  0
INSERT
  8
17
  2
OCTAGONP
 10
77.4700
 20
10.1600
 30
0.0000
 41
1.3208
 42
1.3208
 43
1.0000
 50
90.0000
  0
CIRCLE
  8
44
 10
77.4700
 20
10.1600
 30
0.0000
 40
0.4064
  0
INSERT
  8
17
  2
OCTAGONP
 10
66.0400
 20
2.5400
 30
0.0000
 41
1.3208
 42
1.3208
 43
1.0000
 50
90.0000
  0
CIRCLE
  8
44
 10
66.0400
 20
2.5400
 30
0.0000
 40
0.4064
  0
INSERT
  8
17
  2
OCTAGONP
 10
66.0400
 20
10.1600
 30
0.0000
 41
1.3208
 42
1.3208
 43
1.0000
 50
90.0000
  0
CIRCLE
  8
44
 10
66.0400
 20
10.1600
 30
0.0000
 40
0.4064
  0
INSERT
  8
17
  2
OCTAGONP
 10
54.6100
 20
2.5400
 30
0.0000
 41
1.3208
 42
1.3208
 43
1.0000
 50
90.0000
  0
CIRCLE
  8
44
 10
54.6100
 20
2.5400
 30
0.0000
 40
0.4064
  0
INSERT
  8
17
  2
OCTAGONP
 10
54.6100
 20
10.1600
 30
0.0000
 41
1.3208
 42
1.3208
 43
1.0000
 50
90.0000
  0
CIRCLE
  8
44
 10
54.6100
 20
10.1600
 30
0.0000
 40
0.4064
  0
INSERT
  8
17
  2
OCTAGONP
 10
43.1800
 20
2.5400
 30
0.0000
 41
1.3208
 42
1.3208
 43
1.0000
 50
90.0000
  0
CIRCLE
  8
44
 10
43.1800
 20
2.5400
 30
0.0000
 40
0.4064
  0
INSERT
  8
17
  2
OCTAGONP
 10
43.1800
 20
10.1600
 30
0.0000
 41
1.3208
 42
1.3208
 43
1.0000
 50
90.0000
  0
CIRCLE
  8
44
 10
43.1800
 20
10.1600
 30
0.0000
 40
0.4064
  0
INSERT
  8
17
  2
OCTAGONP
 10
31.7500
 20
2.5400
 30
0.0000
 41
1.3208
 42
1.3208
 43
1.0000
 50
90.0000
  0
CIRCLE
  8
44
 10
31.7500
 20
2.5400
 30
0.0000
 40
0.4064
  0
INSERT
  8
17
  2
OCTAGONP
 10
31.7500
 20
10.1600
 30
0.0000
 41
1.3208
 42
1.3208
 43
1.0000
 50
90.0000
  0
CIRCLE
  8
44
 10
31.7500
 20
10.1600
 30
0.0000
 40
0.4064
  0
INSERT
  8
17
  2
OCTAGONP
 10
20.3200
 20
2.5400
 30
0.0000
 41
1.3208
 42
1.3208
 43
1.0000
 50
90.0000
  0
CIRCLE
  8
44
 10
20.3200
 20
2.5400
 30
0.0000
 40
0.4064
  0
INSERT
  8
17
  2
OCTAGONP
 10
20.3200
 20
10.1600
 30
0.0000
 41
1.3208
 42
1.3208
 43
1.0000
 50
90.0000
  0
CIRCLE
  8
44
 10
20.3200
 20
10.1600
 30
0.0000
 40
0.4064
  0
POLYLINE
  8
16
 66
1
 10
0.0000
 20
0.0000
 30
0.0000
 40
0.0000
 41
0.0000
 70
1
  0
VERTEX
  8
16
 10
106.1974
 20
3.8821
 30
0.0000
  0
VERTEX
  8
16
 10
106.1974
 20
6.2779
 30
0.0000
 42
1.0000
  0
VERTEX
  8
16
 10
105.5878
 20
6.2779
 30
0.0000
  0
VERTEX
  8
16
 10
105.5878
 20
3.8821
 30
0.0000
 42
1.0000
  0
SEQEND
  8
0
  0
POLYLINE
  8
16
 66
1
 10
0.0000
 20
0.0000
 30
0.0000
 40
0.0000
 41
0.0000
 70
1
  0
VERTEX
  8
16
 10
106.1742
 20
6.3945
 30
0.0000
  0
VERTEX
  8
16
 10
106.0350
 20
6.7306
 30
0.0000
 42
1.0000
  0
VERTEX
  8
16
 10
105.4718
 20
6.4973
 30
0.0000
  0
VERTEX
  8
16
 10
105.6110
 20
6.1612
 30
0.0000
 42
1.0000
  0
SEQEND
  8
0
  0
POLYLINE
  8
16
 66
1
 10
0.0000
 20
0.0000
 30
0.0000
 40
0.0000
 41
0.0000
 70
1
  0
VERTEX
  8
16
 10
105.9689
 20
6.8295
 30
0.0000
  0
VERTEX
  8
16
 10
105.7117
 20
7.0867
 30
0.0000
 42
1.0000
  0
VERTEX
  8
16
 10
105.2806
 20
6.6557
 30
0.0000
  0
VERTEX
  8
16
 10
105.5379
 20
6.3984
 30
0.0000
 42
1.0000
  0
SEQEND
  8
0
  0
POLYLINE
  8
16
 66
1
 10
0.0000
 20
0.0000
 30
0.0000
 40
0.0000
 41
0.0000
 70
1
  0
VERTEX
  8
16
 10
105.6128
 20
7.1528
 30
0.0000
  0
VERTEX
  8
16
 10
105.2767
 20
7.2920
 30
0.0000
 42
1.0000
  0
VERTEX
  8
16
 10
105.0434
 20
6.7288
 30
0.0000
  0
VERTEX
  8
16
 10
105.3795
 20
6.5896
 30
0.0000
 42
1.0000
  0
SEQEND
  8
0
  0
POLYLINE
  8
16
 66
1
 10
0.0000
 20
0.0000
 30
0.0000
 40
0.0000
 41
0.0000
 70
1
  0
VERTEX
  8
16
 10
105.1601
 20
7.3152
 30
0.0000
  0
VERTEX
  8
16
 10
102.7643
 20
7.3152
 30
0.0000
 42
1.0000
  0
VERTEX
  8
16
 10
102.7643
 20
6.7056
 30
0.0000
  0
VERTEX
  8
16
 10
105.1601
 20
6.7056
 30
0.0000
 42
1.0000
  0
SEQEND
  8
0
  0
POLYLINE
  8
16
 66
1
 10
0.0000
 20
0.0000
 30
0.0000
 40
0.0000
 41
0.0000
 70
1
  0
VERTEX
  8
16
 10
102.6477
 20
7.2920
 30
0.0000
  0
VERTEX
  8
16
 10
102.3116
 20
7.1528
 30
0.0000
 42
1.0000
  0
VERTEX
  8
16
 10
102.5449
 20
6.5896
 30
0.0000
  0
VERTEX
  8
16
 10
102.8810
 20
6.7288
 30
0.0000
 42
1.0000
  0
SEQEND
  8
0
  0
POLYLINE
  8
16
 66
1
 10
0.0000
 20
0.0000
 30
0.0000
 40
0.0000
 41
0.0000
 70
1
  0
VERTEX
  8
16
 10
102.2127
 20
7.0867
 30
0.0000
  0
VERTEX
  8
16
 10
101.9555
 20
6.8295
 30
0.0000
 42
1.0000
  0
VERTEX
  8
16
 10
102.3865
 20
6.3984
 30
0.0000
  0
VERTEX
  8
16
 10
102.6438
 20
6.6557
 30
0.0000
 42
1.0000
  0
SEQEND
  8
0
  0
POLYLINE
  8
16
 66
1
 10
0.0000
 20
0.0000
 30
0.0000
 40
0.0000
 41
0.0000
 70
1
  0
VERTEX
  8
16
 10
101.8894
 20
6.7306
 30
0.0000
  0
VERTEX
  8
16
 10
101.7502
 20
6.3945
 30
0.0000
 42
1.0000
  0
VERTEX
  8
16
 10
102.3134
 20
6.1612
 30
0.0000
  0
VERTEX
  8
16
 10
102.4526
 20
6.4973
 30
0.0000
 42
1.0000
  0
SEQEND
  8
0
  0
POLYLINE
  8
16
 66
1
 10
0.0000
 20
0.0000
 30
0.0000
 40
0.0000
 41
0.0000
 70
1
  0
VERTEX
  8
16
 10
101.7270
 20
6.2779
 30
0.0000
  0
VERTEX
  8
16
 10
101.7270
 20
5.3408
 30
0.0000
 42
1.0000
  0
VERTEX
  8
16
 10
102.3366
 20
5.3408
 30
0.0000
  0
VERTEX
  8
16
 10
102.3366
 20
6.2779
 30
0.0000
 42
1.0000
  0
SEQEND
  8
0
  0
POLYLINE
  8
16
 66
1
 10
0.0000
 20
0.0000
 30
0.0000
 40
0.0000
 41
0.0000
 70
1
  0
VERTEX
  8
16
 10
101.8163
 20
5.5563
 30
0.0000
  0
VERTEX
  8
16
 10
100.5903
 20
4.3303
 30
0.0000
 42
1.0000
  0
VERTEX
  8
16
 10
101.0213
 20
3.8993
 30
0.0000
  0
VERTEX
  8
16
 10
102.2473
 20
5.1253
 30
0.0000
 42
1.0000
  0
SEQEND
  8
0
  0
POLYLINE
  8
16
 66
1
 10
0.0000
 20
0.0000
 30
0.0000
 40
0.0000
 41
0.0000
 70
1
  0
VERTEX
  8
16
 10
100.8058
 20
4.4196
 30
0.0000
  0
VERTEX
  8
16
 10
99.6777
 20
4.4196
 30
0.0000
 42
1.0000
  0
VERTEX
  8
16
 10
99.6777
 20
3.8100
 30
0.0000
  0
VERTEX
  8
16
 10
100.8058
 20
3.8100
 30
0.0000
 42
1.0000
  0
SEQEND
  8
0
  0
POLYLINE
  8
16
 66
1
 10
0.0000
 20
0.0000
 30
0.0000
 40
0.0000
 41
0.0000
 70
1
  0
VERTEX
  8
16
 10
99.4622
 20
4.3303
 30
0.0000
  0
VERTEX
  8
16
 10
98.5397
 20
3.4078
 30
0.0000
 42
1.0000
  0
VERTEX
  8
16
 10
98.9707
 20
2.9768
 30
0.0000
  0
VERTEX
  8
16
 10
99.8932
 20
3.8993
 30
0.0000
 42
1.0000
  0
SEQEND
  8
0
  0
POLYLINE
  8
16
 66
1
 10
0.0000
 20
0.0000
 30
0.0000
 40
0.0000
 41
0.0000
 70
1
  0
VERTEX
  8
16
 10
98.4504
 20
3.1923
 30
0.0000
  0
VERTEX
  8
16
 10
98.4504
 20
1.8877
 30
0.0000
 42
1.0000
  0
VERTEX
  8
16
 10
99.0600
 20
1.8877
 30
0.0000
  0
VERTEX
  8
16
 10
99.0600
 20
3.1923
 30
0.0000
 42
1.0000
  0
SEQEND
  8
0
  0
POLYLINE
  8
16
 66
1
 10
0.0000
 20
0.0000
 30
0.0000
 40
0.0000
 41
0.0000
 70
1
  0
VERTEX
  8
16
 10
98.5397
 20
1.6722
 30
0.0000
  0
VERTEX
  8
16
 10
99.0304
 20
1.1815
 30
0.0000
 42
1.0000
  0
VERTEX
  8
16
 10
99.4614
 20
1.6125
 30
0.0000
  0
VERTEX
  8
16
 10
98.9707
 20
2.1032
 30
0.0000
 42
1.0000
  0
SEQEND
  8
0
  0
POLYLINE
  8
16
 66
1
 10
0.0000
 20
0.0000
 30
0.0000
 40
0.0000
 41
0.0000
 70
1
  0
VERTEX
  8
16
 10
99.2459
 20
1.7018
 30
0.0000
  0
VERTEX
  8
16
 10
91.0404
 20
1.7018
 30
0.0000
 42
1.0000
  0
VERTEX
  8
16
 10
91.0404
 20
1.0922
 30
0.0000
  0
VERTEX
  8
16
 10
99.2459
 20
1.0922
 30
0.0000
 42
1.0000
  0
SEQEND
  8
0
  0
POLYLINE
  8
16
 66
1
 10
0.0000
 20
0.0000
 30
0.0000
 40
0.0000
 41
0.0000
 70
1
  0
VERTEX
  8
16
 10
91.2559
 20
1.1815
 30
0.0000
  0
VERTEX
  8
16
 10
93.0085
 20
2.9341
 30
0.0000
 42
1.0000
  0
VERTEX
  8
16
 10
92.5775
 20
3.3651
 30
0.0000
  0
VERTEX
  8
16
 10
90.8248
 20
1.6125
 30
0.0000
 42
1.0000
  0
SEQEND
  8
0
  0
POLYLINE
  8
16
 66
1
 10
0.0000
 20
0.0000
 30
0.0000
 40
0.0000
 41
0.0000
 70
1
  0
VERTEX
  8
16
 10
92.7930
 20
2.8448
 30
0.0000
  0
VERTEX
  8
16
 10
93.7301
 20
2.8448
 30
0.0000
 42
1.0000
  0
VERTEX
  8
16
 10
93.7301
 20
3.4544
 30
0.0000
  0
VERTEX
  8
16
 10
92.7930
 20
3.4544
 30
0.0000
 42
1.0000
  0
SEQEND
  8
0
  0
POLYLINE
  8
16
 66
1
 10
0.0000
 20
0.0000
 30
0.0000
 40
0.0000
 41
0.0000
 70
1
  0
VERTEX
  8
16
 10
93.8467
 20
2.8680
 30
0.0000
  0
VERTEX
  8
16
 10
94.1828
 20
3.0072
 30
0.0000
 42
1.0000
  0
VERTEX
  8
16
 10
93.9495
 20
3.5704
 30
0.0000
  0
VERTEX
  8
16
 10
93.6134
 20
3.4312
 30
0.0000
 42
1.0000
  0
SEQEND
  8
0
  0
POLYLINE
  8
16
 66
1
 10
0.0000
 20
0.0000
 30
0.0000
 40
0.0000
 41
0.0000
 70
1
  0
VERTEX
  8
16
 10
94.2817
 20
3.0733
 30
0.0000
  0
VERTEX
  8
16
 10
94.5389
 20
3.3305
 30
0.0000
 42
1.0000
  0
VERTEX
  8
16
 10
94.1079
 20
3.7616
 30
0.0000
  0
VERTEX
  8
16
 10
93.8506
 20
3.5043
 30
0.0000
 42
1.0000
  0
SEQEND
  8
0
  0
POLYLINE
  8
16
 66
1
 10
0.0000
 20
0.0000
 30
0.0000
 40
0.0000
 41
0.0000
 70
1
  0
VERTEX
  8
16
 10
94.6050
 20
3.4294
 30
0.0000
  0
VERTEX
  8
16
 10
94.7442
 20
3.7655
 30
0.0000
 42
1.0000
  0
VERTEX
  8
16
 10
94.1810
 20
3.9988
 30
0.0000
  0
VERTEX
  8
16
 10
94.0418
 20
3.6627
 30
0.0000
 42
1.0000
  0
SEQEND
  8
0
  0
POLYLINE
  8
16
 66
1
 10
0.0000
 20
0.0000
 30
0.0000
 40
0.0000
 41
0.0000
 70
1
  0
VERTEX
  8
16
 10
94.7674
 20
3.8821
 30
0.0000
  0
VERTEX
  8
16
 10
94.7674
 20
6.2779
 30
0.0000
 42
1.0000
  0
VERTEX
  8
16
 10
94.1578
 20
6.2779
 30
0.0000
  0
VERTEX
  8
16
 10
94.1578
 20
3.8821
 30
0.0000
 42
1.0000
  0
SEQEND
  8
0
  0
POLYLINE
  8
16
 66
1
 10
0.0000
 20
0.0000
 30
0.0000
 40
0.0000
 41
0.0000
 70
1
  0
VERTEX
  8
16
 10
94.7442
 20
6.3945
 30
0.0000
  0
VERTEX
  8
16
 10
94.6050
 20
6.7306
 30
0.0000
 42
1.0000
  0
VERTEX
  8
16
 10
94.0418
 20
6.4973
 30
0.0000
  0
VERTEX
  8
16
 10
94.1810
 20
6.1612
 30
0.0000
 42
1.0000
  0
SEQEND
  8
0
  0
POLYLINE
  8
16
 66
1
 10
0.0000
 20
0.0000
 30
0.0000
 40
0.0000
 41
0.0000
 70
1
  0
VERTEX
  8
16
 10
94.5389
 20
6.8295
 30
0.0000
  0
VERTEX
  8
16
 10
94.2817
 20
7.0867
 30
0.0000
 42
1.0000
  0
VERTEX
  8
16
 10
93.8506
 20
6.6557
 30
0.0000
  0
VERTEX
  8
16
 10
94.1079
 20
6.3984
 30
0.0000
 42
1.0000
  0
SEQEND
  8
0
  0
POLYLINE
  8
16
 66
1
 10
0.0000
 20
0.0000
 30
0.0000
 40
0.0000
 41
0.0000
 70
1
  0
VERTEX
  8
16
 10
94.1828
 20
7.1528
 30
0.0000
  0
VERTEX
  8
16
 10
93.8467
 20
7.2920
 30
0.0000
 42
1.0000
  0
VERTEX
  8
16
 10
93.6134
 20
6.7288
 30
0.0000
  0
VERTEX
  8
16
 10
93.9495
 20
6.5896
 30
0.0000
 42
1.0000
  0
SEQEND
  8
0
  0
POLYLINE
  8
16
 66
1
 10
0.0000
 20
0.0000
 30
0.0000
 40
0.0000
 41
0.0000
 70
1
  0
VERTEX
  8
16
 10
93.7301
 20
7.3152
 30
0.0000
  0
VERTEX
  8
16
 10
91.3343
 20
7.3152
 30
0.0000
 42
1.0000
  0
VERTEX
  8
16
 10
91.3343
 20
6.7056
 30
0.0000
  0
VERTEX
  8
16
 10
93.7301
 20
6.7056
 30
0.0000
 42
1.0000
  0
SEQEND
  8
0
  0
POLYLINE
  8
16
 66
1
 10
0.0000
 20
0.0000
 30
0.0000
 40
0.0000
 41
0.0000
 70
1
  0
VERTEX
  8
16
 10
91.2177
 20
7.2920
 30
0.0000
  0
VERTEX
  8
16
 10
90.8816
 20
7.1528
 30
0.0000
 42
1.0000
  0
VERTEX
  8
16
 10
91.1149
 20
6.5896
 30
0.0000
  0
VERTEX
  8
16
 10
91.4510
 20
6.7288
 30
0.0000
 42
1.0000
  0
SEQEND
  8
0
  0
POLYLINE
  8
16
 66
1
 10
0.0000
 20
0.0000
 30
0.0000
 40
0.0000
 41
0.0000
 70
1
  0
VERTEX
  8
16
 10
90.7827
 20
7.0867
 30
0.0000
  0
VERTEX
  8
16
 10
90.5255
 20
6.8295
 30
0.0000
 42
1.0000
  0
VERTEX
  8
16
 10
90.9565
 20
6.3984
 30
0.0000
  0
VERTEX
  8
16
 10
91.2138
 20
6.6557
 30
0.0000
 42
1.0000
  0
SEQEND
  8
0
  0
POLYLINE
  8
16
 66
1
 10
0.0000
 20
0.0000
 30
0.0000
 40
0.0000
 41
0.0000
 70
1
  0
VERTEX
  8
16
 10
90.4594
 20
6.7306
 30
0.0000
  0
VERTEX
  8
16
 10
90.3202
 20
6.3945
 30
0.0000
 42
1.0000
  0
VERTEX
  8
16
 10
90.8834
 20
6.1612
 30
0.0000
  0
VERTEX
  8
16
 10
91.0226
 20
6.4973
 30
0.0000
 42
1.0000
  0
SEQEND
  8
0
  0
POLYLINE
  8
16
 66
1
 10
0.0000
 20
0.0000
 30
0.0000
 40
0.0000
 41
0.0000
 70
1
  0
VERTEX
  8
16
 10
90.2970
 20
6.2779
 30
0.0000
  0
VERTEX
  8
16
 10
90.2970
 20
5.3408
 30
0.0000
 42
1.0000
  0
VERTEX
  8
16
 10
90.9066
 20
5.3408
 30
0.0000
  0
VERTEX
  8
16
 10
90.9066
 20
6.2779
 30
0.0000
 42
1.0000
  0
SEQEND
  8
0
  0
POLYLINE
  8
16
 66
1
 10
0.0000
 20
0.0000
 30
0.0000
 40
0.0000
 41
0.0000
 70
1
  0
VERTEX
  8
16
 10
90.3863
 20
5.5563
 30
0.0000
  0
VERTEX
  8
16
 10
89.1603
 20
4.3303
 30
0.0000
 42
1.0000
  0
VERTEX
  8
16
 10
89.5913
 20
3.8993
 30
0.0000
  0
VERTEX
  8
16
 10
90.8173
 20
5.1253
 30
0.0000
 42
1.0000
  0
SEQEND
  8
0
  0
POLYLINE
  8
16
 66
1
 10
0.0000
 20
0.0000
 30
0.0000
 40
0.0000
 41
0.0000
 70
1
  0
VERTEX
  8
16
 10
89.3758
 20
4.4196
 30
0.0000
  0
VERTEX
  8
16
 10
88.2477
 20
4.4196
 30
0.0000
 42
1.0000
  0
VERTEX
  8
16
 10
88.2477
 20
3.8100
 30
0.0000
  0
VERTEX
  8
16
 10
89.3758
 20
3.8100
 30
0.0000
 42
1.0000
  0
SEQEND
  8
0
  0
POLYLINE
  8
16
 66
1
 10
0.0000
 20
0.0000
 30
0.0000
 40
0.0000
 41
0.0000
 70
1
  0
VERTEX
  8
16
 10
88.0322
 20
4.3303
 30
0.0000
  0
VERTEX
  8
16
 10
87.1097
 20
3.4078
 30
0.0000
 42
1.0000
  0
VERTEX
  8
16
 10
87.5407
 20
2.9768
 30
0.0000
  0
VERTEX
  8
16
 10
88.4632
 20
3.8993
 30
0.0000
 42
1.0000
  0
SEQEND
  8
0
  0
POLYLINE
  8
16
 66
1
 10
0.0000
 20
0.0000
 30
0.0000
 40
0.0000
 41
0.0000
 70
1
  0
VERTEX
  8
16
 10
87.0204
 20
3.1923
 30
0.0000
  0
VERTEX
  8
16
 10
87.0204
 20
1.8877
 30
0.0000
 42
1.0000
  0
VERTEX
  8
16
 10
87.6300
 20
1.8877
 30
0.0000
  0
VERTEX
  8
16
 10
87.6300
 20
3.1923
 30
0.0000
 42
1.0000
  0
SEQEND
  8
0
  0
POLYLINE
  8
16
 66
1
 10
0.0000
 20
0.0000
 30
0.0000
 40
0.0000
 41
0.0000
 70
1
  0
VERTEX
  8
16
 10
87.1097
 20
1.6722
 30
0.0000
  0
VERTEX
  8
16
 10
87.6004
 20
1.1815
 30
0.0000
 42
1.0000
  0
VERTEX
  8
16
 10
88.0314
 20
1.6125
 30
0.0000
  0
VERTEX
  8
16
 10
87.5407
 20
2.1032
 30
0.0000
 42
1.0000
  0
SEQEND
  8
0
  0
POLYLINE
  8
16
 66
1
 10
0.0000
 20
0.0000
 30
0.0000
 40
0.0000
 41
0.0000
 70
1
  0
VERTEX
  8
16
 10
87.8159
 20
1.7018
 30
0.0000
  0
VERTEX
  8
16
 10
79.6104
 20
1.7018
 30
0.0000
 42
1.0000
  0
VERTEX
  8
16
 10
79.6104
 20
1.0922
 30
0.0000
  0
VERTEX
  8
16
 10
87.8159
 20
1.0922
 30
0.0000
 42
1.0000
  0
SEQEND
  8
0
  0
POLYLINE
  8
16
 66
1
 10
0.0000
 20
0.0000
 30
0.0000
 40
0.0000
 41
0.0000
 70
1
  0
VERTEX
  8
16
 10
79.8259
 20
1.1815
 30
0.0000
  0
VERTEX
  8
16
 10
81.5785
 20
2.9341
 30
0.0000
 42
1.0000
  0
VERTEX
  8
16
 10
81.1475
 20
3.3651
 30
0.0000
  0
VERTEX
  8
16
 10
79.3948
 20
1.6125
 30
0.0000
 42
1.0000
  0
SEQEND
  8
0
  0
POLYLINE
  8
16
 66
1
 10
0.0000
 20
0.0000
 30
0.0000
 40
0.0000
 41
0.0000
 70
1
  0
VERTEX
  8
16
 10
81.3630
 20
2.8448
 30
0.0000
  0
VERTEX
  8
16
 10
82.3001
 20
2.8448
 30
0.0000
 42
1.0000
  0
VERTEX
  8
16
 10
82.3001
 20
3.4544
 30
0.0000
  0
VERTEX
  8
16
 10
81.3630
 20
3.4544
 30
0.0000
 42
1.0000
  0
SEQEND
  8
0
  0
POLYLINE
  8
16
 66
1
 10
0.0000
 20
0.0000
 30
0.0000
 40
0.0000
 41
0.0000
 70
1
  0
VERTEX
  8
16
 10
82.4167
 20
2.8680
 30
0.0000
  0
VERTEX
  8
16
 10
82.7528
 20
3.0072
 30
0.0000
 42
1.0000
  0
VERTEX
  8
16
 10
82.5195
 20
3.5704
 30
0.0000
  0
VERTEX
  8
16
 10
82.1834
 20
3.4312
 30
0.0000
 42
1.0000
  0
SEQEND
  8
0
  0
POLYLINE
  8
16
 66
1
 10
0.0000
 20
0.0000
 30
0.0000
 40
0.0000
 41
0.0000
 70
1
  0
VERTEX
  8
16
 10
82.8517
 20
3.0733
 30
0.0000
  0
VERTEX
  8
16
 10
83.1089
 20
3.3305
 30
0.0000
 42
1.0000
  0
VERTEX
  8
16
 10
82.6779
 20
3.7616
 30
0.0000
  0
VERTEX
  8
16
 10
82.4206
 20
3.5043
 30
0.0000
 42
1.0000
  0
SEQEND
  8
0
  0
POLYLINE
  8
16
 66
1
 10
0.0000
 20
0.0000
 30
0.0000
 40
0.0000
 41
0.0000
 70
1
  0
VERTEX
  8
16
 10
83.1750
 20
3.4294
 30
0.0000
  0
VERTEX
  8
16
 10
83.3142
 20
3.7655
 30
0.0000
 42
1.0000
  0
VERTEX
  8
16
 10
82.7510
 20
3.9988
 30
0.0000
  0
VERTEX
  8
16
 10
82.6118
 20
3.6627
 30
0.0000
 42
1.0000
  0
SEQEND
  8
0
  0
POLYLINE
  8
16
 66
1
 10
0.0000
 20
0.0000
 30
0.0000
 40
0.0000
 41
0.0000
 70
1
  0
VERTEX
  8
16
 10
83.3374
 20
3.8821
 30
0.0000
  0
VERTEX
  8
16
 10
83.3374
 20
6.2779
 30
0.0000
 42
1.0000
  0
VERTEX
  8
16
 10
82.7278
 20
6.2779
 30
0.0000
  0
VERTEX
  8
16
 10
82.7278
 20
3.8821
 30
0.0000
 42
1.0000
  0
SEQEND
  8
0
  0
POLYLINE
  8
16
 66
1
 10
0.0000
 20
0.0000
 30
0.0000
 40
0.0000
 41
0.0000
 70
1
  0
VERTEX
  8
16
 10
83.3142
 20
6.3945
 30
0.0000
  0
VERTEX
  8
16
 10
83.1750
 20
6.7306
 30
0.0000
 42
1.0000
  0
VERTEX
  8
16
 10
82.6118
 20
6.4973
 30
0.0000
  0
VERTEX
  8
16
 10
82.7510
 20
6.1612
 30
0.0000
 42
1.0000
  0
SEQEND
  8
0
  0
POLYLINE
  8
16
 66
1
 10
0.0000
 20
0.0000
 30
0.0000
 40
0.0000
 41
0.0000
 70
1
  0
VERTEX
  8
16
 10
83.1089
 20
6.8295
 30
0.0000
  0
VERTEX
  8
16
 10
82.8517
 20
7.0867
 30
0.0000
 42
1.0000
  0
VERTEX
  8
16
 10
82.4206
 20
6.6557
 30
0.0000
  0
VERTEX
  8
16
 10
82.6779
 20
6.3984
 30
0.0000
 42
1.0000
  0
SEQEND
  8
0
  0
POLYLINE
  8
16
 66
1
 10
0.0000
 20
0.0000
 30
0.0000
 40
0.0000
 41
0.0000
 70
1
  0
VERTEX
  8
16
 10
82.7528
 20
7.1528
 30
0.0000
  0
VERTEX
  8
16
 10
82.4167
 20
7.2920
 30
0.0000
 42
1.0000
  0
VERTEX
  8
16
 10
82.1834
 20
6.7288
 30
0.0000
  0
VERTEX
  8
16
 10
82.5195
 20
6.5896
 30
0.0000
 42
1.0000
  0
SEQEND
  8
0
  0
POLYLINE
  8
16
 66
1
 10
0.0000
 20
0.0000
 30
0.0000
 40
0.0000
 41
0.0000
 70
1
  0
VERTEX
  8
16
 10
82.3001
 20
7.3152
 30
0.0000
  0
VERTEX
  8
16
 10
79.9043
 20
7.3152
 30
0.0000
 42
1.0000
  0
VERTEX
  8
16
 10
79.9043
 20
6.7056
 30
0.0000
  0
VERTEX
  8
16
 10
82.3001
 20
6.7056
 30
0.0000
 42
1.0000
  0
SEQEND
  8
0
  0
POLYLINE
  8
16
 66
1
 10
0.0000
 20
0.0000
 30
0.0000
 40
0.0000
 41
0.0000
 70
1
  0
VERTEX
  8
16
 10
79.7877
 20
7.2920
 30
0.0000
  0
VERTEX
  8
16
 10
79.4516
 20
7.1528
 30
0.0000
 42
1.0000
  0
VERTEX
  8
16
 10
79.6849
 20
6.5896
 30
0.0000
  0
VERTEX
  8
16
 10
80.0210
 20
6.7288
 30
0.0000
 42
1.0000
  0
SEQEND
  8
0
  0
POLYLINE
  8
16
 66
1
 10
0.0000
 20
0.0000
 30
0.0000
 40
0.0000
 41
0.0000
 70
1
  0
VERTEX
  8
16
 10
79.3527
 20
7.0867
 30
0.0000
  0
VERTEX
  8
16
 10
79.0955
 20
6.8295
 30
0.0000
 42
1.0000
  0
VERTEX
  8
16
 10
79.5265
 20
6.3984
 30
0.0000
  0
VERTEX
  8
16
 10
79.7838
 20
6.6557
 30
0.0000
 42
1.0000
  0
SEQEND
  8
0
  0
POLYLINE
  8
16
 66
1
 10
0.0000
 20
0.0000
 30
0.0000
 40
0.0000
 41
0.0000
 70
1
  0
VERTEX
  8
16
 10
79.0294
 20
6.7306
 30
0.0000
  0
VERTEX
  8
16
 10
78.8902
 20
6.3945
 30
0.0000
 42
1.0000
  0
VERTEX
  8
16
 10
79.4534
 20
6.1612
 30
0.0000
  0
VERTEX
  8
16
 10
79.5926
 20
6.4973
 30
0.0000
 42
1.0000
  0
SEQEND
  8
0
  0
POLYLINE
  8
16
 66
1
 10
0.0000
 20
0.0000
 30
0.0000
 40
0.0000
 41
0.0000
 70
1
  0
VERTEX
  8
16
 10
78.8670
 20
6.2779
 30
0.0000
  0
VERTEX
  8
16
 10
78.8670
 20
5.3408
 30
0.0000
 42
1.0000
  0
VERTEX
  8
16
 10
79.4766
 20
5.3408
 30
0.0000
  0
VERTEX
  8
16
 10
79.4766
 20
6.2779
 30
0.0000
 42
1.0000
  0
SEQEND
  8
0
  0
POLYLINE
  8
16
 66
1
 10
0.0000
 20
0.0000
 30
0.0000
 40
0.0000
 41
0.0000
 70
1
  0
VERTEX
  8
16
 10
78.9563
 20
5.5563
 30
0.0000
  0
VERTEX
  8
16
 10
77.7303
 20
4.3303
 30
0.0000
 42
1.0000
  0
VERTEX
  8
16
 10
78.1613
 20
3.8993
 30
0.0000
  0
VERTEX
  8
16
 10
79.3873
 20
5.1253
 30
0.0000
 42
1.0000
  0
SEQEND
  8
0
  0
POLYLINE
  8
16
 66
1
 10
0.0000
 20
0.0000
 30
0.0000
 40
0.0000
 41
0.0000
 70
1
  0
VERTEX
  8
16
 10
77.9458
 20
4.4196
 30
0.0000
  0
VERTEX
  8
16
 10
76.8177
 20
4.4196
 30
0.0000
 42
1.0000
  0
VERTEX
  8
16
 10
76.8177
 20
3.8100
 30
0.0000
  0
VERTEX
  8
16
 10
77.9458
 20
3.8100
 30
0.0000
 42
1.0000
  0
SEQEND
  8
0
  0
POLYLINE
  8
16
 66
1
 10
0.0000
 20
0.0000
 30
0.0000
 40
0.0000
 41
0.0000
 70
1
  0
VERTEX
  8
16
 10
76.6022
 20
4.3303
 30
0.0000
  0
VERTEX
  8
16
 10
75.6797
 20
3.4078
 30
0.0000
 42
1.0000
  0
VERTEX
  8
16
 10
76.1107
 20
2.9768
 30
0.0000
  0
VERTEX
  8
16
 10
77.0332
 20
3.8993
 30
0.0000
 42
1.0000
  0
SEQEND
  8
0
  0
POLYLINE
  8
16
 66
1
 10
0.0000
 20
0.0000
 30
0.0000
 40
0.0000
 41
0.0000
 70
1
  0
VERTEX
  8
16
 10
75.5904
 20
3.1923
 30
0.0000
  0
VERTEX
  8
16
 10
75.5904
 20
1.8877
 30
0.0000
 42
1.0000
  0
VERTEX
  8
16
 10
76.2000
 20
1.8877
 30
0.0000
  0
VERTEX
  8
16
 10
76.2000
 20
3.1923
 30
0.0000
 42
1.0000
  0
SEQEND
  8
0
  0
POLYLINE
  8
16
 66
1
 10
0.0000
 20
0.0000
 30
0.0000
 40
0.0000
 41
0.0000
 70
1
  0
VERTEX
  8
16
 10
75.6797
 20
1.6722
 30
0.0000
  0
VERTEX
  8
16
 10
76.1704
 20
1.1815
 30
0.0000
 42
1.0000
  0
VERTEX
  8
16
 10
76.6014
 20
1.6125
 30
0.0000
  0
VERTEX
  8
16
 10
76.1107
 20
2.1032
 30
0.0000
 42
1.0000
  0
SEQEND
  8
0
  0
POLYLINE
  8
16
 66
1
 10
0.0000
 20
0.0000
 30
0.0000
 40
0.0000
 41
0.0000
 70
1
  0
VERTEX
  8
16
 10
76.3859
 20
1.7018
 30
0.0000
  0
VERTEX
  8
16
 10
68.1804
 20
1.7018
 30
0.0000
 42
1.0000
  0
VERTEX
  8
16
 10
68.1804
 20
1.0922
 30
0.0000
  0
VERTEX
  8
16
 10
76.3859
 20
1.0922
 30
0.0000
 42
1.0000
  0
SEQEND
  8
0
  0
POLYLINE
  8
16
 66
1
 10
0.0000
 20
0.0000
 30
0.0000
 40
0.0000
 41
0.0000
 70
1
  0
VERTEX
  8
16
 10
68.3959
 20
1.1815
 30
0.0000
  0
VERTEX
  8
16
 10
70.1485
 20
2.9341
 30
0.0000
 42
1.0000
  0
VERTEX
  8
16
 10
69.7175
 20
3.3651
 30
0.0000
  0
VERTEX
  8
16
 10
67.9648
 20
1.6125
 30
0.0000
 42
1.0000
  0
SEQEND
  8
0
  0
POLYLINE
  8
16
 66
1
 10
0.0000
 20
0.0000
 30
0.0000
 40
0.0000
 41
0.0000
 70
1
  0
VERTEX
  8
16
 10
69.9330
 20
2.8448
 30
0.0000
  0
VERTEX
  8
16
 10
70.8701
 20
2.8448
 30
0.0000
 42
1.0000
  0
VERTEX
  8
16
 10
70.8701
 20
3.4544
 30
0.0000
  0
VERTEX
  8
16
 10
69.9330
 20
3.4544
 30
0.0000
 42
1.0000
  0
SEQEND
  8
0
  0
POLYLINE
  8
16
 66
1
 10
0.0000
 20
0.0000
 30
0.0000
 40
0.0000
 41
0.0000
 70
1
  0
VERTEX
  8
16
 10
70.9867
 20
2.8680
 30
0.0000
  0
VERTEX
  8
16
 10
71.3228
 20
3.0072
 30
0.0000
 42
1.0000
  0
VERTEX
  8
16
 10
71.0895
 20
3.5704
 30
0.0000
  0
VERTEX
  8
16
 10
70.7534
 20
3.4312
 30
0.0000
 42
1.0000
  0
SEQEND
  8
0
  0
POLYLINE
  8
16
 66
1
 10
0.0000
 20
0.0000
 30
0.0000
 40
0.0000
 41
0.0000
 70
1
  0
VERTEX
  8
16
 10
71.4217
 20
3.0733
 30
0.0000
  0
VERTEX
  8
16
 10
71.6789
 20
3.3305
 30
0.0000
 42
1.0000
  0
VERTEX
  8
16
 10
71.2479
 20
3.7616
 30
0.0000
  0
VERTEX
  8
16
 10
70.9906
 20
3.5043
 30
0.0000
 42
1.0000
  0
SEQEND
  8
0
  0
POLYLINE
  8
16
 66
1
 10
0.0000
 20
0.0000
 30
0.0000
 40
0.0000
 41
0.0000
 70
1
  0
VERTEX
  8
16
 10
71.7450
 20
3.4294
 30
0.0000
  0
VERTEX
  8
16
 10
71.8842
 20
3.7655
 30
0.0000
 42
1.0000
  0
VERTEX
  8
16
 10
71.3210
 20
3.9988
 30
0.0000
  0
VERTEX
  8
16
 10
71.1818
 20
3.6627
 30
0.0000
 42
1.0000
  0
SEQEND
  8
0
  0
POLYLINE
  8
16
 66
1
 10
0.0000
 20
0.0000
 30
0.0000
 40
0.0000
 41
0.0000
 70
1
  0
VERTEX
  8
16
 10
71.9074
 20
3.8821
 30
0.0000
  0
VERTEX
  8
16
 10
71.9074
 20
6.2779
 30
0.0000
 42
1.0000
  0
VERTEX
  8
16
 10
71.2978
 20
6.2779
 30
0.0000
  0
VERTEX
  8
16
 10
71.2978
 20
3.8821
 30
0.0000
 42
1.0000
  0
SEQEND
  8
0
  0
POLYLINE
  8
16
 66
1
 10
0.0000
 20
0.0000
 30
0.0000
 40
0.0000
 41
0.0000
 70
1
  0
VERTEX
  8
16
 10
71.8842
 20
6.3945
 30
0.0000
  0
VERTEX
  8
16
 10
71.7450
 20
6.7306
 30
0.0000
 42
1.0000
  0
VERTEX
  8
16
 10
71.1818
 20
6.4973
 30
0.0000
  0
VERTEX
  8
16
 10
71.3210
 20
6.1612
 30
0.0000
 42
1.0000
  0
SEQEND
  8
0
  0
POLYLINE
  8
16
 66
1
 10
0.0000
 20
0.0000
 30
0.0000
 40
0.0000
 41
0.0000
 70
1
  0
VERTEX
  8
16
 10
71.6789
 20
6.8295
 30
0.0000
  0
VERTEX
  8
16
 10
71.4217
 20
7.0867
 30
0.0000
 42
1.0000
  0
VERTEX
  8
16
 10
70.9906
 20
6.6557
 30
0.0000
  0
VERTEX
  8
16
 10
71.2479
 20
6.3984
 30
0.0000
 42
1.0000
  0
SEQEND
  8
0
  0
POLYLINE
  8
16
 66
1
 10
0.0000
 20
0.0000
 30
0.0000
 40
0.0000
 41
0.0000
 70
1
  0
VERTEX
  8
16
 10
71.3228
 20
7.1528
 30
0.0000
  0
VERTEX
  8
16
 10
70.9867
 20
7.2920
 30
0.0000
 42
1.0000
  0
VERTEX
  8
16
 10
70.7534
 20
6.7288
 30
0.0000
  0
VERTEX
  8
16
 10
71.0895
 20
6.5896
 30
0.0000
 42
1.0000
  0
SEQEND
  8
0
  0
POLYLINE
  8
16
 66
1
 10
0.0000
 20
0.0000
 30
0.0000
 40
0.0000
 41
0.0000
 70
1
  0
VERTEX
  8
16
 10
70.8701
 20
7.3152
 30
0.0000
  0
VERTEX
  8
16
 10
68.4743
 20
7.3152
 30
0.0000
 42
1.0000
  0
VERTEX
  8
16
 10
68.4743
 20
6.7056
 30
0.0000
  0
VERTEX
  8
16
 10
70.8701
 20
6.7056
 30
0.0000
 42
1.0000
  0
SEQEND
  8
0
  0
POLYLINE
  8
16
 66
1
 10
0.0000
 20
0.0000
 30
0.0000
 40
0.0000
 41
0.0000
 70
1
  0
VERTEX
  8
16
 10
68.3577
 20
7.2920
 30
0.0000
  0
VERTEX
  8
16
 10
68.0216
 20
7.1528
 30
0.0000
 42
1.0000
  0
VERTEX
  8
16
 10
68.2549
 20
6.5896
 30
0.0000
  0
VERTEX
  8
16
 10
68.5910
 20
6.7288
 30
0.0000
 42
1.0000
  0
SEQEND
  8
0
  0
POLYLINE
  8
16
 66
1
 10
0.0000
 20
0.0000
 30
0.0000
 40
0.0000
 41
0.0000
 70
1
  0
VERTEX
  8
16
 10
67.9227
 20
7.0867
 30
0.0000
  0
VERTEX
  8
16
 10
67.6655
 20
6.8295
 30
0.0000
 42
1.0000
  0
VERTEX
  8
16
 10
68.0965
 20
6.3984
 30
0.0000
  0
VERTEX
  8
16
 10
68.3538
 20
6.6557
 30
0.0000
 42
1.0000
  0
SEQEND
  8
0
  0
POLYLINE
  8
16
 66
1
 10
0.0000
 20
0.0000
 30
0.0000
 40
0.0000
 41
0.0000
 70
1
  0
VERTEX
  8
16
 10
67.5994
 20
6.7306
 30
0.0000
  0
VERTEX
  8
16
 10
67.4602
 20
6.3945
 30
0.0000
 42
1.0000
  0
VERTEX
  8
16
 10
68.0234
 20
6.1612
 30
0.0000
  0
VERTEX
  8
16
 10
68.1626
 20
6.4973
 30
0.0000
 42
1.0000
  0
SEQEND
  8
0
  0
POLYLINE
  8
16
 66
1
 10
0.0000
 20
0.0000
 30
0.0000
 40
0.0000
 41
0.0000
 70
1
  0
VERTEX
  8
16
 10
67.4370
 20
6.2779
 30
0.0000
  0
VERTEX
  8
16
 10
67.4370
 20
5.3408
 30
0.0000
 42
1.0000
  0
VERTEX
  8
16
 10
68.0466
 20
5.3408
 30
0.0000
  0
VERTEX
  8
16
 10
68.0466
 20
6.2779
 30
0.0000
 42
1.0000
  0
SEQEND
  8
0
  0
POLYLINE
  8
16
 66
1
 10
0.0000
 20
0.0000
 30
0.0000
 40
0.0000
 41
0.0000
 70
1
  0
VERTEX
  8
16
 10
67.5263
 20
5.5563
 30
0.0000
  0
VERTEX
  8
16
 10
66.3003
 20
4.3303
 30
0.0000
 42
1.0000
  0
VERTEX
  8
16
 10
66.7313
 20
3.8993
 30
0.0000
  0
VERTEX
  8
16
 10
67.9573
 20
5.1253
 30
0.0000
 42
1.0000
  0
SEQEND
  8
0
  0
POLYLINE
  8
16
 66
1
 10
0.0000
 20
0.0000
 30
0.0000
 40
0.0000
 41
0.0000
 70
1
  0
VERTEX
  8
16
 10
66.5158
 20
4.4196
 30
0.0000
  0
VERTEX
  8
16
 10
65.3877
 20
4.4196
 30
0.0000
 42
1.0000
  0
VERTEX
  8
16
 10
65.3877
 20
3.8100
 30
0.0000
  0
VERTEX
  8
16
 10
66.5158
 20
3.8100
 30
0.0000
 42
1.0000
  0
SEQEND
  8
0
  0
POLYLINE
  8
16
 66
1
 10
0.0000
 20
0.0000
 30
0.0000
 40
0.0000
 41
0.0000
 70
1
  0
VERTEX
  8
16
 10
65.1722
 20
4.3303
 30
0.0000
  0
VERTEX
  8
16
 10
64.2497
 20
3.4078
 30
0.0000
 42
1.0000
  0
VERTEX
  8
16
 10
64.6807
 20
2.9768
 30
0.0000
  0
VERTEX
  8
16
 10
65.6032
 20
3.8993
 30
0.0000
 42
1.0000
  0
SEQEND
  8
0
  0
POLYLINE
  8
16
 66
1
 10
0.0000
 20
0.0000
 30
0.0000
 40
0.0000
 41
0.0000
 70
1
  0
VERTEX
  8
16
 10
64.1604
 20
3.1923
 30
0.0000
  0
VERTEX
  8
16
 10
64.1604
 20
1.8877
 30
0.0000
 42
1.0000
  0
VERTEX
  8
16
 10
64.7700
 20
1.8877
 30
0.0000
  0
VERTEX
  8
16
 10
64.7700
 20
3.1923
 30
0.0000
 42
1.0000
  0
SEQEND
  8
0
  0
POLYLINE
  8
16
 66
1
 10
0.0000
 20
0.0000
 30
0.0000
 40
0.0000
 41
0.0000
 70
1
  0
VERTEX
  8
16
 10
64.2497
 20
1.6722
 30
0.0000
  0
VERTEX
  8
16
 10
64.7404
 20
1.1815
 30
0.0000
 42
1.0000
  0
VERTEX
  8
16
 10
65.1714
 20
1.6125
 30
0.0000
  0
VERTEX
  8
16
 10
64.6807
 20
2.1032
 30
0.0000
 42
1.0000
  0
SEQEND
  8
0
  0
POLYLINE
  8
16
 66
1
 10
0.0000
 20
0.0000
 30
0.0000
 40
0.0000
 41
0.0000
 70
1
  0
VERTEX
  8
16
 10
64.9559
 20
1.7018
 30
0.0000
  0
VERTEX
  8
16
 10
56.7504
 20
1.7018
 30
0.0000
 42
1.0000
  0
VERTEX
  8
16
 10
56.7504
 20
1.0922
 30
0.0000
  0
VERTEX
  8
16
 10
64.9559
 20
1.0922
 30
0.0000
 42
1.0000
  0
SEQEND
  8
0
  0
POLYLINE
  8
16
 66
1
 10
0.0000
 20
0.0000
 30
0.0000
 40
0.0000
 41
0.0000
 70
1
  0
VERTEX
  8
16
 10
56.9659
 20
1.1815
 30
0.0000
  0
VERTEX
  8
16
 10
58.7185
 20
2.9341
 30
0.0000
 42
1.0000
  0
VERTEX
  8
16
 10
58.2875
 20
3.3651
 30
0.0000
  0
VERTEX
  8
16
 10
56.5348
 20
1.6125
 30
0.0000
 42
1.0000
  0
SEQEND
  8
0
  0
POLYLINE
  8
16
 66
1
 10
0.0000
 20
0.0000
 30
0.0000
 40
0.0000
 41
0.0000
 70
1
  0
VERTEX
  8
16
 10
58.5030
 20
2.8448
 30
0.0000
  0
VERTEX
  8
16
 10
59.4401
 20
2.8448
 30
0.0000
 42
1.0000
  0
VERTEX
  8
16
 10
59.4401
 20
3.4544
 30
0.0000
  0
VERTEX
  8
16
 10
58.5030
 20
3.4544
 30
0.0000
 42
1.0000
  0
SEQEND
  8
0
  0
POLYLINE
  8
16
 66
1
 10
0.0000
 20
0.0000
 30
0.0000
 40
0.0000
 41
0.0000
 70
1
  0
VERTEX
  8
16
 10
59.5567
 20
2.8680
 30
0.0000
  0
VERTEX
  8
16
 10
59.8928
 20
3.0072
 30
0.0000
 42
1.0000
  0
VERTEX
  8
16
 10
59.6595
 20
3.5704
 30
0.0000
  0
VERTEX
  8
16
 10
59.3234
 20
3.4312
 30
0.0000
 42
1.0000
  0
SEQEND
  8
0
  0
POLYLINE
  8
16
 66
1
 10
0.0000
 20
0.0000
 30
0.0000
 40
0.0000
 41
0.0000
 70
1
  0
VERTEX
  8
16
 10
59.9917
 20
3.0733
 30
0.0000
  0
VERTEX
  8
16
 10
60.2489
 20
3.3305
 30
0.0000
 42
1.0000
  0
VERTEX
  8
16
 10
59.8179
 20
3.7616
 30
0.0000
  0
VERTEX
  8
16
 10
59.5606
 20
3.5043
 30
0.0000
 42
1.0000
  0
SEQEND
  8
0
  0
POLYLINE
  8
16
 66
1
 10
0.0000
 20
0.0000
 30
0.0000
 40
0.0000
 41
0.0000
 70
1
  0
VERTEX
  8
16
 10
60.3150
 20
3.4294
 30
0.0000
  0
VERTEX
  8
16
 10
60.4542
 20
3.7655
 30
0.0000
 42
1.0000
  0
VERTEX
  8
16
 10
59.8910
 20
3.9988
 30
0.0000
  0
VERTEX
  8
16
 10
59.7518
 20
3.6627
 30
0.0000
 42
1.0000
  0
SEQEND
  8
0
  0
POLYLINE
  8
16
 66
1
 10
0.0000
 20
0.0000
 30
0.0000
 40
0.0000
 41
0.0000
 70
1
  0
VERTEX
  8
16
 10
60.4774
 20
3.8821
 30
0.0000
  0
VERTEX
  8
16
 10
60.4774
 20
6.2779
 30
0.0000
 42
1.0000
  0
VERTEX
  8
16
 10
59.8678
 20
6.2779
 30
0.0000
  0
VERTEX
  8
16
 10
59.8678
 20
3.8821
 30
0.0000
 42
1.0000
  0
SEQEND
  8
0
  0
POLYLINE
  8
16
 66
1
 10
0.0000
 20
0.0000
 30
0.0000
 40
0.0000
 41
0.0000
 70
1
  0
VERTEX
  8
16
 10
60.4542
 20
6.3945
 30
0.0000
  0
VERTEX
  8
16
 10
60.3150
 20
6.7306
 30
0.0000
 42
1.0000
  0
VERTEX
  8
16
 10
59.7518
 20
6.4973
 30
0.0000
  0
VERTEX
  8
16
 10
59.8910
 20
6.1612
 30
0.0000
 42
1.0000
  0
SEQEND
  8
0
  0
POLYLINE
  8
16
 66
1
 10
0.0000
 20
0.0000
 30
0.0000
 40
0.0000
 41
0.0000
 70
1
  0
VERTEX
  8
16
 10
60.2489
 20
6.8295
 30
0.0000
  0
VERTEX
  8
16
 10
59.9917
 20
7.0867
 30
0.0000
 42
1.0000
  0
VERTEX
  8
16
 10
59.5606
 20
6.6557
 30
0.0000
  0
VERTEX
  8
16
 10
59.8179
 20
6.3984
 30
0.0000
 42
1.0000
  0
SEQEND
  8
0
  0
POLYLINE
  8
16
 66
1
 10
0.0000
 20
0.0000
 30
0.0000
 40
0.0000
 41
0.0000
 70
1
  0
VERTEX
  8
16
 10
59.8928
 20
7.1528
 30
0.0000
  0
VERTEX
  8
16
 10
59.5567
 20
7.2920
 30
0.0000
 42
1.0000
  0
VERTEX
  8
16
 10
59.3234
 20
6.7288
 30
0.0000
  0
VERTEX
  8
16
 10
59.6595
 20
6.5896
 30
0.0000
 42
1.0000
  0
SEQEND
  8
0
  0
POLYLINE
  8
16
 66
1
 10
0.0000
 20
0.0000
 30
0.0000
 40
0.0000
 41
0.0000
 70
1
  0
VERTEX
  8
16
 10
59.4401
 20
7.3152
 30
0.0000
  0
VERTEX
  8
16
 10
57.0443
 20
7.3152
 30
0.0000
 42
1.0000
  0
VERTEX
  8
16
 10
57.0443
 20
6.7056
 30
0.0000
  0
VERTEX
  8
16
 10
59.4401
 20
6.7056
 30
0.0000
 42
1.0000
  0
SEQEND
  8
0
  0
POLYLINE
  8
16
 66
1
 10
0.0000
 20
0.0000
 30
0.0000
 40
0.0000
 41
0.0000
 70
1
  0
VERTEX
  8
16
 10
56.9277
 20
7.2920
 30
0.0000
  0
VERTEX
  8
16
 10
56.5916
 20
7.1528
 30
0.0000
 42
1.0000
  0
VERTEX
  8
16
 10
56.8249
 20
6.5896
 30
0.0000
  0
VERTEX
  8
16
 10
57.1610
 20
6.7288
 30
0.0000
 42
1.0000
  0
SEQEND
  8
0
  0
POLYLINE
  8
16
 66
1
 10
0.0000
 20
0.0000
 30
0.0000
 40
0.0000
 41
0.0000
 70
1
  0
VERTEX
  8
16
 10
56.4927
 20
7.0867
 30
0.0000
  0
VERTEX
  8
16
 10
56.2355
 20
6.8295
 30
0.0000
 42
1.0000
  0
VERTEX
  8
16
 10
56.6665
 20
6.3984
 30
0.0000
  0
VERTEX
  8
16
 10
56.9238
 20
6.6557
 30
0.0000
 42
1.0000
  0
SEQEND
  8
0
  0
POLYLINE
  8
16
 66
1
 10
0.0000
 20
0.0000
 30
0.0000
 40
0.0000
 41
0.0000
 70
1
  0
VERTEX
  8
16
 10
56.1694
 20
6.7306
 30
0.0000
  0
VERTEX
  8
16
 10
56.0302
 20
6.3945
 30
0.0000
 42
1.0000
  0
VERTEX
  8
16
 10
56.5934
 20
6.1612
 30
0.0000
  0
VERTEX
  8
16
 10
56.7326
 20
6.4973
 30
0.0000
 42
1.0000
  0
SEQEND
  8
0
  0
POLYLINE
  8
16
 66
1
 10
0.0000
 20
0.0000
 30
0.0000
 40
0.0000
 41
0.0000
 70
1
  0
VERTEX
  8
16
 10
56.0070
 20
6.2779
 30
0.0000
  0
VERTEX
  8
16
 10
56.0070
 20
5.3408
 30
0.0000
 42
1.0000
  0
VERTEX
  8
16
 10
56.6166
 20
5.3408
 30
0.0000
  0
VERTEX
  8
16
 10
56.6166
 20
6.2779
 30
0.0000
 42
1.0000
  0
SEQEND
  8
0
  0
POLYLINE
  8
16
 66
1
 10
0.0000
 20
0.0000
 30
0.0000
 40
0.0000
 41
0.0000
 70
1
  0
VERTEX
  8
16
 10
56.0963
 20
5.5563
 30
0.0000
  0
VERTEX
  8
16
 10
54.8703
 20
4.3303
 30
0.0000
 42
1.0000
  0
VERTEX
  8
16
 10
55.3013
 20
3.8993
 30
0.0000
  0
VERTEX
  8
16
 10
56.5273
 20
5.1253
 30
0.0000
 42
1.0000
  0
SEQEND
  8
0
  0
POLYLINE
  8
16
 66
1
 10
0.0000
 20
0.0000
 30
0.0000
 40
0.0000
 41
0.0000
 70
1
  0
VERTEX
  8
16
 10
55.0858
 20
4.4196
 30
0.0000
  0
VERTEX
  8
16
 10
53.9577
 20
4.4196
 30
0.0000
 42
1.0000
  0
VERTEX
  8
16
 10
53.9577
 20
3.8100
 30
0.0000
  0
VERTEX
  8
16
 10
55.0858
 20
3.8100
 30
0.0000
 42
1.0000
  0
SEQEND
  8
0
  0
POLYLINE
  8
16
 66
1
 10
0.0000
 20
0.0000
 30
0.0000
 40
0.0000
 41
0.0000
 70
1
  0
VERTEX
  8
16
 10
53.7422
 20
4.3303
 30
0.0000
  0
VERTEX
  8
16
 10
52.8197
 20
3.4078
 30
0.0000
 42
1.0000
  0
VERTEX
  8
16
 10
53.2507
 20
2.9768
 30
0.0000
  0
VERTEX
  8
16
 10
54.1732
 20
3.8993
 30
0.0000
 42
1.0000
  0
SEQEND
  8
0
  0
POLYLINE
  8
16
 66
1
 10
0.0000
 20
0.0000
 30
0.0000
 40
0.0000
 41
0.0000
 70
1
  0
VERTEX
  8
16
 10
52.7304
 20
3.1923
 30
0.0000
  0
VERTEX
  8
16
 10
52.7304
 20
1.8877
 30
0.0000
 42
1.0000
  0
VERTEX
  8
16
 10
53.3400
 20
1.8877
 30
0.0000
  0
VERTEX
  8
16
 10
53.3400
 20
3.1923
 30
0.0000
 42
1.0000
  0
SEQEND
  8
0
  0
POLYLINE
  8
16
 66
1
 10
0.0000
 20
0.0000
 30
0.0000
 40
0.0000
 41
0.0000
 70
1
  0
VERTEX
  8
16
 10
52.8197
 20
1.6722
 30
0.0000
  0
VERTEX
  8
16
 10
53.3104
 20
1.1815
 30
0.0000
 42
1.0000
  0
VERTEX
  8
16
 10
53.7414
 20
1.6125
 30
0.0000
  0
VERTEX
  8
16
 10
53.2507
 20
2.1032
 30
0.0000
 42
1.0000
  0
SEQEND
  8
0
  0
POLYLINE
  8
16
 66
1
 10
0.0000
 20
0.0000
 30
0.0000
 40
0.0000
 41
0.0000
 70
1
  0
VERTEX
  8
16
 10
53.5259
 20
1.7018
 30
0.0000
  0
VERTEX
  8
16
 10
45.3204
 20
1.7018
 30
0.0000
 42
1.0000
  0
VERTEX
  8
16
 10
45.3204
 20
1.0922
 30
0.0000
  0
VERTEX
  8
16
 10
53.5259
 20
1.0922
 30
0.0000
 42
1.0000
  0
SEQEND
  8
0
  0
POLYLINE
  8
16
 66
1
 10
0.0000
 20
0.0000
 30
0.0000
 40
0.0000
 41
0.0000
 70
1
  0
VERTEX
  8
16
 10
45.5359
 20
1.1815
 30
0.0000
  0
VERTEX
  8
16
 10
47.2885
 20
2.9341
 30
0.0000
 42
1.0000
  0
VERTEX
  8
16
 10
46.8575
 20
3.3651
 30
0.0000
  0
VERTEX
  8
16
 10
45.1048
 20
1.6125
 30
0.0000
 42
1.0000
  0
SEQEND
  8
0
  0
POLYLINE
  8
16
 66
1
 10
0.0000
 20
0.0000
 30
0.0000
 40
0.0000
 41
0.0000
 70
1
  0
VERTEX
  8
16
 10
47.0730
 20
2.8448
 30
0.0000
  0
VERTEX
  8
16
 10
48.0101
 20
2.8448
 30
0.0000
 42
1.0000
  0
VERTEX
  8
16
 10
48.0101
 20
3.4544
 30
0.0000
  0
VERTEX
  8
16
 10
47.0730
 20
3.4544
 30
0.0000
 42
1.0000
  0
SEQEND
  8
0
  0
POLYLINE
  8
16
 66
1
 10
0.0000
 20
0.0000
 30
0.0000
 40
0.0000
 41
0.0000
 70
1
  0
VERTEX
  8
16
 10
48.1267
 20
2.8680
 30
0.0000
  0
VERTEX
  8
16
 10
48.4628
 20
3.0072
 30
0.0000
 42
1.0000
  0
VERTEX
  8
16
 10
48.2295
 20
3.5704
 30
0.0000
  0
VERTEX
  8
16
 10
47.8934
 20
3.4312
 30
0.0000
 42
1.0000
  0
SEQEND
  8
0
  0
POLYLINE
  8
16
 66
1
 10
0.0000
 20
0.0000
 30
0.0000
 40
0.0000
 41
0.0000
 70
1
  0
VERTEX
  8
16
 10
48.5617
 20
3.0733
 30
0.0000
  0
VERTEX
  8
16
 10
48.8189
 20
3.3305
 30
0.0000
 42
1.0000
  0
VERTEX
  8
16
 10
48.3879
 20
3.7616
 30
0.0000
  0
VERTEX
  8
16
 10
48.1306
 20
3.5043
 30
0.0000
 42
1.0000
  0
SEQEND
  8
0
  0
POLYLINE
  8
16
 66
1
 10
0.0000
 20
0.0000
 30
0.0000
 40
0.0000
 41
0.0000
 70
1
  0
VERTEX
  8
16
 10
48.8850
 20
3.4294
 30
0.0000
  0
VERTEX
  8
16
 10
49.0242
 20
3.7655
 30
0.0000
 42
1.0000
  0
VERTEX
  8
16
 10
48.4610
 20
3.9988
 30
0.0000
  0
VERTEX
  8
16
 10
48.3218
 20
3.6627
 30
0.0000
 42
1.0000
  0
SEQEND
  8
0
  0
POLYLINE
  8
16
 66
1
 10
0.0000
 20
0.0000
 30
0.0000
 40
0.0000
 41
0.0000
 70
1
  0
VERTEX
  8
16
 10
49.0474
 20
3.8821
 30
0.0000
  0
VERTEX
  8
16
 10
49.0474
 20
6.2779
 30
0.0000
 42
1.0000
  0
VERTEX
  8
16
 10
48.4378
 20
6.2779
 30
0.0000
  0
VERTEX
  8
16
 10
48.4378
 20
3.8821
 30
0.0000
 42
1.0000
  0
SEQEND
  8
0
  0
POLYLINE
  8
16
 66
1
 10
0.0000
 20
0.0000
 30
0.0000
 40
0.0000
 41
0.0000
 70
1
  0
VERTEX
  8
16
 10
49.0242
 20
6.3945
 30
0.0000
  0
VERTEX
  8
16
 10
48.8850
 20
6.7306
 30
0.0000
 42
1.0000
  0
VERTEX
  8
16
 10
48.3218
 20
6.4973
 30
0.0000
  0
VERTEX
  8
16
 10
48.4610
 20
6.1612
 30
0.0000
 42
1.0000
  0
SEQEND
  8
0
  0
POLYLINE
  8
16
 66
1
 10
0.0000
 20
0.0000
 30
0.0000
 40
0.0000
 41
0.0000
 70
1
  0
VERTEX
  8
16
 10
48.8189
 20
6.8295
 30
0.0000
  0
VERTEX
  8
16
 10
48.5617
 20
7.0867
 30
0.0000
 42
1.0000
  0
VERTEX
  8
16
 10
48.1306
 20
6.6557
 30
0.0000
  0
VERTEX
  8
16
 10
48.3879
 20
6.3984
 30
0.0000
 42
1.0000
  0
SEQEND
  8
0
  0
POLYLINE
  8
16
 66
1
 10
0.0000
 20
0.0000
 30
0.0000
 40
0.0000
 41
0.0000
 70
1
  0
VERTEX
  8
16
 10
48.4628
 20
7.1528
 30
0.0000
  0
VERTEX
  8
16
 10
48.1267
 20
7.2920
 30
0.0000
 42
1.0000
  0
VERTEX
  8
16
 10
47.8934
 20
6.7288
 30
0.0000
  0
VERTEX
  8
16
 10
48.2295
 20
6.5896
 30
0.0000
 42
1.0000
  0
SEQEND
  8
0
  0
POLYLINE
  8
16
 66
1
 10
0.0000
 20
0.0000
 30
0.0000
 40
0.0000
 41
0.0000
 70
1
  0
VERTEX
  8
16
 10
48.0101
 20
7.3152
 30
0.0000
  0
VERTEX
  8
16
 10
45.6143
 20
7.3152
 30
0.0000
 42
1.0000
  0
VERTEX
  8
16
 10
45.6143
 20
6.7056
 30
0.0000
  0
VERTEX
  8
16
 10
48.0101
 20
6.7056
 30
0.0000
 42
1.0000
  0
SEQEND
  8
0
  0
POLYLINE
  8
16
 66
1
 10
0.0000
 20
0.0000
 30
0.0000
 40
0.0000
 41
0.0000
 70
1
  0
VERTEX
  8
16
 10
45.4977
 20
7.2920
 30
0.0000
  0
VERTEX
  8
16
 10
45.1616
 20
7.1528
 30
0.0000
 42
1.0000
  0
VERTEX
  8
16
 10
45.3949
 20
6.5896
 30
0.0000
  0
VERTEX
  8
16
 10
45.7310
 20
6.7288
 30
0.0000
 42
1.0000
  0
SEQEND
  8
0
  0
POLYLINE
  8
16
 66
1
 10
0.0000
 20
0.0000
 30
0.0000
 40
0.0000
 41
0.0000
 70
1
  0
VERTEX
  8
16
 10
45.0627
 20
7.0867
 30
0.0000
  0
VERTEX
  8
16
 10
44.8055
 20
6.8295
 30
0.0000
 42
1.0000
  0
VERTEX
  8
16
 10
45.2365
 20
6.3984
 30
0.0000
  0
VERTEX
  8
16
 10
45.4938
 20
6.6557
 30
0.0000
 42
1.0000
  0
SEQEND
  8
0
  0
POLYLINE
  8
16
 66
1
 10
0.0000
 20
0.0000
 30
0.0000
 40
0.0000
 41
0.0000
 70
1
  0
VERTEX
  8
16
 10
44.7394
 20
6.7306
 30
0.0000
  0
VERTEX
  8
16
 10
44.6002
 20
6.3945
 30
0.0000
 42
1.0000
  0
VERTEX
  8
16
 10
45.1634
 20
6.1612
 30
0.0000
  0
VERTEX
  8
16
 10
45.3026
 20
6.4973
 30
0.0000
 42
1.0000
  0
SEQEND
  8
0
  0
POLYLINE
  8
16
 66
1
 10
0.0000
 20
0.0000
 30
0.0000
 40
0.0000
 41
0.0000
 70
1
  0
VERTEX
  8
16
 10
44.5770
 20
6.2779
 30
0.0000
  0
VERTEX
  8
16
 10
44.5770
 20
5.3408
 30
0.0000
 42
1.0000
  0
VERTEX
  8
16
 10
45.1866
 20
5.3408
 30
0.0000
  0
VERTEX
  8
16
 10
45.1866
 20
6.2779
 30
0.0000
 42
1.0000
  0
SEQEND
  8
0
  0
POLYLINE
  8
16
 66
1
 10
0.0000
 20
0.0000
 30
0.0000
 40
0.0000
 41
0.0000
 70
1
  0
VERTEX
  8
16
 10
44.6663
 20
5.5563
 30
0.0000
  0
VERTEX
  8
16
 10
43.4403
 20
4.3303
 30
0.0000
 42
1.0000
  0
VERTEX
  8
16
 10
43.8713
 20
3.8993
 30
0.0000
  0
VERTEX
  8
16
 10
45.0973
 20
5.1253
 30
0.0000
 42
1.0000
  0
SEQEND
  8
0
  0
POLYLINE
  8
16
 66
1
 10
0.0000
 20
0.0000
 30
0.0000
 40
0.0000
 41
0.0000
 70
1
  0
VERTEX
  8
16
 10
43.6558
 20
4.4196
 30
0.0000
  0
VERTEX
  8
16
 10
42.5277
 20
4.4196
 30
0.0000
 42
1.0000
  0
VERTEX
  8
16
 10
42.5277
 20
3.8100
 30
0.0000
  0
VERTEX
  8
16
 10
43.6558
 20
3.8100
 30
0.0000
 42
1.0000
  0
SEQEND
  8
0
  0
POLYLINE
  8
16
 66
1
 10
0.0000
 20
0.0000
 30
0.0000
 40
0.0000
 41
0.0000
 70
1
  0
VERTEX
  8
16
 10
42.3122
 20
4.3303
 30
0.0000
  0
VERTEX
  8
16
 10
41.3897
 20
3.4078
 30
0.0000
 42
1.0000
  0
VERTEX
  8
16
 10
41.8207
 20
2.9768
 30
0.0000
  0
VERTEX
  8
16
 10
42.7432
 20
3.8993
 30
0.0000
 42
1.0000
  0
SEQEND
  8
0
  0
POLYLINE
  8
16
 66
1
 10
0.0000
 20
0.0000
 30
0.0000
 40
0.0000
 41
0.0000
 70
1
  0
VERTEX
  8
16
 10
41.3004
 20
3.1923
 30
0.0000
  0
VERTEX
  8
16
 10
41.3004
 20
1.8877
 30
0.0000
 42
1.0000
  0
VERTEX
  8
16
 10
41.9100
 20
1.8877
 30
0.0000
  0
VERTEX
  8
16
 10
41.9100
 20
3.1923
 30
0.0000
 42
1.0000
  0
SEQEND
  8
0
  0
POLYLINE
  8
16
 66
1
 10
0.0000
 20
0.0000
 30
0.0000
 40
0.0000
 41
0.0000
 70
1
  0
VERTEX
  8
16
 10
41.3897
 20
1.6722
 30
0.0000
  0
VERTEX
  8
16
 10
41.8804
 20
1.1815
 30
0.0000
 42
1.0000
  0
VERTEX
  8
16
 10
42.3114
 20
1.6125
 30
0.0000
  0
VERTEX
  8
16
 10
41.8207
 20
2.1032
 30
0.0000
 42
1.0000
  0
SEQEND
  8
0
  0
POLYLINE
  8
16
 66
1
 10
0.0000
 20
0.0000
 30
0.0000
 40
0.0000
 41
0.0000
 70
1
  0
VERTEX
  8
16
 10
42.0959
 20
1.7018
 30
0.0000
  0
VERTEX
  8
16
 10
33.8904
 20
1.7018
 30
0.0000
 42
1.0000
  0
VERTEX
  8
16
 10
33.8904
 20
1.0922
 30
0.0000
  0
VERTEX
  8
16
 10
42.0959
 20
1.0922
 30
0.0000
 42
1.0000
  0
SEQEND
  8
0
  0
POLYLINE
  8
16
 66
1
 10
0.0000
 20
0.0000
 30
0.0000
 40
0.0000
 41
0.0000
 70
1
  0
VERTEX
  8
16
 10
34.1059
 20
1.1815
 30
0.0000
  0
VERTEX
  8
16
 10
35.8585
 20
2.9341
 30
0.0000
 42
1.0000
  0
VERTEX
  8
16
 10
35.4275
 20
3.3651
 30
0.0000
  0
VERTEX
  8
16
 10
33.6748
 20
1.6125
 30
0.0000
 42
1.0000
  0
SEQEND
  8
0
  0
POLYLINE
  8
16
 66
1
 10
0.0000
 20
0.0000
 30
0.0000
 40
0.0000
 41
0.0000
 70
1
  0
VERTEX
  8
16
 10
35.6430
 20
2.8448
 30
0.0000
  0
VERTEX
  8
16
 10
36.5801
 20
2.8448
 30
0.0000
 42
1.0000
  0
VERTEX
  8
16
 10
36.5801
 20
3.4544
 30
0.0000
  0
VERTEX
  8
16
 10
35.6430
 20
3.4544
 30
0.0000
 42
1.0000
  0
SEQEND
  8
0
  0
POLYLINE
  8
16
 66
1
 10
0.0000
 20
0.0000
 30
0.0000
 40
0.0000
 41
0.0000
 70
1
  0
VERTEX
  8
16
 10
36.6967
 20
2.8680
 30
0.0000
  0
VERTEX
  8
16
 10
37.0328
 20
3.0072
 30
0.0000
 42
1.0000
  0
VERTEX
  8
16
 10
36.7995
 20
3.5704
 30
0.0000
  0
VERTEX
  8
16
 10
36.4634
 20
3.4312
 30
0.0000
 42
1.0000
  0
SEQEND
  8
0
  0
POLYLINE
  8
16
 66
1
 10
0.0000
 20
0.0000
 30
0.0000
 40
0.0000
 41
0.0000
 70
1
  0
VERTEX
  8
16
 10
37.1317
 20
3.0733
 30
0.0000
  0
VERTEX
  8
16
 10
37.3889
 20
3.3305
 30
0.0000
 42
1.0000
  0
VERTEX
  8
16
 10
36.9579
 20
3.7616
 30
0.0000
  0
VERTEX
  8
16
 10
36.7006
 20
3.5043
 30
0.0000
 42
1.0000
  0
SEQEND
  8
0
  0
POLYLINE
  8
16
 66
1
 10
0.0000
 20
0.0000
 30
0.0000
 40
0.0000
 41
0.0000
 70
1
  0
VERTEX
  8
16
 10
37.4550
 20
3.4294
 30
0.0000
  0
VERTEX
  8
16
 10
37.5942
 20
3.7655
 30
0.0000
 42
1.0000
  0
VERTEX
  8
16
 10
37.0310
 20
3.9988
 30
0.0000
  0
VERTEX
  8
16
 10
36.8918
 20
3.6627
 30
0.0000
 42
1.0000
  0
SEQEND
  8
0
  0
POLYLINE
  8
16
 66
1
 10
0.0000
 20
0.0000
 30
0.0000
 40
0.0000
 41
0.0000
 70
1
  0
VERTEX
  8
16
 10
37.6174
 20
3.8821
 30
0.0000
  0
VERTEX
  8
16
 10
37.6174
 20
6.2779
 30
0.0000
 42
1.0000
  0
VERTEX
  8
16
 10
37.0078
 20
6.2779
 30
0.0000
  0
VERTEX
  8
16
 10
37.0078
 20
3.8821
 30
0.0000
 42
1.0000
  0
SEQEND
  8
0
  0
POLYLINE
  8
16
 66
1
 10
0.0000
 20
0.0000
 30
0.0000
 40
0.0000
 41
0.0000
 70
1
  0
VERTEX
  8
16
 10
37.5942
 20
6.3945
 30
0.0000
  0
VERTEX
  8
16
 10
37.4550
 20
6.7306
 30
0.0000
 42
1.0000
  0
VERTEX
  8
16
 10
36.8918
 20
6.4973
 30
0.0000
  0
VERTEX
  8
16
 10
37.0310
 20
6.1612
 30
0.0000
 42
1.0000
  0
SEQEND
  8
0
  0
POLYLINE
  8
16
 66
1
 10
0.0000
 20
0.0000
 30
0.0000
 40
0.0000
 41
0.0000
 70
1
  0
VERTEX
  8
16
 10
37.3889
 20
6.8295
 30
0.0000
  0
VERTEX
  8
16
 10
37.1317
 20
7.0867
 30
0.0000
 42
1.0000
  0
VERTEX
  8
16
 10
36.7006
 20
6.6557
 30
0.0000
  0
VERTEX
  8
16
 10
36.9579
 20
6.3984
 30
0.0000
 42
1.0000
  0
SEQEND
  8
0
  0
POLYLINE
  8
16
 66
1
 10
0.0000
 20
0.0000
 30
0.0000
 40
0.0000
 41
0.0000
 70
1
  0
VERTEX
  8
16
 10
37.0328
 20
7.1528
 30
0.0000
  0
VERTEX
  8
16
 10
36.6967
 20
7.2920
 30
0.0000
 42
1.0000
  0
VERTEX
  8
16
 10
36.4634
 20
6.7288
 30
0.0000
  0
VERTEX
  8
16
 10
36.7995
 20
6.5896
 30
0.0000
 42
1.0000
  0
SEQEND
  8
0
  0
POLYLINE
  8
16
 66
1
 10
0.0000
 20
0.0000
 30
0.0000
 40
0.0000
 41
0.0000
 70
1
  0
VERTEX
  8
16
 10
36.5801
 20
7.3152
 30
0.0000
  0
VERTEX
  8
16
 10
34.1843
 20
7.3152
 30
0.0000
 42
1.0000
  0
VERTEX
  8
16
 10
34.1843
 20
6.7056
 30
0.0000
  0
VERTEX
  8
16
 10
36.5801
 20
6.7056
 30
0.0000
 42
1.0000
  0
SEQEND
  8
0
  0
POLYLINE
  8
16
 66
1
 10
0.0000
 20
0.0000
 30
0.0000
 40
0.0000
 41
0.0000
 70
1
  0
VERTEX
  8
16
 10
34.0677
 20
7.2920
 30
0.0000
  0
VERTEX
  8
16
 10
33.7316
 20
7.1528
 30
0.0000
 42
1.0000
  0
VERTEX
  8
16
 10
33.9649
 20
6.5896
 30
0.0000
  0
VERTEX
  8
16
 10
34.3010
 20
6.7288
 30
0.0000
 42
1.0000
  0
SEQEND
  8
0
  0
POLYLINE
  8
16
 66
1
 10
0.0000
 20
0.0000
 30
0.0000
 40
0.0000
 41
0.0000
 70
1
  0
VERTEX
  8
16
 10
33.6327
 20
7.0867
 30
0.0000
  0
VERTEX
  8
16
 10
33.3755
 20
6.8295
 30
0.0000
 42
1.0000
  0
VERTEX
  8
16
 10
33.8065
 20
6.3984
 30
0.0000
  0
VERTEX
  8
16
 10
34.0638
 20
6.6557
 30
0.0000
 42
1.0000
  0
SEQEND
  8
0
  0
POLYLINE
  8
16
 66
1
 10
0.0000
 20
0.0000
 30
0.0000
 40
0.0000
 41
0.0000
 70
1
  0
VERTEX
  8
16
 10
33.3094
 20
6.7306
 30
0.0000
  0
VERTEX
  8
16
 10
33.1702
 20
6.3945
 30
0.0000
 42
1.0000
  0
VERTEX
  8
16
 10
33.7334
 20
6.1612
 30
0.0000
  0
VERTEX
  8
16
 10
33.8726
 20
6.4973
 30
0.0000
 42
1.0000
  0
SEQEND
  8
0
  0
POLYLINE
  8
16
 66
1
 10
0.0000
 20
0.0000
 30
0.0000
 40
0.0000
 41
0.0000
 70
1
  0
VERTEX
  8
16
 10
33.1470
 20
6.2779
 30
0.0000
  0
VERTEX
  8
16
 10
33.1470
 20
5.3408
 30
0.0000
 42
1.0000
  0
VERTEX
  8
16
 10
33.7566
 20
5.3408
 30
0.0000
  0
VERTEX
  8
16
 10
33.7566
 20
6.2779
 30
0.0000
 42
1.0000
  0
SEQEND
  8
0
  0
POLYLINE
  8
16
 66
1
 10
0.0000
 20
0.0000
 30
0.0000
 40
0.0000
 41
0.0000
 70
1
  0
VERTEX
  8
16
 10
33.2363
 20
5.5563
 30
0.0000
  0
VERTEX
  8
16
 10
32.0103
 20
4.3303
 30
0.0000
 42
1.0000
  0
VERTEX
  8
16
 10
32.4413
 20
3.8993
 30
0.0000
  0
VERTEX
  8
16
 10
33.6673
 20
5.1253
 30
0.0000
 42
1.0000
  0
SEQEND
  8
0
  0
POLYLINE
  8
16
 66
1
 10
0.0000
 20
0.0000
 30
0.0000
 40
0.0000
 41
0.0000
 70
1
  0
VERTEX
  8
16
 10
32.2258
 20
4.4196
 30
0.0000
  0
VERTEX
  8
16
 10
31.0977
 20
4.4196
 30
0.0000
 42
1.0000
  0
VERTEX
  8
16
 10
31.0977
 20
3.8100
 30
0.0000
  0
VERTEX
  8
16
 10
32.2258
 20
3.8100
 30
0.0000
 42
1.0000
  0
SEQEND
  8
0
  0
POLYLINE
  8
16
 66
1
 10
0.0000
 20
0.0000
 30
0.0000
 40
0.0000
 41
0.0000
 70
1
  0
VERTEX
  8
16
 10
30.8822
 20
4.3303
 30
0.0000
  0
VERTEX
  8
16
 10
29.9597
 20
3.4078
 30
0.0000
 42
1.0000
  0
VERTEX
  8
16
 10
30.3907
 20
2.9768
 30
0.0000
  0
VERTEX
  8
16
 10
31.3132
 20
3.8993
 30
0.0000
 42
1.0000
  0
SEQEND
  8
0
  0
POLYLINE
  8
16
 66
1
 10
0.0000
 20
0.0000
 30
0.0000
 40
0.0000
 41
0.0000
 70
1
  0
VERTEX
  8
16
 10
29.8704
 20
3.1923
 30
0.0000
  0
VERTEX
  8
16
 10
29.8704
 20
1.8877
 30
0.0000
 42
1.0000
  0
VERTEX
  8
16
 10
30.4800
 20
1.8877
 30
0.0000
  0
VERTEX
  8
16
 10
30.4800
 20
3.1923
 30
0.0000
 42
1.0000
  0
SEQEND
  8
0
  0
POLYLINE
  8
16
 66
1
 10
0.0000
 20
0.0000
 30
0.0000
 40
0.0000
 41
0.0000
 70
1
  0
VERTEX
  8
16
 10
29.9597
 20
1.6722
 30
0.0000
  0
VERTEX
  8
16
 10
30.4504
 20
1.1815
 30
0.0000
 42
1.0000
  0
VERTEX
  8
16
 10
30.8814
 20
1.6125
 30
0.0000
  0
VERTEX
  8
16
 10
30.3907
 20
2.1032
 30
0.0000
 42
1.0000
  0
SEQEND
  8
0
  0
POLYLINE
  8
16
 66
1
 10
0.0000
 20
0.0000
 30
0.0000
 40
0.0000
 41
0.0000
 70
1
  0
VERTEX
  8
16
 10
30.6659
 20
1.7018
 30
0.0000
  0
VERTEX
  8
16
 10
22.4604
 20
1.7018
 30
0.0000
 42
1.0000
  0
VERTEX
  8
16
 10
22.4604
 20
1.0922
 30
0.0000
  0
VERTEX
  8
16
 10
30.6659
 20
1.0922
 30
0.0000
 42
1.0000
  0
SEQEND
  8
0
  0
POLYLINE
  8
16
 66
1
 10
0.0000
 20
0.0000
 30
0.0000
 40
0.0000
 41
0.0000
 70
1
  0
VERTEX
  8
16
 10
22.6759
 20
1.1815
 30
0.0000
  0
VERTEX
  8
16
 10
24.4285
 20
2.9341
 30
0.0000
 42
1.0000
  0
VERTEX
  8
16
 10
23.9975
 20
3.3651
 30
0.0000
  0
VERTEX
  8
16
 10
22.2448
 20
1.6125
 30
0.0000
 42
1.0000
  0
SEQEND
  8
0
  0
POLYLINE
  8
16
 66
1
 10
0.0000
 20
0.0000
 30
0.0000
 40
0.0000
 41
0.0000
 70
1
  0
VERTEX
  8
16
 10
24.2130
 20
2.8448
 30
0.0000
  0
VERTEX
  8
16
 10
25.1501
 20
2.8448
 30
0.0000
 42
1.0000
  0
VERTEX
  8
16
 10
25.1501
 20
3.4544
 30
0.0000
  0
VERTEX
  8
16
 10
24.2130
 20
3.4544
 30
0.0000
 42
1.0000
  0
SEQEND
  8
0
  0
POLYLINE
  8
16
 66
1
 10
0.0000
 20
0.0000
 30
0.0000
 40
0.0000
 41
0.0000
 70
1
  0
VERTEX
  8
16
 10
25.2667
 20
2.8680
 30
0.0000
  0
VERTEX
  8
16
 10
25.6028
 20
3.0072
 30
0.0000
 42
1.0000
  0
VERTEX
  8
16
 10
25.3695
 20
3.5704
 30
0.0000
  0
VERTEX
  8
16
 10
25.0334
 20
3.4312
 30
0.0000
 42
1.0000
  0
SEQEND
  8
0
  0
POLYLINE
  8
16
 66
1
 10
0.0000
 20
0.0000
 30
0.0000
 40
0.0000
 41
0.0000
 70
1
  0
VERTEX
  8
16
 10
25.7017
 20
3.0733
 30
0.0000
  0
VERTEX
  8
16
 10
25.9589
 20
3.3305
 30
0.0000
 42
1.0000
  0
VERTEX
  8
16
 10
25.5279
 20
3.7616
 30
0.0000
  0
VERTEX
  8
16
 10
25.2706
 20
3.5043
 30
0.0000
 42
1.0000
  0
SEQEND
  8
0
  0
POLYLINE
  8
16
 66
1
 10
0.0000
 20
0.0000
 30
0.0000
 40
0.0000
 41
0.0000
 70
1
  0
VERTEX
  8
16
 10
26.0250
 20
3.4294
 30
0.0000
  0
VERTEX
  8
16
 10
26.1642
 20
3.7655
 30
0.0000
 42
1.0000
  0
VERTEX
  8
16
 10
25.6010
 20
3.9988
 30
0.0000
  0
VERTEX
  8
16
 10
25.4618
 20
3.6627
 30
0.0000
 42
1.0000
  0
SEQEND
  8
0
  0
POLYLINE
  8
16
 66
1
 10
0.0000
 20
0.0000
 30
0.0000
 40
0.0000
 41
0.0000
 70
1
  0
VERTEX
  8
16
 10
26.1874
 20
3.8821
 30
0.0000
  0
VERTEX
  8
16
 10
26.1874
 20
6.2779
 30
0.0000
 42
1.0000
  0
VERTEX
  8
16
 10
25.5778
 20
6.2779
 30
0.0000
  0
VERTEX
  8
16
 10
25.5778
 20
3.8821
 30
0.0000
 42
1.0000
  0
SEQEND
  8
0
  0
POLYLINE
  8
16
 66
1
 10
0.0000
 20
0.0000
 30
0.0000
 40
0.0000
 41
0.0000
 70
1
  0
VERTEX
  8
16
 10
26.1642
 20
6.3945
 30
0.0000
  0
VERTEX
  8
16
 10
26.0250
 20
6.7306
 30
0.0000
 42
1.0000
  0
VERTEX
  8
16
 10
25.4618
 20
6.4973
 30
0.0000
  0
VERTEX
  8
16
 10
25.6010
 20
6.1612
 30
0.0000
 42
1.0000
  0
SEQEND
  8
0
  0
POLYLINE
  8
16
 66
1
 10
0.0000
 20
0.0000
 30
0.0000
 40
0.0000
 41
0.0000
 70
1
  0
VERTEX
  8
16
 10
25.9589
 20
6.8295
 30
0.0000
  0
VERTEX
  8
16
 10
25.7017
 20
7.0867
 30
0.0000
 42
1.0000
  0
VERTEX
  8
16
 10
25.2706
 20
6.6557
 30
0.0000
  0
VERTEX
  8
16
 10
25.5279
 20
6.3984
 30
0.0000
 42
1.0000
  0
SEQEND
  8
0
  0
POLYLINE
  8
16
 66
1
 10
0.0000
 20
0.0000
 30
0.0000
 40
0.0000
 41
0.0000
 70
1
  0
VERTEX
  8
16
 10
25.6028
 20
7.1528
 30
0.0000
  0
VERTEX
  8
16
 10
25.2667
 20
7.2920
 30
0.0000
 42
1.0000
  0
VERTEX
  8
16
 10
25.0334
 20
6.7288
 30
0.0000
  0
VERTEX
  8
16
 10
25.3695
 20
6.5896
 30
0.0000
 42
1.0000
  0
SEQEND
  8
0
  0
POLYLINE
  8
16
 66
1
 10
0.0000
 20
0.0000
 30
0.0000
 40
0.0000
 41
0.0000
 70
1
  0
VERTEX
  8
16
 10
25.1501
 20
7.3152
 30
0.0000
  0
VERTEX
  8
16
 10
22.7543
 20
7.3152
 30
0.0000
 42
1.0000
  0
VERTEX
  8
16
 10
22.7543
 20
6.7056
 30
0.0000
  0
VERTEX
  8
16
 10
25.1501
 20
6.7056
 30
0.0000
 42
1.0000
  0
SEQEND
  8
0
  0
POLYLINE
  8
16
 66
1
 10
0.0000
 20
0.0000
 30
0.0000
 40
0.0000
 41
0.0000
 70
1
  0
VERTEX
  8
16
 10
22.6377
 20
7.2920
 30
0.0000
  0
VERTEX
  8
16
 10
22.3016
 20
7.1528
 30
0.0000
 42
1.0000
  0
VERTEX
  8
16
 10
22.5349
 20
6.5896
 30
0.0000
  0
VERTEX
  8
16
 10
22.8710
 20
6.7288
 30
0.0000
 42
1.0000
  0
SEQEND
  8
0
  0
POLYLINE
  8
16
 66
1
 10
0.0000
 20
0.0000
 30
0.0000
 40
0.0000
 41
0.0000
 70
1
  0
VERTEX
  8
16
 10
22.2027
 20
7.0867
 30
0.0000
  0
VERTEX
  8
16
 10
21.9455
 20
6.8295
 30
0.0000
 42
1.0000
  0
VERTEX
  8
16
 10
22.3765
 20
6.3984
 30
0.0000
  0
VERTEX
  8
16
 10
22.6338
 20
6.6557
 30
0.0000
 42
1.0000
  0
SEQEND
  8
0
  0
POLYLINE
  8
16
 66
1
 10
0.0000
 20
0.0000
 30
0.0000
 40
0.0000
 41
0.0000
 70
1
  0
VERTEX
  8
16
 10
21.8794
 20
6.7306
 30
0.0000
  0
VERTEX
  8
16
 10
21.7402
 20
6.3945
 30
0.0000
 42
1.0000
  0
VERTEX
  8
16
 10
22.3034
 20
6.1612
 30
0.0000
  0
VERTEX
  8
16
 10
22.4426
 20
6.4973
 30
0.0000
 42
1.0000
  0
SEQEND
  8
0
  0
POLYLINE
  8
16
 66
1
 10
0.0000
 20
0.0000
 30
0.0000
 40
0.0000
 41
0.0000
 70
1
  0
VERTEX
  8
16
 10
21.7170
 20
6.2779
 30
0.0000
  0
VERTEX
  8
16
 10
21.7170
 20
5.3408
 30
0.0000
 42
1.0000
  0
VERTEX
  8
16
 10
22.3266
 20
5.3408
 30
0.0000
  0
VERTEX
  8
16
 10
22.3266
 20
6.2779
 30
0.0000
 42
1.0000
  0
SEQEND
  8
0
  0
POLYLINE
  8
16
 66
1
 10
0.0000
 20
0.0000
 30
0.0000
 40
0.0000
 41
0.0000
 70
1
  0
VERTEX
  8
16
 10
21.8063
 20
5.5563
 30
0.0000
  0
VERTEX
  8
16
 10
20.5803
 20
4.3303
 30
0.0000
 42
1.0000
  0
VERTEX
  8
16
 10
21.0113
 20
3.8993
 30
0.0000
  0
VERTEX
  8
16
 10
22.2373
 20
5.1253
 30
0.0000
 42
1.0000
  0
SEQEND
  8
0
  0
POLYLINE
  8
16
 66
1
 10
0.0000
 20
0.0000
 30
0.0000
 40
0.0000
 41
0.0000
 70
1
  0
VERTEX
  8
16
 10
20.7958
 20
4.4196
 30
0.0000
  0
VERTEX
  8
16
 10
19.6677
 20
4.4196
 30
0.0000
 42
1.0000
  0
VERTEX
  8
16
 10
19.6677
 20
3.8100
 30
0.0000
  0
VERTEX
  8
16
 10
20.7958
 20
3.8100
 30
0.0000
 42
1.0000
  0
SEQEND
  8
0
  0
POLYLINE
  8
16
 66
1
 10
0.0000
 20
0.0000
 30
0.0000
 40
0.0000
 41
0.0000
 70
1
  0
VERTEX
  8
16
 10
19.4522
 20
4.3303
 30
0.0000
  0
VERTEX
  8
16
 10
18.5297
 20
3.4078
 30
0.0000
 42
1.0000
  0
VERTEX
  8
16
 10
18.9607
 20
2.9768
 30
0.0000
  0
VERTEX
  8
16
 10
19.8832
 20
3.8993
 30
0.0000
 42
1.0000
  0
SEQEND
  8
0
  0
POLYLINE
  8
16
 66
1
 10
0.0000
 20
0.0000
 30
0.0000
 40
0.0000
 41
0.0000
 70
1
  0
VERTEX
  8
16
 10
18.4404
 20
3.1923
 30
0.0000
  0
VERTEX
  8
16
 10
18.4404
 20
1.8877
 30
0.0000
 42
1.0000
  0
VERTEX
  8
16
 10
19.0500
 20
1.8877
 30
0.0000
  0
VERTEX
  8
16
 10
19.0500
 20
3.1923
 30
0.0000
 42
1.0000
  0
SEQEND
  8
0
  0
POLYLINE
  8
16
 66
1
 10
0.0000
 20
0.0000
 30
0.0000
 40
0.0000
 41
0.0000
 70
1
  0
VERTEX
  8
16
 10
18.5297
 20
1.6722
 30
0.0000
  0
VERTEX
  8
16
 10
19.0204
 20
1.1815
 30
0.0000
 42
1.0000
  0
VERTEX
  8
16
 10
19.4514
 20
1.6125
 30
0.0000
  0
VERTEX
  8
16
 10
18.9607
 20
2.1032
 30
0.0000
 42
1.0000
  0
SEQEND
  8
0
  0
POLYLINE
  8
16
 66
1
 10
0.0000
 20
0.0000
 30
0.0000
 40
0.0000
 41
0.0000
 70
1
  0
VERTEX
  8
16
 10
19.2359
 20
1.7018
 30
0.0000
  0
VERTEX
  8
16
 10
4.9418
 20
1.7018
 30
0.0000
 42
1.0000
  0
VERTEX
  8
16
 10
4.9418
 20
1.0922
 30
0.0000
  0
VERTEX
  8
16
 10
19.2359
 20
1.0922
 30
0.0000
 42
1.0000
  0
SEQEND
  8
0
  0
POLYLINE
  8
16
 66
1
 10
0.0000
 20
0.0000
 30
0.0000
 40
0.0000
 41
0.0000
 70
1
  0
VERTEX
  8
16
 10
4.9626
 20
1.0929
 30
0.0000
  0
VERTEX
  8
16
 10
6.1137
 20
1.1716
 30
0.0000
 42
1.0000
  0
VERTEX
  8
16
 10
6.0721
 20
1.7798
 30
0.0000
  0
VERTEX
  8
16
 10
4.9210
 20
1.7011
 30
0.0000
 42
1.0000
  0
SEQEND
  8
0
  0
POLYLINE
  8
16
 66
1
 10
0.0000
 20
0.0000
 30
0.0000
 40
0.0000
 41
0.0000
 70
1
  0
VERTEX
  8
16
 10
6.1950
 20
1.1885
 30
0.0000
  0
VERTEX
  8
16
 10
7.4725
 20
1.6426
 30
0.0000
 42
1.0000
  0
VERTEX
  8
16
 10
7.2683
 20
2.2170
 30
0.0000
  0
VERTEX
  8
16
 10
5.9908
 20
1.7629
 30
0.0000
 42
1.0000
  0
SEQEND
  8
0
  0
POLYLINE
  8
16
 66
1
 10
0.0000
 20
0.0000
 30
0.0000
 40
0.0000
 41
0.0000
 70
1
  0
VERTEX
  8
16
 10
7.5462
 20
1.6807
 30
0.0000
  0
VERTEX
  8
16
 10
8.6538
 20
2.4626
 30
0.0000
 42
1.0000
  0
VERTEX
  8
16
 10
8.3022
 20
2.9606
 30
0.0000
  0
VERTEX
  8
16
 10
7.1946
 20
2.1788
 30
0.0000
 42
1.0000
  0
SEQEND
  8
0
  0
POLYLINE
  8
16
 66
1
 10
0.0000
 20
0.0000
 30
0.0000
 40
0.0000
 41
0.0000
 70
1
  0
VERTEX
  8
16
 10
8.4780
 20
2.4068
 30
0.0000
  0
VERTEX
  8
16
 10
8.4780
 20
2.4068
 30
0.0000
 42
1.0000
  0
VERTEX
  8
16
 10
8.4780
 20
3.0164
 30
0.0000
  0
VERTEX
  8
16
 10
8.4780
 20
3.0164
 30
0.0000
 42
1.0000
  0
SEQEND
  8
0
  0
POLYLINE
  8
16
 66
1
 10
0.0000
 20
0.0000
 30
0.0000
 40
0.0000
 41
0.0000
 70
1
  0
VERTEX
  8
16
 10
8.7828
 20
2.7116
 30
0.0000
  0
VERTEX
  8
16
 10
8.7828
 20
2.7116
 30
0.0000
 42
1.0000
  0
VERTEX
  8
16
 10
8.1732
 20
2.7116
 30
0.0000
  0
VERTEX
  8
16
 10
8.1732
 20
2.7116
 30
0.0000
 42
1.0000
  0
SEQEND
  8
0
  0
POLYLINE
  8
16
 66
1
 10
0.0000
 20
0.0000
 30
0.0000
 40
0.0000
 41
0.0000
 70
1
  0
VERTEX
  8
16
 10
8.7145
 20
2.5193
 30
0.0000
  0
VERTEX
  8
16
 10
9.5701
 20
3.5709
 30
0.0000
 42
1.0000
  0
VERTEX
  8
16
 10
9.0972
 20
3.9557
 30
0.0000
  0
VERTEX
  8
16
 10
8.2416
 20
2.9040
 30
0.0000
 42
1.0000
  0
SEQEND
  8
0
  0
POLYLINE
  8
16
 66
1
 10
0.0000
 20
0.0000
 30
0.0000
 40
0.0000
 41
0.0000
 70
1
  0
VERTEX
  8
16
 10
9.6384
 20
3.7633
 30
0.0000
  0
VERTEX
  8
16
 10
9.6384
 20
3.7633
 30
0.0000
 42
1.0000
  0
VERTEX
  8
16
 10
9.0288
 20
3.7633
 30
0.0000
  0
VERTEX
  8
16
 10
9.0288
 20
3.7633
 30
0.0000
 42
1.0000
  0
SEQEND
  8
0
  0
POLYLINE
  8
16
 66
1
 10
0.0000
 20
0.0000
 30
0.0000
 40
0.0000
 41
0.0000
 70
1
  0
VERTEX
  8
16
 10
9.6132
 20
3.6419
 30
0.0000
  0
VERTEX
  8
16
 10
10.1534
 20
4.8854
 30
0.0000
 42
1.0000
  0
VERTEX
  8
16
 10
9.5942
 20
5.1283
 30
0.0000
  0
VERTEX
  8
16
 10
9.0541
 20
3.8847
 30
0.0000
 42
1.0000
  0
SEQEND
  8
0
  0
POLYLINE
  8
16
 66
1
 10
0.0000
 20
0.0000
 30
0.0000
 40
0.0000
 41
0.0000
 70
1
  0
VERTEX
  8
16
 10
10.1786
 20
5.0068
 30
0.0000
  0
VERTEX
  8
16
 10
10.1786
 20
5.0068
 30
0.0000
 42
1.0000
  0
VERTEX
  8
16
 10
9.5690
 20
5.0068
 30
0.0000
  0
VERTEX
  8
16
 10
9.5690
 20
5.0068
 30
0.0000
 42
1.0000
  0
SEQEND
  8
0
  0
POLYLINE
  8
16
 66
1
 10
0.0000
 20
0.0000
 30
0.0000
 40
0.0000
 41
0.0000
 70
1
  0
VERTEX
  8
16
 10
10.1757
 20
4.9653
 30
0.0000
  0
VERTEX
  8
16
 10
10.3604
 20
6.3085
 30
0.0000
 42
1.0000
  0
VERTEX
  8
16
 10
9.7564
 20
6.3915
 30
0.0000
  0
VERTEX
  8
16
 10
9.5718
 20
5.0483
 30
0.0000
 42
1.0000
  0
SEQEND
  8
0
  0
POLYLINE
  8
16
 66
1
 10
0.0000
 20
0.0000
 30
0.0000
 40
0.0000
 41
0.0000
 70
1
  0
VERTEX
  8
16
 10
10.3604
 20
6.3915
 30
0.0000
  0
VERTEX
  8
16
 10
10.1757
 20
7.7347
 30
0.0000
 42
1.0000
  0
VERTEX
  8
16
 10
9.5718
 20
7.6516
 30
0.0000
  0
VERTEX
  8
16
 10
9.7564
 20
6.3085
 30
0.0000
 42
1.0000
  0
SEQEND
  8
0
  0
POLYLINE
  8
16
 66
1
 10
0.0000
 20
0.0000
 30
0.0000
 40
0.0000
 41
0.0000
 70
1
  0
VERTEX
  8
16
 10
10.1786
 20
7.6932
 30
0.0000
  0
VERTEX
  8
16
 10
10.1786
 20
7.6932
 30
0.0000
 42
1.0000
  0
VERTEX
  8
16
 10
9.5690
 20
7.6932
 30
0.0000
  0
VERTEX
  8
16
 10
9.5690
 20
7.6932
 30
0.0000
 42
1.0000
  0
SEQEND
  8
0
  0
POLYLINE
  8
16
 66
1
 10
0.0000
 20
0.0000
 30
0.0000
 40
0.0000
 41
0.0000
 70
1
  0
VERTEX
  8
16
 10
10.1534
 20
7.8146
 30
0.0000
  0
VERTEX
  8
16
 10
9.6132
 20
9.0581
 30
0.0000
 42
1.0000
  0
VERTEX
  8
16
 10
9.0541
 20
8.8153
 30
0.0000
  0
VERTEX
  8
16
 10
9.5942
 20
7.5717
 30
0.0000
 42
1.0000
  0
SEQEND
  8
0
  0
POLYLINE
  8
16
 66
1
 10
0.0000
 20
0.0000
 30
0.0000
 40
0.0000
 41
0.0000
 70
1
  0
VERTEX
  8
16
 10
9.6384
 20
8.9367
 30
0.0000
  0
VERTEX
  8
16
 10
9.6384
 20
8.9367
 30
0.0000
 42
1.0000
  0
VERTEX
  8
16
 10
9.0288
 20
8.9367
 30
0.0000
  0
VERTEX
  8
16
 10
9.0288
 20
8.9367
 30
0.0000
 42
1.0000
  0
SEQEND
  8
0
  0
POLYLINE
  8
16
 66
1
 10
0.0000
 20
0.0000
 30
0.0000
 40
0.0000
 41
0.0000
 70
1
  0
VERTEX
  8
16
 10
9.5701
 20
9.1290
 30
0.0000
  0
VERTEX
  8
16
 10
8.7145
 20
10.1807
 30
0.0000
 42
1.0000
  0
VERTEX
  8
16
 10
8.2416
 20
9.7960
 30
0.0000
  0
VERTEX
  8
16
 10
9.0972
 20
8.7443
 30
0.0000
 42
1.0000
  0
SEQEND
  8
0
  0
POLYLINE
  8
16
 66
1
 10
0.0000
 20
0.0000
 30
0.0000
 40
0.0000
 41
0.0000
 70
1
  0
VERTEX
  8
16
 10
8.4780
 20
10.2932
 30
0.0000
  0
VERTEX
  8
16
 10
8.4780
 20
10.2932
 30
0.0000
 42
1.0000
  0
VERTEX
  8
16
 10
8.4780
 20
9.6836
 30
0.0000
  0
VERTEX
  8
16
 10
8.4780
 20
9.6836
 30
0.0000
 42
1.0000
  0
SEQEND
  8
0
  0
POLYLINE
  8
16
 66
1
 10
0.0000
 20
0.0000
 30
0.0000
 40
0.0000
 41
0.0000
 70
1
  0
VERTEX
  8
16
 10
8.6538
 20
10.2374
 30
0.0000
  0
VERTEX
  8
16
 10
7.5462
 20
11.0193
 30
0.0000
 42
1.0000
  0
VERTEX
  8
16
 10
7.1946
 20
10.5212
 30
0.0000
  0
VERTEX
  8
16
 10
8.3022
 20
9.7394
 30
0.0000
 42
1.0000
  0
SEQEND
  8
0
  0
POLYLINE
  8
16
 66
1
 10
0.0000
 20
0.0000
 30
0.0000
 40
0.0000
 41
0.0000
 70
1
  0
VERTEX
  8
16
 10
7.3704
 20
11.0750
 30
0.0000
  0
VERTEX
  8
16
 10
7.3704
 20
11.0750
 30
0.0000
 42
1.0000
  0
VERTEX
  8
16
 10
7.3704
 20
10.4654
 30
0.0000
  0
VERTEX
  8
16
 10
7.3704
 20
10.4654
 30
0.0000
 42
1.0000
  0
SEQEND
  8
0
  0
POLYLINE
  8
16
 66
1
 10
0.0000
 20
0.0000
 30
0.0000
 40
0.0000
 41
0.0000
 70
1
  0
VERTEX
  8
16
 10
7.4725
 20
11.0574
 30
0.0000
  0
VERTEX
  8
16
 10
6.1950
 20
11.5115
 30
0.0000
 42
1.0000
  0
VERTEX
  8
16
 10
5.9908
 20
10.9371
 30
0.0000
  0
VERTEX
  8
16
 10
7.2683
 20
10.4830
 30
0.0000
 42
1.0000
  0
SEQEND
  8
0
  0
POLYLINE
  8
16
 66
1
 10
0.0000
 20
0.0000
 30
0.0000
 40
0.0000
 41
0.0000
 70
1
  0
VERTEX
  8
16
 10
6.0929
 20
11.5291
 30
0.0000
  0
VERTEX
  8
16
 10
6.0929
 20
11.5291
 30
0.0000
 42
1.0000
  0
VERTEX
  8
16
 10
6.0929
 20
10.9195
 30
0.0000
  0
VERTEX
  8
16
 10
6.0929
 20
10.9195
 30
0.0000
 42
1.0000
  0
SEQEND
  8
0
  0
POLYLINE
  8
16
 66
1
 10
0.0000
 20
0.0000
 30
0.0000
 40
0.0000
 41
0.0000
 70
1
  0
VERTEX
  8
16
 10
6.1137
 20
11.5284
 30
0.0000
  0
VERTEX
  8
16
 10
4.7611
 20
11.6209
 30
0.0000
 42
1.0000
  0
VERTEX
  8
16
 10
4.7195
 20
11.0127
 30
0.0000
  0
VERTEX
  8
16
 10
6.0721
 20
10.9202
 30
0.0000
 42
1.0000
  0
SEQEND
  8
0
  0
POLYLINE
  8
16
 66
1
 10
0.0000
 20
0.0000
 30
0.0000
 40
0.0000
 41
0.0000
 70
1
  0
VERTEX
  8
16
 10
4.7403
 20
11.6216
 30
0.0000
  0
VERTEX
  8
16
 10
4.7403
 20
11.6216
 30
0.0000
 42
1.0000
  0
VERTEX
  8
16
 10
4.7403
 20
11.0120
 30
0.0000
  0
VERTEX
  8
16
 10
4.7403
 20
11.0120
 30
0.0000
 42
1.0000
  0
SEQEND
  8
0
  0
POLYLINE
  8
16
 66
1
 10
0.0000
 20
0.0000
 30
0.0000
 40
0.0000
 41
0.0000
 70
1
  0
VERTEX
  8
16
 10
4.6782
 20
11.6152
 30
0.0000
  0
VERTEX
  8
16
 10
3.3508
 20
11.3394
 30
0.0000
 42
1.0000
  0
VERTEX
  8
16
 10
3.4749
 20
10.7425
 30
0.0000
  0
VERTEX
  8
16
 10
4.8023
 20
11.0184
 30
0.0000
 42
1.0000
  0
SEQEND
  8
0
  0
POLYLINE
  8
16
 66
1
 10
0.0000
 20
0.0000
 30
0.0000
 40
0.0000
 41
0.0000
 70
1
  0
VERTEX
  8
16
 10
3.4128
 20
11.3458
 30
0.0000
  0
VERTEX
  8
16
 10
3.4128
 20
11.3458
 30
0.0000
 42
1.0000
  0
VERTEX
  8
16
 10
3.4128
 20
10.7362
 30
0.0000
  0
VERTEX
  8
16
 10
3.4128
 20
10.7362
 30
0.0000
 42
1.0000
  0
SEQEND
  8
0
  0
POLYLINE
  8
16
 66
1
 10
0.0000
 20
0.0000
 30
0.0000
 40
0.0000
 41
0.0000
 70
1
  0
VERTEX
  8
16
 10
3.2726
 20
11.3116
 30
0.0000
  0
VERTEX
  8
16
 10
2.0688
 20
10.6878
 30
0.0000
 42
1.0000
  0
VERTEX
  8
16
 10
2.3493
 20
10.1466
 30
0.0000
  0
VERTEX
  8
16
 10
3.5531
 20
10.7703
 30
0.0000
 42
1.0000
  0
SEQEND
  8
0
  0
POLYLINE
  8
16
 66
1
 10
0.0000
 20
0.0000
 30
0.0000
 40
0.0000
 41
0.0000
 70
1
  0
VERTEX
  8
16
 10
2.2091
 20
10.7220
 30
0.0000
  0
VERTEX
  8
16
 10
2.2091
 20
10.7220
 30
0.0000
 42
1.0000
  0
VERTEX
  8
16
 10
2.2091
 20
10.1124
 30
0.0000
  0
VERTEX
  8
16
 10
2.2091
 20
10.1124
 30
0.0000
 42
1.0000
  0
SEQEND
  8
0
  0
POLYLINE
  8
16
 66
1
 10
0.0000
 20
0.0000
 30
0.0000
 40
0.0000
 41
0.0000
 70
1
  0
VERTEX
  8
16
 10
2.0010
 20
10.6400
 30
0.0000
  0
VERTEX
  8
16
 10
1.1890
 20
9.8815
 30
0.0000
 42
1.0000
  0
VERTEX
  8
16
 10
1.6050
 20
9.4360
 30
0.0000
  0
VERTEX
  8
16
 10
2.4171
 20
10.1944
 30
0.0000
 42
1.0000
  0
SEQEND
  8
0
  0
POLYLINE
  8
16
 66
1
 10
0.0000
 20
0.0000
 30
0.0000
 40
0.0000
 41
0.0000
 70
1
  0
VERTEX
  8
16
 10
1.7018
 20
9.6588
 30
0.0000
  0
VERTEX
  8
16
 10
1.7018
 20
10.8513
 30
0.0000
 42
1.0000
  0
VERTEX
  8
16
 10
1.0922
 20
10.8513
 30
0.0000
  0
VERTEX
  8
16
 10
1.0922
 20
9.6588
 30
0.0000
 42
1.0000
  0
SEQEND
  8
0
  0
POLYLINE
  8
16
 66
1
 10
0.0000
 20
0.0000
 30
0.0000
 40
0.0000
 41
0.0000
 70
1
  0
VERTEX
  8
16
 10
1.6125
 20
10.6358
 30
0.0000
  0
VERTEX
  8
16
 10
3.3342
 20
12.3575
 30
0.0000
 42
1.0000
  0
VERTEX
  8
16
 10
2.9031
 20
12.7885
 30
0.0000
  0
VERTEX
  8
16
 10
1.1815
 20
11.0669
 30
0.0000
 42
1.0000
  0
SEQEND
  8
0
  0
POLYLINE
  8
16
 66
1
 10
0.0000
 20
0.0000
 30
0.0000
 40
0.0000
 41
0.0000
 70
1
  0
VERTEX
  8
16
 10
3.1187
 20
12.2682
 30
0.0000
  0
VERTEX
  8
16
 10
117.5313
 20
12.2682
 30
0.0000
 42
1.0000
  0
VERTEX
  8
16
 10
117.5313
 20
12.8778
 30
0.0000
  0
VERTEX
  8
16
 10
3.1187
 20
12.8778
 30
0.0000
 42
1.0000
  0
SEQEND
  8
0
  0
POLYLINE
  8
16
 66
1
 10
0.0000
 20
0.0000
 30
0.0000
 40
0.0000
 41
0.0000
 70
1
  0
VERTEX
  8
16
 10
117.3158
 20
12.3575
 30
0.0000
  0
VERTEX
  8
16
 10
119.0375
 20
10.6358
 30
0.0000
 42
1.0000
  0
VERTEX
  8
16
 10
119.4685
 20
11.0669
 30
0.0000
  0
VERTEX
  8
16
 10
117.7469
 20
12.7885
 30
0.0000
 42
1.0000
  0
SEQEND
  8
0
  0
POLYLINE
  8
16
 66
1
 10
0.0000
 20
0.0000
 30
0.0000
 40
0.0000
 41
0.0000
 70
1
  0
VERTEX
  8
16
 10
118.9482
 20
10.8513
 30
0.0000
  0
VERTEX
  8
16
 10
118.9482
 20
9.6381
 30
0.0000
 42
1.0000
  0
VERTEX
  8
16
 10
119.5578
 20
9.6381
 30
0.0000
  0
VERTEX
  8
16
 10
119.5578
 20
10.8513
 30
0.0000
 42
1.0000
  0
SEQEND
  8
0
  0
POLYLINE
  8
16
 66
1
 10
0.0000
 20
0.0000
 30
0.0000
 40
0.0000
 41
0.0000
 70
1
  0
VERTEX
  8
16
 10
119.4894
 20
9.8305
 30
0.0000
  0
VERTEX
  8
16
 10
119.2045
 20
10.1807
 30
0.0000
 42
1.0000
  0
VERTEX
  8
16
 10
118.7316
 20
9.7960
 30
0.0000
  0
VERTEX
  8
16
 10
119.0166
 20
9.4457
 30
0.0000
 42
1.0000
  0
SEQEND
  8
0
  0
POLYLINE
  8
16
 66
1
 10
0.0000
 20
0.0000
 30
0.0000
 40
0.0000
 41
0.0000
 70
1
  0
VERTEX
  8
16
 10
118.9680
 20
10.2932
 30
0.0000
  0
VERTEX
  8
16
 10
118.9680
 20
10.2932
 30
0.0000
 42
1.0000
  0
VERTEX
  8
16
 10
118.9680
 20
9.6836
 30
0.0000
  0
VERTEX
  8
16
 10
118.9680
 20
9.6836
 30
0.0000
 42
1.0000
  0
SEQEND
  8
0
  0
POLYLINE
  8
16
 66
1
 10
0.0000
 20
0.0000
 30
0.0000
 40
0.0000
 41
0.0000
 70
1
  0
VERTEX
  8
16
 10
119.1438
 20
10.2374
 30
0.0000
  0
VERTEX
  8
16
 10
118.0362
 20
11.0193
 30
0.0000
 42
1.0000
  0
VERTEX
  8
16
 10
117.6846
 20
10.5212
 30
0.0000
  0
VERTEX
  8
16
 10
118.7922
 20
9.7394
 30
0.0000
 42
1.0000
  0
SEQEND
  8
0
  0
POLYLINE
  8
16
 66
1
 10
0.0000
 20
0.0000
 30
0.0000
 40
0.0000
 41
0.0000
 70
1
  0
VERTEX
  8
16
 10
117.9625
 20
11.0574
 30
0.0000
  0
VERTEX
  8
16
 10
116.6850
 20
11.5115
 30
0.0000
 42
1.0000
  0
VERTEX
  8
16
 10
116.4808
 20
10.9371
 30
0.0000
  0
VERTEX
  8
16
 10
117.7583
 20
10.4830
 30
0.0000
 42
1.0000
  0
SEQEND
  8
0
  0
POLYLINE
  8
16
 66
1
 10
0.0000
 20
0.0000
 30
0.0000
 40
0.0000
 41
0.0000
 70
1
  0
VERTEX
  8
16
 10
116.6037
 20
11.5284
 30
0.0000
  0
VERTEX
  8
16
 10
115.2511
 20
11.6209
 30
0.0000
 42
1.0000
  0
VERTEX
  8
16
 10
115.2095
 20
11.0127
 30
0.0000
  0
VERTEX
  8
16
 10
116.5621
 20
10.9202
 30
0.0000
 42
1.0000
  0
SEQEND
  8
0
  0
POLYLINE
  8
16
 66
1
 10
0.0000
 20
0.0000
 30
0.0000
 40
0.0000
 41
0.0000
 70
1
  0
VERTEX
  8
16
 10
115.1682
 20
11.6152
 30
0.0000
  0
VERTEX
  8
16
 10
113.8408
 20
11.3394
 30
0.0000
 42
1.0000
  0
VERTEX
  8
16
 10
113.9649
 20
10.7425
 30
0.0000
  0
VERTEX
  8
16
 10
115.2923
 20
11.0184
 30
0.0000
 42
1.0000
  0
SEQEND
  8
0
  0
POLYLINE
  8
16
 66
1
 10
0.0000
 20
0.0000
 30
0.0000
 40
0.0000
 41
0.0000
 70
1
  0
VERTEX
  8
16
 10
113.7626
 20
11.3116
 30
0.0000
  0
VERTEX
  8
16
 10
112.5588
 20
10.6878
 30
0.0000
 42
1.0000
  0
VERTEX
  8
16
 10
112.8393
 20
10.1466
 30
0.0000
  0
VERTEX
  8
16
 10
114.0431
 20
10.7703
 30
0.0000
 42
1.0000
  0
SEQEND
  8
0
  0
POLYLINE
  8
16
 66
1
 10
0.0000
 20
0.0000
 30
0.0000
 40
0.0000
 41
0.0000
 70
1
  0
VERTEX
  8
16
 10
112.6991
 20
10.7220
 30
0.0000
  0
VERTEX
  8
16
 10
112.6991
 20
10.7220
 30
0.0000
 42
1.0000
  0
VERTEX
  8
16
 10
112.6991
 20
10.1124
 30
0.0000
  0
VERTEX
  8
16
 10
112.6991
 20
10.1124
 30
0.0000
 42
1.0000
  0
SEQEND
  8
0
  0
POLYLINE
  8
16
 66
1
 10
0.0000
 20
0.0000
 30
0.0000
 40
0.0000
 41
0.0000
 70
1
  0
VERTEX
  8
16
 10
112.4910
 20
10.6400
 30
0.0000
  0
VERTEX
  8
16
 10
111.5002
 20
9.7146
 30
0.0000
 42
1.0000
  0
VERTEX
  8
16
 10
111.9162
 20
9.2690
 30
0.0000
  0
VERTEX
  8
16
 10
112.9071
 20
10.1944
 30
0.0000
 42
1.0000
  0
SEQEND
  8
0
  0
POLYLINE
  8
16
 66
1
 10
0.0000
 20
0.0000
 30
0.0000
 40
0.0000
 41
0.0000
 70
1
  0
VERTEX
  8
16
 10
111.4034
 20
9.4918
 30
0.0000
  0
VERTEX
  8
16
 10
111.4034
 20
9.4918
 30
0.0000
 42
1.0000
  0
VERTEX
  8
16
 10
112.0130
 20
9.4918
 30
0.0000
  0
VERTEX
  8
16
 10
112.0130
 20
9.4918
 30
0.0000
 42
1.0000
  0
SEQEND
  8
0
  0
POLYLINE
  8
16
 66
1
 10
0.0000
 20
0.0000
 30
0.0000
 40
0.0000
 41
0.0000
 70
1
  0
VERTEX
  8
16
 10
111.4478
 20
9.6502
 30
0.0000
  0
VERTEX
  8
16
 10
110.7433
 20
8.4918
 30
0.0000
 42
1.0000
  0
VERTEX
  8
16
 10
111.2642
 20
8.1750
 30
0.0000
  0
VERTEX
  8
16
 10
111.9686
 20
9.3334
 30
0.0000
 42
1.0000
  0
SEQEND
  8
0
  0
POLYLINE
  8
16
 66
1
 10
0.0000
 20
0.0000
 30
0.0000
 40
0.0000
 41
0.0000
 70
1
  0
VERTEX
  8
16
 10
110.6990
 20
8.3334
 30
0.0000
  0
VERTEX
  8
16
 10
110.6990
 20
8.3334
 30
0.0000
 42
1.0000
  0
VERTEX
  8
16
 10
111.3086
 20
8.3334
 30
0.0000
  0
VERTEX
  8
16
 10
111.3086
 20
8.3334
 30
0.0000
 42
1.0000
  0
SEQEND
  8
0
  0
POLYLINE
  8
16
 66
1
 10
0.0000
 20
0.0000
 30
0.0000
 40
0.0000
 41
0.0000
 70
1
  0
VERTEX
  8
16
 10
110.7103
 20
8.4156
 30
0.0000
  0
VERTEX
  8
16
 10
110.3445
 20
7.1101
 30
0.0000
 42
1.0000
  0
VERTEX
  8
16
 10
110.9315
 20
6.9457
 30
0.0000
  0
VERTEX
  8
16
 10
111.2973
 20
8.2512
 30
0.0000
 42
1.0000
  0
SEQEND
  8
0
  0
POLYLINE
  8
16
 66
1
 10
0.0000
 20
0.0000
 30
0.0000
 40
0.0000
 41
0.0000
 70
1
  0
VERTEX
  8
16
 10
110.3332
 20
7.0279
 30
0.0000
  0
VERTEX
  8
16
 10
110.3332
 20
5.6721
 30
0.0000
 42
1.0000
  0
VERTEX
  8
16
 10
110.9428
 20
5.6721
 30
0.0000
  0
VERTEX
  8
16
 10
110.9428
 20
7.0279
 30
0.0000
 42
1.0000
  0
SEQEND
  8
0
  0
POLYLINE
  8
16
 66
1
 10
0.0000
 20
0.0000
 30
0.0000
 40
0.0000
 41
0.0000
 70
1
  0
VERTEX
  8
16
 10
110.3445
 20
5.5899
 30
0.0000
  0
VERTEX
  8
16
 10
110.7103
 20
4.2844
 30
0.0000
 42
1.0000
  0
VERTEX
  8
16
 10
111.2973
 20
4.4488
 30
0.0000
  0
VERTEX
  8
16
 10
110.9315
 20
5.7543
 30
0.0000
 42
1.0000
  0
SEQEND
  8
0
  0
POLYLINE
  8
16
 66
1
 10
0.0000
 20
0.0000
 30
0.0000
 40
0.0000
 41
0.0000
 70
1
  0
VERTEX
  8
16
 10
110.6990
 20
4.3666
 30
0.0000
  0
VERTEX
  8
16
 10
110.6990
 20
4.3666
 30
0.0000
 42
1.0000
  0
VERTEX
  8
16
 10
111.3086
 20
4.3666
 30
0.0000
  0
VERTEX
  8
16
 10
111.3086
 20
4.3666
 30
0.0000
 42
1.0000
  0
SEQEND
  8
0
  0
POLYLINE
  8
16
 66
1
 10
0.0000
 20
0.0000
 30
0.0000
 40
0.0000
 41
0.0000
 70
1
  0
VERTEX
  8
16
 10
110.7433
 20
4.2082
 30
0.0000
  0
VERTEX
  8
16
 10
111.4478
 20
3.0498
 30
0.0000
 42
1.0000
  0
VERTEX
  8
16
 10
111.9686
 20
3.3666
 30
0.0000
  0
VERTEX
  8
16
 10
111.2642
 20
4.5250
 30
0.0000
 42
1.0000
  0
SEQEND
  8
0
  0
POLYLINE
  8
16
 66
1
 10
0.0000
 20
0.0000
 30
0.0000
 40
0.0000
 41
0.0000
 70
1
  0
VERTEX
  8
16
 10
111.4034
 20
3.2082
 30
0.0000
  0
VERTEX
  8
16
 10
111.4034
 20
3.2082
 30
0.0000
 42
1.0000
  0
VERTEX
  8
16
 10
112.0130
 20
3.2082
 30
0.0000
  0
VERTEX
  8
16
 10
112.0130
 20
3.2082
 30
0.0000
 42
1.0000
  0
SEQEND
  8
0
  0
POLYLINE
  8
16
 66
1
 10
0.0000
 20
0.0000
 30
0.0000
 40
0.0000
 41
0.0000
 70
1
  0
VERTEX
  8
16
 10
111.5002
 20
2.9854
 30
0.0000
  0
VERTEX
  8
16
 10
112.4910
 20
2.0600
 30
0.0000
 42
1.0000
  0
VERTEX
  8
16
 10
112.9071
 20
2.5056
 30
0.0000
  0
VERTEX
  8
16
 10
111.9162
 20
3.4309
 30
0.0000
 42
1.0000
  0
SEQEND
  8
0
  0
POLYLINE
  8
16
 66
1
 10
0.0000
 20
0.0000
 30
0.0000
 40
0.0000
 41
0.0000
 70
1
  0
VERTEX
  8
16
 10
112.6991
 20
1.9780
 30
0.0000
  0
VERTEX
  8
16
 10
112.6991
 20
1.9780
 30
0.0000
 42
1.0000
  0
VERTEX
  8
16
 10
112.6991
 20
2.5876
 30
0.0000
  0
VERTEX
  8
16
 10
112.6991
 20
2.5876
 30
0.0000
 42
1.0000
  0
SEQEND
  8
0
  0
POLYLINE
  8
16
 66
1
 10
0.0000
 20
0.0000
 30
0.0000
 40
0.0000
 41
0.0000
 70
1
  0
VERTEX
  8
16
 10
112.5588
 20
2.0122
 30
0.0000
  0
VERTEX
  8
16
 10
113.7626
 20
1.3884
 30
0.0000
 42
1.0000
  0
VERTEX
  8
16
 10
114.0431
 20
1.9297
 30
0.0000
  0
VERTEX
  8
16
 10
112.8393
 20
2.5534
 30
0.0000
 42
1.0000
  0
SEQEND
  8
0
  0
POLYLINE
  8
16
 66
1
 10
0.0000
 20
0.0000
 30
0.0000
 40
0.0000
 41
0.0000
 70
1
  0
VERTEX
  8
16
 10
113.9028
 20
1.3542
 30
0.0000
  0
VERTEX
  8
16
 10
113.9028
 20
1.3542
 30
0.0000
 42
1.0000
  0
VERTEX
  8
16
 10
113.9028
 20
1.9638
 30
0.0000
  0
VERTEX
  8
16
 10
113.9028
 20
1.9638
 30
0.0000
 42
1.0000
  0
SEQEND
  8
0
  0
POLYLINE
  8
16
 66
1
 10
0.0000
 20
0.0000
 30
0.0000
 40
0.0000
 41
0.0000
 70
1
  0
VERTEX
  8
16
 10
113.8408
 20
1.3606
 30
0.0000
  0
VERTEX
  8
16
 10
115.1019
 20
1.0986
 30
0.0000
 42
1.0000
  0
VERTEX
  8
16
 10
115.2259
 20
1.6954
 30
0.0000
  0
VERTEX
  8
16
 10
113.9649
 20
1.9575
 30
0.0000
 42
1.0000
  0
SEQEND
  8
0
  0
POLYLINE
  8
16
 66
1
 10
0.0000
 20
0.0000
 30
0.0000
 40
0.0000
 41
0.0000
 70
1
  0
VERTEX
  8
16
 10
115.1639
 20
1.7018
 30
0.0000
  0
VERTEX
  8
16
 10
102.4704
 20
1.7018
 30
0.0000
 42
1.0000
  0
VERTEX
  8
16
 10
102.4704
 20
1.0922
 30
0.0000
  0
VERTEX
  8
16
 10
115.1639
 20
1.0922
 30
0.0000
 42
1.0000
  0
SEQEND
  8
0
  0
POLYLINE
  8
16
 66
1
 10
0.0000
 20
0.0000
 30
0.0000
 40
0.0000
 41
0.0000
 70
1
  0
VERTEX
  8
16
 10
102.6859
 20
1.1815
 30
0.0000
  0
VERTEX
  8
16
 10
104.4385
 20
2.9341
 30
0.0000
 42
1.0000
  0
VERTEX
  8
16
 10
104.0075
 20
3.3651
 30
0.0000
  0
VERTEX
  8
16
 10
102.2548
 20
1.6125
 30
0.0000
 42
1.0000
  0
SEQEND
  8
0
  0
POLYLINE
  8
16
 66
1
 10
0.0000
 20
0.0000
 30
0.0000
 40
0.0000
 41
0.0000
 70
1
  0
VERTEX
  8
16
 10
104.2230
 20
2.8448
 30
0.0000
  0
VERTEX
  8
16
 10
105.1601
 20
2.8448
 30
0.0000
 42
1.0000
  0
VERTEX
  8
16
 10
105.1601
 20
3.4544
 30
0.0000
  0
VERTEX
  8
16
 10
104.2230
 20
3.4544
 30
0.0000
 42
1.0000
  0
SEQEND
  8
0
  0
POLYLINE
  8
16
 66
1
 10
0.0000
 20
0.0000
 30
0.0000
 40
0.0000
 41
0.0000
 70
1
  0
VERTEX
  8
16
 10
105.2767
 20
2.8680
 30
0.0000
  0
VERTEX
  8
16
 10
105.6128
 20
3.0072
 30
0.0000
 42
1.0000
  0
VERTEX
  8
16
 10
105.3795
 20
3.5704
 30
0.0000
  0
VERTEX
  8
16
 10
105.0434
 20
3.4312
 30
0.0000
 42
1.0000
  0
SEQEND
  8
0
  0
POLYLINE
  8
16
 66
1
 10
0.0000
 20
0.0000
 30
0.0000
 40
0.0000
 41
0.0000
 70
1
  0
VERTEX
  8
16
 10
105.7117
 20
3.0733
 30
0.0000
  0
VERTEX
  8
16
 10
105.9689
 20
3.3305
 30
0.0000
 42
1.0000
  0
VERTEX
  8
16
 10
105.5379
 20
3.7616
 30
0.0000
  0
VERTEX
  8
16
 10
105.2806
 20
3.5043
 30
0.0000
 42
1.0000
  0
SEQEND
  8
0
  0
POLYLINE
  8
16
 66
1
 10
0.0000
 20
0.0000
 30
0.0000
 40
0.0000
 41
0.0000
 70
1
  0
VERTEX
  8
16
 10
106.0350
 20
3.4294
 30
0.0000
  0
VERTEX
  8
16
 10
106.1742
 20
3.7655
 30
0.0000
 42
1.0000
  0
VERTEX
  8
16
 10
105.6110
 20
3.9988
 30
0.0000
  0
VERTEX
  8
16
 10
105.4718
 20
3.6627
 30
0.0000
 42
1.0000
  0
SEQEND
  8
0
  0
POLYLINE
  8
16
 66
1
 10
0.0000
 20
0.0000
 30
0.0000
 40
0.0000
 41
0.0000
 70
1
  0
VERTEX
  8
16
 10
102.2096
 20
9.5077
 30
0.0000
  0
VERTEX
  8
16
 10
102.2096
 20
10.8123
 30
0.0000
 42
1.0000
  0
VERTEX
  8
16
 10
101.6000
 20
10.8123
 30
0.0000
  0
VERTEX
  8
16
 10
101.6000
 20
9.5077
 30
0.0000
 42
1.0000
  0
SEQEND
  8
0
  0
POLYLINE
  8
16
 66
1
 10
0.0000
 20
0.0000
 30
0.0000
 40
0.0000
 41
0.0000
 70
1
  0
VERTEX
  8
16
 10
102.1203
 20
11.0278
 30
0.0000
  0
VERTEX
  8
16
 10
101.1978
 20
11.9503
 30
0.0000
 42
1.0000
  0
VERTEX
  8
16
 10
100.7668
 20
11.5193
 30
0.0000
  0
VERTEX
  8
16
 10
101.6893
 20
10.5968
 30
0.0000
 42
1.0000
  0
SEQEND
  8
0
  0
POLYLINE
  8
16
 66
1
 10
0.0000
 20
0.0000
 30
0.0000
 40
0.0000
 41
0.0000
 70
1
  0
VERTEX
  8
16
 10
100.9823
 20
12.0396
 30
0.0000
  0
VERTEX
  8
16
 10
99.6777
 20
12.0396
 30
0.0000
 42
1.0000
  0
VERTEX
  8
16
 10
99.6777
 20
11.4300
 30
0.0000
  0
VERTEX
  8
16
 10
100.9823
 20
11.4300
 30
0.0000
 42
1.0000
  0
SEQEND
  8
0
  0
POLYLINE
  8
16
 66
1
 10
0.0000
 20
0.0000
 30
0.0000
 40
0.0000
 41
0.0000
 70
1
  0
VERTEX
  8
16
 10
99.4622
 20
11.9503
 30
0.0000
  0
VERTEX
  8
16
 10
99.4368
 20
11.9249
 30
0.0000
 42
1.0000
  0
VERTEX
  8
16
 10
99.8678
 20
11.4939
 30
0.0000
  0
VERTEX
  8
16
 10
99.8932
 20
11.5193
 30
0.0000
 42
1.0000
  0
SEQEND
  8
0
  0
POLYLINE
  8
16
 66
1
 10
0.0000
 20
0.0000
 30
0.0000
 40
0.0000
 41
0.0000
 70
1
  0
VERTEX
  8
16
 10
99.6523
 20
12.0142
 30
0.0000
  0
VERTEX
  8
16
 10
89.5777
 20
12.0142
 30
0.0000
 42
1.0000
  0
VERTEX
  8
16
 10
89.5777
 20
11.4046
 30
0.0000
  0
VERTEX
  8
16
 10
99.6523
 20
11.4046
 30
0.0000
 42
1.0000
  0
SEQEND
  8
0
  0
POLYLINE
  8
16
 66
1
 10
0.0000
 20
0.0000
 30
0.0000
 40
0.0000
 41
0.0000
 70
1
  0
VERTEX
  8
16
 10
89.7932
 20
11.9249
 30
0.0000
  0
VERTEX
  8
16
 10
89.7678
 20
11.9503
 30
0.0000
 42
1.0000
  0
VERTEX
  8
16
 10
89.3368
 20
11.5193
 30
0.0000
  0
VERTEX
  8
16
 10
89.3622
 20
11.4939
 30
0.0000
 42
1.0000
  0
SEQEND
  8
0
  0
POLYLINE
  8
16
 66
1
 10
0.0000
 20
0.0000
 30
0.0000
 40
0.0000
 41
0.0000
 70
1
  0
VERTEX
  8
16
 10
89.5523
 20
12.0396
 30
0.0000
  0
VERTEX
  8
16
 10
88.2477
 20
12.0396
 30
0.0000
 42
1.0000
  0
VERTEX
  8
16
 10
88.2477
 20
11.4300
 30
0.0000
  0
VERTEX
  8
16
 10
89.5523
 20
11.4300
 30
0.0000
 42
1.0000
  0
SEQEND
  8
0
  0
POLYLINE
  8
16
 66
1
 10
0.0000
 20
0.0000
 30
0.0000
 40
0.0000
 41
0.0000
 70
1
  0
VERTEX
  8
16
 10
88.0322
 20
11.9503
 30
0.0000
  0
VERTEX
  8
16
 10
88.0068
 20
11.9249
 30
0.0000
 42
1.0000
  0
VERTEX
  8
16
 10
88.4378
 20
11.4939
 30
0.0000
  0
VERTEX
  8
16
 10
88.4632
 20
11.5193
 30
0.0000
 42
1.0000
  0
SEQEND
  8
0
  0
POLYLINE
  8
16
 66
1
 10
0.0000
 20
0.0000
 30
0.0000
 40
0.0000
 41
0.0000
 70
1
  0
VERTEX
  8
16
 10
88.2223
 20
12.0142
 30
0.0000
  0
VERTEX
  8
16
 10
78.1477
 20
12.0142
 30
0.0000
 42
1.0000
  0
VERTEX
  8
16
 10
78.1477
 20
11.4046
 30
0.0000
  0
VERTEX
  8
16
 10
88.2223
 20
11.4046
 30
0.0000
 42
1.0000
  0
SEQEND
  8
0
  0
POLYLINE
  8
16
 66
1
 10
0.0000
 20
0.0000
 30
0.0000
 40
0.0000
 41
0.0000
 70
1
  0
VERTEX
  8
16
 10
78.3632
 20
11.9249
 30
0.0000
  0
VERTEX
  8
16
 10
78.3378
 20
11.9503
 30
0.0000
 42
1.0000
  0
VERTEX
  8
16
 10
77.9068
 20
11.5193
 30
0.0000
  0
VERTEX
  8
16
 10
77.9322
 20
11.4939
 30
0.0000
 42
1.0000
  0
SEQEND
  8
0
  0
POLYLINE
  8
16
 66
1
 10
0.0000
 20
0.0000
 30
0.0000
 40
0.0000
 41
0.0000
 70
1
  0
VERTEX
  8
16
 10
78.1223
 20
12.0396
 30
0.0000
  0
VERTEX
  8
16
 10
76.8177
 20
12.0396
 30
0.0000
 42
1.0000
  0
VERTEX
  8
16
 10
76.8177
 20
11.4300
 30
0.0000
  0
VERTEX
  8
16
 10
78.1223
 20
11.4300
 30
0.0000
 42
1.0000
  0
SEQEND
  8
0
  0
POLYLINE
  8
16
 66
1
 10
0.0000
 20
0.0000
 30
0.0000
 40
0.0000
 41
0.0000
 70
1
  0
VERTEX
  8
16
 10
76.6022
 20
11.9503
 30
0.0000
  0
VERTEX
  8
16
 10
76.5768
 20
11.9249
 30
0.0000
 42
1.0000
  0
VERTEX
  8
16
 10
77.0078
 20
11.4939
 30
0.0000
  0
VERTEX
  8
16
 10
77.0332
 20
11.5193
 30
0.0000
 42
1.0000
  0
SEQEND
  8
0
  0
POLYLINE
  8
16
 66
1
 10
0.0000
 20
0.0000
 30
0.0000
 40
0.0000
 41
0.0000
 70
1
  0
VERTEX
  8
16
 10
76.7923
 20
12.0142
 30
0.0000
  0
VERTEX
  8
16
 10
66.7177
 20
12.0142
 30
0.0000
 42
1.0000
  0
VERTEX
  8
16
 10
66.7177
 20
11.4046
 30
0.0000
  0
VERTEX
  8
16
 10
76.7923
 20
11.4046
 30
0.0000
 42
1.0000
  0
SEQEND
  8
0
  0
POLYLINE
  8
16
 66
1
 10
0.0000
 20
0.0000
 30
0.0000
 40
0.0000
 41
0.0000
 70
1
  0
VERTEX
  8
16
 10
66.9332
 20
11.9249
 30
0.0000
  0
VERTEX
  8
16
 10
66.9078
 20
11.9503
 30
0.0000
 42
1.0000
  0
VERTEX
  8
16
 10
66.4768
 20
11.5193
 30
0.0000
  0
VERTEX
  8
16
 10
66.5022
 20
11.4939
 30
0.0000
 42
1.0000
  0
SEQEND
  8
0
  0
POLYLINE
  8
16
 66
1
 10
0.0000
 20
0.0000
 30
0.0000
 40
0.0000
 41
0.0000
 70
1
  0
VERTEX
  8
16
 10
66.6923
 20
12.0396
 30
0.0000
  0
VERTEX
  8
16
 10
65.3877
 20
12.0396
 30
0.0000
 42
1.0000
  0
VERTEX
  8
16
 10
65.3877
 20
11.4300
 30
0.0000
  0
VERTEX
  8
16
 10
66.6923
 20
11.4300
 30
0.0000
 42
1.0000
  0
SEQEND
  8
0
  0
POLYLINE
  8
16
 66
1
 10
0.0000
 20
0.0000
 30
0.0000
 40
0.0000
 41
0.0000
 70
1
  0
VERTEX
  8
16
 10
65.1722
 20
11.9503
 30
0.0000
  0
VERTEX
  8
16
 10
65.1468
 20
11.9249
 30
0.0000
 42
1.0000
  0
VERTEX
  8
16
 10
65.5778
 20
11.4939
 30
0.0000
  0
VERTEX
  8
16
 10
65.6032
 20
11.5193
 30
0.0000
 42
1.0000
  0
SEQEND
  8
0
  0
POLYLINE
  8
16
 66
1
 10
0.0000
 20
0.0000
 30
0.0000
 40
0.0000
 41
0.0000
 70
1
  0
VERTEX
  8
16
 10
65.3623
 20
12.0142
 30
0.0000
  0
VERTEX
  8
16
 10
55.2877
 20
12.0142
 30
0.0000
 42
1.0000
  0
VERTEX
  8
16
 10
55.2877
 20
11.4046
 30
0.0000
  0
VERTEX
  8
16
 10
65.3623
 20
11.4046
 30
0.0000
 42
1.0000
  0
SEQEND
  8
0
  0
POLYLINE
  8
16
 66
1
 10
0.0000
 20
0.0000
 30
0.0000
 40
0.0000
 41
0.0000
 70
1
  0
VERTEX
  8
16
 10
55.5032
 20
11.9249
 30
0.0000
  0
VERTEX
  8
16
 10
55.4778
 20
11.9503
 30
0.0000
 42
1.0000
  0
VERTEX
  8
16
 10
55.0468
 20
11.5193
 30
0.0000
  0
VERTEX
  8
16
 10
55.0722
 20
11.4939
 30
0.0000
 42
1.0000
  0
SEQEND
  8
0
  0
POLYLINE
  8
16
 66
1
 10
0.0000
 20
0.0000
 30
0.0000
 40
0.0000
 41
0.0000
 70
1
  0
VERTEX
  8
16
 10
55.2623
 20
12.0396
 30
0.0000
  0
VERTEX
  8
16
 10
53.9577
 20
12.0396
 30
0.0000
 42
1.0000
  0
VERTEX
  8
16
 10
53.9577
 20
11.4300
 30
0.0000
  0
VERTEX
  8
16
 10
55.2623
 20
11.4300
 30
0.0000
 42
1.0000
  0
SEQEND
  8
0
  0
POLYLINE
  8
16
 66
1
 10
0.0000
 20
0.0000
 30
0.0000
 40
0.0000
 41
0.0000
 70
1
  0
VERTEX
  8
16
 10
53.7422
 20
11.9503
 30
0.0000
  0
VERTEX
  8
16
 10
53.7168
 20
11.9249
 30
0.0000
 42
1.0000
  0
VERTEX
  8
16
 10
54.1478
 20
11.4939
 30
0.0000
  0
VERTEX
  8
16
 10
54.1732
 20
11.5193
 30
0.0000
 42
1.0000
  0
SEQEND
  8
0
  0
POLYLINE
  8
16
 66
1
 10
0.0000
 20
0.0000
 30
0.0000
 40
0.0000
 41
0.0000
 70
1
  0
VERTEX
  8
16
 10
53.9323
 20
12.0142
 30
0.0000
  0
VERTEX
  8
16
 10
43.8577
 20
12.0142
 30
0.0000
 42
1.0000
  0
VERTEX
  8
16
 10
43.8577
 20
11.4046
 30
0.0000
  0
VERTEX
  8
16
 10
53.9323
 20
11.4046
 30
0.0000
 42
1.0000
  0
SEQEND
  8
0
  0
POLYLINE
  8
16
 66
1
 10
0.0000
 20
0.0000
 30
0.0000
 40
0.0000
 41
0.0000
 70
1
  0
VERTEX
  8
16
 10
44.0732
 20
11.9249
 30
0.0000
  0
VERTEX
  8
16
 10
44.0478
 20
11.9503
 30
0.0000
 42
1.0000
  0
VERTEX
  8
16
 10
43.6168
 20
11.5193
 30
0.0000
  0
VERTEX
  8
16
 10
43.6422
 20
11.4939
 30
0.0000
 42
1.0000
  0
SEQEND
  8
0
  0
POLYLINE
  8
16
 66
1
 10
0.0000
 20
0.0000
 30
0.0000
 40
0.0000
 41
0.0000
 70
1
  0
VERTEX
  8
16
 10
43.8323
 20
12.0396
 30
0.0000
  0
VERTEX
  8
16
 10
42.5277
 20
12.0396
 30
0.0000
 42
1.0000
  0
VERTEX
  8
16
 10
42.5277
 20
11.4300
 30
0.0000
  0
VERTEX
  8
16
 10
43.8323
 20
11.4300
 30
0.0000
 42
1.0000
  0
SEQEND
  8
0
  0
POLYLINE
  8
16
 66
1
 10
0.0000
 20
0.0000
 30
0.0000
 40
0.0000
 41
0.0000
 70
1
  0
VERTEX
  8
16
 10
42.3122
 20
11.9503
 30
0.0000
  0
VERTEX
  8
16
 10
42.2868
 20
11.9249
 30
0.0000
 42
1.0000
  0
VERTEX
  8
16
 10
42.7178
 20
11.4939
 30
0.0000
  0
VERTEX
  8
16
 10
42.7432
 20
11.5193
 30
0.0000
 42
1.0000
  0
SEQEND
  8
0
  0
POLYLINE
  8
16
 66
1
 10
0.0000
 20
0.0000
 30
0.0000
 40
0.0000
 41
0.0000
 70
1
  0
VERTEX
  8
16
 10
42.5023
 20
12.0142
 30
0.0000
  0
VERTEX
  8
16
 10
32.4277
 20
12.0142
 30
0.0000
 42
1.0000
  0
VERTEX
  8
16
 10
32.4277
 20
11.4046
 30
0.0000
  0
VERTEX
  8
16
 10
42.5023
 20
11.4046
 30
0.0000
 42
1.0000
  0
SEQEND
  8
0
  0
POLYLINE
  8
16
 66
1
 10
0.0000
 20
0.0000
 30
0.0000
 40
0.0000
 41
0.0000
 70
1
  0
VERTEX
  8
16
 10
32.6432
 20
11.9249
 30
0.0000
  0
VERTEX
  8
16
 10
32.6178
 20
11.9503
 30
0.0000
 42
1.0000
  0
VERTEX
  8
16
 10
32.1868
 20
11.5193
 30
0.0000
  0
VERTEX
  8
16
 10
32.2122
 20
11.4939
 30
0.0000
 42
1.0000
  0
SEQEND
  8
0
  0
POLYLINE
  8
16
 66
1
 10
0.0000
 20
0.0000
 30
0.0000
 40
0.0000
 41
0.0000
 70
1
  0
VERTEX
  8
16
 10
32.4023
 20
12.0396
 30
0.0000
  0
VERTEX
  8
16
 10
31.0977
 20
12.0396
 30
0.0000
 42
1.0000
  0
VERTEX
  8
16
 10
31.0977
 20
11.4300
 30
0.0000
  0
VERTEX
  8
16
 10
32.4023
 20
11.4300
 30
0.0000
 42
1.0000
  0
SEQEND
  8
0
  0
POLYLINE
  8
16
 66
1
 10
0.0000
 20
0.0000
 30
0.0000
 40
0.0000
 41
0.0000
 70
1
  0
VERTEX
  8
16
 10
30.8822
 20
11.9503
 30
0.0000
  0
VERTEX
  8
16
 10
30.8568
 20
11.9249
 30
0.0000
 42
1.0000
  0
VERTEX
  8
16
 10
31.2878
 20
11.4939
 30
0.0000
  0
VERTEX
  8
16
 10
31.3132
 20
11.5193
 30
0.0000
 42
1.0000
  0
SEQEND
  8
0
  0
POLYLINE
  8
16
 66
1
 10
0.0000
 20
0.0000
 30
0.0000
 40
0.0000
 41
0.0000
 70
1
  0
VERTEX
  8
16
 10
31.0723
 20
12.0142
 30
0.0000
  0
VERTEX
  8
16
 10
20.9977
 20
12.0142
 30
0.0000
 42
1.0000
  0
VERTEX
  8
16
 10
20.9977
 20
11.4046
 30
0.0000
  0
VERTEX
  8
16
 10
31.0723
 20
11.4046
 30
0.0000
 42
1.0000
  0
SEQEND
  8
0
  0
POLYLINE
  8
16
 66
1
 10
0.0000
 20
0.0000
 30
0.0000
 40
0.0000
 41
0.0000
 70
1
  0
VERTEX
  8
16
 10
21.2132
 20
11.9249
 30
0.0000
  0
VERTEX
  8
16
 10
21.1878
 20
11.9503
 30
0.0000
 42
1.0000
  0
VERTEX
  8
16
 10
20.7568
 20
11.5193
 30
0.0000
  0
VERTEX
  8
16
 10
20.7822
 20
11.4939
 30
0.0000
 42
1.0000
  0
SEQEND
  8
0
  0
POLYLINE
  8
16
 66
1
 10
0.0000
 20
0.0000
 30
0.0000
 40
0.0000
 41
0.0000
 70
1
  0
VERTEX
  8
16
 10
20.9723
 20
12.0396
 30
0.0000
  0
VERTEX
  8
16
 10
19.6677
 20
12.0396
 30
0.0000
 42
1.0000
  0
VERTEX
  8
16
 10
19.6677
 20
11.4300
 30
0.0000
  0
VERTEX
  8
16
 10
20.9723
 20
11.4300
 30
0.0000
 42
1.0000
  0
SEQEND
  8
0
  0
POLYLINE
  8
16
 66
1
 10
0.0000
 20
0.0000
 30
0.0000
 40
0.0000
 41
0.0000
 70
1
  0
VERTEX
  8
16
 10
19.4522
 20
11.9503
 30
0.0000
  0
VERTEX
  8
16
 10
19.4268
 20
11.9249
 30
0.0000
 42
1.0000
  0
VERTEX
  8
16
 10
19.8578
 20
11.4939
 30
0.0000
  0
VERTEX
  8
16
 10
19.8832
 20
11.5193
 30
0.0000
 42
1.0000
  0
SEQEND
  8
0
  0
POLYLINE
  8
16
 66
1
 10
0.0000
 20
0.0000
 30
0.0000
 40
0.0000
 41
0.0000
 70
1
  0
VERTEX
  8
16
 10
19.6423
 20
12.0142
 30
0.0000
  0
VERTEX
  8
16
 10
13.6618
 20
12.0142
 30
0.0000
 42
1.0000
  0
VERTEX
  8
16
 10
13.6618
 20
11.4046
 30
0.0000
  0
VERTEX
  8
16
 10
19.6423
 20
11.4046
 30
0.0000
 42
1.0000
  0
SEQEND
  8
0
  0
POLYLINE
  8
16
 66
1
 10
0.0000
 20
0.0000
 30
0.0000
 40
0.0000
 41
0.0000
 70
1
  0
VERTEX
  8
16
 10
13.5452
 20
11.9910
 30
0.0000
  0
VERTEX
  8
16
 10
12.9757
 20
11.7551
 30
0.0000
 42
1.0000
  0
VERTEX
  8
16
 10
13.2090
 20
11.1919
 30
0.0000
  0
VERTEX
  8
16
 10
13.7784
 20
11.4278
 30
0.0000
 42
1.0000
  0
SEQEND
  8
0
  0
POLYLINE
  8
16
 66
1
 10
0.0000
 20
0.0000
 30
0.0000
 40
0.0000
 41
0.0000
 70
1
  0
VERTEX
  8
16
 10
12.8768
 20
11.6890
 30
0.0000
  0
VERTEX
  8
16
 10
12.4410
 20
11.2532
 30
0.0000
 42
1.0000
  0
VERTEX
  8
16
 10
12.8720
 20
10.8221
 30
0.0000
  0
VERTEX
  8
16
 10
13.3079
 20
11.2580
 30
0.0000
 42
1.0000
  0
SEQEND
  8
0
  0
POLYLINE
  8
16
 66
1
 10
0.0000
 20
0.0000
 30
0.0000
 40
0.0000
 41
0.0000
 70
1
  0
VERTEX
  8
16
 10
12.4410
 20
11.2532
 30
0.0000
  0
VERTEX
  8
16
 10
11.3032
 20
10.1154
 30
0.0000
 42
1.0000
  0
VERTEX
  8
16
 10
11.7342
 20
9.6843
 30
0.0000
  0
VERTEX
  8
16
 10
12.8720
 20
10.8221
 30
0.0000
 42
1.0000
  0
SEQEND
  8
0
  0
POLYLINE
  8
16
 66
1
 10
0.0000
 20
0.0000
 30
0.0000
 40
0.0000
 41
0.0000
 70
1
  0
VERTEX
  8
16
 10
11.2371
 20
10.0165
 30
0.0000
  0
VERTEX
  8
16
 10
11.0012
 20
9.4470
 30
0.0000
 42
1.0000
  0
VERTEX
  8
16
 10
11.5644
 20
9.2138
 30
0.0000
  0
VERTEX
  8
16
 10
11.8003
 20
9.7832
 30
0.0000
 42
1.0000
  0
SEQEND
  8
0
  0
POLYLINE
  8
16
 66
1
 10
0.0000
 20
0.0000
 30
0.0000
 40
0.0000
 41
0.0000
 70
1
  0
VERTEX
  8
16
 10
10.9780
 20
9.3304
 30
0.0000
  0
VERTEX
  8
16
 10
10.9780
 20
6.2606
 30
0.0000
 42
1.0000
  0
VERTEX
  8
16
 10
11.5876
 20
6.2606
 30
0.0000
  0
VERTEX
  8
16
 10
11.5876
 20
9.3304
 30
0.0000
 42
1.0000
  0
SEQEND
  8
0
  0
POLYLINE
  8
16
 66
1
 10
0.0000
 20
0.0000
 30
0.0000
 40
0.0000
 41
0.0000
 70
1
  0
VERTEX
  8
16
 10
11.0673
 20
6.4761
 30
0.0000
  0
VERTEX
  8
16
 10
10.9802
 20
6.3890
 30
0.0000
 42
1.0000
  0
VERTEX
  8
16
 10
11.4112
 20
5.9580
 30
0.0000
  0
VERTEX
  8
16
 10
11.4983
 20
6.0451
 30
0.0000
 42
1.0000
  0
SEQEND
  8
0
  0
POLYLINE
  8
16
 66
1
 10
0.0000
 20
0.0000
 30
0.0000
 40
0.0000
 41
0.0000
 70
1
  0
VERTEX
  8
16
 10
10.9141
 20
6.2901
 30
0.0000
  0
VERTEX
  8
16
 10
10.6202
 20
5.5806
 30
0.0000
 42
1.0000
  0
VERTEX
  8
16
 10
11.1834
 20
5.3473
 30
0.0000
  0
VERTEX
  8
16
 10
11.4773
 20
6.0568
 30
0.0000
 42
1.0000
  0
SEQEND
  8
0
  0
POLYLINE
  8
16
 66
1
 10
0.0000
 20
0.0000
 30
0.0000
 40
0.0000
 41
0.0000
 70
1
  0
VERTEX
  8
16
 10
10.5970
 20
5.4640
 30
0.0000
  0
VERTEX
  8
16
 10
10.5970
 20
4.6960
 30
0.0000
 42
1.0000
  0
VERTEX
  8
16
 10
11.2066
 20
4.6960
 30
0.0000
  0
VERTEX
  8
16
 10
11.2066
 20
5.4640
 30
0.0000
 42
1.0000
  0
SEQEND
  8
0
  0
POLYLINE
  8
16
 66
1
 10
0.0000
 20
0.0000
 30
0.0000
 40
0.0000
 41
0.0000
 70
1
  0
VERTEX
  8
16
 10
10.6202
 20
4.5794
 30
0.0000
  0
VERTEX
  8
16
 10
10.9141
 20
3.8699
 30
0.0000
 42
1.0000
  0
VERTEX
  8
16
 10
11.4773
 20
4.1032
 30
0.0000
  0
VERTEX
  8
16
 10
11.1834
 20
4.8127
 30
0.0000
 42
1.0000
  0
SEQEND
  8
0
  0
POLYLINE
  8
16
 66
1
 10
0.0000
 20
0.0000
 30
0.0000
 40
0.0000
 41
0.0000
 70
1
  0
VERTEX
  8
16
 10
10.9802
 20
3.7710
 30
0.0000
  0
VERTEX
  8
16
 10
11.5232
 20
3.2280
 30
0.0000
 42
1.0000
  0
VERTEX
  8
16
 10
11.9542
 20
3.6590
 30
0.0000
  0
VERTEX
  8
16
 10
11.4112
 20
4.2020
 30
0.0000
 42
1.0000
  0
SEQEND
  8
0
  0
POLYLINE
  8
16
 66
1
 10
0.0000
 20
0.0000
 30
0.0000
 40
0.0000
 41
0.0000
 70
1
  0
VERTEX
  8
16
 10
11.6221
 20
3.1619
 30
0.0000
  0
VERTEX
  8
16
 10
12.3316
 20
2.8680
 30
0.0000
 42
1.0000
  0
VERTEX
  8
16
 10
12.5649
 20
3.4312
 30
0.0000
  0
VERTEX
  8
16
 10
11.8554
 20
3.7251
 30
0.0000
 42
1.0000
  0
SEQEND
  8
0
  0
POLYLINE
  8
16
 66
1
 10
0.0000
 20
0.0000
 30
0.0000
 40
0.0000
 41
0.0000
 70
1
  0
VERTEX
  8
16
 10
12.4482
 20
2.8448
 30
0.0000
  0
VERTEX
  8
16
 10
13.2162
 20
2.8448
 30
0.0000
 42
1.0000
  0
VERTEX
  8
16
 10
13.2162
 20
3.4544
 30
0.0000
  0
VERTEX
  8
16
 10
12.4482
 20
3.4544
 30
0.0000
 42
1.0000
  0
SEQEND
  8
0
  0
POLYLINE
  8
16
 66
1
 10
0.0000
 20
0.0000
 30
0.0000
 40
0.0000
 41
0.0000
 70
1
  0
VERTEX
  8
16
 10
13.3328
 20
2.8680
 30
0.0000
  0
VERTEX
  8
16
 10
14.0423
 20
3.1619
 30
0.0000
 42
1.0000
  0
VERTEX
  8
16
 10
13.8090
 20
3.7251
 30
0.0000
  0
VERTEX
  8
16
 10
13.0995
 20
3.4312
 30
0.0000
 42
1.0000
  0
SEQEND
  8
0
  0
POLYLINE
  8
16
 66
1
 10
0.0000
 20
0.0000
 30
0.0000
 40
0.0000
 41
0.0000
 70
1
  0
VERTEX
  8
16
 10
14.1412
 20
3.2280
 30
0.0000
  0
VERTEX
  8
16
 10
14.6842
 20
3.7710
 30
0.0000
 42
1.0000
  0
VERTEX
  8
16
 10
14.2532
 20
4.2020
 30
0.0000
  0
VERTEX
  8
16
 10
13.7102
 20
3.6590
 30
0.0000
 42
1.0000
  0
SEQEND
  8
0
  0
POLYLINE
  8
16
 66
1
 10
0.0000
 20
0.0000
 30
0.0000
 40
0.0000
 41
0.0000
 70
1
  0
VERTEX
  8
16
 10
14.7503
 20
3.8699
 30
0.0000
  0
VERTEX
  8
16
 10
15.0442
 20
4.5794
 30
0.0000
 42
1.0000
  0
VERTEX
  8
16
 10
14.4810
 20
4.8127
 30
0.0000
  0
VERTEX
  8
16
 10
14.1871
 20
4.1032
 30
0.0000
 42
1.0000
  0
SEQEND
  8
0
  0
POLYLINE
  8
16
 66
1
 10
0.0000
 20
0.0000
 30
0.0000
 40
0.0000
 41
0.0000
 70
1
  0
VERTEX
  8
16
 10
15.0674
 20
4.6960
 30
0.0000
  0
VERTEX
  8
16
 10
15.0674
 20
5.4640
 30
0.0000
 42
1.0000
  0
VERTEX
  8
16
 10
14.4578
 20
5.4640
 30
0.0000
  0
VERTEX
  8
16
 10
14.4578
 20
4.6960
 30
0.0000
 42
1.0000
  0
SEQEND
  8
0
  0
POLYLINE
  8
16
 66
1
 10
0.0000
 20
0.0000
 30
0.0000
 40
0.0000
 41
0.0000
 70
1
  0
VERTEX
  8
16
 10
15.0442
 20
5.5806
 30
0.0000
  0
VERTEX
  8
16
 10
14.7503
 20
6.2901
 30
0.0000
 42
1.0000
  0
VERTEX
  8
16
 10
14.1871
 20
6.0568
 30
0.0000
  0
VERTEX
  8
16
 10
14.4810
 20
5.3473
 30
0.0000
 42
1.0000
  0
SEQEND
  8
0
  0
POLYLINE
  8
16
 66
1
 10
0.0000
 20
0.0000
 30
0.0000
 40
0.0000
 41
0.0000
 70
1
  0
VERTEX
  8
16
 10
14.6842
 20
6.3890
 30
0.0000
  0
VERTEX
  8
16
 10
14.5971
 20
6.4761
 30
0.0000
 42
1.0000
  0
VERTEX
  8
16
 10
14.1661
 20
6.0451
 30
0.0000
  0
VERTEX
  8
16
 10
14.2532
 20
5.9580
 30
0.0000
 42
1.0000
  0
SEQEND
  8
0
  0
POLYLINE
  8
16
 66
1
 10
0.0000
 20
0.0000
 30
0.0000
 40
0.0000
 41
0.0000
 70
1
  0
VERTEX
  8
16
 10
14.6864
 20
6.2606
 30
0.0000
  0
VERTEX
  8
16
 10
14.6864
 20
8.3804
 30
0.0000
 42
1.0000
  0
VERTEX
  8
16
 10
14.0768
 20
8.3804
 30
0.0000
  0
VERTEX
  8
16
 10
14.0768
 20
6.2606
 30
0.0000
 42
1.0000
  0
SEQEND
  8
0
  0
POLYLINE
  8
16
 66
1
 10
0.0000
 20
0.0000
 30
0.0000
 40
0.0000
 41
0.0000
 70
1
  0
VERTEX
  8
16
 10
14.5971
 20
8.1649
 30
0.0000
  0
VERTEX
  8
16
 10
14.8273
 20
8.3951
 30
0.0000
 42
1.0000
  0
VERTEX
  8
16
 10
14.3963
 20
8.8261
 30
0.0000
  0
VERTEX
  8
16
 10
14.1661
 20
8.5959
 30
0.0000
 42
1.0000
  0
SEQEND
  8
0
  0
POLYLINE
  8
16
 66
1
 10
0.0000
 20
0.0000
 30
0.0000
 40
0.0000
 41
0.0000
 70
1
  0
VERTEX
  8
16
 10
14.6118
 20
8.3058
 30
0.0000
  0
VERTEX
  8
16
 10
19.6423
 20
8.3058
 30
0.0000
 42
1.0000
  0
VERTEX
  8
16
 10
19.6423
 20
8.9154
 30
0.0000
  0
VERTEX
  8
16
 10
14.6118
 20
8.9154
 30
0.0000
 42
1.0000
  0
SEQEND
  8
0
  0
POLYLINE
  8
16
 66
1
 10
0.0000
 20
0.0000
 30
0.0000
 40
0.0000
 41
0.0000
 70
1
  0
VERTEX
  8
16
 10
19.4268
 20
8.3951
 30
0.0000
  0
VERTEX
  8
16
 10
19.4522
 20
8.3697
 30
0.0000
 42
1.0000
  0
VERTEX
  8
16
 10
19.8832
 20
8.8007
 30
0.0000
  0
VERTEX
  8
16
 10
19.8578
 20
8.8261
 30
0.0000
 42
1.0000
  0
SEQEND
  8
0
  0
POLYLINE
  8
16
 66
1
 10
0.0000
 20
0.0000
 30
0.0000
 40
0.0000
 41
0.0000
 70
1
  0
VERTEX
  8
16
 10
19.6677
 20
8.2804
 30
0.0000
  0
VERTEX
  8
16
 10
20.9723
 20
8.2804
 30
0.0000
 42
1.0000
  0
VERTEX
  8
16
 10
20.9723
 20
8.8900
 30
0.0000
  0
VERTEX
  8
16
 10
19.6677
 20
8.8900
 30
0.0000
 42
1.0000
  0
SEQEND
  8
0
  0
POLYLINE
  8
16
 66
1
 10
0.0000
 20
0.0000
 30
0.0000
 40
0.0000
 41
0.0000
 70
1
  0
VERTEX
  8
16
 10
21.1878
 20
8.3697
 30
0.0000
  0
VERTEX
  8
16
 10
21.2132
 20
8.3951
 30
0.0000
 42
1.0000
  0
VERTEX
  8
16
 10
20.7822
 20
8.8261
 30
0.0000
  0
VERTEX
  8
16
 10
20.7568
 20
8.8007
 30
0.0000
 42
1.0000
  0
SEQEND
  8
0
  0
POLYLINE
  8
16
 66
1
 10
0.0000
 20
0.0000
 30
0.0000
 40
0.0000
 41
0.0000
 70
1
  0
VERTEX
  8
16
 10
20.9977
 20
8.3058
 30
0.0000
  0
VERTEX
  8
16
 10
31.0723
 20
8.3058
 30
0.0000
 42
1.0000
  0
VERTEX
  8
16
 10
31.0723
 20
8.9154
 30
0.0000
  0
VERTEX
  8
16
 10
20.9977
 20
8.9154
 30
0.0000
 42
1.0000
  0
SEQEND
  8
0
  0
POLYLINE
  8
16
 66
1
 10
0.0000
 20
0.0000
 30
0.0000
 40
0.0000
 41
0.0000
 70
1
  0
VERTEX
  8
16
 10
30.8568
 20
8.3951
 30
0.0000
  0
VERTEX
  8
16
 10
30.8822
 20
8.3697
 30
0.0000
 42
1.0000
  0
VERTEX
  8
16
 10
31.3132
 20
8.8007
 30
0.0000
  0
VERTEX
  8
16
 10
31.2878
 20
8.8261
 30
0.0000
 42
1.0000
  0
SEQEND
  8
0
  0
POLYLINE
  8
16
 66
1
 10
0.0000
 20
0.0000
 30
0.0000
 40
0.0000
 41
0.0000
 70
1
  0
VERTEX
  8
16
 10
31.0977
 20
8.2804
 30
0.0000
  0
VERTEX
  8
16
 10
32.4023
 20
8.2804
 30
0.0000
 42
1.0000
  0
VERTEX
  8
16
 10
32.4023
 20
8.8900
 30
0.0000
  0
VERTEX
  8
16
 10
31.0977
 20
8.8900
 30
0.0000
 42
1.0000
  0
SEQEND
  8
0
  0
POLYLINE
  8
16
 66
1
 10
0.0000
 20
0.0000
 30
0.0000
 40
0.0000
 41
0.0000
 70
1
  0
VERTEX
  8
16
 10
32.6178
 20
8.3697
 30
0.0000
  0
VERTEX
  8
16
 10
32.6432
 20
8.3951
 30
0.0000
 42
1.0000
  0
VERTEX
  8
16
 10
32.2122
 20
8.8261
 30
0.0000
  0
VERTEX
  8
16
 10
32.1868
 20
8.8007
 30
0.0000
 42
1.0000
  0
SEQEND
  8
0
  0
POLYLINE
  8
16
 66
1
 10
0.0000
 20
0.0000
 30
0.0000
 40
0.0000
 41
0.0000
 70
1
  0
VERTEX
  8
16
 10
32.4277
 20
8.3058
 30
0.0000
  0
VERTEX
  8
16
 10
42.5023
 20
8.3058
 30
0.0000
 42
1.0000
  0
VERTEX
  8
16
 10
42.5023
 20
8.9154
 30
0.0000
  0
VERTEX
  8
16
 10
32.4277
 20
8.9154
 30
0.0000
 42
1.0000
  0
SEQEND
  8
0
  0
POLYLINE
  8
16
 66
1
 10
0.0000
 20
0.0000
 30
0.0000
 40
0.0000
 41
0.0000
 70
1
  0
VERTEX
  8
16
 10
42.2868
 20
8.3951
 30
0.0000
  0
VERTEX
  8
16
 10
42.3122
 20
8.3697
 30
0.0000
 42
1.0000
  0
VERTEX
  8
16
 10
42.7432
 20
8.8007
 30
0.0000
  0
VERTEX
  8
16
 10
42.7178
 20
8.8261
 30
0.0000
 42
1.0000
  0
SEQEND
  8
0
  0
POLYLINE
  8
16
 66
1
 10
0.0000
 20
0.0000
 30
0.0000
 40
0.0000
 41
0.0000
 70
1
  0
VERTEX
  8
16
 10
42.5277
 20
8.2804
 30
0.0000
  0
VERTEX
  8
16
 10
43.8323
 20
8.2804
 30
0.0000
 42
1.0000
  0
VERTEX
  8
16
 10
43.8323
 20
8.8900
 30
0.0000
  0
VERTEX
  8
16
 10
42.5277
 20
8.8900
 30
0.0000
 42
1.0000
  0
SEQEND
  8
0
  0
POLYLINE
  8
16
 66
1
 10
0.0000
 20
0.0000
 30
0.0000
 40
0.0000
 41
0.0000
 70
1
  0
VERTEX
  8
16
 10
44.0478
 20
8.3697
 30
0.0000
  0
VERTEX
  8
16
 10
44.0732
 20
8.3951
 30
0.0000
 42
1.0000
  0
VERTEX
  8
16
 10
43.6422
 20
8.8261
 30
0.0000
  0
VERTEX
  8
16
 10
43.6168
 20
8.8007
 30
0.0000
 42
1.0000
  0
SEQEND
  8
0
  0
POLYLINE
  8
16
 66
1
 10
0.0000
 20
0.0000
 30
0.0000
 40
0.0000
 41
0.0000
 70
1
  0
VERTEX
  8
16
 10
43.8577
 20
8.3058
 30
0.0000
  0
VERTEX
  8
16
 10
53.9323
 20
8.3058
 30
0.0000
 42
1.0000
  0
VERTEX
  8
16
 10
53.9323
 20
8.9154
 30
0.0000
  0
VERTEX
  8
16
 10
43.8577
 20
8.9154
 30
0.0000
 42
1.0000
  0
SEQEND
  8
0
  0
POLYLINE
  8
16
 66
1
 10
0.0000
 20
0.0000
 30
0.0000
 40
0.0000
 41
0.0000
 70
1
  0
VERTEX
  8
16
 10
53.7168
 20
8.3951
 30
0.0000
  0
VERTEX
  8
16
 10
53.7422
 20
8.3697
 30
0.0000
 42
1.0000
  0
VERTEX
  8
16
 10
54.1732
 20
8.8007
 30
0.0000
  0
VERTEX
  8
16
 10
54.1478
 20
8.8261
 30
0.0000
 42
1.0000
  0
SEQEND
  8
0
  0
POLYLINE
  8
16
 66
1
 10
0.0000
 20
0.0000
 30
0.0000
 40
0.0000
 41
0.0000
 70
1
  0
VERTEX
  8
16
 10
53.9577
 20
8.2804
 30
0.0000
  0
VERTEX
  8
16
 10
55.2623
 20
8.2804
 30
0.0000
 42
1.0000
  0
VERTEX
  8
16
 10
55.2623
 20
8.8900
 30
0.0000
  0
VERTEX
  8
16
 10
53.9577
 20
8.8900
 30
0.0000
 42
1.0000
  0
SEQEND
  8
0
  0
POLYLINE
  8
16
 66
1
 10
0.0000
 20
0.0000
 30
0.0000
 40
0.0000
 41
0.0000
 70
1
  0
VERTEX
  8
16
 10
55.4778
 20
8.3697
 30
0.0000
  0
VERTEX
  8
16
 10
55.5032
 20
8.3951
 30
0.0000
 42
1.0000
  0
VERTEX
  8
16
 10
55.0722
 20
8.8261
 30
0.0000
  0
VERTEX
  8
16
 10
55.0468
 20
8.8007
 30
0.0000
 42
1.0000
  0
SEQEND
  8
0
  0
POLYLINE
  8
16
 66
1
 10
0.0000
 20
0.0000
 30
0.0000
 40
0.0000
 41
0.0000
 70
1
  0
VERTEX
  8
16
 10
55.2877
 20
8.3058
 30
0.0000
  0
VERTEX
  8
16
 10
65.3623
 20
8.3058
 30
0.0000
 42
1.0000
  0
VERTEX
  8
16
 10
65.3623
 20
8.9154
 30
0.0000
  0
VERTEX
  8
16
 10
55.2877
 20
8.9154
 30
0.0000
 42
1.0000
  0
SEQEND
  8
0
  0
POLYLINE
  8
16
 66
1
 10
0.0000
 20
0.0000
 30
0.0000
 40
0.0000
 41
0.0000
 70
1
  0
VERTEX
  8
16
 10
65.1468
 20
8.3951
 30
0.0000
  0
VERTEX
  8
16
 10
65.1722
 20
8.3697
 30
0.0000
 42
1.0000
  0
VERTEX
  8
16
 10
65.6032
 20
8.8007
 30
0.0000
  0
VERTEX
  8
16
 10
65.5778
 20
8.8261
 30
0.0000
 42
1.0000
  0
SEQEND
  8
0
  0
POLYLINE
  8
16
 66
1
 10
0.0000
 20
0.0000
 30
0.0000
 40
0.0000
 41
0.0000
 70
1
  0
VERTEX
  8
16
 10
65.3877
 20
8.2804
 30
0.0000
  0
VERTEX
  8
16
 10
66.6923
 20
8.2804
 30
0.0000
 42
1.0000
  0
VERTEX
  8
16
 10
66.6923
 20
8.8900
 30
0.0000
  0
VERTEX
  8
16
 10
65.3877
 20
8.8900
 30
0.0000
 42
1.0000
  0
SEQEND
  8
0
  0
POLYLINE
  8
16
 66
1
 10
0.0000
 20
0.0000
 30
0.0000
 40
0.0000
 41
0.0000
 70
1
  0
VERTEX
  8
16
 10
66.9078
 20
8.3697
 30
0.0000
  0
VERTEX
  8
16
 10
66.9332
 20
8.3951
 30
0.0000
 42
1.0000
  0
VERTEX
  8
16
 10
66.5022
 20
8.8261
 30
0.0000
  0
VERTEX
  8
16
 10
66.4768
 20
8.8007
 30
0.0000
 42
1.0000
  0
SEQEND
  8
0
  0
POLYLINE
  8
16
 66
1
 10
0.0000
 20
0.0000
 30
0.0000
 40
0.0000
 41
0.0000
 70
1
  0
VERTEX
  8
16
 10
66.7177
 20
8.3058
 30
0.0000
  0
VERTEX
  8
16
 10
76.7923
 20
8.3058
 30
0.0000
 42
1.0000
  0
VERTEX
  8
16
 10
76.7923
 20
8.9154
 30
0.0000
  0
VERTEX
  8
16
 10
66.7177
 20
8.9154
 30
0.0000
 42
1.0000
  0
SEQEND
  8
0
  0
POLYLINE
  8
16
 66
1
 10
0.0000
 20
0.0000
 30
0.0000
 40
0.0000
 41
0.0000
 70
1
  0
VERTEX
  8
16
 10
76.5768
 20
8.3951
 30
0.0000
  0
VERTEX
  8
16
 10
76.6022
 20
8.3697
 30
0.0000
 42
1.0000
  0
VERTEX
  8
16
 10
77.0332
 20
8.8007
 30
0.0000
  0
VERTEX
  8
16
 10
77.0078
 20
8.8261
 30
0.0000
 42
1.0000
  0
SEQEND
  8
0
  0
POLYLINE
  8
16
 66
1
 10
0.0000
 20
0.0000
 30
0.0000
 40
0.0000
 41
0.0000
 70
1
  0
VERTEX
  8
16
 10
76.8177
 20
8.2804
 30
0.0000
  0
VERTEX
  8
16
 10
78.1223
 20
8.2804
 30
0.0000
 42
1.0000
  0
VERTEX
  8
16
 10
78.1223
 20
8.8900
 30
0.0000
  0
VERTEX
  8
16
 10
76.8177
 20
8.8900
 30
0.0000
 42
1.0000
  0
SEQEND
  8
0
  0
POLYLINE
  8
16
 66
1
 10
0.0000
 20
0.0000
 30
0.0000
 40
0.0000
 41
0.0000
 70
1
  0
VERTEX
  8
16
 10
78.3378
 20
8.3697
 30
0.0000
  0
VERTEX
  8
16
 10
78.3632
 20
8.3951
 30
0.0000
 42
1.0000
  0
VERTEX
  8
16
 10
77.9322
 20
8.8261
 30
0.0000
  0
VERTEX
  8
16
 10
77.9068
 20
8.8007
 30
0.0000
 42
1.0000
  0
SEQEND
  8
0
  0
POLYLINE
  8
16
 66
1
 10
0.0000
 20
0.0000
 30
0.0000
 40
0.0000
 41
0.0000
 70
1
  0
VERTEX
  8
16
 10
78.1477
 20
8.3058
 30
0.0000
  0
VERTEX
  8
16
 10
88.2223
 20
8.3058
 30
0.0000
 42
1.0000
  0
VERTEX
  8
16
 10
88.2223
 20
8.9154
 30
0.0000
  0
VERTEX
  8
16
 10
78.1477
 20
8.9154
 30
0.0000
 42
1.0000
  0
SEQEND
  8
0
  0
POLYLINE
  8
16
 66
1
 10
0.0000
 20
0.0000
 30
0.0000
 40
0.0000
 41
0.0000
 70
1
  0
VERTEX
  8
16
 10
88.0068
 20
8.3951
 30
0.0000
  0
VERTEX
  8
16
 10
88.0322
 20
8.3697
 30
0.0000
 42
1.0000
  0
VERTEX
  8
16
 10
88.4632
 20
8.8007
 30
0.0000
  0
VERTEX
  8
16
 10
88.4378
 20
8.8261
 30
0.0000
 42
1.0000
  0
SEQEND
  8
0
  0
POLYLINE
  8
16
 66
1
 10
0.0000
 20
0.0000
 30
0.0000
 40
0.0000
 41
0.0000
 70
1
  0
VERTEX
  8
16
 10
88.2477
 20
8.2804
 30
0.0000
  0
VERTEX
  8
16
 10
89.5523
 20
8.2804
 30
0.0000
 42
1.0000
  0
VERTEX
  8
16
 10
89.5523
 20
8.8900
 30
0.0000
  0
VERTEX
  8
16
 10
88.2477
 20
8.8900
 30
0.0000
 42
1.0000
  0
SEQEND
  8
0
  0
POLYLINE
  8
16
 66
1
 10
0.0000
 20
0.0000
 30
0.0000
 40
0.0000
 41
0.0000
 70
1
  0
VERTEX
  8
16
 10
89.7678
 20
8.3697
 30
0.0000
  0
VERTEX
  8
16
 10
89.7932
 20
8.3951
 30
0.0000
 42
1.0000
  0
VERTEX
  8
16
 10
89.3622
 20
8.8261
 30
0.0000
  0
VERTEX
  8
16
 10
89.3368
 20
8.8007
 30
0.0000
 42
1.0000
  0
SEQEND
  8
0
  0
POLYLINE
  8
16
 66
1
 10
0.0000
 20
0.0000
 30
0.0000
 40
0.0000
 41
0.0000
 70
1
  0
VERTEX
  8
16
 10
89.5777
 20
8.3058
 30
0.0000
  0
VERTEX
  8
16
 10
99.6523
 20
8.3058
 30
0.0000
 42
1.0000
  0
VERTEX
  8
16
 10
99.6523
 20
8.9154
 30
0.0000
  0
VERTEX
  8
16
 10
89.5777
 20
8.9154
 30
0.0000
 42
1.0000
  0
SEQEND
  8
0
  0
POLYLINE
  8
16
 66
1
 10
0.0000
 20
0.0000
 30
0.0000
 40
0.0000
 41
0.0000
 70
1
  0
VERTEX
  8
16
 10
99.4368
 20
8.3951
 30
0.0000
  0
VERTEX
  8
16
 10
99.4622
 20
8.3697
 30
0.0000
 42
1.0000
  0
VERTEX
  8
16
 10
99.8932
 20
8.8007
 30
0.0000
  0
VERTEX
  8
16
 10
99.8678
 20
8.8261
 30
0.0000
 42
1.0000
  0
SEQEND
  8
0
  0
POLYLINE
  8
16
 66
1
 10
0.0000
 20
0.0000
 30
0.0000
 40
0.0000
 41
0.0000
 70
1
  0
VERTEX
  8
16
 10
99.6777
 20
8.2804
 30
0.0000
  0
VERTEX
  8
16
 10
100.9823
 20
8.2804
 30
0.0000
 42
1.0000
  0
VERTEX
  8
16
 10
100.9823
 20
8.8900
 30
0.0000
  0
VERTEX
  8
16
 10
99.6777
 20
8.8900
 30
0.0000
 42
1.0000
  0
SEQEND
  8
0
  0
POLYLINE
  8
16
 66
1
 10
0.0000
 20
0.0000
 30
0.0000
 40
0.0000
 41
0.0000
 70
1
  0
VERTEX
  8
16
 10
101.1978
 20
8.3697
 30
0.0000
  0
VERTEX
  8
16
 10
102.1203
 20
9.2922
 30
0.0000
 42
1.0000
  0
VERTEX
  8
16
 10
101.6893
 20
9.7232
 30
0.0000
  0
VERTEX
  8
16
 10
100.7668
 20
8.8007
 30
0.0000
 42
1.0000
  0
SEQEND
  8
0
  0
POLYLINE
  8
16
 66
1
 10
0.0000
 20
0.0000
 30
0.0000
 40
0.0000
 41
0.0000
 70
1
  0
VERTEX
  8
16
 10
4.6739
 20
1.7018
 30
0.0000
  0
VERTEX
  8
16
 10
3.1187
 20
1.7018
 30
0.0000
 42
1.0000
  0
VERTEX
  8
16
 10
3.1187
 20
1.0922
 30
0.0000
  0
VERTEX
  8
16
 10
4.6739
 20
1.0922
 30
0.0000
 42
1.0000
  0
SEQEND
  8
0
  0
POLYLINE
  8
16
 66
1
 10
0.0000
 20
0.0000
 30
0.0000
 40
0.0000
 41
0.0000
 70
1
  0
VERTEX
  8
16
 10
3.3342
 20
1.6125
 30
0.0000
  0
VERTEX
  8
16
 10
2.4740
 20
2.4727
 30
0.0000
 42
1.0000
  0
VERTEX
  8
16
 10
2.0429
 20
2.0417
 30
0.0000
  0
VERTEX
  8
16
 10
2.9031
 20
1.1815
 30
0.0000
 42
1.0000
  0
SEQEND
  8
0
  0
POLYLINE
  8
16
 66
1
 10
0.0000
 20
0.0000
 30
0.0000
 40
0.0000
 41
0.0000
 70
1
  0
VERTEX
  8
16
 10
2.1182
 20
1.9866
 30
0.0000
  0
VERTEX
  8
16
 10
3.2726
 20
1.3884
 30
0.0000
 42
1.0000
  0
VERTEX
  8
16
 10
3.5531
 20
1.9297
 30
0.0000
  0
VERTEX
  8
16
 10
2.3987
 20
2.5278
 30
0.0000
 42
1.0000
  0
SEQEND
  8
0
  0
POLYLINE
  8
16
 66
1
 10
0.0000
 20
0.0000
 30
0.0000
 40
0.0000
 41
0.0000
 70
1
  0
VERTEX
  8
16
 10
3.3508
 20
1.3606
 30
0.0000
  0
VERTEX
  8
16
 10
4.6119
 20
1.0986
 30
0.0000
 42
1.0000
  0
VERTEX
  8
16
 10
4.7359
 20
1.6954
 30
0.0000
  0
VERTEX
  8
16
 10
3.4749
 20
1.9575
 30
0.0000
 42
1.0000
  0
SEQEND
  8
0
  0
POLYLINE
  8
16
 66
1
 10
0.0000
 20
0.0000
 30
0.0000
 40
0.0000
 41
0.0000
 70
1
  0
VERTEX
  8
16
 10
116.5829
 20
1.1709
 30
0.0000
  0
VERTEX
  8
16
 10
116.5829
 20
1.1709
 30
0.0000
 42
1.0000
  0
VERTEX
  8
16
 10
116.5829
 20
1.7805
 30
0.0000
  0
VERTEX
  8
16
 10
116.5829
 20
1.7805
 30
0.0000
 42
1.0000
  0
SEQEND
  8
0
  0
POLYLINE
  8
16
 66
1
 10
0.0000
 20
0.0000
 30
0.0000
 40
0.0000
 41
0.0000
 70
1
  0
VERTEX
  8
16
 10
116.6850
 20
1.1885
 30
0.0000
  0
VERTEX
  8
16
 10
117.9625
 20
1.6426
 30
0.0000
 42
1.0000
  0
VERTEX
  8
16
 10
117.7583
 20
2.2170
 30
0.0000
  0
VERTEX
  8
16
 10
116.4808
 20
1.7629
 30
0.0000
 42
1.0000
  0
SEQEND
  8
0
  0
POLYLINE
  8
16
 66
1
 10
0.0000
 20
0.0000
 30
0.0000
 40
0.0000
 41
0.0000
 70
1
  0
VERTEX
  8
16
 10
117.8604
 20
1.6250
 30
0.0000
  0
VERTEX
  8
16
 10
117.8604
 20
1.6250
 30
0.0000
 42
1.0000
  0
VERTEX
  8
16
 10
117.8604
 20
2.2346
 30
0.0000
  0
VERTEX
  8
16
 10
117.8604
 20
2.2346
 30
0.0000
 42
1.0000
  0
SEQEND
  8
0
  0
POLYLINE
  8
16
 66
1
 10
0.0000
 20
0.0000
 30
0.0000
 40
0.0000
 41
0.0000
 70
1
  0
VERTEX
  8
16
 10
118.0362
 20
1.6807
 30
0.0000
  0
VERTEX
  8
16
 10
118.7288
 20
2.1697
 30
0.0000
 42
1.0000
  0
VERTEX
  8
16
 10
118.3772
 20
2.6677
 30
0.0000
  0
VERTEX
  8
16
 10
117.6846
 20
2.1788
 30
0.0000
 42
1.0000
  0
SEQEND
  8
0
  0
POLYLINE
  8
16
 66
1
 10
0.0000
 20
0.0000
 30
0.0000
 40
0.0000
 41
0.0000
 70
1
  0
VERTEX
  8
16
 10
118.3375
 20
2.6342
 30
0.0000
  0
VERTEX
  8
16
 10
117.3158
 20
1.6125
 30
0.0000
 42
1.0000
  0
VERTEX
  8
16
 10
117.7469
 20
1.1815
 30
0.0000
  0
VERTEX
  8
16
 10
118.7685
 20
2.2031
 30
0.0000
 42
1.0000
  0
SEQEND
  8
0
  0
POLYLINE
  8
16
 66
1
 10
0.0000
 20
0.0000
 30
0.0000
 40
0.0000
 41
0.0000
 70
1
  0
VERTEX
  8
16
 10
117.5313
 20
1.7018
 30
0.0000
  0
VERTEX
  8
16
 10
115.4318
 20
1.7018
 30
0.0000
 42
1.0000
  0
VERTEX
  8
16
 10
115.4318
 20
1.0922
 30
0.0000
  0
VERTEX
  8
16
 10
117.5313
 20
1.0922
 30
0.0000
 42
1.0000
  0
SEQEND
  8
0
  0
POLYLINE
  8
16
 66
1
 10
0.0000
 20
0.0000
 30
0.0000
 40
0.0000
 41
0.0000
 70
1
  0
VERTEX
  8
16
 10
115.4526
 20
1.0929
 30
0.0000
  0
VERTEX
  8
16
 10
116.6037
 20
1.1716
 30
0.0000
 42
1.0000
  0
VERTEX
  8
16
 10
116.5621
 20
1.7798
 30
0.0000
  0
VERTEX
  8
16
 10
115.4110
 20
1.7011
 30
0.0000
 42
1.0000
  0
SEQEND
  8
0
  0
POLYLINE
  8
16
 66
1
 10
0.0000
 20
0.0000
 30
0.0000
 40
0.0000
 41
0.0000
 70
1
  0
VERTEX
  8
16
 10
2.6869
 20
1.5240
 30
0.0000
  0
VERTEX
  8
16
 10
3.0852
 20
1.5240
 30
0.0000
 42
1.0000
  0
VERTEX
  8
16
 10
3.0852
 20
2.1336
 30
0.0000
  0
VERTEX
  8
16
 10
2.6869
 20
2.1336
 30
0.0000
 42
1.0000
  0
SEQEND
  8
0
  0
POLYLINE
  8
16
 66
1
 10
0.0000
 20
0.0000
 30
0.0000
 40
0.0000
 41
0.0000
 70
1
  0
VERTEX
  8
16
 10
7.0863
 20
1.5240
 30
0.0000
  0
VERTEX
  8
16
 10
18.8041
 20
1.5240
 30
0.0000
 42
1.0000
  0
VERTEX
  8
16
 10
18.8041
 20
2.1336
 30
0.0000
  0
VERTEX
  8
16
 10
7.0863
 20
2.1336
 30
0.0000
 42
1.0000
  0
SEQEND
  8
0
  0
POLYLINE
  8
16
 66
1
 10
0.0000
 20
0.0000
 30
0.0000
 40
0.0000
 41
0.0000
 70
1
  0
VERTEX
  8
16
 10
22.8922
 20
1.5240
 30
0.0000
  0
VERTEX
  8
16
 10
30.2341
 20
1.5240
 30
0.0000
 42
1.0000
  0
VERTEX
  8
16
 10
30.2341
 20
2.1336
 30
0.0000
  0
VERTEX
  8
16
 10
22.8922
 20
2.1336
 30
0.0000
 42
1.0000
  0
SEQEND
  8
0
  0
POLYLINE
  8
16
 66
1
 10
0.0000
 20
0.0000
 30
0.0000
 40
0.0000
 41
0.0000
 70
1
  0
VERTEX
  8
16
 10
34.3222
 20
1.5240
 30
0.0000
  0
VERTEX
  8
16
 10
41.6641
 20
1.5240
 30
0.0000
 42
1.0000
  0
VERTEX
  8
16
 10
41.6641
 20
2.1336
 30
0.0000
  0
VERTEX
  8
16
 10
34.3222
 20
2.1336
 30
0.0000
 42
1.0000
  0
SEQEND
  8
0
  0
POLYLINE
  8
16
 66
1
 10
0.0000
 20
0.0000
 30
0.0000
 40
0.0000
 41
0.0000
 70
1
  0
VERTEX
  8
16
 10
45.7522
 20
1.5240
 30
0.0000
  0
VERTEX
  8
16
 10
53.0941
 20
1.5240
 30
0.0000
 42
1.0000
  0
VERTEX
  8
16
 10
53.0941
 20
2.1336
 30
0.0000
  0
VERTEX
  8
16
 10
45.7522
 20
2.1336
 30
0.0000
 42
1.0000
  0
SEQEND
  8
0
  0
POLYLINE
  8
16
 66
1
 10
0.0000
 20
0.0000
 30
0.0000
 40
0.0000
 41
0.0000
 70
1
  0
VERTEX
  8
16
 10
57.1822
 20
1.5240
 30
0.0000
  0
VERTEX
  8
16
 10
64.5241
 20
1.5240
 30
0.0000
 42
1.0000
  0
VERTEX
  8
16
 10
64.5241
 20
2.1336
 30
0.0000
  0
VERTEX
  8
16
 10
57.1822
 20
2.1336
 30
0.0000
 42
1.0000
  0
SEQEND
  8
0
  0
POLYLINE
  8
16
 66
1
 10
0.0000
 20
0.0000
 30
0.0000
 40
0.0000
 41
0.0000
 70
1
  0
VERTEX
  8
16
 10
68.6122
 20
1.5240
 30
0.0000
  0
VERTEX
  8
16
 10
75.9541
 20
1.5240
 30
0.0000
 42
1.0000
  0
VERTEX
  8
16
 10
75.9541
 20
2.1336
 30
0.0000
  0
VERTEX
  8
16
 10
68.6122
 20
2.1336
 30
0.0000
 42
1.0000
  0
SEQEND
  8
0
  0
POLYLINE
  8
16
 66
1
 10
0.0000
 20
0.0000
 30
0.0000
 40
0.0000
 41
0.0000
 70
1
  0
VERTEX
  8
16
 10
80.0422
 20
1.5240
 30
0.0000
  0
VERTEX
  8
16
 10
87.3841
 20
1.5240
 30
0.0000
 42
1.0000
  0
VERTEX
  8
16
 10
87.3841
 20
2.1336
 30
0.0000
  0
VERTEX
  8
16
 10
80.0422
 20
2.1336
 30
0.0000
 42
1.0000
  0
SEQEND
  8
0
  0
POLYLINE
  8
16
 66
1
 10
0.0000
 20
0.0000
 30
0.0000
 40
0.0000
 41
0.0000
 70
1
  0
VERTEX
  8
16
 10
91.4722
 20
1.5240
 30
0.0000
  0
VERTEX
  8
16
 10
98.8141
 20
1.5240
 30
0.0000
 42
1.0000
  0
VERTEX
  8
16
 10
98.8141
 20
2.1336
 30
0.0000
  0
VERTEX
  8
16
 10
91.4722
 20
2.1336
 30
0.0000
 42
1.0000
  0
SEQEND
  8
0
  0
POLYLINE
  8
16
 66
1
 10
0.0000
 20
0.0000
 30
0.0000
 40
0.0000
 41
0.0000
 70
1
  0
VERTEX
  8
16
 10
102.9022
 20
1.5240
 30
0.0000
  0
VERTEX
  8
16
 10
113.5752
 20
1.5240
 30
0.0000
 42
1.0000
  0
VERTEX
  8
16
 10
113.5752
 20
2.1336
 30
0.0000
  0
VERTEX
  8
16
 10
102.9022
 20
2.1336
 30
0.0000
 42
1.0000
  0
SEQEND
  8
0
  0
POLYLINE
  8
16
 66
1
 10
0.0000
 20
0.0000
 30
0.0000
 40
0.0000
 41
0.0000
 70
1
  0
VERTEX
  8
16
 10
117.5763
 20
1.5240
 30
0.0000
  0
VERTEX
  8
16
 10
117.9631
 20
1.5240
 30
0.0000
 42
1.0000
  0
VERTEX
  8
16
 10
117.9631
 20
2.1336
 30
0.0000
  0
VERTEX
  8
16
 10
117.5763
 20
2.1336
 30
0.0000
 42
1.0000
  0
SEQEND
  8
0
  0
POLYLINE
  8
16
 66
1
 10
0.0000
 20
0.0000
 30
0.0000
 40
0.0000
 41
0.0000
 70
1
  0
VERTEX
  8
16
 10
8.0910
 20
2.1336
 30
0.0000
  0
VERTEX
  8
16
 10
18.7452
 20
2.1336
 30
0.0000
 42
1.0000
  0
VERTEX
  8
16
 10
18.7452
 20
2.7432
 30
0.0000
  0
VERTEX
  8
16
 10
8.0910
 20
2.7432
 30
0.0000
 42
1.0000
  0
SEQEND
  8
0
  0
POLYLINE
  8
16
 66
1
 10
0.0000
 20
0.0000
 30
0.0000
 40
0.0000
 41
0.0000
 70
1
  0
VERTEX
  8
16
 10
23.5018
 20
2.1336
 30
0.0000
  0
VERTEX
  8
16
 10
30.1752
 20
2.1336
 30
0.0000
 42
1.0000
  0
VERTEX
  8
16
 10
30.1752
 20
2.7432
 30
0.0000
  0
VERTEX
  8
16
 10
23.5018
 20
2.7432
 30
0.0000
 42
1.0000
  0
SEQEND
  8
0
  0
POLYLINE
  8
16
 66
1
 10
0.0000
 20
0.0000
 30
0.0000
 40
0.0000
 41
0.0000
 70
1
  0
VERTEX
  8
16
 10
34.9318
 20
2.1336
 30
0.0000
  0
VERTEX
  8
16
 10
41.6052
 20
2.1336
 30
0.0000
 42
1.0000
  0
VERTEX
  8
16
 10
41.6052
 20
2.7432
 30
0.0000
  0
VERTEX
  8
16
 10
34.9318
 20
2.7432
 30
0.0000
 42
1.0000
  0
SEQEND
  8
0
  0
POLYLINE
  8
16
 66
1
 10
0.0000
 20
0.0000
 30
0.0000
 40
0.0000
 41
0.0000
 70
1
  0
VERTEX
  8
16
 10
46.3618
 20
2.1336
 30
0.0000
  0
VERTEX
  8
16
 10
53.0352
 20
2.1336
 30
0.0000
 42
1.0000
  0
VERTEX
  8
16
 10
53.0352
 20
2.7432
 30
0.0000
  0
VERTEX
  8
16
 10
46.3618
 20
2.7432
 30
0.0000
 42
1.0000
  0
SEQEND
  8
0
  0
POLYLINE
  8
16
 66
1
 10
0.0000
 20
0.0000
 30
0.0000
 40
0.0000
 41
0.0000
 70
1
  0
VERTEX
  8
16
 10
57.7918
 20
2.1336
 30
0.0000
  0
VERTEX
  8
16
 10
64.4652
 20
2.1336
 30
0.0000
 42
1.0000
  0
VERTEX
  8
16
 10
64.4652
 20
2.7432
 30
0.0000
  0
VERTEX
  8
16
 10
57.7918
 20
2.7432
 30
0.0000
 42
1.0000
  0
SEQEND
  8
0
  0
POLYLINE
  8
16
 66
1
 10
0.0000
 20
0.0000
 30
0.0000
 40
0.0000
 41
0.0000
 70
1
  0
VERTEX
  8
16
 10
69.2218
 20
2.1336
 30
0.0000
  0
VERTEX
  8
16
 10
75.8952
 20
2.1336
 30
0.0000
 42
1.0000
  0
VERTEX
  8
16
 10
75.8952
 20
2.7432
 30
0.0000
  0
VERTEX
  8
16
 10
69.2218
 20
2.7432
 30
0.0000
 42
1.0000
  0
SEQEND
  8
0
  0
POLYLINE
  8
16
 66
1
 10
0.0000
 20
0.0000
 30
0.0000
 40
0.0000
 41
0.0000
 70
1
  0
VERTEX
  8
16
 10
80.6518
 20
2.1336
 30
0.0000
  0
VERTEX
  8
16
 10
87.3252
 20
2.1336
 30
0.0000
 42
1.0000
  0
VERTEX
  8
16
 10
87.3252
 20
2.7432
 30
0.0000
  0
VERTEX
  8
16
 10
80.6518
 20
2.7432
 30
0.0000
 42
1.0000
  0
SEQEND
  8
0
  0
POLYLINE
  8
16
 66
1
 10
0.0000
 20
0.0000
 30
0.0000
 40
0.0000
 41
0.0000
 70
1
  0
VERTEX
  8
16
 10
92.0818
 20
2.1336
 30
0.0000
  0
VERTEX
  8
16
 10
98.7552
 20
2.1336
 30
0.0000
 42
1.0000
  0
VERTEX
  8
16
 10
98.7552
 20
2.7432
 30
0.0000
  0
VERTEX
  8
16
 10
92.0818
 20
2.7432
 30
0.0000
 42
1.0000
  0
SEQEND
  8
0
  0
POLYLINE
  8
16
 66
1
 10
0.0000
 20
0.0000
 30
0.0000
 40
0.0000
 41
0.0000
 70
1
  0
VERTEX
  8
16
 10
103.5118
 20
2.1336
 30
0.0000
  0
VERTEX
  8
16
 10
112.5324
 20
2.1336
 30
0.0000
 42
1.0000
  0
VERTEX
  8
16
 10
112.5324
 20
2.7432
 30
0.0000
  0
VERTEX
  8
16
 10
103.5118
 20
2.7432
 30
0.0000
 42
1.0000
  0
SEQEND
  8
0
  0
POLYLINE
  8
16
 66
1
 10
0.0000
 20
0.0000
 30
0.0000
 40
0.0000
 41
0.0000
 70
1
  0
VERTEX
  8
16
 10
8.7517
 20
2.7432
 30
0.0000
  0
VERTEX
  8
16
 10
18.7452
 20
2.7432
 30
0.0000
 42
1.0000
  0
VERTEX
  8
16
 10
18.7452
 20
3.3528
 30
0.0000
  0
VERTEX
  8
16
 10
8.7517
 20
3.3528
 30
0.0000
 42
1.0000
  0
SEQEND
  8
0
  0
POLYLINE
  8
16
 66
1
 10
0.0000
 20
0.0000
 30
0.0000
 40
0.0000
 41
0.0000
 70
1
  0
VERTEX
  8
16
 10
24.1114
 20
2.7432
 30
0.0000
  0
VERTEX
  8
16
 10
30.1752
 20
2.7432
 30
0.0000
 42
1.0000
  0
VERTEX
  8
16
 10
30.1752
 20
3.3528
 30
0.0000
  0
VERTEX
  8
16
 10
24.1114
 20
3.3528
 30
0.0000
 42
1.0000
  0
SEQEND
  8
0
  0
POLYLINE
  8
16
 66
1
 10
0.0000
 20
0.0000
 30
0.0000
 40
0.0000
 41
0.0000
 70
1
  0
VERTEX
  8
16
 10
35.5414
 20
2.7432
 30
0.0000
  0
VERTEX
  8
16
 10
41.6052
 20
2.7432
 30
0.0000
 42
1.0000
  0
VERTEX
  8
16
 10
41.6052
 20
3.3528
 30
0.0000
  0
VERTEX
  8
16
 10
35.5414
 20
3.3528
 30
0.0000
 42
1.0000
  0
SEQEND
  8
0
  0
POLYLINE
  8
16
 66
1
 10
0.0000
 20
0.0000
 30
0.0000
 40
0.0000
 41
0.0000
 70
1
  0
VERTEX
  8
16
 10
46.9714
 20
2.7432
 30
0.0000
  0
VERTEX
  8
16
 10
53.0352
 20
2.7432
 30
0.0000
 42
1.0000
  0
VERTEX
  8
16
 10
53.0352
 20
3.3528
 30
0.0000
  0
VERTEX
  8
16
 10
46.9714
 20
3.3528
 30
0.0000
 42
1.0000
  0
SEQEND
  8
0
  0
POLYLINE
  8
16
 66
1
 10
0.0000
 20
0.0000
 30
0.0000
 40
0.0000
 41
0.0000
 70
1
  0
VERTEX
  8
16
 10
58.4014
 20
2.7432
 30
0.0000
  0
VERTEX
  8
16
 10
64.4652
 20
2.7432
 30
0.0000
 42
1.0000
  0
VERTEX
  8
16
 10
64.4652
 20
3.3528
 30
0.0000
  0
VERTEX
  8
16
 10
58.4014
 20
3.3528
 30
0.0000
 42
1.0000
  0
SEQEND
  8
0
  0
POLYLINE
  8
16
 66
1
 10
0.0000
 20
0.0000
 30
0.0000
 40
0.0000
 41
0.0000
 70
1
  0
VERTEX
  8
16
 10
69.8314
 20
2.7432
 30
0.0000
  0
VERTEX
  8
16
 10
75.8952
 20
2.7432
 30
0.0000
 42
1.0000
  0
VERTEX
  8
16
 10
75.8952
 20
3.3528
 30
0.0000
  0
VERTEX
  8
16
 10
69.8314
 20
3.3528
 30
0.0000
 42
1.0000
  0
SEQEND
  8
0
  0
POLYLINE
  8
16
 66
1
 10
0.0000
 20
0.0000
 30
0.0000
 40
0.0000
 41
0.0000
 70
1
  0
VERTEX
  8
16
 10
81.2614
 20
2.7432
 30
0.0000
  0
VERTEX
  8
16
 10
87.3252
 20
2.7432
 30
0.0000
 42
1.0000
  0
VERTEX
  8
16
 10
87.3252
 20
3.3528
 30
0.0000
  0
VERTEX
  8
16
 10
81.2614
 20
3.3528
 30
0.0000
 42
1.0000
  0
SEQEND
  8
0
  0
POLYLINE
  8
16
 66
1
 10
0.0000
 20
0.0000
 30
0.0000
 40
0.0000
 41
0.0000
 70
1
  0
VERTEX
  8
16
 10
92.6914
 20
2.7432
 30
0.0000
  0
VERTEX
  8
16
 10
98.7552
 20
2.7432
 30
0.0000
 42
1.0000
  0
VERTEX
  8
16
 10
98.7552
 20
3.3528
 30
0.0000
  0
VERTEX
  8
16
 10
92.6914
 20
3.3528
 30
0.0000
 42
1.0000
  0
SEQEND
  8
0
  0
POLYLINE
  8
16
 66
1
 10
0.0000
 20
0.0000
 30
0.0000
 40
0.0000
 41
0.0000
 70
1
  0
VERTEX
  8
16
 10
104.1214
 20
2.7432
 30
0.0000
  0
VERTEX
  8
16
 10
111.8797
 20
2.7432
 30
0.0000
 42
1.0000
  0
VERTEX
  8
16
 10
111.8797
 20
3.3528
 30
0.0000
  0
VERTEX
  8
16
 10
104.1214
 20
3.3528
 30
0.0000
 42
1.0000
  0
SEQEND
  8
0
  0
POLYLINE
  8
16
 66
1
 10
0.0000
 20
0.0000
 30
0.0000
 40
0.0000
 41
0.0000
 70
1
  0
VERTEX
  8
16
 10
9.2476
 20
3.3528
 30
0.0000
  0
VERTEX
  8
16
 10
11.5246
 20
3.3528
 30
0.0000
 42
1.0000
  0
VERTEX
  8
16
 10
11.5246
 20
3.9624
 30
0.0000
  0
VERTEX
  8
16
 10
9.2476
 20
3.9624
 30
0.0000
 42
1.0000
  0
SEQEND
  8
0
  0
POLYLINE
  8
16
 66
1
 10
0.0000
 20
0.0000
 30
0.0000
 40
0.0000
 41
0.0000
 70
1
  0
VERTEX
  8
16
 10
14.1398
 20
3.3528
 30
0.0000
  0
VERTEX
  8
16
 10
19.2105
 20
3.3528
 30
0.0000
 42
1.0000
  0
VERTEX
  8
16
 10
19.2105
 20
3.9624
 30
0.0000
  0
VERTEX
  8
16
 10
14.1398
 20
3.9624
 30
0.0000
 42
1.0000
  0
SEQEND
  8
0
  0
POLYLINE
  8
16
 66
1
 10
0.0000
 20
0.0000
 30
0.0000
 40
0.0000
 41
0.0000
 70
1
  0
VERTEX
  8
16
 10
25.7896
 20
3.3528
 30
0.0000
  0
VERTEX
  8
16
 10
30.6405
 20
3.3528
 30
0.0000
 42
1.0000
  0
VERTEX
  8
16
 10
30.6405
 20
3.9624
 30
0.0000
  0
VERTEX
  8
16
 10
25.7896
 20
3.9624
 30
0.0000
 42
1.0000
  0
SEQEND
  8
0
  0
POLYLINE
  8
16
 66
1
 10
0.0000
 20
0.0000
 30
0.0000
 40
0.0000
 41
0.0000
 70
1
  0
VERTEX
  8
16
 10
37.2196
 20
3.3528
 30
0.0000
  0
VERTEX
  8
16
 10
42.0705
 20
3.3528
 30
0.0000
 42
1.0000
  0
VERTEX
  8
16
 10
42.0705
 20
3.9624
 30
0.0000
  0
VERTEX
  8
16
 10
37.2196
 20
3.9624
 30
0.0000
 42
1.0000
  0
SEQEND
  8
0
  0
POLYLINE
  8
16
 66
1
 10
0.0000
 20
0.0000
 30
0.0000
 40
0.0000
 41
0.0000
 70
1
  0
VERTEX
  8
16
 10
48.6496
 20
3.3528
 30
0.0000
  0
VERTEX
  8
16
 10
53.5005
 20
3.3528
 30
0.0000
 42
1.0000
  0
VERTEX
  8
16
 10
53.5005
 20
3.9624
 30
0.0000
  0
VERTEX
  8
16
 10
48.6496
 20
3.9624
 30
0.0000
 42
1.0000
  0
SEQEND
  8
0
  0
POLYLINE
  8
16
 66
1
 10
0.0000
 20
0.0000
 30
0.0000
 40
0.0000
 41
0.0000
 70
1
  0
VERTEX
  8
16
 10
60.0796
 20
3.3528
 30
0.0000
  0
VERTEX
  8
16
 10
64.9305
 20
3.3528
 30
0.0000
 42
1.0000
  0
VERTEX
  8
16
 10
64.9305
 20
3.9624
 30
0.0000
  0
VERTEX
  8
16
 10
60.0796
 20
3.9624
 30
0.0000
 42
1.0000
  0
SEQEND
  8
0
  0
POLYLINE
  8
16
 66
1
 10
0.0000
 20
0.0000
 30
0.0000
 40
0.0000
 41
0.0000
 70
1
  0
VERTEX
  8
16
 10
71.5096
 20
3.3528
 30
0.0000
  0
VERTEX
  8
16
 10
76.3605
 20
3.3528
 30
0.0000
 42
1.0000
  0
VERTEX
  8
16
 10
76.3605
 20
3.9624
 30
0.0000
  0
VERTEX
  8
16
 10
71.5096
 20
3.9624
 30
0.0000
 42
1.0000
  0
SEQEND
  8
0
  0
POLYLINE
  8
16
 66
1
 10
0.0000
 20
0.0000
 30
0.0000
 40
0.0000
 41
0.0000
 70
1
  0
VERTEX
  8
16
 10
82.9396
 20
3.3528
 30
0.0000
  0
VERTEX
  8
16
 10
87.7905
 20
3.3528
 30
0.0000
 42
1.0000
  0
VERTEX
  8
16
 10
87.7905
 20
3.9624
 30
0.0000
  0
VERTEX
  8
16
 10
82.9396
 20
3.9624
 30
0.0000
 42
1.0000
  0
SEQEND
  8
0
  0
POLYLINE
  8
16
 66
1
 10
0.0000
 20
0.0000
 30
0.0000
 40
0.0000
 41
0.0000
 70
1
  0
VERTEX
  8
16
 10
94.3696
 20
3.3528
 30
0.0000
  0
VERTEX
  8
16
 10
99.2205
 20
3.3528
 30
0.0000
 42
1.0000
  0
VERTEX
  8
16
 10
99.2205
 20
3.9624
 30
0.0000
  0
VERTEX
  8
16
 10
94.3696
 20
3.9624
 30
0.0000
 42
1.0000
  0
SEQEND
  8
0
  0
POLYLINE
  8
16
 66
1
 10
0.0000
 20
0.0000
 30
0.0000
 40
0.0000
 41
0.0000
 70
1
  0
VERTEX
  8
16
 10
105.7996
 20
3.3528
 30
0.0000
  0
VERTEX
  8
16
 10
111.4349
 20
3.3528
 30
0.0000
 42
1.0000
  0
VERTEX
  8
16
 10
111.4349
 20
3.9624
 30
0.0000
  0
VERTEX
  8
16
 10
105.7996
 20
3.9624
 30
0.0000
 42
1.0000
  0
SEQEND
  8
0
  0
POLYLINE
  8
16
 66
1
 10
0.0000
 20
0.0000
 30
0.0000
 40
0.0000
 41
0.0000
 70
1
  0
VERTEX
  8
16
 10
9.5525
 20
3.9624
 30
0.0000
  0
VERTEX
  8
16
 10
11.0794
 20
3.9624
 30
0.0000
 42
1.0000
  0
VERTEX
  8
16
 10
11.0794
 20
4.5720
 30
0.0000
  0
VERTEX
  8
16
 10
9.5525
 20
4.5720
 30
0.0000
 42
1.0000
  0
SEQEND
  8
0
  0
POLYLINE
  8
16
 66
1
 10
0.0000
 20
0.0000
 30
0.0000
 40
0.0000
 41
0.0000
 70
1
  0
VERTEX
  8
16
 10
14.5850
 20
3.9624
 30
0.0000
  0
VERTEX
  8
16
 10
20.9482
 20
3.9624
 30
0.0000
 42
1.0000
  0
VERTEX
  8
16
 10
20.9482
 20
4.5720
 30
0.0000
  0
VERTEX
  8
16
 10
14.5850
 20
4.5720
 30
0.0000
 42
1.0000
  0
SEQEND
  8
0
  0
POLYLINE
  8
16
 66
1
 10
0.0000
 20
0.0000
 30
0.0000
 40
0.0000
 41
0.0000
 70
1
  0
VERTEX
  8
16
 10
25.8826
 20
3.9624
 30
0.0000
  0
VERTEX
  8
16
 10
32.3782
 20
3.9624
 30
0.0000
 42
1.0000
  0
VERTEX
  8
16
 10
32.3782
 20
4.5720
 30
0.0000
  0
VERTEX
  8
16
 10
25.8826
 20
4.5720
 30
0.0000
 42
1.0000
  0
SEQEND
  8
0
  0
POLYLINE
  8
16
 66
1
 10
0.0000
 20
0.0000
 30
0.0000
 40
0.0000
 41
0.0000
 70
1
  0
VERTEX
  8
16
 10
37.3126
 20
3.9624
 30
0.0000
  0
VERTEX
  8
16
 10
43.8082
 20
3.9624
 30
0.0000
 42
1.0000
  0
VERTEX
  8
16
 10
43.8082
 20
4.5720
 30
0.0000
  0
VERTEX
  8
16
 10
37.3126
 20
4.5720
 30
0.0000
 42
1.0000
  0
SEQEND
  8
0
  0
POLYLINE
  8
16
 66
1
 10
0.0000
 20
0.0000
 30
0.0000
 40
0.0000
 41
0.0000
 70
1
  0
VERTEX
  8
16
 10
48.7426
 20
3.9624
 30
0.0000
  0
VERTEX
  8
16
 10
55.2382
 20
3.9624
 30
0.0000
 42
1.0000
  0
VERTEX
  8
16
 10
55.2382
 20
4.5720
 30
0.0000
  0
VERTEX
  8
16
 10
48.7426
 20
4.5720
 30
0.0000
 42
1.0000
  0
SEQEND
  8
0
  0
POLYLINE
  8
16
 66
1
 10
0.0000
 20
0.0000
 30
0.0000
 40
0.0000
 41
0.0000
 70
1
  0
VERTEX
  8
16
 10
60.1726
 20
3.9624
 30
0.0000
  0
VERTEX
  8
16
 10
66.6682
 20
3.9624
 30
0.0000
 42
1.0000
  0
VERTEX
  8
16
 10
66.6682
 20
4.5720
 30
0.0000
  0
VERTEX
  8
16
 10
60.1726
 20
4.5720
 30
0.0000
 42
1.0000
  0
SEQEND
  8
0
  0
POLYLINE
  8
16
 66
1
 10
0.0000
 20
0.0000
 30
0.0000
 40
0.0000
 41
0.0000
 70
1
  0
VERTEX
  8
16
 10
71.6026
 20
3.9624
 30
0.0000
  0
VERTEX
  8
16
 10
78.0982
 20
3.9624
 30
0.0000
 42
1.0000
  0
VERTEX
  8
16
 10
78.0982
 20
4.5720
 30
0.0000
  0
VERTEX
  8
16
 10
71.6026
 20
4.5720
 30
0.0000
 42
1.0000
  0
SEQEND
  8
0
  0
POLYLINE
  8
16
 66
1
 10
0.0000
 20
0.0000
 30
0.0000
 40
0.0000
 41
0.0000
 70
1
  0
VERTEX
  8
16
 10
83.0326
 20
3.9624
 30
0.0000
  0
VERTEX
  8
16
 10
89.5282
 20
3.9624
 30
0.0000
 42
1.0000
  0
VERTEX
  8
16
 10
89.5282
 20
4.5720
 30
0.0000
  0
VERTEX
  8
16
 10
83.0326
 20
4.5720
 30
0.0000
 42
1.0000
  0
SEQEND
  8
0
  0
POLYLINE
  8
16
 66
1
 10
0.0000
 20
0.0000
 30
0.0000
 40
0.0000
 41
0.0000
 70
1
  0
VERTEX
  8
16
 10
94.4626
 20
3.9624
 30
0.0000
  0
VERTEX
  8
16
 10
100.9582
 20
3.9624
 30
0.0000
 42
1.0000
  0
VERTEX
  8
16
 10
100.9582
 20
4.5720
 30
0.0000
  0
VERTEX
  8
16
 10
94.4626
 20
4.5720
 30
0.0000
 42
1.0000
  0
SEQEND
  8
0
  0
POLYLINE
  8
16
 66
1
 10
0.0000
 20
0.0000
 30
0.0000
 40
0.0000
 41
0.0000
 70
1
  0
VERTEX
  8
16
 10
105.8926
 20
3.9624
 30
0.0000
  0
VERTEX
  8
16
 10
111.0642
 20
3.9624
 30
0.0000
 42
1.0000
  0
VERTEX
  8
16
 10
111.0642
 20
4.5720
 30
0.0000
  0
VERTEX
  8
16
 10
105.8926
 20
4.5720
 30
0.0000
 42
1.0000
  0
SEQEND
  8
0
  0
POLYLINE
  8
16
 66
1
 10
0.0000
 20
0.0000
 30
0.0000
 40
0.0000
 41
0.0000
 70
1
  0
VERTEX
  8
16
 10
9.8173
 20
4.5720
 30
0.0000
  0
VERTEX
  8
16
 10
10.9018
 20
4.5720
 30
0.0000
 42
1.0000
  0
VERTEX
  8
16
 10
10.9018
 20
5.1816
 30
0.0000
  0
VERTEX
  8
16
 10
9.8173
 20
5.1816
 30
0.0000
 42
1.0000
  0
SEQEND
  8
0
  0
POLYLINE
  8
16
 66
1
 10
0.0000
 20
0.0000
 30
0.0000
 40
0.0000
 41
0.0000
 70
1
  0
VERTEX
  8
16
 10
14.7626
 20
4.5720
 30
0.0000
  0
VERTEX
  8
16
 10
21.5578
 20
4.5720
 30
0.0000
 42
1.0000
  0
VERTEX
  8
16
 10
21.5578
 20
5.1816
 30
0.0000
  0
VERTEX
  8
16
 10
14.7626
 20
5.1816
 30
0.0000
 42
1.0000
  0
SEQEND
  8
0
  0
POLYLINE
  8
16
 66
1
 10
0.0000
 20
0.0000
 30
0.0000
 40
0.0000
 41
0.0000
 70
1
  0
VERTEX
  8
16
 10
25.8826
 20
4.5720
 30
0.0000
  0
VERTEX
  8
16
 10
32.9878
 20
4.5720
 30
0.0000
 42
1.0000
  0
VERTEX
  8
16
 10
32.9878
 20
5.1816
 30
0.0000
  0
VERTEX
  8
16
 10
25.8826
 20
5.1816
 30
0.0000
 42
1.0000
  0
SEQEND
  8
0
  0
POLYLINE
  8
16
 66
1
 10
0.0000
 20
0.0000
 30
0.0000
 40
0.0000
 41
0.0000
 70
1
  0
VERTEX
  8
16
 10
37.3126
 20
4.5720
 30
0.0000
  0
VERTEX
  8
16
 10
44.4178
 20
4.5720
 30
0.0000
 42
1.0000
  0
VERTEX
  8
16
 10
44.4178
 20
5.1816
 30
0.0000
  0
VERTEX
  8
16
 10
37.3126
 20
5.1816
 30
0.0000
 42
1.0000
  0
SEQEND
  8
0
  0
POLYLINE
  8
16
 66
1
 10
0.0000
 20
0.0000
 30
0.0000
 40
0.0000
 41
0.0000
 70
1
  0
VERTEX
  8
16
 10
48.7426
 20
4.5720
 30
0.0000
  0
VERTEX
  8
16
 10
55.8478
 20
4.5720
 30
0.0000
 42
1.0000
  0
VERTEX
  8
16
 10
55.8478
 20
5.1816
 30
0.0000
  0
VERTEX
  8
16
 10
48.7426
 20
5.1816
 30
0.0000
 42
1.0000
  0
SEQEND
  8
0
  0
POLYLINE
  8
16
 66
1
 10
0.0000
 20
0.0000
 30
0.0000
 40
0.0000
 41
0.0000
 70
1
  0
VERTEX
  8
16
 10
60.1726
 20
4.5720
 30
0.0000
  0
VERTEX
  8
16
 10
67.2778
 20
4.5720
 30
0.0000
 42
1.0000
  0
VERTEX
  8
16
 10
67.2778
 20
5.1816
 30
0.0000
  0
VERTEX
  8
16
 10
60.1726
 20
5.1816
 30
0.0000
 42
1.0000
  0
SEQEND
  8
0
  0
POLYLINE
  8
16
 66
1
 10
0.0000
 20
0.0000
 30
0.0000
 40
0.0000
 41
0.0000
 70
1
  0
VERTEX
  8
16
 10
71.6026
 20
4.5720
 30
0.0000
  0
VERTEX
  8
16
 10
78.7078
 20
4.5720
 30
0.0000
 42
1.0000
  0
VERTEX
  8
16
 10
78.7078
 20
5.1816
 30
0.0000
  0
VERTEX
  8
16
 10
71.6026
 20
5.1816
 30
0.0000
 42
1.0000
  0
SEQEND
  8
0
  0
POLYLINE
  8
16
 66
1
 10
0.0000
 20
0.0000
 30
0.0000
 40
0.0000
 41
0.0000
 70
1
  0
VERTEX
  8
16
 10
83.0326
 20
4.5720
 30
0.0000
  0
VERTEX
  8
16
 10
90.1378
 20
4.5720
 30
0.0000
 42
1.0000
  0
VERTEX
  8
16
 10
90.1378
 20
5.1816
 30
0.0000
  0
VERTEX
  8
16
 10
83.0326
 20
5.1816
 30
0.0000
 42
1.0000
  0
SEQEND
  8
0
  0
POLYLINE
  8
16
 66
1
 10
0.0000
 20
0.0000
 30
0.0000
 40
0.0000
 41
0.0000
 70
1
  0
VERTEX
  8
16
 10
94.4626
 20
4.5720
 30
0.0000
  0
VERTEX
  8
16
 10
101.5678
 20
4.5720
 30
0.0000
 42
1.0000
  0
VERTEX
  8
16
 10
101.5678
 20
5.1816
 30
0.0000
  0
VERTEX
  8
16
 10
94.4626
 20
5.1816
 30
0.0000
 42
1.0000
  0
SEQEND
  8
0
  0
POLYLINE
  8
16
 66
1
 10
0.0000
 20
0.0000
 30
0.0000
 40
0.0000
 41
0.0000
 70
1
  0
VERTEX
  8
16
 10
105.8926
 20
4.5720
 30
0.0000
  0
VERTEX
  8
16
 10
110.8608
 20
4.5720
 30
0.0000
 42
1.0000
  0
VERTEX
  8
16
 10
110.8608
 20
5.1816
 30
0.0000
  0
VERTEX
  8
16
 10
105.8926
 20
5.1816
 30
0.0000
 42
1.0000
  0
SEQEND
  8
0
  0
POLYLINE
  8
16
 66
1
 10
0.0000
 20
0.0000
 30
0.0000
 40
0.0000
 41
0.0000
 70
1
  0
VERTEX
  8
16
 10
9.9397
 20
5.1816
 30
0.0000
  0
VERTEX
  8
16
 10
10.9111
 20
5.1816
 30
0.0000
 42
1.0000
  0
VERTEX
  8
16
 10
10.9111
 20
5.7912
 30
0.0000
  0
VERTEX
  8
16
 10
9.9397
 20
5.7912
 30
0.0000
 42
1.0000
  0
SEQEND
  8
0
  0
POLYLINE
  8
16
 66
1
 10
0.0000
 20
0.0000
 30
0.0000
 40
0.0000
 41
0.0000
 70
1
  0
VERTEX
  8
16
 10
14.7533
 20
5.1816
 30
0.0000
  0
VERTEX
  8
16
 10
22.0218
 20
5.1816
 30
0.0000
 42
1.0000
  0
VERTEX
  8
16
 10
22.0218
 20
5.7912
 30
0.0000
  0
VERTEX
  8
16
 10
14.7533
 20
5.7912
 30
0.0000
 42
1.0000
  0
SEQEND
  8
0
  0
POLYLINE
  8
16
 66
1
 10
0.0000
 20
0.0000
 30
0.0000
 40
0.0000
 41
0.0000
 70
1
  0
VERTEX
  8
16
 10
25.8826
 20
5.1816
 30
0.0000
  0
VERTEX
  8
16
 10
33.4518
 20
5.1816
 30
0.0000
 42
1.0000
  0
VERTEX
  8
16
 10
33.4518
 20
5.7912
 30
0.0000
  0
VERTEX
  8
16
 10
25.8826
 20
5.7912
 30
0.0000
 42
1.0000
  0
SEQEND
  8
0
  0
POLYLINE
  8
16
 66
1
 10
0.0000
 20
0.0000
 30
0.0000
 40
0.0000
 41
0.0000
 70
1
  0
VERTEX
  8
16
 10
37.3126
 20
5.1816
 30
0.0000
  0
VERTEX
  8
16
 10
44.8818
 20
5.1816
 30
0.0000
 42
1.0000
  0
VERTEX
  8
16
 10
44.8818
 20
5.7912
 30
0.0000
  0
VERTEX
  8
16
 10
37.3126
 20
5.7912
 30
0.0000
 42
1.0000
  0
SEQEND
  8
0
  0
POLYLINE
  8
16
 66
1
 10
0.0000
 20
0.0000
 30
0.0000
 40
0.0000
 41
0.0000
 70
1
  0
VERTEX
  8
16
 10
48.7426
 20
5.1816
 30
0.0000
  0
VERTEX
  8
16
 10
56.3118
 20
5.1816
 30
0.0000
 42
1.0000
  0
VERTEX
  8
16
 10
56.3118
 20
5.7912
 30
0.0000
  0
VERTEX
  8
16
 10
48.7426
 20
5.7912
 30
0.0000
 42
1.0000
  0
SEQEND
  8
0
  0
POLYLINE
  8
16
 66
1
 10
0.0000
 20
0.0000
 30
0.0000
 40
0.0000
 41
0.0000
 70
1
  0
VERTEX
  8
16
 10
60.1726
 20
5.1816
 30
0.0000
  0
VERTEX
  8
16
 10
67.7418
 20
5.1816
 30
0.0000
 42
1.0000
  0
VERTEX
  8
16
 10
67.7418
 20
5.7912
 30
0.0000
  0
VERTEX
  8
16
 10
60.1726
 20
5.7912
 30
0.0000
 42
1.0000
  0
SEQEND
  8
0
  0
POLYLINE
  8
16
 66
1
 10
0.0000
 20
0.0000
 30
0.0000
 40
0.0000
 41
0.0000
 70
1
  0
VERTEX
  8
16
 10
71.6026
 20
5.1816
 30
0.0000
  0
VERTEX
  8
16
 10
79.1718
 20
5.1816
 30
0.0000
 42
1.0000
  0
VERTEX
  8
16
 10
79.1718
 20
5.7912
 30
0.0000
  0
VERTEX
  8
16
 10
71.6026
 20
5.7912
 30
0.0000
 42
1.0000
  0
SEQEND
  8
0
  0
POLYLINE
  8
16
 66
1
 10
0.0000
 20
0.0000
 30
0.0000
 40
0.0000
 41
0.0000
 70
1
  0
VERTEX
  8
16
 10
83.0326
 20
5.1816
 30
0.0000
  0
VERTEX
  8
16
 10
90.6018
 20
5.1816
 30
0.0000
 42
1.0000
  0
VERTEX
  8
16
 10
90.6018
 20
5.7912
 30
0.0000
  0
VERTEX
  8
16
 10
83.0326
 20
5.7912
 30
0.0000
 42
1.0000
  0
SEQEND
  8
0
  0
POLYLINE
  8
16
 66
1
 10
0.0000
 20
0.0000
 30
0.0000
 40
0.0000
 41
0.0000
 70
1
  0
VERTEX
  8
16
 10
94.4626
 20
5.1816
 30
0.0000
  0
VERTEX
  8
16
 10
102.0318
 20
5.1816
 30
0.0000
 42
1.0000
  0
VERTEX
  8
16
 10
102.0318
 20
5.7912
 30
0.0000
  0
VERTEX
  8
16
 10
94.4626
 20
5.7912
 30
0.0000
 42
1.0000
  0
SEQEND
  8
0
  0
POLYLINE
  8
16
 66
1
 10
0.0000
 20
0.0000
 30
0.0000
 40
0.0000
 41
0.0000
 70
1
  0
VERTEX
  8
16
 10
105.8926
 20
5.1816
 30
0.0000
  0
VERTEX
  8
16
 10
110.6900
 20
5.1816
 30
0.0000
 42
1.0000
  0
VERTEX
  8
16
 10
110.6900
 20
5.7912
 30
0.0000
  0
VERTEX
  8
16
 10
105.8926
 20
5.7912
 30
0.0000
 42
1.0000
  0
SEQEND
  8
0
  0
POLYLINE
  8
16
 66
1
 10
0.0000
 20
0.0000
 30
0.0000
 40
0.0000
 41
0.0000
 70
1
  0
VERTEX
  8
16
 10
10.0235
 20
5.7912
 30
0.0000
  0
VERTEX
  8
16
 10
11.1636
 20
5.7912
 30
0.0000
 42
1.0000
  0
VERTEX
  8
16
 10
11.1636
 20
6.4008
 30
0.0000
  0
VERTEX
  8
16
 10
10.0235
 20
6.4008
 30
0.0000
 42
1.0000
  0
SEQEND
  8
0
  0
POLYLINE
  8
16
 66
1
 10
0.0000
 20
0.0000
 30
0.0000
 40
0.0000
 41
0.0000
 70
1
  0
VERTEX
  8
16
 10
14.5008
 20
5.7912
 30
0.0000
  0
VERTEX
  8
16
 10
22.0218
 20
5.7912
 30
0.0000
 42
1.0000
  0
VERTEX
  8
16
 10
22.0218
 20
6.4008
 30
0.0000
  0
VERTEX
  8
16
 10
14.5008
 20
6.4008
 30
0.0000
 42
1.0000
  0
SEQEND
  8
0
  0
POLYLINE
  8
16
 66
1
 10
0.0000
 20
0.0000
 30
0.0000
 40
0.0000
 41
0.0000
 70
1
  0
VERTEX
  8
16
 10
25.8826
 20
5.7912
 30
0.0000
  0
VERTEX
  8
16
 10
33.4518
 20
5.7912
 30
0.0000
 42
1.0000
  0
VERTEX
  8
16
 10
33.4518
 20
6.4008
 30
0.0000
  0
VERTEX
  8
16
 10
25.8826
 20
6.4008
 30
0.0000
 42
1.0000
  0
SEQEND
  8
0
  0
POLYLINE
  8
16
 66
1
 10
0.0000
 20
0.0000
 30
0.0000
 40
0.0000
 41
0.0000
 70
1
  0
VERTEX
  8
16
 10
37.3126
 20
5.7912
 30
0.0000
  0
VERTEX
  8
16
 10
44.8818
 20
5.7912
 30
0.0000
 42
1.0000
  0
VERTEX
  8
16
 10
44.8818
 20
6.4008
 30
0.0000
  0
VERTEX
  8
16
 10
37.3126
 20
6.4008
 30
0.0000
 42
1.0000
  0
SEQEND
  8
0
  0
POLYLINE
  8
16
 66
1
 10
0.0000
 20
0.0000
 30
0.0000
 40
0.0000
 41
0.0000
 70
1
  0
VERTEX
  8
16
 10
48.7426
 20
5.7912
 30
0.0000
  0
VERTEX
  8
16
 10
56.3118
 20
5.7912
 30
0.0000
 42
1.0000
  0
VERTEX
  8
16
 10
56.3118
 20
6.4008
 30
0.0000
  0
VERTEX
  8
16
 10
48.7426
 20
6.4008
 30
0.0000
 42
1.0000
  0
SEQEND
  8
0
  0
POLYLINE
  8
16
 66
1
 10
0.0000
 20
0.0000
 30
0.0000
 40
0.0000
 41
0.0000
 70
1
  0
VERTEX
  8
16
 10
60.1726
 20
5.7912
 30
0.0000
  0
VERTEX
  8
16
 10
67.7418
 20
5.7912
 30
0.0000
 42
1.0000
  0
VERTEX
  8
16
 10
67.7418
 20
6.4008
 30
0.0000
  0
VERTEX
  8
16
 10
60.1726
 20
6.4008
 30
0.0000
 42
1.0000
  0
SEQEND
  8
0
  0
POLYLINE
  8
16
 66
1
 10
0.0000
 20
0.0000
 30
0.0000
 40
0.0000
 41
0.0000
 70
1
  0
VERTEX
  8
16
 10
71.6026
 20
5.7912
 30
0.0000
  0
VERTEX
  8
16
 10
79.1718
 20
5.7912
 30
0.0000
 42
1.0000
  0
VERTEX
  8
16
 10
79.1718
 20
6.4008
 30
0.0000
  0
VERTEX
  8
16
 10
71.6026
 20
6.4008
 30
0.0000
 42
1.0000
  0
SEQEND
  8
0
  0
POLYLINE
  8
16
 66
1
 10
0.0000
 20
0.0000
 30
0.0000
 40
0.0000
 41
0.0000
 70
1
  0
VERTEX
  8
16
 10
83.0326
 20
5.7912
 30
0.0000
  0
VERTEX
  8
16
 10
90.6018
 20
5.7912
 30
0.0000
 42
1.0000
  0
VERTEX
  8
16
 10
90.6018
 20
6.4008
 30
0.0000
  0
VERTEX
  8
16
 10
83.0326
 20
6.4008
 30
0.0000
 42
1.0000
  0
SEQEND
  8
0
  0
POLYLINE
  8
16
 66
1
 10
0.0000
 20
0.0000
 30
0.0000
 40
0.0000
 41
0.0000
 70
1
  0
VERTEX
  8
16
 10
94.4626
 20
5.7912
 30
0.0000
  0
VERTEX
  8
16
 10
102.0318
 20
5.7912
 30
0.0000
 42
1.0000
  0
VERTEX
  8
16
 10
102.0318
 20
6.4008
 30
0.0000
  0
VERTEX
  8
16
 10
94.4626
 20
6.4008
 30
0.0000
 42
1.0000
  0
SEQEND
  8
0
  0
POLYLINE
  8
16
 66
1
 10
0.0000
 20
0.0000
 30
0.0000
 40
0.0000
 41
0.0000
 70
1
  0
VERTEX
  8
16
 10
105.8926
 20
5.7912
 30
0.0000
  0
VERTEX
  8
16
 10
110.6380
 20
5.7912
 30
0.0000
 42
1.0000
  0
VERTEX
  8
16
 10
110.6380
 20
6.4008
 30
0.0000
  0
VERTEX
  8
16
 10
105.8926
 20
6.4008
 30
0.0000
 42
1.0000
  0
SEQEND
  8
0
  0
POLYLINE
  8
16
 66
1
 10
0.0000
 20
0.0000
 30
0.0000
 40
0.0000
 41
0.0000
 70
1
  0
VERTEX
  8
16
 10
10.0095
 20
6.4008
 30
0.0000
  0
VERTEX
  8
16
 10
11.2828
 20
6.4008
 30
0.0000
 42
1.0000
  0
VERTEX
  8
16
 10
11.2828
 20
7.0104
 30
0.0000
  0
VERTEX
  8
16
 10
10.0095
 20
7.0104
 30
0.0000
 42
1.0000
  0
SEQEND
  8
0
  0
POLYLINE
  8
16
 66
1
 10
0.0000
 20
0.0000
 30
0.0000
 40
0.0000
 41
0.0000
 70
1
  0
VERTEX
  8
16
 10
14.3816
 20
6.4008
 30
0.0000
  0
VERTEX
  8
16
 10
22.2526
 20
6.4008
 30
0.0000
 42
1.0000
  0
VERTEX
  8
16
 10
22.2526
 20
7.0104
 30
0.0000
  0
VERTEX
  8
16
 10
14.3816
 20
7.0104
 30
0.0000
 42
1.0000
  0
SEQEND
  8
0
  0
POLYLINE
  8
16
 66
1
 10
0.0000
 20
0.0000
 30
0.0000
 40
0.0000
 41
0.0000
 70
1
  0
VERTEX
  8
16
 10
25.6518
 20
6.4008
 30
0.0000
  0
VERTEX
  8
16
 10
33.6826
 20
6.4008
 30
0.0000
 42
1.0000
  0
VERTEX
  8
16
 10
33.6826
 20
7.0104
 30
0.0000
  0
VERTEX
  8
16
 10
25.6518
 20
7.0104
 30
0.0000
 42
1.0000
  0
SEQEND
  8
0
  0
POLYLINE
  8
16
 66
1
 10
0.0000
 20
0.0000
 30
0.0000
 40
0.0000
 41
0.0000
 70
1
  0
VERTEX
  8
16
 10
37.0818
 20
6.4008
 30
0.0000
  0
VERTEX
  8
16
 10
45.1126
 20
6.4008
 30
0.0000
 42
1.0000
  0
VERTEX
  8
16
 10
45.1126
 20
7.0104
 30
0.0000
  0
VERTEX
  8
16
 10
37.0818
 20
7.0104
 30
0.0000
 42
1.0000
  0
SEQEND
  8
0
  0
POLYLINE
  8
16
 66
1
 10
0.0000
 20
0.0000
 30
0.0000
 40
0.0000
 41
0.0000
 70
1
  0
VERTEX
  8
16
 10
48.5118
 20
6.4008
 30
0.0000
  0
VERTEX
  8
16
 10
56.5426
 20
6.4008
 30
0.0000
 42
1.0000
  0
VERTEX
  8
16
 10
56.5426
 20
7.0104
 30
0.0000
  0
VERTEX
  8
16
 10
48.5118
 20
7.0104
 30
0.0000
 42
1.0000
  0
SEQEND
  8
0
  0
POLYLINE
  8
16
 66
1
 10
0.0000
 20
0.0000
 30
0.0000
 40
0.0000
 41
0.0000
 70
1
  0
VERTEX
  8
16
 10
59.9418
 20
6.4008
 30
0.0000
  0
VERTEX
  8
16
 10
67.9726
 20
6.4008
 30
0.0000
 42
1.0000
  0
VERTEX
  8
16
 10
67.9726
 20
7.0104
 30
0.0000
  0
VERTEX
  8
16
 10
59.9418
 20
7.0104
 30
0.0000
 42
1.0000
  0
SEQEND
  8
0
  0
POLYLINE
  8
16
 66
1
 10
0.0000
 20
0.0000
 30
0.0000
 40
0.0000
 41
0.0000
 70
1
  0
VERTEX
  8
16
 10
71.3718
 20
6.4008
 30
0.0000
  0
VERTEX
  8
16
 10
79.4026
 20
6.4008
 30
0.0000
 42
1.0000
  0
VERTEX
  8
16
 10
79.4026
 20
7.0104
 30
0.0000
  0
VERTEX
  8
16
 10
71.3718
 20
7.0104
 30
0.0000
 42
1.0000
  0
SEQEND
  8
0
  0
POLYLINE
  8
16
 66
1
 10
0.0000
 20
0.0000
 30
0.0000
 40
0.0000
 41
0.0000
 70
1
  0
VERTEX
  8
16
 10
82.8018
 20
6.4008
 30
0.0000
  0
VERTEX
  8
16
 10
90.8326
 20
6.4008
 30
0.0000
 42
1.0000
  0
VERTEX
  8
16
 10
90.8326
 20
7.0104
 30
0.0000
  0
VERTEX
  8
16
 10
82.8018
 20
7.0104
 30
0.0000
 42
1.0000
  0
SEQEND
  8
0
  0
POLYLINE
  8
16
 66
1
 10
0.0000
 20
0.0000
 30
0.0000
 40
0.0000
 41
0.0000
 70
1
  0
VERTEX
  8
16
 10
94.2318
 20
6.4008
 30
0.0000
  0
VERTEX
  8
16
 10
102.2626
 20
6.4008
 30
0.0000
 42
1.0000
  0
VERTEX
  8
16
 10
102.2626
 20
7.0104
 30
0.0000
  0
VERTEX
  8
16
 10
94.2318
 20
7.0104
 30
0.0000
 42
1.0000
  0
SEQEND
  8
0
  0
POLYLINE
  8
16
 66
1
 10
0.0000
 20
0.0000
 30
0.0000
 40
0.0000
 41
0.0000
 70
1
  0
VERTEX
  8
16
 10
105.6618
 20
6.4008
 30
0.0000
  0
VERTEX
  8
16
 10
110.6380
 20
6.4008
 30
0.0000
 42
1.0000
  0
VERTEX
  8
16
 10
110.6380
 20
7.0104
 30
0.0000
  0
VERTEX
  8
16
 10
105.6618
 20
7.0104
 30
0.0000
 42
1.0000
  0
SEQEND
  8
0
  0
POLYLINE
  8
16
 66
1
 10
0.0000
 20
0.0000
 30
0.0000
 40
0.0000
 41
0.0000
 70
1
  0
VERTEX
  8
16
 10
9.9257
 20
7.0104
 30
0.0000
  0
VERTEX
  8
16
 10
11.2828
 20
7.0104
 30
0.0000
 42
1.0000
  0
VERTEX
  8
16
 10
11.2828
 20
7.6200
 30
0.0000
  0
VERTEX
  8
16
 10
9.9257
 20
7.6200
 30
0.0000
 42
1.0000
  0
SEQEND
  8
0
  0
POLYLINE
  8
16
 66
1
 10
0.0000
 20
0.0000
 30
0.0000
 40
0.0000
 41
0.0000
 70
1
  0
VERTEX
  8
16
 10
14.3816
 20
7.0104
 30
0.0000
  0
VERTEX
  8
16
 10
110.7185
 20
7.0104
 30
0.0000
 42
1.0000
  0
VERTEX
  8
16
 10
110.7185
 20
7.6200
 30
0.0000
  0
VERTEX
  8
16
 10
14.3816
 20
7.6200
 30
0.0000
 42
1.0000
  0
SEQEND
  8
0
  0
POLYLINE
  8
16
 66
1
 10
0.0000
 20
0.0000
 30
0.0000
 40
0.0000
 41
0.0000
 70
1
  0
VERTEX
  8
16
 10
9.7732
 20
7.6200
 30
0.0000
  0
VERTEX
  8
16
 10
11.2828
 20
7.6200
 30
0.0000
 42
1.0000
  0
VERTEX
  8
16
 10
11.2828
 20
8.2296
 30
0.0000
  0
VERTEX
  8
16
 10
9.7732
 20
8.2296
 30
0.0000
 42
1.0000
  0
SEQEND
  8
0
  0
POLYLINE
  8
16
 66
1
 10
0.0000
 20
0.0000
 30
0.0000
 40
0.0000
 41
0.0000
 70
1
  0
VERTEX
  8
16
 10
14.3816
 20
7.6200
 30
0.0000
  0
VERTEX
  8
16
 10
110.8893
 20
7.6200
 30
0.0000
 42
1.0000
  0
VERTEX
  8
16
 10
110.8893
 20
8.2296
 30
0.0000
  0
VERTEX
  8
16
 10
14.3816
 20
8.2296
 30
0.0000
 42
1.0000
  0
SEQEND
  8
0
  0
POLYLINE
  8
16
 66
1
 10
0.0000
 20
0.0000
 30
0.0000
 40
0.0000
 41
0.0000
 70
1
  0
VERTEX
  8
16
 10
9.5084
 20
8.2296
 30
0.0000
  0
VERTEX
  8
16
 10
11.2828
 20
8.2296
 30
0.0000
 42
1.0000
  0
VERTEX
  8
16
 10
11.2828
 20
8.8392
 30
0.0000
  0
VERTEX
  8
16
 10
9.5084
 20
8.8392
 30
0.0000
 42
1.0000
  0
SEQEND
  8
0
  0
POLYLINE
  8
16
 66
1
 10
0.0000
 20
0.0000
 30
0.0000
 40
0.0000
 41
0.0000
 70
1
  0
VERTEX
  8
16
 10
14.5356
 20
8.2296
 30
0.0000
  0
VERTEX
  8
16
 10
111.1260
 20
8.2296
 30
0.0000
 42
1.0000
  0
VERTEX
  8
16
 10
111.1260
 20
8.8392
 30
0.0000
  0
VERTEX
  8
16
 10
14.5356
 20
8.8392
 30
0.0000
 42
1.0000
  0
SEQEND
  8
0
  0
POLYLINE
  8
16
 66
1
 10
0.0000
 20
0.0000
 30
0.0000
 40
0.0000
 41
0.0000
 70
1
  0
VERTEX
  8
16
 10
9.1650
 20
8.8392
 30
0.0000
  0
VERTEX
  8
16
 10
11.2828
 20
8.8392
 30
0.0000
 42
1.0000
  0
VERTEX
  8
16
 10
11.2828
 20
9.4488
 30
0.0000
  0
VERTEX
  8
16
 10
9.1650
 20
9.4488
 30
0.0000
 42
1.0000
  0
SEQEND
  8
0
  0
POLYLINE
  8
16
 66
1
 10
0.0000
 20
0.0000
 30
0.0000
 40
0.0000
 41
0.0000
 70
1
  0
VERTEX
  8
16
 10
101.5411
 20
8.8392
 30
0.0000
  0
VERTEX
  8
16
 10
111.4967
 20
8.8392
 30
0.0000
 42
1.0000
  0
VERTEX
  8
16
 10
111.4967
 20
9.4488
 30
0.0000
  0
VERTEX
  8
16
 10
101.5411
 20
9.4488
 30
0.0000
 42
1.0000
  0
SEQEND
  8
0
  0
POLYLINE
  8
16
 66
1
 10
0.0000
 20
0.0000
 30
0.0000
 40
0.0000
 41
0.0000
 70
1
  0
VERTEX
  8
16
 10
1.3970
 20
9.4488
 30
0.0000
  0
VERTEX
  8
16
 10
1.4985
 20
9.4488
 30
0.0000
 42
1.0000
  0
VERTEX
  8
16
 10
1.4985
 20
10.0584
 30
0.0000
  0
VERTEX
  8
16
 10
1.3970
 20
10.0584
 30
0.0000
 42
1.0000
  0
SEQEND
  8
0
  0
POLYLINE
  8
16
 66
1
 10
0.0000
 20
0.0000
 30
0.0000
 40
0.0000
 41
0.0000
 70
1
  0
VERTEX
  8
16
 10
8.6690
 20
9.4488
 30
0.0000
  0
VERTEX
  8
16
 10
11.4581
 20
9.4488
 30
0.0000
 42
1.0000
  0
VERTEX
  8
16
 10
11.4581
 20
10.0584
 30
0.0000
  0
VERTEX
  8
16
 10
8.6690
 20
10.0584
 30
0.0000
 42
1.0000
  0
SEQEND
  8
0
  0
POLYLINE
  8
16
 66
1
 10
0.0000
 20
0.0000
 30
0.0000
 40
0.0000
 41
0.0000
 70
1
  0
VERTEX
  8
16
 10
101.9048
 20
9.4488
 30
0.0000
  0
VERTEX
  8
16
 10
111.9885
 20
9.4488
 30
0.0000
 42
1.0000
  0
VERTEX
  8
16
 10
111.9885
 20
10.0584
 30
0.0000
  0
VERTEX
  8
16
 10
101.9048
 20
10.0584
 30
0.0000
 42
1.0000
  0
SEQEND
  8
0
  0
POLYLINE
  8
16
 66
1
 10
0.0000
 20
0.0000
 30
0.0000
 40
0.0000
 41
0.0000
 70
1
  0
VERTEX
  8
16
 10
119.1590
 20
9.4488
 30
0.0000
  0
VERTEX
  8
16
 10
119.2530
 20
9.4488
 30
0.0000
 42
1.0000
  0
VERTEX
  8
16
 10
119.2530
 20
10.0584
 30
0.0000
  0
VERTEX
  8
16
 10
119.1590
 20
10.0584
 30
0.0000
 42
1.0000
  0
SEQEND
  8
0
  0
POLYLINE
  8
16
 66
1
 10
0.0000
 20
0.0000
 30
0.0000
 40
0.0000
 41
0.0000
 70
1
  0
VERTEX
  8
16
 10
1.3970
 20
10.0584
 30
0.0000
  0
VERTEX
  8
16
 10
2.1512
 20
10.0584
 30
0.0000
 42
1.0000
  0
VERTEX
  8
16
 10
2.1512
 20
10.6680
 30
0.0000
  0
VERTEX
  8
16
 10
1.3970
 20
10.6680
 30
0.0000
 42
1.0000
  0
SEQEND
  8
0
  0
POLYLINE
  8
16
 66
1
 10
0.0000
 20
0.0000
 30
0.0000
 40
0.0000
 41
0.0000
 70
1
  0
VERTEX
  8
16
 10
7.9470
 20
10.0584
 30
0.0000
  0
VERTEX
  8
16
 10
11.9820
 20
10.0584
 30
0.0000
 42
1.0000
  0
VERTEX
  8
16
 10
11.9820
 20
10.6680
 30
0.0000
  0
VERTEX
  8
16
 10
7.9470
 20
10.6680
 30
0.0000
 42
1.0000
  0
SEQEND
  8
0
  0
POLYLINE
  8
16
 66
1
 10
0.0000
 20
0.0000
 30
0.0000
 40
0.0000
 41
0.0000
 70
1
  0
VERTEX
  8
16
 10
101.9048
 20
10.0584
 30
0.0000
  0
VERTEX
  8
16
 10
112.6412
 20
10.0584
 30
0.0000
 42
1.0000
  0
VERTEX
  8
16
 10
112.6412
 20
10.6680
 30
0.0000
  0
VERTEX
  8
16
 10
101.9048
 20
10.6680
 30
0.0000
 42
1.0000
  0
SEQEND
  8
0
  0
POLYLINE
  8
16
 66
1
 10
0.0000
 20
0.0000
 30
0.0000
 40
0.0000
 41
0.0000
 70
1
  0
VERTEX
  8
16
 10
118.4370
 20
10.0584
 30
0.0000
  0
VERTEX
  8
16
 10
119.2530
 20
10.0584
 30
0.0000
 42
1.0000
  0
VERTEX
  8
16
 10
119.2530
 20
10.6680
 30
0.0000
  0
VERTEX
  8
16
 10
118.4370
 20
10.6680
 30
0.0000
 42
1.0000
  0
SEQEND
  8
0
  0
POLYLINE
  8
16
 66
1
 10
0.0000
 20
0.0000
 30
0.0000
 40
0.0000
 41
0.0000
 70
1
  0
VERTEX
  8
16
 10
1.5185
 20
10.6680
 30
0.0000
  0
VERTEX
  8
16
 10
3.2813
 20
10.6680
 30
0.0000
 42
1.0000
  0
VERTEX
  8
16
 10
3.2813
 20
11.2776
 30
0.0000
  0
VERTEX
  8
16
 10
1.5185
 20
11.2776
 30
0.0000
 42
1.0000
  0
SEQEND
  8
0
  0
POLYLINE
  8
16
 66
1
 10
0.0000
 20
0.0000
 30
0.0000
 40
0.0000
 41
0.0000
 70
1
  0
VERTEX
  8
16
 10
6.8005
 20
10.6680
 30
0.0000
  0
VERTEX
  8
16
 10
12.5916
 20
10.6680
 30
0.0000
 42
1.0000
  0
VERTEX
  8
16
 10
12.5916
 20
11.2776
 30
0.0000
  0
VERTEX
  8
16
 10
6.8005
 20
11.2776
 30
0.0000
 42
1.0000
  0
SEQEND
  8
0
  0
POLYLINE
  8
16
 66
1
 10
0.0000
 20
0.0000
 30
0.0000
 40
0.0000
 41
0.0000
 70
1
  0
VERTEX
  8
16
 10
101.7443
 20
10.6680
 30
0.0000
  0
VERTEX
  8
16
 10
113.7713
 20
10.6680
 30
0.0000
 42
1.0000
  0
VERTEX
  8
16
 10
113.7713
 20
11.2776
 30
0.0000
  0
VERTEX
  8
16
 10
101.7443
 20
11.2776
 30
0.0000
 42
1.0000
  0
SEQEND
  8
0
  0
POLYLINE
  8
16
 66
1
 10
0.0000
 20
0.0000
 30
0.0000
 40
0.0000
 41
0.0000
 70
1
  0
VERTEX
  8
16
 10
117.2904
 20
10.6680
 30
0.0000
  0
VERTEX
  8
16
 10
119.1315
 20
10.6680
 30
0.0000
 42
1.0000
  0
VERTEX
  8
16
 10
119.1315
 20
11.2776
 30
0.0000
  0
VERTEX
  8
16
 10
117.2904
 20
11.2776
 30
0.0000
 42
1.0000
  0
SEQEND
  8
0
  0
POLYLINE
  8
16
 66
1
 10
0.0000
 20
0.0000
 30
0.0000
 40
0.0000
 41
0.0000
 70
1
  0
VERTEX
  8
16
 10
2.1280
 20
11.2776
 30
0.0000
  0
VERTEX
  8
16
 10
13.3552
 20
11.2776
 30
0.0000
 42
1.0000
  0
VERTEX
  8
16
 10
13.3552
 20
11.8872
 30
0.0000
  0
VERTEX
  8
16
 10
2.1280
 20
11.8872
 30
0.0000
 42
1.0000
  0
SEQEND
  8
0
  0
POLYLINE
  8
16
 66
1
 10
0.0000
 20
0.0000
 30
0.0000
 40
0.0000
 41
0.0000
 70
1
  0
VERTEX
  8
16
 10
101.1347
 20
11.2776
 30
0.0000
  0
VERTEX
  8
16
 10
118.5219
 20
11.2776
 30
0.0000
 42
1.0000
  0
VERTEX
  8
16
 10
118.5219
 20
11.8872
 30
0.0000
  0
VERTEX
  8
16
 10
101.1347
 20
11.8872
 30
0.0000
 42
1.0000
  0
SEQEND
  8
0
  0
POLYLINE
  8
16
 66
1
 10
0.0000
 20
0.0000
 30
0.0000
 40
0.0000
 41
0.0000
 70
1
  0
VERTEX
  8
16
 10
2.7376
 20
11.8872
 30
0.0000
  0
VERTEX
  8
16
 10
117.9123
 20
11.8872
 30
0.0000
 42
1.0000
  0
VERTEX
  8
16
 10
117.9123
 20
12.4968
 30
0.0000
  0
VERTEX
  8
16
 10
2.7376
 20
12.4968
 30
0.0000
 42
1.0000
  0
SEQEND
  8
0
  0
POLYLINE
  8
16
 66
1
 10
0.0000
 20
0.0000
 30
0.0000
 40
0.0000
 41
0.0000
 70
1
  0
VERTEX
  8
16
 10
13.4672
 20
5.0800
 30
0.0000
  0
VERTEX
  8
16
 10
13.4672
 20
9.0222
 30
0.0000
 42
1.0000
  0
VERTEX
  8
16
 10
12.1972
 20
9.0222
 30
0.0000
  0
VERTEX
  8
16
 10
12.1972
 20
5.0800
 30
0.0000
 42
1.0000
  0
SEQEND
  8
0
  0
POLYLINE
  8
16
 66
1
 10
0.0000
 20
0.0000
 30
0.0000
 40
0.0000
 41
0.0000
 70
1
  0
VERTEX
  8
16
 10
13.2812
 20
8.5732
 30
0.0000
  0
VERTEX
  8
16
 10
14.4190
 20
9.7110
 30
0.0000
 42
1.0000
  0
VERTEX
  8
16
 10
13.5210
 20
10.6090
 30
0.0000
  0
VERTEX
  8
16
 10
12.3832
 20
9.4712
 30
0.0000
 42
1.0000
  0
SEQEND
  8
0
  0
POLYLINE
  8
16
 66
1
 10
0.0000
 20
0.0000
 30
0.0000
 40
0.0000
 41
0.0000
 70
1
  0
VERTEX
  8
16
 10
13.9700
 20
9.5250
 30
0.0000
  0
VERTEX
  8
16
 10
20.3200
 20
9.5250
 30
0.0000
 42
1.0000
  0
VERTEX
  8
16
 10
20.3200
 20
10.7950
 30
0.0000
  0
VERTEX
  8
16
 10
13.9700
 20
10.7950
 30
0.0000
 42
1.0000
  0
SEQEND
  8
0
  0
POLYLINE
  8
16
 66
1
 10
0.0000
 20
0.0000
 30
0.0000
 40
0.0000
 41
0.0000
 70
1
  0
VERTEX
  8
16
 10
20.3200
 20
9.5250
 30
0.0000
  0
VERTEX
  8
16
 10
31.7500
 20
9.5250
 30
0.0000
 42
1.0000
  0
VERTEX
  8
16
 10
31.7500
 20
10.7950
 30
0.0000
  0
VERTEX
  8
16
 10
20.3200
 20
10.7950
 30
0.0000
 42
1.0000
  0
SEQEND
  8
0
  0
POLYLINE
  8
16
 66
1
 10
0.0000
 20
0.0000
 30
0.0000
 40
0.0000
 41
0.0000
 70
1
  0
VERTEX
  8
16
 10
31.7500
 20
9.5250
 30
0.0000
  0
VERTEX
  8
16
 10
43.1800
 20
9.5250
 30
0.0000
 42
1.0000
  0
VERTEX
  8
16
 10
43.1800
 20
10.7950
 30
0.0000
  0
VERTEX
  8
16
 10
31.7500
 20
10.7950
 30
0.0000
 42
1.0000
  0
SEQEND
  8
0
  0
POLYLINE
  8
16
 66
1
 10
0.0000
 20
0.0000
 30
0.0000
 40
0.0000
 41
0.0000
 70
1
  0
VERTEX
  8
16
 10
43.1800
 20
9.5250
 30
0.0000
  0
VERTEX
  8
16
 10
54.6100
 20
9.5250
 30
0.0000
 42
1.0000
  0
VERTEX
  8
16
 10
54.6100
 20
10.7950
 30
0.0000
  0
VERTEX
  8
16
 10
43.1800
 20
10.7950
 30
0.0000
 42
1.0000
  0
SEQEND
  8
0
  0
POLYLINE
  8
16
 66
1
 10
0.0000
 20
0.0000
 30
0.0000
 40
0.0000
 41
0.0000
 70
1
  0
VERTEX
  8
16
 10
54.6100
 20
9.5250
 30
0.0000
  0
VERTEX
  8
16
 10
66.0400
 20
9.5250
 30
0.0000
 42
1.0000
  0
VERTEX
  8
16
 10
66.0400
 20
10.7950
 30
0.0000
  0
VERTEX
  8
16
 10
54.6100
 20
10.7950
 30
0.0000
 42
1.0000
  0
SEQEND
  8
0
  0
POLYLINE
  8
16
 66
1
 10
0.0000
 20
0.0000
 30
0.0000
 40
0.0000
 41
0.0000
 70
1
  0
VERTEX
  8
16
 10
66.0400
 20
9.5250
 30
0.0000
  0
VERTEX
  8
16
 10
77.4700
 20
9.5250
 30
0.0000
 42
1.0000
  0
VERTEX
  8
16
 10
77.4700
 20
10.7950
 30
0.0000
  0
VERTEX
  8
16
 10
66.0400
 20
10.7950
 30
0.0000
 42
1.0000
  0
SEQEND
  8
0
  0
POLYLINE
  8
16
 66
1
 10
0.0000
 20
0.0000
 30
0.0000
 40
0.0000
 41
0.0000
 70
1
  0
VERTEX
  8
16
 10
77.4700
 20
9.5250
 30
0.0000
  0
VERTEX
  8
16
 10
88.9000
 20
9.5250
 30
0.0000
 42
1.0000
  0
VERTEX
  8
16
 10
88.9000
 20
10.7950
 30
0.0000
  0
VERTEX
  8
16
 10
77.4700
 20
10.7950
 30
0.0000
 42
1.0000
  0
SEQEND
  8
0
  0
POLYLINE
  8
16
 66
1
 10
0.0000
 20
0.0000
 30
0.0000
 40
0.0000
 41
0.0000
 70
1
  0
VERTEX
  8
16
 10
88.9000
 20
9.5250
 30
0.0000
  0
VERTEX
  8
16
 10
100.3300
 20
9.5250
 30
0.0000
 42
1.0000
  0
VERTEX
  8
16
 10
100.3300
 20
10.7950
 30
0.0000
  0
VERTEX
  8
16
 10
88.9000
 20
10.7950
 30
0.0000
 42
1.0000
  0
SEQEND
  8
0
  0
POLYLINE
  8
16
 66
1
 10
0.0000
 20
0.0000
 30
0.0000
 40
0.0000
 41
0.0000
 70
1
  0
VERTEX
  8
16
 10
100.3300
 20
1.9050
 30
0.0000
  0
VERTEX
  8
16
 10
101.4222
 20
1.9050
 30
0.0000
 42
1.0000
  0
VERTEX
  8
16
 10
101.4222
 20
3.1750
 30
0.0000
  0
VERTEX
  8
16
 10
100.3300
 20
3.1750
 30
0.0000
 42
1.0000
  0
SEQEND
  8
0
  0
POLYLINE
  8
16
 66
1
 10
0.0000
 20
0.0000
 30
0.0000
 40
0.0000
 41
0.0000
 70
1
  0
VERTEX
  8
16
 10
101.8712
 20
2.0910
 30
0.0000
  0
VERTEX
  8
16
 10
104.4112
 20
4.6310
 30
0.0000
 42
1.0000
  0
VERTEX
  8
16
 10
103.5132
 20
5.5290
 30
0.0000
  0
VERTEX
  8
16
 10
100.9732
 20
2.9890
 30
0.0000
 42
1.0000
  0
SEQEND
  8
0
  0
POLYLINE
  8
16
 66
1
 10
0.0000
 20
0.0000
 30
0.0000
 40
0.0000
 41
0.0000
 70
1
  0
VERTEX
  8
16
 10
88.9000
 20
1.9050
 30
0.0000
  0
VERTEX
  8
16
 10
89.9922
 20
1.9050
 30
0.0000
 42
1.0000
  0
VERTEX
  8
16
 10
89.9922
 20
3.1750
 30
0.0000
  0
VERTEX
  8
16
 10
88.9000
 20
3.1750
 30
0.0000
 42
1.0000
  0
SEQEND
  8
0
  0
POLYLINE
  8
16
 66
1
 10
0.0000
 20
0.0000
 30
0.0000
 40
0.0000
 41
0.0000
 70
1
  0
VERTEX
  8
16
 10
90.4412
 20
2.0910
 30
0.0000
  0
VERTEX
  8
16
 10
92.9812
 20
4.6310
 30
0.0000
 42
1.0000
  0
VERTEX
  8
16
 10
92.0832
 20
5.5290
 30
0.0000
  0
VERTEX
  8
16
 10
89.5432
 20
2.9890
 30
0.0000
 42
1.0000
  0
SEQEND
  8
0
  0
POLYLINE
  8
16
 66
1
 10
0.0000
 20
0.0000
 30
0.0000
 40
0.0000
 41
0.0000
 70
1
  0
VERTEX
  8
16
 10
77.4700
 20
1.9050
 30
0.0000
  0
VERTEX
  8
16
 10
78.5622
 20
1.9050
 30
0.0000
 42
1.0000
  0
VERTEX
  8
16
 10
78.5622
 20
3.1750
 30
0.0000
  0
VERTEX
  8
16
 10
77.4700
 20
3.1750
 30
0.0000
 42
1.0000
  0
SEQEND
  8
0
  0
POLYLINE
  8
16
 66
1
 10
0.0000
 20
0.0000
 30
0.0000
 40
0.0000
 41
0.0000
 70
1
  0
VERTEX
  8
16
 10
79.0112
 20
2.0910
 30
0.0000
  0
VERTEX
  8
16
 10
81.5512
 20
4.6310
 30
0.0000
 42
1.0000
  0
VERTEX
  8
16
 10
80.6532
 20
5.5290
 30
0.0000
  0
VERTEX
  8
16
 10
78.1132
 20
2.9890
 30
0.0000
 42
1.0000
  0
SEQEND
  8
0
  0
POLYLINE
  8
16
 66
1
 10
0.0000
 20
0.0000
 30
0.0000
 40
0.0000
 41
0.0000
 70
1
  0
VERTEX
  8
16
 10
66.0400
 20
1.9050
 30
0.0000
  0
VERTEX
  8
16
 10
67.1322
 20
1.9050
 30
0.0000
 42
1.0000
  0
VERTEX
  8
16
 10
67.1322
 20
3.1750
 30
0.0000
  0
VERTEX
  8
16
 10
66.0400
 20
3.1750
 30
0.0000
 42
1.0000
  0
SEQEND
  8
0
  0
POLYLINE
  8
16
 66
1
 10
0.0000
 20
0.0000
 30
0.0000
 40
0.0000
 41
0.0000
 70
1
  0
VERTEX
  8
16
 10
67.5812
 20
2.0910
 30
0.0000
  0
VERTEX
  8
16
 10
70.1212
 20
4.6310
 30
0.0000
 42
1.0000
  0
VERTEX
  8
16
 10
69.2232
 20
5.5290
 30
0.0000
  0
VERTEX
  8
16
 10
66.6832
 20
2.9890
 30
0.0000
 42
1.0000
  0
SEQEND
  8
0
  0
POLYLINE
  8
16
 66
1
 10
0.0000
 20
0.0000
 30
0.0000
 40
0.0000
 41
0.0000
 70
1
  0
VERTEX
  8
16
 10
54.6100
 20
1.9050
 30
0.0000
  0
VERTEX
  8
16
 10
55.7022
 20
1.9050
 30
0.0000
 42
1.0000
  0
VERTEX
  8
16
 10
55.7022
 20
3.1750
 30
0.0000
  0
VERTEX
  8
16
 10
54.6100
 20
3.1750
 30
0.0000
 42
1.0000
  0
SEQEND
  8
0
  0
POLYLINE
  8
16
 66
1
 10
0.0000
 20
0.0000
 30
0.0000
 40
0.0000
 41
0.0000
 70
1
  0
VERTEX
  8
16
 10
56.1512
 20
2.0910
 30
0.0000
  0
VERTEX
  8
16
 10
58.6912
 20
4.6310
 30
0.0000
 42
1.0000
  0
VERTEX
  8
16
 10
57.7932
 20
5.5290
 30
0.0000
  0
VERTEX
  8
16
 10
55.2532
 20
2.9890
 30
0.0000
 42
1.0000
  0
SEQEND
  8
0
  0
POLYLINE
  8
16
 66
1
 10
0.0000
 20
0.0000
 30
0.0000
 40
0.0000
 41
0.0000
 70
1
  0
VERTEX
  8
16
 10
43.1800
 20
1.9050
 30
0.0000
  0
VERTEX
  8
16
 10
44.2722
 20
1.9050
 30
0.0000
 42
1.0000
  0
VERTEX
  8
16
 10
44.2722
 20
3.1750
 30
0.0000
  0
VERTEX
  8
16
 10
43.1800
 20
3.1750
 30
0.0000
 42
1.0000
  0
SEQEND
  8
0
  0
POLYLINE
  8
16
 66
1
 10
0.0000
 20
0.0000
 30
0.0000
 40
0.0000
 41
0.0000
 70
1
  0
VERTEX
  8
16
 10
44.7212
 20
2.0910
 30
0.0000
  0
VERTEX
  8
16
 10
47.2612
 20
4.6310
 30
0.0000
 42
1.0000
  0
VERTEX
  8
16
 10
46.3632
 20
5.5290
 30
0.0000
  0
VERTEX
  8
16
 10
43.8232
 20
2.9890
 30
0.0000
 42
1.0000
  0
SEQEND
  8
0
  0
POLYLINE
  8
16
 66
1
 10
0.0000
 20
0.0000
 30
0.0000
 40
0.0000
 41
0.0000
 70
1
  0
VERTEX
  8
16
 10
31.7500
 20
1.9050
 30
0.0000
  0
VERTEX
  8
16
 10
32.8422
 20
1.9050
 30
0.0000
 42
1.0000
  0
VERTEX
  8
16
 10
32.8422
 20
3.1750
 30
0.0000
  0
VERTEX
  8
16
 10
31.7500
 20
3.1750
 30
0.0000
 42
1.0000
  0
SEQEND
  8
0
  0
POLYLINE
  8
16
 66
1
 10
0.0000
 20
0.0000
 30
0.0000
 40
0.0000
 41
0.0000
 70
1
  0
VERTEX
  8
16
 10
33.2912
 20
2.0910
 30
0.0000
  0
VERTEX
  8
16
 10
35.8312
 20
4.6310
 30
0.0000
 42
1.0000
  0
VERTEX
  8
16
 10
34.9332
 20
5.5290
 30
0.0000
  0
VERTEX
  8
16
 10
32.3932
 20
2.9890
 30
0.0000
 42
1.0000
  0
SEQEND
  8
0
  0
POLYLINE
  8
16
 66
1
 10
0.0000
 20
0.0000
 30
0.0000
 40
0.0000
 41
0.0000
 70
1
  0
VERTEX
  8
16
 10
20.3200
 20
1.9050
 30
0.0000
  0
VERTEX
  8
16
 10
21.4122
 20
1.9050
 30
0.0000
 42
1.0000
  0
VERTEX
  8
16
 10
21.4122
 20
3.1750
 30
0.0000
  0
VERTEX
  8
16
 10
20.3200
 20
3.1750
 30
0.0000
 42
1.0000
  0
SEQEND
  8
0
  0
POLYLINE
  8
16
 66
1
 10
0.0000
 20
0.0000
 30
0.0000
 40
0.0000
 41
0.0000
 70
1
  0
VERTEX
  8
16
 10
21.8612
 20
2.0910
 30
0.0000
  0
VERTEX
  8
16
 10
24.4012
 20
4.6310
 30
0.0000
 42
1.0000
  0
VERTEX
  8
16
 10
23.5032
 20
5.5290
 30
0.0000
  0
VERTEX
  8
16
 10
20.9632
 20
2.9890
 30
0.0000
 42
1.0000
  0
SEQEND
  8
0
  0
ENDSEC
  0
EOF
