  0
SECTION
  2
HEADER
  9
$ACADVER
  1
AC1009
  9
$DWGCODEPAGE
  3
ansi_1252
  9
$INSBASE
 10
0.0
 20
0.0
 30
0.0
  9
$EXTMIN
 10
45.27628298858923
 20
0.0
 30
0.0
  9
$EXTMAX
 10
82.08628298858923
 20
30.15
 30
0.0
  9
$LIMMIN
 10
0.0
 20
0.0
  9
$LIMMAX
 10
12.0
 20
9.0
  9
$ORTHOMODE
 70
     0
  9
$REGENMODE
 70
     1
  9
$FILLMODE
 70
     1
  9
$QTEXTMODE
 70
     0
  9
$MIRRTEXT
 70
     1
  9
$DRAGMODE
 70
     2
  9
$LTSCALE
 40
1.0
  9
$OSMODE
 70
    37
  9
$ATTMODE
 70
     1
  9
$TEXTSIZE
 40
0.2
  9
$TRACEWID
 40
0.05
  9
$TEXTSTYLE
  7
STANDARD
  9
$CLAYER
  8
ROUTES
  9
$CELTYPE
  6
BYLAYER
  9
$CECOLOR
 62
   256
  9
$DIMSCALE
 40
1.0
  9
$DIMASZ
 40
0.18
  9
$DIMEXO
 40
0.0625
  9
$DIMDLI
 40
0.38
  9
$DIMRND
 40
0.0
  9
$DIMDLE
 40
0.0
  9
$DIMEXE
 40
0.18
  9
$DIMTP
 40
0.0
  9
$DIMTM
 40
0.0
  9
$DIMTXT
 40
0.18
  9
$DIMCEN
 40
0.09
  9
$DIMTSZ
 40
0.0
  9
$DIMTOL
 70
     0
  9
$DIMLIM
 70
     0
  9
$DIMTIH
 70
     1
  9
$DIMTOH
 70
     1
  9
$DIMSE1
 70
     0
  9
$DIMSE2
 70
     0
  9
$DIMTAD
 70
     0
  9
$DIMZIN
 70
     0
  9
$DIMBLK
  1

  9
$DIMASO
 70
     1
  9
$DIMSHO
 70
     1
  9
$DIMPOST
  1

  9
$DIMAPOST
  1

  9
$DIMALT
 70
     0
  9
$DIMALTD
 70
     2
  9
$DIMALTF
 40
25.4
  9
$DIMLFAC
 40
1.0
  9
$DIMTOFL
 70
     0
  9
$DIMTVP
 40
0.0
  9
$DIMTIX
 70
     0
  9
$DIMSOXD
 70
     0
  9
$DIMSAH
 70
     0
  9
$DIMBLK1
  1

  9
$DIMBLK2
  1

  9
$DIMSTYLE
  2
STANDARD
  9
$DIMCLRD
 70
     0
  9
$DIMCLRE
 70
     0
  9
$DIMCLRT
 70
     0
  9
$DIMTFAC
 40
1.0
  9
$DIMGAP
 40
0.09
  9
$LUNITS
 70
     2
  9
$LUPREC
 70
     3
  9
$SKETCHINC
 40
0.1
  9
$FILLETRAD
 40
0.5
  9
$AUNITS
 70
     0
  9
$AUPREC
 70
     0
  9
$MENU
  1
.
  9
$ELEVATION
 40
0.0
  9
$PELEVATION
 40
0.0
  9
$THICKNESS
 40
0.0
  9
$LIMCHECK
 70
     0
  9
$CHAMFERA
 40
0.0
  9
$CHAMFERB
 40
0.0
  9
$SKPOLY
 70
     0
  9
$TDCREATE
 40
2458324.793604827
  9
$TDUPDATE
 40
2458324.79361934
  9
$TDINDWG
 40
0.0000000116
  9
$TDUSRTIMER
 40
0.0000000116
  9
$USRTIMER
 70
     1
  9
$ANGBASE
 50
0.0
  9
$ANGDIR
 70
     0
  9
$PDMODE
 70
     0
  9
$PDSIZE
 40
0.0
  9
$PLINEWID
 40
0.0
  9
$COORDS
 70
     1
  9
$SPLFRAME
 70
     0
  9
$SPLINETYPE
 70
     6
  9
$SPLINESEGS
 70
     8
  9
$ATTDIA
 70
     0
  9
$ATTREQ
 70
     1
  9
$HANDLING
 70
     1
  9
$HANDSEED
  5
164
  9
$SURFTAB1
 70
     6
  9
$SURFTAB2
 70
     6
  9
$SURFTYPE
 70
     6
  9
$SURFU
 70
     6
  9
$SURFV
 70
     6
  9
$UCSNAME
  2

  9
$UCSORG
 10
0.0
 20
0.0
 30
0.0
  9
$UCSXDIR
 10
1.0
 20
0.0
 30
0.0
  9
$UCSYDIR
 10
0.0
 20
1.0
 30
0.0
  9
$PUCSNAME
  2

  9
$PUCSORG
 10
0.0
 20
0.0
 30
0.0
  9
$PUCSXDIR
 10
1.0
 20
0.0
 30
0.0
  9
$PUCSYDIR
 10
0.0
 20
1.0
 30
0.0
  9
$USERI1
 70
     0
  9
$USERI2
 70
     0
  9
$USERI3
 70
     0
  9
$USERI4
 70
     0
  9
$USERI5
 70
     0
  9
$USERR1
 40
0.0
  9
$USERR2
 40
0.0
  9
$USERR3
 40
0.0
  9
$USERR4
 40
0.0
  9
$USERR5
 40
0.0
  9
$WORLDVIEW
 70
     1
  9
$SHADEDGE
 70
     3
  9
$SHADEDIF
 70
    70
  9
$TILEMODE
 70
     1
  9
$MAXACTVP
 70
    64
  9
$PLIMCHECK
 70
     0
  9
$PEXTMIN
 10
1.000000000000000E+20
 20
1.000000000000000E+20
 30
1.000000000000000E+20
  9
$PEXTMAX
 10
-1.000000000000000E+20
 20
-1.000000000000000E+20
 30
-1.000000000000000E+20
  9
$PLIMMIN
 10
0.0
 20
0.0
  9
$PLIMMAX
 10
12.0
 20
9.0
  9
$UNITMODE
 70
     0
  9
$VISRETAIN
 70
     1
  9
$PLINEGEN
 70
     0
  9
$PSLTSCALE
 70
     1
  0
ENDSEC
  0
SECTION
  2
TABLES
  0
TABLE
  2
VPORT
 70
     1
  0
VPORT
  2
*ACTIVE
 70
     0
 10
0.0
 20
0.0
 11
1.0
 21
1.0
 12
63.68128298858923
 22
15.075
 13
0.0
 23
0.0
 14
0.5
 24
0.5
 15
0.5
 25
0.5
 16
0.0
 26
0.0
 36
1.0
 17
0.0
 27
0.0
 37
0.0
 40
30.753
 41
1.22089552238806
 42
50.0
 43
0.0
 44
0.0
 50
0.0
 51
0.0
 71
     0
 72
   100
 73
     1
 74
     3
 75
     0
 76
     0
 77
     0
 78
     0
  0
ENDTAB
  0
TABLE
  2
LTYPE
 70
     1
  0
LTYPE
  2
CONTINUOUS
 70
     0
  3
Solid line
 72
    65
 73
     0
 40
0.0
  0
ENDTAB
  0
TABLE
  2
LAYER
 70
     4
  0
LAYER
  2
0
 70
     0
 62
     7
  6
CONTINUOUS
  0
LAYER
  2
CUTS
 70
     0
 62
    30
  6
CONTINUOUS
  0
LAYER
  2
DRILLS
 70
     0
 62
     4
  6
CONTINUOUS
  0
LAYER
  2
ROUTES
 70
     0
 62
     5
  6
CONTINUOUS
  0
ENDTAB
  0
TABLE
  2
STYLE
 70
     1
  0
STYLE
  2
STANDARD
 70
     0
 40
0.0
 41
1.0
 50
0.0
 71
     0
 42
0.2
  3
txt
  4

  0
ENDTAB
  0
TABLE
  2
VIEW
 70
     0
  0
ENDTAB
  0
TABLE
  2
UCS
 70
     0
  0
ENDTAB
  0
TABLE
  2
APPID
 70
     1
  0
APPID
  2
ACAD
 70
     0
  0
ENDTAB
  0
TABLE
  2
DIMSTYLE
 70
     1
  0
DIMSTYLE
  2
STANDARD
 70
     0
  3

  4

  5

  6

  7

 40
1.0
 41
0.18
 42
0.0625
 43
0.38
 44
0.18
 45
0.0
 46
0.0
 47
0.0
 48
0.0
140
0.18
141
0.09
142
0.0
143
25.4
144
1.0
145
0.0
146
1.0
147
0.09
 71
     0
 72
     0
 73
     1
 74
     1
 75
     0
 76
     0
 77
     0
 78
     0
170
     0
171
     2
172
     0
173
     0
174
     0
175
     0
176
     0
177
     0
178
     0
  0
ENDTAB
  0
ENDSEC
  0
SECTION
  2
BLOCKS
  0
BLOCK
  8
0
  2
$MODEL_SPACE
 70
     0
 10
0.0
 20
0.0
 30
0.0
  3
$MODEL_SPACE
  1

  0
ENDBLK
  5
21
  8
0
  0
BLOCK
 67
     1
  8
0
  2
$PAPER_SPACE
 70
     0
 10
0.0
 20
0.0
 30
0.0
  3
$PAPER_SPACE
  1

  0
ENDBLK
  5
1D
 67
     1
  8
0
  0
ENDSEC
  0
SECTION
  2
ENTITIES
  0
POLYLINE
  5
6B
  8
CUTS
 66
     1
 10
0.0
 20
0.0
 30
0.0
  0
VERTEX
  5
6C
  8
CUTS
 10
82.08628298858923
 20
0.0
 30
0.0
  0
VERTEX
  5
6D
  8
CUTS
 10
45.27628298858923
 20
0.0
 30
0.0
  0
VERTEX
  5
6E
  8
CUTS
 10
45.27628298858923
 20
30.15
 30
0.0
  0
VERTEX
  5
6F
  8
CUTS
 10
82.08628298858923
 20
30.15
 30
0.0
  0
VERTEX
  5
70
  8
CUTS
 10
82.08628298858923
 20
0.0
 30
0.0
  0
SEQEND
  5
71
  8
CUTS
  0
CIRCLE
  5
72
  8
CUTS
 10
-78.27628298858923
 20
3.81
 30
0.0
 40
1.016
210
0.0
220
0.0
230
-1.0
  0
CIRCLE
  5
73
  8
CUTS
 10
-78.27628298858923
 20
26.67
 30
0.0
 40
1.016
210
0.0
220
0.0
230
-1.0
  0
CIRCLE
  5
74
  8
CUTS
 10
-49.06628298858923
 20
26.67
 30
0.0
 40
1.016
210
0.0
220
0.0
230
-1.0
  0
CIRCLE
  5
75
  8
CUTS
 10
-49.06628298858923
 20
3.81
 30
0.0
 40
1.016
210
0.0
220
0.0
230
-1.0
  0
CIRCLE
  5
77
  8
DRILLS
 10
-70.02128298858923
 20
8.89
 30
0.0
 40
0.5
210
0.0
220
0.0
230
-1.0
  0
CIRCLE
  5
78
  8
DRILLS
 10
-72.56128298858923
 20
8.89
 30
0.0
 40
0.5
210
0.0
220
0.0
230
-1.0
  0
CIRCLE
  5
79
  8
DRILLS
 10
-70.02128298858923
 20
11.43
 30
0.0
 40
0.5
210
0.0
220
0.0
230
-1.0
  0
CIRCLE
  5
7A
  8
DRILLS
 10
-72.56128298858923
 20
11.43
 30
0.0
 40
0.5
210
0.0
220
0.0
230
-1.0
  0
CIRCLE
  5
7B
  8
DRILLS
 10
-70.02128298858923
 20
13.97
 30
0.0
 40
0.5
210
0.0
220
0.0
230
-1.0
  0
CIRCLE
  5
7C
  8
DRILLS
 10
-72.56128298858923
 20
13.97
 30
0.0
 40
0.5
210
0.0
220
0.0
230
-1.0
  0
CIRCLE
  5
7D
  8
DRILLS
 10
-70.02128298858923
 20
16.51
 30
0.0
 40
0.5
210
0.0
220
0.0
230
-1.0
  0
CIRCLE
  5
7E
  8
DRILLS
 10
-72.56128298858923
 20
16.51
 30
0.0
 40
0.5
210
0.0
220
0.0
230
-1.0
  0
CIRCLE
  5
7F
  8
DRILLS
 10
-70.02128298858923
 20
19.05
 30
0.0
 40
0.5
210
0.0
220
0.0
230
-1.0
  0
CIRCLE
  5
80
  8
DRILLS
 10
-72.56128298858923
 20
19.05
 30
0.0
 40
0.5
210
0.0
220
0.0
230
-1.0
  0
CIRCLE
  5
81
  8
DRILLS
 10
-70.02128298858923
 20
21.59
 30
0.0
 40
0.5
210
0.0
220
0.0
230
-1.0
  0
CIRCLE
  5
82
  8
DRILLS
 10
-72.56128298858923
 20
21.59
 30
0.0
 40
0.5
210
0.0
220
0.0
230
-1.0
  0
CIRCLE
  5
83
  8
DRILLS
 10
-70.02128298858923
 20
24.13
 30
0.0
 40
0.5
210
0.0
220
0.0
230
-1.0
  0
CIRCLE
  5
84
  8
DRILLS
 10
-72.56128298858923
 20
24.13
 30
0.0
 40
0.5
210
0.0
220
0.0
230
-1.0
  0
CIRCLE
  5
85
  8
DRILLS
 10
-59.86128298858923
 20
24.13
 30
0.0
 40
0.5
210
0.0
220
0.0
230
-1.0
  0
CIRCLE
  5
86
  8
DRILLS
 10
-57.32128298858923
 20
24.13
 30
0.0
 40
0.5
210
0.0
220
0.0
230
-1.0
  0
CIRCLE
  5
87
  8
DRILLS
 10
-59.86128298858923
 20
21.59
 30
0.0
 40
0.5
210
0.0
220
0.0
230
-1.0
  0
CIRCLE
  5
88
  8
DRILLS
 10
-57.32128298858923
 20
21.59
 30
0.0
 40
0.5
210
0.0
220
0.0
230
-1.0
  0
CIRCLE
  5
89
  8
DRILLS
 10
-59.86128298858923
 20
19.05
 30
0.0
 40
0.5
210
0.0
220
0.0
230
-1.0
  0
CIRCLE
  5
8A
  8
DRILLS
 10
-57.32128298858923
 20
19.05
 30
0.0
 40
0.5
210
0.0
220
0.0
230
-1.0
  0
CIRCLE
  5
8B
  8
DRILLS
 10
-59.86128298858923
 20
16.51
 30
0.0
 40
0.5
210
0.0
220
0.0
230
-1.0
  0
CIRCLE
  5
8C
  8
DRILLS
 10
-57.32128298858923
 20
16.51
 30
0.0
 40
0.5
210
0.0
220
0.0
230
-1.0
  0
CIRCLE
  5
8D
  8
DRILLS
 10
-59.86128298858923
 20
13.97
 30
0.0
 40
0.5
210
0.0
220
0.0
230
-1.0
  0
CIRCLE
  5
8E
  8
DRILLS
 10
-57.32128298858923
 20
13.97
 30
0.0
 40
0.5
210
0.0
220
0.0
230
-1.0
  0
CIRCLE
  5
8F
  8
DRILLS
 10
-59.86128298858923
 20
11.43
 30
0.0
 40
0.5
210
0.0
220
0.0
230
-1.0
  0
CIRCLE
  5
90
  8
DRILLS
 10
-57.32128298858923
 20
11.43
 30
0.0
 40
0.5
210
0.0
220
0.0
230
-1.0
  0
CIRCLE
  5
91
  8
DRILLS
 10
-59.86128298858923
 20
8.89
 30
0.0
 40
0.5
210
0.0
220
0.0
230
-1.0
  0
CIRCLE
  5
92
  8
DRILLS
 10
-57.32128298858923
 20
8.89
 30
0.0
 40
0.5
210
0.0
220
0.0
230
-1.0
  0
CIRCLE
  5
93
  8
DRILLS
 10
-52.87628298858923
 20
13.97
 30
0.0
 40
0.175
210
0.0
220
0.0
230
-1.0
  0
CIRCLE
  5
94
  8
DRILLS
 10
-52.87628298858923
 20
3.81
 30
0.0
 40
0.175
210
0.0
220
0.0
230
-1.0
  0
POLYLINE
  5
96
  8
ROUTES
 66
     1
 10
0.0
 20
0.0
 30
0.0
  0
VERTEX
  5
97
  8
ROUTES
 10
58.71128298858923
 20
13.97
 30
0.0
 42
-0.7432324686653401
  0
VERTEX
  5
98
  8
ROUTES
 10
60.82007128639017
 20
14.605
 30
0.0
  0
VERTEX
  5
99
  8
ROUTES
 10
63.40828298858924
 20
14.605
 30
0.0
  0
VERTEX
  5
9A
  8
ROUTES
 10
65.73934448688271
 20
16.93547284480717
 30
0.0
 42
-0.2119716997831632
  0
VERTEX
  5
9B
  8
ROUTES
 10
66.21128298858923
 20
17.145
 30
0.0
  0
VERTEX
  5
9C
  8
ROUTES
 10
69.0624946907883
 20
17.145
 30
0.0
 42
-3.320926453229837
  0
VERTEX
  5
9D
  8
ROUTES
 10
69.06249469078831
 20
15.87499999999999
 30
0.0
  0
VERTEX
  5
9E
  8
ROUTES
 10
66.47428298858924
 20
15.87499999999999
 30
0.0
  0
VERTEX
  5
9F
  8
ROUTES
 10
64.12367415708113
 20
13.5243911684919
 30
0.0
 42
-0.2008759561905546
  0
VERTEX
  5
A0
  8
ROUTES
 10
63.67128298858923
 20
13.33499999999999
 30
0.0
  0
VERTEX
  5
A1
  8
ROUTES
 10
60.82007128639015
 20
13.335
 30
0.0
 42
-0.7432324686653418
  0
VERTEX
  5
A2
  8
ROUTES
 10
58.71128298858923
 20
13.97
 30
0.0
  0
SEQEND
  5
A3
  8
ROUTES
  0
POLYLINE
  5
A4
  8
ROUTES
 66
     1
 10
0.0
 20
0.0
 30
0.0
  0
VERTEX
  5
A5
  8
ROUTES
 10
58.71128298858923
 20
16.51
 30
0.0
 42
-0.7432324686653314
  0
VERTEX
  5
A6
  8
ROUTES
 10
60.82007128639015
 20
17.14499999999999
 30
0.0
  0
VERTEX
  5
A7
  8
ROUTES
 10
63.40828298858924
 20
17.14499999999999
 30
0.0
  0
VERTEX
  5
A8
  8
ROUTES
 10
65.7622829885892
 20
19.499
 30
0.0
 42
-0.2119530191496592
  0
VERTEX
  5
A9
  8
ROUTES
 10
66.24413823073765
 20
19.68456566076323
 30
0.0
  0
VERTEX
  5
AA
  8
ROUTES
 10
69.0624946907883
 20
19.68499999999999
 30
0.0
 42
-3.320926453229755
  0
VERTEX
  5
AB
  8
ROUTES
 10
69.06249469078833
 20
18.415
 30
0.0
  0
VERTEX
  5
AC
  8
ROUTES
 10
66.47428298858924
 20
18.415
 30
0.0
  0
VERTEX
  5
AD
  8
ROUTES
 10
64.12367415708167
 20
16.06439116849243
 30
0.0
 42
-0.2008759561908342
  0
VERTEX
  5
AE
  8
ROUTES
 10
63.67128298858923
 20
15.875
 30
0.0
  0
VERTEX
  5
AF
  8
ROUTES
 10
60.82007128639016
 20
15.875
 30
0.0
 42
-0.743232468665333
  0
VERTEX
  5
B0
  8
ROUTES
 10
58.71128298858924
 20
16.51
 30
0.0
  0
SEQEND
  5
B1
  8
ROUTES
  0
POLYLINE
  5
B2
  8
ROUTES
 66
     1
 10
0.0
 20
0.0
 30
0.0
  0
VERTEX
  5
B3
  8
ROUTES
 10
58.71128298858923
 20
24.13
 30
0.0
 42
-0.7432324686653371
  0
VERTEX
  5
B4
  8
ROUTES
 10
60.82007128639016
 20
24.765
 30
0.0
  0
VERTEX
  5
B5
  8
ROUTES
 10
63.40828298858923
 20
24.765
 30
0.0
  0
VERTEX
  5
B6
  8
ROUTES
 10
65.76228298858922
 20
27.119
 30
0.0
 42
-0.2119530198203787
  0
VERTEX
  5
B7
  8
ROUTES
 10
66.24413823260149
 20
27.30456566076324
 30
0.0
  0
VERTEX
  5
B8
  8
ROUTES
 10
71.29128298858923
 20
27.30499999999999
 30
0.0
 42
-0.2008759562273684
  0
VERTEX
  5
B9
  8
ROUTES
 10
71.74367415705498
 20
27.11560883148137
 30
0.0
  0
VERTEX
  5
BA
  8
ROUTES
 10
73.01028298858922
 20
25.84899999999999
 30
0.0
 42
-0.2119530198197449
  0
VERTEX
  5
BB
  8
ROUTES
 10
73.19584864935246
 20
25.36714475598772
 30
0.0
  0
VERTEX
  5
BC
  8
ROUTES
 10
73.19628298858922
 20
25.08878829780091
 30
0.0
 42
-3.320926453229739
  0
VERTEX
  5
BD
  8
ROUTES
 10
71.92628298858924
 20
25.08878829780093
 30
0.0
  0
VERTEX
  5
BE
  8
ROUTES
 10
71.92628298858922
 20
25.13699999999999
 30
0.0
  0
VERTEX
  5
BF
  8
ROUTES
 10
71.02828298858923
 20
26.035
 30
0.0
  0
VERTEX
  5
C0
  8
ROUTES
 10
66.47428298858922
 20
26.035
 30
0.0
  0
VERTEX
  5
C1
  8
ROUTES
 10
64.12367415708053
 20
23.6843911684913
 30
0.0
 42
-0.2008759561901619
  0
VERTEX
  5
C2
  8
ROUTES
 10
63.67128298858923
 20
23.495
 30
0.0
  0
VERTEX
  5
C3
  8
ROUTES
 10
60.82007128639014
 20
23.495
 30
0.0
 42
-0.7432324686653351
  0
VERTEX
  5
C4
  8
ROUTES
 10
58.71128298858921
 20
24.13
 30
0.0
  0
SEQEND
  5
C5
  8
ROUTES
  0
POLYLINE
  5
C6
  8
ROUTES
 66
     1
 10
0.0
 20
0.0
 30
0.0
  0
VERTEX
  5
C7
  8
ROUTES
 10
58.71128298858923
 20
21.59
 30
0.0
 42
-0.7432324686653405
  0
VERTEX
  5
C8
  8
ROUTES
 10
60.82007128639014
 20
22.225
 30
0.0
  0
VERTEX
  5
C9
  8
ROUTES
 10
63.40828298858924
 20
22.22499999999999
 30
0.0
  0
VERTEX
  5
CA
  8
ROUTES
 10
65.76228298858922
 20
24.57900000000001
 30
0.0
 42
-0.2119530198188207
  0
VERTEX
  5
CB
  8
ROUTES
 10
66.24413823260149
 20
24.76456566076322
 30
0.0
  0
VERTEX
  5
CC
  8
ROUTES
 10
69.0624946907883
 20
24.76499999999999
 30
0.0
 42
-3.320926453229843
  0
VERTEX
  5
CD
  8
ROUTES
 10
69.0624946907883
 20
23.49499999999999
 30
0.0
  0
VERTEX
  5
CE
  8
ROUTES
 10
66.47428298858922
 20
23.495
 30
0.0
  0
VERTEX
  5
CF
  8
ROUTES
 10
64.12367415708165
 20
21.14439116849242
 30
0.0
 42
-0.2008759561908443
  0
VERTEX
  5
D0
  8
ROUTES
 10
63.67128298858923
 20
20.955
 30
0.0
  0
VERTEX
  5
D1
  8
ROUTES
 10
60.82007128639016
 20
20.95499999999999
 30
0.0
 42
-0.7432324686653435
  0
VERTEX
  5
D2
  8
ROUTES
 10
58.71128298858923
 20
21.59
 30
0.0
  0
SEQEND
  5
D3
  8
ROUTES
  0
POLYLINE
  5
D4
  8
ROUTES
 66
     1
 10
0.0
 20
0.0
 30
0.0
  0
VERTEX
  5
D5
  8
ROUTES
 10
58.71128298858923
 20
19.05
 30
0.0
 42
-0.7432324686653355
  0
VERTEX
  5
D6
  8
ROUTES
 10
60.82007128639016
 20
19.68499999999999
 30
0.0
  0
VERTEX
  5
D7
  8
ROUTES
 10
63.40828298858924
 20
19.68499999999999
 30
0.0
  0
VERTEX
  5
D8
  8
ROUTES
 10
65.76228298858922
 20
22.03900000000001
 30
0.0
 42
-0.2119530198188693
  0
VERTEX
  5
D9
  8
ROUTES
 10
66.24413823260149
 20
22.22456566076322
 30
0.0
  0
VERTEX
  5
DA
  8
ROUTES
 10
69.0624946907883
 20
22.22499999999999
 30
0.0
 42
-3.320926453229701
  0
VERTEX
  5
DB
  8
ROUTES
 10
69.06249469078827
 20
20.95499999999999
 30
0.0
  0
VERTEX
  5
DC
  8
ROUTES
 10
66.47428298858922
 20
20.95499999999999
 30
0.0
  0
VERTEX
  5
DD
  8
ROUTES
 10
64.12367415708135
 20
18.60439116849214
 30
0.0
 42
-0.2008759561906845
  0
VERTEX
  5
DE
  8
ROUTES
 10
63.67128298858923
 20
18.415
 30
0.0
  0
VERTEX
  5
DF
  8
ROUTES
 10
60.82007128639015
 20
18.415
 30
0.0
 42
-0.7432324686653371
  0
VERTEX
  5
E0
  8
ROUTES
 10
58.71128298858923
 20
19.05
 30
0.0
  0
SEQEND
  5
E1
  8
ROUTES
  0
POLYLINE
  5
E2
  8
ROUTES
 66
     1
 10
0.0
 20
0.0
 30
0.0
  0
VERTEX
  5
E3
  8
ROUTES
 10
51.72628298858923
 20
13.97
 30
0.0
 42
-0.7432324686653277
  0
VERTEX
  5
E4
  8
ROUTES
 10
53.83507128639017
 20
14.605
 30
0.0
  0
VERTEX
  5
E5
  8
ROUTES
 10
56.3624946907883
 20
14.605
 30
0.0
  0
VERTEX
  5
E6
  8
ROUTES
 10
56.68628298858923
 20
14.92878829780093
 30
0.0
  0
VERTEX
  5
E7
  8
ROUTES
 10
56.68628298858923
 20
15.55121170219905
 30
0.0
 42
-3.320926453229386
  0
VERTEX
  5
E8
  8
ROUTES
 10
57.95628298858923
 20
15.55121170219908
 30
0.0
  0
VERTEX
  5
E9
  8
ROUTES
 10
57.95628298858924
 20
14.92878829780093
 30
0.0
 42
-0.5371363012890223
  0
VERTEX
  5
EA
  8
ROUTES
 10
57.95628298858924
 20
13.01121170219908
 30
0.0
  0
VERTEX
  5
EB
  8
ROUTES
 10
57.95628298858924
 20
12.38878829780092
 30
0.0
 42
-3.320926453229899
  0
VERTEX
  5
EC
  8
ROUTES
 10
56.68628298858923
 20
12.38878829780093
 30
0.0
  0
VERTEX
  5
ED
  8
ROUTES
 10
56.68628298858923
 20
13.01121170219906
 30
0.0
  0
VERTEX
  5
EE
  8
ROUTES
 10
56.3624946907883
 20
13.335
 30
0.0
  0
VERTEX
  5
EF
  8
ROUTES
 10
53.83507128639017
 20
13.335
 30
0.0
 42
-0.7432324686653393
  0
VERTEX
  5
F0
  8
ROUTES
 10
51.72628298858924
 20
13.97
 30
0.0
  0
SEQEND
  5
F1
  8
ROUTES
  0
POLYLINE
  5
F2
  8
ROUTES
 66
     1
 10
0.0
 20
0.0
 30
0.0
  0
VERTEX
  5
F3
  8
ROUTES
 10
58.71128298858923
 20
11.43
 30
0.0
 42
-0.7432324686653313
  0
VERTEX
  5
F4
  8
ROUTES
 10
60.82007128639017
 20
12.06499999999999
 30
0.0
  0
VERTEX
  5
F5
  8
ROUTES
 10
63.40828298858924
 20
12.065
 30
0.0
  0
VERTEX
  5
F6
  8
ROUTES
 10
65.76228298858922
 20
14.419
 30
0.0
 42
-0.2119530198188342
  0
VERTEX
  5
F7
  8
ROUTES
 10
66.2441382326015
 20
14.60456566076324
 30
0.0
  0
VERTEX
  5
F8
  8
ROUTES
 10
69.0624946907883
 20
14.605
 30
0.0
 42
-3.320926453229744
  0
VERTEX
  5
F9
  8
ROUTES
 10
69.06249469078827
 20
13.33499999999999
 30
0.0
  0
VERTEX
  5
FA
  8
ROUTES
 10
66.47428298858924
 20
13.335
 30
0.0
  0
VERTEX
  5
FB
  8
ROUTES
 10
64.12367415708079
 20
10.98439116849156
 30
0.0
 42
-0.20087595619036
  0
VERTEX
  5
FC
  8
ROUTES
 10
63.67128298858923
 20
10.795
 30
0.0
  0
VERTEX
  5
FD
  8
ROUTES
 10
60.82007128639016
 20
10.79499999999999
 30
0.0
 42
-0.7432324686653491
  0
VERTEX
  5
FE
  8
ROUTES
 10
58.71128298858923
 20
11.43
 30
0.0
  0
SEQEND
  5
FF
  8
ROUTES
  0
POLYLINE
  5
100
  8
ROUTES
 66
     1
 10
0.0
 20
0.0
 30
0.0
  0
VERTEX
  5
101
  8
ROUTES
 10
51.72628298858923
 20
3.81
 30
0.0
 42
-1.105604242541023
  0
VERTEX
  5
102
  8
ROUTES
 10
54.00325717688845
 20
3.581025811700773
 30
0.0
  0
VERTEX
  5
103
  8
ROUTES
 10
55.04428298858923
 20
2.539999999999999
 30
0.0
  0
VERTEX
  5
104
  8
ROUTES
 10
71.66328298858924
 20
2.539999999999995
 30
0.0
  0
VERTEX
  5
105
  8
ROUTES
 10
74.46628298858923
 20
5.342999999999991
 30
0.0
  0
VERTEX
  5
106
  8
ROUTES
 10
74.46628298858923
 20
10.532
 30
0.0
  0
VERTEX
  5
107
  8
ROUTES
 10
74.20328298858922
 20
10.79499999999999
 30
0.0
  0
VERTEX
  5
108
  8
ROUTES
 10
73.52007128639016
 20
10.79499999999999
 30
0.0
 42
-3.32092645322984
  0
VERTEX
  5
109
  8
ROUTES
 10
73.52007128639016
 20
12.06499999999999
 30
0.0
  0
VERTEX
  5
10A
  8
ROUTES
 10
74.46628298858923
 20
12.06499999999999
 30
0.0
 42
-0.2008759562275016
  0
VERTEX
  5
10B
  8
ROUTES
 10
74.91867415705516
 20
11.87560883148117
 30
0.0
  0
VERTEX
  5
10C
  8
ROUTES
 10
75.54689182009687
 20
11.24739116849235
 30
0.0
 42
-0.2008759561908041
  0
VERTEX
  5
10D
  8
ROUTES
 10
75.73628298858922
 20
10.79499999999999
 30
0.0
  0
VERTEX
  5
10E
  8
ROUTES
 10
75.73628298858922
 20
5.079999999999995
 30
0.0
 42
-0.200875956227312
  0
VERTEX
  5
10F
  8
ROUTES
 10
75.54689182007068
 20
4.627608831534331
 30
0.0
  0
VERTEX
  5
110
  8
ROUTES
 10
72.37528298858923
 20
1.455999999999998
 30
0.0
 42
-0.1989026328093005
  0
VERTEX
  5
111
  8
ROUTES
 10
71.92628309564225
 20
1.270009055247252
 30
0.0
  0
VERTEX
  5
112
  8
ROUTES
 10
54.78128503243251
 20
1.270009055247239
 30
0.0
 42
-0.1989027183093133
  0
VERTEX
  5
113
  8
ROUTES
 10
54.33228298858924
 20
1.455999999999999
 30
0.0
  0
VERTEX
  5
114
  8
ROUTES
 10
53.10525717688846
 20
2.683025811700776
 30
0.0
 42
-0.4742190787913458
  0
VERTEX
  5
115
  8
ROUTES
 10
51.72628298858924
 20
3.81
 30
0.0
  0
SEQEND
  5
116
  8
ROUTES
  0
POLYLINE
  5
117
  8
ROUTES
 66
     1
 10
0.0
 20
0.0
 30
0.0
  0
VERTEX
  5
118
  8
ROUTES
 10
58.71128298858923
 20
8.889999999999999
 30
0.0
 42
-0.7432324686653305
  0
VERTEX
  5
119
  8
ROUTES
 10
60.82007128639017
 20
9.524999999999999
 30
0.0
  0
VERTEX
  5
11A
  8
ROUTES
 10
63.40828298858922
 20
9.524999999999997
 30
0.0
  0
VERTEX
  5
11B
  8
ROUTES
 10
65.76228298858922
 20
11.87899999999999
 30
0.0
 42
-0.2119530198199609
  0
VERTEX
  5
11C
  8
ROUTES
 10
66.2441382326015
 20
12.06456566076324
 30
0.0
  0
VERTEX
  5
11D
  8
ROUTES
 10
69.0624946907883
 20
12.065
 30
0.0
 42
-3.320926453229808
  0
VERTEX
  5
11E
  8
ROUTES
 10
69.0624946907883
 20
10.79499999999999
 30
0.0
  0
VERTEX
  5
11F
  8
ROUTES
 10
66.47428298858924
 20
10.795
 30
0.0
  0
VERTEX
  5
120
  8
ROUTES
 10
64.12367415708155
 20
8.44439116849232
 30
0.0
 42
-0.2008759561908015
  0
VERTEX
  5
121
  8
ROUTES
 10
63.67128298858923
 20
8.254999999999994
 30
0.0
  0
VERTEX
  5
122
  8
ROUTES
 10
60.82007128639015
 20
8.254999999999995
 30
0.0
 42
-0.7432324686653314
  0
VERTEX
  5
123
  8
ROUTES
 10
58.71128298858923
 20
8.889999999999999
 30
0.0
  0
SEQEND
  5
124
  8
ROUTES
  0
POLYLINE
  5
125
  8
ROUTES
 66
     1
 10
0.0
 20
0.0
 30
0.0
  0
VERTEX
  5
126
  8
ROUTES
 10
56.17128298858923
 20
8.889999999999999
 30
0.0
 42
-1.672264226310036
  0
VERTEX
  5
127
  8
ROUTES
 10
57.95628298858922
 20
7.931211702199071
 30
0.0
  0
VERTEX
  5
128
  8
ROUTES
 10
57.95628298858924
 20
7.247999999999997
 30
0.0
  0
VERTEX
  5
129
  8
ROUTES
 10
58.21928298858923
 20
6.985000000000002
 30
0.0
  0
VERTEX
  5
12A
  8
ROUTES
 10
63.40828298858923
 20
6.984999999999997
 30
0.0
  0
VERTEX
  5
12B
  8
ROUTES
 10
65.76228298858922
 20
9.339
 30
0.0
 42
-0.2119530198191512
  0
VERTEX
  5
12C
  8
ROUTES
 10
66.24413823260149
 20
9.524565660763226
 30
0.0
  0
VERTEX
  5
12D
  8
ROUTES
 10
69.0624946907883
 20
9.524999999999999
 30
0.0
 42
-3.320926453229771
  0
VERTEX
  5
12E
  8
ROUTES
 10
69.0624946907883
 20
8.254999999999988
 30
0.0
  0
VERTEX
  5
12F
  8
ROUTES
 10
66.47428298858924
 20
8.254999999999997
 30
0.0
  0
VERTEX
  5
130
  8
ROUTES
 10
64.12028298858922
 20
5.900999999999998
 30
0.0
 42
-0.1989026346152283
  0
VERTEX
  5
131
  8
ROUTES
 10
63.67128298858924
 20
5.715009055247234
 30
0.0
  0
VERTEX
  5
132
  8
ROUTES
 10
57.94205950429502
 20
5.715159317234209
 30
0.0
  0
VERTEX
  5
133
  8
ROUTES
 10
57.92771430756823
 20
5.715642978706216
 30
0.0
  0
VERTEX
  5
134
  8
ROUTES
 10
57.91325697302803
 20
5.716459344647144
 30
0.0
  0
VERTEX
  5
135
  8
ROUTES
 10
57.89869762160521
 20
5.717616472772007
 30
0.0
  0
VERTEX
  5
136
  8
ROUTES
 10
57.88404691402675
 20
5.719122080326307
 30
0.0
  0
VERTEX
  5
137
  8
ROUTES
 10
57.86931604147301
 20
5.720983505693781
 30
0.0
  0
VERTEX
  5
138
  8
ROUTES
 10
57.85451671329597
 20
5.723207669787723
 30
0.0
  0
VERTEX
  5
139
  8
ROUTES
 10
57.83966114170445
 20
5.725801037465468
 30
0.0
  0
VERTEX
  5
13A
  8
ROUTES
 10
57.82476202334257
 20
5.728769579221535
 30
0.0
  0
VERTEX
  5
13B
  8
ROUTES
 10
57.80983251771043
 20
5.732118733429005
 30
0.0
  0
VERTEX
  5
13C
  8
ROUTES
 10
57.79488622240108
 20
5.735853369410846
 30
0.0
  0
VERTEX
  5
13D
  8
ROUTES
 10
57.77993714515468
 20
5.739977751632487
 30
0.0
  0
VERTEX
  5
13E
  8
ROUTES
 10
57.76499967275912
 20
5.744495505313929
 30
0.0
  0
VERTEX
  5
13F
  8
ROUTES
 10
57.75008853685752
 20
5.749409583763563
 30
0.0
  0
VERTEX
  5
140
  8
ROUTES
 10
57.73521877675353
 20
5.754722237736483
 30
0.0
  0
VERTEX
  5
141
  8
ROUTES
 10
57.72040569933818
 20
5.760434987117129
 30
0.0
  0
VERTEX
  5
142
  8
ROUTES
 10
57.70566483629442
 20
5.7665485952195
 30
0.0
  0
VERTEX
  5
143
  8
ROUTES
 10
57.69101189876807
 20
5.773063045987604
 30
0.0
  0
VERTEX
  5
144
  8
ROUTES
 10
57.67646272972586
 20
5.779977524364482
 30
0.0
  0
VERTEX
  5
145
  8
ROUTES
 10
57.66203325425194
 20
5.787290400079728
 30
0.0
  0
VERTEX
  5
146
  8
ROUTES
 10
57.64773942806362
 20
5.79499921508328
 30
0.0
  0
VERTEX
  5
147
  8
ROUTES
 10
57.63359718455423
 20
5.803100674827363
 30
0.0
  0
VERTEX
  5
148
  8
ROUTES
 10
57.61962238069517
 20
5.811590643569036
 30
0.0
  0
VERTEX
  5
149
  8
ROUTES
 10
57.60583074215072
 20
5.820464143833292
 30
0.0
  0
VERTEX
  5
14A
  8
ROUTES
 10
57.59223780797698
 20
5.829715360141201
 30
0.0
  0
VERTEX
  5
14B
  8
ROUTES
 10
57.5788588752898
 20
5.839337647069869
 30
0.0
  0
VERTEX
  5
14C
  8
ROUTES
 10
57.56570894429617
 20
5.84932354167131
 30
0.0
  0
VERTEX
  5
14D
  8
ROUTES
 10
57.55280266408837
 20
5.859664780236334
 30
0.0
  0
VERTEX
  5
14E
  8
ROUTES
 10
57.54015427960002
 20
5.870352319347885
 30
0.0
  0
VERTEX
  5
14F
  8
ROUTES
 10
57.52777758011833
 20
5.881376361126356
 30
0.0
  0
VERTEX
  5
150
  8
ROUTES
 10
57.51568584973761
 20
5.892726382528189
 30
0.0
  0
VERTEX
  5
151
  8
ROUTES
 10
57.50389182012324
 20
5.904391168518869
 30
0.0
  0
VERTEX
  5
152
  8
ROUTES
 10
56.87567415708165
 20
6.532608831507584
 30
0.0
 42
-0.2008759561907829
  0
VERTEX
  5
153
  8
ROUTES
 10
56.68628298858924
 20
6.984999999999999
 30
0.0
  0
VERTEX
  5
154
  8
ROUTES
 10
56.68628298858923
 20
7.931211702199066
 30
0.0
 42
-0.2515710159539001
  0
VERTEX
  5
155
  8
ROUTES
 10
56.17128298858923
 20
8.889999999999999
 30
0.0
  0
SEQEND
  5
156
  8
ROUTES
  0
CIRCLE
  5
157
  8
ROUTES
 10
-72.56128298858923
 20
13.96999999999999
 30
0.0
 40
1.150000000000006
210
0.0
220
0.0
230
-1.0
  0
CIRCLE
  5
158
  8
ROUTES
 10
-72.56128298858923
 20
16.50999999999999
 30
0.0
 40
1.150000000000006
210
0.0
220
0.0
230
-1.0
  0
CIRCLE
  5
159
  8
ROUTES
 10
-72.56128298858923
 20
19.04999999999999
 30
0.0
 40
1.150000000000006
210
0.0
220
0.0
230
-1.0
  0
CIRCLE
  5
15A
  8
ROUTES
 10
-72.56128298858923
 20
21.59
 30
0.0
 40
1.150000000000006
210
0.0
220
0.0
230
-1.0
  0
ENDSEC
  0
EOF
