  0
SECTION
  2
HEADER
  9
$ACADVER
  1
AC1009
  9
$FILLMODE
 70
1
  9
$EXTMIN
 10
-4.4450
 20
-14.9050
 30
0.0000
  9
$EXTMAX
 10
50.5500
 20
72.0598
 30
0.0000
  0
ENDSEC
  0
SECTION
  2
TABLES
  0
TABLE
  2
LTYPE
 70
1
  0
LTYPE
  2
CONTINUOUS
 70
64
  3
Solid line
 72
65
 73
0
 40
0
  0
ENDTAB
  0
TABLE
  2
LAYER
 70
255
  0
LAYER
  2
16
 70
64
 62
175
  6
CONTINUOUS
  0
LAYER
  2
17
 70
64
 62
82
  6
CONTINUOUS
  0
LAYER
  2
20
 70
64
 62
30
  6
CONTINUOUS
  0
LAYER
  2
44
 70
64
 62
253
  6
CONTINUOUS
  0
ENDTAB
  0
ENDSEC
  0
SECTION
  2
BLOCKS
  0
BLOCK
  8
0
  2
RECT
 70
64
 10
0.0000
 20
0.0000
 30
0.0000
  3
RECT
  0
SOLID
  8
0
 10
-0.5000
 20
-0.5000
 30
0.0000
 11
0.5000
 21
-0.5000
 31
0.0000
 12
-0.5000
 22
0.5000
 32
0.0000
 13
0.5000
 23
0.5000
 33
0.0000
  0
ENDBLK
  8
0
  0
BLOCK
  8
0
  2
PIE
 70
64
 10
0.0000
 20
0.0000
 30
0.0000
  3
PIE
  0
POLYLINE
  8
0
 66
1
 10
0.0000
 20
0.0000
 30
0.0000
 40
0.5000
 41
0.5000
 70
0
  0
VERTEX
  8
0
 10
0.0000
 20
-0.2500
 30
0.0000
 42
1.0000
  0
VERTEX
  8
0
 10
0.0000
 20
0.2500
 30
0.0000
 42
1.0000
  0
VERTEX
  8
0
 10
0.0000
 20
-0.2500
 30
0.0000
  0
SEQEND
  8
0
  0
ENDBLK
  8
0
  0
BLOCK
  8
0
  2
OCTAGONP
 70
64
 10
0.0000
 20
0.0000
 30
0.0000
  3
OCTAGONP
  0
POLYLINE
  8
0
 66
1
 10
0.0000
 20
0.0000
 30
0.0000
 40
0.5000
 41
0.5000
 70
0
  0
VERTEX
  8
0
 10
-0.2500
 20
-0.1036
 30
0.0000
  0
VERTEX
  8
0
 10
-0.2500
 20
0.1036
 30
0.0000
  0
VERTEX
  8
0
 10
-0.1036
 20
0.2500
 30
0.0000
  0
VERTEX
  8
0
 10
0.1036
 20
0.2500
 30
0.0000
  0
VERTEX
  8
0
 10
0.2500
 20
0.1036
 30
0.0000
  0
VERTEX
  8
0
 10
0.2500
 20
-0.1036
 30
0.0000
  0
VERTEX
  8
0
 10
0.1036
 20
-0.2500
 30
0.0000
  0
VERTEX
  8
0
 10
-0.1036
 20
-0.2500
 30
0.0000
  0
VERTEX
  8
0
 10
-0.2500
 20
-0.1036
 30
0.0000
  0
VERTEX
  8
0
 10
-0.2500
 20
0.1036
 30
0.0000
  0
SEQEND
  8
0
  0
ENDBLK
  8
0
  0
BLOCK
  8
0
  2
SQUAREP
 70
64
 10
0.0000
 20
0.0000
 30
0.0000
  3
SQUAREP
  0
SOLID
  8
0
 10
-0.5000
 20
-0.5000
 30
0.0000
 11
0.5000
 21
-0.5000
 31
0.0000
 12
-0.5000
 22
0.5000
 32
0.0000
 13
0.5000
 23
0.5000
 33
0.0000
  0
ENDBLK
  8
0
  0
BLOCK
  8
0
  2
ROUNDP
 70
64
 10
0.0000
 20
0.0000
 30
0.0000
  3
ROUNDP
  0
POLYLINE
  8
0
 66
1
 10
0.0000
 20
0.0000
 30
0.0000
 40
0.5000
 41
0.5000
 70
0
  0
VERTEX
  8
0
 10
0.0000
 20
-0.2500
 30
0.0000
 42
1.0000
  0
VERTEX
  8
0
 10
0.0000
 20
0.2500
 30
0.0000
 42
1.0000
  0
VERTEX
  8
0
 10
0.0000
 20
-0.2500
 30
0.0000
  0
SEQEND
  8
0
  0
ENDBLK
  8
0
  0
BLOCK
  8
0
  2
ANNULUSP
 70
64
 10
0.0000
 20
0.0000
 30
0.0000
  3
ANNULUSP
  0
POLYLINE
  8
0
 66
1
 10
0.0000
 20
0.0000
 30
0.0000
 40
0.5000
 41
0.5000
 70
0
  0
VERTEX
  8
0
 10
0.0000
 20
-0.2500
 30
0.0000
 42
1.0000
  0
VERTEX
  8
0
 10
0.0000
 20
0.2500
 30
0.0000
 42
1.0000
  0
VERTEX
  8
0
 10
0.0000
 20
-0.2500
 30
0.0000
  0
SEQEND
  8
0
  0
ENDBLK
  8
0
  0
BLOCK
  8
0
  2
THERMALP
 70
64
 10
0.0000
 20
0.0000
 30
0.0000
  3
THERMALP
  0
POLYLINE
  8
0
 66
1
 10
0.0000
 20
0.0000
 30
0.0000
 40
0.1000
 41
0.1000
 70
0
  0
VERTEX
  8
0
 10
-0.2379
 20
0.4500
 30
0.0000
  0
VERTEX
  8
0
 10
0.2379
 20
0.4500
 30
0.0000
  0
SEQEND
  8
0
  0
POLYLINE
  8
0
 66
1
 10
0.0000
 20
0.0000
 30
0.0000
 40
0.0500
 41
0.0500
 70
0
  0
VERTEX
  8
0
 10
0.2379
 20
0.4250
 30
0.0000
 42
1.0000
  0
VERTEX
  8
0
 10
0.2379
 20
0.4750
 30
0.0000
  0
SEQEND
  8
0
  0
POLYLINE
  8
0
 66
1
 10
0.0000
 20
0.0000
 30
0.0000
 40
0.0500
 41
0.0500
 70
0
  0
VERTEX
  8
0
 10
-0.2379
 20
0.4750
 30
0.0000
 42
1.0000
  0
VERTEX
  8
0
 10
-0.2379
 20
0.4250
 30
0.0000
  0
SEQEND
  8
0
  0
POLYLINE
  8
0
 66
1
 10
0.0000
 20
0.0000
 30
0.0000
 40
0.1000
 41
0.1000
 70
0
  0
VERTEX
  8
0
 10
0.4500
 20
0.2379
 30
0.0000
  0
VERTEX
  8
0
 10
0.4500
 20
-0.2379
 30
0.0000
  0
SEQEND
  8
0
  0
POLYLINE
  8
0
 66
1
 10
0.0000
 20
0.0000
 30
0.0000
 40
0.0500
 41
0.0500
 70
0
  0
VERTEX
  8
0
 10
0.4250
 20
-0.2379
 30
0.0000
 42
1.0000
  0
VERTEX
  8
0
 10
0.4750
 20
-0.2379
 30
0.0000
  0
SEQEND
  8
0
  0
POLYLINE
  8
0
 66
1
 10
0.0000
 20
0.0000
 30
0.0000
 40
0.0500
 41
0.0500
 70
0
  0
VERTEX
  8
0
 10
0.4750
 20
0.2379
 30
0.0000
 42
1.0000
  0
VERTEX
  8
0
 10
0.4250
 20
0.2379
 30
0.0000
  0
SEQEND
  8
0
  0
POLYLINE
  8
0
 66
1
 10
0.0000
 20
0.0000
 30
0.0000
 40
0.1000
 41
0.1000
 70
0
  0
VERTEX
  8
0
 10
0.2379
 20
-0.4500
 30
0.0000
  0
VERTEX
  8
0
 10
-0.2379
 20
-0.4500
 30
0.0000
  0
SEQEND
  8
0
  0
POLYLINE
  8
0
 66
1
 10
0.0000
 20
0.0000
 30
0.0000
 40
0.0500
 41
0.0500
 70
0
  0
VERTEX
  8
0
 10
-0.2379
 20
-0.4250
 30
0.0000
 42
1.0000
  0
VERTEX
  8
0
 10
-0.2379
 20
-0.4750
 30
0.0000
  0
SEQEND
  8
0
  0
POLYLINE
  8
0
 66
1
 10
0.0000
 20
0.0000
 30
0.0000
 40
0.0500
 41
0.0500
 70
0
  0
VERTEX
  8
0
 10
0.2379
 20
-0.4750
 30
0.0000
 42
1.0000
  0
VERTEX
  8
0
 10
0.2379
 20
-0.4250
 30
0.0000
  0
SEQEND
  8
0
  0
POLYLINE
  8
0
 66
1
 10
0.0000
 20
0.0000
 30
0.0000
 40
0.1000
 41
0.1000
 70
0
  0
VERTEX
  8
0
 10
-0.4500
 20
-0.2379
 30
0.0000
  0
VERTEX
  8
0
 10
-0.4500
 20
0.2379
 30
0.0000
  0
SEQEND
  8
0
  0
POLYLINE
  8
0
 66
1
 10
0.0000
 20
0.0000
 30
0.0000
 40
0.0500
 41
0.0500
 70
0
  0
VERTEX
  8
0
 10
-0.4250
 20
0.2379
 30
0.0000
 42
1.0000
  0
VERTEX
  8
0
 10
-0.4750
 20
0.2379
 30
0.0000
  0
SEQEND
  8
0
  0
POLYLINE
  8
0
 66
1
 10
0.0000
 20
0.0000
 30
0.0000
 40
0.0500
 41
0.0500
 70
0
  0
VERTEX
  8
0
 10
-0.4750
 20
-0.2379
 30
0.0000
 42
1.0000
  0
VERTEX
  8
0
 10
-0.4250
 20
-0.2379
 30
0.0000
  0
SEQEND
  8
0
  0
ENDBLK
  8
0
  0
BLOCK
  8
0
  2
OCTAGONV
 70
64
 10
0.0000
 20
0.0000
 30
0.0000
  3
OCTAGONV
  0
POLYLINE
  8
0
 66
1
 10
0.0000
 20
0.0000
 30
0.0000
 40
0.5000
 41
0.5000
 70
0
  0
VERTEX
  8
0
 10
-0.2500
 20
-0.1036
 30
0.0000
  0
VERTEX
  8
0
 10
-0.2500
 20
0.1036
 30
0.0000
  0
VERTEX
  8
0
 10
-0.1036
 20
0.2500
 30
0.0000
  0
VERTEX
  8
0
 10
0.1036
 20
0.2500
 30
0.0000
  0
VERTEX
  8
0
 10
0.2500
 20
0.1036
 30
0.0000
  0
VERTEX
  8
0
 10
0.2500
 20
-0.1036
 30
0.0000
  0
VERTEX
  8
0
 10
0.1036
 20
-0.2500
 30
0.0000
  0
VERTEX
  8
0
 10
-0.1036
 20
-0.2500
 30
0.0000
  0
VERTEX
  8
0
 10
-0.2500
 20
-0.1036
 30
0.0000
  0
VERTEX
  8
0
 10
-0.2500
 20
0.1036
 30
0.0000
  0
SEQEND
  8
0
  0
ENDBLK
  8
0
  0
BLOCK
  8
0
  2
SQUAREV
 70
64
 10
0.0000
 20
0.0000
 30
0.0000
  3
SQUAREV
  0
SOLID
  8
0
 10
-0.5000
 20
-0.5000
 30
0.0000
 11
0.5000
 21
-0.5000
 31
0.0000
 12
-0.5000
 22
0.5000
 32
0.0000
 13
0.5000
 23
0.5000
 33
0.0000
  0
ENDBLK
  8
0
  0
BLOCK
  8
0
  2
ROUNDV
 70
64
 10
0.0000
 20
0.0000
 30
0.0000
  3
ROUNDV
  0
POLYLINE
  8
0
 66
1
 10
0.0000
 20
0.0000
 30
0.0000
 40
0.5000
 41
0.5000
 70
0
  0
VERTEX
  8
0
 10
0.0000
 20
-0.2500
 30
0.0000
 42
1.0000
  0
VERTEX
  8
0
 10
0.0000
 20
0.2500
 30
0.0000
 42
1.0000
  0
VERTEX
  8
0
 10
0.0000
 20
-0.2500
 30
0.0000
  0
SEQEND
  8
0
  0
ENDBLK
  8
0
  0
BLOCK
  8
0
  2
ANNULUSV
 70
64
 10
0.0000
 20
0.0000
 30
0.0000
  3
ANNULUSV
  0
POLYLINE
  8
0
 66
1
 10
0.0000
 20
0.0000
 30
0.0000
 40
0.5000
 41
0.5000
 70
0
  0
VERTEX
  8
0
 10
0.0000
 20
-0.2500
 30
0.0000
 42
1.0000
  0
VERTEX
  8
0
 10
0.0000
 20
0.2500
 30
0.0000
 42
1.0000
  0
VERTEX
  8
0
 10
0.0000
 20
-0.2500
 30
0.0000
  0
SEQEND
  8
0
  0
ENDBLK
  8
0
  0
BLOCK
  8
0
  2
THERMALV
 70
64
 10
0.0000
 20
0.0000
 30
0.0000
  3
THERMALV
  0
POLYLINE
  8
0
 66
1
 10
0.0000
 20
0.0000
 30
0.0000
 40
0.1000
 41
0.1000
 70
0
  0
VERTEX
  8
0
 10
-0.2379
 20
0.4500
 30
0.0000
  0
VERTEX
  8
0
 10
0.2379
 20
0.4500
 30
0.0000
  0
SEQEND
  8
0
  0
POLYLINE
  8
0
 66
1
 10
0.0000
 20
0.0000
 30
0.0000
 40
0.0500
 41
0.0500
 70
0
  0
VERTEX
  8
0
 10
0.2379
 20
0.4250
 30
0.0000
 42
1.0000
  0
VERTEX
  8
0
 10
0.2379
 20
0.4750
 30
0.0000
  0
SEQEND
  8
0
  0
POLYLINE
  8
0
 66
1
 10
0.0000
 20
0.0000
 30
0.0000
 40
0.0500
 41
0.0500
 70
0
  0
VERTEX
  8
0
 10
-0.2379
 20
0.4750
 30
0.0000
 42
1.0000
  0
VERTEX
  8
0
 10
-0.2379
 20
0.4250
 30
0.0000
  0
SEQEND
  8
0
  0
POLYLINE
  8
0
 66
1
 10
0.0000
 20
0.0000
 30
0.0000
 40
0.1000
 41
0.1000
 70
0
  0
VERTEX
  8
0
 10
0.4500
 20
0.2379
 30
0.0000
  0
VERTEX
  8
0
 10
0.4500
 20
-0.2379
 30
0.0000
  0
SEQEND
  8
0
  0
POLYLINE
  8
0
 66
1
 10
0.0000
 20
0.0000
 30
0.0000
 40
0.0500
 41
0.0500
 70
0
  0
VERTEX
  8
0
 10
0.4250
 20
-0.2379
 30
0.0000
 42
1.0000
  0
VERTEX
  8
0
 10
0.4750
 20
-0.2379
 30
0.0000
  0
SEQEND
  8
0
  0
POLYLINE
  8
0
 66
1
 10
0.0000
 20
0.0000
 30
0.0000
 40
0.0500
 41
0.0500
 70
0
  0
VERTEX
  8
0
 10
0.4750
 20
0.2379
 30
0.0000
 42
1.0000
  0
VERTEX
  8
0
 10
0.4250
 20
0.2379
 30
0.0000
  0
SEQEND
  8
0
  0
POLYLINE
  8
0
 66
1
 10
0.0000
 20
0.0000
 30
0.0000
 40
0.1000
 41
0.1000
 70
0
  0
VERTEX
  8
0
 10
0.2379
 20
-0.4500
 30
0.0000
  0
VERTEX
  8
0
 10
-0.2379
 20
-0.4500
 30
0.0000
  0
SEQEND
  8
0
  0
POLYLINE
  8
0
 66
1
 10
0.0000
 20
0.0000
 30
0.0000
 40
0.0500
 41
0.0500
 70
0
  0
VERTEX
  8
0
 10
-0.2379
 20
-0.4250
 30
0.0000
 42
1.0000
  0
VERTEX
  8
0
 10
-0.2379
 20
-0.4750
 30
0.0000
  0
SEQEND
  8
0
  0
POLYLINE
  8
0
 66
1
 10
0.0000
 20
0.0000
 30
0.0000
 40
0.0500
 41
0.0500
 70
0
  0
VERTEX
  8
0
 10
0.2379
 20
-0.4750
 30
0.0000
 42
1.0000
  0
VERTEX
  8
0
 10
0.2379
 20
-0.4250
 30
0.0000
  0
SEQEND
  8
0
  0
POLYLINE
  8
0
 66
1
 10
0.0000
 20
0.0000
 30
0.0000
 40
0.1000
 41
0.1000
 70
0
  0
VERTEX
  8
0
 10
-0.4500
 20
-0.2379
 30
0.0000
  0
VERTEX
  8
0
 10
-0.4500
 20
0.2379
 30
0.0000
  0
SEQEND
  8
0
  0
POLYLINE
  8
0
 66
1
 10
0.0000
 20
0.0000
 30
0.0000
 40
0.0500
 41
0.0500
 70
0
  0
VERTEX
  8
0
 10
-0.4250
 20
0.2379
 30
0.0000
 42
1.0000
  0
VERTEX
  8
0
 10
-0.4750
 20
0.2379
 30
0.0000
  0
SEQEND
  8
0
  0
POLYLINE
  8
0
 66
1
 10
0.0000
 20
0.0000
 30
0.0000
 40
0.0500
 41
0.0500
 70
0
  0
VERTEX
  8
0
 10
-0.4750
 20
-0.2379
 30
0.0000
 42
1.0000
  0
VERTEX
  8
0
 10
-0.4250
 20
-0.2379
 30
0.0000
  0
SEQEND
  8
0
  0
ENDBLK
  8
0
  0
BLOCK
  8
0
  2
LONGP100
 70
64
 10
0.0000
 20
0.0000
 30
0.0000
  3
LONGP100
  0
POLYLINE
  8
0
 66
1
 10
0.0000
 20
0.0000
 30
0.0000
 40
1.0000
 41
1.0000
 70
0
  0
VERTEX
  8
0
 10
-0.5000
 20
0.0000
 30
0.0000
  0
VERTEX
  8
0
 10
0.5000
 20
0.0000
 30
0.0000
  0
SEQEND
  8
0
  0
POLYLINE
  8
0
 66
1
 10
0.0000
 20
0.0000
 30
0.0000
 40
0.5000
 41
0.5000
 70
0
  0
VERTEX
  8
0
 10
0.5000
 20
-0.2500
 30
0.0000
 42
1.0000
  0
VERTEX
  8
0
 10
0.5000
 20
0.2500
 30
0.0000
  0
SEQEND
  8
0
  0
POLYLINE
  8
0
 66
1
 10
0.0000
 20
0.0000
 30
0.0000
 40
0.5000
 41
0.5000
 70
0
  0
VERTEX
  8
0
 10
-0.5000
 20
0.2500
 30
0.0000
 42
1.0000
  0
VERTEX
  8
0
 10
-0.5000
 20
-0.2500
 30
0.0000
  0
SEQEND
  8
0
  0
ENDBLK
  8
0
  0
ENDSEC
  0
SECTION
  2
ENTITIES
  0
POLYLINE
  8
20
 66
1
 10
0.0000
 20
0.0000
 30
0.0000
 40
0.1524
 41
0.1524
 70
0
  0
VERTEX
  8
20
 10
1.2700
 20
1.2700
 30
0.0000
  0
VERTEX
  8
20
 10
1.2700
 20
71.7550
 30
0.0000
  0
SEQEND
  8
0
  0
POLYLINE
  8
20
 66
1
 10
0.0000
 20
0.0000
 30
0.0000
 40
0.0762
 41
0.0762
 70
0
  0
VERTEX
  8
20
 10
1.3081
 20
71.7550
 30
0.0000
 42
1.0000
  0
VERTEX
  8
20
 10
1.2319
 20
71.7550
 30
0.0000
  0
SEQEND
  8
0
  0
POLYLINE
  8
20
 66
1
 10
0.0000
 20
0.0000
 30
0.0000
 40
0.0762
 41
0.0762
 70
0
  0
VERTEX
  8
20
 10
1.2319
 20
1.2700
 30
0.0000
 42
1.0000
  0
VERTEX
  8
20
 10
1.3081
 20
1.2700
 30
0.0000
  0
SEQEND
  8
0
  0
POLYLINE
  8
20
 66
1
 10
0.0000
 20
0.0000
 30
0.0000
 40
0.1524
 41
0.1524
 70
0
  0
VERTEX
  8
20
 10
1.2700
 20
71.7550
 30
0.0000
  0
VERTEX
  8
20
 10
43.8150
 20
71.7550
 30
0.0000
  0
SEQEND
  8
0
  0
POLYLINE
  8
20
 66
1
 10
0.0000
 20
0.0000
 30
0.0000
 40
0.0762
 41
0.0762
 70
0
  0
VERTEX
  8
20
 10
43.8150
 20
71.7169
 30
0.0000
 42
1.0000
  0
VERTEX
  8
20
 10
43.8150
 20
71.7931
 30
0.0000
  0
SEQEND
  8
0
  0
POLYLINE
  8
20
 66
1
 10
0.0000
 20
0.0000
 30
0.0000
 40
0.0762
 41
0.0762
 70
0
  0
VERTEX
  8
20
 10
1.2700
 20
71.7931
 30
0.0000
 42
1.0000
  0
VERTEX
  8
20
 10
1.2700
 20
71.7169
 30
0.0000
  0
SEQEND
  8
0
  0
POLYLINE
  8
20
 66
1
 10
0.0000
 20
0.0000
 30
0.0000
 40
0.1524
 41
0.1524
 70
0
  0
VERTEX
  8
20
 10
43.8150
 20
71.7550
 30
0.0000
  0
VERTEX
  8
20
 10
45.7200
 20
69.8500
 30
0.0000
  0
SEQEND
  8
0
  0
POLYLINE
  8
20
 66
1
 10
0.0000
 20
0.0000
 30
0.0000
 40
0.0762
 41
0.0762
 70
0
  0
VERTEX
  8
20
 10
45.6931
 20
69.8231
 30
0.0000
 42
1.0000
  0
VERTEX
  8
20
 10
45.7469
 20
69.8769
 30
0.0000
  0
SEQEND
  8
0
  0
POLYLINE
  8
20
 66
1
 10
0.0000
 20
0.0000
 30
0.0000
 40
0.0762
 41
0.0762
 70
0
  0
VERTEX
  8
20
 10
43.8419
 20
71.7819
 30
0.0000
 42
1.0000
  0
VERTEX
  8
20
 10
43.7881
 20
71.7281
 30
0.0000
  0
SEQEND
  8
0
  0
POLYLINE
  8
20
 66
1
 10
0.0000
 20
0.0000
 30
0.0000
 40
0.1524
 41
0.1524
 70
0
  0
VERTEX
  8
20
 10
45.7200
 20
69.8500
 30
0.0000
  0
VERTEX
  8
20
 10
45.7200
 20
1.2700
 30
0.0000
  0
SEQEND
  8
0
  0
POLYLINE
  8
20
 66
1
 10
0.0000
 20
0.0000
 30
0.0000
 40
0.0762
 41
0.0762
 70
0
  0
VERTEX
  8
20
 10
45.6819
 20
1.2700
 30
0.0000
 42
1.0000
  0
VERTEX
  8
20
 10
45.7581
 20
1.2700
 30
0.0000
  0
SEQEND
  8
0
  0
POLYLINE
  8
20
 66
1
 10
0.0000
 20
0.0000
 30
0.0000
 40
0.0762
 41
0.0762
 70
0
  0
VERTEX
  8
20
 10
45.7581
 20
69.8500
 30
0.0000
 42
1.0000
  0
VERTEX
  8
20
 10
45.6819
 20
69.8500
 30
0.0000
  0
SEQEND
  8
0
  0
POLYLINE
  8
20
 66
1
 10
0.0000
 20
0.0000
 30
0.0000
 40
0.1524
 41
0.1524
 70
0
  0
VERTEX
  8
20
 10
45.7200
 20
1.2700
 30
0.0000
  0
VERTEX
  8
20
 10
1.2700
 20
1.2700
 30
0.0000
  0
SEQEND
  8
0
  0
POLYLINE
  8
20
 66
1
 10
0.0000
 20
0.0000
 30
0.0000
 40
0.0762
 41
0.0762
 70
0
  0
VERTEX
  8
20
 10
1.2700
 20
1.3081
 30
0.0000
 42
1.0000
  0
VERTEX
  8
20
 10
1.2700
 20
1.2319
 30
0.0000
  0
SEQEND
  8
0
  0
POLYLINE
  8
20
 66
1
 10
0.0000
 20
0.0000
 30
0.0000
 40
0.0762
 41
0.0762
 70
0
  0
VERTEX
  8
20
 10
45.7200
 20
1.2319
 30
0.0000
 42
1.0000
  0
VERTEX
  8
20
 10
45.7200
 20
1.3081
 30
0.0000
  0
SEQEND
  8
0
  0
INSERT
  8
17
  2
OCTAGONP
 10
18.4150
 20
12.0650
 30
0.0000
 41
1.3208
 42
1.3208
 43
1.0000
 50
180.0000
  0
CIRCLE
  8
44
 10
18.4150
 20
12.0650
 30
0.0000
 40
0.4064
  0
INSERT
  8
17
  2
OCTAGONP
 10
13.3350
 20
12.0650
 30
0.0000
 41
1.3208
 42
1.3208
 43
1.0000
 50
180.0000
  0
CIRCLE
  8
44
 10
13.3350
 20
12.0650
 30
0.0000
 40
0.4064
  0
INSERT
  8
17
  2
OCTAGONP
 10
13.3350
 20
23.4950
 30
0.0000
 41
1.3208
 42
1.3208
 43
1.0000
 50
270.0000
  0
CIRCLE
  8
44
 10
13.3350
 20
23.4950
 30
0.0000
 40
0.4064
  0
INSERT
  8
17
  2
OCTAGONP
 10
13.3350
 20
18.4150
 30
0.0000
 41
1.3208
 42
1.3208
 43
1.0000
 50
270.0000
  0
CIRCLE
  8
44
 10
13.3350
 20
18.4150
 30
0.0000
 40
0.4064
  0
INSERT
  8
17
  2
OCTAGONP
 10
38.7350
 20
23.4950
 30
0.0000
 41
1.3208
 42
1.3208
 43
1.0000
 50
90.0000
  0
CIRCLE
  8
44
 10
38.7350
 20
23.4950
 30
0.0000
 40
0.4064
  0
INSERT
  8
17
  2
OCTAGONP
 10
38.7350
 20
28.5750
 30
0.0000
 41
1.3208
 42
1.3208
 43
1.0000
 50
90.0000
  0
CIRCLE
  8
44
 10
38.7350
 20
28.5750
 30
0.0000
 40
0.4064
  0
INSERT
  8
17
  2
OCTAGONP
 10
34.9250
 20
13.3350
 30
0.0000
 41
1.3208
 42
1.3208
 43
1.0000
 50
180.0000
  0
CIRCLE
  8
44
 10
34.9250
 20
13.3350
 30
0.0000
 40
0.4064
  0
INSERT
  8
17
  2
OCTAGONP
 10
29.8450
 20
13.3350
 30
0.0000
 41
1.3208
 42
1.3208
 43
1.0000
 50
180.0000
  0
CIRCLE
  8
44
 10
29.8450
 20
13.3350
 30
0.0000
 40
0.4064
  0
INSERT
  8
17
  2
ROUNDP
 10
26.6700
 20
4.1750
 30
0.0000
 41
3.8160
 42
3.8160
 43
1.0000
 50
0.0000
  0
CIRCLE
  8
44
 10
26.6700
 20
4.1750
 30
0.0000
 40
1.4000
  0
INSERT
  8
17
  2
ROUNDP
 10
31.4700
 20
7.5750
 30
0.0000
 41
3.8160
 42
3.8160
 43
1.0000
 50
90.0000
  0
CIRCLE
  8
44
 10
31.4700
 20
7.5750
 30
0.0000
 40
1.4000
  0
INSERT
  8
17
  2
ROUNDP
 10
26.6700
 20
10.4250
 30
0.0000
 41
4.2160
 42
4.2160
 43
1.0000
 50
0.0000
  0
CIRCLE
  8
44
 10
26.6700
 20
10.4250
 30
0.0000
 40
1.6000
  0
CIRCLE
  8
20
 10
6.9850
 20
66.0400
 30
0.0000
 40
1.6500
  0
CIRCLE
  8
20
 10
40.6400
 20
66.0400
 30
0.0000
 40
1.6500
  0
CIRCLE
  8
20
 10
40.0050
 20
6.3500
 30
0.0000
 40
1.6500
  0
CIRCLE
  8
20
 10
6.9850
 20
6.3500
 30
0.0000
 40
1.6500
  0
INSERT
  8
17
  2
LONGP100
 10
6.3500
 20
16.5100
 30
0.0000
 41
1.5240
 42
1.5240
 43
1.0000
 50
180.0000
  0
CIRCLE
  8
44
 10
6.3500
 20
16.5100
 30
0.0000
 40
0.5080
  0
INSERT
  8
17
  2
LONGP100
 10
6.3500
 20
19.0500
 30
0.0000
 41
1.5240
 42
1.5240
 43
1.0000
 50
180.0000
  0
CIRCLE
  8
44
 10
6.3500
 20
19.0500
 30
0.0000
 40
0.5080
  0
INSERT
  8
17
  2
LONGP100
 10
6.3500
 20
21.5900
 30
0.0000
 41
1.5240
 42
1.5240
 43
1.0000
 50
180.0000
  0
CIRCLE
  8
44
 10
6.3500
 20
21.5900
 30
0.0000
 40
0.5080
  0
INSERT
  8
17
  2
LONGP100
 10
38.7350
 20
19.6850
 30
0.0000
 41
1.5240
 42
1.5240
 43
1.0000
 50
0.0000
  0
CIRCLE
  8
44
 10
38.7350
 20
19.6850
 30
0.0000
 40
0.5080
  0
INSERT
  8
17
  2
LONGP100
 10
38.7350
 20
17.1450
 30
0.0000
 41
1.5240
 42
1.5240
 43
1.0000
 50
0.0000
  0
CIRCLE
  8
44
 10
38.7350
 20
17.1450
 30
0.0000
 40
0.5080
  0
INSERT
  8
17
  2
LONGP100
 10
38.7350
 20
14.6050
 30
0.0000
 41
1.5240
 42
1.5240
 43
1.0000
 50
0.0000
  0
CIRCLE
  8
44
 10
38.7350
 20
14.6050
 30
0.0000
 40
0.5080
  0
INSERT
  8
17
  2
SQUAREP
 10
18.5928
 20
5.7150
 30
0.0000
 41
2.0320
 42
2.0320
 43
1.0000
 50
180.0000
  0
CIRCLE
  8
44
 10
18.5928
 20
5.7150
 30
0.0000
 40
0.6000
  0
INSERT
  8
17
  2
ROUNDP
 10
14.7372
 20
5.7150
 30
0.0000
 41
2.0320
 42
2.0320
 43
1.0000
 50
180.0000
  0
CIRCLE
  8
44
 10
14.7372
 20
5.7150
 30
0.0000
 40
0.6000
  0
INSERT
  8
17
  2
SQUAREP
 10
5.7150
 20
54.4322
 30
0.0000
 41
2.0320
 42
2.0320
 43
1.0000
 50
90.0000
  0
CIRCLE
  8
44
 10
5.7150
 20
54.4322
 30
0.0000
 40
0.6000
  0
INSERT
  8
17
  2
ROUNDP
 10
5.7150
 20
58.2878
 30
0.0000
 41
2.0320
 42
2.0320
 43
1.0000
 50
90.0000
  0
CIRCLE
  8
44
 10
5.7150
 20
58.2878
 30
0.0000
 40
0.6000
  0
INSERT
  8
17
  2
LONGP100
 10
39.3700
 20
53.3400
 30
0.0000
 41
1.8796
 42
1.8796
 43
1.0000
 50
0.0000
  0
CIRCLE
  8
44
 10
39.3700
 20
53.3400
 30
0.0000
 40
0.5588
  0
INSERT
  8
17
  2
LONGP100
 10
39.3700
 20
50.8000
 30
0.0000
 41
1.8796
 42
1.8796
 43
1.0000
 50
0.0000
  0
CIRCLE
  8
44
 10
39.3700
 20
50.8000
 30
0.0000
 40
0.5588
  0
INSERT
  8
17
  2
LONGP100
 10
39.3700
 20
48.2600
 30
0.0000
 41
1.8796
 42
1.8796
 43
1.0000
 50
0.0000
  0
CIRCLE
  8
44
 10
39.3700
 20
48.2600
 30
0.0000
 40
0.5588
  0
INSERT
  8
17
  2
LONGP100
 10
39.3700
 20
45.7200
 30
0.0000
 41
1.8796
 42
1.8796
 43
1.0000
 50
0.0000
  0
CIRCLE
  8
44
 10
39.3700
 20
45.7200
 30
0.0000
 40
0.5588
  0
INSERT
  8
17
  2
LONGP100
 10
39.3700
 20
36.8300
 30
0.0000
 41
1.8796
 42
1.8796
 43
1.0000
 50
0.0000
  0
CIRCLE
  8
44
 10
39.3700
 20
36.8300
 30
0.0000
 40
0.5588
  0
INSERT
  8
17
  2
LONGP100
 10
39.3700
 20
34.2900
 30
0.0000
 41
1.8796
 42
1.8796
 43
1.0000
 50
0.0000
  0
CIRCLE
  8
44
 10
39.3700
 20
34.2900
 30
0.0000
 40
0.5588
  0
INSERT
  8
17
  2
LONGP100
 10
39.3700
 20
31.7500
 30
0.0000
 41
1.8796
 42
1.8796
 43
1.0000
 50
0.0000
  0
CIRCLE
  8
44
 10
39.3700
 20
31.7500
 30
0.0000
 40
0.5588
  0
INSERT
  8
17
  2
LONGP100
 10
17.7800
 20
54.6100
 30
0.0000
 41
1.3080
 42
1.3080
 43
1.0000
 50
180.0000
  0
CIRCLE
  8
44
 10
17.7800
 20
54.6100
 30
0.0000
 40
0.4000
  0
INSERT
  8
17
  2
LONGP100
 10
17.7800
 20
29.2100
 30
0.0000
 41
1.3080
 42
1.3080
 43
1.0000
 50
0.0000
  0
CIRCLE
  8
44
 10
17.7800
 20
29.2100
 30
0.0000
 40
0.4000
  0
INSERT
  8
17
  2
LONGP100
 10
17.7800
 20
49.5300
 30
0.0000
 41
1.3080
 42
1.3080
 43
1.0000
 50
0.0000
  0
CIRCLE
  8
44
 10
17.7800
 20
49.5300
 30
0.0000
 40
0.4000
  0
INSERT
  8
17
  2
LONGP100
 10
17.7800
 20
46.9900
 30
0.0000
 41
1.3080
 42
1.3080
 43
1.0000
 50
0.0000
  0
CIRCLE
  8
44
 10
17.7800
 20
46.9900
 30
0.0000
 40
0.4000
  0
INSERT
  8
17
  2
LONGP100
 10
17.7800
 20
44.4500
 30
0.0000
 41
1.3080
 42
1.3080
 43
1.0000
 50
0.0000
  0
CIRCLE
  8
44
 10
17.7800
 20
44.4500
 30
0.0000
 40
0.4000
  0
INSERT
  8
17
  2
LONGP100
 10
17.7800
 20
41.9100
 30
0.0000
 41
1.3080
 42
1.3080
 43
1.0000
 50
0.0000
  0
CIRCLE
  8
44
 10
17.7800
 20
41.9100
 30
0.0000
 40
0.4000
  0
INSERT
  8
17
  2
LONGP100
 10
17.7800
 20
39.3700
 30
0.0000
 41
1.3080
 42
1.3080
 43
1.0000
 50
180.0000
  0
CIRCLE
  8
44
 10
17.7800
 20
39.3700
 30
0.0000
 40
0.4000
  0
INSERT
  8
17
  2
LONGP100
 10
17.7800
 20
36.8300
 30
0.0000
 41
1.3080
 42
1.3080
 43
1.0000
 50
180.0000
  0
CIRCLE
  8
44
 10
17.7800
 20
36.8300
 30
0.0000
 40
0.4000
  0
INSERT
  8
17
  2
LONGP100
 10
17.7800
 20
34.2900
 30
0.0000
 41
1.3080
 42
1.3080
 43
1.0000
 50
180.0000
  0
CIRCLE
  8
44
 10
17.7800
 20
34.2900
 30
0.0000
 40
0.4000
  0
INSERT
  8
17
  2
LONGP100
 10
17.7800
 20
31.7500
 30
0.0000
 41
1.3080
 42
1.3080
 43
1.0000
 50
180.0000
  0
CIRCLE
  8
44
 10
17.7800
 20
31.7500
 30
0.0000
 40
0.4000
  0
INSERT
  8
17
  2
LONGP100
 10
17.7800
 20
52.0700
 30
0.0000
 41
1.3080
 42
1.3080
 43
1.0000
 50
180.0000
  0
CIRCLE
  8
44
 10
17.7800
 20
52.0700
 30
0.0000
 40
0.4000
  0
INSERT
  8
17
  2
LONGP100
 10
33.0200
 20
31.7500
 30
0.0000
 41
1.3080
 42
1.3080
 43
1.0000
 50
0.0000
  0
CIRCLE
  8
44
 10
33.0200
 20
31.7500
 30
0.0000
 40
0.4000
  0
INSERT
  8
17
  2
LONGP100
 10
33.0200
 20
34.2900
 30
0.0000
 41
1.3080
 42
1.3080
 43
1.0000
 50
0.0000
  0
CIRCLE
  8
44
 10
33.0200
 20
34.2900
 30
0.0000
 40
0.4000
  0
INSERT
  8
17
  2
LONGP100
 10
33.0200
 20
36.8300
 30
0.0000
 41
1.3080
 42
1.3080
 43
1.0000
 50
0.0000
  0
CIRCLE
  8
44
 10
33.0200
 20
36.8300
 30
0.0000
 40
0.4000
  0
INSERT
  8
17
  2
LONGP100
 10
33.0200
 20
39.3700
 30
0.0000
 41
1.3080
 42
1.3080
 43
1.0000
 50
0.0000
  0
CIRCLE
  8
44
 10
33.0200
 20
39.3700
 30
0.0000
 40
0.4000
  0
INSERT
  8
17
  2
LONGP100
 10
33.0200
 20
41.9100
 30
0.0000
 41
1.3080
 42
1.3080
 43
1.0000
 50
0.0000
  0
CIRCLE
  8
44
 10
33.0200
 20
41.9100
 30
0.0000
 40
0.4000
  0
INSERT
  8
17
  2
LONGP100
 10
33.0200
 20
44.4500
 30
0.0000
 41
1.3080
 42
1.3080
 43
1.0000
 50
0.0000
  0
CIRCLE
  8
44
 10
33.0200
 20
44.4500
 30
0.0000
 40
0.4000
  0
INSERT
  8
17
  2
LONGP100
 10
33.0200
 20
46.9900
 30
0.0000
 41
1.3080
 42
1.3080
 43
1.0000
 50
0.0000
  0
CIRCLE
  8
44
 10
33.0200
 20
46.9900
 30
0.0000
 40
0.4000
  0
INSERT
  8
17
  2
LONGP100
 10
33.0200
 20
49.5300
 30
0.0000
 41
1.3080
 42
1.3080
 43
1.0000
 50
0.0000
  0
CIRCLE
  8
44
 10
33.0200
 20
49.5300
 30
0.0000
 40
0.4000
  0
INSERT
  8
17
  2
LONGP100
 10
33.0200
 20
52.0700
 30
0.0000
 41
1.3080
 42
1.3080
 43
1.0000
 50
0.0000
  0
CIRCLE
  8
44
 10
33.0200
 20
52.0700
 30
0.0000
 40
0.4000
  0
INSERT
  8
17
  2
LONGP100
 10
33.0200
 20
54.6100
 30
0.0000
 41
1.3080
 42
1.3080
 43
1.0000
 50
0.0000
  0
CIRCLE
  8
44
 10
33.0200
 20
54.6100
 30
0.0000
 40
0.4000
  0
INSERT
  8
17
  2
LONGP100
 10
33.0200
 20
57.1500
 30
0.0000
 41
1.3080
 42
1.3080
 43
1.0000
 50
0.0000
  0
CIRCLE
  8
44
 10
33.0200
 20
57.1500
 30
0.0000
 40
0.4000
  0
INSERT
  8
17
  2
LONGP100
 10
17.7800
 20
57.1500
 30
0.0000
 41
1.3080
 42
1.3080
 43
1.0000
 50
0.0000
  0
CIRCLE
  8
44
 10
17.7800
 20
57.1500
 30
0.0000
 40
0.4000
  0
INSERT
  8
17
  2
LONGP100
 10
17.7800
 20
24.1300
 30
0.0000
 41
1.3080
 42
1.3080
 43
1.0000
 50
0.0000
  0
CIRCLE
  8
44
 10
17.7800
 20
24.1300
 30
0.0000
 40
0.4000
  0
INSERT
  8
17
  2
LONGP100
 10
33.0200
 20
29.2100
 30
0.0000
 41
1.3080
 42
1.3080
 43
1.0000
 50
0.0000
  0
CIRCLE
  8
44
 10
33.0200
 20
29.2100
 30
0.0000
 40
0.4000
  0
INSERT
  8
17
  2
ROUNDP
 10
22.8600
 20
20.3200
 30
0.0000
 41
1.3080
 42
1.3080
 43
1.0000
 50
90.0000
  0
CIRCLE
  8
44
 10
22.8600
 20
20.3200
 30
0.0000
 40
0.4000
  0
INSERT
  8
17
  2
ROUNDP
 10
22.8600
 20
22.8600
 30
0.0000
 41
1.3080
 42
1.3080
 43
1.0000
 50
90.0000
  0
CIRCLE
  8
44
 10
22.8600
 20
22.8600
 30
0.0000
 40
0.4000
  0
INSERT
  8
17
  2
ROUNDP
 10
25.4000
 20
20.3200
 30
0.0000
 41
1.3080
 42
1.3080
 43
1.0000
 50
90.0000
  0
CIRCLE
  8
44
 10
25.4000
 20
20.3200
 30
0.0000
 40
0.4000
  0
INSERT
  8
17
  2
ROUNDP
 10
25.4000
 20
22.8600
 30
0.0000
 41
1.3080
 42
1.3080
 43
1.0000
 50
90.0000
  0
CIRCLE
  8
44
 10
25.4000
 20
22.8600
 30
0.0000
 40
0.4000
  0
INSERT
  8
17
  2
ROUNDP
 10
27.9400
 20
20.3200
 30
0.0000
 41
1.3080
 42
1.3080
 43
1.0000
 50
90.0000
  0
CIRCLE
  8
44
 10
27.9400
 20
20.3200
 30
0.0000
 40
0.4000
  0
INSERT
  8
17
  2
ROUNDP
 10
27.9400
 20
22.8600
 30
0.0000
 41
1.3080
 42
1.3080
 43
1.0000
 50
90.0000
  0
CIRCLE
  8
44
 10
27.9400
 20
22.8600
 30
0.0000
 40
0.4000
  0
INSERT
  8
17
  2
LONGP100
 10
17.7800
 20
21.5900
 30
0.0000
 41
1.3080
 42
1.3080
 43
1.0000
 50
0.0000
  0
CIRCLE
  8
44
 10
17.7800
 20
21.5900
 30
0.0000
 40
0.4000
  0
INSERT
  8
17
  2
LONGP100
 10
17.7800
 20
26.6700
 30
0.0000
 41
1.3080
 42
1.3080
 43
1.0000
 50
0.0000
  0
CIRCLE
  8
44
 10
17.7800
 20
26.6700
 30
0.0000
 40
0.4000
  0
INSERT
  8
17
  2
LONGP100
 10
33.0200
 20
26.6700
 30
0.0000
 41
1.3080
 42
1.3080
 43
1.0000
 50
0.0000
  0
CIRCLE
  8
44
 10
33.0200
 20
26.6700
 30
0.0000
 40
0.4000
  0
INSERT
  8
17
  2
LONGP100
 10
33.0200
 20
24.1300
 30
0.0000
 41
1.3080
 42
1.3080
 43
1.0000
 50
0.0000
  0
CIRCLE
  8
44
 10
33.0200
 20
24.1300
 30
0.0000
 40
0.4000
  0
INSERT
  8
17
  2
LONGP100
 10
33.0200
 20
21.5900
 30
0.0000
 41
1.3080
 42
1.3080
 43
1.0000
 50
0.0000
  0
CIRCLE
  8
44
 10
33.0200
 20
21.5900
 30
0.0000
 40
0.4000
  0
INSERT
  8
17
  2
ROUNDP
 10
9.5250
 20
31.7500
 30
0.0000
 41
1.5080
 42
1.5080
 43
1.0000
 50
90.0000
  0
CIRCLE
  8
44
 10
9.5250
 20
31.7500
 30
0.0000
 40
0.5000
  0
INSERT
  8
17
  2
ROUNDP
 10
6.9850
 20
31.7500
 30
0.0000
 41
1.5080
 42
1.5080
 43
1.0000
 50
90.0000
  0
CIRCLE
  8
44
 10
6.9850
 20
31.7500
 30
0.0000
 40
0.5000
  0
INSERT
  8
17
  2
ROUNDP
 10
9.5250
 20
34.2900
 30
0.0000
 41
1.5080
 42
1.5080
 43
1.0000
 50
90.0000
  0
CIRCLE
  8
44
 10
9.5250
 20
34.2900
 30
0.0000
 40
0.5000
  0
INSERT
  8
17
  2
ROUNDP
 10
6.9850
 20
34.2900
 30
0.0000
 41
1.5080
 42
1.5080
 43
1.0000
 50
90.0000
  0
CIRCLE
  8
44
 10
6.9850
 20
34.2900
 30
0.0000
 40
0.5000
  0
INSERT
  8
17
  2
ROUNDP
 10
9.5250
 20
36.8300
 30
0.0000
 41
1.5080
 42
1.5080
 43
1.0000
 50
90.0000
  0
CIRCLE
  8
44
 10
9.5250
 20
36.8300
 30
0.0000
 40
0.5000
  0
INSERT
  8
17
  2
ROUNDP
 10
6.9850
 20
36.8300
 30
0.0000
 41
1.5080
 42
1.5080
 43
1.0000
 50
90.0000
  0
CIRCLE
  8
44
 10
6.9850
 20
36.8300
 30
0.0000
 40
0.5000
  0
INSERT
  8
17
  2
ROUNDP
 10
9.5250
 20
39.3700
 30
0.0000
 41
1.5080
 42
1.5080
 43
1.0000
 50
90.0000
  0
CIRCLE
  8
44
 10
9.5250
 20
39.3700
 30
0.0000
 40
0.5000
  0
INSERT
  8
17
  2
ROUNDP
 10
6.9850
 20
39.3700
 30
0.0000
 41
1.5080
 42
1.5080
 43
1.0000
 50
90.0000
  0
CIRCLE
  8
44
 10
6.9850
 20
39.3700
 30
0.0000
 40
0.5000
  0
INSERT
  8
17
  2
ROUNDP
 10
9.5250
 20
41.9100
 30
0.0000
 41
1.5080
 42
1.5080
 43
1.0000
 50
90.0000
  0
CIRCLE
  8
44
 10
9.5250
 20
41.9100
 30
0.0000
 40
0.5000
  0
INSERT
  8
17
  2
ROUNDP
 10
6.9850
 20
41.9100
 30
0.0000
 41
1.5080
 42
1.5080
 43
1.0000
 50
90.0000
  0
CIRCLE
  8
44
 10
6.9850
 20
41.9100
 30
0.0000
 40
0.5000
  0
INSERT
  8
17
  2
ROUNDP
 10
9.5250
 20
44.4500
 30
0.0000
 41
1.5080
 42
1.5080
 43
1.0000
 50
90.0000
  0
CIRCLE
  8
44
 10
9.5250
 20
44.4500
 30
0.0000
 40
0.5000
  0
INSERT
  8
17
  2
ROUNDP
 10
6.9850
 20
44.4500
 30
0.0000
 41
1.5080
 42
1.5080
 43
1.0000
 50
90.0000
  0
CIRCLE
  8
44
 10
6.9850
 20
44.4500
 30
0.0000
 40
0.5000
  0
INSERT
  8
17
  2
ROUNDP
 10
9.5250
 20
46.9900
 30
0.0000
 41
1.5080
 42
1.5080
 43
1.0000
 50
90.0000
  0
CIRCLE
  8
44
 10
9.5250
 20
46.9900
 30
0.0000
 40
0.5000
  0
INSERT
  8
17
  2
ROUNDP
 10
6.9850
 20
46.9900
 30
0.0000
 41
1.5080
 42
1.5080
 43
1.0000
 50
90.0000
  0
CIRCLE
  8
44
 10
6.9850
 20
46.9900
 30
0.0000
 40
0.5000
  0
POLYLINE
  8
16
 66
1
 10
0.0000
 20
0.0000
 30
0.0000
 40
1.2700
 41
1.2700
 70
0
  0
VERTEX
  8
16
 10
5.7150
 20
54.4322
 30
0.0000
  0
VERTEX
  8
16
 10
8.7122
 20
54.4322
 30
0.0000
  0
SEQEND
  8
0
  0
POLYLINE
  8
16
 66
1
 10
0.0000
 20
0.0000
 30
0.0000
 40
0.6350
 41
0.6350
 70
0
  0
VERTEX
  8
16
 10
8.7122
 20
54.1147
 30
0.0000
 42
1.0000
  0
VERTEX
  8
16
 10
8.7122
 20
54.7497
 30
0.0000
  0
SEQEND
  8
0
  0
POLYLINE
  8
16
 66
1
 10
0.0000
 20
0.0000
 30
0.0000
 40
0.6350
 41
0.6350
 70
0
  0
VERTEX
  8
16
 10
5.7150
 20
54.7497
 30
0.0000
 42
1.0000
  0
VERTEX
  8
16
 10
5.7150
 20
54.1147
 30
0.0000
  0
SEQEND
  8
0
  0
POLYLINE
  8
16
 66
1
 10
0.0000
 20
0.0000
 30
0.0000
 40
1.2700
 41
1.2700
 70
0
  0
VERTEX
  8
16
 10
8.7122
 20
54.4322
 30
0.0000
  0
VERTEX
  8
16
 10
15.2400
 20
60.9600
 30
0.0000
  0
SEQEND
  8
0
  0
POLYLINE
  8
16
 66
1
 10
0.0000
 20
0.0000
 30
0.0000
 40
0.6350
 41
0.6350
 70
0
  0
VERTEX
  8
16
 10
15.4645
 20
60.7355
 30
0.0000
 42
1.0000
  0
VERTEX
  8
16
 10
15.0155
 20
61.1845
 30
0.0000
  0
SEQEND
  8
0
  0
POLYLINE
  8
16
 66
1
 10
0.0000
 20
0.0000
 30
0.0000
 40
0.6350
 41
0.6350
 70
0
  0
VERTEX
  8
16
 10
8.4877
 20
54.6567
 30
0.0000
 42
1.0000
  0
VERTEX
  8
16
 10
8.9367
 20
54.2077
 30
0.0000
  0
SEQEND
  8
0
  0
POLYLINE
  8
16
 66
1
 10
0.0000
 20
0.0000
 30
0.0000
 40
1.2700
 41
1.2700
 70
0
  0
VERTEX
  8
16
 10
15.2400
 20
60.9600
 30
0.0000
  0
VERTEX
  8
16
 10
19.0500
 20
60.9600
 30
0.0000
  0
SEQEND
  8
0
  0
POLYLINE
  8
16
 66
1
 10
0.0000
 20
0.0000
 30
0.0000
 40
0.6350
 41
0.6350
 70
0
  0
VERTEX
  8
16
 10
19.0500
 20
60.6425
 30
0.0000
 42
1.0000
  0
VERTEX
  8
16
 10
19.0500
 20
61.2775
 30
0.0000
  0
SEQEND
  8
0
  0
POLYLINE
  8
16
 66
1
 10
0.0000
 20
0.0000
 30
0.0000
 40
0.6350
 41
0.6350
 70
0
  0
VERTEX
  8
16
 10
15.2400
 20
61.2775
 30
0.0000
 42
1.0000
  0
VERTEX
  8
16
 10
15.2400
 20
60.6425
 30
0.0000
  0
SEQEND
  8
0
  0
POLYLINE
  8
16
 66
1
 10
0.0000
 20
0.0000
 30
0.0000
 40
1.2700
 41
1.2700
 70
0
  0
VERTEX
  8
16
 10
19.0500
 20
60.9600
 30
0.0000
  0
VERTEX
  8
16
 10
22.8600
 20
57.1500
 30
0.0000
  0
SEQEND
  8
0
  0
POLYLINE
  8
16
 66
1
 10
0.0000
 20
0.0000
 30
0.0000
 40
0.6350
 41
0.6350
 70
0
  0
VERTEX
  8
16
 10
22.6355
 20
56.9255
 30
0.0000
 42
1.0000
  0
VERTEX
  8
16
 10
23.0845
 20
57.3745
 30
0.0000
  0
SEQEND
  8
0
  0
POLYLINE
  8
16
 66
1
 10
0.0000
 20
0.0000
 30
0.0000
 40
0.6350
 41
0.6350
 70
0
  0
VERTEX
  8
16
 10
19.2745
 20
61.1845
 30
0.0000
 42
1.0000
  0
VERTEX
  8
16
 10
18.8255
 20
60.7355
 30
0.0000
  0
SEQEND
  8
0
  0
POLYLINE
  8
16
 66
1
 10
0.0000
 20
0.0000
 30
0.0000
 40
1.2700
 41
1.2700
 70
0
  0
VERTEX
  8
16
 10
22.8600
 20
23.4950
 30
0.0000
  0
VERTEX
  8
16
 10
20.9550
 20
21.5900
 30
0.0000
  0
SEQEND
  8
0
  0
POLYLINE
  8
16
 66
1
 10
0.0000
 20
0.0000
 30
0.0000
 40
0.6350
 41
0.6350
 70
0
  0
VERTEX
  8
16
 10
20.7305
 20
21.8145
 30
0.0000
 42
1.0000
  0
VERTEX
  8
16
 10
21.1795
 20
21.3655
 30
0.0000
  0
SEQEND
  8
0
  0
POLYLINE
  8
16
 66
1
 10
0.0000
 20
0.0000
 30
0.0000
 40
0.6350
 41
0.6350
 70
0
  0
VERTEX
  8
16
 10
23.0845
 20
23.2705
 30
0.0000
 42
1.0000
  0
VERTEX
  8
16
 10
22.6355
 20
23.7195
 30
0.0000
  0
SEQEND
  8
0
  0
POLYLINE
  8
16
 66
1
 10
0.0000
 20
0.0000
 30
0.0000
 40
1.2700
 41
1.2700
 70
0
  0
VERTEX
  8
16
 10
20.9550
 20
21.5900
 30
0.0000
  0
VERTEX
  8
16
 10
17.7800
 20
21.5900
 30
0.0000
  0
SEQEND
  8
0
  0
POLYLINE
  8
16
 66
1
 10
0.0000
 20
0.0000
 30
0.0000
 40
0.6350
 41
0.6350
 70
0
  0
VERTEX
  8
16
 10
17.7800
 20
21.9075
 30
0.0000
 42
1.0000
  0
VERTEX
  8
16
 10
17.7800
 20
21.2725
 30
0.0000
  0
SEQEND
  8
0
  0
POLYLINE
  8
16
 66
1
 10
0.0000
 20
0.0000
 30
0.0000
 40
0.6350
 41
0.6350
 70
0
  0
VERTEX
  8
16
 10
20.9550
 20
21.2725
 30
0.0000
 42
1.0000
  0
VERTEX
  8
16
 10
20.9550
 20
21.9075
 30
0.0000
  0
SEQEND
  8
0
  0
POLYLINE
  8
16
 66
1
 10
0.0000
 20
0.0000
 30
0.0000
 40
1.2700
 41
1.2700
 70
0
  0
VERTEX
  8
16
 10
22.8600
 20
57.1500
 30
0.0000
  0
VERTEX
  8
16
 10
22.8600
 20
23.4950
 30
0.0000
  0
SEQEND
  8
0
  0
POLYLINE
  8
16
 66
1
 10
0.0000
 20
0.0000
 30
0.0000
 40
0.6350
 41
0.6350
 70
0
  0
VERTEX
  8
16
 10
22.5425
 20
23.4950
 30
0.0000
 42
1.0000
  0
VERTEX
  8
16
 10
23.1775
 20
23.4950
 30
0.0000
  0
SEQEND
  8
0
  0
POLYLINE
  8
16
 66
1
 10
0.0000
 20
0.0000
 30
0.0000
 40
0.6350
 41
0.6350
 70
0
  0
VERTEX
  8
16
 10
23.1775
 20
57.1500
 30
0.0000
 42
1.0000
  0
VERTEX
  8
16
 10
22.5425
 20
57.1500
 30
0.0000
  0
SEQEND
  8
0
  0
POLYLINE
  8
16
 66
1
 10
0.0000
 20
0.0000
 30
0.0000
 40
1.2700
 41
1.2700
 70
0
  0
VERTEX
  8
16
 10
39.3700
 20
53.3400
 30
0.0000
  0
VERTEX
  8
16
 10
39.3700
 20
57.7850
 30
0.0000
  0
SEQEND
  8
0
  0
POLYLINE
  8
16
 66
1
 10
0.0000
 20
0.0000
 30
0.0000
 40
0.6350
 41
0.6350
 70
0
  0
VERTEX
  8
16
 10
39.6875
 20
57.7850
 30
0.0000
 42
1.0000
  0
VERTEX
  8
16
 10
39.0525
 20
57.7850
 30
0.0000
  0
SEQEND
  8
0
  0
POLYLINE
  8
16
 66
1
 10
0.0000
 20
0.0000
 30
0.0000
 40
0.6350
 41
0.6350
 70
0
  0
VERTEX
  8
16
 10
39.0525
 20
53.3400
 30
0.0000
 42
1.0000
  0
VERTEX
  8
16
 10
39.6875
 20
53.3400
 30
0.0000
  0
SEQEND
  8
0
  0
POLYLINE
  8
16
 66
1
 10
0.0000
 20
0.0000
 30
0.0000
 40
1.2700
 41
1.2700
 70
0
  0
VERTEX
  8
16
 10
36.1950
 20
60.9600
 30
0.0000
  0
VERTEX
  8
16
 10
26.6700
 20
60.9600
 30
0.0000
  0
SEQEND
  8
0
  0
POLYLINE
  8
16
 66
1
 10
0.0000
 20
0.0000
 30
0.0000
 40
0.6350
 41
0.6350
 70
0
  0
VERTEX
  8
16
 10
26.6700
 20
61.2775
 30
0.0000
 42
1.0000
  0
VERTEX
  8
16
 10
26.6700
 20
60.6425
 30
0.0000
  0
SEQEND
  8
0
  0
POLYLINE
  8
16
 66
1
 10
0.0000
 20
0.0000
 30
0.0000
 40
0.6350
 41
0.6350
 70
0
  0
VERTEX
  8
16
 10
36.1950
 20
60.6425
 30
0.0000
 42
1.0000
  0
VERTEX
  8
16
 10
36.1950
 20
61.2775
 30
0.0000
  0
SEQEND
  8
0
  0
POLYLINE
  8
16
 66
1
 10
0.0000
 20
0.0000
 30
0.0000
 40
1.2700
 41
1.2700
 70
0
  0
VERTEX
  8
16
 10
26.6700
 20
60.9600
 30
0.0000
  0
VERTEX
  8
16
 10
22.8600
 20
57.1500
 30
0.0000
  0
SEQEND
  8
0
  0
POLYLINE
  8
16
 66
1
 10
0.0000
 20
0.0000
 30
0.0000
 40
0.6350
 41
0.6350
 70
0
  0
VERTEX
  8
16
 10
22.6355
 20
57.3745
 30
0.0000
 42
1.0000
  0
VERTEX
  8
16
 10
23.0845
 20
56.9255
 30
0.0000
  0
SEQEND
  8
0
  0
POLYLINE
  8
16
 66
1
 10
0.0000
 20
0.0000
 30
0.0000
 40
0.6350
 41
0.6350
 70
0
  0
VERTEX
  8
16
 10
26.8945
 20
60.7355
 30
0.0000
 42
1.0000
  0
VERTEX
  8
16
 10
26.4455
 20
61.1845
 30
0.0000
  0
SEQEND
  8
0
  0
POLYLINE
  8
16
 66
1
 10
0.0000
 20
0.0000
 30
0.0000
 40
1.2700
 41
1.2700
 70
0
  0
VERTEX
  8
16
 10
39.3700
 20
57.7850
 30
0.0000
  0
VERTEX
  8
16
 10
36.1950
 20
60.9600
 30
0.0000
  0
SEQEND
  8
0
  0
POLYLINE
  8
16
 66
1
 10
0.0000
 20
0.0000
 30
0.0000
 40
0.6350
 41
0.6350
 70
0
  0
VERTEX
  8
16
 10
36.4195
 20
61.1845
 30
0.0000
 42
1.0000
  0
VERTEX
  8
16
 10
35.9705
 20
60.7355
 30
0.0000
  0
SEQEND
  8
0
  0
POLYLINE
  8
16
 66
1
 10
0.0000
 20
0.0000
 30
0.0000
 40
0.6350
 41
0.6350
 70
0
  0
VERTEX
  8
16
 10
39.1455
 20
57.5605
 30
0.0000
 42
1.0000
  0
VERTEX
  8
16
 10
39.5945
 20
58.0095
 30
0.0000
  0
SEQEND
  8
0
  0
POLYLINE
  8
16
 66
1
 10
0.0000
 20
0.0000
 30
0.0000
 40
1.2700
 41
1.2700
 70
0
  0
VERTEX
  8
16
 10
5.7150
 20
54.4322
 30
0.0000
  0
VERTEX
  8
16
 10
3.8100
 20
53.1622
 30
0.0000
  0
SEQEND
  8
0
  0
POLYLINE
  8
16
 66
1
 10
0.0000
 20
0.0000
 30
0.0000
 40
0.6350
 41
0.6350
 70
0
  0
VERTEX
  8
16
 10
3.6339
 20
53.4264
 30
0.0000
 42
1.0000
  0
VERTEX
  8
16
 10
3.9861
 20
52.8980
 30
0.0000
  0
SEQEND
  8
0
  0
POLYLINE
  8
16
 66
1
 10
0.0000
 20
0.0000
 30
0.0000
 40
0.6350
 41
0.6350
 70
0
  0
VERTEX
  8
16
 10
5.8911
 20
54.1680
 30
0.0000
 42
1.0000
  0
VERTEX
  8
16
 10
5.5389
 20
54.6964
 30
0.0000
  0
SEQEND
  8
0
  0
POLYLINE
  8
16
 66
1
 10
0.0000
 20
0.0000
 30
0.0000
 40
1.2700
 41
1.2700
 70
0
  0
VERTEX
  8
16
 10
3.8100
 20
53.1622
 30
0.0000
  0
VERTEX
  8
16
 10
3.8100
 20
44.4500
 30
0.0000
  0
SEQEND
  8
0
  0
POLYLINE
  8
16
 66
1
 10
0.0000
 20
0.0000
 30
0.0000
 40
0.6350
 41
0.6350
 70
0
  0
VERTEX
  8
16
 10
3.4925
 20
44.4500
 30
0.0000
 42
1.0000
  0
VERTEX
  8
16
 10
4.1275
 20
44.4500
 30
0.0000
  0
SEQEND
  8
0
  0
POLYLINE
  8
16
 66
1
 10
0.0000
 20
0.0000
 30
0.0000
 40
0.6350
 41
0.6350
 70
0
  0
VERTEX
  8
16
 10
4.1275
 20
53.1622
 30
0.0000
 42
1.0000
  0
VERTEX
  8
16
 10
3.4925
 20
53.1622
 30
0.0000
  0
SEQEND
  8
0
  0
POLYLINE
  8
16
 66
1
 10
0.0000
 20
0.0000
 30
0.0000
 40
1.2700
 41
1.2700
 70
0
  0
VERTEX
  8
16
 10
3.8100
 20
44.4500
 30
0.0000
  0
VERTEX
  8
16
 10
3.8100
 20
41.9100
 30
0.0000
  0
SEQEND
  8
0
  0
POLYLINE
  8
16
 66
1
 10
0.0000
 20
0.0000
 30
0.0000
 40
0.6350
 41
0.6350
 70
0
  0
VERTEX
  8
16
 10
3.4925
 20
41.9100
 30
0.0000
 42
1.0000
  0
VERTEX
  8
16
 10
4.1275
 20
41.9100
 30
0.0000
  0
SEQEND
  8
0
  0
POLYLINE
  8
16
 66
1
 10
0.0000
 20
0.0000
 30
0.0000
 40
0.6350
 41
0.6350
 70
0
  0
VERTEX
  8
16
 10
4.1275
 20
44.4500
 30
0.0000
 42
1.0000
  0
VERTEX
  8
16
 10
3.4925
 20
44.4500
 30
0.0000
  0
SEQEND
  8
0
  0
POLYLINE
  8
16
 66
1
 10
0.0000
 20
0.0000
 30
0.0000
 40
1.2700
 41
1.2700
 70
0
  0
VERTEX
  8
16
 10
3.8100
 20
41.9100
 30
0.0000
  0
VERTEX
  8
16
 10
3.8100
 20
40.6400
 30
0.0000
  0
SEQEND
  8
0
  0
POLYLINE
  8
16
 66
1
 10
0.0000
 20
0.0000
 30
0.0000
 40
0.6350
 41
0.6350
 70
0
  0
VERTEX
  8
16
 10
3.4925
 20
40.6400
 30
0.0000
 42
1.0000
  0
VERTEX
  8
16
 10
4.1275
 20
40.6400
 30
0.0000
  0
SEQEND
  8
0
  0
POLYLINE
  8
16
 66
1
 10
0.0000
 20
0.0000
 30
0.0000
 40
0.6350
 41
0.6350
 70
0
  0
VERTEX
  8
16
 10
4.1275
 20
41.9100
 30
0.0000
 42
1.0000
  0
VERTEX
  8
16
 10
3.4925
 20
41.9100
 30
0.0000
  0
SEQEND
  8
0
  0
POLYLINE
  8
16
 66
1
 10
0.0000
 20
0.0000
 30
0.0000
 40
1.2700
 41
1.2700
 70
0
  0
VERTEX
  8
16
 10
3.8100
 20
40.6400
 30
0.0000
  0
VERTEX
  8
16
 10
5.0800
 20
39.3700
 30
0.0000
  0
SEQEND
  8
0
  0
POLYLINE
  8
16
 66
1
 10
0.0000
 20
0.0000
 30
0.0000
 40
0.6350
 41
0.6350
 70
0
  0
VERTEX
  8
16
 10
4.8555
 20
39.1455
 30
0.0000
 42
1.0000
  0
VERTEX
  8
16
 10
5.3045
 20
39.5945
 30
0.0000
  0
SEQEND
  8
0
  0
POLYLINE
  8
16
 66
1
 10
0.0000
 20
0.0000
 30
0.0000
 40
0.6350
 41
0.6350
 70
0
  0
VERTEX
  8
16
 10
4.0345
 20
40.8645
 30
0.0000
 42
1.0000
  0
VERTEX
  8
16
 10
3.5855
 20
40.4155
 30
0.0000
  0
SEQEND
  8
0
  0
POLYLINE
  8
16
 66
1
 10
0.0000
 20
0.0000
 30
0.0000
 40
1.2700
 41
1.2700
 70
0
  0
VERTEX
  8
16
 10
5.0800
 20
39.3700
 30
0.0000
  0
VERTEX
  8
16
 10
6.9850
 20
39.3700
 30
0.0000
  0
SEQEND
  8
0
  0
POLYLINE
  8
16
 66
1
 10
0.0000
 20
0.0000
 30
0.0000
 40
0.6350
 41
0.6350
 70
0
  0
VERTEX
  8
16
 10
6.9850
 20
39.0525
 30
0.0000
 42
1.0000
  0
VERTEX
  8
16
 10
6.9850
 20
39.6875
 30
0.0000
  0
SEQEND
  8
0
  0
POLYLINE
  8
16
 66
1
 10
0.0000
 20
0.0000
 30
0.0000
 40
0.6350
 41
0.6350
 70
0
  0
VERTEX
  8
16
 10
5.0800
 20
39.6875
 30
0.0000
 42
1.0000
  0
VERTEX
  8
16
 10
5.0800
 20
39.0525
 30
0.0000
  0
SEQEND
  8
0
  0
POLYLINE
  8
16
 66
1
 10
0.0000
 20
0.0000
 30
0.0000
 40
1.2700
 41
1.2700
 70
0
  0
VERTEX
  8
16
 10
6.9850
 20
41.9100
 30
0.0000
  0
VERTEX
  8
16
 10
3.8100
 20
41.9100
 30
0.0000
  0
SEQEND
  8
0
  0
POLYLINE
  8
16
 66
1
 10
0.0000
 20
0.0000
 30
0.0000
 40
0.6350
 41
0.6350
 70
0
  0
VERTEX
  8
16
 10
3.8100
 20
42.2275
 30
0.0000
 42
1.0000
  0
VERTEX
  8
16
 10
3.8100
 20
41.5925
 30
0.0000
  0
SEQEND
  8
0
  0
POLYLINE
  8
16
 66
1
 10
0.0000
 20
0.0000
 30
0.0000
 40
0.6350
 41
0.6350
 70
0
  0
VERTEX
  8
16
 10
6.9850
 20
41.5925
 30
0.0000
 42
1.0000
  0
VERTEX
  8
16
 10
6.9850
 20
42.2275
 30
0.0000
  0
SEQEND
  8
0
  0
POLYLINE
  8
16
 66
1
 10
0.0000
 20
0.0000
 30
0.0000
 40
1.2700
 41
1.2700
 70
0
  0
VERTEX
  8
16
 10
6.9850
 20
44.4500
 30
0.0000
  0
VERTEX
  8
16
 10
3.8100
 20
44.4500
 30
0.0000
  0
SEQEND
  8
0
  0
POLYLINE
  8
16
 66
1
 10
0.0000
 20
0.0000
 30
0.0000
 40
0.6350
 41
0.6350
 70
0
  0
VERTEX
  8
16
 10
3.8100
 20
44.7675
 30
0.0000
 42
1.0000
  0
VERTEX
  8
16
 10
3.8100
 20
44.1325
 30
0.0000
  0
SEQEND
  8
0
  0
POLYLINE
  8
16
 66
1
 10
0.0000
 20
0.0000
 30
0.0000
 40
0.6350
 41
0.6350
 70
0
  0
VERTEX
  8
16
 10
6.9850
 20
44.1325
 30
0.0000
 42
1.0000
  0
VERTEX
  8
16
 10
6.9850
 20
44.7675
 30
0.0000
  0
SEQEND
  8
0
  0
POLYLINE
  8
16
 66
1
 10
0.0000
 20
0.0000
 30
0.0000
 40
1.2700
 41
1.2700
 70
0
  0
VERTEX
  8
16
 10
6.3500
 20
21.5900
 30
0.0000
  0
VERTEX
  8
16
 10
8.2550
 20
23.4950
 30
0.0000
  0
SEQEND
  8
0
  0
POLYLINE
  8
16
 66
1
 10
0.0000
 20
0.0000
 30
0.0000
 40
0.6350
 41
0.6350
 70
0
  0
VERTEX
  8
16
 10
8.4795
 20
23.2705
 30
0.0000
 42
1.0000
  0
VERTEX
  8
16
 10
8.0305
 20
23.7195
 30
0.0000
  0
SEQEND
  8
0
  0
POLYLINE
  8
16
 66
1
 10
0.0000
 20
0.0000
 30
0.0000
 40
0.6350
 41
0.6350
 70
0
  0
VERTEX
  8
16
 10
6.1255
 20
21.8145
 30
0.0000
 42
1.0000
  0
VERTEX
  8
16
 10
6.5745
 20
21.3655
 30
0.0000
  0
SEQEND
  8
0
  0
POLYLINE
  8
16
 66
1
 10
0.0000
 20
0.0000
 30
0.0000
 40
1.2700
 41
1.2700
 70
0
  0
VERTEX
  8
16
 10
8.2550
 20
23.4950
 30
0.0000
  0
VERTEX
  8
16
 10
13.3350
 20
23.4950
 30
0.0000
  0
SEQEND
  8
0
  0
POLYLINE
  8
16
 66
1
 10
0.0000
 20
0.0000
 30
0.0000
 40
0.6350
 41
0.6350
 70
0
  0
VERTEX
  8
16
 10
13.3350
 20
23.1775
 30
0.0000
 42
1.0000
  0
VERTEX
  8
16
 10
13.3350
 20
23.8125
 30
0.0000
  0
SEQEND
  8
0
  0
POLYLINE
  8
16
 66
1
 10
0.0000
 20
0.0000
 30
0.0000
 40
0.6350
 41
0.6350
 70
0
  0
VERTEX
  8
16
 10
8.2550
 20
23.8125
 30
0.0000
 42
1.0000
  0
VERTEX
  8
16
 10
8.2550
 20
23.1775
 30
0.0000
  0
SEQEND
  8
0
  0
POLYLINE
  8
16
 66
1
 10
0.0000
 20
0.0000
 30
0.0000
 40
1.2700
 41
1.2700
 70
0
  0
VERTEX
  8
16
 10
15.2400
 20
21.5900
 30
0.0000
  0
VERTEX
  8
16
 10
13.3350
 20
23.4950
 30
0.0000
  0
SEQEND
  8
0
  0
POLYLINE
  8
16
 66
1
 10
0.0000
 20
0.0000
 30
0.0000
 40
0.6350
 41
0.6350
 70
0
  0
VERTEX
  8
16
 10
13.5595
 20
23.7195
 30
0.0000
 42
1.0000
  0
VERTEX
  8
16
 10
13.1105
 20
23.2705
 30
0.0000
  0
SEQEND
  8
0
  0
POLYLINE
  8
16
 66
1
 10
0.0000
 20
0.0000
 30
0.0000
 40
0.6350
 41
0.6350
 70
0
  0
VERTEX
  8
16
 10
15.0155
 20
21.3655
 30
0.0000
 42
1.0000
  0
VERTEX
  8
16
 10
15.4645
 20
21.8145
 30
0.0000
  0
SEQEND
  8
0
  0
POLYLINE
  8
16
 66
1
 10
0.0000
 20
0.0000
 30
0.0000
 40
1.2700
 41
1.2700
 70
0
  0
VERTEX
  8
16
 10
17.7800
 20
21.5900
 30
0.0000
  0
VERTEX
  8
16
 10
15.2400
 20
21.5900
 30
0.0000
  0
SEQEND
  8
0
  0
POLYLINE
  8
16
 66
1
 10
0.0000
 20
0.0000
 30
0.0000
 40
0.6350
 41
0.6350
 70
0
  0
VERTEX
  8
16
 10
15.2400
 20
21.9075
 30
0.0000
 42
1.0000
  0
VERTEX
  8
16
 10
15.2400
 20
21.2725
 30
0.0000
  0
SEQEND
  8
0
  0
POLYLINE
  8
16
 66
1
 10
0.0000
 20
0.0000
 30
0.0000
 40
0.6350
 41
0.6350
 70
0
  0
VERTEX
  8
16
 10
17.7800
 20
21.2725
 30
0.0000
 42
1.0000
  0
VERTEX
  8
16
 10
17.7800
 20
21.9075
 30
0.0000
  0
SEQEND
  8
0
  0
POLYLINE
  8
16
 66
1
 10
0.0000
 20
0.0000
 30
0.0000
 40
1.2700
 41
1.2700
 70
0
  0
VERTEX
  8
16
 10
26.6700
 20
10.4250
 30
0.0000
  0
VERTEX
  8
16
 10
23.8650
 20
7.6200
 30
0.0000
  0
SEQEND
  8
0
  0
POLYLINE
  8
16
 66
1
 10
0.0000
 20
0.0000
 30
0.0000
 40
0.6350
 41
0.6350
 70
0
  0
VERTEX
  8
16
 10
23.6405
 20
7.8445
 30
0.0000
 42
1.0000
  0
VERTEX
  8
16
 10
24.0895
 20
7.3955
 30
0.0000
  0
SEQEND
  8
0
  0
POLYLINE
  8
16
 66
1
 10
0.0000
 20
0.0000
 30
0.0000
 40
0.6350
 41
0.6350
 70
0
  0
VERTEX
  8
16
 10
26.8945
 20
10.2005
 30
0.0000
 42
1.0000
  0
VERTEX
  8
16
 10
26.4455
 20
10.6495
 30
0.0000
  0
SEQEND
  8
0
  0
POLYLINE
  8
16
 66
1
 10
0.0000
 20
0.0000
 30
0.0000
 40
1.2700
 41
1.2700
 70
0
  0
VERTEX
  8
16
 10
23.8650
 20
7.6200
 30
0.0000
  0
VERTEX
  8
16
 10
18.4150
 20
7.6200
 30
0.0000
  0
SEQEND
  8
0
  0
POLYLINE
  8
16
 66
1
 10
0.0000
 20
0.0000
 30
0.0000
 40
0.6350
 41
0.6350
 70
0
  0
VERTEX
  8
16
 10
18.4150
 20
7.9375
 30
0.0000
 42
1.0000
  0
VERTEX
  8
16
 10
18.4150
 20
7.3025
 30
0.0000
  0
SEQEND
  8
0
  0
POLYLINE
  8
16
 66
1
 10
0.0000
 20
0.0000
 30
0.0000
 40
0.6350
 41
0.6350
 70
0
  0
VERTEX
  8
16
 10
23.8650
 20
7.3025
 30
0.0000
 42
1.0000
  0
VERTEX
  8
16
 10
23.8650
 20
7.9375
 30
0.0000
  0
SEQEND
  8
0
  0
POLYLINE
  8
16
 66
1
 10
0.0000
 20
0.0000
 30
0.0000
 40
1.2700
 41
1.2700
 70
0
  0
VERTEX
  8
16
 10
18.4150
 20
7.6200
 30
0.0000
  0
VERTEX
  8
16
 10
18.2372
 20
7.6200
 30
0.0000
  0
SEQEND
  8
0
  0
POLYLINE
  8
16
 66
1
 10
0.0000
 20
0.0000
 30
0.0000
 40
0.6350
 41
0.6350
 70
0
  0
VERTEX
  8
16
 10
18.2372
 20
7.9375
 30
0.0000
 42
1.0000
  0
VERTEX
  8
16
 10
18.2372
 20
7.3025
 30
0.0000
  0
SEQEND
  8
0
  0
POLYLINE
  8
16
 66
1
 10
0.0000
 20
0.0000
 30
0.0000
 40
0.6350
 41
0.6350
 70
0
  0
VERTEX
  8
16
 10
18.4150
 20
7.3025
 30
0.0000
 42
1.0000
  0
VERTEX
  8
16
 10
18.4150
 20
7.9375
 30
0.0000
  0
SEQEND
  8
0
  0
POLYLINE
  8
16
 66
1
 10
0.0000
 20
0.0000
 30
0.0000
 40
1.2700
 41
1.2700
 70
0
  0
VERTEX
  8
16
 10
38.7350
 20
23.4950
 30
0.0000
  0
VERTEX
  8
16
 10
38.7350
 20
24.1300
 30
0.0000
  0
SEQEND
  8
0
  0
POLYLINE
  8
16
 66
1
 10
0.0000
 20
0.0000
 30
0.0000
 40
0.6350
 41
0.6350
 70
0
  0
VERTEX
  8
16
 10
39.0525
 20
24.1300
 30
0.0000
 42
1.0000
  0
VERTEX
  8
16
 10
38.4175
 20
24.1300
 30
0.0000
  0
SEQEND
  8
0
  0
POLYLINE
  8
16
 66
1
 10
0.0000
 20
0.0000
 30
0.0000
 40
0.6350
 41
0.6350
 70
0
  0
VERTEX
  8
16
 10
38.4175
 20
23.4950
 30
0.0000
 42
1.0000
  0
VERTEX
  8
16
 10
39.0525
 20
23.4950
 30
0.0000
  0
SEQEND
  8
0
  0
POLYLINE
  8
16
 66
1
 10
0.0000
 20
0.0000
 30
0.0000
 40
1.2700
 41
1.2700
 70
0
  0
VERTEX
  8
16
 10
38.7350
 20
23.4950
 30
0.0000
  0
VERTEX
  8
16
 10
38.7350
 20
19.6850
 30
0.0000
  0
SEQEND
  8
0
  0
POLYLINE
  8
16
 66
1
 10
0.0000
 20
0.0000
 30
0.0000
 40
0.6350
 41
0.6350
 70
0
  0
VERTEX
  8
16
 10
38.4175
 20
19.6850
 30
0.0000
 42
1.0000
  0
VERTEX
  8
16
 10
39.0525
 20
19.6850
 30
0.0000
  0
SEQEND
  8
0
  0
POLYLINE
  8
16
 66
1
 10
0.0000
 20
0.0000
 30
0.0000
 40
0.6350
 41
0.6350
 70
0
  0
VERTEX
  8
16
 10
39.0525
 20
23.4950
 30
0.0000
 42
1.0000
  0
VERTEX
  8
16
 10
38.4175
 20
23.4950
 30
0.0000
  0
SEQEND
  8
0
  0
POLYLINE
  8
16
 66
1
 10
0.0000
 20
0.0000
 30
0.0000
 40
1.2700
 41
1.2700
 70
0
  0
VERTEX
  8
16
 10
38.7350
 20
19.6850
 30
0.0000
  0
VERTEX
  8
16
 10
36.1950
 20
19.6850
 30
0.0000
  0
SEQEND
  8
0
  0
POLYLINE
  8
16
 66
1
 10
0.0000
 20
0.0000
 30
0.0000
 40
0.6350
 41
0.6350
 70
0
  0
VERTEX
  8
16
 10
36.1950
 20
20.0025
 30
0.0000
 42
1.0000
  0
VERTEX
  8
16
 10
36.1950
 20
19.3675
 30
0.0000
  0
SEQEND
  8
0
  0
POLYLINE
  8
16
 66
1
 10
0.0000
 20
0.0000
 30
0.0000
 40
0.6350
 41
0.6350
 70
0
  0
VERTEX
  8
16
 10
38.7350
 20
19.3675
 30
0.0000
 42
1.0000
  0
VERTEX
  8
16
 10
38.7350
 20
20.0025
 30
0.0000
  0
SEQEND
  8
0
  0
POLYLINE
  8
16
 66
1
 10
0.0000
 20
0.0000
 30
0.0000
 40
1.2700
 41
1.2700
 70
0
  0
VERTEX
  8
16
 10
34.2900
 20
17.7800
 30
0.0000
  0
VERTEX
  8
16
 10
29.8450
 20
17.7800
 30
0.0000
  0
SEQEND
  8
0
  0
POLYLINE
  8
16
 66
1
 10
0.0000
 20
0.0000
 30
0.0000
 40
0.6350
 41
0.6350
 70
0
  0
VERTEX
  8
16
 10
29.8450
 20
18.0975
 30
0.0000
 42
1.0000
  0
VERTEX
  8
16
 10
29.8450
 20
17.4625
 30
0.0000
  0
SEQEND
  8
0
  0
POLYLINE
  8
16
 66
1
 10
0.0000
 20
0.0000
 30
0.0000
 40
0.6350
 41
0.6350
 70
0
  0
VERTEX
  8
16
 10
34.2900
 20
17.4625
 30
0.0000
 42
1.0000
  0
VERTEX
  8
16
 10
34.2900
 20
18.0975
 30
0.0000
  0
SEQEND
  8
0
  0
POLYLINE
  8
16
 66
1
 10
0.0000
 20
0.0000
 30
0.0000
 40
1.2700
 41
1.2700
 70
0
  0
VERTEX
  8
16
 10
29.8450
 20
17.7800
 30
0.0000
  0
VERTEX
  8
16
 10
26.6700
 20
14.6050
 30
0.0000
  0
SEQEND
  8
0
  0
POLYLINE
  8
16
 66
1
 10
0.0000
 20
0.0000
 30
0.0000
 40
0.6350
 41
0.6350
 70
0
  0
VERTEX
  8
16
 10
26.4455
 20
14.8295
 30
0.0000
 42
1.0000
  0
VERTEX
  8
16
 10
26.8945
 20
14.3805
 30
0.0000
  0
SEQEND
  8
0
  0
POLYLINE
  8
16
 66
1
 10
0.0000
 20
0.0000
 30
0.0000
 40
0.6350
 41
0.6350
 70
0
  0
VERTEX
  8
16
 10
30.0695
 20
17.5555
 30
0.0000
 42
1.0000
  0
VERTEX
  8
16
 10
29.6205
 20
18.0045
 30
0.0000
  0
SEQEND
  8
0
  0
POLYLINE
  8
16
 66
1
 10
0.0000
 20
0.0000
 30
0.0000
 40
1.2700
 41
1.2700
 70
0
  0
VERTEX
  8
16
 10
26.6700
 20
14.6050
 30
0.0000
  0
VERTEX
  8
16
 10
26.6700
 20
10.4250
 30
0.0000
  0
SEQEND
  8
0
  0
POLYLINE
  8
16
 66
1
 10
0.0000
 20
0.0000
 30
0.0000
 40
0.6350
 41
0.6350
 70
0
  0
VERTEX
  8
16
 10
26.3525
 20
10.4250
 30
0.0000
 42
1.0000
  0
VERTEX
  8
16
 10
26.9875
 20
10.4250
 30
0.0000
  0
SEQEND
  8
0
  0
POLYLINE
  8
16
 66
1
 10
0.0000
 20
0.0000
 30
0.0000
 40
0.6350
 41
0.6350
 70
0
  0
VERTEX
  8
16
 10
26.9875
 20
14.6050
 30
0.0000
 42
1.0000
  0
VERTEX
  8
16
 10
26.3525
 20
14.6050
 30
0.0000
  0
SEQEND
  8
0
  0
POLYLINE
  8
16
 66
1
 10
0.0000
 20
0.0000
 30
0.0000
 40
1.2700
 41
1.2700
 70
0
  0
VERTEX
  8
16
 10
36.1950
 20
19.6850
 30
0.0000
  0
VERTEX
  8
16
 10
34.2900
 20
17.7800
 30
0.0000
  0
SEQEND
  8
0
  0
POLYLINE
  8
16
 66
1
 10
0.0000
 20
0.0000
 30
0.0000
 40
0.6350
 41
0.6350
 70
0
  0
VERTEX
  8
16
 10
34.0655
 20
18.0045
 30
0.0000
 42
1.0000
  0
VERTEX
  8
16
 10
34.5145
 20
17.5555
 30
0.0000
  0
SEQEND
  8
0
  0
POLYLINE
  8
16
 66
1
 10
0.0000
 20
0.0000
 30
0.0000
 40
0.6350
 41
0.6350
 70
0
  0
VERTEX
  8
16
 10
36.4195
 20
19.4605
 30
0.0000
 42
1.0000
  0
VERTEX
  8
16
 10
35.9705
 20
19.9095
 30
0.0000
  0
SEQEND
  8
0
  0
POLYLINE
  8
16
 66
1
 10
0.0000
 20
0.0000
 30
0.0000
 40
1.2700
 41
1.2700
 70
0
  0
VERTEX
  8
16
 10
6.3500
 20
16.5100
 30
0.0000
  0
VERTEX
  8
16
 10
10.1600
 20
16.5100
 30
0.0000
  0
SEQEND
  8
0
  0
POLYLINE
  8
16
 66
1
 10
0.0000
 20
0.0000
 30
0.0000
 40
0.6350
 41
0.6350
 70
0
  0
VERTEX
  8
16
 10
10.1600
 20
16.1925
 30
0.0000
 42
1.0000
  0
VERTEX
  8
16
 10
10.1600
 20
16.8275
 30
0.0000
  0
SEQEND
  8
0
  0
POLYLINE
  8
16
 66
1
 10
0.0000
 20
0.0000
 30
0.0000
 40
0.6350
 41
0.6350
 70
0
  0
VERTEX
  8
16
 10
6.3500
 20
16.8275
 30
0.0000
 42
1.0000
  0
VERTEX
  8
16
 10
6.3500
 20
16.1925
 30
0.0000
  0
SEQEND
  8
0
  0
POLYLINE
  8
16
 66
1
 10
0.0000
 20
0.0000
 30
0.0000
 40
1.2700
 41
1.2700
 70
0
  0
VERTEX
  8
16
 10
10.1600
 20
16.5100
 30
0.0000
  0
VERTEX
  8
16
 10
12.0650
 20
14.6050
 30
0.0000
  0
SEQEND
  8
0
  0
POLYLINE
  8
16
 66
1
 10
0.0000
 20
0.0000
 30
0.0000
 40
0.6350
 41
0.6350
 70
0
  0
VERTEX
  8
16
 10
11.8405
 20
14.3805
 30
0.0000
 42
1.0000
  0
VERTEX
  8
16
 10
12.2895
 20
14.8295
 30
0.0000
  0
SEQEND
  8
0
  0
POLYLINE
  8
16
 66
1
 10
0.0000
 20
0.0000
 30
0.0000
 40
0.6350
 41
0.6350
 70
0
  0
VERTEX
  8
16
 10
10.3845
 20
16.7345
 30
0.0000
 42
1.0000
  0
VERTEX
  8
16
 10
9.9355
 20
16.2855
 30
0.0000
  0
SEQEND
  8
0
  0
POLYLINE
  8
16
 66
1
 10
0.0000
 20
0.0000
 30
0.0000
 40
1.2700
 41
1.2700
 70
0
  0
VERTEX
  8
16
 10
15.8750
 20
14.6050
 30
0.0000
  0
VERTEX
  8
16
 10
18.4150
 20
12.0650
 30
0.0000
  0
SEQEND
  8
0
  0
POLYLINE
  8
16
 66
1
 10
0.0000
 20
0.0000
 30
0.0000
 40
0.6350
 41
0.6350
 70
0
  0
VERTEX
  8
16
 10
18.1905
 20
11.8405
 30
0.0000
 42
1.0000
  0
VERTEX
  8
16
 10
18.6395
 20
12.2895
 30
0.0000
  0
SEQEND
  8
0
  0
POLYLINE
  8
16
 66
1
 10
0.0000
 20
0.0000
 30
0.0000
 40
0.6350
 41
0.6350
 70
0
  0
VERTEX
  8
16
 10
16.0995
 20
14.8295
 30
0.0000
 42
1.0000
  0
VERTEX
  8
16
 10
15.6505
 20
14.3805
 30
0.0000
  0
SEQEND
  8
0
  0
POLYLINE
  8
16
 66
1
 10
0.0000
 20
0.0000
 30
0.0000
 40
1.2700
 41
1.2700
 70
0
  0
VERTEX
  8
16
 10
12.0650
 20
14.6050
 30
0.0000
  0
VERTEX
  8
16
 10
15.8750
 20
14.6050
 30
0.0000
  0
SEQEND
  8
0
  0
POLYLINE
  8
16
 66
1
 10
0.0000
 20
0.0000
 30
0.0000
 40
0.6350
 41
0.6350
 70
0
  0
VERTEX
  8
16
 10
15.8750
 20
14.2875
 30
0.0000
 42
1.0000
  0
VERTEX
  8
16
 10
15.8750
 20
14.9225
 30
0.0000
  0
SEQEND
  8
0
  0
POLYLINE
  8
16
 66
1
 10
0.0000
 20
0.0000
 30
0.0000
 40
0.6350
 41
0.6350
 70
0
  0
VERTEX
  8
16
 10
12.0650
 20
14.9225
 30
0.0000
 42
1.0000
  0
VERTEX
  8
16
 10
12.0650
 20
14.2875
 30
0.0000
  0
SEQEND
  8
0
  0
POLYLINE
  8
16
 66
1
 10
0.0000
 20
0.0000
 30
0.0000
 40
1.2700
 41
1.2700
 70
0
  0
VERTEX
  8
16
 10
18.4150
 20
12.0650
 30
0.0000
  0
VERTEX
  8
16
 10
18.4150
 20
7.6200
 30
0.0000
  0
SEQEND
  8
0
  0
POLYLINE
  8
16
 66
1
 10
0.0000
 20
0.0000
 30
0.0000
 40
0.6350
 41
0.6350
 70
0
  0
VERTEX
  8
16
 10
18.0975
 20
7.6200
 30
0.0000
 42
1.0000
  0
VERTEX
  8
16
 10
18.7325
 20
7.6200
 30
0.0000
  0
SEQEND
  8
0
  0
POLYLINE
  8
16
 66
1
 10
0.0000
 20
0.0000
 30
0.0000
 40
0.6350
 41
0.6350
 70
0
  0
VERTEX
  8
16
 10
18.7325
 20
12.0650
 30
0.0000
 42
1.0000
  0
VERTEX
  8
16
 10
18.0975
 20
12.0650
 30
0.0000
  0
SEQEND
  8
0
  0
POLYLINE
  8
16
 66
1
 10
0.0000
 20
0.0000
 30
0.0000
 40
1.2700
 41
1.2700
 70
0
  0
VERTEX
  8
16
 10
18.4150
 20
7.6200
 30
0.0000
  0
VERTEX
  8
16
 10
18.4150
 20
5.2578
 30
0.0000
  0
SEQEND
  8
0
  0
POLYLINE
  8
16
 66
1
 10
0.0000
 20
0.0000
 30
0.0000
 40
0.6350
 41
0.6350
 70
0
  0
VERTEX
  8
16
 10
18.0975
 20
5.2578
 30
0.0000
 42
1.0000
  0
VERTEX
  8
16
 10
18.7325
 20
5.2578
 30
0.0000
  0
SEQEND
  8
0
  0
POLYLINE
  8
16
 66
1
 10
0.0000
 20
0.0000
 30
0.0000
 40
0.6350
 41
0.6350
 70
0
  0
VERTEX
  8
16
 10
18.7325
 20
7.6200
 30
0.0000
 42
1.0000
  0
VERTEX
  8
16
 10
18.0975
 20
7.6200
 30
0.0000
  0
SEQEND
  8
0
  0
POLYLINE
  8
16
 66
1
 10
0.0000
 20
0.0000
 30
0.0000
 40
1.2700
 41
1.2700
 70
0
  0
VERTEX
  8
16
 10
18.4150
 20
5.2578
 30
0.0000
  0
VERTEX
  8
16
 10
18.5928
 20
5.7150
 30
0.0000
  0
SEQEND
  8
0
  0
POLYLINE
  8
16
 66
1
 10
0.0000
 20
0.0000
 30
0.0000
 40
0.6350
 41
0.6350
 70
0
  0
VERTEX
  8
16
 10
18.8887
 20
5.5999
 30
0.0000
 42
1.0000
  0
VERTEX
  8
16
 10
18.2969
 20
5.8301
 30
0.0000
  0
SEQEND
  8
0
  0
POLYLINE
  8
16
 66
1
 10
0.0000
 20
0.0000
 30
0.0000
 40
0.6350
 41
0.6350
 70
0
  0
VERTEX
  8
16
 10
18.1191
 20
5.3729
 30
0.0000
 42
1.0000
  0
VERTEX
  8
16
 10
18.7109
 20
5.1427
 30
0.0000
  0
SEQEND
  8
0
  0
POLYLINE
  8
16
 66
1
 10
0.0000
 20
0.0000
 30
0.0000
 40
0.6096
 41
0.6096
 70
0
  0
VERTEX
  8
16
 10
1.2700
 20
1.2700
 30
0.0000
  0
VERTEX
  8
16
 10
45.7200
 20
1.2700
 30
0.0000
  0
SEQEND
  8
0
  0
POLYLINE
  8
16
 66
1
 10
0.0000
 20
0.0000
 30
0.0000
 40
0.3048
 41
0.3048
 70
0
  0
VERTEX
  8
16
 10
45.7200
 20
1.1176
 30
0.0000
 42
1.0000
  0
VERTEX
  8
16
 10
45.7200
 20
1.4224
 30
0.0000
  0
SEQEND
  8
0
  0
POLYLINE
  8
16
 66
1
 10
0.0000
 20
0.0000
 30
0.0000
 40
0.3048
 41
0.3048
 70
0
  0
VERTEX
  8
16
 10
1.2700
 20
1.4224
 30
0.0000
 42
1.0000
  0
VERTEX
  8
16
 10
1.2700
 20
1.1176
 30
0.0000
  0
SEQEND
  8
0
  0
POLYLINE
  8
16
 66
1
 10
0.0000
 20
0.0000
 30
0.0000
 40
0.6096
 41
0.6096
 70
0
  0
VERTEX
  8
16
 10
45.7200
 20
1.2700
 30
0.0000
  0
VERTEX
  8
16
 10
45.7200
 20
69.8500
 30
0.0000
  0
SEQEND
  8
0
  0
POLYLINE
  8
16
 66
1
 10
0.0000
 20
0.0000
 30
0.0000
 40
0.3048
 41
0.3048
 70
0
  0
VERTEX
  8
16
 10
45.8724
 20
69.8500
 30
0.0000
 42
1.0000
  0
VERTEX
  8
16
 10
45.5676
 20
69.8500
 30
0.0000
  0
SEQEND
  8
0
  0
POLYLINE
  8
16
 66
1
 10
0.0000
 20
0.0000
 30
0.0000
 40
0.3048
 41
0.3048
 70
0
  0
VERTEX
  8
16
 10
45.5676
 20
1.2700
 30
0.0000
 42
1.0000
  0
VERTEX
  8
16
 10
45.8724
 20
1.2700
 30
0.0000
  0
SEQEND
  8
0
  0
POLYLINE
  8
16
 66
1
 10
0.0000
 20
0.0000
 30
0.0000
 40
0.6096
 41
0.6096
 70
0
  0
VERTEX
  8
16
 10
45.7200
 20
69.8500
 30
0.0000
  0
VERTEX
  8
16
 10
43.8150
 20
71.7550
 30
0.0000
  0
SEQEND
  8
0
  0
POLYLINE
  8
16
 66
1
 10
0.0000
 20
0.0000
 30
0.0000
 40
0.3048
 41
0.3048
 70
0
  0
VERTEX
  8
16
 10
43.9228
 20
71.8628
 30
0.0000
 42
1.0000
  0
VERTEX
  8
16
 10
43.7072
 20
71.6472
 30
0.0000
  0
SEQEND
  8
0
  0
POLYLINE
  8
16
 66
1
 10
0.0000
 20
0.0000
 30
0.0000
 40
0.3048
 41
0.3048
 70
0
  0
VERTEX
  8
16
 10
45.6122
 20
69.7422
 30
0.0000
 42
1.0000
  0
VERTEX
  8
16
 10
45.8278
 20
69.9578
 30
0.0000
  0
SEQEND
  8
0
  0
POLYLINE
  8
16
 66
1
 10
0.0000
 20
0.0000
 30
0.0000
 40
0.6096
 41
0.6096
 70
0
  0
VERTEX
  8
16
 10
43.8150
 20
71.7550
 30
0.0000
  0
VERTEX
  8
16
 10
1.2700
 20
71.7550
 30
0.0000
  0
SEQEND
  8
0
  0
POLYLINE
  8
16
 66
1
 10
0.0000
 20
0.0000
 30
0.0000
 40
0.3048
 41
0.3048
 70
0
  0
VERTEX
  8
16
 10
1.2700
 20
71.9074
 30
0.0000
 42
1.0000
  0
VERTEX
  8
16
 10
1.2700
 20
71.6026
 30
0.0000
  0
SEQEND
  8
0
  0
POLYLINE
  8
16
 66
1
 10
0.0000
 20
0.0000
 30
0.0000
 40
0.3048
 41
0.3048
 70
0
  0
VERTEX
  8
16
 10
43.8150
 20
71.6026
 30
0.0000
 42
1.0000
  0
VERTEX
  8
16
 10
43.8150
 20
71.9074
 30
0.0000
  0
SEQEND
  8
0
  0
POLYLINE
  8
16
 66
1
 10
0.0000
 20
0.0000
 30
0.0000
 40
0.6096
 41
0.6096
 70
0
  0
VERTEX
  8
16
 10
1.2700
 20
71.7550
 30
0.0000
  0
VERTEX
  8
16
 10
1.2700
 20
1.2700
 30
0.0000
  0
SEQEND
  8
0
  0
POLYLINE
  8
16
 66
1
 10
0.0000
 20
0.0000
 30
0.0000
 40
0.3048
 41
0.3048
 70
0
  0
VERTEX
  8
16
 10
1.1176
 20
1.2700
 30
0.0000
 42
1.0000
  0
VERTEX
  8
16
 10
1.4224
 20
1.2700
 30
0.0000
  0
SEQEND
  8
0
  0
POLYLINE
  8
16
 66
1
 10
0.0000
 20
0.0000
 30
0.0000
 40
0.3048
 41
0.3048
 70
0
  0
VERTEX
  8
16
 10
1.4224
 20
71.7550
 30
0.0000
 42
1.0000
  0
VERTEX
  8
16
 10
1.1176
 20
71.7550
 30
0.0000
  0
SEQEND
  8
0
  0
POLYLINE
  8
16
 66
1
 10
0.0000
 20
0.0000
 30
0.0000
 40
1.2700
 41
1.2700
 70
0
  0
VERTEX
  8
16
 10
8.2550
 20
49.5300
 30
0.0000
  0
VERTEX
  8
16
 10
6.9850
 20
48.2600
 30
0.0000
  0
SEQEND
  8
0
  0
POLYLINE
  8
16
 66
1
 10
0.0000
 20
0.0000
 30
0.0000
 40
0.6350
 41
0.6350
 70
0
  0
VERTEX
  8
16
 10
6.7605
 20
48.4845
 30
0.0000
 42
1.0000
  0
VERTEX
  8
16
 10
7.2095
 20
48.0355
 30
0.0000
  0
SEQEND
  8
0
  0
POLYLINE
  8
16
 66
1
 10
0.0000
 20
0.0000
 30
0.0000
 40
0.6350
 41
0.6350
 70
0
  0
VERTEX
  8
16
 10
8.4795
 20
49.3055
 30
0.0000
 42
1.0000
  0
VERTEX
  8
16
 10
8.0305
 20
49.7545
 30
0.0000
  0
SEQEND
  8
0
  0
POLYLINE
  8
16
 66
1
 10
0.0000
 20
0.0000
 30
0.0000
 40
1.2700
 41
1.2700
 70
0
  0
VERTEX
  8
16
 10
6.9850
 20
48.2600
 30
0.0000
  0
VERTEX
  8
16
 10
6.9850
 20
46.9900
 30
0.0000
  0
SEQEND
  8
0
  0
POLYLINE
  8
16
 66
1
 10
0.0000
 20
0.0000
 30
0.0000
 40
0.6350
 41
0.6350
 70
0
  0
VERTEX
  8
16
 10
6.6675
 20
46.9900
 30
0.0000
 42
1.0000
  0
VERTEX
  8
16
 10
7.3025
 20
46.9900
 30
0.0000
  0
SEQEND
  8
0
  0
POLYLINE
  8
16
 66
1
 10
0.0000
 20
0.0000
 30
0.0000
 40
0.6350
 41
0.6350
 70
0
  0
VERTEX
  8
16
 10
7.3025
 20
48.2600
 30
0.0000
 42
1.0000
  0
VERTEX
  8
16
 10
6.6675
 20
48.2600
 30
0.0000
  0
SEQEND
  8
0
  0
POLYLINE
  8
16
 66
1
 10
0.0000
 20
0.0000
 30
0.0000
 40
1.2700
 41
1.2700
 70
0
  0
VERTEX
  8
16
 10
17.7800
 20
49.5300
 30
0.0000
  0
VERTEX
  8
16
 10
8.2550
 20
49.5300
 30
0.0000
  0
SEQEND
  8
0
  0
POLYLINE
  8
16
 66
1
 10
0.0000
 20
0.0000
 30
0.0000
 40
0.6350
 41
0.6350
 70
0
  0
VERTEX
  8
16
 10
8.2550
 20
49.8475
 30
0.0000
 42
1.0000
  0
VERTEX
  8
16
 10
8.2550
 20
49.2125
 30
0.0000
  0
SEQEND
  8
0
  0
POLYLINE
  8
16
 66
1
 10
0.0000
 20
0.0000
 30
0.0000
 40
0.6350
 41
0.6350
 70
0
  0
VERTEX
  8
16
 10
17.7800
 20
49.2125
 30
0.0000
 42
1.0000
  0
VERTEX
  8
16
 10
17.7800
 20
49.8475
 30
0.0000
  0
SEQEND
  8
0
  0
POLYLINE
  8
16
 66
1
 10
0.0000
 20
0.0000
 30
0.0000
 40
1.2700
 41
1.2700
 70
0
  0
VERTEX
  8
16
 10
9.5250
 20
46.9900
 30
0.0000
  0
VERTEX
  8
16
 10
17.7800
 20
46.9900
 30
0.0000
  0
SEQEND
  8
0
  0
POLYLINE
  8
16
 66
1
 10
0.0000
 20
0.0000
 30
0.0000
 40
0.6350
 41
0.6350
 70
0
  0
VERTEX
  8
16
 10
17.7800
 20
46.6725
 30
0.0000
 42
1.0000
  0
VERTEX
  8
16
 10
17.7800
 20
47.3075
 30
0.0000
  0
SEQEND
  8
0
  0
POLYLINE
  8
16
 66
1
 10
0.0000
 20
0.0000
 30
0.0000
 40
0.6350
 41
0.6350
 70
0
  0
VERTEX
  8
16
 10
9.5250
 20
47.3075
 30
0.0000
 42
1.0000
  0
VERTEX
  8
16
 10
9.5250
 20
46.6725
 30
0.0000
  0
SEQEND
  8
0
  0
POLYLINE
  8
16
 66
1
 10
0.0000
 20
0.0000
 30
0.0000
 40
1.2700
 41
1.2700
 70
0
  0
VERTEX
  8
16
 10
9.5250
 20
44.4500
 30
0.0000
  0
VERTEX
  8
16
 10
17.7800
 20
44.4500
 30
0.0000
  0
SEQEND
  8
0
  0
POLYLINE
  8
16
 66
1
 10
0.0000
 20
0.0000
 30
0.0000
 40
0.6350
 41
0.6350
 70
0
  0
VERTEX
  8
16
 10
17.7800
 20
44.1325
 30
0.0000
 42
1.0000
  0
VERTEX
  8
16
 10
17.7800
 20
44.7675
 30
0.0000
  0
SEQEND
  8
0
  0
POLYLINE
  8
16
 66
1
 10
0.0000
 20
0.0000
 30
0.0000
 40
0.6350
 41
0.6350
 70
0
  0
VERTEX
  8
16
 10
9.5250
 20
44.7675
 30
0.0000
 42
1.0000
  0
VERTEX
  8
16
 10
9.5250
 20
44.1325
 30
0.0000
  0
SEQEND
  8
0
  0
POLYLINE
  8
16
 66
1
 10
0.0000
 20
0.0000
 30
0.0000
 40
1.2700
 41
1.2700
 70
0
  0
VERTEX
  8
16
 10
17.7800
 20
41.9100
 30
0.0000
  0
VERTEX
  8
16
 10
9.5250
 20
41.9100
 30
0.0000
  0
SEQEND
  8
0
  0
POLYLINE
  8
16
 66
1
 10
0.0000
 20
0.0000
 30
0.0000
 40
0.6350
 41
0.6350
 70
0
  0
VERTEX
  8
16
 10
9.5250
 20
42.2275
 30
0.0000
 42
1.0000
  0
VERTEX
  8
16
 10
9.5250
 20
41.5925
 30
0.0000
  0
SEQEND
  8
0
  0
POLYLINE
  8
16
 66
1
 10
0.0000
 20
0.0000
 30
0.0000
 40
0.6350
 41
0.6350
 70
0
  0
VERTEX
  8
16
 10
17.7800
 20
41.5925
 30
0.0000
 42
1.0000
  0
VERTEX
  8
16
 10
17.7800
 20
42.2275
 30
0.0000
  0
SEQEND
  8
0
  0
POLYLINE
  8
16
 66
1
 10
0.0000
 20
0.0000
 30
0.0000
 40
1.2700
 41
1.2700
 70
0
  0
VERTEX
  8
16
 10
9.5250
 20
39.3700
 30
0.0000
  0
VERTEX
  8
16
 10
17.7800
 20
39.3700
 30
0.0000
  0
SEQEND
  8
0
  0
POLYLINE
  8
16
 66
1
 10
0.0000
 20
0.0000
 30
0.0000
 40
0.6350
 41
0.6350
 70
0
  0
VERTEX
  8
16
 10
17.7800
 20
39.0525
 30
0.0000
 42
1.0000
  0
VERTEX
  8
16
 10
17.7800
 20
39.6875
 30
0.0000
  0
SEQEND
  8
0
  0
POLYLINE
  8
16
 66
1
 10
0.0000
 20
0.0000
 30
0.0000
 40
0.6350
 41
0.6350
 70
0
  0
VERTEX
  8
16
 10
9.5250
 20
39.6875
 30
0.0000
 42
1.0000
  0
VERTEX
  8
16
 10
9.5250
 20
39.0525
 30
0.0000
  0
SEQEND
  8
0
  0
POLYLINE
  8
16
 66
1
 10
0.0000
 20
0.0000
 30
0.0000
 40
1.2700
 41
1.2700
 70
0
  0
VERTEX
  8
16
 10
9.5250
 20
36.8300
 30
0.0000
  0
VERTEX
  8
16
 10
17.7800
 20
36.8300
 30
0.0000
  0
SEQEND
  8
0
  0
POLYLINE
  8
16
 66
1
 10
0.0000
 20
0.0000
 30
0.0000
 40
0.6350
 41
0.6350
 70
0
  0
VERTEX
  8
16
 10
17.7800
 20
36.5125
 30
0.0000
 42
1.0000
  0
VERTEX
  8
16
 10
17.7800
 20
37.1475
 30
0.0000
  0
SEQEND
  8
0
  0
POLYLINE
  8
16
 66
1
 10
0.0000
 20
0.0000
 30
0.0000
 40
0.6350
 41
0.6350
 70
0
  0
VERTEX
  8
16
 10
9.5250
 20
37.1475
 30
0.0000
 42
1.0000
  0
VERTEX
  8
16
 10
9.5250
 20
36.5125
 30
0.0000
  0
SEQEND
  8
0
  0
POLYLINE
  8
16
 66
1
 10
0.0000
 20
0.0000
 30
0.0000
 40
1.2700
 41
1.2700
 70
0
  0
VERTEX
  8
16
 10
9.5250
 20
34.2900
 30
0.0000
  0
VERTEX
  8
16
 10
17.7800
 20
34.2900
 30
0.0000
  0
SEQEND
  8
0
  0
POLYLINE
  8
16
 66
1
 10
0.0000
 20
0.0000
 30
0.0000
 40
0.6350
 41
0.6350
 70
0
  0
VERTEX
  8
16
 10
17.7800
 20
33.9725
 30
0.0000
 42
1.0000
  0
VERTEX
  8
16
 10
17.7800
 20
34.6075
 30
0.0000
  0
SEQEND
  8
0
  0
POLYLINE
  8
16
 66
1
 10
0.0000
 20
0.0000
 30
0.0000
 40
0.6350
 41
0.6350
 70
0
  0
VERTEX
  8
16
 10
9.5250
 20
34.6075
 30
0.0000
 42
1.0000
  0
VERTEX
  8
16
 10
9.5250
 20
33.9725
 30
0.0000
  0
SEQEND
  8
0
  0
POLYLINE
  8
16
 66
1
 10
0.0000
 20
0.0000
 30
0.0000
 40
1.2700
 41
1.2700
 70
0
  0
VERTEX
  8
16
 10
9.5250
 20
31.7500
 30
0.0000
  0
VERTEX
  8
16
 10
17.7800
 20
31.7500
 30
0.0000
  0
SEQEND
  8
0
  0
POLYLINE
  8
16
 66
1
 10
0.0000
 20
0.0000
 30
0.0000
 40
0.6350
 41
0.6350
 70
0
  0
VERTEX
  8
16
 10
17.7800
 20
31.4325
 30
0.0000
 42
1.0000
  0
VERTEX
  8
16
 10
17.7800
 20
32.0675
 30
0.0000
  0
SEQEND
  8
0
  0
POLYLINE
  8
16
 66
1
 10
0.0000
 20
0.0000
 30
0.0000
 40
0.6350
 41
0.6350
 70
0
  0
VERTEX
  8
16
 10
9.5250
 20
32.0675
 30
0.0000
 42
1.0000
  0
VERTEX
  8
16
 10
9.5250
 20
31.4325
 30
0.0000
  0
SEQEND
  8
0
  0
POLYLINE
  8
16
 66
1
 10
0.0000
 20
0.0000
 30
0.0000
 40
1.2700
 41
1.2700
 70
0
  0
VERTEX
  8
16
 10
39.3700
 20
42.5450
 30
0.0000
  0
VERTEX
  8
16
 10
39.3700
 20
45.7200
 30
0.0000
  0
SEQEND
  8
0
  0
POLYLINE
  8
16
 66
1
 10
0.0000
 20
0.0000
 30
0.0000
 40
0.6350
 41
0.6350
 70
0
  0
VERTEX
  8
16
 10
39.6875
 20
45.7200
 30
0.0000
 42
1.0000
  0
VERTEX
  8
16
 10
39.0525
 20
45.7200
 30
0.0000
  0
SEQEND
  8
0
  0
POLYLINE
  8
16
 66
1
 10
0.0000
 20
0.0000
 30
0.0000
 40
0.6350
 41
0.6350
 70
0
  0
VERTEX
  8
16
 10
39.0525
 20
42.5450
 30
0.0000
 42
1.0000
  0
VERTEX
  8
16
 10
39.6875
 20
42.5450
 30
0.0000
  0
SEQEND
  8
0
  0
POLYLINE
  8
16
 66
1
 10
0.0000
 20
0.0000
 30
0.0000
 40
1.2700
 41
1.2700
 70
0
  0
VERTEX
  8
16
 10
33.0200
 20
39.3700
 30
0.0000
  0
VERTEX
  8
16
 10
36.1950
 20
39.3700
 30
0.0000
  0
SEQEND
  8
0
  0
POLYLINE
  8
16
 66
1
 10
0.0000
 20
0.0000
 30
0.0000
 40
0.6350
 41
0.6350
 70
0
  0
VERTEX
  8
16
 10
36.1950
 20
39.0525
 30
0.0000
 42
1.0000
  0
VERTEX
  8
16
 10
36.1950
 20
39.6875
 30
0.0000
  0
SEQEND
  8
0
  0
POLYLINE
  8
16
 66
1
 10
0.0000
 20
0.0000
 30
0.0000
 40
0.6350
 41
0.6350
 70
0
  0
VERTEX
  8
16
 10
33.0200
 20
39.6875
 30
0.0000
 42
1.0000
  0
VERTEX
  8
16
 10
33.0200
 20
39.0525
 30
0.0000
  0
SEQEND
  8
0
  0
POLYLINE
  8
16
 66
1
 10
0.0000
 20
0.0000
 30
0.0000
 40
1.2700
 41
1.2700
 70
0
  0
VERTEX
  8
16
 10
36.1950
 20
39.3700
 30
0.0000
  0
VERTEX
  8
16
 10
39.3700
 20
42.5450
 30
0.0000
  0
SEQEND
  8
0
  0
POLYLINE
  8
16
 66
1
 10
0.0000
 20
0.0000
 30
0.0000
 40
0.6350
 41
0.6350
 70
0
  0
VERTEX
  8
16
 10
39.5945
 20
42.3205
 30
0.0000
 42
1.0000
  0
VERTEX
  8
16
 10
39.1455
 20
42.7695
 30
0.0000
  0
SEQEND
  8
0
  0
POLYLINE
  8
16
 66
1
 10
0.0000
 20
0.0000
 30
0.0000
 40
0.6350
 41
0.6350
 70
0
  0
VERTEX
  8
16
 10
35.9705
 20
39.5945
 30
0.0000
 42
1.0000
  0
VERTEX
  8
16
 10
36.4195
 20
39.1455
 30
0.0000
  0
SEQEND
  8
0
  0
POLYLINE
  8
16
 66
1
 10
0.0000
 20
0.0000
 30
0.0000
 40
1.2700
 41
1.2700
 70
0
  0
VERTEX
  8
16
 10
38.7350
 20
14.6050
 30
0.0000
  0
VERTEX
  8
16
 10
36.1950
 20
14.6050
 30
0.0000
  0
SEQEND
  8
0
  0
POLYLINE
  8
16
 66
1
 10
0.0000
 20
0.0000
 30
0.0000
 40
0.6350
 41
0.6350
 70
0
  0
VERTEX
  8
16
 10
36.1950
 20
14.9225
 30
0.0000
 42
1.0000
  0
VERTEX
  8
16
 10
36.1950
 20
14.2875
 30
0.0000
  0
SEQEND
  8
0
  0
POLYLINE
  8
16
 66
1
 10
0.0000
 20
0.0000
 30
0.0000
 40
0.6350
 41
0.6350
 70
0
  0
VERTEX
  8
16
 10
38.7350
 20
14.2875
 30
0.0000
 42
1.0000
  0
VERTEX
  8
16
 10
38.7350
 20
14.9225
 30
0.0000
  0
SEQEND
  8
0
  0
POLYLINE
  8
16
 66
1
 10
0.0000
 20
0.0000
 30
0.0000
 40
1.2700
 41
1.2700
 70
0
  0
VERTEX
  8
16
 10
36.1950
 20
14.6050
 30
0.0000
  0
VERTEX
  8
16
 10
34.9250
 20
13.3350
 30
0.0000
  0
SEQEND
  8
0
  0
POLYLINE
  8
16
 66
1
 10
0.0000
 20
0.0000
 30
0.0000
 40
0.6350
 41
0.6350
 70
0
  0
VERTEX
  8
16
 10
34.7005
 20
13.5595
 30
0.0000
 42
1.0000
  0
VERTEX
  8
16
 10
35.1495
 20
13.1105
 30
0.0000
  0
SEQEND
  8
0
  0
POLYLINE
  8
16
 66
1
 10
0.0000
 20
0.0000
 30
0.0000
 40
0.6350
 41
0.6350
 70
0
  0
VERTEX
  8
16
 10
36.4195
 20
14.3805
 30
0.0000
 42
1.0000
  0
VERTEX
  8
16
 10
35.9705
 20
14.8295
 30
0.0000
  0
SEQEND
  8
0
  0
POLYLINE
  8
16
 66
1
 10
0.0000
 20
0.0000
 30
0.0000
 40
1.2700
 41
1.2700
 70
0
  0
VERTEX
  8
16
 10
39.3700
 20
34.2900
 30
0.0000
  0
VERTEX
  8
16
 10
42.5450
 20
34.2900
 30
0.0000
  0
SEQEND
  8
0
  0
POLYLINE
  8
16
 66
1
 10
0.0000
 20
0.0000
 30
0.0000
 40
0.6350
 41
0.6350
 70
0
  0
VERTEX
  8
16
 10
42.5450
 20
33.9725
 30
0.0000
 42
1.0000
  0
VERTEX
  8
16
 10
42.5450
 20
34.6075
 30
0.0000
  0
SEQEND
  8
0
  0
POLYLINE
  8
16
 66
1
 10
0.0000
 20
0.0000
 30
0.0000
 40
0.6350
 41
0.6350
 70
0
  0
VERTEX
  8
16
 10
39.3700
 20
34.6075
 30
0.0000
 42
1.0000
  0
VERTEX
  8
16
 10
39.3700
 20
33.9725
 30
0.0000
  0
SEQEND
  8
0
  0
POLYLINE
  8
16
 66
1
 10
0.0000
 20
0.0000
 30
0.0000
 40
1.2700
 41
1.2700
 70
0
  0
VERTEX
  8
16
 10
42.5450
 20
34.2900
 30
0.0000
  0
VERTEX
  8
16
 10
43.8150
 20
33.0200
 30
0.0000
  0
SEQEND
  8
0
  0
POLYLINE
  8
16
 66
1
 10
0.0000
 20
0.0000
 30
0.0000
 40
0.6350
 41
0.6350
 70
0
  0
VERTEX
  8
16
 10
43.5905
 20
32.7955
 30
0.0000
 42
1.0000
  0
VERTEX
  8
16
 10
44.0395
 20
33.2445
 30
0.0000
  0
SEQEND
  8
0
  0
POLYLINE
  8
16
 66
1
 10
0.0000
 20
0.0000
 30
0.0000
 40
0.6350
 41
0.6350
 70
0
  0
VERTEX
  8
16
 10
42.7695
 20
34.5145
 30
0.0000
 42
1.0000
  0
VERTEX
  8
16
 10
42.3205
 20
34.0655
 30
0.0000
  0
SEQEND
  8
0
  0
POLYLINE
  8
16
 66
1
 10
0.0000
 20
0.0000
 30
0.0000
 40
1.2700
 41
1.2700
 70
0
  0
VERTEX
  8
16
 10
43.8150
 20
33.0200
 30
0.0000
  0
VERTEX
  8
16
 10
43.8150
 20
15.8750
 30
0.0000
  0
SEQEND
  8
0
  0
POLYLINE
  8
16
 66
1
 10
0.0000
 20
0.0000
 30
0.0000
 40
0.6350
 41
0.6350
 70
0
  0
VERTEX
  8
16
 10
43.4975
 20
15.8750
 30
0.0000
 42
1.0000
  0
VERTEX
  8
16
 10
44.1325
 20
15.8750
 30
0.0000
  0
SEQEND
  8
0
  0
POLYLINE
  8
16
 66
1
 10
0.0000
 20
0.0000
 30
0.0000
 40
0.6350
 41
0.6350
 70
0
  0
VERTEX
  8
16
 10
44.1325
 20
33.0200
 30
0.0000
 42
1.0000
  0
VERTEX
  8
16
 10
43.4975
 20
33.0200
 30
0.0000
  0
SEQEND
  8
0
  0
POLYLINE
  8
16
 66
1
 10
0.0000
 20
0.0000
 30
0.0000
 40
1.2700
 41
1.2700
 70
0
  0
VERTEX
  8
16
 10
43.8150
 20
15.8750
 30
0.0000
  0
VERTEX
  8
16
 10
42.5450
 20
14.6050
 30
0.0000
  0
SEQEND
  8
0
  0
POLYLINE
  8
16
 66
1
 10
0.0000
 20
0.0000
 30
0.0000
 40
0.6350
 41
0.6350
 70
0
  0
VERTEX
  8
16
 10
42.3205
 20
14.8295
 30
0.0000
 42
1.0000
  0
VERTEX
  8
16
 10
42.7695
 20
14.3805
 30
0.0000
  0
SEQEND
  8
0
  0
POLYLINE
  8
16
 66
1
 10
0.0000
 20
0.0000
 30
0.0000
 40
0.6350
 41
0.6350
 70
0
  0
VERTEX
  8
16
 10
44.0395
 20
15.6505
 30
0.0000
 42
1.0000
  0
VERTEX
  8
16
 10
43.5905
 20
16.0995
 30
0.0000
  0
SEQEND
  8
0
  0
POLYLINE
  8
16
 66
1
 10
0.0000
 20
0.0000
 30
0.0000
 40
1.2700
 41
1.2700
 70
0
  0
VERTEX
  8
16
 10
42.5450
 20
14.6050
 30
0.0000
  0
VERTEX
  8
16
 10
38.7350
 20
14.6050
 30
0.0000
  0
SEQEND
  8
0
  0
POLYLINE
  8
16
 66
1
 10
0.0000
 20
0.0000
 30
0.0000
 40
0.6350
 41
0.6350
 70
0
  0
VERTEX
  8
16
 10
38.7350
 20
14.9225
 30
0.0000
 42
1.0000
  0
VERTEX
  8
16
 10
38.7350
 20
14.2875
 30
0.0000
  0
SEQEND
  8
0
  0
POLYLINE
  8
16
 66
1
 10
0.0000
 20
0.0000
 30
0.0000
 40
0.6350
 41
0.6350
 70
0
  0
VERTEX
  8
16
 10
42.5450
 20
14.2875
 30
0.0000
 42
1.0000
  0
VERTEX
  8
16
 10
42.5450
 20
14.9225
 30
0.0000
  0
SEQEND
  8
0
  0
POLYLINE
  8
16
 66
1
 10
0.0000
 20
0.0000
 30
0.0000
 40
1.2700
 41
1.2700
 70
0
  0
VERTEX
  8
16
 10
33.0200
 20
41.9100
 30
0.0000
  0
VERTEX
  8
16
 10
34.9250
 20
41.9100
 30
0.0000
  0
SEQEND
  8
0
  0
POLYLINE
  8
16
 66
1
 10
0.0000
 20
0.0000
 30
0.0000
 40
0.6350
 41
0.6350
 70
0
  0
VERTEX
  8
16
 10
34.9250
 20
41.5925
 30
0.0000
 42
1.0000
  0
VERTEX
  8
16
 10
34.9250
 20
42.2275
 30
0.0000
  0
SEQEND
  8
0
  0
POLYLINE
  8
16
 66
1
 10
0.0000
 20
0.0000
 30
0.0000
 40
0.6350
 41
0.6350
 70
0
  0
VERTEX
  8
16
 10
33.0200
 20
42.2275
 30
0.0000
 42
1.0000
  0
VERTEX
  8
16
 10
33.0200
 20
41.5925
 30
0.0000
  0
SEQEND
  8
0
  0
POLYLINE
  8
16
 66
1
 10
0.0000
 20
0.0000
 30
0.0000
 40
1.2700
 41
1.2700
 70
0
  0
VERTEX
  8
16
 10
34.9250
 20
41.9100
 30
0.0000
  0
VERTEX
  8
16
 10
36.1950
 20
43.1800
 30
0.0000
  0
SEQEND
  8
0
  0
POLYLINE
  8
16
 66
1
 10
0.0000
 20
0.0000
 30
0.0000
 40
0.6350
 41
0.6350
 70
0
  0
VERTEX
  8
16
 10
36.4195
 20
42.9555
 30
0.0000
 42
1.0000
  0
VERTEX
  8
16
 10
35.9705
 20
43.4045
 30
0.0000
  0
SEQEND
  8
0
  0
POLYLINE
  8
16
 66
1
 10
0.0000
 20
0.0000
 30
0.0000
 40
0.6350
 41
0.6350
 70
0
  0
VERTEX
  8
16
 10
34.7005
 20
42.1345
 30
0.0000
 42
1.0000
  0
VERTEX
  8
16
 10
35.1495
 20
41.6855
 30
0.0000
  0
SEQEND
  8
0
  0
POLYLINE
  8
16
 66
1
 10
0.0000
 20
0.0000
 30
0.0000
 40
1.2700
 41
1.2700
 70
0
  0
VERTEX
  8
16
 10
36.1950
 20
46.9900
 30
0.0000
  0
VERTEX
  8
16
 10
37.4650
 20
48.2600
 30
0.0000
  0
SEQEND
  8
0
  0
POLYLINE
  8
16
 66
1
 10
0.0000
 20
0.0000
 30
0.0000
 40
0.6350
 41
0.6350
 70
0
  0
VERTEX
  8
16
 10
37.6895
 20
48.0355
 30
0.0000
 42
1.0000
  0
VERTEX
  8
16
 10
37.2405
 20
48.4845
 30
0.0000
  0
SEQEND
  8
0
  0
POLYLINE
  8
16
 66
1
 10
0.0000
 20
0.0000
 30
0.0000
 40
0.6350
 41
0.6350
 70
0
  0
VERTEX
  8
16
 10
35.9705
 20
47.2145
 30
0.0000
 42
1.0000
  0
VERTEX
  8
16
 10
36.4195
 20
46.7655
 30
0.0000
  0
SEQEND
  8
0
  0
POLYLINE
  8
16
 66
1
 10
0.0000
 20
0.0000
 30
0.0000
 40
1.2700
 41
1.2700
 70
0
  0
VERTEX
  8
16
 10
37.4650
 20
48.2600
 30
0.0000
  0
VERTEX
  8
16
 10
39.3700
 20
48.2600
 30
0.0000
  0
SEQEND
  8
0
  0
POLYLINE
  8
16
 66
1
 10
0.0000
 20
0.0000
 30
0.0000
 40
0.6350
 41
0.6350
 70
0
  0
VERTEX
  8
16
 10
39.3700
 20
47.9425
 30
0.0000
 42
1.0000
  0
VERTEX
  8
16
 10
39.3700
 20
48.5775
 30
0.0000
  0
SEQEND
  8
0
  0
POLYLINE
  8
16
 66
1
 10
0.0000
 20
0.0000
 30
0.0000
 40
0.6350
 41
0.6350
 70
0
  0
VERTEX
  8
16
 10
37.4650
 20
48.5775
 30
0.0000
 42
1.0000
  0
VERTEX
  8
16
 10
37.4650
 20
47.9425
 30
0.0000
  0
SEQEND
  8
0
  0
POLYLINE
  8
16
 66
1
 10
0.0000
 20
0.0000
 30
0.0000
 40
1.2700
 41
1.2700
 70
0
  0
VERTEX
  8
16
 10
36.1950
 20
43.1800
 30
0.0000
  0
VERTEX
  8
16
 10
36.1950
 20
46.9900
 30
0.0000
  0
SEQEND
  8
0
  0
POLYLINE
  8
16
 66
1
 10
0.0000
 20
0.0000
 30
0.0000
 40
0.6350
 41
0.6350
 70
0
  0
VERTEX
  8
16
 10
36.5125
 20
46.9900
 30
0.0000
 42
1.0000
  0
VERTEX
  8
16
 10
35.8775
 20
46.9900
 30
0.0000
  0
SEQEND
  8
0
  0
POLYLINE
  8
16
 66
1
 10
0.0000
 20
0.0000
 30
0.0000
 40
0.6350
 41
0.6350
 70
0
  0
VERTEX
  8
16
 10
35.8775
 20
43.1800
 30
0.0000
 42
1.0000
  0
VERTEX
  8
16
 10
36.5125
 20
43.1800
 30
0.0000
  0
SEQEND
  8
0
  0
POLYLINE
  8
16
 66
1
 10
0.0000
 20
0.0000
 30
0.0000
 40
1.2700
 41
1.2700
 70
0
  0
VERTEX
  8
16
 10
39.3700
 20
36.8300
 30
0.0000
  0
VERTEX
  8
16
 10
36.8300
 20
36.8300
 30
0.0000
  0
SEQEND
  8
0
  0
POLYLINE
  8
16
 66
1
 10
0.0000
 20
0.0000
 30
0.0000
 40
0.6350
 41
0.6350
 70
0
  0
VERTEX
  8
16
 10
36.8300
 20
37.1475
 30
0.0000
 42
1.0000
  0
VERTEX
  8
16
 10
36.8300
 20
36.5125
 30
0.0000
  0
SEQEND
  8
0
  0
POLYLINE
  8
16
 66
1
 10
0.0000
 20
0.0000
 30
0.0000
 40
0.6350
 41
0.6350
 70
0
  0
VERTEX
  8
16
 10
39.3700
 20
36.5125
 30
0.0000
 42
1.0000
  0
VERTEX
  8
16
 10
39.3700
 20
37.1475
 30
0.0000
  0
SEQEND
  8
0
  0
POLYLINE
  8
16
 66
1
 10
0.0000
 20
0.0000
 30
0.0000
 40
1.2700
 41
1.2700
 70
0
  0
VERTEX
  8
16
 10
36.8300
 20
36.8300
 30
0.0000
  0
VERTEX
  8
16
 10
34.2900
 20
34.2900
 30
0.0000
  0
SEQEND
  8
0
  0
POLYLINE
  8
16
 66
1
 10
0.0000
 20
0.0000
 30
0.0000
 40
0.6350
 41
0.6350
 70
0
  0
VERTEX
  8
16
 10
34.0655
 20
34.5145
 30
0.0000
 42
1.0000
  0
VERTEX
  8
16
 10
34.5145
 20
34.0655
 30
0.0000
  0
SEQEND
  8
0
  0
POLYLINE
  8
16
 66
1
 10
0.0000
 20
0.0000
 30
0.0000
 40
0.6350
 41
0.6350
 70
0
  0
VERTEX
  8
16
 10
37.0545
 20
36.6055
 30
0.0000
 42
1.0000
  0
VERTEX
  8
16
 10
36.6055
 20
37.0545
 30
0.0000
  0
SEQEND
  8
0
  0
POLYLINE
  8
16
 66
1
 10
0.0000
 20
0.0000
 30
0.0000
 40
1.2700
 41
1.2700
 70
0
  0
VERTEX
  8
16
 10
34.2900
 20
34.2900
 30
0.0000
  0
VERTEX
  8
16
 10
33.0200
 20
34.2900
 30
0.0000
  0
SEQEND
  8
0
  0
POLYLINE
  8
16
 66
1
 10
0.0000
 20
0.0000
 30
0.0000
 40
0.6350
 41
0.6350
 70
0
  0
VERTEX
  8
16
 10
33.0200
 20
34.6075
 30
0.0000
 42
1.0000
  0
VERTEX
  8
16
 10
33.0200
 20
33.9725
 30
0.0000
  0
SEQEND
  8
0
  0
POLYLINE
  8
16
 66
1
 10
0.0000
 20
0.0000
 30
0.0000
 40
0.6350
 41
0.6350
 70
0
  0
VERTEX
  8
16
 10
34.2900
 20
33.9725
 30
0.0000
 42
1.0000
  0
VERTEX
  8
16
 10
34.2900
 20
34.6075
 30
0.0000
  0
SEQEND
  8
0
  0
ENDSEC
  0
EOF
