  0
SECTION
  2
HEADER
  9
$ACADVER
  1
AC1009
  9
$FILLMODE
 70
0
  9
$EXTMIN
 10
-5.6748
 20
-0.0650
 30
0.0000
  9
$EXTMAX
 10
36.8950
 20
36.1548
 30
0.0000
  0
ENDSEC
  0
SECTION
  2
TABLES
  0
TABLE
  2
LTYPE
 70
1
  0
LTYPE
  2
CONTINUOUS
 70
64
  3
Solid line
 72
65
 73
0
 40
0
  0
ENDTAB
  0
TABLE
  2
LAYER
 70
255
  0
LAYER
  2
16
 70
64
 62
132
  6
CONTINUOUS
  0
LAYER
  2
17
 70
64
 62
110
  6
CONTINUOUS
  0
LAYER
  2
18
 70
64
 62
110
  6
CONTINUOUS
  0
LAYER
  2
20
 70
64
 62
31
  6
CONTINUOUS
  0
LAYER
  2
44
 70
64
 62
253
  6
CONTINUOUS
  0
ENDTAB
  0
ENDSEC
  0
SECTION
  2
BLOCKS
  0
BLOCK
  8
0
  2
RECT
 70
64
 10
0.0000
 20
0.0000
 30
0.0000
  3
RECT
  0
SOLID
  8
0
 10
-0.5000
 20
-0.5000
 30
0.0000
 11
0.5000
 21
-0.5000
 31
0.0000
 12
-0.5000
 22
0.5000
 32
0.0000
 13
0.5000
 23
0.5000
 33
0.0000
  0
ENDBLK
  8
0
  0
BLOCK
  8
0
  2
PIE
 70
64
 10
0.0000
 20
0.0000
 30
0.0000
  3
PIE
  0
CIRCLE
  8
0
 10
0.0000
 20
0.0000
 30
0.0000
 40
0.5000
  0
ENDBLK
  8
0
  0
BLOCK
  8
0
  2
OCTAGONP
 70
64
 10
0.0000
 20
0.0000
 30
0.0000
  3
OCTAGONP
  0
POLYLINE
  8
0
 66
1
 10
0.0000
 20
0.0000
 30
0.0000
 40
0.0000
 41
0.0000
 70
1
  0
VERTEX
  8
0
 10
-0.5000
 20
-0.2071
 30
0.0000
  0
VERTEX
  8
0
 10
-0.5000
 20
0.2071
 30
0.0000
  0
VERTEX
  8
0
 10
-0.2071
 20
0.5000
 30
0.0000
  0
VERTEX
  8
0
 10
0.2071
 20
0.5000
 30
0.0000
  0
VERTEX
  8
0
 10
0.5000
 20
0.2071
 30
0.0000
  0
VERTEX
  8
0
 10
0.5000
 20
-0.2071
 30
0.0000
  0
VERTEX
  8
0
 10
0.2071
 20
-0.5000
 30
0.0000
  0
VERTEX
  8
0
 10
-0.2071
 20
-0.5000
 30
0.0000
  0
SEQEND
  8
0
  0
ENDBLK
  8
0
  0
BLOCK
  8
0
  2
SQUAREP
 70
64
 10
0.0000
 20
0.0000
 30
0.0000
  3
SQUAREP
  0
SOLID
  8
0
 10
-0.5000
 20
-0.5000
 30
0.0000
 11
0.5000
 21
-0.5000
 31
0.0000
 12
-0.5000
 22
0.5000
 32
0.0000
 13
0.5000
 23
0.5000
 33
0.0000
  0
ENDBLK
  8
0
  0
BLOCK
  8
0
  2
ROUNDP
 70
64
 10
0.0000
 20
0.0000
 30
0.0000
  3
ROUNDP
  0
CIRCLE
  8
0
 10
0.0000
 20
0.0000
 30
0.0000
 40
0.5000
  0
ENDBLK
  8
0
  0
BLOCK
  8
0
  2
ANNULUSP
 70
64
 10
0.0000
 20
0.0000
 30
0.0000
  3
ANNULUSP
  0
CIRCLE
  8
0
 10
0.0000
 20
0.0000
 30
0.0000
 40
0.5000
  0
ENDBLK
  8
0
  0
BLOCK
  8
0
  2
THERMALP
 70
64
 10
0.0000
 20
0.0000
 30
0.0000
  3
THERMALP
  0
POLYLINE
  8
0
 66
1
 10
0.0000
 20
0.0000
 30
0.0000
 40
0.0000
 41
0.0000
 70
1
  0
VERTEX
  8
0
 10
-0.2379
 20
0.4000
 30
0.0000
  0
VERTEX
  8
0
 10
0.2379
 20
0.4000
 30
0.0000
 42
1.0000
  0
VERTEX
  8
0
 10
0.2379
 20
0.5000
 30
0.0000
  0
VERTEX
  8
0
 10
-0.2379
 20
0.5000
 30
0.0000
 42
1.0000
  0
SEQEND
  8
0
  0
POLYLINE
  8
0
 66
1
 10
0.0000
 20
0.0000
 30
0.0000
 40
0.0000
 41
0.0000
 70
1
  0
VERTEX
  8
0
 10
0.4000
 20
0.2379
 30
0.0000
  0
VERTEX
  8
0
 10
0.4000
 20
-0.2379
 30
0.0000
 42
1.0000
  0
VERTEX
  8
0
 10
0.5000
 20
-0.2379
 30
0.0000
  0
VERTEX
  8
0
 10
0.5000
 20
0.2379
 30
0.0000
 42
1.0000
  0
SEQEND
  8
0
  0
POLYLINE
  8
0
 66
1
 10
0.0000
 20
0.0000
 30
0.0000
 40
0.0000
 41
0.0000
 70
1
  0
VERTEX
  8
0
 10
0.2379
 20
-0.4000
 30
0.0000
  0
VERTEX
  8
0
 10
-0.2379
 20
-0.4000
 30
0.0000
 42
1.0000
  0
VERTEX
  8
0
 10
-0.2379
 20
-0.5000
 30
0.0000
  0
VERTEX
  8
0
 10
0.2379
 20
-0.5000
 30
0.0000
 42
1.0000
  0
SEQEND
  8
0
  0
POLYLINE
  8
0
 66
1
 10
0.0000
 20
0.0000
 30
0.0000
 40
0.0000
 41
0.0000
 70
1
  0
VERTEX
  8
0
 10
-0.4000
 20
-0.2379
 30
0.0000
  0
VERTEX
  8
0
 10
-0.4000
 20
0.2379
 30
0.0000
 42
1.0000
  0
VERTEX
  8
0
 10
-0.5000
 20
0.2379
 30
0.0000
  0
VERTEX
  8
0
 10
-0.5000
 20
-0.2379
 30
0.0000
 42
1.0000
  0
SEQEND
  8
0
  0
ENDBLK
  8
0
  0
BLOCK
  8
0
  2
OCTAGONV
 70
64
 10
0.0000
 20
0.0000
 30
0.0000
  3
OCTAGONV
  0
POLYLINE
  8
0
 66
1
 10
0.0000
 20
0.0000
 30
0.0000
 40
0.0000
 41
0.0000
 70
1
  0
VERTEX
  8
0
 10
-0.5000
 20
-0.2071
 30
0.0000
  0
VERTEX
  8
0
 10
-0.5000
 20
0.2071
 30
0.0000
  0
VERTEX
  8
0
 10
-0.2071
 20
0.5000
 30
0.0000
  0
VERTEX
  8
0
 10
0.2071
 20
0.5000
 30
0.0000
  0
VERTEX
  8
0
 10
0.5000
 20
0.2071
 30
0.0000
  0
VERTEX
  8
0
 10
0.5000
 20
-0.2071
 30
0.0000
  0
VERTEX
  8
0
 10
0.2071
 20
-0.5000
 30
0.0000
  0
VERTEX
  8
0
 10
-0.2071
 20
-0.5000
 30
0.0000
  0
SEQEND
  8
0
  0
ENDBLK
  8
0
  0
BLOCK
  8
0
  2
SQUAREV
 70
64
 10
0.0000
 20
0.0000
 30
0.0000
  3
SQUAREV
  0
SOLID
  8
0
 10
-0.5000
 20
-0.5000
 30
0.0000
 11
0.5000
 21
-0.5000
 31
0.0000
 12
-0.5000
 22
0.5000
 32
0.0000
 13
0.5000
 23
0.5000
 33
0.0000
  0
ENDBLK
  8
0
  0
BLOCK
  8
0
  2
ROUNDV
 70
64
 10
0.0000
 20
0.0000
 30
0.0000
  3
ROUNDV
  0
CIRCLE
  8
0
 10
0.0000
 20
0.0000
 30
0.0000
 40
0.5000
  0
ENDBLK
  8
0
  0
BLOCK
  8
0
  2
ANNULUSV
 70
64
 10
0.0000
 20
0.0000
 30
0.0000
  3
ANNULUSV
  0
CIRCLE
  8
0
 10
0.0000
 20
0.0000
 30
0.0000
 40
0.5000
  0
ENDBLK
  8
0
  0
BLOCK
  8
0
  2
THERMALV
 70
64
 10
0.0000
 20
0.0000
 30
0.0000
  3
THERMALV
  0
POLYLINE
  8
0
 66
1
 10
0.0000
 20
0.0000
 30
0.0000
 40
0.0000
 41
0.0000
 70
1
  0
VERTEX
  8
0
 10
-0.2379
 20
0.4000
 30
0.0000
  0
VERTEX
  8
0
 10
0.2379
 20
0.4000
 30
0.0000
 42
1.0000
  0
VERTEX
  8
0
 10
0.2379
 20
0.5000
 30
0.0000
  0
VERTEX
  8
0
 10
-0.2379
 20
0.5000
 30
0.0000
 42
1.0000
  0
SEQEND
  8
0
  0
POLYLINE
  8
0
 66
1
 10
0.0000
 20
0.0000
 30
0.0000
 40
0.0000
 41
0.0000
 70
1
  0
VERTEX
  8
0
 10
0.4000
 20
0.2379
 30
0.0000
  0
VERTEX
  8
0
 10
0.4000
 20
-0.2379
 30
0.0000
 42
1.0000
  0
VERTEX
  8
0
 10
0.5000
 20
-0.2379
 30
0.0000
  0
VERTEX
  8
0
 10
0.5000
 20
0.2379
 30
0.0000
 42
1.0000
  0
SEQEND
  8
0
  0
POLYLINE
  8
0
 66
1
 10
0.0000
 20
0.0000
 30
0.0000
 40
0.0000
 41
0.0000
 70
1
  0
VERTEX
  8
0
 10
0.2379
 20
-0.4000
 30
0.0000
  0
VERTEX
  8
0
 10
-0.2379
 20
-0.4000
 30
0.0000
 42
1.0000
  0
VERTEX
  8
0
 10
-0.2379
 20
-0.5000
 30
0.0000
  0
VERTEX
  8
0
 10
0.2379
 20
-0.5000
 30
0.0000
 42
1.0000
  0
SEQEND
  8
0
  0
POLYLINE
  8
0
 66
1
 10
0.0000
 20
0.0000
 30
0.0000
 40
0.0000
 41
0.0000
 70
1
  0
VERTEX
  8
0
 10
-0.4000
 20
-0.2379
 30
0.0000
  0
VERTEX
  8
0
 10
-0.4000
 20
0.2379
 30
0.0000
 42
1.0000
  0
VERTEX
  8
0
 10
-0.5000
 20
0.2379
 30
0.0000
  0
VERTEX
  8
0
 10
-0.5000
 20
-0.2379
 30
0.0000
 42
1.0000
  0
SEQEND
  8
0
  0
ENDBLK
  8
0
  0
ENDSEC
  0
SECTION
  2
ENTITIES
  0
LINE
  8
20
 10
0.0000
 20
0.0000
 30
0.0000
 11
36.8100
 21
0.0000
 31
0.0000
  0
LINE
  8
20
 10
36.8100
 20
0.0000
 30
0.0000
 11
36.8100
 21
30.1500
 31
0.0000
  0
LINE
  8
20
 10
36.8100
 20
30.1500
 30
0.0000
 11
0.0000
 21
30.1500
 31
0.0000
  0
LINE
  8
20
 10
0.0000
 20
30.1500
 30
0.0000
 11
0.0000
 21
0.0000
 31
0.0000
  0
CIRCLE
  8
20
 10
3.8100
 20
3.8100
 30
0.0000
 40
1.0160
  0
CIRCLE
  8
20
 10
3.8100
 20
26.6700
 30
0.0000
 40
1.0160
  0
CIRCLE
  8
20
 10
33.0200
 20
26.6700
 30
0.0000
 40
1.0160
  0
CIRCLE
  8
20
 10
33.0200
 20
3.8100
 30
0.0000
 40
1.0160
  0
INSERT
  8
17
  2
ROUNDP
 10
12.0650
 20
8.8900
 30
0.0000
 41
1.5080
 42
1.5080
 43
1.0000
 50
90.0000
  0
CIRCLE
  8
44
 10
12.0650
 20
8.8900
 30
0.0000
 40
0.5000
  0
INSERT
  8
17
  2
ROUNDP
 10
9.5250
 20
8.8900
 30
0.0000
 41
1.5080
 42
1.5080
 43
1.0000
 50
90.0000
  0
CIRCLE
  8
44
 10
9.5250
 20
8.8900
 30
0.0000
 40
0.5000
  0
INSERT
  8
17
  2
ROUNDP
 10
12.0650
 20
11.4300
 30
0.0000
 41
1.5080
 42
1.5080
 43
1.0000
 50
90.0000
  0
CIRCLE
  8
44
 10
12.0650
 20
11.4300
 30
0.0000
 40
0.5000
  0
INSERT
  8
17
  2
ROUNDP
 10
9.5250
 20
11.4300
 30
0.0000
 41
1.5080
 42
1.5080
 43
1.0000
 50
90.0000
  0
CIRCLE
  8
44
 10
9.5250
 20
11.4300
 30
0.0000
 40
0.5000
  0
INSERT
  8
17
  2
ROUNDP
 10
12.0650
 20
13.9700
 30
0.0000
 41
1.5080
 42
1.5080
 43
1.0000
 50
90.0000
  0
CIRCLE
  8
44
 10
12.0650
 20
13.9700
 30
0.0000
 40
0.5000
  0
INSERT
  8
17
  2
ROUNDP
 10
9.5250
 20
13.9700
 30
0.0000
 41
1.5080
 42
1.5080
 43
1.0000
 50
90.0000
  0
CIRCLE
  8
44
 10
9.5250
 20
13.9700
 30
0.0000
 40
0.5000
  0
INSERT
  8
17
  2
ROUNDP
 10
12.0650
 20
16.5100
 30
0.0000
 41
1.5080
 42
1.5080
 43
1.0000
 50
90.0000
  0
CIRCLE
  8
44
 10
12.0650
 20
16.5100
 30
0.0000
 40
0.5000
  0
INSERT
  8
17
  2
ROUNDP
 10
9.5250
 20
16.5100
 30
0.0000
 41
1.5080
 42
1.5080
 43
1.0000
 50
90.0000
  0
CIRCLE
  8
44
 10
9.5250
 20
16.5100
 30
0.0000
 40
0.5000
  0
INSERT
  8
17
  2
ROUNDP
 10
12.0650
 20
19.0500
 30
0.0000
 41
1.5080
 42
1.5080
 43
1.0000
 50
90.0000
  0
CIRCLE
  8
44
 10
12.0650
 20
19.0500
 30
0.0000
 40
0.5000
  0
INSERT
  8
17
  2
ROUNDP
 10
9.5250
 20
19.0500
 30
0.0000
 41
1.5080
 42
1.5080
 43
1.0000
 50
90.0000
  0
CIRCLE
  8
44
 10
9.5250
 20
19.0500
 30
0.0000
 40
0.5000
  0
INSERT
  8
17
  2
ROUNDP
 10
12.0650
 20
21.5900
 30
0.0000
 41
1.5080
 42
1.5080
 43
1.0000
 50
90.0000
  0
CIRCLE
  8
44
 10
12.0650
 20
21.5900
 30
0.0000
 40
0.5000
  0
INSERT
  8
17
  2
ROUNDP
 10
9.5250
 20
21.5900
 30
0.0000
 41
1.5080
 42
1.5080
 43
1.0000
 50
90.0000
  0
CIRCLE
  8
44
 10
9.5250
 20
21.5900
 30
0.0000
 40
0.5000
  0
INSERT
  8
17
  2
ROUNDP
 10
12.0650
 20
24.1300
 30
0.0000
 41
1.5080
 42
1.5080
 43
1.0000
 50
90.0000
  0
CIRCLE
  8
44
 10
12.0650
 20
24.1300
 30
0.0000
 40
0.5000
  0
INSERT
  8
17
  2
ROUNDP
 10
9.5250
 20
24.1300
 30
0.0000
 41
1.5080
 42
1.5080
 43
1.0000
 50
90.0000
  0
CIRCLE
  8
44
 10
9.5250
 20
24.1300
 30
0.0000
 40
0.5000
  0
INSERT
  8
17
  2
ROUNDP
 10
22.2250
 20
24.1300
 30
0.0000
 41
1.5080
 42
1.5080
 43
1.0000
 50
270.0000
  0
CIRCLE
  8
44
 10
22.2250
 20
24.1300
 30
0.0000
 40
0.5000
  0
INSERT
  8
17
  2
ROUNDP
 10
24.7650
 20
24.1300
 30
0.0000
 41
1.5080
 42
1.5080
 43
1.0000
 50
270.0000
  0
CIRCLE
  8
44
 10
24.7650
 20
24.1300
 30
0.0000
 40
0.5000
  0
INSERT
  8
17
  2
ROUNDP
 10
22.2250
 20
21.5900
 30
0.0000
 41
1.5080
 42
1.5080
 43
1.0000
 50
270.0000
  0
CIRCLE
  8
44
 10
22.2250
 20
21.5900
 30
0.0000
 40
0.5000
  0
INSERT
  8
17
  2
ROUNDP
 10
24.7650
 20
21.5900
 30
0.0000
 41
1.5080
 42
1.5080
 43
1.0000
 50
270.0000
  0
CIRCLE
  8
44
 10
24.7650
 20
21.5900
 30
0.0000
 40
0.5000
  0
INSERT
  8
17
  2
ROUNDP
 10
22.2250
 20
19.0500
 30
0.0000
 41
1.5080
 42
1.5080
 43
1.0000
 50
270.0000
  0
CIRCLE
  8
44
 10
22.2250
 20
19.0500
 30
0.0000
 40
0.5000
  0
INSERT
  8
17
  2
ROUNDP
 10
24.7650
 20
19.0500
 30
0.0000
 41
1.5080
 42
1.5080
 43
1.0000
 50
270.0000
  0
CIRCLE
  8
44
 10
24.7650
 20
19.0500
 30
0.0000
 40
0.5000
  0
INSERT
  8
17
  2
ROUNDP
 10
22.2250
 20
16.5100
 30
0.0000
 41
1.5080
 42
1.5080
 43
1.0000
 50
270.0000
  0
CIRCLE
  8
44
 10
22.2250
 20
16.5100
 30
0.0000
 40
0.5000
  0
INSERT
  8
17
  2
ROUNDP
 10
24.7650
 20
16.5100
 30
0.0000
 41
1.5080
 42
1.5080
 43
1.0000
 50
270.0000
  0
CIRCLE
  8
44
 10
24.7650
 20
16.5100
 30
0.0000
 40
0.5000
  0
INSERT
  8
17
  2
ROUNDP
 10
22.2250
 20
13.9700
 30
0.0000
 41
1.5080
 42
1.5080
 43
1.0000
 50
270.0000
  0
CIRCLE
  8
44
 10
22.2250
 20
13.9700
 30
0.0000
 40
0.5000
  0
INSERT
  8
17
  2
ROUNDP
 10
24.7650
 20
13.9700
 30
0.0000
 41
1.5080
 42
1.5080
 43
1.0000
 50
270.0000
  0
CIRCLE
  8
44
 10
24.7650
 20
13.9700
 30
0.0000
 40
0.5000
  0
INSERT
  8
17
  2
ROUNDP
 10
22.2250
 20
11.4300
 30
0.0000
 41
1.5080
 42
1.5080
 43
1.0000
 50
270.0000
  0
CIRCLE
  8
44
 10
22.2250
 20
11.4300
 30
0.0000
 40
0.5000
  0
INSERT
  8
17
  2
ROUNDP
 10
24.7650
 20
11.4300
 30
0.0000
 41
1.5080
 42
1.5080
 43
1.0000
 50
270.0000
  0
CIRCLE
  8
44
 10
24.7650
 20
11.4300
 30
0.0000
 40
0.5000
  0
INSERT
  8
17
  2
ROUNDP
 10
22.2250
 20
8.8900
 30
0.0000
 41
1.5080
 42
1.5080
 43
1.0000
 50
270.0000
  0
CIRCLE
  8
44
 10
22.2250
 20
8.8900
 30
0.0000
 40
0.5000
  0
INSERT
  8
17
  2
ROUNDP
 10
24.7650
 20
8.8900
 30
0.0000
 41
1.5080
 42
1.5080
 43
1.0000
 50
270.0000
  0
CIRCLE
  8
44
 10
24.7650
 20
8.8900
 30
0.0000
 40
0.5000
  0
POLYLINE
  8
16
 66
1
 10
0.0000
 20
0.0000
 30
0.0000
 40
0.0000
 41
0.0000
 70
1
  0
VERTEX
  8
16
 10
12.0650
 20
8.2550
 30
0.0000
  0
VERTEX
  8
16
 10
15.8750
 20
8.2550
 30
0.0000
 42
1.0000
  0
VERTEX
  8
16
 10
15.8750
 20
9.5250
 30
0.0000
  0
VERTEX
  8
16
 10
12.0650
 20
9.5250
 30
0.0000
 42
1.0000
  0
SEQEND
  8
0
  0
POLYLINE
  8
16
 66
1
 10
0.0000
 20
0.0000
 30
0.0000
 40
0.0000
 41
0.0000
 70
1
  0
VERTEX
  8
16
 10
18.4150
 20
5.7150
 30
0.0000
  0
VERTEX
  8
16
 10
24.1300
 20
5.7150
 30
0.0000
 42
1.0000
  0
VERTEX
  8
16
 10
24.1300
 20
6.9850
 30
0.0000
  0
VERTEX
  8
16
 10
18.4150
 20
6.9850
 30
0.0000
 42
1.0000
  0
SEQEND
  8
0
  0
POLYLINE
  8
16
 66
1
 10
0.0000
 20
0.0000
 30
0.0000
 40
0.0000
 41
0.0000
 70
1
  0
VERTEX
  8
16
 10
24.5790
 20
5.9010
 30
0.0000
  0
VERTEX
  8
16
 10
25.2140
 20
6.5360
 30
0.0000
 42
1.0000
  0
VERTEX
  8
16
 10
24.3160
 20
7.4340
 30
0.0000
  0
VERTEX
  8
16
 10
23.6810
 20
6.7990
 30
0.0000
 42
1.0000
  0
SEQEND
  8
0
  0
POLYLINE
  8
16
 66
1
 10
0.0000
 20
0.0000
 30
0.0000
 40
0.0000
 41
0.0000
 70
1
  0
VERTEX
  8
16
 10
25.4000
 20
6.9850
 30
0.0000
  0
VERTEX
  8
16
 10
25.4000
 20
8.8900
 30
0.0000
 42
1.0000
  0
VERTEX
  8
16
 10
24.1300
 20
8.8900
 30
0.0000
  0
VERTEX
  8
16
 10
24.1300
 20
6.9850
 30
0.0000
 42
1.0000
  0
SEQEND
  8
0
  0
POLYLINE
  8
16
 66
1
 10
0.0000
 20
0.0000
 30
0.0000
 40
0.0000
 41
0.0000
 70
1
  0
VERTEX
  8
16
 10
15.4260
 20
8.4410
 30
0.0000
  0
VERTEX
  8
16
 10
17.9660
 20
5.9010
 30
0.0000
 42
1.0000
  0
VERTEX
  8
16
 10
18.8640
 20
6.7990
 30
0.0000
  0
VERTEX
  8
16
 10
16.3240
 20
9.3390
 30
0.0000
 42
1.0000
  0
SEQEND
  8
0
  0
POLYLINE
  8
16
 66
1
 10
0.0000
 20
0.0000
 30
0.0000
 40
0.0000
 41
0.0000
 70
1
  0
VERTEX
  8
16
 10
12.0650
 20
10.7950
 30
0.0000
  0
VERTEX
  8
16
 10
15.8750
 20
10.7950
 30
0.0000
 42
1.0000
  0
VERTEX
  8
16
 10
15.8750
 20
12.0650
 30
0.0000
  0
VERTEX
  8
16
 10
12.0650
 20
12.0650
 30
0.0000
 42
1.0000
  0
SEQEND
  8
0
  0
POLYLINE
  8
16
 66
1
 10
0.0000
 20
0.0000
 30
0.0000
 40
0.0000
 41
0.0000
 70
1
  0
VERTEX
  8
16
 10
15.4260
 20
10.9810
 30
0.0000
  0
VERTEX
  8
16
 10
17.9660
 20
8.4410
 30
0.0000
 42
1.0000
  0
VERTEX
  8
16
 10
18.8640
 20
9.3390
 30
0.0000
  0
VERTEX
  8
16
 10
16.3240
 20
11.8790
 30
0.0000
 42
1.0000
  0
SEQEND
  8
0
  0
POLYLINE
  8
16
 66
1
 10
0.0000
 20
0.0000
 30
0.0000
 40
0.0000
 41
0.0000
 70
1
  0
VERTEX
  8
16
 10
18.4150
 20
8.2550
 30
0.0000
  0
VERTEX
  8
16
 10
22.2250
 20
8.2550
 30
0.0000
 42
1.0000
  0
VERTEX
  8
16
 10
22.2250
 20
9.5250
 30
0.0000
  0
VERTEX
  8
16
 10
18.4150
 20
9.5250
 30
0.0000
 42
1.0000
  0
SEQEND
  8
0
  0
POLYLINE
  8
16
 66
1
 10
0.0000
 20
0.0000
 30
0.0000
 40
0.0000
 41
0.0000
 70
1
  0
VERTEX
  8
16
 10
12.0650
 20
13.3350
 30
0.0000
  0
VERTEX
  8
16
 10
15.8750
 20
13.3350
 30
0.0000
 42
1.0000
  0
VERTEX
  8
16
 10
15.8750
 20
14.6050
 30
0.0000
  0
VERTEX
  8
16
 10
12.0650
 20
14.6050
 30
0.0000
 42
1.0000
  0
SEQEND
  8
0
  0
POLYLINE
  8
16
 66
1
 10
0.0000
 20
0.0000
 30
0.0000
 40
0.0000
 41
0.0000
 70
1
  0
VERTEX
  8
16
 10
15.4260
 20
13.5210
 30
0.0000
  0
VERTEX
  8
16
 10
17.9660
 20
10.9810
 30
0.0000
 42
1.0000
  0
VERTEX
  8
16
 10
18.8640
 20
11.8790
 30
0.0000
  0
VERTEX
  8
16
 10
16.3240
 20
14.4190
 30
0.0000
 42
1.0000
  0
SEQEND
  8
0
  0
POLYLINE
  8
16
 66
1
 10
0.0000
 20
0.0000
 30
0.0000
 40
0.0000
 41
0.0000
 70
1
  0
VERTEX
  8
16
 10
18.4150
 20
10.7950
 30
0.0000
  0
VERTEX
  8
16
 10
22.2250
 20
10.7950
 30
0.0000
 42
1.0000
  0
VERTEX
  8
16
 10
22.2250
 20
12.0650
 30
0.0000
  0
VERTEX
  8
16
 10
18.4150
 20
12.0650
 30
0.0000
 42
1.0000
  0
SEQEND
  8
0
  0
POLYLINE
  8
16
 66
1
 10
0.0000
 20
0.0000
 30
0.0000
 40
0.0000
 41
0.0000
 70
1
  0
VERTEX
  8
16
 10
12.0650
 20
15.8750
 30
0.0000
  0
VERTEX
  8
16
 10
15.8750
 20
15.8750
 30
0.0000
 42
1.0000
  0
VERTEX
  8
16
 10
15.8750
 20
17.1450
 30
0.0000
  0
VERTEX
  8
16
 10
12.0650
 20
17.1450
 30
0.0000
 42
1.0000
  0
SEQEND
  8
0
  0
POLYLINE
  8
16
 66
1
 10
0.0000
 20
0.0000
 30
0.0000
 40
0.0000
 41
0.0000
 70
1
  0
VERTEX
  8
16
 10
15.4260
 20
16.0610
 30
0.0000
  0
VERTEX
  8
16
 10
17.9660
 20
13.5210
 30
0.0000
 42
1.0000
  0
VERTEX
  8
16
 10
18.8640
 20
14.4190
 30
0.0000
  0
VERTEX
  8
16
 10
16.3240
 20
16.9590
 30
0.0000
 42
1.0000
  0
SEQEND
  8
0
  0
POLYLINE
  8
16
 66
1
 10
0.0000
 20
0.0000
 30
0.0000
 40
0.0000
 41
0.0000
 70
1
  0
VERTEX
  8
16
 10
18.4150
 20
13.3350
 30
0.0000
  0
VERTEX
  8
16
 10
22.2250
 20
13.3350
 30
0.0000
 42
1.0000
  0
VERTEX
  8
16
 10
22.2250
 20
14.6050
 30
0.0000
  0
VERTEX
  8
16
 10
18.4150
 20
14.6050
 30
0.0000
 42
1.0000
  0
SEQEND
  8
0
  0
POLYLINE
  8
16
 66
1
 10
0.0000
 20
0.0000
 30
0.0000
 40
0.0000
 41
0.0000
 70
1
  0
VERTEX
  8
16
 10
12.0650
 20
18.4150
 30
0.0000
  0
VERTEX
  8
16
 10
15.8750
 20
18.4150
 30
0.0000
 42
1.0000
  0
VERTEX
  8
16
 10
15.8750
 20
19.6850
 30
0.0000
  0
VERTEX
  8
16
 10
12.0650
 20
19.6850
 30
0.0000
 42
1.0000
  0
SEQEND
  8
0
  0
POLYLINE
  8
16
 66
1
 10
0.0000
 20
0.0000
 30
0.0000
 40
0.0000
 41
0.0000
 70
1
  0
VERTEX
  8
16
 10
15.4260
 20
18.6010
 30
0.0000
  0
VERTEX
  8
16
 10
17.9660
 20
16.0610
 30
0.0000
 42
1.0000
  0
VERTEX
  8
16
 10
18.8640
 20
16.9590
 30
0.0000
  0
VERTEX
  8
16
 10
16.3240
 20
19.4990
 30
0.0000
 42
1.0000
  0
SEQEND
  8
0
  0
POLYLINE
  8
16
 66
1
 10
0.0000
 20
0.0000
 30
0.0000
 40
0.0000
 41
0.0000
 70
1
  0
VERTEX
  8
16
 10
18.4150
 20
15.8750
 30
0.0000
  0
VERTEX
  8
16
 10
22.2250
 20
15.8750
 30
0.0000
 42
1.0000
  0
VERTEX
  8
16
 10
22.2250
 20
17.1450
 30
0.0000
  0
VERTEX
  8
16
 10
18.4150
 20
17.1450
 30
0.0000
 42
1.0000
  0
SEQEND
  8
0
  0
POLYLINE
  8
16
 66
1
 10
0.0000
 20
0.0000
 30
0.0000
 40
0.0000
 41
0.0000
 70
1
  0
VERTEX
  8
16
 10
12.0650
 20
20.9550
 30
0.0000
  0
VERTEX
  8
16
 10
15.8750
 20
20.9550
 30
0.0000
 42
1.0000
  0
VERTEX
  8
16
 10
15.8750
 20
22.2250
 30
0.0000
  0
VERTEX
  8
16
 10
12.0650
 20
22.2250
 30
0.0000
 42
1.0000
  0
SEQEND
  8
0
  0
POLYLINE
  8
16
 66
1
 10
0.0000
 20
0.0000
 30
0.0000
 40
0.0000
 41
0.0000
 70
1
  0
VERTEX
  8
16
 10
15.4260
 20
21.1410
 30
0.0000
  0
VERTEX
  8
16
 10
17.9660
 20
18.6010
 30
0.0000
 42
1.0000
  0
VERTEX
  8
16
 10
18.8640
 20
19.4990
 30
0.0000
  0
VERTEX
  8
16
 10
16.3240
 20
22.0390
 30
0.0000
 42
1.0000
  0
SEQEND
  8
0
  0
POLYLINE
  8
16
 66
1
 10
0.0000
 20
0.0000
 30
0.0000
 40
0.0000
 41
0.0000
 70
1
  0
VERTEX
  8
16
 10
18.4150
 20
18.4150
 30
0.0000
  0
VERTEX
  8
16
 10
22.2250
 20
18.4150
 30
0.0000
 42
1.0000
  0
VERTEX
  8
16
 10
22.2250
 20
19.6850
 30
0.0000
  0
VERTEX
  8
16
 10
18.4150
 20
19.6850
 30
0.0000
 42
1.0000
  0
SEQEND
  8
0
  0
POLYLINE
  8
16
 66
1
 10
0.0000
 20
0.0000
 30
0.0000
 40
0.0000
 41
0.0000
 70
1
  0
VERTEX
  8
16
 10
12.0650
 20
23.4950
 30
0.0000
  0
VERTEX
  8
16
 10
15.8750
 20
23.4950
 30
0.0000
 42
1.0000
  0
VERTEX
  8
16
 10
15.8750
 20
24.7650
 30
0.0000
  0
VERTEX
  8
16
 10
12.0650
 20
24.7650
 30
0.0000
 42
1.0000
  0
SEQEND
  8
0
  0
POLYLINE
  8
16
 66
1
 10
0.0000
 20
0.0000
 30
0.0000
 40
0.0000
 41
0.0000
 70
1
  0
VERTEX
  8
16
 10
15.4260
 20
23.6810
 30
0.0000
  0
VERTEX
  8
16
 10
17.9660
 20
21.1410
 30
0.0000
 42
1.0000
  0
VERTEX
  8
16
 10
18.8640
 20
22.0390
 30
0.0000
  0
VERTEX
  8
16
 10
16.3240
 20
24.5790
 30
0.0000
 42
1.0000
  0
SEQEND
  8
0
  0
POLYLINE
  8
16
 66
1
 10
0.0000
 20
0.0000
 30
0.0000
 40
0.0000
 41
0.0000
 70
1
  0
VERTEX
  8
16
 10
18.4150
 20
20.9550
 30
0.0000
  0
VERTEX
  8
16
 10
22.2250
 20
20.9550
 30
0.0000
 42
1.0000
  0
VERTEX
  8
16
 10
22.2250
 20
22.2250
 30
0.0000
  0
VERTEX
  8
16
 10
18.4150
 20
22.2250
 30
0.0000
 42
1.0000
  0
SEQEND
  8
0
  0
POLYLINE
  8
16
 66
1
 10
0.0000
 20
0.0000
 30
0.0000
 40
0.0000
 41
0.0000
 70
1
  0
VERTEX
  8
16
 10
10.1600
 20
24.1300
 30
0.0000
  0
VERTEX
  8
16
 10
10.1600
 20
25.4000
 30
0.0000
 42
1.0000
  0
VERTEX
  8
16
 10
8.8900
 20
25.4000
 30
0.0000
  0
VERTEX
  8
16
 10
8.8900
 20
24.1300
 30
0.0000
 42
1.0000
  0
SEQEND
  8
0
  0
POLYLINE
  8
16
 66
1
 10
0.0000
 20
0.0000
 30
0.0000
 40
0.0000
 41
0.0000
 70
1
  0
VERTEX
  8
16
 10
9.9740
 20
24.9510
 30
0.0000
  0
VERTEX
  8
16
 10
11.2440
 20
26.2210
 30
0.0000
 42
1.0000
  0
VERTEX
  8
16
 10
10.3460
 20
27.1190
 30
0.0000
  0
VERTEX
  8
16
 10
9.0760
 20
25.8490
 30
0.0000
 42
1.0000
  0
SEQEND
  8
0
  0
POLYLINE
  8
16
 66
1
 10
0.0000
 20
0.0000
 30
0.0000
 40
0.0000
 41
0.0000
 70
1
  0
VERTEX
  8
16
 10
10.7950
 20
26.0350
 30
0.0000
  0
VERTEX
  8
16
 10
15.8750
 20
26.0350
 30
0.0000
 42
1.0000
  0
VERTEX
  8
16
 10
15.8750
 20
27.3050
 30
0.0000
  0
VERTEX
  8
16
 10
10.7950
 20
27.3050
 30
0.0000
 42
1.0000
  0
SEQEND
  8
0
  0
POLYLINE
  8
16
 66
1
 10
0.0000
 20
0.0000
 30
0.0000
 40
0.0000
 41
0.0000
 70
1
  0
VERTEX
  8
16
 10
15.4260
 20
26.2210
 30
0.0000
  0
VERTEX
  8
16
 10
17.9660
 20
23.6810
 30
0.0000
 42
1.0000
  0
VERTEX
  8
16
 10
18.8640
 20
24.5790
 30
0.0000
  0
VERTEX
  8
16
 10
16.3240
 20
27.1190
 30
0.0000
 42
1.0000
  0
SEQEND
  8
0
  0
POLYLINE
  8
16
 66
1
 10
0.0000
 20
0.0000
 30
0.0000
 40
0.0000
 41
0.0000
 70
1
  0
VERTEX
  8
16
 10
18.4150
 20
23.4950
 30
0.0000
  0
VERTEX
  8
16
 10
22.2250
 20
23.4950
 30
0.0000
 42
1.0000
  0
VERTEX
  8
16
 10
22.2250
 20
24.7650
 30
0.0000
  0
VERTEX
  8
16
 10
18.4150
 20
24.7650
 30
0.0000
 42
1.0000
  0
SEQEND
  8
0
  0
POLYLINE
  8
16
 66
1
 10
0.0000
 20
0.0000
 30
0.0000
 40
0.0000
 41
0.0000
 70
1
  0
VERTEX
  8
16
 10
8.8900
 20
8.8900
 30
0.0000
  0
VERTEX
  8
16
 10
8.8900
 20
7.6200
 30
0.0000
 42
1.0000
  0
VERTEX
  8
16
 10
10.1600
 20
7.6200
 30
0.0000
  0
VERTEX
  8
16
 10
10.1600
 20
8.8900
 30
0.0000
 42
1.0000
  0
SEQEND
  8
0
  0
POLYLINE
  8
16
 66
1
 10
0.0000
 20
0.0000
 30
0.0000
 40
0.0000
 41
0.0000
 70
1
  0
VERTEX
  8
16
 10
9.0760
 20
7.1710
 30
0.0000
  0
VERTEX
  8
16
 10
10.3460
 20
5.9010
 30
0.0000
 42
1.0000
  0
VERTEX
  8
16
 10
11.2440
 20
6.7990
 30
0.0000
  0
VERTEX
  8
16
 10
9.9740
 20
8.0690
 30
0.0000
 42
1.0000
  0
SEQEND
  8
0
  0
POLYLINE
  8
16
 66
1
 10
0.0000
 20
0.0000
 30
0.0000
 40
0.0000
 41
0.0000
 70
1
  0
VERTEX
  8
16
 10
10.7950
 20
5.7150
 30
0.0000
  0
VERTEX
  8
16
 10
15.8750
 20
5.7150
 30
0.0000
 42
1.0000
  0
VERTEX
  8
16
 10
15.8750
 20
6.9850
 30
0.0000
  0
VERTEX
  8
16
 10
10.7950
 20
6.9850
 30
0.0000
 42
1.0000
  0
SEQEND
  8
0
  0
POLYLINE
  8
16
 66
1
 10
0.0000
 20
0.0000
 30
0.0000
 40
0.0000
 41
0.0000
 70
1
  0
VERTEX
  8
16
 10
26.4840
 20
3.9960
 30
0.0000
  0
VERTEX
  8
16
 10
31.5640
 20
9.0760
 30
0.0000
 42
1.0000
  0
VERTEX
  8
16
 10
30.6660
 20
9.9740
 30
0.0000
  0
VERTEX
  8
16
 10
25.5860
 20
4.8940
 30
0.0000
 42
1.0000
  0
SEQEND
  8
0
  0
POLYLINE
  8
16
 66
1
 10
0.0000
 20
0.0000
 30
0.0000
 40
0.0000
 41
0.0000
 70
1
  0
VERTEX
  8
16
 10
31.7500
 20
9.5250
 30
0.0000
  0
VERTEX
  8
16
 10
31.7500
 20
19.0500
 30
0.0000
 42
1.0000
  0
VERTEX
  8
16
 10
30.4800
 20
19.0500
 30
0.0000
  0
VERTEX
  8
16
 10
30.4800
 20
9.5250
 30
0.0000
 42
1.0000
  0
SEQEND
  8
0
  0
POLYLINE
  8
16
 66
1
 10
0.0000
 20
0.0000
 30
0.0000
 40
0.0000
 41
0.0000
 70
1
  0
VERTEX
  8
16
 10
31.7500
 20
21.5900
 30
0.0000
  0
VERTEX
  8
16
 10
31.7500
 20
23.4950
 30
0.0000
 42
1.0000
  0
VERTEX
  8
16
 10
30.4800
 20
23.4950
 30
0.0000
  0
VERTEX
  8
16
 10
30.4800
 20
21.5900
 30
0.0000
 42
1.0000
  0
SEQEND
  8
0
  0
POLYLINE
  8
16
 66
1
 10
0.0000
 20
0.0000
 30
0.0000
 40
0.0000
 41
0.0000
 70
1
  0
VERTEX
  8
16
 10
31.5640
 20
23.9440
 30
0.0000
  0
VERTEX
  8
16
 10
30.9290
 20
24.5790
 30
0.0000
 42
1.0000
  0
VERTEX
  8
16
 10
30.0310
 20
23.6810
 30
0.0000
  0
VERTEX
  8
16
 10
30.6660
 20
23.0460
 30
0.0000
 42
1.0000
  0
SEQEND
  8
0
  0
POLYLINE
  8
16
 66
1
 10
0.0000
 20
0.0000
 30
0.0000
 40
0.0000
 41
0.0000
 70
1
  0
VERTEX
  8
16
 10
30.4800
 20
24.7650
 30
0.0000
  0
VERTEX
  8
16
 10
24.7650
 20
24.7650
 30
0.0000
 42
1.0000
  0
VERTEX
  8
16
 10
24.7650
 20
23.4950
 30
0.0000
  0
VERTEX
  8
16
 10
30.4800
 20
23.4950
 30
0.0000
 42
1.0000
  0
SEQEND
  8
0
  0
POLYLINE
  8
16
 66
1
 10
0.0000
 20
0.0000
 30
0.0000
 40
0.0000
 41
0.0000
 70
1
  0
VERTEX
  8
16
 10
15.4260
 20
5.9010
 30
0.0000
  0
VERTEX
  8
16
 10
17.3310
 20
3.9960
 30
0.0000
 42
1.0000
  0
VERTEX
  8
16
 10
18.2290
 20
4.8940
 30
0.0000
  0
VERTEX
  8
16
 10
16.3240
 20
6.7990
 30
0.0000
 42
1.0000
  0
SEQEND
  8
0
  0
POLYLINE
  8
16
 66
1
 10
0.0000
 20
0.0000
 30
0.0000
 40
0.0000
 41
0.0000
 70
1
  0
VERTEX
  8
16
 10
17.7800
 20
3.8100
 30
0.0000
  0
VERTEX
  8
16
 10
26.0350
 20
3.8100
 30
0.0000
 42
1.0000
  0
VERTEX
  8
16
 10
26.0350
 20
5.0800
 30
0.0000
  0
VERTEX
  8
16
 10
17.7800
 20
5.0800
 30
0.0000
 42
1.0000
  0
SEQEND
  8
0
  0
POLYLINE
  8
16
 66
1
 10
0.0000
 20
0.0000
 30
0.0000
 40
0.0000
 41
0.0000
 70
1
  0
VERTEX
  8
16
 10
24.7650
 20
20.9550
 30
0.0000
  0
VERTEX
  8
16
 10
31.1150
 20
20.9550
 30
0.0000
 42
1.0000
  0
VERTEX
  8
16
 10
31.1150
 20
22.2250
 30
0.0000
  0
VERTEX
  8
16
 10
24.7650
 20
22.2250
 30
0.0000
 42
1.0000
  0
SEQEND
  8
0
  0
POLYLINE
  8
16
 66
1
 10
0.0000
 20
0.0000
 30
0.0000
 40
0.0000
 41
0.0000
 70
1
  0
VERTEX
  8
16
 10
28.5750
 20
18.4150
 30
0.0000
  0
VERTEX
  8
16
 10
31.1150
 20
18.4150
 30
0.0000
 42
1.0000
  0
VERTEX
  8
16
 10
31.1150
 20
19.6850
 30
0.0000
  0
VERTEX
  8
16
 10
28.5750
 20
19.6850
 30
0.0000
 42
1.0000
  0
SEQEND
  8
0
  0
POLYLINE
  8
16
 66
1
 10
0.0000
 20
0.0000
 30
0.0000
 40
0.0000
 41
0.0000
 70
1
  0
VERTEX
  8
16
 10
24.7650
 20
18.4150
 30
0.0000
  0
VERTEX
  8
16
 10
28.5750
 20
18.4150
 30
0.0000
 42
1.0000
  0
VERTEX
  8
16
 10
28.5750
 20
19.6850
 30
0.0000
  0
VERTEX
  8
16
 10
24.7650
 20
19.6850
 30
0.0000
 42
1.0000
  0
SEQEND
  8
0
  0
POLYLINE
  8
16
 66
1
 10
0.0000
 20
0.0000
 30
0.0000
 40
0.0000
 41
0.0000
 70
1
  0
VERTEX
  8
16
 10
31.7500
 20
19.0500
 30
0.0000
  0
VERTEX
  8
16
 10
31.7500
 20
21.5900
 30
0.0000
 42
1.0000
  0
VERTEX
  8
16
 10
30.4800
 20
21.5900
 30
0.0000
  0
VERTEX
  8
16
 10
30.4800
 20
19.0500
 30
0.0000
 42
1.0000
  0
SEQEND
  8
0
  0
POLYLINE
  8
16
 66
1
 10
0.0000
 20
0.0000
 30
0.0000
 40
0.0000
 41
0.0000
 70
1
  0
VERTEX
  8
16
 10
24.1300
 20
16.5100
 30
0.0000
  0
VERTEX
  8
16
 10
24.1300
 20
13.9700
 30
0.0000
 42
1.0000
  0
VERTEX
  8
16
 10
25.4000
 20
13.9700
 30
0.0000
  0
VERTEX
  8
16
 10
25.4000
 20
16.5100
 30
0.0000
 42
1.0000
  0
SEQEND
  8
0
  0
POLYLINE
  8
16
 66
1
 10
0.0000
 20
0.0000
 30
0.0000
 40
0.0000
 41
0.0000
 70
1
  0
VERTEX
  8
16
 10
24.1300
 20
13.9700
 30
0.0000
  0
VERTEX
  8
16
 10
24.1300
 20
11.4300
 30
0.0000
 42
1.0000
  0
VERTEX
  8
16
 10
25.4000
 20
11.4300
 30
0.0000
  0
VERTEX
  8
16
 10
25.4000
 20
13.9700
 30
0.0000
 42
1.0000
  0
SEQEND
  8
0
  0
POLYLINE
  8
16
 66
1
 10
0.0000
 20
0.0000
 30
0.0000
 40
0.0000
 41
0.0000
 70
1
  0
VERTEX
  8
16
 10
24.7650
 20
13.3350
 30
0.0000
  0
VERTEX
  8
16
 10
29.2100
 20
13.3350
 30
0.0000
 42
1.0000
  0
VERTEX
  8
16
 10
29.2100
 20
14.6050
 30
0.0000
  0
VERTEX
  8
16
 10
24.7650
 20
14.6050
 30
0.0000
 42
1.0000
  0
SEQEND
  8
0
  0
POLYLINE
  8
16
 66
1
 10
0.0000
 20
0.0000
 30
0.0000
 40
0.0000
 41
0.0000
 70
1
  0
VERTEX
  8
16
 10
9.5250
 20
12.0650
 30
0.0000
  0
VERTEX
  8
16
 10
7.6200
 20
12.0650
 30
0.0000
 42
1.0000
  0
VERTEX
  8
16
 10
7.6200
 20
10.7950
 30
0.0000
  0
VERTEX
  8
16
 10
9.5250
 20
10.7950
 30
0.0000
 42
1.0000
  0
SEQEND
  8
0
  0
POLYLINE
  8
16
 66
1
 10
0.0000
 20
0.0000
 30
0.0000
 40
0.0000
 41
0.0000
 70
1
  0
VERTEX
  8
16
 10
7.1710
 20
11.8790
 30
0.0000
  0
VERTEX
  8
16
 10
6.5360
 20
11.2440
 30
0.0000
 42
1.0000
  0
VERTEX
  8
16
 10
7.4340
 20
10.3460
 30
0.0000
  0
VERTEX
  8
16
 10
8.0690
 20
10.9810
 30
0.0000
 42
1.0000
  0
SEQEND
  8
0
  0
POLYLINE
  8
16
 66
1
 10
0.0000
 20
0.0000
 30
0.0000
 40
0.0000
 41
0.0000
 70
1
  0
VERTEX
  8
16
 10
6.3500
 20
10.7950
 30
0.0000
  0
VERTEX
  8
16
 10
6.3500
 20
5.0800
 30
0.0000
 42
1.0000
  0
VERTEX
  8
16
 10
7.6200
 20
5.0800
 30
0.0000
  0
VERTEX
  8
16
 10
7.6200
 20
10.7950
 30
0.0000
 42
1.0000
  0
SEQEND
  8
0
  0
POLYLINE
  8
16
 66
1
 10
0.0000
 20
0.0000
 30
0.0000
 40
0.0000
 41
0.0000
 70
1
  0
VERTEX
  8
16
 10
27.7540
 20
1.4560
 30
0.0000
  0
VERTEX
  8
16
 10
29.6590
 20
3.3610
 30
0.0000
 42
1.0000
  0
VERTEX
  8
16
 10
28.7610
 20
4.2590
 30
0.0000
  0
VERTEX
  8
16
 10
26.8560
 20
2.3540
 30
0.0000
 42
1.0000
  0
SEQEND
  8
0
  0
POLYLINE
  8
16
 66
1
 10
0.0000
 20
0.0000
 30
0.0000
 40
0.0000
 41
0.0000
 70
1
  0
VERTEX
  8
16
 10
6.5360
 20
4.6310
 30
0.0000
  0
VERTEX
  8
16
 10
9.7110
 20
1.4560
 30
0.0000
 42
1.0000
  0
VERTEX
  8
16
 10
10.6090
 20
2.3540
 30
0.0000
  0
VERTEX
  8
16
 10
7.4340
 20
5.5290
 30
0.0000
 42
1.0000
  0
SEQEND
  8
0
  0
POLYLINE
  8
16
 66
1
 10
0.0000
 20
0.0000
 30
0.0000
 40
0.0000
 41
0.0000
 70
1
  0
VERTEX
  8
16
 10
10.1600
 20
1.2700
 30
0.0000
  0
VERTEX
  8
16
 10
27.3050
 20
1.2700
 30
0.0000
 42
1.0000
  0
VERTEX
  8
16
 10
27.3050
 20
2.5400
 30
0.0000
  0
VERTEX
  8
16
 10
10.1600
 20
2.5400
 30
0.0000
 42
1.0000
  0
SEQEND
  8
0
  0
INSERT
  8
18
  2
ROUNDV
 10
29.2100
 20
13.9700
 30
0.0000
 41
1.3000
 42
1.3000
 43
1.0000
 50
0.0000
  0
INSERT
  8
18
  2
ROUNDV
 10
29.2100
 20
13.9700
 30
0.0000
 41
1.3000
 42
1.3000
 43
1.0000
 50
0.0000
  0
CIRCLE
  8
44
 10
29.2100
 20
13.9700
 30
0.0000
 40
0.1750
  0
INSERT
  8
18
  2
ROUNDV
 10
29.2100
 20
3.8100
 30
0.0000
 41
1.3000
 42
1.3000
 43
1.0000
 50
0.0000
  0
INSERT
  8
18
  2
ROUNDV
 10
29.2100
 20
3.8100
 30
0.0000
 41
1.3000
 42
1.3000
 43
1.0000
 50
0.0000
  0
CIRCLE
  8
44
 10
29.2100
 20
3.8100
 30
0.0000
 40
0.1750
  0
ENDSEC
  0
EOF
