  0
SECTION
  2
HEADER
  9
$ACADVER
  1
AC1009
  9
$DWGCODEPAGE
  3
ansi_1252
  9
$INSBASE
 10
0.0
 20
0.0
 30
0.0
  9
$EXTMIN
 10
139.128610210253
 20
-0.1524000000000001
 30
0.0
  9
$EXTMAX
 10
270.2434624322768
 20
28.09245222202382
 30
0.0
  9
$LIMMIN
 10
0.0
 20
0.0
  9
$LIMMAX
 10
12.0
 20
9.0
  9
$ORTHOMODE
 70
     0
  9
$REGENMODE
 70
     1
  9
$FILLMODE
 70
     1
  9
$QTEXTMODE
 70
     0
  9
$MIRRTEXT
 70
     1
  9
$DRAGMODE
 70
     2
  9
$LTSCALE
 40
1.0
  9
$OSMODE
 70
    37
  9
$ATTMODE
 70
     1
  9
$TEXTSIZE
 40
0.2
  9
$TRACEWID
 40
0.05
  9
$TEXTSTYLE
  7
STANDARD
  9
$CLAYER
  8
DEFAULT
  9
$CELTYPE
  6
BYLAYER
  9
$CECOLOR
 62
   256
  9
$DIMSCALE
 40
1.0
  9
$DIMASZ
 40
0.18
  9
$DIMEXO
 40
0.0625
  9
$DIMDLI
 40
0.38
  9
$DIMRND
 40
0.0
  9
$DIMDLE
 40
0.0
  9
$DIMEXE
 40
0.18
  9
$DIMTP
 40
0.0
  9
$DIMTM
 40
0.0
  9
$DIMTXT
 40
0.18
  9
$DIMCEN
 40
0.09
  9
$DIMTSZ
 40
0.0
  9
$DIMTOL
 70
     0
  9
$DIMLIM
 70
     0
  9
$DIMTIH
 70
     1
  9
$DIMTOH
 70
     1
  9
$DIMSE1
 70
     0
  9
$DIMSE2
 70
     0
  9
$DIMTAD
 70
     0
  9
$DIMZIN
 70
     0
  9
$DIMBLK
  1

  9
$DIMASO
 70
     1
  9
$DIMSHO
 70
     1
  9
$DIMPOST
  1

  9
$DIMAPOST
  1

  9
$DIMALT
 70
     0
  9
$DIMALTD
 70
     2
  9
$DIMALTF
 40
25.4
  9
$DIMLFAC
 40
1.0
  9
$DIMTOFL
 70
     0
  9
$DIMTVP
 40
0.0
  9
$DIMTIX
 70
     0
  9
$DIMSOXD
 70
     0
  9
$DIMSAH
 70
     0
  9
$DIMBLK1
  1

  9
$DIMBLK2
  1

  9
$DIMSTYLE
  2
STANDARD
  9
$DIMCLRD
 70
     0
  9
$DIMCLRE
 70
     0
  9
$DIMCLRT
 70
     0
  9
$DIMTFAC
 40
1.0
  9
$DIMGAP
 40
0.09
  9
$LUNITS
 70
     2
  9
$LUPREC
 70
     3
  9
$SKETCHINC
 40
0.1
  9
$FILLETRAD
 40
0.5
  9
$AUNITS
 70
     0
  9
$AUPREC
 70
     0
  9
$MENU
  1
.
  9
$ELEVATION
 40
0.0
  9
$PELEVATION
 40
0.0
  9
$THICKNESS
 40
0.0
  9
$LIMCHECK
 70
     0
  9
$CHAMFERA
 40
0.0
  9
$CHAMFERB
 40
0.0
  9
$SKPOLY
 70
     0
  9
$TDCREATE
 40
2458178.732678576
  9
$TDUPDATE
 40
2458178.732692928
  9
$TDINDWG
 40
0.0000000116
  9
$TDUSRTIMER
 40
0.0000000116
  9
$USRTIMER
 70
     1
  9
$ANGBASE
 50
0.0
  9
$ANGDIR
 70
     0
  9
$PDMODE
 70
     0
  9
$PDSIZE
 40
0.0
  9
$PLINEWID
 40
0.0
  9
$COORDS
 70
     1
  9
$SPLFRAME
 70
     0
  9
$SPLINETYPE
 70
     6
  9
$SPLINESEGS
 70
     8
  9
$ATTDIA
 70
     0
  9
$ATTREQ
 70
     1
  9
$HANDLING
 70
     1
  9
$HANDSEED
  5
1EA
  9
$SURFTAB1
 70
     6
  9
$SURFTAB2
 70
     6
  9
$SURFTYPE
 70
     6
  9
$SURFU
 70
     6
  9
$SURFV
 70
     6
  9
$UCSNAME
  2

  9
$UCSORG
 10
0.0
 20
0.0
 30
0.0
  9
$UCSXDIR
 10
1.0
 20
0.0
 30
0.0
  9
$UCSYDIR
 10
0.0
 20
1.0
 30
0.0
  9
$PUCSNAME
  2

  9
$PUCSORG
 10
0.0
 20
0.0
 30
0.0
  9
$PUCSXDIR
 10
1.0
 20
0.0
 30
0.0
  9
$PUCSYDIR
 10
0.0
 20
1.0
 30
0.0
  9
$USERI1
 70
     0
  9
$USERI2
 70
     0
  9
$USERI3
 70
     0
  9
$USERI4
 70
     0
  9
$USERI5
 70
     0
  9
$USERR1
 40
0.0
  9
$USERR2
 40
0.0
  9
$USERR3
 40
0.0
  9
$USERR4
 40
0.0
  9
$USERR5
 40
0.0
  9
$WORLDVIEW
 70
     1
  9
$SHADEDGE
 70
     3
  9
$SHADEDIF
 70
    70
  9
$TILEMODE
 70
     1
  9
$MAXACTVP
 70
    64
  9
$PLIMCHECK
 70
     0
  9
$PEXTMIN
 10
1.000000000000000E+20
 20
1.000000000000000E+20
 30
1.000000000000000E+20
  9
$PEXTMAX
 10
-1.000000000000000E+20
 20
-1.000000000000000E+20
 30
-1.000000000000000E+20
  9
$PLIMMIN
 10
0.0
 20
0.0
  9
$PLIMMAX
 10
12.0
 20
9.0
  9
$UNITMODE
 70
     0
  9
$VISRETAIN
 70
     1
  9
$PLINEGEN
 70
     0
  9
$PSLTSCALE
 70
     1
  0
ENDSEC
  0
SECTION
  2
TABLES
  0
TABLE
  2
VPORT
 70
     1
  0
VPORT
  2
*ACTIVE
 70
     0
 10
0.0
 20
0.0
 11
1.0
 21
1.0
 12
204.6860363212649
 22
13.97002611101191
 13
0.0
 23
0.0
 14
0.5
 24
0.5
 15
0.5
 25
0.5
 16
0.0
 26
0.0
 36
1.0
 17
0.0
 27
0.0
 37
0.0
 40
28.80974926646429
 41
4.642079597066807
 42
50.0
 43
0.0
 44
0.0
 50
0.0
 51
0.0
 71
     0
 72
   100
 73
     1
 74
     3
 75
     0
 76
     0
 77
     0
 78
     0
  0
ENDTAB
  0
TABLE
  2
LTYPE
 70
     1
  0
LTYPE
  2
CONTINUOUS
 70
     0
  3
Solid line
 72
    65
 73
     0
 40
0.0
  0
ENDTAB
  0
TABLE
  2
LAYER
 70
     4
  0
LAYER
  2
0
 70
     0
 62
     7
  6
CONTINUOUS
  0
LAYER
  2
20
 70
     0
 62
    30
  6
CONTINUOUS
  0
LAYER
  2
44
 70
     0
 62
     4
  6
CONTINUOUS
  0
LAYER
  2
DEFAULT
 70
     0
 62
     7
  6
CONTINUOUS
  0
ENDTAB
  0
TABLE
  2
STYLE
 70
     1
  0
STYLE
  2
STANDARD
 70
     0
 40
0.0
 41
1.0
 50
0.0
 71
     0
 42
0.2
  3
txt
  4

  0
ENDTAB
  0
TABLE
  2
VIEW
 70
     0
  0
ENDTAB
  0
TABLE
  2
UCS
 70
     0
  0
ENDTAB
  0
TABLE
  2
APPID
 70
     1
  0
APPID
  2
ACAD
 70
     0
  0
ENDTAB
  0
TABLE
  2
DIMSTYLE
 70
     1
  0
DIMSTYLE
  2
STANDARD
 70
     0
  3

  4

  5

  6

  7

 40
1.0
 41
0.18
 42
0.0625
 43
0.38
 44
0.18
 45
0.0
 46
0.0
 47
0.0
 48
0.0
140
0.18
141
0.09
142
0.0
143
25.4
144
1.0
145
0.0
146
1.0
147
0.09
 71
     0
 72
     0
 73
     1
 74
     1
 75
     0
 76
     0
 77
     0
 78
     0
170
     0
171
     2
172
     0
173
     0
174
     0
175
     0
176
     0
177
     0
178
     0
  0
ENDTAB
  0
ENDSEC
  0
SECTION
  2
BLOCKS
  0
BLOCK
  8
0
  2
$MODEL_SPACE
 70
     0
 10
0.0
 20
0.0
 30
0.0
  3
$MODEL_SPACE
  1

  0
ENDBLK
  5
21
  8
0
  0
BLOCK
 67
     1
  8
0
  2
$PAPER_SPACE
 70
     0
 10
0.0
 20
0.0
 30
0.0
  3
$PAPER_SPACE
  1

  0
ENDBLK
  5
1D
 67
     1
  8
0
  0
ENDSEC
  0
SECTION
  2
ENTITIES
  0
LINE
  5
6B
  8
20
 10
270.0910624322768
 20
0.0
 30
0.0
 11
139.3010624322768
 21
0.0
 31
0.0
  0
POLYLINE
  5
6C
  8
20
 66
     1
 10
0.0
 20
0.0
 30
0.0
  0
VERTEX
  5
6D
  8
20
 10
270.0910624322768
 20
27.7876
 30
0.0
  0
VERTEX
  5
6E
  8
20
 10
145.6310624322768
 20
27.7876
 30
0.0
 42
-0.9999999999999999
  0
VERTEX
  5
6F
  8
20
 10
145.6310624322768
 20
28.0924
 30
0.0
  0
VERTEX
  5
70
  8
20
 10
270.0910624322768
 20
28.0924
 30
0.0
 42
-0.9999999999998134
  0
VERTEX
  5
71
  8
20
 10
270.0910624322768
 20
27.7876
 30
0.0
  0
SEQEND
  5
72
  8
20
  0
POLYLINE
  5
73
  8
20
 66
     1
 10
0.0
 20
0.0
 30
0.0
  0
VERTEX
  5
74
  8
20
 10
145.7388624322768
 20
27.8322
 30
0.0
  0
VERTEX
  5
75
  8
20
 10
139.3888624322768
 20
21.4822
 30
0.0
 42
-0.999999999999967
  0
VERTEX
  5
76
  8
20
 10
139.1732624322768
 20
21.6978
 30
0.0
  0
VERTEX
  5
77
  8
20
 10
145.5232624322768
 20
28.0478
 30
0.0
 42
-0.9999999999999999
  0
VERTEX
  5
78
  8
20
 10
145.7388624322768
 20
27.8322
 30
0.0
  0
SEQEND
  5
79
  8
20
  0
POLYLINE
  5
7A
  8
20
 66
     1
 10
0.0
 20
0.0
 30
0.0
  0
VERTEX
  5
7B
  8
20
 10
139.4334624322768
 20
21.59
 30
0.0
  0
VERTEX
  5
7C
  8
20
 10
139.4334624322768
 20
0.0
 30
0.0
 42
-0.9999999999999999
  0
VERTEX
  5
7D
  8
20
 10
139.1286624322768
 20
0.0
 30
0.0
  0
VERTEX
  5
7E
  8
20
 10
139.1286624322768
 20
21.59
 30
0.0
 42
-0.9999999999999999
  0
VERTEX
  5
7F
  8
20
 10
139.4334624322768
 20
21.59
 30
0.0
  0
SEQEND
  5
80
  8
20
  0
POLYLINE
  5
81
  8
20
 66
     1
 10
0.0
 20
0.0
 30
0.0
  0
VERTEX
  5
82
  8
20
 10
270.2434624322768
 20
27.94
 30
0.0
  0
VERTEX
  5
83
  8
20
 10
270.2434624322768
 20
0.0
 30
0.0
 42
-0.9999999999998134
  0
VERTEX
  5
84
  8
20
 10
269.9386624322768
 20
0.0
 30
0.0
  0
VERTEX
  5
85
  8
20
 10
269.9386624322768
 20
27.94
 30
0.0
 42
-0.9999999999998134
  0
VERTEX
  5
86
  8
20
 10
270.2434624322768
 20
27.94
 30
0.0
  0
SEQEND
  5
87
  8
20
  0
POLYLINE
  5
88
  8
20
 66
     1
 10
0.0
 20
0.0
 30
0.0
  0
VERTEX
  5
89
  8
20
 10
270.0910624322768
 20
-0.1524
 30
0.0
  0
VERTEX
  5
8A
  8
20
 10
139.2810624322768
 20
-0.1524
 30
0.0
 42
-0.9999999999999999
  0
VERTEX
  5
8B
  8
20
 10
139.2810624322768
 20
0.1524
 30
0.0
  0
VERTEX
  5
8C
  8
20
 10
270.0910624322768
 20
0.1524
 30
0.0
 42
-0.9999999999998134
  0
VERTEX
  5
8D
  8
20
 10
270.0910624322768
 20
-0.1524
 30
0.0
  0
SEQEND
  5
8E
  8
20
  0
CIRCLE
  5
8F
  8
20
 10
-264.3760624322769
 20
5.715
 30
0.0
 40
1.8
210
0.0
220
0.0
230
-1.0
  0
CIRCLE
  5
90
  8
20
 10
-144.9960624322768
 20
5.715
 30
0.0
 40
1.8
210
0.0
220
0.0
230
-1.0
  0
CIRCLE
  5
92
  8
44
 10
-146.4438624322768
 20
16.51
 30
0.0
 40
0.6
210
0.0
220
0.0
230
-1.0
  0
CIRCLE
  5
93
  8
44
 10
-142.5882624322768
 20
16.51
 30
0.0
 40
0.6
210
0.0
220
0.0
230
-1.0
  0
CIRCLE
  5
94
  8
44
 10
-159.1438624322768
 20
16.51
 30
0.0
 40
0.6
210
0.0
220
0.0
230
-1.0
  0
CIRCLE
  5
95
  8
44
 10
-155.2882624322768
 20
16.51
 30
0.0
 40
0.6
210
0.0
220
0.0
230
-1.0
  0
CIRCLE
  5
96
  8
44
 10
-171.8438624322768
 20
16.51
 30
0.0
 40
0.6
210
0.0
220
0.0
230
-1.0
  0
CIRCLE
  5
97
  8
44
 10
-167.9882624322768
 20
16.51
 30
0.0
 40
0.6
210
0.0
220
0.0
230
-1.0
  0
CIRCLE
  5
98
  8
44
 10
-184.5438624322768
 20
16.51
 30
0.0
 40
0.6
210
0.0
220
0.0
230
-1.0
  0
CIRCLE
  5
99
  8
44
 10
-180.6882624322768
 20
16.51
 30
0.0
 40
0.6
210
0.0
220
0.0
230
-1.0
  0
CIRCLE
  5
9A
  8
44
 10
-197.2438624322768
 20
16.51
 30
0.0
 40
0.6
210
0.0
220
0.0
230
-1.0
  0
CIRCLE
  5
9B
  8
44
 10
-193.3882624322768
 20
16.51
 30
0.0
 40
0.6
210
0.0
220
0.0
230
-1.0
  0
CIRCLE
  5
9C
  8
44
 10
-209.9438624322768
 20
16.51
 30
0.0
 40
0.6
210
0.0
220
0.0
230
-1.0
  0
CIRCLE
  5
9D
  8
44
 10
-206.0882624322768
 20
16.51
 30
0.0
 40
0.6
210
0.0
220
0.0
230
-1.0
  0
CIRCLE
  5
9E
  8
44
 10
-222.6438624322768
 20
16.51
 30
0.0
 40
0.6
210
0.0
220
0.0
230
-1.0
  0
CIRCLE
  5
9F
  8
44
 10
-218.7882624322768
 20
16.51
 30
0.0
 40
0.6
210
0.0
220
0.0
230
-1.0
  0
CIRCLE
  5
A0
  8
44
 10
-236.6138624322768
 20
16.51
 30
0.0
 40
0.6
210
0.0
220
0.0
230
-1.0
  0
CIRCLE
  5
A1
  8
44
 10
-232.7582624322768
 20
16.51
 30
0.0
 40
0.6
210
0.0
220
0.0
230
-1.0
  0
CIRCLE
  5
A2
  8
44
 10
-150.0760624322768
 20
16.51
 30
0.0
 40
0.4064
210
0.0
220
0.0
230
-1.0
  0
CIRCLE
  5
A3
  8
44
 10
-150.0760624322768
 20
24.13
 30
0.0
 40
0.4064
210
0.0
220
0.0
230
-1.0
  0
CIRCLE
  5
A4
  8
44
 10
-162.7760624322768
 20
16.51
 30
0.0
 40
0.4064
210
0.0
220
0.0
230
-1.0
  0
CIRCLE
  5
A5
  8
44
 10
-162.7760624322768
 20
24.13
 30
0.0
 40
0.4064
210
0.0
220
0.0
230
-1.0
  0
CIRCLE
  5
A6
  8
44
 10
-175.4760624322768
 20
16.51
 30
0.0
 40
0.4064
210
0.0
220
0.0
230
-1.0
  0
CIRCLE
  5
A7
  8
44
 10
-175.4760624322768
 20
24.13
 30
0.0
 40
0.4064
210
0.0
220
0.0
230
-1.0
  0
CIRCLE
  5
A8
  8
44
 10
-188.1760624322768
 20
16.51
 30
0.0
 40
0.4064
210
0.0
220
0.0
230
-1.0
  0
CIRCLE
  5
A9
  8
44
 10
-188.1760624322768
 20
24.13
 30
0.0
 40
0.4064
210
0.0
220
0.0
230
-1.0
  0
CIRCLE
  5
AA
  8
44
 10
-200.8760624322768
 20
16.51
 30
0.0
 40
0.4064
210
0.0
220
0.0
230
-1.0
  0
CIRCLE
  5
AB
  8
44
 10
-200.8760624322768
 20
24.13
 30
0.0
 40
0.4064
210
0.0
220
0.0
230
-1.0
  0
CIRCLE
  5
AC
  8
44
 10
-213.5760624322768
 20
16.51
 30
0.0
 40
0.4064
210
0.0
220
0.0
230
-1.0
  0
CIRCLE
  5
AD
  8
44
 10
-213.5760624322768
 20
24.13
 30
0.0
 40
0.4064
210
0.0
220
0.0
230
-1.0
  0
CIRCLE
  5
AE
  8
44
 10
-226.2760624322768
 20
16.51
 30
0.0
 40
0.4064
210
0.0
220
0.0
230
-1.0
  0
CIRCLE
  5
AF
  8
44
 10
-226.2760624322768
 20
24.13
 30
0.0
 40
0.4064
210
0.0
220
0.0
230
-1.0
  0
CIRCLE
  5
B0
  8
44
 10
-240.2460624322768
 20
16.51
 30
0.0
 40
0.4064
210
0.0
220
0.0
230
-1.0
  0
CIRCLE
  5
B1
  8
44
 10
-240.2460624322768
 20
24.13
 30
0.0
 40
0.4064
210
0.0
220
0.0
230
-1.0
  0
CIRCLE
  5
B2
  8
44
 10
-264.3760624322769
 20
17.78
 30
0.0
 40
0.5
210
0.0
220
0.0
230
-1.0
  0
CIRCLE
  5
B3
  8
44
 10
-264.3760624322769
 20
20.32
 30
0.0
 40
0.5
210
0.0
220
0.0
230
-1.0
  0
CIRCLE
  5
B4
  8
44
 10
-261.8360624322768
 20
17.78
 30
0.0
 40
0.5
210
0.0
220
0.0
230
-1.0
  0
CIRCLE
  5
B5
  8
44
 10
-261.8360624322768
 20
20.32
 30
0.0
 40
0.5
210
0.0
220
0.0
230
-1.0
  0
CIRCLE
  5
B6
  8
44
 10
-259.2960624322768
 20
17.78
 30
0.0
 40
0.5
210
0.0
220
0.0
230
-1.0
  0
CIRCLE
  5
B7
  8
44
 10
-259.2960624322768
 20
20.32
 30
0.0
 40
0.5
210
0.0
220
0.0
230
-1.0
  0
CIRCLE
  5
B8
  8
44
 10
-256.7560624322768
 20
17.78
 30
0.0
 40
0.5
210
0.0
220
0.0
230
-1.0
  0
CIRCLE
  5
B9
  8
44
 10
-256.7560624322768
 20
20.32
 30
0.0
 40
0.5
210
0.0
220
0.0
230
-1.0
  0
CIRCLE
  5
BA
  8
44
 10
-254.2160624322768
 20
17.78
 30
0.0
 40
0.5
210
0.0
220
0.0
230
-1.0
  0
CIRCLE
  5
BB
  8
44
 10
-254.2160624322768
 20
20.32
 30
0.0
 40
0.5
210
0.0
220
0.0
230
-1.0
  0
CIRCLE
  5
BC
  8
44
 10
-251.6760624322768
 20
17.78
 30
0.0
 40
0.5
210
0.0
220
0.0
230
-1.0
  0
CIRCLE
  5
BD
  8
44
 10
-251.6760624322768
 20
20.32
 30
0.0
 40
0.5
210
0.0
220
0.0
230
-1.0
  0
CIRCLE
  5
BE
  8
44
 10
-249.1360624322768
 20
17.78
 30
0.0
 40
0.5
210
0.0
220
0.0
230
-1.0
  0
CIRCLE
  5
BF
  8
44
 10
-249.1360624322768
 20
20.32
 30
0.0
 40
0.5
210
0.0
220
0.0
230
-1.0
  0
POLYLINE
  5
C1
  8
DEFAULT
 66
     1
 10
0.0
 20
0.0
 30
0.0
  0
VERTEX
  5
C2
  8
DEFAULT
 10
243.4210633406516
 20
23.49499094475276
 30
0.0
  0
VERTEX
  5
C3
  8
DEFAULT
 10
251.0552859165711
 20
23.49484068276579
 30
0.0
  0
VERTEX
  5
C4
  8
DEFAULT
 10
251.0696311132978
 20
23.49435702129379
 30
0.0
  0
VERTEX
  5
C5
  8
DEFAULT
 10
251.084088447838
 20
23.49354065535286
 30
0.0
  0
VERTEX
  5
C6
  8
DEFAULT
 10
251.0986477992608
 20
23.492383527228
 30
0.0
  0
VERTEX
  5
C7
  8
DEFAULT
 10
251.1132985068392
 20
23.4908779196737
 30
0.0
  0
VERTEX
  5
C8
  8
DEFAULT
 10
251.1280293793929
 20
23.48901649430623
 30
0.0
  0
VERTEX
  5
C9
  8
DEFAULT
 10
251.14282870757
 20
23.4867923302123
 30
0.0
  0
VERTEX
  5
CA
  8
DEFAULT
 10
251.1576842791614
 20
23.48419896253456
 30
0.0
  0
VERTEX
  5
CB
  8
DEFAULT
 10
251.1725833975233
 20
23.48123042077851
 30
0.0
  0
VERTEX
  5
CC
  8
DEFAULT
 10
251.1875129031555
 20
23.47788126657105
 30
0.0
  0
VERTEX
  5
CD
  8
DEFAULT
 10
251.2024591984647
 20
23.47414663058922
 30
0.0
  0
VERTEX
  5
CE
  8
DEFAULT
 10
251.2174082757112
 20
23.4700222483676
 30
0.0
  0
VERTEX
  5
CF
  8
DEFAULT
 10
251.2323457481067
 20
23.46550449468616
 30
0.0
  0
VERTEX
  5
D0
  8
DEFAULT
 10
251.2472568840082
 20
23.46059041623654
 30
0.0
  0
VERTEX
  5
D1
  8
DEFAULT
 10
251.2621266441122
 20
23.45527776226364
 30
0.0
  0
VERTEX
  5
D2
  8
DEFAULT
 10
251.2769397215275
 20
23.44956501288301
 30
0.0
  0
VERTEX
  5
D3
  8
DEFAULT
 10
251.2916805845713
 20
23.44345140478066
 30
0.0
  0
VERTEX
  5
D4
  8
DEFAULT
 10
251.3063335220976
 20
23.43693695401257
 30
0.0
  0
VERTEX
  5
D5
  8
DEFAULT
 10
251.3208826911398
 20
23.43002247563572
 30
0.0
  0
VERTEX
  5
D6
  8
DEFAULT
 10
251.3353121666137
 20
23.42270959992049
 30
0.0
  0
VERTEX
  5
D7
  8
DEFAULT
 10
251.3496059928021
 20
23.41500078491697
 30
0.0
  0
VERTEX
  5
D8
  8
DEFAULT
 10
251.3637482363114
 20
23.4068993251729
 30
0.0
  0
VERTEX
  5
D9
  8
DEFAULT
 10
251.3777230401704
 20
23.39840935643125
 30
0.0
  0
VERTEX
  5
DA
  8
DEFAULT
 10
251.3915146787148
 20
23.38953585616702
 30
0.0
  0
VERTEX
  5
DB
  8
DEFAULT
 10
251.4051076128885
 20
23.38028463985914
 30
0.0
  0
VERTEX
  5
DC
  8
DEFAULT
 10
251.4184865455757
 20
23.3706623529305
 30
0.0
  0
VERTEX
  5
DD
  8
DEFAULT
 10
251.4316364765693
 20
23.36067645832909
 30
0.0
  0
VERTEX
  5
DE
  8
DEFAULT
 10
251.4445427567772
 20
23.3503352197641
 30
0.0
  0
VERTEX
  5
DF
  8
DEFAULT
 10
251.4571911412656
 20
23.33964768065258
 30
0.0
  0
VERTEX
  5
E0
  8
DEFAULT
 10
251.4695678407472
 20
23.32862363887413
 30
0.0
  0
VERTEX
  5
E1
  8
DEFAULT
 10
251.4816595711279
 20
23.31727361747233
 30
0.0
  0
VERTEX
  5
E2
  8
DEFAULT
 10
251.4934536007422
 20
23.30560883148168
 30
0.0
  0
VERTEX
  5
E3
  8
DEFAULT
 10
252.1250624322768
 20
22.674
 30
0.0
 42
-0.198902634615091
  0
VERTEX
  5
E4
  8
DEFAULT
 10
252.3110533770296
 20
22.225
 30
0.0
  0
VERTEX
  5
E5
  8
DEFAULT
 10
252.3110624322768
 20
21.2182065464034
 30
0.0
  0
VERTEX
  5
E6
  8
DEFAULT
 10
252.5742689786797
 20
20.95499999999926
 30
0.0
  0
VERTEX
  5
E7
  8
DEFAULT
 10
253.3178558858735
 20
20.95499999999997
 30
0.0
 42
-0.5176982976384791
  0
VERTEX
  5
E8
  8
DEFAULT
 10
255.1142689786797
 20
20.95499999999927
 30
0.0
  0
VERTEX
  5
E9
  8
DEFAULT
 10
255.8578558858734
 20
20.955
 30
0.0
 42
-3.146781962845273
  0
VERTEX
  5
EA
  8
DEFAULT
 10
255.857855885874
 20
19.68500000000068
 30
0.0
  0
VERTEX
  5
EB
  8
DEFAULT
 10
255.1142689786802
 20
19.68500000000001
 30
0.0
 42
-0.5176982976384812
  0
VERTEX
  5
EC
  8
DEFAULT
 10
253.317855885874
 20
19.68500000000066
 30
0.0
  0
VERTEX
  5
ED
  8
DEFAULT
 10
252.5742689786803
 20
19.68499999999995
 30
0.0
 42
-1.186299047106199
  0
VERTEX
  5
EE
  8
DEFAULT
 10
251.0410624322776
 20
21.21820654640281
 30
0.0
  0
VERTEX
  5
EF
  8
DEFAULT
 10
251.0410624322768
 20
21.962
 30
0.0
  0
VERTEX
  5
F0
  8
DEFAULT
 10
250.7780624322768
 20
22.225
 30
0.0
  0
VERTEX
  5
F1
  8
DEFAULT
 10
243.6840624322768
 20
22.225
 30
0.0
  0
VERTEX
  5
F2
  8
DEFAULT
 10
240.063453600768
 20
18.60439116849123
 30
0.0
 42
-0.2008759561902248
  0
VERTEX
  5
F3
  8
DEFAULT
 10
239.6110624322768
 20
18.41500000000001
 30
0.0
  0
VERTEX
  5
F4
  8
DEFAULT
 10
234.7940624322768
 20
18.415
 30
0.0
  0
VERTEX
  5
F5
  8
DEFAULT
 10
233.5987255522871
 20
17.21966312001024
 30
0.0
 42
-1.430495383929148
  0
VERTEX
  5
F6
  8
DEFAULT
 10
231.6582624322768
 20
16.51
 30
0.0
  0
VERTEX
  5
F7
  8
DEFAULT
 10
231.67412543918
 20
16.69613699309676
 30
0.0
  0
VERTEX
  5
F8
  8
DEFAULT
 10
228.6852624322768
 20
19.685
 30
0.0
  0
VERTEX
  5
F9
  8
DEFAULT
 10
219.4232624322768
 20
19.685
 30
0.0
  0
VERTEX
  5
FA
  8
DEFAULT
 10
219.4232624322768
 20
17.4082065464034
 30
0.0
 42
-3.146781962845273
  0
VERTEX
  5
FB
  8
DEFAULT
 10
218.1532624322776
 20
17.40820654640286
 30
0.0
  0
VERTEX
  5
FC
  8
DEFAULT
 10
218.1532624322768
 20
19.685
 30
0.0
  0
VERTEX
  5
FD
  8
DEFAULT
 10
206.7232624322768
 20
19.685
 30
0.0
  0
VERTEX
  5
FE
  8
DEFAULT
 10
206.7232624322768
 20
17.40820654640338
 30
0.0
 42
-3.146781962845086
  0
VERTEX
  5
FF
  8
DEFAULT
 10
205.4532624322776
 20
17.40820654640284
 30
0.0
  0
VERTEX
  5
100
  8
DEFAULT
 10
205.4532624322768
 20
19.685
 30
0.0
  0
VERTEX
  5
101
  8
DEFAULT
 10
194.0232624322768
 20
19.685
 30
0.0
  0
VERTEX
  5
102
  8
DEFAULT
 10
194.0232624322769
 20
17.40820654640343
 30
0.0
 42
-3.146781962845367
  0
VERTEX
  5
103
  8
DEFAULT
 10
192.7532624322776
 20
17.40820654640287
 30
0.0
  0
VERTEX
  5
104
  8
DEFAULT
 10
192.7532624322768
 20
19.685
 30
0.0
  0
VERTEX
  5
105
  8
DEFAULT
 10
181.3232624322768
 20
19.685
 30
0.0
  0
VERTEX
  5
106
  8
DEFAULT
 10
181.3232624322768
 20
17.4082065464034
 30
0.0
 42
-3.146781962845266
  0
VERTEX
  5
107
  8
DEFAULT
 10
180.0532624322776
 20
17.40820654640278
 30
0.0
  0
VERTEX
  5
108
  8
DEFAULT
 10
180.0532624322768
 20
19.685
 30
0.0
  0
VERTEX
  5
109
  8
DEFAULT
 10
168.6232624322768
 20
19.685
 30
0.0
  0
VERTEX
  5
10A
  8
DEFAULT
 10
168.6232624322768
 20
17.40820654640341
 30
0.0
 42
-3.146781962845179
  0
VERTEX
  5
10B
  8
DEFAULT
 10
167.3532624322776
 20
17.40820654640284
 30
0.0
  0
VERTEX
  5
10C
  8
DEFAULT
 10
167.3532624322768
 20
19.685
 30
0.0
  0
VERTEX
  5
10D
  8
DEFAULT
 10
155.9232624322768
 20
19.685
 30
0.0
  0
VERTEX
  5
10E
  8
DEFAULT
 10
155.9232624322769
 20
17.40820654640346
 30
0.0
 42
-3.146781962845331
  0
VERTEX
  5
10F
  8
DEFAULT
 10
154.6532624322775
 20
17.40820654640282
 30
0.0
  0
VERTEX
  5
110
  8
DEFAULT
 10
154.6532624322768
 20
19.685
 30
0.0
  0
VERTEX
  5
111
  8
DEFAULT
 10
145.2590624322768
 20
19.685
 30
0.0
  0
VERTEX
  5
112
  8
DEFAULT
 10
143.0910624322768
 20
17.51700000000001
 30
0.0
  0
VERTEX
  5
113
  8
DEFAULT
 10
143.0910624322768
 20
17.48836197800214
 30
0.0
 42
-3.104269147662796
  0
VERTEX
  5
114
  8
DEFAULT
 10
141.821062432277
 20
17.29829192562158
 30
0.0
 42
-0.204788853735251
  0
VERTEX
  5
115
  8
DEFAULT
 10
142.0104536007946
 20
18.23239116846496
 30
0.0
  0
VERTEX
  5
116
  8
DEFAULT
 10
144.5470624322768
 20
20.76900000000002
 30
0.0
 42
-0.1989026838333998
  0
VERTEX
  5
117
  8
DEFAULT
 10
144.9960624322768
 20
20.95499094475276
 30
0.0
  0
VERTEX
  5
118
  8
DEFAULT
 10
218.6560609183188
 20
20.95499094475276
 30
0.0
  0
VERTEX
  5
119
  8
DEFAULT
 10
228.962485916571
 20
20.95484068276579
 30
0.0
  0
VERTEX
  5
11A
  8
DEFAULT
 10
228.9768311132978
 20
20.95435702129379
 30
0.0
  0
VERTEX
  5
11B
  8
DEFAULT
 10
228.991288447838
 20
20.95354065535286
 30
0.0
  0
VERTEX
  5
11C
  8
DEFAULT
 10
229.0058477992607
 20
20.952383527228
 30
0.0
  0
VERTEX
  5
11D
  8
DEFAULT
 10
229.0204985068392
 20
20.9508779196737
 30
0.0
  0
VERTEX
  5
11E
  8
DEFAULT
 10
229.035229379393
 20
20.94901649430624
 30
0.0
  0
VERTEX
  5
11F
  8
DEFAULT
 10
229.05002870757
 20
20.9467923302123
 30
0.0
  0
VERTEX
  5
120
  8
DEFAULT
 10
229.0648842791614
 20
20.94419896253456
 30
0.0
  0
VERTEX
  5
121
  8
DEFAULT
 10
229.0797833975232
 20
20.9412304207785
 30
0.0
  0
VERTEX
  5
122
  8
DEFAULT
 10
229.0947129031554
 20
20.93788126657104
 30
0.0
  0
VERTEX
  5
123
  8
DEFAULT
 10
229.1096591984647
 20
20.93414663058921
 30
0.0
  0
VERTEX
  5
124
  8
DEFAULT
 10
229.1246082757111
 20
20.93002224836759
 30
0.0
  0
VERTEX
  5
125
  8
DEFAULT
 10
229.1395457481066
 20
20.92550449468616
 30
0.0
  0
VERTEX
  5
126
  8
DEFAULT
 10
229.1544568840082
 20
20.92059041623655
 30
0.0
  0
VERTEX
  5
127
  8
DEFAULT
 10
229.1693266441121
 20
20.91527776226364
 30
0.0
  0
VERTEX
  5
128
  8
DEFAULT
 10
229.1841397215275
 20
20.90956501288302
 30
0.0
  0
VERTEX
  5
129
  8
DEFAULT
 10
229.1988805845712
 20
20.90345140478067
 30
0.0
  0
VERTEX
  5
12A
  8
DEFAULT
 10
229.2135335220976
 20
20.89693695401258
 30
0.0
  0
VERTEX
  5
12B
  8
DEFAULT
 10
229.2280826911397
 20
20.89002247563573
 30
0.0
  0
VERTEX
  5
12C
  8
DEFAULT
 10
229.2425121666137
 20
20.88270959992051
 30
0.0
  0
VERTEX
  5
12D
  8
DEFAULT
 10
229.256805992802
 20
20.87500078491698
 30
0.0
  0
VERTEX
  5
12E
  8
DEFAULT
 10
229.2709482363114
 20
20.86689932517293
 30
0.0
  0
VERTEX
  5
12F
  8
DEFAULT
 10
229.2849230401704
 20
20.85840935643128
 30
0.0
  0
VERTEX
  5
130
  8
DEFAULT
 10
229.2987146787148
 20
20.84953585616705
 30
0.0
  0
VERTEX
  5
131
  8
DEFAULT
 10
229.3123076128886
 20
20.84028463985917
 30
0.0
  0
VERTEX
  5
132
  8
DEFAULT
 10
229.3256865455757
 20
20.83066235293053
 30
0.0
  0
VERTEX
  5
133
  8
DEFAULT
 10
229.3388364765693
 20
20.82067645832912
 30
0.0
  0
VERTEX
  5
134
  8
DEFAULT
 10
229.3517427567771
 20
20.81033521976413
 30
0.0
  0
VERTEX
  5
135
  8
DEFAULT
 10
229.3643911412655
 20
20.79964768065261
 30
0.0
  0
VERTEX
  5
136
  8
DEFAULT
 10
229.3767678407472
 20
20.78862363887417
 30
0.0
  0
VERTEX
  5
137
  8
DEFAULT
 10
229.3888595711278
 20
20.77727361747237
 30
0.0
  0
VERTEX
  5
138
  8
DEFAULT
 10
229.4006536007422
 20
20.76560883148172
 30
0.0
  0
VERTEX
  5
139
  8
DEFAULT
 10
232.3746624322768
 20
17.7916
 30
0.0
  0
VERTEX
  5
13A
  8
DEFAULT
 10
234.0820624322768
 20
19.49900000000001
 30
0.0
 42
-0.1989026838333582
  0
VERTEX
  5
13B
  8
DEFAULT
 10
234.5310624322768
 20
19.68499094475277
 30
0.0
  0
VERTEX
  5
13C
  8
DEFAULT
 10
239.3480624322768
 20
19.685
 30
0.0
  0
VERTEX
  5
13D
  8
DEFAULT
 10
242.9720624322769
 20
23.30899999999999
 30
0.0
 42
-0.1989026991566258
  0
VERTEX
  5
13E
  8
DEFAULT
 10
243.4210633406516
 20
23.49499094475275
 30
0.0
  0
SEQEND
  5
13F
  8
DEFAULT
  0
POLYLINE
  5
140
  8
DEFAULT
 66
     1
 10
0.0
 20
0.0
 30
0.0
  0
VERTEX
  5
141
  8
DEFAULT
 10
263.2760624322768
 20
17.78
 30
0.0
 42
-1.643758476926771
  0
VERTEX
  5
142
  8
DEFAULT
 10
265.011062432276
 20
16.88179345359718
 30
0.0
  0
VERTEX
  5
143
  8
DEFAULT
 10
265.0110533770296
 20
15.874999892947
 30
0.0
 42
-0.1989026328092375
  0
VERTEX
  5
144
  8
DEFAULT
 10
264.8250624322768
 20
15.426
 30
0.0
  0
VERTEX
  5
145
  8
DEFAULT
 10
251.4934536007684
 20
2.094391168491548
 30
0.0
 42
-0.2008759561904576
  0
VERTEX
  5
146
  8
DEFAULT
 10
251.0410624322768
 20
1.904999999999995
 30
0.0
  0
VERTEX
  5
147
  8
DEFAULT
 10
164.046072802889
 20
1.905009055247256
 30
0.0
 42
-0.1989028587103867
  0
VERTEX
  5
148
  8
DEFAULT
 10
163.5970624322768
 20
2.090999999999998
 30
0.0
  0
VERTEX
  5
149
  8
DEFAULT
 10
150.2621994253736
 20
15.42586300690322
 30
0.0
 42
-0.2890287574722492
  0
VERTEX
  5
14A
  8
DEFAULT
 10
149.177855885874
 20
15.87500000000074
 30
0.0
  0
VERTEX
  5
14B
  8
DEFAULT
 10
147.3420689786802
 20
15.875
 30
0.0
 42
-3.146781962845464
  0
VERTEX
  5
14C
  8
DEFAULT
 10
147.3420689786797
 20
17.14499999999929
 30
0.0
  0
VERTEX
  5
14D
  8
DEFAULT
 10
149.1778558858735
 20
17.14499999999998
 30
0.0
 42
-0.7988844745594468
  0
VERTEX
  5
14E
  8
DEFAULT
 10
151.1601994253735
 20
16.32386300690327
 30
0.0
  0
VERTEX
  5
14F
  8
DEFAULT
 10
164.3090624322768
 20
3.174999999999999
 30
0.0
  0
VERTEX
  5
150
  8
DEFAULT
 10
250.7780624322768
 20
3.175
 30
0.0
  0
VERTEX
  5
151
  8
DEFAULT
 10
263.7410624322769
 20
16.13800000000001
 30
0.0
  0
VERTEX
  5
152
  8
DEFAULT
 10
263.7410624322768
 20
16.8817934535966
 30
0.0
 42
-0.2435012436058704
  0
VERTEX
  5
153
  8
DEFAULT
 10
263.2760624322768
 20
17.78
 30
0.0
  0
SEQEND
  5
154
  8
DEFAULT
  0
POLYLINE
  5
155
  8
DEFAULT
 66
     1
 10
0.0
 20
0.0
 30
0.0
  0
VERTEX
  5
156
  8
DEFAULT
 10
260.7360624322768
 20
17.78
 30
0.0
 42
-1.643758476926757
  0
VERTEX
  5
157
  8
DEFAULT
 10
262.471062432276
 20
16.88179345359719
 30
0.0
  0
VERTEX
  5
158
  8
DEFAULT
 10
262.4710533770296
 20
15.874999892947
 30
0.0
 42
-0.198902632809125
  0
VERTEX
  5
159
  8
DEFAULT
 10
262.2850624322768
 20
15.42599999999999
 30
0.0
  0
VERTEX
  5
15A
  8
DEFAULT
 10
250.858453600769
 20
3.99939116849216
 30
0.0
 42
-0.2008759561906886
  0
VERTEX
  5
15B
  8
DEFAULT
 10
250.4060624322768
 20
3.80999999999998
 30
0.0
  0
VERTEX
  5
15C
  8
DEFAULT
 10
174.8410623252238
 20
3.810009055247262
 30
0.0
 42
-0.1989026328092713
  0
VERTEX
  5
15D
  8
DEFAULT
 10
174.3920624322768
 20
3.995999999999995
 30
0.0
  0
VERTEX
  5
15E
  8
DEFAULT
 10
162.9621994253736
 20
15.42586300690322
 30
0.0
 42
-0.2890287574722477
  0
VERTEX
  5
15F
  8
DEFAULT
 10
161.877855885874
 20
15.87500000000078
 30
0.0
  0
VERTEX
  5
160
  8
DEFAULT
 10
160.0420689786802
 20
15.875
 30
0.0
 42
-3.14678196284483
  0
VERTEX
  5
161
  8
DEFAULT
 10
160.0420689786797
 20
17.14499999999929
 30
0.0
  0
VERTEX
  5
162
  8
DEFAULT
 10
161.8778558858734
 20
17.14500000000002
 30
0.0
 42
-0.7988844745594675
  0
VERTEX
  5
163
  8
DEFAULT
 10
163.8601994253735
 20
16.32386300690325
 30
0.0
  0
VERTEX
  5
164
  8
DEFAULT
 10
175.1040624322768
 20
5.079999999999995
 30
0.0
  0
VERTEX
  5
165
  8
DEFAULT
 10
250.1430624322768
 20
5.08
 30
0.0
  0
VERTEX
  5
166
  8
DEFAULT
 10
261.2010624322768
 20
16.13799999999999
 30
0.0
  0
VERTEX
  5
167
  8
DEFAULT
 10
261.2010624322769
 20
16.8817934535966
 30
0.0
 42
-0.2435012436059083
  0
VERTEX
  5
168
  8
DEFAULT
 10
260.7360624322768
 20
17.78
 30
0.0
  0
SEQEND
  5
169
  8
DEFAULT
  0
POLYLINE
  5
16A
  8
DEFAULT
 66
     1
 10
0.0
 20
0.0
 30
0.0
  0
VERTEX
  5
16B
  8
DEFAULT
 10
258.1960624322768
 20
17.78
 30
0.0
 42
-1.6437584769267
  0
VERTEX
  5
16C
  8
DEFAULT
 10
259.9310624322761
 20
16.88179345359718
 30
0.0
  0
VERTEX
  5
16D
  8
DEFAULT
 10
259.9310533770296
 20
15.874999892947
 30
0.0
 42
-0.1989026328092744
  0
VERTEX
  5
16E
  8
DEFAULT
 10
259.7450624322768
 20
15.42599999999999
 30
0.0
  0
VERTEX
  5
16F
  8
DEFAULT
 10
250.2234536007688
 20
5.904391168491987
 30
0.0
 42
-0.2008759561906146
  0
VERTEX
  5
170
  8
DEFAULT
 10
249.7710624322768
 20
5.715000000000014
 30
0.0
  0
VERTEX
  5
171
  8
DEFAULT
 10
185.6360700777646
 20
5.715009055247234
 30
0.0
 42
-0.1989028127709373
  0
VERTEX
  5
172
  8
DEFAULT
 10
185.1870624322769
 20
5.901000000000004
 30
0.0
  0
VERTEX
  5
173
  8
DEFAULT
 10
175.6621994253736
 20
15.42586300690324
 30
0.0
 42
-0.2890287574723435
  0
VERTEX
  5
174
  8
DEFAULT
 10
174.577855885874
 20
15.87500000000074
 30
0.0
  0
VERTEX
  5
175
  8
DEFAULT
 10
172.7420689786802
 20
15.875
 30
0.0
 42
-3.146781962844803
  0
VERTEX
  5
176
  8
DEFAULT
 10
172.7420689786796
 20
17.14499999999925
 30
0.0
  0
VERTEX
  5
177
  8
DEFAULT
 10
174.5778558858734
 20
17.14499999999999
 30
0.0
 42
-0.7988844745595195
  0
VERTEX
  5
178
  8
DEFAULT
 10
176.5601994253736
 20
16.32386300690321
 30
0.0
  0
VERTEX
  5
179
  8
DEFAULT
 10
185.8990624322768
 20
6.985000000000005
 30
0.0
  0
VERTEX
  5
17A
  8
DEFAULT
 10
249.5080624322768
 20
6.985
 30
0.0
  0
VERTEX
  5
17B
  8
DEFAULT
 10
258.6610624322768
 20
16.13800000000001
 30
0.0
  0
VERTEX
  5
17C
  8
DEFAULT
 10
258.6610624322768
 20
16.88179345359659
 30
0.0
 42
-0.2435012436059559
  0
VERTEX
  5
17D
  8
DEFAULT
 10
258.1960624322768
 20
17.78
 30
0.0
  0
SEQEND
  5
17E
  8
DEFAULT
  0
POLYLINE
  5
17F
  8
DEFAULT
 66
     1
 10
0.0
 20
0.0
 30
0.0
  0
VERTEX
  5
180
  8
DEFAULT
 10
255.6560624322768
 20
17.78
 30
0.0
 42
-1.643758476926791
  0
VERTEX
  5
181
  8
DEFAULT
 10
257.391062432276
 20
16.88179345359711
 30
0.0
  0
VERTEX
  5
182
  8
DEFAULT
 10
257.3910533770296
 20
15.875
 30
0.0
 42
-0.1989025451807456
  0
VERTEX
  5
183
  8
DEFAULT
 10
257.2050625079726
 20
15.42600007569576
 30
0.0
  0
VERTEX
  5
184
  8
DEFAULT
 10
249.5884536007695
 20
7.809391168492636
 30
0.0
 42
-0.2008759561909509
  0
VERTEX
  5
185
  8
DEFAULT
 10
249.1360624322768
 20
7.619999999999989
 30
0.0
  0
VERTEX
  5
186
  8
DEFAULT
 10
196.4310623252238
 20
7.620009055247257
 30
0.0
 42
-0.1989026328093091
  0
VERTEX
  5
187
  8
DEFAULT
 10
195.9820624322768
 20
7.806000000000007
 30
0.0
  0
VERTEX
  5
188
  8
DEFAULT
 10
188.3621994253736
 20
15.42586300690323
 30
0.0
 42
-0.2890287574723121
  0
VERTEX
  5
189
  8
DEFAULT
 10
187.277855885874
 20
15.87500000000074
 30
0.0
  0
VERTEX
  5
18A
  8
DEFAULT
 10
185.4420689786802
 20
15.875
 30
0.0
 42
-3.14678196284512
  0
VERTEX
  5
18B
  8
DEFAULT
 10
185.4420689786797
 20
17.14499999999924
 30
0.0
  0
VERTEX
  5
18C
  8
DEFAULT
 10
187.2778558858734
 20
17.14500000000001
 30
0.0
 42
-0.7988844745594693
  0
VERTEX
  5
18D
  8
DEFAULT
 10
189.2601994253736
 20
16.32386300690327
 30
0.0
  0
VERTEX
  5
18E
  8
DEFAULT
 10
196.6940624322768
 20
8.89000000000001
 30
0.0
  0
VERTEX
  5
18F
  8
DEFAULT
 10
248.8730624322768
 20
8.89
 30
0.0
  0
VERTEX
  5
190
  8
DEFAULT
 10
256.1210624322769
 20
16.13800000000001
 30
0.0
  0
VERTEX
  5
191
  8
DEFAULT
 10
256.1210624322768
 20
16.88179345359659
 30
0.0
 42
-0.2435012436059288
  0
VERTEX
  5
192
  8
DEFAULT
 10
255.6560624322768
 20
17.78
 30
0.0
  0
SEQEND
  5
193
  8
DEFAULT
  0
POLYLINE
  5
194
  8
DEFAULT
 66
     1
 10
0.0
 20
0.0
 30
0.0
  0
VERTEX
  5
195
  8
DEFAULT
 10
253.1160624322768
 20
17.78
 30
0.0
 42
-1.643758476926775
  0
VERTEX
  5
196
  8
DEFAULT
 10
254.8510624322761
 20
16.88179345359712
 30
0.0
  0
VERTEX
  5
197
  8
DEFAULT
 10
254.8510533770296
 20
15.8750002270937
 30
0.0
 42
-0.1989026876644445
  0
VERTEX
  5
198
  8
DEFAULT
 10
254.6650624322768
 20
15.426
 30
0.0
  0
VERTEX
  5
199
  8
DEFAULT
 10
248.9534536007682
 20
9.714391168491394
 30
0.0
 42
-0.2008759561902894
  0
VERTEX
  5
19A
  8
DEFAULT
 10
248.5010624322768
 20
9.524999999999997
 30
0.0
  0
VERTEX
  5
19B
  8
DEFAULT
 10
207.2260673526403
 20
9.525009055247256
 30
0.0
 42
-0.1989027668217655
  0
VERTEX
  5
19C
  8
DEFAULT
 10
206.7770624322768
 20
9.710999999999991
 30
0.0
  0
VERTEX
  5
19D
  8
DEFAULT
 10
201.0621994253736
 20
15.42586300690323
 30
0.0
 42
-0.2890287574723112
  0
VERTEX
  5
19E
  8
DEFAULT
 10
199.977855885874
 20
15.87500000000073
 30
0.0
  0
VERTEX
  5
19F
  8
DEFAULT
 10
198.1420689786802
 20
15.875
 30
0.0
 42
-3.146781962845009
  0
VERTEX
  5
1A0
  8
DEFAULT
 10
198.1420689786797
 20
17.14499999999926
 30
0.0
  0
VERTEX
  5
1A1
  8
DEFAULT
 10
199.9778558858734
 20
17.14499999999999
 30
0.0
 42
-0.7988844745595068
  0
VERTEX
  5
1A2
  8
DEFAULT
 10
201.9601994253736
 20
16.32386300690325
 30
0.0
  0
VERTEX
  5
1A3
  8
DEFAULT
 10
207.4890624322768
 20
10.795
 30
0.0
  0
VERTEX
  5
1A4
  8
DEFAULT
 10
248.2380624322768
 20
10.795
 30
0.0
  0
VERTEX
  5
1A5
  8
DEFAULT
 10
253.5810624322768
 20
16.13799999999999
 30
0.0
  0
VERTEX
  5
1A6
  8
DEFAULT
 10
253.5810624322768
 20
16.8817934535966
 30
0.0
 42
-0.2435012436059218
  0
VERTEX
  5
1A7
  8
DEFAULT
 10
253.1160624322768
 20
17.78
 30
0.0
  0
SEQEND
  5
1A8
  8
DEFAULT
  0
POLYLINE
  5
1A9
  8
DEFAULT
 66
     1
 10
0.0
 20
0.0
 30
0.0
  0
VERTEX
  5
1AA
  8
DEFAULT
 10
250.5760624322768
 20
17.78
 30
0.0
 42
-1.643758476926757
  0
VERTEX
  5
1AB
  8
DEFAULT
 10
252.3110624322761
 20
16.88179345359713
 30
0.0
  0
VERTEX
  5
1AC
  8
DEFAULT
 10
252.3110533770296
 20
15.874999892947
 30
0.0
 42
-0.1989026328093075
  0
VERTEX
  5
1AD
  8
DEFAULT
 10
252.1250624322768
 20
15.426
 30
0.0
  0
VERTEX
  5
1AE
  8
DEFAULT
 10
248.3184536007689
 20
11.61939116849209
 30
0.0
 42
-0.2008759561907271
  0
VERTEX
  5
1AF
  8
DEFAULT
 10
247.8660624322768
 20
11.43000000000001
 30
0.0
  0
VERTEX
  5
1B0
  8
DEFAULT
 10
218.0210659900781
 20
11.43000905524724
 30
0.0
 42
-0.1989027438434924
  0
VERTEX
  5
1B1
  8
DEFAULT
 10
217.5720624322768
 20
11.616
 30
0.0
  0
VERTEX
  5
1B2
  8
DEFAULT
 10
213.7621994253736
 20
15.42586300690324
 30
0.0
 42
-0.2890287574722368
  0
VERTEX
  5
1B3
  8
DEFAULT
 10
212.677855885874
 20
15.87500000000073
 30
0.0
  0
VERTEX
  5
1B4
  8
DEFAULT
 10
210.8420689786802
 20
15.875
 30
0.0
 42
-3.146781962845866
  0
VERTEX
  5
1B5
  8
DEFAULT
 10
210.8420689786797
 20
17.14499999999928
 30
0.0
  0
VERTEX
  5
1B6
  8
DEFAULT
 10
212.6778558858734
 20
17.145
 30
0.0
 42
-0.7988844745594886
  0
VERTEX
  5
1B7
  8
DEFAULT
 10
214.6601994253736
 20
16.32386300690323
 30
0.0
  0
VERTEX
  5
1B8
  8
DEFAULT
 10
218.2840624322768
 20
12.7
 30
0.0
  0
VERTEX
  5
1B9
  8
DEFAULT
 10
247.6030624322768
 20
12.7
 30
0.0
  0
VERTEX
  5
1BA
  8
DEFAULT
 10
251.0410624322768
 20
16.13800000000001
 30
0.0
  0
VERTEX
  5
1BB
  8
DEFAULT
 10
251.0410624322768
 20
16.88179345359659
 30
0.0
 42
-0.2435012436059071
  0
VERTEX
  5
1BC
  8
DEFAULT
 10
250.5760624322768
 20
17.78
 30
0.0
  0
SEQEND
  5
1BD
  8
DEFAULT
  0
POLYLINE
  5
1BE
  8
DEFAULT
 66
     1
 10
0.0
 20
0.0
 30
0.0
  0
VERTEX
  5
1BF
  8
DEFAULT
 10
248.0360624322768
 20
17.78
 30
0.0
 42
-1.643758476926655
  0
VERTEX
  5
1C0
  8
DEFAULT
 10
249.7710624322761
 20
16.88179345359719
 30
0.0
  0
VERTEX
  5
1C1
  8
DEFAULT
 10
249.7710533770295
 20
15.874999892947
 30
0.0
 42
-0.1989026328094238
  0
VERTEX
  5
1C2
  8
DEFAULT
 10
249.5850624322768
 20
15.42600000000001
 30
0.0
  0
VERTEX
  5
1C3
  8
DEFAULT
 10
247.6834536007688
 20
13.52439116849196
 30
0.0
 42
-0.2008759561905967
  0
VERTEX
  5
1C4
  8
DEFAULT
 10
247.2310624322768
 20
13.33499999999998
 30
0.0
  0
VERTEX
  5
1C5
  8
DEFAULT
 10
228.8160646275159
 20
13.33500905524724
 30
0.0
 42
-0.1989027208629142
  0
VERTEX
  5
1C6
  8
DEFAULT
 10
228.3670624322768
 20
13.521
 30
0.0
  0
VERTEX
  5
1C7
  8
DEFAULT
 10
226.4621994253736
 20
15.42586300690322
 30
0.0
 42
-0.2890287574722953
  0
VERTEX
  5
1C8
  8
DEFAULT
 10
225.377855885874
 20
15.87500000000076
 30
0.0
  0
VERTEX
  5
1C9
  8
DEFAULT
 10
223.5420689786802
 20
15.875
 30
0.0
 42
-3.146781962844859
  0
VERTEX
  5
1CA
  8
DEFAULT
 10
223.5420689786797
 20
17.14499999999927
 30
0.0
  0
VERTEX
  5
1CB
  8
DEFAULT
 10
225.3778558858734
 20
17.14500000000002
 30
0.0
 42
-0.7988844745594755
  0
VERTEX
  5
1CC
  8
DEFAULT
 10
227.3601994253737
 20
16.32386300690323
 30
0.0
  0
VERTEX
  5
1CD
  8
DEFAULT
 10
229.0790624322768
 20
14.605
 30
0.0
  0
VERTEX
  5
1CE
  8
DEFAULT
 10
246.9680624322768
 20
14.605
 30
0.0
  0
VERTEX
  5
1CF
  8
DEFAULT
 10
248.5010624322769
 20
16.13800000000001
 30
0.0
  0
VERTEX
  5
1D0
  8
DEFAULT
 10
248.5010624322768
 20
16.8817934535966
 30
0.0
 42
-0.2435012436059437
  0
VERTEX
  5
1D1
  8
DEFAULT
 10
248.0360624322768
 20
17.78
 30
0.0
  0
SEQEND
  5
1D2
  8
DEFAULT
  0
POLYLINE
  5
1D3
  8
DEFAULT
 66
     1
 10
0.0
 20
0.0
 30
0.0
  0
VERTEX
  5
1D4
  8
DEFAULT
 10
248.237855885874
 20
20.95499999999926
 30
0.0
 42
-3.146781962842777
  0
VERTEX
  5
1D5
  8
DEFAULT
 10
248.237855885874
 20
19.68500000000073
 30
0.0
  0
VERTEX
  5
1D6
  8
DEFAULT
 10
244.3190624322768
 20
19.685
 30
0.0
  0
VERTEX
  5
1D7
  8
DEFAULT
 10
241.3301994253736
 20
16.69613699309676
 30
0.0
 42
-0.7988844745596881
  0
VERTEX
  5
1D8
  8
DEFAULT
 10
239.347855885874
 20
15.87500000000074
 30
0.0
  0
VERTEX
  5
1D9
  8
DEFAULT
 10
237.5120689786802
 20
15.875
 30
0.0
 42
-3.146781962845357
  0
VERTEX
  5
1DA
  8
DEFAULT
 10
237.5120689786797
 20
17.1449999999993
 30
0.0
  0
VERTEX
  5
1DB
  8
DEFAULT
 10
239.3478558858734
 20
17.145
 30
0.0
 42
-0.2890287574718319
  0
VERTEX
  5
1DC
  8
DEFAULT
 10
240.4321994253736
 20
17.59413699309682
 30
0.0
  0
VERTEX
  5
1DD
  8
DEFAULT
 10
243.6070624322768
 20
20.769
 30
0.0
 42
-0.1989026838333712
  0
VERTEX
  5
1DE
  8
DEFAULT
 10
244.0560624322769
 20
20.95499094475277
 30
0.0
  0
VERTEX
  5
1DF
  8
DEFAULT
 10
248.2378558858734
 20
20.955
 30
0.0
  0
SEQEND
  5
1E0
  8
DEFAULT
  0
ENDSEC
  0
EOF
