  0
SECTION
  2
HEADER
  9
$ACADVER
  1
AC1009
  9
$DWGCODEPAGE
  3
ansi_1252
  9
$INSBASE
 10
0.0
 20
0.0
 30
0.0
  9
$EXTMIN
 10
10.1714091601481
 20
10.28277609298078
 30
0.0
  9
$EXTMAX
 10
230.1714172813481
 20
160.2827820534808
 30
0.0
  9
$LIMMIN
 10
0.0
 20
0.0
  9
$LIMMAX
 10
12.0
 20
9.0
  9
$ORTHOMODE
 70
     0
  9
$REGENMODE
 70
     1
  9
$FILLMODE
 70
     1
  9
$QTEXTMODE
 70
     0
  9
$MIRRTEXT
 70
     1
  9
$DRAGMODE
 70
     2
  9
$LTSCALE
 40
1.0
  9
$OSMODE
 70
    37
  9
$ATTMODE
 70
     1
  9
$TEXTSIZE
 40
0.2
  9
$TRACEWID
 40
0.05
  9
$TEXTSTYLE
  7
STANDARD
  9
$CLAYER
  8
0
  9
$CELTYPE
  6
BYLAYER
  9
$CECOLOR
 62
   256
  9
$DIMSCALE
 40
1.0
  9
$DIMASZ
 40
0.18
  9
$DIMEXO
 40
0.0625
  9
$DIMDLI
 40
0.38
  9
$DIMRND
 40
0.0
  9
$DIMDLE
 40
0.0
  9
$DIMEXE
 40
0.18
  9
$DIMTP
 40
0.0
  9
$DIMTM
 40
0.0
  9
$DIMTXT
 40
0.18
  9
$DIMCEN
 40
0.09
  9
$DIMTSZ
 40
0.0
  9
$DIMTOL
 70
     0
  9
$DIMLIM
 70
     0
  9
$DIMTIH
 70
     1
  9
$DIMTOH
 70
     1
  9
$DIMSE1
 70
     0
  9
$DIMSE2
 70
     0
  9
$DIMTAD
 70
     0
  9
$DIMZIN
 70
     0
  9
$DIMBLK
  1

  9
$DIMASO
 70
     1
  9
$DIMSHO
 70
     1
  9
$DIMPOST
  1

  9
$DIMAPOST
  1

  9
$DIMALT
 70
     0
  9
$DIMALTD
 70
     2
  9
$DIMALTF
 40
25.4
  9
$DIMLFAC
 40
1.0
  9
$DIMTOFL
 70
     0
  9
$DIMTVP
 40
0.0
  9
$DIMTIX
 70
     0
  9
$DIMSOXD
 70
     0
  9
$DIMSAH
 70
     0
  9
$DIMBLK1
  1

  9
$DIMBLK2
  1

  9
$DIMSTYLE
  2
STANDARD
  9
$DIMCLRD
 70
     0
  9
$DIMCLRE
 70
     0
  9
$DIMCLRT
 70
     0
  9
$DIMTFAC
 40
1.0
  9
$DIMGAP
 40
0.09
  9
$LUNITS
 70
     2
  9
$LUPREC
 70
     2
  9
$SKETCHINC
 40
0.1
  9
$FILLETRAD
 40
0.5
  9
$AUNITS
 70
     0
  9
$AUPREC
 70
     0
  9
$MENU
  1
.
  9
$ELEVATION
 40
0.0
  9
$PELEVATION
 40
0.0
  9
$THICKNESS
 40
0.0
  9
$LIMCHECK
 70
     0
  9
$CHAMFERA
 40
0.0
  9
$CHAMFERB
 40
0.0
  9
$SKPOLY
 70
     0
  9
$TDCREATE
 40
2458163.520409398
  9
$TDUPDATE
 40
2458163.520429664
  9
$TDINDWG
 40
0.0000000116
  9
$TDUSRTIMER
 40
0.0000000116
  9
$USRTIMER
 70
     1
  9
$ANGBASE
 50
0.0
  9
$ANGDIR
 70
     0
  9
$PDMODE
 70
     0
  9
$PDSIZE
 40
0.0
  9
$PLINEWID
 40
0.0
  9
$COORDS
 70
     1
  9
$SPLFRAME
 70
     0
  9
$SPLINETYPE
 70
     6
  9
$SPLINESEGS
 70
     8
  9
$ATTDIA
 70
     0
  9
$ATTREQ
 70
     1
  9
$HANDLING
 70
     1
  9
$HANDSEED
  5
254
  9
$SURFTAB1
 70
     6
  9
$SURFTAB2
 70
     6
  9
$SURFTYPE
 70
     6
  9
$SURFU
 70
     6
  9
$SURFV
 70
     6
  9
$UCSNAME
  2

  9
$UCSORG
 10
0.0
 20
0.0
 30
0.0
  9
$UCSXDIR
 10
1.0
 20
0.0
 30
0.0
  9
$UCSYDIR
 10
0.0
 20
1.0
 30
0.0
  9
$PUCSNAME
  2

  9
$PUCSORG
 10
0.0
 20
0.0
 30
0.0
  9
$PUCSXDIR
 10
1.0
 20
0.0
 30
0.0
  9
$PUCSYDIR
 10
0.0
 20
1.0
 30
0.0
  9
$USERI1
 70
     0
  9
$USERI2
 70
     0
  9
$USERI3
 70
     0
  9
$USERI4
 70
     0
  9
$USERI5
 70
     0
  9
$USERR1
 40
0.0
  9
$USERR2
 40
0.0
  9
$USERR3
 40
0.0
  9
$USERR4
 40
0.0
  9
$USERR5
 40
0.0
  9
$WORLDVIEW
 70
     1
  9
$SHADEDGE
 70
     3
  9
$SHADEDIF
 70
    70
  9
$TILEMODE
 70
     1
  9
$MAXACTVP
 70
    64
  9
$PLIMCHECK
 70
     0
  9
$PEXTMIN
 10
1.000000000000000E+20
 20
1.000000000000000E+20
 30
1.000000000000000E+20
  9
$PEXTMAX
 10
-1.000000000000000E+20
 20
-1.000000000000000E+20
 30
-1.000000000000000E+20
  9
$PLIMMIN
 10
0.0
 20
0.0
  9
$PLIMMAX
 10
12.0
 20
9.0
  9
$UNITMODE
 70
     0
  9
$VISRETAIN
 70
     1
  9
$PLINEGEN
 70
     0
  9
$PSLTSCALE
 70
     1
  0
ENDSEC
  0
SECTION
  2
TABLES
  0
TABLE
  2
VPORT
 70
     1
  0
VPORT
  2
*ACTIVE
 70
     0
 10
0.0
 20
0.0
 11
1.0
 21
1.0
 12
120.1714132207481
 22
85.28277907323078
 13
0.0
 23
0.0
 14
0.5
 24
0.5
 15
0.5
 25
0.5
 16
0.0
 26
0.0
 36
1.0
 17
0.0
 27
0.0
 37
0.0
 40
153.00000607971
 41
1.466666662527556
 42
50.0
 43
0.0
 44
0.0
 50
0.0
 51
0.0
 71
     0
 72
   100
 73
     1
 74
     3
 75
     0
 76
     0
 77
     0
 78
     0
  0
ENDTAB
  0
TABLE
  2
LTYPE
 70
     1
  0
LTYPE
  2
CONTINUOUS
 70
     0
  3
Solid line
 72
    65
 73
     0
 40
0.0
  0
ENDTAB
  0
TABLE
  2
LAYER
 70
     1
  0
LAYER
  2
0
 70
     0
 62
     7
  6
CONTINUOUS
  0
ENDTAB
  0
TABLE
  2
STYLE
 70
     1
  0
STYLE
  2
STANDARD
 70
     0
 40
0.0
 41
1.0
 50
0.0
 71
     0
 42
0.2
  3
txt
  4

  0
ENDTAB
  0
TABLE
  2
VIEW
 70
     0
  0
ENDTAB
  0
TABLE
  2
UCS
 70
     0
  0
ENDTAB
  0
TABLE
  2
APPID
 70
     1
  0
APPID
  2
ACAD
 70
     0
  0
ENDTAB
  0
TABLE
  2
DIMSTYLE
 70
     1
  0
DIMSTYLE
  2
STANDARD
 70
     0
  3

  4

  5

  6

  7

 40
1.0
 41
0.18
 42
0.0625
 43
0.38
 44
0.18
 45
0.0
 46
0.0
 47
0.0
 48
0.0
140
0.18
141
0.09
142
0.0
143
25.4
144
1.0
145
0.0
146
1.0
147
0.09
 71
     0
 72
     0
 73
     1
 74
     1
 75
     0
 76
     0
 77
     0
 78
     0
170
     0
171
     2
172
     0
173
     0
174
     0
175
     0
176
     0
177
     0
178
     0
  0
ENDTAB
  0
ENDSEC
  0
SECTION
  2
BLOCKS
  0
BLOCK
  8
0
  2
$MODEL_SPACE
 70
     0
 10
0.0
 20
0.0
 30
0.0
  3
$MODEL_SPACE
  1

  0
ENDBLK
  5
21
  8
0
  0
BLOCK
 67
     1
  8
0
  2
$PAPER_SPACE
 70
     0
 10
0.0
 20
0.0
 30
0.0
  3
$PAPER_SPACE
  1

  0
ENDBLK
  5
1D
 67
     1
  8
0
  0
ENDSEC
  0
SECTION
  2
ENTITIES
  0
CIRCLE
  5
6A
  8
0
  6
CONTINUOUS
 62
     7
 10
85.4214165625481
 20
125.2827785330808
 30
0.0
 40
1.999999999999995
  0
CIRCLE
  5
6B
  8
0
  6
CONTINUOUS
 62
     7
 10
154.9214165625481
 20
125.2827785330808
 30
0.0
 40
1.999999999999987
  0
LINE
  5
6C
  8
0
  6
CONTINUOUS
 62
     7
 10
139.2871620360481
 20
50.48277113388079
 30
0.0
 11
139.2871620360481
 21
54.48277924008079
 31
0.0
  0
LINE
  5
6D
  8
0
  6
CONTINUOUS
 62
     7
 10
122.6912768784481
 20
54.48277924008079
 30
0.0
 11
122.6912768784481
 21
50.48277113388079
 31
0.0
  0
LINE
  5
6E
  8
0
  6
CONTINUOUS
 62
     7
 10
133.4215583506481
 20
62.90048990198079
 30
0.0
 11
133.2839163246481
 21
63.13278410388077
 31
0.0
  0
LINE
  5
6F
  8
0
  6
CONTINUOUS
 62
     7
 10
128.0589135590481
 20
63.13278410388077
 30
0.0
 11
127.9212789836481
 21
62.90048990198079
 31
0.0
  0
LINE
  5
70
  8
0
  6
CONTINUOUS
 62
     7
 10
133.4214167895481
 20
42.33277473398078
 30
0.0
 11
133.4214167895481
 21
45.03277573538077
 31
0.0
  0
LINE
  5
71
  8
0
  6
CONTINUOUS
 62
     7
 10
127.9214130941481
 20
45.03277573538077
 30
0.0
 11
127.9214130941481
 21
42.33277473398078
 31
0.0
  0
LINE
  5
72
  8
0
  6
CONTINUOUS
 62
     7
 10
127.9214130941481
 20
42.33277473398078
 30
0.0
 11
128.2214181724481
 21
42.03278455688078
 31
0.0
  0
LINE
  5
73
  8
0
  6
CONTINUOUS
 62
     7
 10
133.1214191618481
 20
42.03278455688078
 30
0.0
 11
133.4214167895481
 21
42.33277473398078
 31
0.0
  0
ARC
  5
74
  8
0
  6
CONTINUOUS
 62
     7
 10
129.0714165625481
 20
45.13277853308077
 30
0.0
 40
0.1000000000000227
 50
270.0
 51
0.0
  0
ARC
  5
75
  8
0
  6
CONTINUOUS
 62
     7
 10
132.2714165625481
 20
45.13277853308077
 30
0.0
 40
0.1000000000000227
 50
180.0
 51
270.0
  0
LINE
  5
76
  8
0
  6
CONTINUOUS
 62
     7
 10
132.1714179816481
 20
63.13278410388077
 30
0.0
 11
132.1714179816481
 21
64.75227210468077
 31
0.0
  0
LINE
  5
77
  8
0
  6
CONTINUOUS
 62
     7
 10
129.1714193525481
 20
64.75227210468077
 30
0.0
 11
129.1714193525481
 21
63.13278410388077
 31
0.0
  0
LINE
  5
78
  8
0
  6
CONTINUOUS
 62
     7
 10
132.1714179816481
 20
64.75227210468077
 30
0.0
 11
131.8909185233481
 21
65.03277156298077
 31
0.0
  0
LINE
  5
79
  8
0
  6
CONTINUOUS
 62
     7
 10
129.4519188109481
 20
65.03277156298077
 30
0.0
 11
129.1714193525481
 21
64.75227210468077
 31
0.0
  0
LINE
  5
7A
  8
0
  6
CONTINUOUS
 62
     7
 10
128.5570221248481
 20
47.78278503368077
 30
0.0
 11
128.8570197525481
 21
47.48277995538078
 31
0.0
  0
LINE
  5
7B
  8
0
  6
CONTINUOUS
 62
     7
 10
133.7570207420481
 20
47.48277995538078
 30
0.0
 11
134.0570258203481
 21
47.78278503368077
 31
0.0
  0
LINE
  5
7C
  8
0
  6
CONTINUOUS
 62
     7
 10
134.0570258203481
 20
47.78278503368077
 30
0.0
 11
134.0570258203481
 21
50.48277113388079
 31
0.0
  0
LINE
  5
7D
  8
0
  6
CONTINUOUS
 62
     7
 10
128.5570221248481
 20
50.48277113388079
 30
0.0
 11
128.5570221248481
 21
47.78278503368077
 31
0.0
  0
LINE
  5
7E
  8
0
  6
CONTINUOUS
 62
     7
 10
128.5570221248481
 20
103.5827759260808
 30
0.0
 11
128.5570221248481
 21
100.8827749246808
 31
0.0
  0
LINE
  5
7F
  8
0
  6
CONTINUOUS
 62
     7
 10
134.0570258203481
 20
100.8827749246808
 30
0.0
 11
134.0570258203481
 21
103.5827759260808
 31
0.0
  0
LINE
  5
80
  8
0
  6
CONTINUOUS
 62
     7
 10
134.0570258203481
 20
103.5827759260808
 30
0.0
 11
133.7570207420481
 21
103.8827810043808
 31
0.0
  0
LINE
  5
81
  8
0
  6
CONTINUOUS
 62
     7
 10
128.8570197525481
 20
103.8827810043808
 30
0.0
 11
128.5570221248481
 21
103.5827759260808
 31
0.0
  0
LINE
  5
82
  8
0
  6
CONTINUOUS
 62
     7
 10
93.42141768364812
 20
112.2827741855808
 30
0.0
 11
93.72141531134812
 21
111.9827840084808
 31
0.0
  0
LINE
  5
83
  8
0
  6
CONTINUOUS
 62
     7
 10
98.6214163008481
 20
111.9827840084808
 30
0.0
 11
98.9214139285481
 21
112.2827741855808
 31
0.0
  0
LINE
  5
84
  8
0
  6
CONTINUOUS
 62
     7
 10
98.9214139285481
 20
112.2827741855808
 30
0.0
 11
98.9214139285481
 21
114.9827751869808
 31
0.0
  0
LINE
  5
85
  8
0
  6
CONTINUOUS
 62
     7
 10
93.42141768364812
 20
114.9827751869808
 30
0.0
 11
93.42141768364812
 21
112.2827741855808
 31
0.0
  0
LINE
  5
86
  8
0
  6
CONTINUOUS
 62
     7
 10
141.4214181008481
 20
112.2827741855808
 30
0.0
 11
141.7214157286481
 21
111.9827840084808
 31
0.0
  0
LINE
  5
87
  8
0
  6
CONTINUOUS
 62
     7
 10
146.6214167180482
 20
111.9827840084808
 30
0.0
 11
146.9214180710481
 21
112.2827741855808
 31
0.0
  0
LINE
  5
88
  8
0
  6
CONTINUOUS
 62
     7
 10
146.9214180710481
 20
112.2827741855808
 30
0.0
 11
146.9214180710481
 21
114.9827751869808
 31
0.0
  0
LINE
  5
89
  8
0
  6
CONTINUOUS
 62
     7
 10
141.4214181008481
 20
114.9827751869808
 30
0.0
 11
141.4214181008481
 21
112.2827741855808
 31
0.0
  0
LINE
  5
8A
  8
0
  6
CONTINUOUS
 62
     7
 10
139.2871620360481
 20
96.48277494858078
 30
0.0
 11
139.2871620360481
 21
100.8827749246808
 31
0.0
  0
LINE
  5
8B
  8
0
  6
CONTINUOUS
 62
     7
 10
122.6912768784481
 20
100.8827749246808
 30
0.0
 11
122.6912768784481
 21
96.48277494858078
 31
0.0
  0
ARC
  5
8C
  8
0
  6
CONTINUOUS
 62
     7
 10
126.9214165625481
 20
104.4827785330808
 30
0.0
 40
0.5
 50
90.0
 51
180.0
  0
ARC
  5
8D
  8
0
  6
CONTINUOUS
 62
     7
 10
134.4214165625481
 20
104.4827785330808
 30
0.0
 40
0.5
 50
0.0
 51
90.0
  0
LINE
  5
8E
  8
0
  6
CONTINUOUS
 62
     7
 10
134.9214198294481
 20
100.9827766174808
 30
0.0
 11
134.9214198294481
 21
104.4827762598808
 31
0.0
  0
LINE
  5
8F
  8
0
  6
CONTINUOUS
 62
     7
 10
126.4214175048481
 20
104.4827762598808
 30
0.0
 11
126.4214175048481
 21
100.9827766174808
 31
0.0
  0
ARC
  5
90
  8
0
  6
CONTINUOUS
 62
     7
 10
124.3714165625481
 20
100.7827785330808
 30
0.0
 40
0.1999999999999886
 50
90.0
 51
149.9999999999993
  0
ARC
  5
91
  8
0
  6
CONTINUOUS
 62
     7
 10
136.9714165625481
 20
100.7827785330808
 30
0.0
 40
0.2000000000000087
 50
29.99999999999669
 51
90.0
  0
LINE
  5
92
  8
0
  6
CONTINUOUS
 62
     7
 10
140.9214170876481
 20
106.9827738756808
 30
0.0
 11
140.9214170876481
 21
108.8827762359808
 31
0.0
  0
ARC
  5
93
  8
0
  6
CONTINUOUS
 62
     7
 10
136.9714165625481
 20
106.1827785330808
 30
0.0
 40
0.2000000000000171
 50
270.0
 51
0.0
  0
ARC
  5
94
  8
0
  6
CONTINUOUS
 62
     7
 10
124.3714165625481
 20
106.1827785330808
 30
0.0
 40
0.2000000000000171
 50
180.0
 51
270.0
  0
LINE
  5
95
  8
0
  6
CONTINUOUS
 62
     7
 10
124.1714166703481
 20
106.9827738756808
 30
0.0
 11
124.1714166703481
 21
106.1827752346808
 31
0.0
  0
LINE
  5
96
  8
0
  6
CONTINUOUS
 62
     7
 10
137.1714132133481
 20
106.1827752346808
 30
0.0
 11
137.1714132133481
 21
106.9827738756808
 31
0.0
  0
ARC
  5
97
  8
0
  6
CONTINUOUS
 62
     7
 10
135.9714165625481
 20
105.6827785330808
 30
0.0
 40
0.2000000000000171
 50
270.0
 51
0.0
  0
ARC
  5
98
  8
0
  6
CONTINUOUS
 62
     7
 10
125.3714165625481
 20
105.6827785330808
 30
0.0
 40
0.2000000000000171
 50
180.0
 51
270.0
  0
LINE
  5
99
  8
0
  6
CONTINUOUS
 62
     7
 10
125.1714186969481
 20
105.9827718490808
 30
0.0
 11
125.1714186969481
 21
105.6827816719808
 31
0.0
  0
LINE
  5
9A
  8
0
  6
CONTINUOUS
 62
     7
 10
136.1714186373481
 20
105.6827816719808
 30
0.0
 11
136.1714186373481
 21
105.9827718490808
 31
0.0
  0
ARC
  5
9B
  8
0
  6
CONTINUOUS
 62
     7
 10
103.2214165625481
 20
108.7827785330808
 30
0.0
 40
0.1999999999999886
 50
0.0
 51
90.0
  0
LINE
  5
9C
  8
0
  6
CONTINUOUS
 62
     7
 10
103.4214155975481
 20
108.7827745432808
 30
0.0
 11
103.4214155975481
 21
106.9827738756808
 31
0.0
  0
LINE
  5
9D
  8
0
  6
CONTINUOUS
 62
     7
 10
140.9202063682676
 20
108.8990781063724
 30
0.0
 11
140.9209290745855
 21
108.9820328707385
 31
0.0
  0
LINE
  5
9E
  8
0
  6
CONTINUOUS
 62
     7
 10
128.1714173260481
 20
105.4827782863808
 30
0.0
 11
128.1714173260481
 21
104.9827847236808
 31
0.0
  0
LINE
  5
9F
  8
0
  6
CONTINUOUS
 62
     7
 10
133.1714200082481
 20
104.9827847236808
 30
0.0
 11
133.1714200082481
 21
105.4827782863808
 31
0.0
  0
LINE
  5
A0
  8
0
  6
CONTINUOUS
 62
     7
 10
121.2382124963481
 20
106.6827836984808
 30
0.0
 11
121.2382124963481
 21
106.9827738756808
 31
0.0
  0
ARC
  5
A1
  8
0
  6
CONTINUOUS
 62
     7
 10
-146.2990486926487
 20
108.8298914846829
 30
0.0
 40
5.379436866369057
 50
0.052062731377793
 51
0.6896198501694817
210
0.0
220
0.0
230
-1.0
  0
LINE
  5
A2
  8
0
  6
CONTINUOUS
 62
     7
 10
180.1714165362481
 20
89.78278074218079
 30
0.0
 11
180.1714165362481
 21
64.78277478168079
 31
0.0
  0
LINE
  5
A3
  8
0
  6
CONTINUOUS
 62
     7
 10
60.17142108114811
 20
89.78278074218079
 30
0.0
 11
60.17142108114811
 21
64.78277478168079
 31
0.0
  0
LINE
  5
A4
  8
0
  6
CONTINUOUS
 62
     7
 10
60.17142108114811
 20
64.78277478168079
 30
0.0
 11
119.2040102782481
 21
64.78277478168079
 31
0.0
  0
LINE
  5
A5
  8
0
  6
CONTINUOUS
 62
     7
 10
125.4632877412481
 20
64.78277478168079
 30
0.0
 11
129.2019145789481
 21
64.78277478168079
 31
0.0
  0
LINE
  5
A6
  8
0
  6
CONTINUOUS
 62
     7
 10
132.1409153047481
 20
64.78277478168079
 30
0.0
 11
137.1507602038481
 21
64.78277478168079
 31
0.0
  0
LINE
  5
A7
  8
0
  6
CONTINUOUS
 62
     7
 10
143.4100376668481
 20
64.78277478168079
 30
0.0
 11
180.1714165362481
 21
64.78277478168079
 31
0.0
  0
LINE
  5
A8
  8
0
  6
CONTINUOUS
 62
     7
 10
230.1714172813481
 20
10.28277609298078
 30
0.0
 11
10.1714091601481
 21
10.28277609298078
 31
0.0
  0
LINE
  5
A9
  8
0
  6
CONTINUOUS
 62
     7
 10
230.1714172813481
 20
160.2827820534808
 30
0.0
 11
10.1714091601481
 21
160.2827820534808
 31
0.0
  0
LINE
  5
AA
  8
0
  6
CONTINUOUS
 62
     7
 10
230.1714172813481
 20
10.28277609298078
 30
0.0
 11
230.1714172813481
 21
160.2827820534808
 31
0.0
  0
CIRCLE
  5
AB
  8
0
  6
CONTINUOUS
 62
     7
 10
210.1714165625481
 20
135.2827785330808
 30
0.0
 40
4.000000000000028
  0
CIRCLE
  5
AC
  8
0
  6
CONTINUOUS
 62
     7
 10
210.1714165625481
 20
35.28277853308077
 30
0.0
 40
4.000000000000028
  0
CIRCLE
  5
AD
  8
0
  6
CONTINUOUS
 62
     7
 10
30.1714165625481
 20
135.2827785330808
 30
0.0
 40
4.0
  0
CIRCLE
  5
AE
  8
0
  6
CONTINUOUS
 62
     7
 10
30.1714165625481
 20
35.28277853308077
 30
0.0
 40
4.0
  0
LINE
  5
AF
  8
0
  6
CONTINUOUS
 62
     7
 10
60.17142108114811
 20
89.78278074218079
 30
0.0
 11
119.2040102782481
 21
89.78278074218079
 31
0.0
  0
LINE
  5
B0
  8
0
  6
CONTINUOUS
 62
     7
 10
127.8620394173481
 20
89.78278074218079
 30
0.0
 11
134.7520085278481
 21
89.78278074218079
 31
0.0
  0
LINE
  5
B1
  8
0
  6
CONTINUOUS
 62
     7
 10
143.4100376668481
 20
89.78278074218079
 30
0.0
 11
180.1714165362481
 21
89.78278074218079
 31
0.0
  0
LINE
  5
B2
  8
0
  6
CONTINUOUS
 62
     7
 10
10.1714091601481
 20
10.28277609298078
 30
0.0
 11
10.1714091601481
 21
160.2827820534808
 31
0.0
  0
ARC
  5
B3
  8
0
  6
CONTINUOUS
 62
     7
 10
130.2021236682481
 20
65.48223373078079
 30
0.0
 40
4.99945726521207
 50
179.9938343145001
 51
269.9934430337
  0
LINE
  5
B4
  8
0
  6
CONTINUOUS
 62
     7
 10
132.2011085453481
 20
60.48277649828077
 30
0.0
 11
130.2015515270481
 21
60.48277649828077
 31
0.0
  0
ARC
  5
B5
  8
0
  6
CONTINUOUS
 62
     7
 10
132.2005437791481
 20
65.48221890768079
 30
0.0
 40
4.999442441318507
 50
270.0064724659001
 51
0.0063355824000462
  0
LINE
  5
B6
  8
0
  6
CONTINUOUS
 62
     7
 10
137.1999861899481
 20
85.48278245878078
 30
0.0
 11
137.1999861899481
 21
65.48277172988077
 31
0.0
  0
ARC
  5
B7
  8
0
  6
CONTINUOUS
 62
     7
 10
132.2005437791481
 20
85.48333528098078
 30
0.0
 40
4.999442441318507
 50
359.9936644176001
 51
89.99352753409994
  0
LINE
  5
B8
  8
0
  6
CONTINUOUS
 62
     7
 10
130.2015515270481
 20
90.48277769038077
 30
0.0
 11
132.2011085453481
 21
90.48277769038077
 31
0.0
  0
ARC
  5
B9
  8
0
  6
CONTINUOUS
 62
     7
 10
130.2021236682481
 20
85.48332045788078
 30
0.0
 40
4.99945726521207
 50
90.0065569663
 51
180.0061656854999
  0
LINE
  5
BA
  8
0
  6
CONTINUOUS
 62
     7
 10
125.2026664319481
 20
65.48277172988077
 30
0.0
 11
125.2026664319481
 21
85.48278245878078
 31
0.0
  0
LINE
  5
BB
  8
0
  6
CONTINUOUS
 62
     7
 10
119.2040102782481
 20
59.48277447168078
 30
0.0
 11
119.2040102782481
 21
91.48277971698079
 31
0.0
  0
ARC
  5
BC
  8
0
  6
CONTINUOUS
 62
     7
 10
124.2034473084481
 20
91.48333791768079
 30
0.0
 40
4.999437061332097
 50
90.00632542199996
 51
180.0063972297999
  0
LINE
  5
BD
  8
0
  6
CONTINUOUS
 62
     7
 10
124.2028953734481
 20
96.48277494858078
 30
0.0
 11
125.8690687122481
 21
96.48277494858078
 31
0.0
  0
LINE
  5
BE
  8
0
  6
CONTINUOUS
 62
     7
 10
136.4516200724481
 20
96.48277494858078
 30
0.0
 11
138.1997646990481
 21
96.48277494858078
 31
0.0
  0
ARC
  5
BF
  8
0
  6
CONTINUOUS
 62
     7
 10
138.1992105883481
 20
91.48333946738077
 30
0.0
 40
4.999435511881138
 50
359.9935850080001
 51
89.99364964200026
  0
LINE
  5
C0
  8
0
  6
CONTINUOUS
 62
     7
 10
143.1986460688481
 20
91.48277971698079
 30
0.0
 11
143.1986460688481
 21
59.48277447168078
 31
0.0
  0
ARC
  5
C1
  8
0
  6
CONTINUOUS
 62
     7
 10
138.1992021085481
 20
59.48222319918077
 30
0.0
 40
4.999443990757804
 50
270.0064475296
 51
0.0063178204000063
  0
LINE
  5
C2
  8
0
  6
CONTINUOUS
 62
     7
 10
138.1997646990481
 20
54.48277924008079
 30
0.0
 11
136.4516200724481
 21
54.48277924008079
 31
0.0
  0
LINE
  5
C3
  8
0
  6
CONTINUOUS
 62
     7
 10
125.8690687122481
 20
54.48277924008079
 30
0.0
 11
124.2028953734481
 21
54.48277924008079
 31
0.0
  0
ARC
  5
C4
  8
0
  6
CONTINUOUS
 62
     7
 10
124.2034557882481
 20
59.48222474888078
 30
0.0
 40
4.999445540200579
 50
179.9936999417
 51
269.9935774064998
  0
LINE
  5
C5
  8
0
  6
CONTINUOUS
 62
     7
 10
143.4100376668481
 20
91.48277971698079
 30
0.0
 11
143.1986460688481
 21
91.48277971698079
 31
0.0
  0
LINE
  5
C6
  8
0
  6
CONTINUOUS
 62
     7
 10
143.4100376668481
 20
91.48277971698079
 30
0.0
 11
143.4100376668481
 21
59.48277447168078
 31
0.0
  0
LINE
  5
C7
  8
0
  6
CONTINUOUS
 62
     7
 10
143.4100376668481
 20
59.48277447168078
 30
0.0
 11
143.1986460688481
 21
59.48277447168078
 31
0.0
  0
LINE
  5
C8
  8
0
  6
CONTINUOUS
 62
     7
 10
138.2462935748481
 20
96.48277494858078
 30
0.0
 11
138.1997646990481
 21
96.48277494858078
 31
0.0
  0
ARC
  5
C9
  8
0
  6
CONTINUOUS
 62
     7
 10
138.4105947735481
 20
91.48333205588077
 30
0.0
 40
4.999442923783663
 50
359.9936699564
 51
89.99360739179983
  0
ARC
  5
CA
  8
0
  6
CONTINUOUS
 62
     7
 10
138.4105862937481
 20
59.48223061068077
 30
0.0
 40
4.999451402692607
 50
270.0064897799
 51
0.0062328718999581
  0
LINE
  5
CB
  8
0
  6
CONTINUOUS
 62
     7
 10
138.2462935748481
 20
54.48277924008079
 30
0.0
 11
138.1997646990481
 21
54.48277924008079
 31
0.0
  0
ARC
  5
CC
  8
0
  6
CONTINUOUS
 62
     7
 10
130.3829914656799
 20
85.18013962335773
 30
0.0
 40
5.301053877050998
 50
101.0576105963794
 51
118.621231744833
  0
ARC
  5
CD
  8
0
  6
CONTINUOUS
 62
     7
 10
130.4137061172481
 20
85.48324168158078
 30
0.0
 40
4.999651833674498
 50
101.4855074105999
 51
180.0052626721998
  0
LINE
  5
CE
  8
0
  6
CONTINUOUS
 62
     7
 10
125.4140543046481
 20
85.48278245878078
 30
0.0
 11
125.2026664319481
 21
85.48278245878078
 31
0.0
  0
ARC
  5
CF
  8
0
  6
CONTINUOUS
 62
     7
 10
130.2436272796481
 20
85.48795031408079
 30
0.0
 40
4.994827380603216
 50
89.99763361550016
 51
98.4235055518001
  0
ARC
  5
D0
  8
0
  6
CONTINUOUS
 62
     7
 10
130.2287482232346
 20
85.7860983612284
 30
0.0
 40
4.69780820366996
 50
98.77664038901406
 51
120.5104004308596
  0
LINE
  5
D1
  8
0
  6
CONTINUOUS
 62
     7
 10
125.4140543046481
 20
65.48277172988077
 30
0.0
 11
125.2026664319481
 21
65.48277172988077
 31
0.0
  0
ARC
  5
D2
  8
0
  6
CONTINUOUS
 62
     7
 10
130.4138639313481
 20
65.48244146788079
 30
0.0
 40
4.999809637629889
 50
179.9962153315999
 51
258.5130145855996
  0
ARC
  5
D3
  8
0
  6
CONTINUOUS
 62
     7
 10
130.3829914656793
 20
65.78541744280216
 30
0.0
 40
5.301053877049203
 50
241.3787682551649
 51
258.9423894036233
  0
ARC
  5
D4
  8
0
  6
CONTINUOUS
 62
     7
 10
130.2287482232352
 20
65.1794587049344
 30
0.0
 40
4.697808203671244
 50
239.4895995691424
 51
261.2233596109827
  0
ARC
  5
D5
  8
0
  6
CONTINUOUS
 62
     7
 10
130.2439864207481
 20
65.48248212538078
 30
0.0
 40
4.999705629392713
 50
261.5806124535
 51
269.9982483791997
  0
LINE
  5
D6
  8
0
  6
CONTINUOUS
 62
     7
 10
125.4140543046481
 20
65.48277172988077
 30
0.0
 11
125.4140543046481
 21
85.48278245878078
 31
0.0
  0
LINE
  5
D7
  8
0
  6
CONTINUOUS
 62
     7
 10
123.2887389364481
 20
50.48277113388079
 30
0.0
 11
123.2887389364481
 21
54.48277924008079
 31
0.0
  0
LINE
  5
D8
  8
0
  6
CONTINUOUS
 62
     7
 10
139.2871620360481
 20
50.48277113388079
 30
0.0
 11
123.2887389364481
 21
50.48277113388079
 31
0.0
  0
LINE
  5
D9
  8
0
  6
CONTINUOUS
 62
     7
 10
125.8690687122481
 20
54.48277924008079
 30
0.0
 11
136.4516200724481
 21
54.48277924008079
 31
0.0
  0
LINE
  5
DA
  8
0
  6
CONTINUOUS
 62
     7
 10
122.6928564015481
 20
54.48277924008079
 30
0.0
 11
122.6928564015481
 21
50.48277113388079
 31
0.0
  0
LINE
  5
DB
  8
0
  6
CONTINUOUS
 62
     7
 10
122.6928564015481
 20
50.48277113388079
 30
0.0
 11
123.2887389364481
 21
50.48277113388079
 31
0.0
  0
LINE
  5
DC
  8
0
  6
CONTINUOUS
 62
     7
 10
122.6928564015481
 20
54.48277924008079
 30
0.0
 11
123.2887389364481
 21
54.48277924008079
 31
0.0
  0
LINE
  5
DD
  8
0
  6
CONTINUOUS
 62
     7
 10
110.6714191141481
 20
60.03277633138077
 30
0.0
 11
110.6714191141481
 21
45.03277573538077
 31
0.0
  0
LINE
  5
DE
  8
0
  6
CONTINUOUS
 62
     7
 10
110.6714191141725
 20
60.03277633139368
 30
0.0
 11
119.2040102782846
 21
60.03277633139368
 31
0.0
  0
LINE
  5
DF
  8
0
  6
CONTINUOUS
 62
     7
 10
143.4100376668573
 20
60.03277633139368
 30
0.0
 11
150.6714182201029
 21
60.03277633139368
 31
0.0
  0
LINE
  5
E0
  8
0
  6
CONTINUOUS
 62
     7
 10
150.6714182201481
 20
60.03277633138077
 30
0.0
 11
150.6714182201481
 21
45.03277573538077
 31
0.0
  0
LINE
  5
E1
  8
0
  6
CONTINUOUS
 62
     7
 10
110.6714191141725
 20
45.03277573534729
 30
0.0
 11
150.6714182201029
 21
45.03277573534729
 31
0.0
  0
LINE
  5
E2
  8
0
  6
CONTINUOUS
 62
     7
 10
144.9393661919237
 20
49.53277740427728
 30
0.0
 11
148.4034689369799
 21
49.53277740427728
 31
0.0
  0
LINE
  5
E3
  8
0
  6
CONTINUOUS
 62
     7
 10
148.4034689369481
 20
49.53277740428078
 30
0.0
 11
148.9519508782481
 21
50.48277113388079
 31
0.0
  0
LINE
  5
E4
  8
0
  6
CONTINUOUS
 62
     7
 10
149.6895620825481
 20
50.48277113388079
 30
0.0
 11
148.9519508782481
 21
50.48277113388079
 31
0.0
  0
LINE
  5
E5
  8
0
  6
CONTINUOUS
 62
     7
 10
149.6895620825481
 20
50.48277113388079
 30
0.0
 11
149.6895620825481
 21
51.76035199118078
 31
0.0
  0
LINE
  5
E6
  8
0
  6
CONTINUOUS
 62
     7
 10
149.6895620825481
 20
51.76035199118078
 30
0.0
 11
149.9110343161481
 21
52.14396748488079
 31
0.0
  0
LINE
  5
E7
  8
0
  6
CONTINUOUS
 62
     7
 10
149.9110343161481
 20
52.14396748488079
 30
0.0
 11
149.9110343161481
 21
52.92159948298078
 31
0.0
  0
LINE
  5
E8
  8
0
  6
CONTINUOUS
 62
     7
 10
149.9110343161481
 20
52.92159948298078
 30
0.0
 11
149.6895620825481
 21
53.30520007558079
 31
0.0
  0
LINE
  5
E9
  8
0
  6
CONTINUOUS
 62
     7
 10
149.6895620825481
 20
53.30520007558079
 30
0.0
 11
149.6895620825481
 21
54.58278093288078
 31
0.0
  0
LINE
  5
EA
  8
0
  6
CONTINUOUS
 62
     7
 10
148.9519508782481
 20
54.58278093288078
 30
0.0
 11
149.6895620825481
 21
54.58278093288078
 31
0.0
  0
LINE
  5
EB
  8
0
  6
CONTINUOUS
 62
     7
 10
148.9519508782481
 20
54.58278093288078
 30
0.0
 11
148.4034689369481
 21
55.53277466248079
 31
0.0
  0
LINE
  5
EC
  8
0
  6
CONTINUOUS
 62
     7
 10
148.4034689369799
 20
55.53277466246368
 30
0.0
 11
144.9393661919237
 21
55.53277466246368
 31
0.0
  0
LINE
  5
ED
  8
0
  6
CONTINUOUS
 62
     7
 10
144.9393661919481
 20
55.53277466248079
 30
0.0
 11
144.3908842507481
 21
54.58278093288078
 31
0.0
  0
LINE
  5
EE
  8
0
  6
CONTINUOUS
 62
     7
 10
116.9519530835749
 20
54.58278093287228
 30
0.0
 11
123.1307493749262
 21
54.58278093287228
 31
0.0
  0
LINE
  5
EF
  8
0
  6
CONTINUOUS
 62
     7
 10
139.44029009372
 20
54.58278093287228
 30
0.0
 11
144.3908842507006
 21
54.58278093287228
 31
0.0
  0
LINE
  5
F0
  8
0
  6
CONTINUOUS
 62
     7
 10
116.9519530835481
 20
54.58278093288078
 30
0.0
 11
116.4034636917481
 21
55.53277466248079
 31
0.0
  0
LINE
  5
F1
  8
0
  6
CONTINUOUS
 62
     7
 10
116.4034636917711
 20
55.53277466246368
 30
0.0
 11
112.9393683972956
 21
55.53277466246368
 31
0.0
  0
LINE
  5
F2
  8
0
  6
CONTINUOUS
 62
     7
 10
112.9393683972481
 20
55.53277466248079
 30
0.0
 11
112.3908864560482
 21
54.58278093288078
 31
0.0
  0
LINE
  5
F3
  8
0
  6
CONTINUOUS
 62
     7
 10
111.6532715263481
 20
54.58278093288078
 30
0.0
 11
112.3908864560482
 21
54.58278093288078
 31
0.0
  0
LINE
  5
F4
  8
0
  6
CONTINUOUS
 62
     7
 10
111.6532715263481
 20
54.58278093288078
 30
0.0
 11
111.6532715263481
 21
53.30520007558079
 31
0.0
  0
LINE
  5
F5
  8
0
  6
CONTINUOUS
 62
     7
 10
111.6532715263481
 20
53.30520007558079
 30
0.0
 11
111.4317955675481
 21
52.92159948298078
 31
0.0
  0
LINE
  5
F6
  8
0
  6
CONTINUOUS
 62
     7
 10
111.4317955675481
 20
52.92159948298078
 30
0.0
 11
111.4317955675481
 21
52.14396748488079
 31
0.0
  0
LINE
  5
F7
  8
0
  6
CONTINUOUS
 62
     7
 10
111.4317955675481
 20
52.14396748488079
 30
0.0
 11
111.6532715263481
 21
51.76035199118078
 31
0.0
  0
LINE
  5
F8
  8
0
  6
CONTINUOUS
 62
     7
 10
111.6532715263481
 20
51.76035199118078
 30
0.0
 11
111.6532715263481
 21
50.48277113388079
 31
0.0
  0
LINE
  5
F9
  8
0
  6
CONTINUOUS
 62
     7
 10
112.3908864560482
 20
50.48277113388079
 30
0.0
 11
111.6532715263481
 21
50.48277113388079
 31
0.0
  0
LINE
  5
FA
  8
0
  6
CONTINUOUS
 62
     7
 10
112.3908864560482
 20
50.48277113388079
 30
0.0
 11
112.9393683972481
 21
49.53277740428078
 31
0.0
  0
LINE
  5
FB
  8
0
  6
CONTINUOUS
 62
     7
 10
112.9393683972956
 20
49.53277740427728
 30
0.0
 11
116.4034636917711
 21
49.53277740427728
 31
0.0
  0
LINE
  5
FC
  8
0
  6
CONTINUOUS
 62
     7
 10
116.4034636917481
 20
49.53277740428078
 30
0.0
 11
116.9519530835481
 21
50.48277113388079
 31
0.0
  0
LINE
  5
FD
  8
0
  6
CONTINUOUS
 62
     7
 10
144.3908842507006
 20
50.48277113386868
 30
0.0
 11
139.4516783061624
 21
50.48277113386868
 31
0.0
  0
LINE
  5
FE
  8
0
  6
CONTINUOUS
 62
     7
 10
123.0095433297754
 20
50.48277113386868
 30
0.0
 11
116.9519530835749
 21
50.48277113386868
 31
0.0
  0
LINE
  5
FF
  8
0
  6
CONTINUOUS
 62
     7
 10
144.3908842507481
 20
50.48277113388079
 30
0.0
 11
144.9393661919481
 21
49.53277740428078
 31
0.0
  0
LINE
  5
100
  8
0
  6
CONTINUOUS
 62
     7
 10
149.6895620825481
 20
51.76035199118078
 30
0.0
 11
148.9519508782481
 21
50.48277113388079
 31
0.0
  0
LINE
  5
101
  8
0
  6
CONTINUOUS
 62
     7
 10
111.6532715263481
 20
53.30520007558079
 30
0.0
 11
112.3908864560482
 21
54.58278093288078
 31
0.0
  0
LINE
  5
102
  8
0
  6
CONTINUOUS
 62
     7
 10
112.3908864560482
 20
50.48277113388079
 30
0.0
 11
111.6532715263481
 21
51.76035199118078
 31
0.0
  0
LINE
  5
103
  8
0
  6
CONTINUOUS
 62
     7
 10
143.2073148193481
 20
52.53278348398078
 30
0.0
 11
144.3908842507481
 21
54.58278093288078
 31
0.0
  0
LINE
  5
104
  8
0
  6
CONTINUOUS
 62
     7
 10
144.3908842507481
 20
50.48277113388079
 30
0.0
 11
143.2073148193481
 21
52.53278348398078
 31
0.0
  0
LINE
  5
105
  8
0
  6
CONTINUOUS
 62
     7
 10
118.1355150643481
 20
52.53278348398078
 30
0.0
 11
116.9519530835481
 21
50.48277113388079
 31
0.0
  0
LINE
  5
106
  8
0
  6
CONTINUOUS
 62
     7
 10
116.9519530835481
 20
54.58278093288078
 30
0.0
 11
118.1355150643481
 21
52.53278348398078
 31
0.0
  0
LINE
  5
107
  8
0
  6
CONTINUOUS
 62
     7
 10
148.9519508782481
 20
54.58278093288078
 30
0.0
 11
149.6895620825481
 21
53.30520007558079
 31
0.0
  0
LINE
  5
108
  8
0
  6
CONTINUOUS
 62
     7
 10
156.5091306570173
 20
128.0327800268817
 30
0.0
 11
158.0968419316413
 21
125.2827856297183
 31
0.0
  0
LINE
  5
109
  8
0
  6
CONTINUOUS
 62
     7
 10
158.0968419316413
 20
125.2827856297183
 30
0.0
 11
156.5091306570173
 21
122.5327763313937
 31
0.0
  0
LINE
  5
10A
  8
0
  6
CONTINUOUS
 62
     7
 10
153.3337043824793
 20
122.5327763313937
 30
0.0
 11
156.5091306570173
 21
122.5327763313937
 31
0.0
  0
LINE
  5
10B
  8
0
  6
CONTINUOUS
 62
     7
 10
153.3337043824793
 20
122.5327763313937
 30
0.0
 11
151.7459893825651
 21
125.2827856297183
 31
0.0
  0
LINE
  5
10C
  8
0
  6
CONTINUOUS
 62
     7
 10
151.7459893825651
 20
125.2827856297183
 30
0.0
 11
153.3337043824793
 21
128.0327800268817
 31
0.0
  0
LINE
  5
10D
  8
0
  6
CONTINUOUS
 62
     7
 10
153.3337043824793
 20
128.0327800268817
 30
0.0
 11
156.5091306570173
 21
128.0327800268817
 31
0.0
  0
CIRCLE
  5
10E
  8
0
  6
CONTINUOUS
 62
     7
 10
154.9214165625481
 20
125.2827785330808
 30
0.0
 40
2.612500000000011
  0
LINE
  5
10F
  8
0
  6
CONTINUOUS
 62
     7
 10
83.83370509773502
 20
128.0327800268817
 30
0.0
 11
87.00912764698282
 21
128.0327800268817
 31
0.0
  0
LINE
  5
110
  8
0
  6
CONTINUOUS
 62
     7
 10
87.00912764698282
 20
128.0327800268817
 30
0.0
 11
88.59684637218723
 21
125.2827856297183
 31
0.0
  0
LINE
  5
111
  8
0
  6
CONTINUOUS
 62
     7
 10
87.00912764698282
 20
122.5327763313937
 30
0.0
 11
88.59684637218723
 21
125.2827856297183
 31
0.0
  0
LINE
  5
112
  8
0
  6
CONTINUOUS
 62
     7
 10
87.00912764698282
 20
122.5327763313937
 30
0.0
 11
83.83370509773502
 21
122.5327763313937
 31
0.0
  0
LINE
  5
113
  8
0
  6
CONTINUOUS
 62
     7
 10
83.83370509773502
 20
122.5327763313937
 30
0.0
 11
82.2459863725305
 21
125.2827856297183
 31
0.0
  0
LINE
  5
114
  8
0
  6
CONTINUOUS
 62
     7
 10
82.2459863725305
 20
125.2827856297183
 30
0.0
 11
83.83370509773502
 21
128.0327800268817
 31
0.0
  0
CIRCLE
  5
115
  8
0
  6
CONTINUOUS
 62
     7
 10
85.4214165625481
 20
125.2827785330808
 30
0.0
 40
2.612499999999986
  0
LINE
  5
116
  8
0
  6
CONTINUOUS
 62
     7
 10
117.8468423190714
 20
52.53206822821377
 30
0.0
 11
116.2585200968386
 21
49.78243145891909
 31
0.0
  0
LINE
  5
117
  8
0
  6
CONTINUOUS
 62
     7
 10
116.2585200968386
 20
49.78243145891909
 30
0.0
 11
113.0830900970102
 21
49.78313181349517
 31
0.0
  0
LINE
  5
118
  8
0
  6
CONTINUOUS
 62
     7
 10
111.4959897699953
 20
52.53348383852719
 30
0.0
 11
113.0830900970102
 21
49.78313181349509
 31
0.0
  0
LINE
  5
119
  8
0
  6
CONTINUOUS
 62
     7
 10
111.4959897699953
 20
52.53348383852719
 30
0.0
 11
113.0843119922281
 21
55.28313550898307
 31
0.0
  0
LINE
  5
11A
  8
0
  6
CONTINUOUS
 62
     7
 10
113.0843119922281
 20
55.28313550898307
 30
0.0
 11
116.2597419920565
 21
55.28242025324579
 31
0.0
  0
LINE
  5
11B
  8
0
  6
CONTINUOUS
 62
     7
 10
116.2597419920565
 20
55.28242025324579
 30
0.0
 11
117.8468423190713
 21
52.53206822821377
 31
0.0
  0
CIRCLE
  5
11C
  8
0
  6
CONTINUOUS
 62
     7
 10
114.6714165625481
 20
52.53277853308077
 30
0.0
 40
2.612500000000006
  0
LINE
  5
11D
  8
0
  6
CONTINUOUS
 62
     7
 10
149.8455250862242
 20
52.62432131716488
 30
0.0
 11
148.3377473655344
 21
49.82969794222589
 31
0.0
  0
LINE
  5
11E
  8
0
  6
CONTINUOUS
 62
     7
 10
148.3377473655344
 20
49.82969794222589
 30
0.0
 11
145.163639843762
 21
49.73814520785089
 31
0.0
  0
LINE
  5
11F
  8
0
  6
CONTINUOUS
 62
     7
 10
143.4973100426794
 20
52.44123074957608
 30
0.0
 11
145.163639843762
 21
49.73814520785089
 31
0.0
  0
LINE
  5
120
  8
0
  6
CONTINUOUS
 62
     7
 10
143.4973100426794
 20
52.44123074957608
 30
0.0
 11
145.0050877633692
 21
55.23586902567627
 31
0.0
  0
LINE
  5
121
  8
0
  6
CONTINUOUS
 62
     7
 10
145.0050877633692
 20
55.23586902567627
 30
0.0
 11
148.1791952851415
 21
55.32740685889007
 31
0.0
  0
LINE
  5
122
  8
0
  6
CONTINUOUS
 62
     7
 10
148.1791952851415
 20
55.32740685889007
 30
0.0
 11
149.8455250862242
 21
52.62432131716488
 31
0.0
  0
CIRCLE
  5
123
  8
0
  6
CONTINUOUS
 62
     7
 10
146.6714165625481
 20
52.53277853308077
 30
0.0
 40
2.612500000000016
  0
POLYLINE
  5
124
  8
0
  6
CONTINUOUS
 62
     7
 66
     1
 10
0.0
 20
0.0
 30
0.0
  0
VERTEX
  5
125
  8
0
  6
CONTINUOUS
 62
     7
 10
133.4372716251016
 20
62.18277547308679
 30
0.0
  0
VERTEX
  5
126
  8
0
  6
CONTINUOUS
 62
     7
 10
133.2536819240552
 20
62.34475393973599
 30
0.0
  0
VERTEX
  5
127
  8
0
  6
CONTINUOUS
 62
     7
 10
133.1608130188426
 20
62.42337446419432
 30
0.0
  0
VERTEX
  5
128
  8
0
  6
CONTINUOUS
 62
     7
 10
133.0666552480025
 20
62.49915253801316
 30
0.0
  0
VERTEX
  5
129
  8
0
  6
CONTINUOUS
 62
     7
 10
133.0189587811361
 20
62.53567956732449
 30
0.0
  0
VERTEX
  5
12A
  8
0
  6
CONTINUOUS
 62
     7
 10
132.9707789896593
 20
62.571140677646
 30
0.0
  0
VERTEX
  5
12B
  8
0
  6
CONTINUOUS
 62
     7
 10
132.9220621708379
 20
62.60541743353438
 30
0.0
  0
VERTEX
  5
12C
  8
0
  6
CONTINUOUS
 62
     7
 10
132.8727546219372
 20
62.63839139954633
 30
0.0
  0
VERTEX
  5
12D
  8
0
  6
CONTINUOUS
 62
     7
 10
132.8228026402228
 20
62.66994414023853
 30
0.0
  0
VERTEX
  5
12E
  8
0
  6
CONTINUOUS
 62
     7
 10
132.7721525229603
 20
62.69995722016766
 30
0.0
  0
VERTEX
  5
12F
  8
0
  6
CONTINUOUS
 62
     7
 10
132.7207505674152
 20
62.72831220389041
 30
0.0
  0
VERTEX
  5
130
  8
0
  6
CONTINUOUS
 62
     7
 10
132.6685430708529
 20
62.75489065596349
 30
0.0
  0
VERTEX
  5
131
  8
0
  6
CONTINUOUS
 62
     7
 10
132.6386748916831
 20
62.76907709392954
 30
0.0
  0
VERTEX
  5
132
  8
0
  6
CONTINUOUS
 62
     7
 10
132.6085466673278
 20
62.78264036116009
 30
0.0
  0
VERTEX
  5
133
  8
0
  6
CONTINUOUS
 62
     7
 10
132.5781726170502
 20
62.79556214683789
 30
0.0
  0
VERTEX
  5
134
  8
0
  6
CONTINUOUS
 62
     7
 10
132.5475669601137
 20
62.80782414014566
 30
0.0
  0
VERTEX
  5
135
  8
0
  6
CONTINUOUS
 62
     7
 10
132.5167439157816
 20
62.81940803026616
 30
0.0
  0
VERTEX
  5
136
  8
0
  6
CONTINUOUS
 62
     7
 10
132.4857177033172
 20
62.83029550638213
 30
0.0
  0
VERTEX
  5
137
  8
0
  6
CONTINUOUS
 62
     7
 10
132.4545025419838
 20
62.84046825767631
 30
0.0
  0
VERTEX
  5
138
  8
0
  6
CONTINUOUS
 62
     7
 10
132.4231126510447
 20
62.84990797333144
 30
0.0
  0
VERTEX
  5
139
  8
0
  6
CONTINUOUS
 62
     7
 10
132.3915622497632
 20
62.85859634253028
 30
0.0
  0
VERTEX
  5
13A
  8
0
  6
CONTINUOUS
 62
     7
 10
132.3598655574025
 20
62.86651505445555
 30
0.0
  0
VERTEX
  5
13B
  8
0
  6
CONTINUOUS
 62
     7
 10
132.3280367932261
 20
62.87364579829
 30
0.0
  0
VERTEX
  5
13C
  8
0
  6
CONTINUOUS
 62
     7
 10
132.2960901764973
 20
62.87997026321638
 30
0.0
  0
VERTEX
  5
13D
  8
0
  6
CONTINUOUS
 62
     7
 10
132.2640399264793
 20
62.88547013841743
 30
0.0
  0
VERTEX
  5
13E
  8
0
  6
CONTINUOUS
 62
     7
 10
132.2319002624354
 20
62.89012711307589
 30
0.0
  0
VERTEX
  5
13F
  8
0
  6
CONTINUOUS
 62
     7
 10
132.1996854036289
 20
62.8939228763745
 30
0.0
  0
VERTEX
  5
140
  8
0
  6
CONTINUOUS
 62
     7
 10
132.1674095693232
 20
62.89683911749601
 30
0.0
  0
VERTEX
  5
141
  8
0
  6
CONTINUOUS
 62
     7
 10
132.1349273055918
 20
62.89887040304866
 30
0.0
  0
VERTEX
  5
142
  8
0
  6
CONTINUOUS
 62
     7
 10
132.1024130046639
 20
62.9000073611825
 30
0.0
  0
VERTEX
  5
143
  8
0
  6
CONTINUOUS
 62
     7
 10
132.0698818487657
 20
62.90026239177644
 30
0.0
  0
VERTEX
  5
144
  8
0
  6
CONTINUOUS
 62
     7
 10
132.0373490201233
 20
62.89964789470935
 30
0.0
  0
VERTEX
  5
145
  8
0
  6
CONTINUOUS
 62
     7
 10
132.0048297009628
 20
62.8981762698601
 30
0.0
  0
VERTEX
  5
146
  8
0
  6
CONTINUOUS
 62
     7
 10
131.9723390735102
 20
62.8958599171076
 30
0.0
  0
VERTEX
  5
147
  8
0
  6
CONTINUOUS
 62
     7
 10
131.9398923199916
 20
62.89271123633073
 30
0.0
  0
VERTEX
  5
148
  8
0
  6
CONTINUOUS
 62
     7
 10
131.9075046226331
 20
62.88874262740836
 30
0.0
  0
VERTEX
  5
149
  8
0
  6
CONTINUOUS
 62
     7
 10
131.8751911636608
 20
62.88396649021939
 30
0.0
  0
VERTEX
  5
14A
  8
0
  6
CONTINUOUS
 62
     7
 10
131.8429671253006
 20
62.8783952246427
 30
0.0
  0
VERTEX
  5
14B
  8
0
  6
CONTINUOUS
 62
     7
 10
131.8108476897789
 20
62.87204123055718
 30
0.0
  0
VERTEX
  5
14C
  8
0
  6
CONTINUOUS
 62
     7
 10
131.7788480393215
 20
62.8649169078417
 30
0.0
  0
VERTEX
  5
14D
  8
0
  6
CONTINUOUS
 62
     7
 10
131.7469833561547
 20
62.85703465637516
 30
0.0
  0
VERTEX
  5
14E
  8
0
  6
CONTINUOUS
 62
     7
 10
131.7152688225044
 20
62.84840687603644
 30
0.0
  0
VERTEX
  5
14F
  8
0
  6
CONTINUOUS
 62
     7
 10
131.6837196205967
 20
62.83904596670442
 30
0.0
  0
VERTEX
  5
150
  8
0
  6
CONTINUOUS
 62
     7
 10
131.6523509326578
 20
62.82896432825799
 30
0.0
  0
VERTEX
  5
151
  8
0
  6
CONTINUOUS
 62
     7
 10
131.611120027721
 20
62.81453177062851
 30
0.0
  0
VERTEX
  5
152
  8
0
  6
CONTINUOUS
 62
     7
 10
131.5702359191778
 20
62.79889950951133
 30
0.0
  0
VERTEX
  5
153
  8
0
  6
CONTINUOUS
 62
     7
 10
131.529702400801
 20
62.78210935142701
 30
0.0
  0
VERTEX
  5
154
  8
0
  6
CONTINUOUS
 62
     7
 10
131.489523266363
 20
62.76420310289612
 30
0.0
  0
VERTEX
  5
155
  8
0
  6
CONTINUOUS
 62
     7
 10
131.4497023096364
 20
62.74522257043921
 30
0.0
  0
VERTEX
  5
156
  8
0
  6
CONTINUOUS
 62
     7
 10
131.4102433243938
 20
62.72520956057687
 30
0.0
  0
VERTEX
  5
157
  8
0
  6
CONTINUOUS
 62
     7
 10
131.3711501044077
 20
62.70420587982966
 30
0.0
  0
VERTEX
  5
158
  8
0
  6
CONTINUOUS
 62
     7
 10
131.3324264434507
 20
62.68225333471813
 30
0.0
  0
VERTEX
  5
159
  8
0
  6
CONTINUOUS
 62
     7
 10
131.2940761352954
 20
62.65939373176285
 30
0.0
  0
VERTEX
  5
15A
  8
0
  6
CONTINUOUS
 62
     7
 10
131.2561029737142
 20
62.63566887748441
 30
0.0
  0
VERTEX
  5
15B
  8
0
  6
CONTINUOUS
 62
     7
 10
131.2185107524799
 20
62.61112057840334
 30
0.0
  0
VERTEX
  5
15C
  8
0
  6
CONTINUOUS
 62
     7
 10
131.1813032653648
 20
62.58579064104025
 30
0.0
  0
VERTEX
  5
15D
  8
0
  6
CONTINUOUS
 62
     7
 10
131.1444843061416
 20
62.55972087191567
 30
0.0
  0
VERTEX
  5
15E
  8
0
  6
CONTINUOUS
 62
     7
 10
131.1080576685829
 20
62.53295307755018
 30
0.0
  0
VERTEX
  5
15F
  8
0
  6
CONTINUOUS
 62
     7
 10
131.036396533549
 20
62.47749063917873
 30
0.0
  0
VERTEX
  5
160
  8
0
  6
CONTINUOUS
 62
     7
 10
130.9510460666907
 20
62.40679508731225
 30
0.0
  0
VERTEX
  5
161
  8
0
  6
CONTINUOUS
 62
     7
 10
130.8674984002928
 20
62.33354247288306
 30
0.0
  0
VERTEX
  5
162
  8
0
  6
CONTINUOUS
 62
     7
 10
130.7034077349306
 20
62.18277547308679
 30
0.0
  0
SEQEND
  5
163
  8
0
  6
CONTINUOUS
 62
     7
  0
POLYLINE
  5
164
  8
0
  6
CONTINUOUS
 62
     7
 66
     1
 10
0.0
 20
0.0
 30
0.0
  0
VERTEX
  5
165
  8
0
  6
CONTINUOUS
 62
     7
 10
130.7034077349306
 20
62.18277547308679
 30
0.0
  0
VERTEX
  5
166
  8
0
  6
CONTINUOUS
 62
     7
 10
130.5176680275517
 20
62.34475388738812
 30
0.0
  0
VERTEX
  5
167
  8
0
  6
CONTINUOUS
 62
     7
 10
130.4237116105467
 20
62.42337439221602
 30
0.0
  0
VERTEX
  5
168
  8
0
  6
CONTINUOUS
 62
     7
 10
130.3284513175633
 20
62.49915245425657
 30
0.0
  0
VERTEX
  5
169
  8
0
  6
CONTINUOUS
 62
     7
 10
130.2801963971652
 20
62.53567948144126
 30
0.0
  0
VERTEX
  5
16A
  8
0
  6
CONTINUOUS
 62
     7
 10
130.2314525232752
 20
62.57114059258071
 30
0.0
  0
VERTEX
  5
16B
  8
0
  6
CONTINUOUS
 62
     7
 10
130.1821653677274
 20
62.60541735255877
 30
0.0
  0
VERTEX
  5
16C
  8
0
  6
CONTINUOUS
 62
     7
 10
130.1322806023562
 20
62.6383913262593
 30
0.0
  0
VERTEX
  5
16D
  8
0
  6
CONTINUOUS
 62
     7
 10
130.0817438989956
 20
62.66994407856617
 30
0.0
  0
VERTEX
  5
16E
  8
0
  6
CONTINUOUS
 62
     7
 10
130.0305009294801
 20
62.69995717436324
 30
0.0
  0
VERTEX
  5
16F
  8
0
  6
CONTINUOUS
 62
     7
 10
129.9784973656437
 20
62.72831217853437
 30
0.0
  0
VERTEX
  5
170
  8
0
  6
CONTINUOUS
 62
     7
 10
129.9256788793207
 20
62.75489065596343
 30
0.0
  0
VERTEX
  5
171
  8
0
  6
CONTINUOUS
 62
     7
 10
129.8954612589926
 20
62.7690770699744
 30
0.0
  0
VERTEX
  5
172
  8
0
  6
CONTINUOUS
 62
     7
 10
129.8649805635444
 20
62.78264031809532
 30
0.0
  0
VERTEX
  5
173
  8
0
  6
CONTINUOUS
 62
     7
 10
129.8342511748177
 20
62.79556208915504
 30
0.0
  0
VERTEX
  5
174
  8
0
  6
CONTINUOUS
 62
     7
 10
129.8032874746539
 20
62.80782407198243
 30
0.0
  0
VERTEX
  5
175
  8
0
  6
CONTINUOUS
 62
     7
 10
129.7721038448944
 20
62.81940795540635
 30
0.0
  0
VERTEX
  5
176
  8
0
  6
CONTINUOUS
 62
     7
 10
129.7407146673805
 20
62.83029542825567
 30
0.0
  0
VERTEX
  5
177
  8
0
  6
CONTINUOUS
 62
     7
 10
129.7091343239537
 20
62.84046817935925
 30
0.0
  0
VERTEX
  5
178
  8
0
  6
CONTINUOUS
 62
     7
 10
129.6773771964554
 20
62.84990789754596
 30
0.0
  0
VERTEX
  5
179
  8
0
  6
CONTINUOUS
 62
     7
 10
129.645457666727
 20
62.85859627164466
 30
0.0
  0
VERTEX
  5
17A
  8
0
  6
CONTINUOUS
 62
     7
 10
129.6133901166098
 20
62.86651499048422
 30
0.0
  0
VERTEX
  5
17B
  8
0
  6
CONTINUOUS
 62
     7
 10
129.5811889279452
 20
62.8736457428935
 30
0.0
  0
VERTEX
  5
17C
  8
0
  6
CONTINUOUS
 62
     7
 10
129.5488684825747
 20
62.87997021770136
 30
0.0
  0
VERTEX
  5
17D
  8
0
  6
CONTINUOUS
 62
     7
 10
129.5164431623396
 20
62.88547010373667
 30
0.0
  0
VERTEX
  5
17E
  8
0
  6
CONTINUOUS
 62
     7
 10
129.4839273490815
 20
62.8901270898283
 30
0.0
  0
VERTEX
  5
17F
  8
0
  6
CONTINUOUS
 62
     7
 10
129.4513354246415
 20
62.89392286480511
 30
0.0
  0
VERTEX
  5
180
  8
0
  6
CONTINUOUS
 62
     7
 10
129.4186817708612
 20
62.89683911749595
 30
0.0
  0
VERTEX
  5
181
  8
0
  6
CONTINUOUS
 62
     7
 10
129.3858194167542
 20
62.89887040496042
 30
0.0
  0
VERTEX
  5
182
  8
0
  6
CONTINUOUS
 62
     7
 10
129.3529246134582
 20
62.90000737311406
 30
0.0
  0
VERTEX
  5
183
  8
0
  6
CONTINUOUS
 62
     7
 10
129.3200127277806
 20
62.90026242004372
 30
0.0
  0
VERTEX
  5
184
  8
0
  6
CONTINUOUS
 62
     7
 10
129.2870991265283
 20
62.89964794383624
 30
0.0
  0
VERTEX
  5
185
  8
0
  6
CONTINUOUS
 62
     7
 10
129.2541991765087
 20
62.89817634257845
 30
0.0
  0
VERTEX
  5
186
  8
0
  6
CONTINUOUS
 62
     7
 10
129.2213282445289
 20
62.8958600143572
 30
0.0
  0
VERTEX
  5
187
  8
0
  6
CONTINUOUS
 62
     7
 10
129.1885016973959
 20
62.89271135725931
 30
0.0
  0
VERTEX
  5
188
  8
0
  6
CONTINUOUS
 62
     7
 10
129.1557349019171
 20
62.88874276937163
 30
0.0
  0
VERTEX
  5
189
  8
0
  6
CONTINUOUS
 62
     7
 10
129.1230432248995
 20
62.883966648781
 30
0.0
  0
VERTEX
  5
18A
  8
0
  6
CONTINUOUS
 62
     7
 10
129.0904420331503
 20
62.87839539357424
 30
0.0
  0
VERTEX
  5
18B
  8
0
  6
CONTINUOUS
 62
     7
 10
129.0579466934768
 20
62.87204140183819
 30
0.0
  0
VERTEX
  5
18C
  8
0
  6
CONTINUOUS
 62
     7
 10
129.0255725726859
 20
62.8649170716597
 30
0.0
  0
VERTEX
  5
18D
  8
0
  6
CONTINUOUS
 62
     7
 10
128.9933350375849
 20
62.85703480112561
 30
0.0
  0
VERTEX
  5
18E
  8
0
  6
CONTINUOUS
 62
     7
 10
128.961249454981
 20
62.84840698832274
 30
0.0
  0
VERTEX
  5
18F
  8
0
  6
CONTINUOUS
 62
     7
 10
128.9293311916813
 20
62.83904603133794
 30
0.0
  0
VERTEX
  5
190
  8
0
  6
CONTINUOUS
 62
     7
 10
128.897595614493
 20
62.82896432825804
 30
0.0
  0
VERTEX
  5
191
  8
0
  6
CONTINUOUS
 62
     7
 10
128.8558826927654
 20
62.8145317014902
 30
0.0
  0
VERTEX
  5
192
  8
0
  6
CONTINUOUS
 62
     7
 10
128.8145207248835
 20
62.79889935172339
 30
0.0
  0
VERTEX
  5
193
  8
0
  6
CONTINUOUS
 62
     7
 10
128.7735135333938
 20
62.78210909163455
 30
0.0
  0
VERTEX
  5
194
  8
0
  6
CONTINUOUS
 62
     7
 10
128.7328649408434
 20
62.76420273390062
 30
0.0
  0
VERTEX
  5
195
  8
0
  6
CONTINUOUS
 62
     7
 10
128.6925787697789
 20
62.74522209119851
 30
0.0
  0
VERTEX
  5
196
  8
0
  6
CONTINUOUS
 62
     7
 10
128.6526588427472
 20
62.72520897620518
 30
0.0
  0
VERTEX
  5
197
  8
0
  6
CONTINUOUS
 62
     7
 10
128.613108982295
 20
62.70420520159753
 30
0.0
  0
VERTEX
  5
198
  8
0
  6
CONTINUOUS
 62
     7
 10
128.5739330109693
 20
62.68225258005252
 30
0.0
  0
VERTEX
  5
199
  8
0
  6
CONTINUOUS
 62
     7
 10
128.5351347513166
 20
62.65939292424706
 30
0.0
  0
VERTEX
  5
19A
  8
0
  6
CONTINUOUS
 62
     7
 10
128.4967180258839
 20
62.63566804685809
 30
0.0
  0
VERTEX
  5
19B
  8
0
  6
CONTINUOUS
 62
     7
 10
128.458686657218
 20
62.61111976056254
 30
0.0
  0
VERTEX
  5
19C
  8
0
  6
CONTINUOUS
 62
     7
 10
128.4210444678656
 20
62.58578987803735
 30
0.0
  0
VERTEX
  5
19D
  8
0
  6
CONTINUOUS
 62
     7
 10
128.3837952803735
 20
62.55972021195944
 30
0.0
  0
VERTEX
  5
19E
  8
0
  6
CONTINUOUS
 62
     7
 10
128.3469429172887
 20
62.53295257500576
 30
0.0
  0
VERTEX
  5
19F
  8
0
  6
CONTINUOUS
 62
     7
 10
128.2744439545275
 20
62.47749063917878
 30
0.0
  0
VERTEX
  5
1A0
  8
0
  6
CONTINUOUS
 62
     7
 10
128.1880934789509
 20
62.40679481150214
 30
0.0
  0
VERTEX
  5
1A1
  8
0
  6
CONTINUOUS
 62
     7
 10
128.1035663604004
 20
62.33354215767148
 30
0.0
  0
VERTEX
  5
1A2
  8
0
  6
CONTINUOUS
 62
     7
 10
127.9375510516764
 20
62.18277547308679
 30
0.0
  0
SEQEND
  5
1A3
  8
0
  6
CONTINUOUS
 62
     7
  0
LINE
  5
1A4
  8
0
  6
CONTINUOUS
 62
     7
 10
127.9055657091738
 20
62.18277547308679
 30
0.0
 11
127.9171811643244
 21
62.84326944300409
 31
0.0
  0
ARC
  5
1A5
  8
0
  6
CONTINUOUS
 62
     7
 10
-115.9894370908016
 20
62.25471852789227
 30
0.0
 40
11.94833055389694
 50
176.9943488122384
 51
180.3449903143009
210
0.0
220
0.0
230
-1.0
  0
ARC
  5
1A6
  8
0
  6
CONTINUOUS
 62
     7
 10
-118.878702144867
 20
62.21044574069815
 30
0.0
 40
14.5585957755042
 50
177.339301164079
 51
180.1088972131014
210
0.0
220
0.0
230
-1.0
  0
LINE
  5
1A7
  8
0
  6
CONTINUOUS
 62
     7
 10
128.0590476694481
 20
63.13278410388077
 30
0.0
 11
133.2839163246481
 21
63.13278410388077
 31
0.0
  0
LINE
  5
1A8
  8
0
  6
CONTINUOUS
 62
     7
 10
127.9375510516481
 20
61.13884482328078
 30
0.0
 11
127.9375510516481
 21
62.18277547308077
 31
0.0
  0
LINE
  5
1A9
  8
0
  6
CONTINUOUS
 62
     7
 10
130.7034077349481
 20
60.58277819108079
 30
0.0
 11
130.7034077349481
 21
62.18277547308077
 31
0.0
  0
LINE
  5
1AA
  8
0
  6
CONTINUOUS
 62
     7
 10
133.4372716251481
 20
60.63806149908078
 30
0.0
 11
133.4372716251481
 21
62.18277547308077
 31
0.0
  0
LINE
  5
1AB
  8
0
  6
CONTINUOUS
 62
     7
 10
127.9055657091481
 20
61.15724775738079
 30
0.0
 11
127.9055657091481
 21
62.18277547308077
 31
0.0
  0
LINE
  5
1AC
  8
0
  6
CONTINUOUS
 62
     7
 10
133.1958728137481
 20
90.38277599758078
 30
0.0
 11
129.2586954537481
 21
90.38277599758078
 31
0.0
  0
LINE
  5
1AD
  8
0
  6
CONTINUOUS
 62
     7
 10
129.2586954537481
 20
60.58277819108079
 30
0.0
 11
133.1958728137481
 21
60.58277819108079
 31
0.0
  0
CIRCLE
  5
1AE
  8
0
  6
CONTINUOUS
 62
     7
 10
146.6714165625481
 20
52.53277853308077
 30
0.0
 40
1.219499999999978
  0
CIRCLE
  5
1AF
  8
0
  6
CONTINUOUS
 62
     7
 10
146.6714165625481
 20
52.53277853308077
 30
0.0
 40
1.499999999999895
  0
CIRCLE
  5
1B0
  8
0
  6
CONTINUOUS
 62
     7
 10
85.4214165625481
 20
125.2827785330808
 30
0.0
 40
1.219500000000001
  0
CIRCLE
  5
1B1
  8
0
  6
CONTINUOUS
 62
     7
 10
85.4214165625481
 20
125.2827785330808
 30
0.0
 40
1.499999999999884
  0
CIRCLE
  5
1B2
  8
0
  6
CONTINUOUS
 62
     7
 10
154.9214165625481
 20
125.2827785330808
 30
0.0
 40
1.219499999999972
  0
CIRCLE
  5
1B3
  8
0
  6
CONTINUOUS
 62
     7
 10
154.9214165625481
 20
125.2827785330808
 30
0.0
 40
1.49999999999987
  0
LINE
  5
1B4
  8
0
  6
CONTINUOUS
 62
     7
 10
129.6469899120481
 20
42.33277473398078
 30
0.0
 11
127.9214130941481
 21
42.33277473398078
 31
0.0
  0
LINE
  5
1B5
  8
0
  6
CONTINUOUS
 62
     7
 10
133.4214167895481
 20
42.33277473398078
 30
0.0
 11
129.6469899120481
 21
42.33277473398078
 31
0.0
  0
LINE
  5
1B6
  8
0
  6
CONTINUOUS
 62
     7
 10
129.7587411704481
 20
42.03278455688078
 30
0.0
 11
128.2214181724481
 21
42.03278455688078
 31
0.0
  0
LINE
  5
1B7
  8
0
  6
CONTINUOUS
 62
     7
 10
133.1214191618481
 20
42.03278455688078
 30
0.0
 11
129.7587411704481
 21
42.03278455688078
 31
0.0
  0
LINE
  5
1B8
  8
0
  6
CONTINUOUS
 62
     7
 10
130.1126362982481
 20
64.75227210468077
 30
0.0
 11
129.1714193525481
 21
64.75227210468077
 31
0.0
  0
LINE
  5
1B9
  8
0
  6
CONTINUOUS
 62
     7
 10
132.1714179816481
 20
64.75227210468077
 30
0.0
 11
130.1126362982481
 21
64.75227210468077
 31
0.0
  0
LINE
  5
1BA
  8
0
  6
CONTINUOUS
 62
     7
 10
130.2171306911481
 20
65.03277156298077
 30
0.0
 11
129.4519188109481
 21
65.03277156298077
 31
0.0
  0
LINE
  5
1BB
  8
0
  6
CONTINUOUS
 62
     7
 10
131.8909185233481
 20
65.03277156298077
 30
0.0
 11
130.2171306911481
 21
65.03277156298077
 31
0.0
  0
CIRCLE
  5
1BC
  8
0
  6
CONTINUOUS
 62
     7
 10
114.6714165625481
 20
52.53277853308077
 30
0.0
 40
1.219499999999997
  0
CIRCLE
  5
1BD
  8
0
  6
CONTINUOUS
 62
     7
 10
114.6714165625481
 20
52.53277853308077
 30
0.0
 40
1.499999999999887
  0
LINE
  5
1BE
  8
0
  6
CONTINUOUS
 62
     7
 10
130.3943502011481
 20
47.48277995538078
 30
0.0
 11
128.8570197525481
 21
47.48277995538078
 31
0.0
  0
LINE
  5
1BF
  8
0
  6
CONTINUOUS
 62
     7
 10
133.7570207420481
 20
47.48277995538078
 30
0.0
 11
130.3943502011481
 21
47.48277995538078
 31
0.0
  0
LINE
  5
1C0
  8
0
  6
CONTINUOUS
 62
     7
 10
130.2825914922481
 20
47.78278503368077
 30
0.0
 11
128.5570221248481
 21
47.78278503368077
 31
0.0
  0
LINE
  5
1C1
  8
0
  6
CONTINUOUS
 62
     7
 10
134.0570258203481
 20
47.78278503368077
 30
0.0
 11
130.2825914922481
 21
47.78278503368077
 31
0.0
  0
LINE
  5
1C2
  8
0
  6
CONTINUOUS
 62
     7
 10
128.5571636858481
 20
103.5827759260808
 30
0.0
 11
134.0570258203481
 21
103.5827759260808
 31
0.0
  0
LINE
  5
1C3
  8
0
  6
CONTINUOUS
 62
     7
 10
128.8571464124481
 20
103.8827810043808
 30
0.0
 11
133.7570207420481
 21
103.8827810043808
 31
0.0
  0
LINE
  5
1C4
  8
0
  6
CONTINUOUS
 62
     7
 10
95.25874576004813
 20
111.9827840084808
 30
0.0
 11
93.72141531134812
 21
111.9827840084808
 31
0.0
  0
LINE
  5
1C5
  8
0
  6
CONTINUOUS
 62
     7
 10
98.6214163008481
 20
111.9827840084808
 30
0.0
 11
95.25874576004813
 21
111.9827840084808
 31
0.0
  0
LINE
  5
1C6
  8
0
  6
CONTINUOUS
 62
     7
 10
95.14698705104811
 20
112.2827741855808
 30
0.0
 11
93.42141768364812
 21
112.2827741855808
 31
0.0
  0
LINE
  5
1C7
  8
0
  6
CONTINUOUS
 62
     7
 10
98.9214139285481
 20
112.2827741855808
 30
0.0
 11
95.14698705104811
 21
112.2827741855808
 31
0.0
  0
LINE
  5
1C8
  8
0
  6
CONTINUOUS
 62
     7
 10
143.2587424519481
 20
111.9827840084808
 30
0.0
 11
141.7214157286481
 21
111.9827840084808
 31
0.0
  0
LINE
  5
1C9
  8
0
  6
CONTINUOUS
 62
     7
 10
146.6214167180482
 20
111.9827840084808
 30
0.0
 11
143.2587424519481
 21
111.9827840084808
 31
0.0
  0
LINE
  5
1CA
  8
0
  6
CONTINUOUS
 62
     7
 10
143.1469874683481
 20
112.2827741855808
 30
0.0
 11
141.4214181008481
 21
112.2827741855808
 31
0.0
  0
LINE
  5
1CB
  8
0
  6
CONTINUOUS
 62
     7
 10
146.9214180710481
 20
112.2827741855808
 30
0.0
 11
143.1469874683481
 21
112.2827741855808
 31
0.0
  0
LINE
  5
1CC
  8
0
  6
CONTINUOUS
 62
     7
 10
123.2887389364481
 20
100.8827749246808
 30
0.0
 11
139.2871620360481
 21
100.8827749246808
 31
0.0
  0
LINE
  5
1CD
  8
0
  6
CONTINUOUS
 62
     7
 10
123.2887389364481
 20
96.48277494858078
 30
0.0
 11
123.2887389364481
 21
100.8827749246808
 31
0.0
  0
LINE
  5
1CE
  8
0
  6
CONTINUOUS
 62
     7
 10
136.4516200724481
 20
96.48277494858078
 30
0.0
 11
125.8690687122481
 21
96.48277494858078
 31
0.0
  0
LINE
  5
1CF
  8
0
  6
CONTINUOUS
 62
     7
 10
122.6928564015481
 20
100.8827749246808
 30
0.0
 11
122.6928564015481
 21
96.48277494858078
 31
0.0
  0
LINE
  5
1D0
  8
0
  6
CONTINUOUS
 62
     7
 10
123.2887389364481
 20
100.8827749246808
 30
0.0
 11
122.6928564015481
 21
100.8827749246808
 31
0.0
  0
LINE
  5
1D1
  8
0
  6
CONTINUOUS
 62
     7
 10
123.2887389364481
 20
96.48277494858078
 30
0.0
 11
122.6928564015481
 21
96.48277494858078
 31
0.0
  0
LINE
  5
1D2
  8
0
  6
CONTINUOUS
 62
     7
 10
122.6912768784481
 20
100.8827749246808
 30
0.0
 11
122.6928564015481
 21
100.8827749246808
 31
0.0
  0
LINE
  5
1D3
  8
0
  6
CONTINUOUS
 62
     7
 10
122.6928564015481
 20
96.48277494858078
 30
0.0
 11
122.6912768784481
 21
96.48277494858078
 31
0.0
  0
LINE
  5
1D4
  8
0
  6
CONTINUOUS
 62
     7
 10
125.7043140235481
 20
100.9827766174808
 30
0.0
 11
128.5570221248481
 21
100.9827766174808
 31
0.0
  0
LINE
  5
1D5
  8
0
  6
CONTINUOUS
 62
     7
 10
134.0570258203481
 20
100.9827766174808
 30
0.0
 11
135.8081283274481
 21
100.9827766174808
 31
0.0
  0
LINE
  5
1D6
  8
0
  6
CONTINUOUS
 62
     7
 10
126.9221561256481
 20
104.9827847236808
 30
0.0
 11
134.4214188161481
 21
104.9827847236808
 31
0.0
  0
LINE
  5
1D7
  8
0
  6
CONTINUOUS
 62
     7
 10
125.7043140235481
 20
100.9827766174808
 30
0.0
 11
125.6389277282481
 21
100.9827766174808
 31
0.0
  0
LINE
  5
1D8
  8
0
  6
CONTINUOUS
 62
     7
 10
124.3714200559481
 20
100.9827766174808
 30
0.0
 11
125.6389277282481
 21
100.9827766174808
 31
0.0
  0
LINE
  5
1D9
  8
0
  6
CONTINUOUS
 62
     7
 10
135.8081283274481
 20
100.9827766174808
 30
0.0
 11
136.9714172783481
 21
100.9827766174808
 31
0.0
  0
LINE
  5
1DA
  8
0
  6
CONTINUOUS
 62
     7
 10
150.9214150014481
 20
132.7827784771808
 30
0.0
 11
89.42141702804813
 21
132.7827784771808
 31
0.0
  0
LINE
  5
1DB
  8
0
  6
CONTINUOUS
 62
     7
 10
150.9214150014481
 20
117.7827778810808
 30
0.0
 11
89.42141702804813
 21
117.7827778810808
 31
0.0
  0
LINE
  5
1DC
  8
0
  6
CONTINUOUS
 62
     7
 10
89.42141702804813
 20
117.7827778810808
 30
0.0
 11
89.42141702804813
 21
132.7827784771808
 31
0.0
  0
LINE
  5
1DD
  8
0
  6
CONTINUOUS
 62
     7
 10
150.9214150014481
 20
117.7827778810808
 30
0.0
 11
150.9214150014481
 21
132.7827784771808
 31
0.0
  0
LINE
  5
1DE
  8
0
  6
CONTINUOUS
 62
     7
 10
81.4214157167481
 20
117.7827778810808
 30
0.0
 11
81.4214157167481
 21
132.7827784771808
 31
0.0
  0
LINE
  5
1DF
  8
0
  6
CONTINUOUS
 62
     7
 10
83.6893649998481
 20
122.2827795500808
 30
0.0
 11
87.15346774484814
 21
122.2827795500808
 31
0.0
  0
LINE
  5
1E0
  8
0
  6
CONTINUOUS
 62
     7
 10
87.15346774484814
 20
122.2827795500808
 30
0.0
 11
88.88551911744813
 21
125.2827856296808
 31
0.0
  0
LINE
  5
1E1
  8
0
  6
CONTINUOUS
 62
     7
 10
88.88551911744813
 20
125.2827856296808
 30
0.0
 11
87.15346774484814
 21
128.2827768082808
 31
0.0
  0
LINE
  5
1E2
  8
0
  6
CONTINUOUS
 62
     7
 10
87.15346774484814
 20
128.2827768082808
 30
0.0
 11
83.6893649998481
 21
128.2827768082808
 31
0.0
  0
LINE
  5
1E3
  8
0
  6
CONTINUOUS
 62
     7
 10
83.6893649998481
 20
128.2827768082808
 30
0.0
 11
81.9573136273481
 21
125.2827856296808
 31
0.0
  0
LINE
  5
1E4
  8
0
  6
CONTINUOUS
 62
     7
 10
81.9573136273481
 20
125.2827856296808
 30
0.0
 11
83.6893649998481
 21
122.2827795500808
 31
0.0
  0
LINE
  5
1E5
  8
0
  6
CONTINUOUS
 62
     7
 10
89.42141702804813
 20
132.7827784771808
 30
0.0
 11
81.4214157167481
 21
132.7827784771808
 31
0.0
  0
LINE
  5
1E6
  8
0
  6
CONTINUOUS
 62
     7
 10
89.42141702804813
 20
117.7827778810808
 30
0.0
 11
81.4214157167481
 21
117.7827778810808
 31
0.0
  0
LINE
  5
1E7
  8
0
  6
CONTINUOUS
 62
     7
 10
158.9214163127481
 20
117.7827778810808
 30
0.0
 11
158.9214163127481
 21
132.7827784771808
 31
0.0
  0
LINE
  5
1E8
  8
0
  6
CONTINUOUS
 62
     7
 10
156.6534670296481
 20
128.2827768082808
 30
0.0
 11
153.1893642845481
 21
128.2827768082808
 31
0.0
  0
LINE
  5
1E9
  8
0
  6
CONTINUOUS
 62
     7
 10
153.1893642845481
 20
128.2827768082808
 30
0.0
 11
151.4573166373481
 21
125.2827856296808
 31
0.0
  0
LINE
  5
1EA
  8
0
  6
CONTINUOUS
 62
     7
 10
151.4573166373481
 20
125.2827856296808
 30
0.0
 11
153.1893642845481
 21
122.2827795500808
 31
0.0
  0
LINE
  5
1EB
  8
0
  6
CONTINUOUS
 62
     7
 10
153.1893642845481
 20
122.2827795500808
 30
0.0
 11
156.6534670296481
 21
122.2827795500808
 31
0.0
  0
LINE
  5
1EC
  8
0
  6
CONTINUOUS
 62
     7
 10
156.6534670296481
 20
122.2827795500808
 30
0.0
 11
158.3855184021481
 21
125.2827856296808
 31
0.0
  0
LINE
  5
1ED
  8
0
  6
CONTINUOUS
 62
     7
 10
158.3855184021481
 20
125.2827856296808
 30
0.0
 11
156.6534670296481
 21
128.2827768082808
 31
0.0
  0
LINE
  5
1EE
  8
0
  6
CONTINUOUS
 62
     7
 10
158.9214163127481
 20
132.7827784771808
 30
0.0
 11
150.9214150014481
 21
132.7827784771808
 31
0.0
  0
LINE
  5
1EF
  8
0
  6
CONTINUOUS
 62
     7
 10
158.9214163127481
 20
117.7827778810808
 30
0.0
 11
150.9214150014481
 21
117.7827778810808
 31
0.0
  0
LINE
  5
1F0
  8
0
  6
CONTINUOUS
 62
     7
 10
127.8160320821405
 20
109.0413543934512
 30
0.0
 11
127.8078513446451
 21
108.9827779287982
 31
0.0
  0
LINE
  5
1F1
  8
0
  6
CONTINUOUS
 62
     7
 10
127.8078513446481
 20
108.9827779287808
 30
0.0
 11
100.4214169684481
 21
108.9827779287808
 31
0.0
  0
LINE
  5
1F2
  8
0
  6
CONTINUOUS
 62
     7
 10
100.4214169684481
 20
108.9827779287808
 30
0.0
 11
100.4214169684481
 21
109.1827813143808
 31
0.0
  0
LINE
  5
1F3
  8
0
  6
CONTINUOUS
 62
     7
 10
100.4214169684481
 20
109.1827813143808
 30
0.0
 11
127.8078513446481
 21
109.1827813143808
 31
0.0
  0
LINE
  5
1F4
  8
0
  6
CONTINUOUS
 62
     7
 10
127.8078513446451
 20
109.182781314342
 30
0.0
 11
127.8160320821405
 21
109.0413543934512
 31
0.0
  0
LINE
  5
1F5
  8
0
  6
CONTINUOUS
 62
     7
 10
139.9214150610481
 20
108.9827779287808
 30
0.0
 11
133.5349785390481
 21
108.9827779287808
 31
0.0
  0
LINE
  5
1F6
  8
0
  6
CONTINUOUS
 62
     7
 10
133.5349785390497
 20
108.9827779287982
 30
0.0
 11
133.5268052521349
 21
109.0413543934512
 31
0.0
  0
LINE
  5
1F7
  8
0
  6
CONTINUOUS
 62
     7
 10
133.5268052521349
 20
109.0413543934512
 30
0.0
 11
133.5349785390497
 21
109.182781314342
 31
0.0
  0
LINE
  5
1F8
  8
0
  6
CONTINUOUS
 62
     7
 10
133.5349785390481
 20
109.1827813143808
 30
0.0
 11
139.9214150610481
 21
109.1827813143808
 31
0.0
  0
LINE
  5
1F9
  8
0
  6
CONTINUOUS
 62
     7
 10
139.9214150610481
 20
109.1827813143808
 30
0.0
 11
139.9214150610481
 21
108.9827779287808
 31
0.0
  0
LINE
  5
1FA
  8
0
  6
CONTINUOUS
 62
     7
 10
139.9214150610481
 20
143.9827818030808
 30
0.0
 11
100.4214169684481
 21
143.9827818030808
 31
0.0
  0
LINE
  5
1FB
  8
0
  6
CONTINUOUS
 62
     7
 10
147.4214153590481
 20
114.9827751869808
 30
0.0
 11
147.4214153590481
 21
117.7827778810808
 31
0.0
  0
LINE
  5
1FC
  8
0
  6
CONTINUOUS
 62
     7
 10
147.4214153590481
 20
114.9827751869808
 30
0.0
 11
139.9214150610481
 21
114.9827751869808
 31
0.0
  0
LINE
  5
1FD
  8
0
  6
CONTINUOUS
 62
     7
 10
139.9214150610481
 20
109.1827813143808
 30
0.0
 11
139.9214150610481
 21
114.9827751869808
 31
0.0
  0
LINE
  5
1FE
  8
0
  6
CONTINUOUS
 62
     7
 10
133.5349785390481
 20
109.1827813143808
 30
0.0
 11
130.6714149418481
 21
109.1827813143808
 31
0.0
  0
LINE
  5
1FF
  8
0
  6
CONTINUOUS
 62
     7
 10
130.6714149418481
 20
109.1827813143808
 30
0.0
 11
127.8078513446481
 21
109.1827813143808
 31
0.0
  0
LINE
  5
200
  8
0
  6
CONTINUOUS
 62
     7
 10
100.4214169684481
 20
114.9827751869808
 30
0.0
 11
100.4214169684481
 21
109.1827813143808
 31
0.0
  0
LINE
  5
201
  8
0
  6
CONTINUOUS
 62
     7
 10
100.4214169684481
 20
114.9827751869808
 30
0.0
 11
92.92141667034812
 21
114.9827751869808
 31
0.0
  0
LINE
  5
202
  8
0
  6
CONTINUOUS
 62
     7
 10
92.92141667034812
 20
117.7827778810808
 30
0.0
 11
92.92141667034812
 21
114.9827751869808
 31
0.0
  0
LINE
  5
203
  8
0
  6
CONTINUOUS
 62
     7
 10
140.9214170876481
 20
106.9827738756808
 30
0.0
 11
127.5091352167481
 21
106.9827738756808
 31
0.0
  0
LINE
  5
204
  8
0
  6
CONTINUOUS
 62
     7
 10
127.5091352167481
 20
106.9827738756808
 30
0.0
 11
127.5091352167481
 21
108.7827745432808
 31
0.0
  0
LINE
  5
205
  8
0
  6
CONTINUOUS
 62
     7
 10
127.8626578155481
 20
108.7827745432808
 30
0.0
 11
127.5091352167481
 21
108.7827745432808
 31
0.0
  0
LINE
  5
206
  8
0
  6
CONTINUOUS
 62
     7
 10
127.8626578155161
 20
108.7827745432544
 30
0.0
 11
130.6714149418474
 21
108.7827745432544
 31
0.0
  0
LINE
  5
207
  8
0
  6
CONTINUOUS
 62
     7
 10
130.6714149418474
 20
108.7827745432544
 30
0.0
 11
133.4801720681787
 21
108.7827745432544
 31
0.0
  0
LINE
  5
208
  8
0
  6
CONTINUOUS
 62
     7
 10
140.5290732386481
 20
108.7827745432808
 30
0.0
 11
133.4801720681481
 21
108.7827745432808
 31
0.0
  0
LINE
  5
209
  8
0
  6
CONTINUOUS
 62
     7
 10
140.5290732386709
 20
108.7827745432544
 30
0.0
 11
140.9214170876146
 21
108.7827745432544
 31
0.0
  0
LINE
  5
20A
  8
0
  6
CONTINUOUS
 62
     7
 10
130.6714149418474
 20
109.182781314342
 30
0.0
 11
130.6714149418474
 21
108.9820328707385
 31
0.0
  0
LINE
  5
20B
  8
0
  6
CONTINUOUS
 62
     7
 10
133.5268052521349
 20
109.0413543934512
 30
0.0
 11
130.6714149418474
 21
108.9820328707385
 31
0.0
  0
LINE
  5
20C
  8
0
  6
CONTINUOUS
 62
     7
 10
127.8160320821405
 20
109.0413543934512
 30
0.0
 11
130.6714149418474
 21
108.9820328707385
 31
0.0
  0
ARC
  5
20D
  8
0
  6
CONTINUOUS
 62
     7
 10
-132.6241666751227
 20
135.4630690426737
 30
0.0
 40
26.55293799320801
 50
268.1346773330159
 51
274.2174440989828
210
0.0
220
0.0
230
-1.0
  0
LINE
  5
20E
  8
0
  6
CONTINUOUS
 62
     7
 10
133.4884720149637
 20
108.9242014641452
 30
0.0
 11
133.4801720681787
 21
108.7827745432544
 31
0.0
  0
LINE
  5
20F
  8
0
  6
CONTINUOUS
 62
     7
 10
130.6714149418474
 20
108.7827745432544
 30
0.0
 11
130.6714149418474
 21
108.9820328707385
 31
0.0
  0
LINE
  5
210
  8
0
  6
CONTINUOUS
 62
     7
 10
127.8543653193117
 20
108.9242014641452
 30
0.0
 11
127.8626578155161
 21
108.7827745432544
 31
0.0
  0
ARC
  5
211
  8
0
  6
CONTINUOUS
 62
     7
 10
128.7186698554005
 20
135.4628566166345
 30
0.0
 40
26.55272565357181
 50
268.1346641461998
 51
274.2174635049822
  0
LINE
  5
212
  8
0
  6
CONTINUOUS
 62
     7
 10
127.8078513446451
 20
108.9827779287982
 30
0.0
 11
127.8543653193117
 21
108.9242014641452
 31
0.0
  0
LINE
  5
213
  8
0
  6
CONTINUOUS
 62
     7
 10
133.5349785390497
 20
108.9827779287982
 30
0.0
 11
133.4884720149637
 21
108.9242014641452
 31
0.0
  0
LINE
  5
214
  8
0
  6
CONTINUOUS
 62
     7
 10
99.4214149418481
 20
109.1827813143808
 30
0.0
 11
100.4214169684481
 21
109.1827813143808
 31
0.0
  0
LINE
  5
215
  8
0
  6
CONTINUOUS
 62
     7
 10
99.4214149418481
 20
109.1827813143808
 30
0.0
 11
99.4214149418481
 21
114.9827751869808
 31
0.0
  0
LINE
  5
216
  8
0
  6
CONTINUOUS
 62
     7
 10
140.9214170876481
 20
114.9827751869808
 30
0.0
 11
140.9214170876481
 21
109.1827813143808
 31
0.0
  0
LINE
  5
217
  8
0
  6
CONTINUOUS
 62
     7
 10
139.9214150610481
 20
109.1827813143808
 30
0.0
 11
140.9214170876481
 21
109.1827813143808
 31
0.0
  0
LINE
  5
218
  8
0
  6
CONTINUOUS
 62
     7
 10
100.4214169684481
 20
108.9827779287808
 30
0.0
 11
99.6214183273481
 21
108.9827779287808
 31
0.0
  0
ARC
  5
219
  8
0
  6
CONTINUOUS
 62
     7
 10
99.62141656254809
 20
109.1827785330808
 30
0.0
 40
0.2000000000000171
 50
180.0
 51
270.0
  0
ARC
  5
21A
  8
0
  6
CONTINUOUS
 62
     7
 10
140.7214165625481
 20
109.1827785330808
 30
0.0
 40
0.2000000000000171
 50
270.0
 51
0.0
  0
LINE
  5
21B
  8
0
  6
CONTINUOUS
 62
     7
 10
140.7214174273481
 20
108.9827779287808
 30
0.0
 11
139.9214150610481
 21
108.9827779287808
 31
0.0
  0
LINE
  5
21C
  8
0
  6
CONTINUOUS
 62
     7
 10
92.42141565714812
 20
114.9827751869808
 30
0.0
 11
92.42141565714812
 21
117.7827778810808
 31
0.0
  0
LINE
  5
21D
  8
0
  6
CONTINUOUS
 62
     7
 10
92.92141667034812
 20
114.9827751869808
 30
0.0
 11
92.42141565714812
 21
114.9827751869808
 31
0.0
  0
LINE
  5
21E
  8
0
  6
CONTINUOUS
 62
     7
 10
147.9214163723481
 20
117.7827778810808
 30
0.0
 11
147.9214163723481
 21
114.9827751869808
 31
0.0
  0
LINE
  5
21F
  8
0
  6
CONTINUOUS
 62
     7
 10
147.9214163723481
 20
114.9827751869808
 30
0.0
 11
147.4214153590481
 21
114.9827751869808
 31
0.0
  0
LINE
  5
220
  8
0
  6
CONTINUOUS
 62
     7
 10
99.4214149418481
 20
132.7827784771808
 30
0.0
 11
99.4214149418481
 21
143.9827818030808
 31
0.0
  0
LINE
  5
221
  8
0
  6
CONTINUOUS
 62
     7
 10
99.4214149418481
 20
143.9827818030808
 30
0.0
 11
100.4214169684481
 21
143.9827818030808
 31
0.0
  0
LINE
  5
222
  8
0
  6
CONTINUOUS
 62
     7
 10
139.9214150610481
 20
143.9827818030808
 30
0.0
 11
140.9214170876481
 21
143.9827818030808
 31
0.0
  0
LINE
  5
223
  8
0
  6
CONTINUOUS
 62
     7
 10
140.9214170876481
 20
143.9827818030808
 30
0.0
 11
140.9214170876481
 21
132.7827784771808
 31
0.0
  0
LINE
  5
224
  8
0
  6
CONTINUOUS
 62
     7
 10
100.4214169684481
 20
144.9827763790808
 30
0.0
 11
139.9214150610481
 21
144.9827763790808
 31
0.0
  0
LINE
  5
225
  8
0
  6
CONTINUOUS
 62
     7
 10
139.9214150610481
 20
144.9827763790808
 30
0.0
 11
139.9214150610481
 21
143.9827818030808
 31
0.0
  0
LINE
  5
226
  8
0
  6
CONTINUOUS
 62
     7
 10
100.4214169684481
 20
144.9827763790808
 30
0.0
 11
100.4214169684481
 21
143.9827818030808
 31
0.0
  0
ARC
  5
227
  8
0
  6
CONTINUOUS
 62
     7
 10
100.4214165625481
 20
143.9827785330808
 30
0.0
 40
1.0
 50
90.0
 51
180.0
  0
ARC
  5
228
  8
0
  6
CONTINUOUS
 62
     7
 10
139.9214165625481
 20
143.9827785330808
 30
0.0
 40
1.0
 50
0.0
 51
90.0
  0
LINE
  5
229
  8
0
  6
CONTINUOUS
 62
     7
 10
127.4776714149118
 20
108.9827779287982
 30
0.0
 11
127.5091352167726
 21
108.7827745432544
 31
0.0
  0
LINE
  5
22A
  8
0
  6
CONTINUOUS
 62
     7
 10
140.5876161757112
 20
108.9242014641452
 30
0.0
 11
140.5290732386709
 21
108.7827745432544
 31
0.0
  0
LINE
  5
22B
  8
0
  6
CONTINUOUS
 62
     7
 10
127.5091352167481
 20
108.7827745432808
 30
0.0
 11
105.4214196506481
 21
108.7827745432808
 31
0.0
  0
ARC
  5
22C
  8
0
  6
CONTINUOUS
 62
     7
 10
105.2214165625481
 20
108.7827785330808
 30
0.0
 40
0.2000000000000171
 50
0.0
 51
90.0
  0
LINE
  5
22D
  8
0
  6
CONTINUOUS
 62
     7
 10
105.6490423384481
 20
106.7827853912808
 30
0.0
 11
105.6490423384481
 21
106.9827738756808
 31
0.0
  0
LINE
  5
22E
  8
0
  6
CONTINUOUS
 62
     7
 10
105.6490423384481
 20
106.7827853912808
 30
0.0
 11
105.1490413251481
 21
106.7827853912808
 31
0.0
  0
LINE
  5
22F
  8
0
  6
CONTINUOUS
 62
     7
 10
105.1490413251481
 20
106.7827853912808
 30
0.0
 11
105.1490413251481
 21
106.9827738756808
 31
0.0
  0
LINE
  5
230
  8
0
  6
CONTINUOUS
 62
     7
 10
105.4214196506481
 20
106.9827738756808
 30
0.0
 11
105.1490413251481
 21
106.9827738756808
 31
0.0
  0
LINE
  5
231
  8
0
  6
CONTINUOUS
 62
     7
 10
119.8493944707481
 20
106.7827853912808
 30
0.0
 11
119.8493944707481
 21
106.9827738756808
 31
0.0
  0
LINE
  5
232
  8
0
  6
CONTINUOUS
 62
     7
 10
119.8493944707481
 20
106.7827853912808
 30
0.0
 11
119.3493934574481
 21
106.7827853912808
 31
0.0
  0
LINE
  5
233
  8
0
  6
CONTINUOUS
 62
     7
 10
119.3493934574481
 20
106.7827853912808
 30
0.0
 11
119.3493934574481
 21
106.9827738756808
 31
0.0
  0
LINE
  5
234
  8
0
  6
CONTINUOUS
 62
     7
 10
105.6490423384481
 20
106.9827738756808
 30
0.0
 11
105.4214196506481
 21
106.9827738756808
 31
0.0
  0
LINE
  5
235
  8
0
  6
CONTINUOUS
 62
     7
 10
105.4214196506481
 20
106.9827738756808
 30
0.0
 11
105.4214196506481
 21
108.7827745432808
 31
0.0
  0
LINE
  5
236
  8
0
  6
CONTINUOUS
 62
     7
 10
119.3493934574481
 20
106.7827853912808
 30
0.0
 11
105.6490423384481
 21
106.7827853912808
 31
0.0
  0
LINE
  5
237
  8
0
  6
CONTINUOUS
 62
     7
 10
127.5091352167481
 20
106.9827738756808
 30
0.0
 11
119.3493934574481
 21
106.9827738756808
 31
0.0
  0
LINE
  5
238
  8
0
  6
CONTINUOUS
 62
     7
 10
136.9714172783481
 20
105.9827718490808
 30
0.0
 11
124.3714200559481
 21
105.9827718490808
 31
0.0
  0
LINE
  5
239
  8
0
  6
CONTINUOUS
 62
     7
 10
135.9714152517481
 20
105.4827782863808
 30
0.0
 11
125.3714146319481
 21
105.4827782863808
 31
0.0
  0
LINE
  5
23A
  8
0
  6
CONTINUOUS
 62
     7
 10
105.1490413251481
 20
106.9827738756808
 30
0.0
 11
103.4214155975481
 21
106.9827738756808
 31
0.0
  0
ARC
  5
23B
  8
0
  6
CONTINUOUS
 62
     7
 10
140.7182604866396
 20
109.16067411596
 30
0.0
 40
0.2701615276724351
 50
241.0806173710935
 51
318.6055917793807
  0
LINE
  5
23C
  8
0
  6
CONTINUOUS
 62
     7
 10
140.8628368976713
 20
109.0413543934512
 30
0.0
 11
140.9209290745855
 21
108.9820328707385
 31
0.0
  0
LINE
  5
23D
  8
0
  6
CONTINUOUS
 62
     7
 10
140.9218194189669
 20
109.1362151856112
 30
0.0
 11
140.9209290745855
 21
108.9820328707385
 31
0.0
  0
LINE
  5
23E
  8
0
  6
CONTINUOUS
 62
     7
 10
140.9214170876146
 20
108.7827745432544
 30
0.0
 11
140.9209290745855
 21
108.9820328707385
 31
0.0
  0
LINE
  5
23F
  8
0
  6
CONTINUOUS
 62
     7
 10
119.5493893924481
 20
106.6827836984808
 30
0.0
 11
119.5493893924481
 21
106.7827853912808
 31
0.0
  0
LINE
  5
240
  8
0
  6
CONTINUOUS
 62
     7
 10
121.2382124963481
 20
106.6827836984808
 30
0.0
 11
119.5571901503481
 21
106.6827836984808
 31
0.0
  0
LINE
  5
241
  8
0
  6
CONTINUOUS
 62
     7
 10
119.5571901503481
 20
106.6827836984808
 30
0.0
 11
119.5571901503481
 21
106.7827853912808
 31
0.0
  0
LINE
  5
242
  8
0
  6
CONTINUOUS
 62
     7
 10
119.5571901503481
 20
106.6827836984808
 30
0.0
 11
119.5493893924481
 21
106.6827836984808
 31
0.0
  0
ARC
  5
243
  8
0
  6
CONTINUOUS
 62
     8
 10
125.7060042727481
 20
100.7910674491808
 30
0.0
 40
0.191716619380173
 50
90.50514868400396
 51
151.4223643802013
  0
LINE
  5
244
  8
0
  6
CONTINUOUS
 62
     8
 10
134.9214198294481
 20
104.4827762598808
 30
0.0
 11
126.4222519698481
 21
104.4827762598808
 31
0.0
  0
ARC
  5
245
  8
0
  6
CONTINUOUS
 62
     8
 10
125.6490348303481
 20
100.8230800292808
 30
0.0
 40
0.160016104862393
 50
93.62138577199795
 51
158.0958153632985
  0
LINE
  5
246
  8
0
  6
CONTINUOUS
 62
     8
 10
100.4214169684481
 20
143.9827818030808
 30
0.0
 11
100.4214169684481
 21
132.7827784771808
 31
0.0
  0
LINE
  5
247
  8
0
  6
CONTINUOUS
 62
     8
 10
139.9214150610481
 20
132.7827784771808
 30
0.0
 11
139.9214150610481
 21
143.9827818030808
 31
0.0
  0
LINE
  5
248
  8
0
  6
CONTINUOUS
 62
     8
 10
124.1714166703481
 20
106.1827752346808
 30
0.0
 11
137.1714132133481
 21
106.1827752346808
 31
0.0
  0
LINE
  5
249
  8
0
  6
CONTINUOUS
 62
     8
 10
125.1714186969481
 20
105.6827816719808
 30
0.0
 11
136.1714186373481
 21
105.6827816719808
 31
0.0
  0
LINE
  5
24A
  8
0
  6
CONTINUOUS
 62
     8
 10
105.4214196506481
 20
108.7827745432808
 30
0.0
 11
103.4214155975481
 21
108.7827745432808
 31
0.0
  0
ENDSEC
  0
EOF
