  0
SECTION
  2
HEADER
  9
$ACADVER
  1
AC1009
  9
$FILLMODE
 70
0
  9
$EXTMIN
 10
-140.9205
 20
10.2823
 30
0.0000
  9
$EXTMAX
 10
270.8100
 20
160.2833
 30
0.0000
  0
ENDSEC
  0
SECTION
  2
TABLES
  0
TABLE
  2
LTYPE
 70
1
  0
LTYPE
  2
CONTINUOUS
 70
64
  3
Solid line
 72
65
 73
0
 40
0
  0
ENDTAB
  0
TABLE
  2
LAYER
 70
255
  0
LAYER
  2
16
 70
64
 62
175
  6
CONTINUOUS
  0
LAYER
  2
17
 70
64
 62
82
  6
CONTINUOUS
  0
LAYER
  2
18
 70
64
 62
82
  6
CONTINUOUS
  0
LAYER
  2
20
 70
64
 62
30
  6
CONTINUOUS
  0
LAYER
  2
44
 70
64
 62
253
  6
CONTINUOUS
  0
ENDTAB
  0
ENDSEC
  0
SECTION
  2
BLOCKS
  0
BLOCK
  8
0
  2
RECT
 70
64
 10
0.0000
 20
0.0000
 30
0.0000
  3
RECT
  0
SOLID
  8
0
 10
-0.5000
 20
-0.5000
 30
0.0000
 11
0.5000
 21
-0.5000
 31
0.0000
 12
-0.5000
 22
0.5000
 32
0.0000
 13
0.5000
 23
0.5000
 33
0.0000
  0
ENDBLK
  8
0
  0
BLOCK
  8
0
  2
PIE
 70
64
 10
0.0000
 20
0.0000
 30
0.0000
  3
PIE
  0
CIRCLE
  8
0
 10
0.0000
 20
0.0000
 30
0.0000
 40
0.5000
  0
ENDBLK
  8
0
  0
BLOCK
  8
0
  2
OCTAGONP
 70
64
 10
0.0000
 20
0.0000
 30
0.0000
  3
OCTAGONP
  0
POLYLINE
  8
0
 66
1
 10
0.0000
 20
0.0000
 30
0.0000
 40
0.0000
 41
0.0000
 70
1
  0
VERTEX
  8
0
 10
-0.5000
 20
-0.2071
 30
0.0000
  0
VERTEX
  8
0
 10
-0.5000
 20
0.2071
 30
0.0000
  0
VERTEX
  8
0
 10
-0.2071
 20
0.5000
 30
0.0000
  0
VERTEX
  8
0
 10
0.2071
 20
0.5000
 30
0.0000
  0
VERTEX
  8
0
 10
0.5000
 20
0.2071
 30
0.0000
  0
VERTEX
  8
0
 10
0.5000
 20
-0.2071
 30
0.0000
  0
VERTEX
  8
0
 10
0.2071
 20
-0.5000
 30
0.0000
  0
VERTEX
  8
0
 10
-0.2071
 20
-0.5000
 30
0.0000
  0
SEQEND
  8
0
  0
ENDBLK
  8
0
  0
BLOCK
  8
0
  2
SQUAREP
 70
64
 10
0.0000
 20
0.0000
 30
0.0000
  3
SQUAREP
  0
SOLID
  8
0
 10
-0.5000
 20
-0.5000
 30
0.0000
 11
0.5000
 21
-0.5000
 31
0.0000
 12
-0.5000
 22
0.5000
 32
0.0000
 13
0.5000
 23
0.5000
 33
0.0000
  0
ENDBLK
  8
0
  0
BLOCK
  8
0
  2
ROUNDP
 70
64
 10
0.0000
 20
0.0000
 30
0.0000
  3
ROUNDP
  0
CIRCLE
  8
0
 10
0.0000
 20
0.0000
 30
0.0000
 40
0.5000
  0
ENDBLK
  8
0
  0
BLOCK
  8
0
  2
ANNULUSP
 70
64
 10
0.0000
 20
0.0000
 30
0.0000
  3
ANNULUSP
  0
CIRCLE
  8
0
 10
0.0000
 20
0.0000
 30
0.0000
 40
0.5000
  0
ENDBLK
  8
0
  0
BLOCK
  8
0
  2
THERMALP
 70
64
 10
0.0000
 20
0.0000
 30
0.0000
  3
THERMALP
  0
POLYLINE
  8
0
 66
1
 10
0.0000
 20
0.0000
 30
0.0000
 40
0.0000
 41
0.0000
 70
1
  0
VERTEX
  8
0
 10
-0.2379
 20
0.4000
 30
0.0000
  0
VERTEX
  8
0
 10
0.2379
 20
0.4000
 30
0.0000
 42
1.0000
  0
VERTEX
  8
0
 10
0.2379
 20
0.5000
 30
0.0000
  0
VERTEX
  8
0
 10
-0.2379
 20
0.5000
 30
0.0000
 42
1.0000
  0
SEQEND
  8
0
  0
POLYLINE
  8
0
 66
1
 10
0.0000
 20
0.0000
 30
0.0000
 40
0.0000
 41
0.0000
 70
1
  0
VERTEX
  8
0
 10
0.4000
 20
0.2379
 30
0.0000
  0
VERTEX
  8
0
 10
0.4000
 20
-0.2379
 30
0.0000
 42
1.0000
  0
VERTEX
  8
0
 10
0.5000
 20
-0.2379
 30
0.0000
  0
VERTEX
  8
0
 10
0.5000
 20
0.2379
 30
0.0000
 42
1.0000
  0
SEQEND
  8
0
  0
POLYLINE
  8
0
 66
1
 10
0.0000
 20
0.0000
 30
0.0000
 40
0.0000
 41
0.0000
 70
1
  0
VERTEX
  8
0
 10
0.2379
 20
-0.4000
 30
0.0000
  0
VERTEX
  8
0
 10
-0.2379
 20
-0.4000
 30
0.0000
 42
1.0000
  0
VERTEX
  8
0
 10
-0.2379
 20
-0.5000
 30
0.0000
  0
VERTEX
  8
0
 10
0.2379
 20
-0.5000
 30
0.0000
 42
1.0000
  0
SEQEND
  8
0
  0
POLYLINE
  8
0
 66
1
 10
0.0000
 20
0.0000
 30
0.0000
 40
0.0000
 41
0.0000
 70
1
  0
VERTEX
  8
0
 10
-0.4000
 20
-0.2379
 30
0.0000
  0
VERTEX
  8
0
 10
-0.4000
 20
0.2379
 30
0.0000
 42
1.0000
  0
VERTEX
  8
0
 10
-0.5000
 20
0.2379
 30
0.0000
  0
VERTEX
  8
0
 10
-0.5000
 20
-0.2379
 30
0.0000
 42
1.0000
  0
SEQEND
  8
0
  0
ENDBLK
  8
0
  0
BLOCK
  8
0
  2
OCTAGONV
 70
64
 10
0.0000
 20
0.0000
 30
0.0000
  3
OCTAGONV
  0
POLYLINE
  8
0
 66
1
 10
0.0000
 20
0.0000
 30
0.0000
 40
0.0000
 41
0.0000
 70
1
  0
VERTEX
  8
0
 10
-0.5000
 20
-0.2071
 30
0.0000
  0
VERTEX
  8
0
 10
-0.5000
 20
0.2071
 30
0.0000
  0
VERTEX
  8
0
 10
-0.2071
 20
0.5000
 30
0.0000
  0
VERTEX
  8
0
 10
0.2071
 20
0.5000
 30
0.0000
  0
VERTEX
  8
0
 10
0.5000
 20
0.2071
 30
0.0000
  0
VERTEX
  8
0
 10
0.5000
 20
-0.2071
 30
0.0000
  0
VERTEX
  8
0
 10
0.2071
 20
-0.5000
 30
0.0000
  0
VERTEX
  8
0
 10
-0.2071
 20
-0.5000
 30
0.0000
  0
SEQEND
  8
0
  0
ENDBLK
  8
0
  0
BLOCK
  8
0
  2
SQUAREV
 70
64
 10
0.0000
 20
0.0000
 30
0.0000
  3
SQUAREV
  0
SOLID
  8
0
 10
-0.5000
 20
-0.5000
 30
0.0000
 11
0.5000
 21
-0.5000
 31
0.0000
 12
-0.5000
 22
0.5000
 32
0.0000
 13
0.5000
 23
0.5000
 33
0.0000
  0
ENDBLK
  8
0
  0
BLOCK
  8
0
  2
ROUNDV
 70
64
 10
0.0000
 20
0.0000
 30
0.0000
  3
ROUNDV
  0
CIRCLE
  8
0
 10
0.0000
 20
0.0000
 30
0.0000
 40
0.5000
  0
ENDBLK
  8
0
  0
BLOCK
  8
0
  2
ANNULUSV
 70
64
 10
0.0000
 20
0.0000
 30
0.0000
  3
ANNULUSV
  0
CIRCLE
  8
0
 10
0.0000
 20
0.0000
 30
0.0000
 40
0.5000
  0
ENDBLK
  8
0
  0
BLOCK
  8
0
  2
THERMALV
 70
64
 10
0.0000
 20
0.0000
 30
0.0000
  3
THERMALV
  0
POLYLINE
  8
0
 66
1
 10
0.0000
 20
0.0000
 30
0.0000
 40
0.0000
 41
0.0000
 70
1
  0
VERTEX
  8
0
 10
-0.2379
 20
0.4000
 30
0.0000
  0
VERTEX
  8
0
 10
0.2379
 20
0.4000
 30
0.0000
 42
1.0000
  0
VERTEX
  8
0
 10
0.2379
 20
0.5000
 30
0.0000
  0
VERTEX
  8
0
 10
-0.2379
 20
0.5000
 30
0.0000
 42
1.0000
  0
SEQEND
  8
0
  0
POLYLINE
  8
0
 66
1
 10
0.0000
 20
0.0000
 30
0.0000
 40
0.0000
 41
0.0000
 70
1
  0
VERTEX
  8
0
 10
0.4000
 20
0.2379
 30
0.0000
  0
VERTEX
  8
0
 10
0.4000
 20
-0.2379
 30
0.0000
 42
1.0000
  0
VERTEX
  8
0
 10
0.5000
 20
-0.2379
 30
0.0000
  0
VERTEX
  8
0
 10
0.5000
 20
0.2379
 30
0.0000
 42
1.0000
  0
SEQEND
  8
0
  0
POLYLINE
  8
0
 66
1
 10
0.0000
 20
0.0000
 30
0.0000
 40
0.0000
 41
0.0000
 70
1
  0
VERTEX
  8
0
 10
0.2379
 20
-0.4000
 30
0.0000
  0
VERTEX
  8
0
 10
-0.2379
 20
-0.4000
 30
0.0000
 42
1.0000
  0
VERTEX
  8
0
 10
-0.2379
 20
-0.5000
 30
0.0000
  0
VERTEX
  8
0
 10
0.2379
 20
-0.5000
 30
0.0000
 42
1.0000
  0
SEQEND
  8
0
  0
POLYLINE
  8
0
 66
1
 10
0.0000
 20
0.0000
 30
0.0000
 40
0.0000
 41
0.0000
 70
1
  0
VERTEX
  8
0
 10
-0.4000
 20
-0.2379
 30
0.0000
  0
VERTEX
  8
0
 10
-0.4000
 20
0.2379
 30
0.0000
 42
1.0000
  0
VERTEX
  8
0
 10
-0.5000
 20
0.2379
 30
0.0000
  0
VERTEX
  8
0
 10
-0.5000
 20
-0.2379
 30
0.0000
 42
1.0000
  0
SEQEND
  8
0
  0
ENDBLK
  8
0
  0
BLOCK
  8
0
  2
LONGP100
 70
64
 10
0.0000
 20
0.0000
 30
0.0000
  3
LONGP100
  0
POLYLINE
  8
0
 66
1
 10
0.0000
 20
0.0000
 30
0.0000
 40
0.0000
 41
0.0000
 70
1
  0
VERTEX
  8
0
 10
-0.5000
 20
-0.5000
 30
0.0000
  0
VERTEX
  8
0
 10
0.5000
 20
-0.5000
 30
0.0000
 42
1.0000
  0
VERTEX
  8
0
 10
0.5000
 20
0.5000
 30
0.0000
  0
VERTEX
  8
0
 10
-0.5000
 20
0.5000
 30
0.0000
 42
1.0000
  0
SEQEND
  8
0
  0
ENDBLK
  8
0
  0
ENDSEC
  0
SECTION
  2
ENTITIES
  0
LINE
  8
20
 10
186.0550
 20
53.9750
 30
0.0000
 11
256.5200
 21
53.9750
 31
0.0000
  0
LINE
  8
20
 10
256.5200
 20
53.9750
 30
0.0000
 11
256.5200
 21
142.5450
 31
0.0000
  0
LINE
  8
20
 10
256.5200
 20
142.5450
 30
0.0000
 11
186.0550
 21
142.5450
 31
0.0000
  0
LINE
  8
20
 10
186.0550
 20
142.5450
 30
0.0000
 11
186.0550
 21
53.9750
 31
0.0000
  0
INSERT
  8
17
  2
OCTAGONP
 10
247.6500
 20
67.9450
 30
0.0000
 41
1.3208
 42
1.3208
 43
1.0000
 50
90.0000
  0
CIRCLE
  8
44
 10
247.6500
 20
67.9450
 30
0.0000
 40
0.4064
  0
INSERT
  8
17
  2
OCTAGONP
 10
247.6500
 20
70.4850
 30
0.0000
 41
1.3208
 42
1.3208
 43
1.0000
 50
90.0000
  0
CIRCLE
  8
44
 10
247.6500
 20
70.4850
 30
0.0000
 40
0.4064
  0
INSERT
  8
17
  2
OCTAGONP
 10
242.5700
 20
67.9450
 30
0.0000
 41
1.3208
 42
1.3208
 43
1.0000
 50
90.0000
  0
CIRCLE
  8
44
 10
242.5700
 20
67.9450
 30
0.0000
 40
0.4064
  0
INSERT
  8
17
  2
OCTAGONP
 10
242.5700
 20
70.4850
 30
0.0000
 41
1.3208
 42
1.3208
 43
1.0000
 50
90.0000
  0
CIRCLE
  8
44
 10
242.5700
 20
70.4850
 30
0.0000
 40
0.4064
  0
INSERT
  8
17
  2
OCTAGONP
 10
231.1400
 20
121.2850
 30
0.0000
 41
1.3208
 42
1.3208
 43
1.0000
 50
270.0000
  0
CIRCLE
  8
44
 10
231.1400
 20
121.2850
 30
0.0000
 40
0.4064
  0
INSERT
  8
17
  2
OCTAGONP
 10
231.1400
 20
118.7450
 30
0.0000
 41
1.3208
 42
1.3208
 43
1.0000
 50
270.0000
  0
CIRCLE
  8
44
 10
231.1400
 20
118.7450
 30
0.0000
 40
0.4064
  0
INSERT
  8
17
  2
OCTAGONP
 10
236.2200
 20
121.2850
 30
0.0000
 41
1.3208
 42
1.3208
 43
1.0000
 50
270.0000
  0
CIRCLE
  8
44
 10
236.2200
 20
121.2850
 30
0.0000
 40
0.4064
  0
INSERT
  8
17
  2
OCTAGONP
 10
236.2200
 20
118.7450
 30
0.0000
 41
1.3208
 42
1.3208
 43
1.0000
 50
270.0000
  0
CIRCLE
  8
44
 10
236.2200
 20
118.7450
 30
0.0000
 40
0.4064
  0
INSERT
  8
17
  2
ROUNDP
 10
251.7300
 20
133.3500
 30
0.0000
 41
3.8160
 42
3.8160
 43
1.0000
 50
90.0000
  0
CIRCLE
  8
44
 10
251.7300
 20
133.3500
 30
0.0000
 40
1.4000
  0
INSERT
  8
17
  2
ROUNDP
 10
248.3300
 20
138.1500
 30
0.0000
 41
3.8160
 42
3.8160
 43
1.0000
 50
180.0000
  0
CIRCLE
  8
44
 10
248.3300
 20
138.1500
 30
0.0000
 40
1.4000
  0
INSERT
  8
17
  2
ROUNDP
 10
245.4800
 20
133.3500
 30
0.0000
 41
4.2160
 42
4.2160
 43
1.0000
 50
90.0000
  0
CIRCLE
  8
44
 10
245.4800
 20
133.3500
 30
0.0000
 40
1.6000
  0
INSERT
  8
17
  2
LONGP100
 10
222.2500
 20
105.4100
 30
0.0000
 41
1.3208
 42
1.3208
 43
1.0000
 50
270.0000
  0
CIRCLE
  8
44
 10
222.2500
 20
105.4100
 30
0.0000
 40
0.4064
  0
INSERT
  8
17
  2
LONGP100
 10
219.7100
 20
105.4100
 30
0.0000
 41
1.3208
 42
1.3208
 43
1.0000
 50
270.0000
  0
CIRCLE
  8
44
 10
219.7100
 20
105.4100
 30
0.0000
 40
0.4064
  0
INSERT
  8
17
  2
LONGP100
 10
217.1700
 20
105.4100
 30
0.0000
 41
1.3208
 42
1.3208
 43
1.0000
 50
270.0000
  0
CIRCLE
  8
44
 10
217.1700
 20
105.4100
 30
0.0000
 40
0.4064
  0
INSERT
  8
17
  2
LONGP100
 10
214.6300
 20
105.4100
 30
0.0000
 41
1.3208
 42
1.3208
 43
1.0000
 50
270.0000
  0
CIRCLE
  8
44
 10
214.6300
 20
105.4100
 30
0.0000
 40
0.4064
  0
INSERT
  8
17
  2
LONGP100
 10
212.0900
 20
105.4100
 30
0.0000
 41
1.3208
 42
1.3208
 43
1.0000
 50
270.0000
  0
CIRCLE
  8
44
 10
212.0900
 20
105.4100
 30
0.0000
 40
0.4064
  0
INSERT
  8
17
  2
LONGP100
 10
209.5500
 20
105.4100
 30
0.0000
 41
1.3208
 42
1.3208
 43
1.0000
 50
270.0000
  0
CIRCLE
  8
44
 10
209.5500
 20
105.4100
 30
0.0000
 40
0.4064
  0
INSERT
  8
17
  2
LONGP100
 10
207.0100
 20
105.4100
 30
0.0000
 41
1.3208
 42
1.3208
 43
1.0000
 50
270.0000
  0
CIRCLE
  8
44
 10
207.0100
 20
105.4100
 30
0.0000
 40
0.4064
  0
INSERT
  8
17
  2
LONGP100
 10
207.0100
 20
97.7900
 30
0.0000
 41
1.3208
 42
1.3208
 43
1.0000
 50
270.0000
  0
CIRCLE
  8
44
 10
207.0100
 20
97.7900
 30
0.0000
 40
0.4064
  0
INSERT
  8
17
  2
LONGP100
 10
209.5500
 20
97.7900
 30
0.0000
 41
1.3208
 42
1.3208
 43
1.0000
 50
270.0000
  0
CIRCLE
  8
44
 10
209.5500
 20
97.7900
 30
0.0000
 40
0.4064
  0
INSERT
  8
17
  2
LONGP100
 10
212.0900
 20
97.7900
 30
0.0000
 41
1.3208
 42
1.3208
 43
1.0000
 50
270.0000
  0
CIRCLE
  8
44
 10
212.0900
 20
97.7900
 30
0.0000
 40
0.4064
  0
INSERT
  8
17
  2
LONGP100
 10
214.6300
 20
97.7900
 30
0.0000
 41
1.3208
 42
1.3208
 43
1.0000
 50
270.0000
  0
CIRCLE
  8
44
 10
214.6300
 20
97.7900
 30
0.0000
 40
0.4064
  0
INSERT
  8
17
  2
LONGP100
 10
217.1700
 20
97.7900
 30
0.0000
 41
1.3208
 42
1.3208
 43
1.0000
 50
270.0000
  0
CIRCLE
  8
44
 10
217.1700
 20
97.7900
 30
0.0000
 40
0.4064
  0
INSERT
  8
17
  2
LONGP100
 10
219.7100
 20
97.7900
 30
0.0000
 41
1.3208
 42
1.3208
 43
1.0000
 50
270.0000
  0
CIRCLE
  8
44
 10
219.7100
 20
97.7900
 30
0.0000
 40
0.4064
  0
INSERT
  8
17
  2
LONGP100
 10
222.2500
 20
97.7900
 30
0.0000
 41
1.3208
 42
1.3208
 43
1.0000
 50
270.0000
  0
CIRCLE
  8
44
 10
222.2500
 20
97.7900
 30
0.0000
 40
0.4064
  0
INSERT
  8
17
  2
LONGP100
 10
247.6500
 20
60.9600
 30
0.0000
 41
1.5240
 42
1.5240
 43
1.0000
 50
270.0000
  0
CIRCLE
  8
44
 10
247.6500
 20
60.9600
 30
0.0000
 40
0.5080
  0
INSERT
  8
17
  2
LONGP100
 10
245.1100
 20
60.9600
 30
0.0000
 41
1.5240
 42
1.5240
 43
1.0000
 50
270.0000
  0
CIRCLE
  8
44
 10
245.1100
 20
60.9600
 30
0.0000
 40
0.5080
  0
INSERT
  8
17
  2
LONGP100
 10
242.5700
 20
60.9600
 30
0.0000
 41
1.5240
 42
1.5240
 43
1.0000
 50
270.0000
  0
CIRCLE
  8
44
 10
242.5700
 20
60.9600
 30
0.0000
 40
0.5080
  0
INSERT
  8
17
  2
LONGP100
 10
222.2500
 20
78.7400
 30
0.0000
 41
1.3208
 42
1.3208
 43
1.0000
 50
270.0000
  0
CIRCLE
  8
44
 10
222.2500
 20
78.7400
 30
0.0000
 40
0.4064
  0
INSERT
  8
17
  2
LONGP100
 10
219.7100
 20
78.7400
 30
0.0000
 41
1.3208
 42
1.3208
 43
1.0000
 50
270.0000
  0
CIRCLE
  8
44
 10
219.7100
 20
78.7400
 30
0.0000
 40
0.4064
  0
INSERT
  8
17
  2
LONGP100
 10
217.1700
 20
78.7400
 30
0.0000
 41
1.3208
 42
1.3208
 43
1.0000
 50
270.0000
  0
CIRCLE
  8
44
 10
217.1700
 20
78.7400
 30
0.0000
 40
0.4064
  0
INSERT
  8
17
  2
LONGP100
 10
214.6300
 20
78.7400
 30
0.0000
 41
1.3208
 42
1.3208
 43
1.0000
 50
270.0000
  0
CIRCLE
  8
44
 10
214.6300
 20
78.7400
 30
0.0000
 40
0.4064
  0
INSERT
  8
17
  2
LONGP100
 10
212.0900
 20
78.7400
 30
0.0000
 41
1.3208
 42
1.3208
 43
1.0000
 50
270.0000
  0
CIRCLE
  8
44
 10
212.0900
 20
78.7400
 30
0.0000
 40
0.4064
  0
INSERT
  8
17
  2
LONGP100
 10
209.5500
 20
78.7400
 30
0.0000
 41
1.3208
 42
1.3208
 43
1.0000
 50
270.0000
  0
CIRCLE
  8
44
 10
209.5500
 20
78.7400
 30
0.0000
 40
0.4064
  0
INSERT
  8
17
  2
LONGP100
 10
207.0100
 20
78.7400
 30
0.0000
 41
1.3208
 42
1.3208
 43
1.0000
 50
270.0000
  0
CIRCLE
  8
44
 10
207.0100
 20
78.7400
 30
0.0000
 40
0.4064
  0
INSERT
  8
17
  2
LONGP100
 10
207.0100
 20
71.1200
 30
0.0000
 41
1.3208
 42
1.3208
 43
1.0000
 50
270.0000
  0
CIRCLE
  8
44
 10
207.0100
 20
71.1200
 30
0.0000
 40
0.4064
  0
INSERT
  8
17
  2
LONGP100
 10
209.5500
 20
71.1200
 30
0.0000
 41
1.3208
 42
1.3208
 43
1.0000
 50
270.0000
  0
CIRCLE
  8
44
 10
209.5500
 20
71.1200
 30
0.0000
 40
0.4064
  0
INSERT
  8
17
  2
LONGP100
 10
212.0900
 20
71.1200
 30
0.0000
 41
1.3208
 42
1.3208
 43
1.0000
 50
270.0000
  0
CIRCLE
  8
44
 10
212.0900
 20
71.1200
 30
0.0000
 40
0.4064
  0
INSERT
  8
17
  2
LONGP100
 10
214.6300
 20
71.1200
 30
0.0000
 41
1.3208
 42
1.3208
 43
1.0000
 50
270.0000
  0
CIRCLE
  8
44
 10
214.6300
 20
71.1200
 30
0.0000
 40
0.4064
  0
INSERT
  8
17
  2
LONGP100
 10
217.1700
 20
71.1200
 30
0.0000
 41
1.3208
 42
1.3208
 43
1.0000
 50
270.0000
  0
CIRCLE
  8
44
 10
217.1700
 20
71.1200
 30
0.0000
 40
0.4064
  0
INSERT
  8
17
  2
LONGP100
 10
219.7100
 20
71.1200
 30
0.0000
 41
1.3208
 42
1.3208
 43
1.0000
 50
270.0000
  0
CIRCLE
  8
44
 10
219.7100
 20
71.1200
 30
0.0000
 40
0.4064
  0
INSERT
  8
17
  2
LONGP100
 10
222.2500
 20
71.1200
 30
0.0000
 41
1.3208
 42
1.3208
 43
1.0000
 50
270.0000
  0
CIRCLE
  8
44
 10
222.2500
 20
71.1200
 30
0.0000
 40
0.4064
  0
INSERT
  8
17
  2
LONGP100
 10
231.1400
 20
129.5400
 30
0.0000
 41
1.5240
 42
1.5240
 43
1.0000
 50
90.0000
  0
CIRCLE
  8
44
 10
231.1400
 20
129.5400
 30
0.0000
 40
0.5080
  0
INSERT
  8
17
  2
LONGP100
 10
233.6800
 20
129.5400
 30
0.0000
 41
1.5240
 42
1.5240
 43
1.0000
 50
90.0000
  0
CIRCLE
  8
44
 10
233.6800
 20
129.5400
 30
0.0000
 40
0.5080
  0
INSERT
  8
17
  2
LONGP100
 10
236.2200
 20
129.5400
 30
0.0000
 41
1.5240
 42
1.5240
 43
1.0000
 50
90.0000
  0
CIRCLE
  8
44
 10
236.2200
 20
129.5400
 30
0.0000
 40
0.5080
  0
INSERT
  8
17
  2
LONGP100
 10
224.1550
 20
121.9200
 30
0.0000
 41
1.8796
 42
1.8796
 43
1.0000
 50
180.0000
  0
CIRCLE
  8
44
 10
224.1550
 20
121.9200
 30
0.0000
 40
0.5588
  0
INSERT
  8
17
  2
LONGP100
 10
224.1550
 20
124.4600
 30
0.0000
 41
1.8796
 42
1.8796
 43
1.0000
 50
180.0000
  0
CIRCLE
  8
44
 10
224.1550
 20
124.4600
 30
0.0000
 40
0.5588
  0
INSERT
  8
17
  2
LONGP100
 10
224.1550
 20
127.0000
 30
0.0000
 41
1.8796
 42
1.8796
 43
1.0000
 50
180.0000
  0
CIRCLE
  8
44
 10
224.1550
 20
127.0000
 30
0.0000
 40
0.5588
  0
INSERT
  8
17
  2
SQUAREP
 10
250.1900
 20
120.4722
 30
0.0000
 41
2.0320
 42
2.0320
 43
1.0000
 50
90.0000
  0
CIRCLE
  8
44
 10
250.1900
 20
120.4722
 30
0.0000
 40
0.6000
  0
INSERT
  8
17
  2
ROUNDP
 10
250.1900
 20
124.3278
 30
0.0000
 41
2.0320
 42
2.0320
 43
1.0000
 50
90.0000
  0
CIRCLE
  8
44
 10
250.1900
 20
124.3278
 30
0.0000
 40
0.6000
  0
INSERT
  8
17
  2
ROUNDP
 10
208.8350
 20
135.2550
 30
0.0000
 41
2.1844
 42
2.1844
 43
1.0000
 50
180.0000
  0
CIRCLE
  8
44
 10
208.8350
 20
135.2550
 30
0.0000
 40
0.6000
  0
INSERT
  8
17
  2
ROUNDP
 10
203.8350
 20
135.2550
 30
0.0000
 41
2.1844
 42
2.1844
 43
1.0000
 50
180.0000
  0
CIRCLE
  8
44
 10
203.8350
 20
135.2550
 30
0.0000
 40
0.6000
  0
INSERT
  8
17
  2
ROUNDP
 10
198.8350
 20
135.2550
 30
0.0000
 41
2.1844
 42
2.1844
 43
1.0000
 50
180.0000
  0
CIRCLE
  8
44
 10
198.8350
 20
135.2550
 30
0.0000
 40
0.6000
  0
INSERT
  8
17
  2
OCTAGONP
 10
193.0400
 20
135.2550
 30
0.0000
 41
1.3208
 42
1.3208
 43
1.0000
 50
270.0000
  0
CIRCLE
  8
44
 10
193.0400
 20
135.2550
 30
0.0000
 40
0.4064
  0
INSERT
  8
17
  2
OCTAGONP
 10
193.0400
 20
127.6350
 30
0.0000
 41
1.3208
 42
1.3208
 43
1.0000
 50
270.0000
  0
CIRCLE
  8
44
 10
193.0400
 20
127.6350
 30
0.0000
 40
0.4064
  0
INSERT
  8
17
  2
OCTAGONP
 10
214.6300
 20
127.6350
 30
0.0000
 41
1.3208
 42
1.3208
 43
1.0000
 50
90.0000
  0
CIRCLE
  8
44
 10
214.6300
 20
127.6350
 30
0.0000
 40
0.4064
  0
INSERT
  8
17
  2
OCTAGONP
 10
214.6300
 20
135.2550
 30
0.0000
 41
1.3208
 42
1.3208
 43
1.0000
 50
90.0000
  0
CIRCLE
  8
44
 10
214.6300
 20
135.2550
 30
0.0000
 40
0.4064
  0
INSERT
  8
17
  2
LONGP100
 10
251.4600
 20
78.7400
 30
0.0000
 41
1.3080
 42
1.3080
 43
1.0000
 50
0.0000
  0
CIRCLE
  8
44
 10
251.4600
 20
78.7400
 30
0.0000
 40
0.4000
  0
INSERT
  8
17
  2
LONGP100
 10
251.4600
 20
104.1400
 30
0.0000
 41
1.3080
 42
1.3080
 43
1.0000
 50
180.0000
  0
CIRCLE
  8
44
 10
251.4600
 20
104.1400
 30
0.0000
 40
0.4000
  0
INSERT
  8
17
  2
LONGP100
 10
251.4600
 20
83.8200
 30
0.0000
 41
1.3080
 42
1.3080
 43
1.0000
 50
180.0000
  0
CIRCLE
  8
44
 10
251.4600
 20
83.8200
 30
0.0000
 40
0.4000
  0
INSERT
  8
17
  2
LONGP100
 10
251.4600
 20
86.3600
 30
0.0000
 41
1.3080
 42
1.3080
 43
1.0000
 50
180.0000
  0
CIRCLE
  8
44
 10
251.4600
 20
86.3600
 30
0.0000
 40
0.4000
  0
INSERT
  8
17
  2
LONGP100
 10
251.4600
 20
88.9000
 30
0.0000
 41
1.3080
 42
1.3080
 43
1.0000
 50
180.0000
  0
CIRCLE
  8
44
 10
251.4600
 20
88.9000
 30
0.0000
 40
0.4000
  0
INSERT
  8
17
  2
LONGP100
 10
251.4600
 20
91.4400
 30
0.0000
 41
1.3080
 42
1.3080
 43
1.0000
 50
180.0000
  0
CIRCLE
  8
44
 10
251.4600
 20
91.4400
 30
0.0000
 40
0.4000
  0
INSERT
  8
17
  2
LONGP100
 10
251.4600
 20
93.9800
 30
0.0000
 41
1.3080
 42
1.3080
 43
1.0000
 50
0.0000
  0
CIRCLE
  8
44
 10
251.4600
 20
93.9800
 30
0.0000
 40
0.4000
  0
INSERT
  8
17
  2
LONGP100
 10
251.4600
 20
96.5200
 30
0.0000
 41
1.3080
 42
1.3080
 43
1.0000
 50
0.0000
  0
CIRCLE
  8
44
 10
251.4600
 20
96.5200
 30
0.0000
 40
0.4000
  0
INSERT
  8
17
  2
LONGP100
 10
251.4600
 20
99.0600
 30
0.0000
 41
1.3080
 42
1.3080
 43
1.0000
 50
0.0000
  0
CIRCLE
  8
44
 10
251.4600
 20
99.0600
 30
0.0000
 40
0.4000
  0
INSERT
  8
17
  2
LONGP100
 10
251.4600
 20
101.6000
 30
0.0000
 41
1.3080
 42
1.3080
 43
1.0000
 50
0.0000
  0
CIRCLE
  8
44
 10
251.4600
 20
101.6000
 30
0.0000
 40
0.4000
  0
INSERT
  8
17
  2
LONGP100
 10
251.4600
 20
81.2800
 30
0.0000
 41
1.3080
 42
1.3080
 43
1.0000
 50
0.0000
  0
CIRCLE
  8
44
 10
251.4600
 20
81.2800
 30
0.0000
 40
0.4000
  0
INSERT
  8
17
  2
LONGP100
 10
236.2200
 20
101.6000
 30
0.0000
 41
1.3080
 42
1.3080
 43
1.0000
 50
180.0000
  0
CIRCLE
  8
44
 10
236.2200
 20
101.6000
 30
0.0000
 40
0.4000
  0
INSERT
  8
17
  2
LONGP100
 10
236.2200
 20
99.0600
 30
0.0000
 41
1.3080
 42
1.3080
 43
1.0000
 50
180.0000
  0
CIRCLE
  8
44
 10
236.2200
 20
99.0600
 30
0.0000
 40
0.4000
  0
INSERT
  8
17
  2
LONGP100
 10
236.2200
 20
96.5200
 30
0.0000
 41
1.3080
 42
1.3080
 43
1.0000
 50
180.0000
  0
CIRCLE
  8
44
 10
236.2200
 20
96.5200
 30
0.0000
 40
0.4000
  0
INSERT
  8
17
  2
LONGP100
 10
236.2200
 20
93.9800
 30
0.0000
 41
1.3080
 42
1.3080
 43
1.0000
 50
180.0000
  0
CIRCLE
  8
44
 10
236.2200
 20
93.9800
 30
0.0000
 40
0.4000
  0
INSERT
  8
17
  2
LONGP100
 10
236.2200
 20
91.4400
 30
0.0000
 41
1.3080
 42
1.3080
 43
1.0000
 50
180.0000
  0
CIRCLE
  8
44
 10
236.2200
 20
91.4400
 30
0.0000
 40
0.4000
  0
INSERT
  8
17
  2
LONGP100
 10
236.2200
 20
88.9000
 30
0.0000
 41
1.3080
 42
1.3080
 43
1.0000
 50
180.0000
  0
CIRCLE
  8
44
 10
236.2200
 20
88.9000
 30
0.0000
 40
0.4000
  0
INSERT
  8
17
  2
LONGP100
 10
236.2200
 20
86.3600
 30
0.0000
 41
1.3080
 42
1.3080
 43
1.0000
 50
180.0000
  0
CIRCLE
  8
44
 10
236.2200
 20
86.3600
 30
0.0000
 40
0.4000
  0
INSERT
  8
17
  2
LONGP100
 10
236.2200
 20
83.8200
 30
0.0000
 41
1.3080
 42
1.3080
 43
1.0000
 50
180.0000
  0
CIRCLE
  8
44
 10
236.2200
 20
83.8200
 30
0.0000
 40
0.4000
  0
INSERT
  8
17
  2
LONGP100
 10
236.2200
 20
81.2800
 30
0.0000
 41
1.3080
 42
1.3080
 43
1.0000
 50
180.0000
  0
CIRCLE
  8
44
 10
236.2200
 20
81.2800
 30
0.0000
 40
0.4000
  0
INSERT
  8
17
  2
LONGP100
 10
236.2200
 20
78.7400
 30
0.0000
 41
1.3080
 42
1.3080
 43
1.0000
 50
180.0000
  0
CIRCLE
  8
44
 10
236.2200
 20
78.7400
 30
0.0000
 40
0.4000
  0
INSERT
  8
17
  2
LONGP100
 10
236.2200
 20
76.2000
 30
0.0000
 41
1.3080
 42
1.3080
 43
1.0000
 50
180.0000
  0
CIRCLE
  8
44
 10
236.2200
 20
76.2000
 30
0.0000
 40
0.4000
  0
INSERT
  8
17
  2
LONGP100
 10
251.4600
 20
76.2000
 30
0.0000
 41
1.3080
 42
1.3080
 43
1.0000
 50
180.0000
  0
CIRCLE
  8
44
 10
251.4600
 20
76.2000
 30
0.0000
 40
0.4000
  0
INSERT
  8
17
  2
LONGP100
 10
251.4600
 20
109.2200
 30
0.0000
 41
1.3080
 42
1.3080
 43
1.0000
 50
180.0000
  0
CIRCLE
  8
44
 10
251.4600
 20
109.2200
 30
0.0000
 40
0.4000
  0
INSERT
  8
17
  2
LONGP100
 10
236.2200
 20
104.1400
 30
0.0000
 41
1.3080
 42
1.3080
 43
1.0000
 50
180.0000
  0
CIRCLE
  8
44
 10
236.2200
 20
104.1400
 30
0.0000
 40
0.4000
  0
INSERT
  8
17
  2
ROUNDP
 10
246.3800
 20
113.0300
 30
0.0000
 41
1.3080
 42
1.3080
 43
1.0000
 50
270.0000
  0
CIRCLE
  8
44
 10
246.3800
 20
113.0300
 30
0.0000
 40
0.4000
  0
INSERT
  8
17
  2
ROUNDP
 10
246.3800
 20
110.4900
 30
0.0000
 41
1.3080
 42
1.3080
 43
1.0000
 50
270.0000
  0
CIRCLE
  8
44
 10
246.3800
 20
110.4900
 30
0.0000
 40
0.4000
  0
INSERT
  8
17
  2
ROUNDP
 10
243.8400
 20
113.0300
 30
0.0000
 41
1.3080
 42
1.3080
 43
1.0000
 50
270.0000
  0
CIRCLE
  8
44
 10
243.8400
 20
113.0300
 30
0.0000
 40
0.4000
  0
INSERT
  8
17
  2
ROUNDP
 10
243.8400
 20
110.4900
 30
0.0000
 41
1.3080
 42
1.3080
 43
1.0000
 50
270.0000
  0
CIRCLE
  8
44
 10
243.8400
 20
110.4900
 30
0.0000
 40
0.4000
  0
INSERT
  8
17
  2
ROUNDP
 10
241.3000
 20
113.0300
 30
0.0000
 41
1.3080
 42
1.3080
 43
1.0000
 50
270.0000
  0
CIRCLE
  8
44
 10
241.3000
 20
113.0300
 30
0.0000
 40
0.4000
  0
INSERT
  8
17
  2
ROUNDP
 10
241.3000
 20
110.4900
 30
0.0000
 41
1.3080
 42
1.3080
 43
1.0000
 50
270.0000
  0
CIRCLE
  8
44
 10
241.3000
 20
110.4900
 30
0.0000
 40
0.4000
  0
INSERT
  8
17
  2
LONGP100
 10
251.4600
 20
111.7600
 30
0.0000
 41
1.3080
 42
1.3080
 43
1.0000
 50
180.0000
  0
CIRCLE
  8
44
 10
251.4600
 20
111.7600
 30
0.0000
 40
0.4000
  0
INSERT
  8
17
  2
LONGP100
 10
251.4600
 20
106.6800
 30
0.0000
 41
1.3080
 42
1.3080
 43
1.0000
 50
180.0000
  0
CIRCLE
  8
44
 10
251.4600
 20
106.6800
 30
0.0000
 40
0.4000
  0
INSERT
  8
17
  2
LONGP100
 10
236.2200
 20
106.6800
 30
0.0000
 41
1.3080
 42
1.3080
 43
1.0000
 50
180.0000
  0
CIRCLE
  8
44
 10
236.2200
 20
106.6800
 30
0.0000
 40
0.4000
  0
INSERT
  8
17
  2
LONGP100
 10
236.2200
 20
109.2200
 30
0.0000
 41
1.3080
 42
1.3080
 43
1.0000
 50
180.0000
  0
CIRCLE
  8
44
 10
236.2200
 20
109.2200
 30
0.0000
 40
0.4000
  0
INSERT
  8
17
  2
LONGP100
 10
236.2200
 20
111.7600
 30
0.0000
 41
1.3080
 42
1.3080
 43
1.0000
 50
180.0000
  0
CIRCLE
  8
44
 10
236.2200
 20
111.7600
 30
0.0000
 40
0.4000
  0
INSERT
  8
17
  2
ROUNDP
 10
196.8500
 20
81.2800
 30
0.0000
 41
1.5080
 42
1.5080
 43
1.0000
 50
90.0000
  0
CIRCLE
  8
44
 10
196.8500
 20
81.2800
 30
0.0000
 40
0.5000
  0
INSERT
  8
17
  2
ROUNDP
 10
194.3100
 20
81.2800
 30
0.0000
 41
1.5080
 42
1.5080
 43
1.0000
 50
90.0000
  0
CIRCLE
  8
44
 10
194.3100
 20
81.2800
 30
0.0000
 40
0.5000
  0
INSERT
  8
17
  2
ROUNDP
 10
196.8500
 20
83.8200
 30
0.0000
 41
1.5080
 42
1.5080
 43
1.0000
 50
90.0000
  0
CIRCLE
  8
44
 10
196.8500
 20
83.8200
 30
0.0000
 40
0.5000
  0
INSERT
  8
17
  2
ROUNDP
 10
194.3100
 20
83.8200
 30
0.0000
 41
1.5080
 42
1.5080
 43
1.0000
 50
90.0000
  0
CIRCLE
  8
44
 10
194.3100
 20
83.8200
 30
0.0000
 40
0.5000
  0
INSERT
  8
17
  2
ROUNDP
 10
196.8500
 20
86.3600
 30
0.0000
 41
1.5080
 42
1.5080
 43
1.0000
 50
90.0000
  0
CIRCLE
  8
44
 10
196.8500
 20
86.3600
 30
0.0000
 40
0.5000
  0
INSERT
  8
17
  2
ROUNDP
 10
194.3100
 20
86.3600
 30
0.0000
 41
1.5080
 42
1.5080
 43
1.0000
 50
90.0000
  0
CIRCLE
  8
44
 10
194.3100
 20
86.3600
 30
0.0000
 40
0.5000
  0
INSERT
  8
17
  2
ROUNDP
 10
196.8500
 20
88.9000
 30
0.0000
 41
1.5080
 42
1.5080
 43
1.0000
 50
90.0000
  0
CIRCLE
  8
44
 10
196.8500
 20
88.9000
 30
0.0000
 40
0.5000
  0
INSERT
  8
17
  2
ROUNDP
 10
194.3100
 20
88.9000
 30
0.0000
 41
1.5080
 42
1.5080
 43
1.0000
 50
90.0000
  0
CIRCLE
  8
44
 10
194.3100
 20
88.9000
 30
0.0000
 40
0.5000
  0
INSERT
  8
17
  2
ROUNDP
 10
196.8500
 20
91.4400
 30
0.0000
 41
1.5080
 42
1.5080
 43
1.0000
 50
90.0000
  0
CIRCLE
  8
44
 10
196.8500
 20
91.4400
 30
0.0000
 40
0.5000
  0
INSERT
  8
17
  2
ROUNDP
 10
194.3100
 20
91.4400
 30
0.0000
 41
1.5080
 42
1.5080
 43
1.0000
 50
90.0000
  0
CIRCLE
  8
44
 10
194.3100
 20
91.4400
 30
0.0000
 40
0.5000
  0
INSERT
  8
17
  2
ROUNDP
 10
196.8500
 20
93.9800
 30
0.0000
 41
1.5080
 42
1.5080
 43
1.0000
 50
90.0000
  0
CIRCLE
  8
44
 10
196.8500
 20
93.9800
 30
0.0000
 40
0.5000
  0
INSERT
  8
17
  2
ROUNDP
 10
194.3100
 20
93.9800
 30
0.0000
 41
1.5080
 42
1.5080
 43
1.0000
 50
90.0000
  0
CIRCLE
  8
44
 10
194.3100
 20
93.9800
 30
0.0000
 40
0.5000
  0
INSERT
  8
17
  2
ROUNDP
 10
196.8500
 20
96.5200
 30
0.0000
 41
1.5080
 42
1.5080
 43
1.0000
 50
90.0000
  0
CIRCLE
  8
44
 10
196.8500
 20
96.5200
 30
0.0000
 40
0.5000
  0
INSERT
  8
17
  2
ROUNDP
 10
194.3100
 20
96.5200
 30
0.0000
 41
1.5080
 42
1.5080
 43
1.0000
 50
90.0000
  0
CIRCLE
  8
44
 10
194.3100
 20
96.5200
 30
0.0000
 40
0.5000
  0
POLYLINE
  8
16
 66
1
 10
0.0000
 20
0.0000
 30
0.0000
 40
0.0000
 41
0.0000
 70
1
  0
VERTEX
  8
16
 10
231.1400
 20
118.1100
 30
0.0000
  0
VERTEX
  8
16
 10
233.6800
 20
118.1100
 30
0.0000
 42
1.0000
  0
VERTEX
  8
16
 10
233.6800
 20
119.3800
 30
0.0000
  0
VERTEX
  8
16
 10
231.1400
 20
119.3800
 30
0.0000
 42
1.0000
  0
SEQEND
  8
0
  0
POLYLINE
  8
16
 66
1
 10
0.0000
 20
0.0000
 30
0.0000
 40
0.0000
 41
0.0000
 70
1
  0
VERTEX
  8
16
 10
233.6800
 20
118.1100
 30
0.0000
  0
VERTEX
  8
16
 10
236.2200
 20
118.1100
 30
0.0000
 42
1.0000
  0
VERTEX
  8
16
 10
236.2200
 20
119.3800
 30
0.0000
  0
VERTEX
  8
16
 10
233.6800
 20
119.3800
 30
0.0000
 42
1.0000
  0
SEQEND
  8
0
  0
POLYLINE
  8
16
 66
1
 10
0.0000
 20
0.0000
 30
0.0000
 40
0.0000
 41
0.0000
 70
1
  0
VERTEX
  8
16
 10
233.0450
 20
129.5400
 30
0.0000
  0
VERTEX
  8
16
 10
233.0450
 20
118.7450
 30
0.0000
 42
1.0000
  0
VERTEX
  8
16
 10
234.3150
 20
118.7450
 30
0.0000
  0
VERTEX
  8
16
 10
234.3150
 20
129.5400
 30
0.0000
 42
1.0000
  0
SEQEND
  8
0
  0
POLYLINE
  8
16
 66
1
 10
0.0000
 20
0.0000
 30
0.0000
 40
0.0000
 41
0.0000
 70
1
  0
VERTEX
  8
16
 10
234.3150
 20
129.5400
 30
0.0000
  0
VERTEX
  8
16
 10
234.3150
 20
132.7150
 30
0.0000
 42
1.0000
  0
VERTEX
  8
16
 10
233.0450
 20
132.7150
 30
0.0000
  0
VERTEX
  8
16
 10
233.0450
 20
129.5400
 30
0.0000
 42
1.0000
  0
SEQEND
  8
0
  0
POLYLINE
  8
16
 66
1
 10
0.0000
 20
0.0000
 30
0.0000
 40
0.0000
 41
0.0000
 70
1
  0
VERTEX
  8
16
 10
234.1290
 20
133.1640
 30
0.0000
  0
VERTEX
  8
16
 10
233.4940
 20
133.7990
 30
0.0000
 42
1.0000
  0
VERTEX
  8
16
 10
232.5960
 20
132.9010
 30
0.0000
  0
VERTEX
  8
16
 10
233.2310
 20
132.2660
 30
0.0000
 42
1.0000
  0
SEQEND
  8
0
  0
POLYLINE
  8
16
 66
1
 10
0.0000
 20
0.0000
 30
0.0000
 40
0.0000
 41
0.0000
 70
1
  0
VERTEX
  8
16
 10
226.2460
 20
133.7990
 30
0.0000
  0
VERTEX
  8
16
 10
223.7060
 20
131.2590
 30
0.0000
 42
1.0000
  0
VERTEX
  8
16
 10
224.6040
 20
130.3610
 30
0.0000
  0
VERTEX
  8
16
 10
227.1440
 20
132.9010
 30
0.0000
 42
1.0000
  0
SEQEND
  8
0
  0
POLYLINE
  8
16
 66
1
 10
0.0000
 20
0.0000
 30
0.0000
 40
0.0000
 41
0.0000
 70
1
  0
VERTEX
  8
16
 10
223.5200
 20
130.8100
 30
0.0000
  0
VERTEX
  8
16
 10
223.5200
 20
127.0000
 30
0.0000
 42
1.0000
  0
VERTEX
  8
16
 10
224.7900
 20
127.0000
 30
0.0000
  0
VERTEX
  8
16
 10
224.7900
 20
130.8100
 30
0.0000
 42
1.0000
  0
SEQEND
  8
0
  0
POLYLINE
  8
16
 66
1
 10
0.0000
 20
0.0000
 30
0.0000
 40
0.0000
 41
0.0000
 70
1
  0
VERTEX
  8
16
 10
233.0450
 20
133.9850
 30
0.0000
  0
VERTEX
  8
16
 10
226.6950
 20
133.9850
 30
0.0000
 42
1.0000
  0
VERTEX
  8
16
 10
226.6950
 20
132.7150
 30
0.0000
  0
VERTEX
  8
16
 10
233.0450
 20
132.7150
 30
0.0000
 42
1.0000
  0
SEQEND
  8
0
  0
POLYLINE
  8
16
 66
1
 10
0.0000
 20
0.0000
 30
0.0000
 40
0.0000
 41
0.0000
 70
1
  0
VERTEX
  8
16
 10
250.6390
 20
123.8788
 30
0.0000
  0
VERTEX
  8
16
 10
252.1790
 20
125.4188
 30
0.0000
 42
1.0000
  0
VERTEX
  8
16
 10
251.2810
 20
126.3168
 30
0.0000
  0
VERTEX
  8
16
 10
249.7410
 20
124.7768
 30
0.0000
 42
1.0000
  0
SEQEND
  8
0
  0
POLYLINE
  8
16
 66
1
 10
0.0000
 20
0.0000
 30
0.0000
 40
0.0000
 41
0.0000
 70
1
  0
VERTEX
  8
16
 10
252.3650
 20
125.8678
 30
0.0000
  0
VERTEX
  8
16
 10
252.3650
 20
133.3500
 30
0.0000
 42
1.0000
  0
VERTEX
  8
16
 10
251.0950
 20
133.3500
 30
0.0000
  0
VERTEX
  8
16
 10
251.0950
 20
125.8678
 30
0.0000
 42
1.0000
  0
SEQEND
  8
0
  0
POLYLINE
  8
16
 66
1
 10
0.0000
 20
0.0000
 30
0.0000
 40
0.0000
 41
0.0000
 70
1
  0
VERTEX
  8
16
 10
252.1790
 20
133.7990
 30
0.0000
  0
VERTEX
  8
16
 10
248.7790
 20
137.1990
 30
0.0000
 42
1.0000
  0
VERTEX
  8
16
 10
247.8810
 20
136.3010
 30
0.0000
  0
VERTEX
  8
16
 10
251.2810
 20
132.9010
 30
0.0000
 42
1.0000
  0
SEQEND
  8
0
  0
POLYLINE
  8
16
 66
1
 10
0.0000
 20
0.0000
 30
0.0000
 40
0.0000
 41
0.0000
 70
1
  0
VERTEX
  8
16
 10
248.9650
 20
136.7500
 30
0.0000
  0
VERTEX
  8
16
 10
248.9650
 20
138.1500
 30
0.0000
 42
1.0000
  0
VERTEX
  8
16
 10
247.6950
 20
138.1500
 30
0.0000
  0
VERTEX
  8
16
 10
247.6950
 20
136.7500
 30
0.0000
 42
1.0000
  0
SEQEND
  8
0
  0
POLYLINE
  8
16
 66
1
 10
0.0000
 20
0.0000
 30
0.0000
 40
0.0000
 41
0.0000
 70
1
  0
VERTEX
  8
16
 10
236.2200
 20
118.1100
 30
0.0000
  0
VERTEX
  8
16
 10
238.7600
 20
118.1100
 30
0.0000
 42
1.0000
  0
VERTEX
  8
16
 10
238.7600
 20
119.3800
 30
0.0000
  0
VERTEX
  8
16
 10
236.2200
 20
119.3800
 30
0.0000
 42
1.0000
  0
SEQEND
  8
0
  0
POLYLINE
  8
16
 66
1
 10
0.0000
 20
0.0000
 30
0.0000
 40
0.0000
 41
0.0000
 70
1
  0
VERTEX
  8
16
 10
242.5700
 20
121.9200
 30
0.0000
  0
VERTEX
  8
16
 10
242.5700
 20
135.8900
 30
0.0000
 42
1.0000
  0
VERTEX
  8
16
 10
241.3000
 20
135.8900
 30
0.0000
  0
VERTEX
  8
16
 10
241.3000
 20
121.9200
 30
0.0000
 42
1.0000
  0
SEQEND
  8
0
  0
POLYLINE
  8
16
 66
1
 10
0.0000
 20
0.0000
 30
0.0000
 40
0.0000
 41
0.0000
 70
1
  0
VERTEX
  8
16
 10
242.3840
 20
135.4410
 30
0.0000
  0
VERTEX
  8
16
 10
244.6440
 20
137.7010
 30
0.0000
 42
1.0000
  0
VERTEX
  8
16
 10
243.7460
 20
138.5990
 30
0.0000
  0
VERTEX
  8
16
 10
241.4860
 20
136.3390
 30
0.0000
 42
1.0000
  0
SEQEND
  8
0
  0
POLYLINE
  8
16
 66
1
 10
0.0000
 20
0.0000
 30
0.0000
 40
0.0000
 41
0.0000
 70
1
  0
VERTEX
  8
16
 10
244.1950
 20
137.5150
 30
0.0000
  0
VERTEX
  8
16
 10
248.3300
 20
137.5150
 30
0.0000
 42
1.0000
  0
VERTEX
  8
16
 10
248.3300
 20
138.7850
 30
0.0000
  0
VERTEX
  8
16
 10
244.1950
 20
138.7850
 30
0.0000
 42
1.0000
  0
SEQEND
  8
0
  0
POLYLINE
  8
16
 66
1
 10
0.0000
 20
0.0000
 30
0.0000
 40
0.0000
 41
0.0000
 70
1
  0
VERTEX
  8
16
 10
239.2090
 20
118.2960
 30
0.0000
  0
VERTEX
  8
16
 10
242.3840
 20
121.4710
 30
0.0000
 42
1.0000
  0
VERTEX
  8
16
 10
241.4860
 20
122.3690
 30
0.0000
  0
VERTEX
  8
16
 10
238.3110
 20
119.1940
 30
0.0000
 42
1.0000
  0
SEQEND
  8
0
  0
POLYLINE
  8
16
 66
1
 10
0.0000
 20
0.0000
 30
0.0000
 40
0.0000
 41
0.0000
 70
1
  0
VERTEX
  8
16
 10
254.0000
 20
109.8550
 30
0.0000
  0
VERTEX
  8
16
 10
251.4600
 20
109.8550
 30
0.0000
 42
1.0000
  0
VERTEX
  8
16
 10
251.4600
 20
108.5850
 30
0.0000
  0
VERTEX
  8
16
 10
254.0000
 20
108.5850
 30
0.0000
 42
1.0000
  0
SEQEND
  8
0
  0
POLYLINE
  8
16
 66
1
 10
0.0000
 20
0.0000
 30
0.0000
 40
0.0000
 41
0.0000
 70
1
  0
VERTEX
  8
16
 10
251.2810
 20
125.4188
 30
0.0000
  0
VERTEX
  8
16
 10
254.8210
 20
121.8788
 30
0.0000
 42
1.0000
  0
VERTEX
  8
16
 10
255.7190
 20
122.7768
 30
0.0000
  0
VERTEX
  8
16
 10
252.1790
 20
126.3168
 30
0.0000
 42
1.0000
  0
SEQEND
  8
0
  0
POLYLINE
  8
16
 66
1
 10
0.0000
 20
0.0000
 30
0.0000
 40
0.0000
 41
0.0000
 70
1
  0
VERTEX
  8
16
 10
254.6350
 20
122.3278
 30
0.0000
  0
VERTEX
  8
16
 10
254.6350
 20
110.4900
 30
0.0000
 42
1.0000
  0
VERTEX
  8
16
 10
255.9050
 20
110.4900
 30
0.0000
  0
VERTEX
  8
16
 10
255.9050
 20
122.3278
 30
0.0000
 42
1.0000
  0
SEQEND
  8
0
  0
POLYLINE
  8
16
 66
1
 10
0.0000
 20
0.0000
 30
0.0000
 40
0.0000
 41
0.0000
 70
1
  0
VERTEX
  8
16
 10
254.8210
 20
110.9390
 30
0.0000
  0
VERTEX
  8
16
 10
253.5510
 20
109.6690
 30
0.0000
 42
1.0000
  0
VERTEX
  8
16
 10
254.4490
 20
108.7710
 30
0.0000
  0
VERTEX
  8
16
 10
255.7190
 20
110.0410
 30
0.0000
 42
1.0000
  0
SEQEND
  8
0
  0
POLYLINE
  8
16
 66
1
 10
0.0000
 20
0.0000
 30
0.0000
 40
0.0000
 41
0.0000
 70
1
  0
VERTEX
  8
16
 10
245.7450
 20
60.9600
 30
0.0000
  0
VERTEX
  8
16
 10
245.7450
 20
70.4850
 30
0.0000
 42
1.0000
  0
VERTEX
  8
16
 10
244.4750
 20
70.4850
 30
0.0000
  0
VERTEX
  8
16
 10
244.4750
 20
60.9600
 30
0.0000
 42
1.0000
  0
SEQEND
  8
0
  0
POLYLINE
  8
16
 66
1
 10
0.0000
 20
0.0000
 30
0.0000
 40
0.0000
 41
0.0000
 70
1
  0
VERTEX
  8
16
 10
245.1100
 20
69.8500
 30
0.0000
  0
VERTEX
  8
16
 10
247.6500
 20
69.8500
 30
0.0000
 42
1.0000
  0
VERTEX
  8
16
 10
247.6500
 20
71.1200
 30
0.0000
  0
VERTEX
  8
16
 10
245.1100
 20
71.1200
 30
0.0000
 42
1.0000
  0
SEQEND
  8
0
  0
POLYLINE
  8
16
 66
1
 10
0.0000
 20
0.0000
 30
0.0000
 40
0.0000
 41
0.0000
 70
1
  0
VERTEX
  8
16
 10
245.1100
 20
71.1200
 30
0.0000
  0
VERTEX
  8
16
 10
242.5700
 20
71.1200
 30
0.0000
 42
1.0000
  0
VERTEX
  8
16
 10
242.5700
 20
69.8500
 30
0.0000
  0
VERTEX
  8
16
 10
245.1100
 20
69.8500
 30
0.0000
 42
1.0000
  0
SEQEND
  8
0
  0
POLYLINE
  8
16
 66
1
 10
0.0000
 20
0.0000
 30
0.0000
 40
0.0000
 41
0.0000
 70
1
  0
VERTEX
  8
16
 10
213.9950
 20
71.1200
 30
0.0000
  0
VERTEX
  8
16
 10
213.9950
 20
62.8650
 30
0.0000
 42
1.0000
  0
VERTEX
  8
16
 10
215.2650
 20
62.8650
 30
0.0000
  0
VERTEX
  8
16
 10
215.2650
 20
71.1200
 30
0.0000
 42
1.0000
  0
SEQEND
  8
0
  0
POLYLINE
  8
16
 66
1
 10
0.0000
 20
0.0000
 30
0.0000
 40
0.0000
 41
0.0000
 70
1
  0
VERTEX
  8
16
 10
213.9950
 20
97.7900
 30
0.0000
  0
VERTEX
  8
16
 10
213.9950
 20
92.7100
 30
0.0000
 42
1.0000
  0
VERTEX
  8
16
 10
215.2650
 20
92.7100
 30
0.0000
  0
VERTEX
  8
16
 10
215.2650
 20
97.7900
 30
0.0000
 42
1.0000
  0
SEQEND
  8
0
  0
POLYLINE
  8
16
 66
1
 10
0.0000
 20
0.0000
 30
0.0000
 40
0.0000
 41
0.0000
 70
1
  0
VERTEX
  8
16
 10
215.2650
 20
127.6350
 30
0.0000
  0
VERTEX
  8
16
 10
215.2650
 20
129.5400
 30
0.0000
 42
1.0000
  0
VERTEX
  8
16
 10
213.9950
 20
129.5400
 30
0.0000
  0
VERTEX
  8
16
 10
213.9950
 20
127.6350
 30
0.0000
 42
1.0000
  0
SEQEND
  8
0
  0
POLYLINE
  8
16
 66
1
 10
0.0000
 20
0.0000
 30
0.0000
 40
0.0000
 41
0.0000
 70
1
  0
VERTEX
  8
16
 10
215.0790
 20
129.0910
 30
0.0000
  0
VERTEX
  8
16
 10
223.9690
 20
137.9810
 30
0.0000
 42
1.0000
  0
VERTEX
  8
16
 10
223.0710
 20
138.8790
 30
0.0000
  0
VERTEX
  8
16
 10
214.1810
 20
129.9890
 30
0.0000
 42
1.0000
  0
SEQEND
  8
0
  0
POLYLINE
  8
16
 66
1
 10
0.0000
 20
0.0000
 30
0.0000
 40
0.0000
 41
0.0000
 70
1
  0
VERTEX
  8
16
 10
223.5200
 20
137.7950
 30
0.0000
  0
VERTEX
  8
16
 10
239.3950
 20
137.7950
 30
0.0000
 42
1.0000
  0
VERTEX
  8
16
 10
239.3950
 20
139.0650
 30
0.0000
  0
VERTEX
  8
16
 10
223.5200
 20
139.0650
 30
0.0000
 42
1.0000
  0
SEQEND
  8
0
  0
POLYLINE
  8
16
 66
1
 10
0.0000
 20
0.0000
 30
0.0000
 40
0.0000
 41
0.0000
 70
1
  0
VERTEX
  8
16
 10
238.9460
 20
137.9810
 30
0.0000
  0
VERTEX
  8
16
 10
241.4860
 20
135.4410
 30
0.0000
 42
1.0000
  0
VERTEX
  8
16
 10
242.3840
 20
136.3390
 30
0.0000
  0
VERTEX
  8
16
 10
239.8440
 20
138.8790
 30
0.0000
 42
1.0000
  0
SEQEND
  8
0
  0
INSERT
  8
18
  2
ROUNDV
 10
214.6300
 20
92.7100
 30
0.0000
 41
1.7780
 42
1.7780
 43
1.0000
 50
0.0000
  0
CIRCLE
  8
44
 10
214.6300
 20
92.7100
 30
0.0000
 40
0.1750
  0
POLYLINE
  8
16
 66
1
 10
0.0000
 20
0.0000
 30
0.0000
 40
0.0000
 41
0.0000
 70
1
  0
VERTEX
  8
16
 10
194.7590
 20
111.9460
 30
0.0000
  0
VERTEX
  8
16
 10
196.6640
 20
113.8510
 30
0.0000
 42
1.0000
  0
VERTEX
  8
16
 10
195.7660
 20
114.7490
 30
0.0000
  0
VERTEX
  8
16
 10
193.8610
 20
112.8440
 30
0.0000
 42
1.0000
  0
SEQEND
  8
0
  0
POLYLINE
  8
16
 66
1
 10
0.0000
 20
0.0000
 30
0.0000
 40
0.0000
 41
0.0000
 70
1
  0
VERTEX
  8
16
 10
196.2150
 20
113.6650
 30
0.0000
  0
VERTEX
  8
16
 10
215.9000
 20
113.6650
 30
0.0000
 42
1.0000
  0
VERTEX
  8
16
 10
215.9000
 20
114.9350
 30
0.0000
  0
VERTEX
  8
16
 10
196.2150
 20
114.9350
 30
0.0000
 42
1.0000
  0
SEQEND
  8
0
  0
POLYLINE
  8
16
 66
1
 10
0.0000
 20
0.0000
 30
0.0000
 40
0.0000
 41
0.0000
 70
1
  0
VERTEX
  8
16
 10
215.4510
 20
113.8510
 30
0.0000
  0
VERTEX
  8
16
 10
216.7210
 20
112.5810
 30
0.0000
 42
1.0000
  0
VERTEX
  8
16
 10
217.6190
 20
113.4790
 30
0.0000
  0
VERTEX
  8
16
 10
216.3490
 20
114.7490
 30
0.0000
 42
1.0000
  0
SEQEND
  8
0
  0
POLYLINE
  8
16
 66
1
 10
0.0000
 20
0.0000
 30
0.0000
 40
0.0000
 41
0.0000
 70
1
  0
VERTEX
  8
16
 10
194.9450
 20
96.5200
 30
0.0000
  0
VERTEX
  8
16
 10
194.9450
 20
112.3950
 30
0.0000
 42
1.0000
  0
VERTEX
  8
16
 10
193.6750
 20
112.3950
 30
0.0000
  0
VERTEX
  8
16
 10
193.6750
 20
96.5200
 30
0.0000
 42
1.0000
  0
SEQEND
  8
0
  0
POLYLINE
  8
16
 66
1
 10
0.0000
 20
0.0000
 30
0.0000
 40
0.0000
 41
0.0000
 70
1
  0
VERTEX
  8
16
 10
216.5350
 20
113.0300
 30
0.0000
  0
VERTEX
  8
16
 10
216.5350
 20
105.4100
 30
0.0000
 42
1.0000
  0
VERTEX
  8
16
 10
217.8050
 20
105.4100
 30
0.0000
  0
VERTEX
  8
16
 10
217.8050
 20
113.0300
 30
0.0000
 42
1.0000
  0
SEQEND
  8
0
  0
POLYLINE
  8
16
 66
1
 10
0.0000
 20
0.0000
 30
0.0000
 40
0.0000
 41
0.0000
 70
1
  0
VERTEX
  8
16
 10
201.9300
 20
83.8200
 30
0.0000
  0
VERTEX
  8
16
 10
210.8200
 20
83.8200
 30
0.0000
 42
1.0000
  0
VERTEX
  8
16
 10
210.8200
 20
85.0900
 30
0.0000
  0
VERTEX
  8
16
 10
201.9300
 20
85.0900
 30
0.0000
 42
1.0000
  0
SEQEND
  8
0
  0
POLYLINE
  8
16
 66
1
 10
0.0000
 20
0.0000
 30
0.0000
 40
0.0000
 41
0.0000
 70
1
  0
VERTEX
  8
16
 10
210.3710
 20
84.0060
 30
0.0000
  0
VERTEX
  8
16
 10
211.6410
 20
82.7360
 30
0.0000
 42
1.0000
  0
VERTEX
  8
16
 10
212.5390
 20
83.6340
 30
0.0000
  0
VERTEX
  8
16
 10
211.2690
 20
84.9040
 30
0.0000
 42
1.0000
  0
SEQEND
  8
0
  0
POLYLINE
  8
16
 66
1
 10
0.0000
 20
0.0000
 30
0.0000
 40
0.0000
 41
0.0000
 70
1
  0
VERTEX
  8
16
 10
211.4550
 20
83.1850
 30
0.0000
  0
VERTEX
  8
16
 10
211.4550
 20
78.7400
 30
0.0000
 42
1.0000
  0
VERTEX
  8
16
 10
212.7250
 20
78.7400
 30
0.0000
  0
VERTEX
  8
16
 10
212.7250
 20
83.1850
 30
0.0000
 42
1.0000
  0
SEQEND
  8
0
  0
POLYLINE
  8
16
 66
1
 10
0.0000
 20
0.0000
 30
0.0000
 40
0.0000
 41
0.0000
 70
1
  0
VERTEX
  8
16
 10
196.8500
 20
85.7250
 30
0.0000
  0
VERTEX
  8
16
 10
200.0250
 20
85.7250
 30
0.0000
 42
1.0000
  0
VERTEX
  8
16
 10
200.0250
 20
86.9950
 30
0.0000
  0
VERTEX
  8
16
 10
196.8500
 20
86.9950
 30
0.0000
 42
1.0000
  0
SEQEND
  8
0
  0
POLYLINE
  8
16
 66
1
 10
0.0000
 20
0.0000
 30
0.0000
 40
0.0000
 41
0.0000
 70
1
  0
VERTEX
  8
16
 10
199.5760
 20
85.9110
 30
0.0000
  0
VERTEX
  8
16
 10
201.4810
 20
84.0060
 30
0.0000
 42
1.0000
  0
VERTEX
  8
16
 10
202.3790
 20
84.9040
 30
0.0000
  0
VERTEX
  8
16
 10
200.4740
 20
86.8090
 30
0.0000
 42
1.0000
  0
SEQEND
  8
0
  0
POLYLINE
  8
16
 66
1
 10
0.0000
 20
0.0000
 30
0.0000
 40
0.0000
 41
0.0000
 70
1
  0
VERTEX
  8
16
 10
234.1290
 20
99.5090
 30
0.0000
  0
VERTEX
  8
16
 10
232.8590
 20
100.7790
 30
0.0000
 42
1.0000
  0
VERTEX
  8
16
 10
231.9610
 20
99.8810
 30
0.0000
  0
VERTEX
  8
16
 10
233.2310
 20
98.6110
 30
0.0000
 42
1.0000
  0
SEQEND
  8
0
  0
POLYLINE
  8
16
 66
1
 10
0.0000
 20
0.0000
 30
0.0000
 40
0.0000
 41
0.0000
 70
1
  0
VERTEX
  8
16
 10
233.0450
 20
100.3300
 30
0.0000
  0
VERTEX
  8
16
 10
233.0450
 20
102.2350
 30
0.0000
 42
1.0000
  0
VERTEX
  8
16
 10
231.7750
 20
102.2350
 30
0.0000
  0
VERTEX
  8
16
 10
231.7750
 20
100.3300
 30
0.0000
 42
1.0000
  0
SEQEND
  8
0
  0
POLYLINE
  8
16
 66
1
 10
0.0000
 20
0.0000
 30
0.0000
 40
0.0000
 41
0.0000
 70
1
  0
VERTEX
  8
16
 10
232.8590
 20
102.6840
 30
0.0000
  0
VERTEX
  8
16
 10
224.6040
 20
110.9390
 30
0.0000
 42
1.0000
  0
VERTEX
  8
16
 10
223.7060
 20
110.0410
 30
0.0000
  0
VERTEX
  8
16
 10
231.9610
 20
101.7860
 30
0.0000
 42
1.0000
  0
SEQEND
  8
0
  0
POLYLINE
  8
16
 66
1
 10
0.0000
 20
0.0000
 30
0.0000
 40
0.0000
 41
0.0000
 70
1
  0
VERTEX
  8
16
 10
224.7900
 20
110.4900
 30
0.0000
  0
VERTEX
  8
16
 10
224.7900
 20
121.9200
 30
0.0000
 42
1.0000
  0
VERTEX
  8
16
 10
223.5200
 20
121.9200
 30
0.0000
  0
VERTEX
  8
16
 10
223.5200
 20
110.4900
 30
0.0000
 42
1.0000
  0
SEQEND
  8
0
  0
POLYLINE
  8
16
 66
1
 10
0.0000
 20
0.0000
 30
0.0000
 40
0.0000
 41
0.0000
 70
1
  0
VERTEX
  8
16
 10
236.2200
 20
99.6950
 30
0.0000
  0
VERTEX
  8
16
 10
233.6800
 20
99.6950
 30
0.0000
 42
1.0000
  0
VERTEX
  8
16
 10
233.6800
 20
98.4250
 30
0.0000
  0
VERTEX
  8
16
 10
236.2200
 20
98.4250
 30
0.0000
 42
1.0000
  0
SEQEND
  8
0
  0
POLYLINE
  8
16
 66
1
 10
0.0000
 20
0.0000
 30
0.0000
 40
0.0000
 41
0.0000
 70
1
  0
VERTEX
  8
16
 10
196.8500
 20
83.1850
 30
0.0000
  0
VERTEX
  8
16
 10
198.1200
 20
83.1850
 30
0.0000
 42
1.0000
  0
VERTEX
  8
16
 10
198.1200
 20
84.4550
 30
0.0000
  0
VERTEX
  8
16
 10
196.8500
 20
84.4550
 30
0.0000
 42
1.0000
  0
SEQEND
  8
0
  0
POLYLINE
  8
16
 66
1
 10
0.0000
 20
0.0000
 30
0.0000
 40
0.0000
 41
0.0000
 70
1
  0
VERTEX
  8
16
 10
198.9410
 20
64.9560
 30
0.0000
  0
VERTEX
  8
16
 10
201.4810
 20
62.4160
 30
0.0000
 42
1.0000
  0
VERTEX
  8
16
 10
202.3790
 20
63.3140
 30
0.0000
  0
VERTEX
  8
16
 10
199.8390
 20
65.8540
 30
0.0000
 42
1.0000
  0
SEQEND
  8
0
  0
POLYLINE
  8
16
 66
1
 10
0.0000
 20
0.0000
 30
0.0000
 40
0.0000
 41
0.0000
 70
1
  0
VERTEX
  8
16
 10
201.9300
 20
62.2300
 30
0.0000
  0
VERTEX
  8
16
 10
210.8200
 20
62.2300
 30
0.0000
 42
1.0000
  0
VERTEX
  8
16
 10
210.8200
 20
63.5000
 30
0.0000
  0
VERTEX
  8
16
 10
201.9300
 20
63.5000
 30
0.0000
 42
1.0000
  0
SEQEND
  8
0
  0
POLYLINE
  8
16
 66
1
 10
0.0000
 20
0.0000
 30
0.0000
 40
0.0000
 41
0.0000
 70
1
  0
VERTEX
  8
16
 10
211.2690
 20
62.4160
 30
0.0000
  0
VERTEX
  8
16
 10
212.5390
 20
63.6860
 30
0.0000
 42
1.0000
  0
VERTEX
  8
16
 10
211.6410
 20
64.5840
 30
0.0000
  0
VERTEX
  8
16
 10
210.3710
 20
63.3140
 30
0.0000
 42
1.0000
  0
SEQEND
  8
0
  0
POLYLINE
  8
16
 66
1
 10
0.0000
 20
0.0000
 30
0.0000
 40
0.0000
 41
0.0000
 70
1
  0
VERTEX
  8
16
 10
212.7250
 20
64.1350
 30
0.0000
  0
VERTEX
  8
16
 10
212.7250
 20
71.1200
 30
0.0000
 42
1.0000
  0
VERTEX
  8
16
 10
211.4550
 20
71.1200
 30
0.0000
  0
VERTEX
  8
16
 10
211.4550
 20
64.1350
 30
0.0000
 42
1.0000
  0
SEQEND
  8
0
  0
POLYLINE
  8
16
 66
1
 10
0.0000
 20
0.0000
 30
0.0000
 40
0.0000
 41
0.0000
 70
1
  0
VERTEX
  8
16
 10
197.6710
 20
83.3710
 30
0.0000
  0
VERTEX
  8
16
 10
198.9410
 20
82.1010
 30
0.0000
 42
1.0000
  0
VERTEX
  8
16
 10
199.8390
 20
82.9990
 30
0.0000
  0
VERTEX
  8
16
 10
198.5690
 20
84.2690
 30
0.0000
 42
1.0000
  0
SEQEND
  8
0
  0
POLYLINE
  8
16
 66
1
 10
0.0000
 20
0.0000
 30
0.0000
 40
0.0000
 41
0.0000
 70
1
  0
VERTEX
  8
16
 10
198.7550
 20
82.5500
 30
0.0000
  0
VERTEX
  8
16
 10
198.7550
 20
65.4050
 30
0.0000
 42
1.0000
  0
VERTEX
  8
16
 10
200.0250
 20
65.4050
 30
0.0000
  0
VERTEX
  8
16
 10
200.0250
 20
82.5500
 30
0.0000
 42
1.0000
  0
SEQEND
  8
0
  0
POLYLINE
  8
16
 66
1
 10
0.0000
 20
0.0000
 30
0.0000
 40
0.0000
 41
0.0000
 70
1
  0
VERTEX
  8
16
 10
208.8350
 20
134.6200
 30
0.0000
  0
VERTEX
  8
16
 10
214.6300
 20
134.6200
 30
0.0000
 42
1.0000
  0
VERTEX
  8
16
 10
214.6300
 20
135.8900
 30
0.0000
  0
VERTEX
  8
16
 10
208.8350
 20
135.8900
 30
0.0000
 42
1.0000
  0
SEQEND
  8
0
  0
POLYLINE
  8
16
 66
1
 10
0.0000
 20
0.0000
 30
0.0000
 40
0.0000
 41
0.0000
 70
1
  0
VERTEX
  8
16
 10
198.8350
 20
135.8900
 30
0.0000
  0
VERTEX
  8
16
 10
193.0400
 20
135.8900
 30
0.0000
 42
1.0000
  0
VERTEX
  8
16
 10
193.0400
 20
134.6200
 30
0.0000
  0
VERTEX
  8
16
 10
198.8350
 20
134.6200
 30
0.0000
 42
1.0000
  0
SEQEND
  8
0
  0
POLYLINE
  8
16
 66
1
 10
0.0000
 20
0.0000
 30
0.0000
 40
0.0000
 41
0.0000
 70
1
  0
VERTEX
  8
16
 10
220.3450
 20
78.7400
 30
0.0000
  0
VERTEX
  8
16
 10
220.3450
 20
81.9150
 30
0.0000
 42
1.0000
  0
VERTEX
  8
16
 10
219.0750
 20
81.9150
 30
0.0000
  0
VERTEX
  8
16
 10
219.0750
 20
78.7400
 30
0.0000
 42
1.0000
  0
SEQEND
  8
0
  0
POLYLINE
  8
16
 66
1
 10
0.0000
 20
0.0000
 30
0.0000
 40
0.0000
 41
0.0000
 70
1
  0
VERTEX
  8
16
 10
220.3450
 20
81.9150
 30
0.0000
  0
VERTEX
  8
16
 10
220.3450
 20
97.7900
 30
0.0000
 42
1.0000
  0
VERTEX
  8
16
 10
219.0750
 20
97.7900
 30
0.0000
  0
VERTEX
  8
16
 10
219.0750
 20
81.9150
 30
0.0000
 42
1.0000
  0
SEQEND
  8
0
  0
POLYLINE
  8
16
 66
1
 10
0.0000
 20
0.0000
 30
0.0000
 40
0.0000
 41
0.0000
 70
1
  0
VERTEX
  8
16
 10
210.1850
 20
78.7400
 30
0.0000
  0
VERTEX
  8
16
 10
210.1850
 20
80.6450
 30
0.0000
 42
1.0000
  0
VERTEX
  8
16
 10
208.9150
 20
80.6450
 30
0.0000
  0
VERTEX
  8
16
 10
208.9150
 20
78.7400
 30
0.0000
 42
1.0000
  0
SEQEND
  8
0
  0
POLYLINE
  8
16
 66
1
 10
0.0000
 20
0.0000
 30
0.0000
 40
0.0000
 41
0.0000
 70
1
  0
VERTEX
  8
16
 10
209.9990
 20
81.0940
 30
0.0000
  0
VERTEX
  8
16
 10
208.7290
 20
82.3640
 30
0.0000
 42
1.0000
  0
VERTEX
  8
16
 10
207.8310
 20
81.4660
 30
0.0000
  0
VERTEX
  8
16
 10
209.1010
 20
80.1960
 30
0.0000
 42
1.0000
  0
SEQEND
  8
0
  0
POLYLINE
  8
16
 66
1
 10
0.0000
 20
0.0000
 30
0.0000
 40
0.0000
 41
0.0000
 70
1
  0
VERTEX
  8
16
 10
208.2800
 20
82.5500
 30
0.0000
  0
VERTEX
  8
16
 10
205.1050
 20
82.5500
 30
0.0000
 42
1.0000
  0
VERTEX
  8
16
 10
205.1050
 20
81.2800
 30
0.0000
  0
VERTEX
  8
16
 10
208.2800
 20
81.2800
 30
0.0000
 42
1.0000
  0
SEQEND
  8
0
  0
POLYLINE
  8
16
 66
1
 10
0.0000
 20
0.0000
 30
0.0000
 40
0.0000
 41
0.0000
 70
1
  0
VERTEX
  8
16
 10
204.6560
 20
82.3640
 30
0.0000
  0
VERTEX
  8
16
 10
202.7510
 20
80.4590
 30
0.0000
 42
1.0000
  0
VERTEX
  8
16
 10
203.6490
 20
79.5610
 30
0.0000
  0
VERTEX
  8
16
 10
205.5540
 20
81.4660
 30
0.0000
 42
1.0000
  0
SEQEND
  8
0
  0
POLYLINE
  8
16
 66
1
 10
0.0000
 20
0.0000
 30
0.0000
 40
0.0000
 41
0.0000
 70
1
  0
VERTEX
  8
16
 10
205.1050
 20
64.7700
 30
0.0000
  0
VERTEX
  8
16
 10
208.2800
 20
64.7700
 30
0.0000
 42
1.0000
  0
VERTEX
  8
16
 10
208.2800
 20
66.0400
 30
0.0000
  0
VERTEX
  8
16
 10
205.1050
 20
66.0400
 30
0.0000
 42
1.0000
  0
SEQEND
  8
0
  0
POLYLINE
  8
16
 66
1
 10
0.0000
 20
0.0000
 30
0.0000
 40
0.0000
 41
0.0000
 70
1
  0
VERTEX
  8
16
 10
208.7290
 20
64.9560
 30
0.0000
  0
VERTEX
  8
16
 10
209.9990
 20
66.2260
 30
0.0000
 42
1.0000
  0
VERTEX
  8
16
 10
209.1010
 20
67.1240
 30
0.0000
  0
VERTEX
  8
16
 10
207.8310
 20
65.8540
 30
0.0000
 42
1.0000
  0
SEQEND
  8
0
  0
POLYLINE
  8
16
 66
1
 10
0.0000
 20
0.0000
 30
0.0000
 40
0.0000
 41
0.0000
 70
1
  0
VERTEX
  8
16
 10
210.1850
 20
66.6750
 30
0.0000
  0
VERTEX
  8
16
 10
210.1850
 20
71.1200
 30
0.0000
 42
1.0000
  0
VERTEX
  8
16
 10
208.9150
 20
71.1200
 30
0.0000
  0
VERTEX
  8
16
 10
208.9150
 20
66.6750
 30
0.0000
 42
1.0000
  0
SEQEND
  8
0
  0
POLYLINE
  8
16
 66
1
 10
0.0000
 20
0.0000
 30
0.0000
 40
0.0000
 41
0.0000
 70
1
  0
VERTEX
  8
16
 10
202.5650
 20
80.0100
 30
0.0000
  0
VERTEX
  8
16
 10
202.5650
 20
67.3100
 30
0.0000
 42
1.0000
  0
VERTEX
  8
16
 10
203.8350
 20
67.3100
 30
0.0000
  0
VERTEX
  8
16
 10
203.8350
 20
80.0100
 30
0.0000
 42
1.0000
  0
SEQEND
  8
0
  0
POLYLINE
  8
16
 66
1
 10
0.0000
 20
0.0000
 30
0.0000
 40
0.0000
 41
0.0000
 70
1
  0
VERTEX
  8
16
 10
202.7510
 20
66.8610
 30
0.0000
  0
VERTEX
  8
16
 10
204.6560
 20
64.9560
 30
0.0000
 42
1.0000
  0
VERTEX
  8
16
 10
205.5540
 20
65.8540
 30
0.0000
  0
VERTEX
  8
16
 10
203.6490
 20
67.7590
 30
0.0000
 42
1.0000
  0
SEQEND
  8
0
  0
POLYLINE
  8
16
 66
1
 10
0.0000
 20
0.0000
 30
0.0000
 40
0.0000
 41
0.0000
 70
1
  0
VERTEX
  8
16
 10
208.9150
 20
97.7900
 30
0.0000
  0
VERTEX
  8
16
 10
208.9150
 20
95.8850
 30
0.0000
 42
1.0000
  0
VERTEX
  8
16
 10
210.1850
 20
95.8850
 30
0.0000
  0
VERTEX
  8
16
 10
210.1850
 20
97.7900
 30
0.0000
 42
1.0000
  0
SEQEND
  8
0
  0
POLYLINE
  8
16
 66
1
 10
0.0000
 20
0.0000
 30
0.0000
 40
0.0000
 41
0.0000
 70
1
  0
VERTEX
  8
16
 10
209.1010
 20
96.3340
 30
0.0000
  0
VERTEX
  8
16
 10
207.8310
 20
95.0640
 30
0.0000
 42
1.0000
  0
VERTEX
  8
16
 10
208.7290
 20
94.1660
 30
0.0000
  0
VERTEX
  8
16
 10
209.9990
 20
95.4360
 30
0.0000
 42
1.0000
  0
SEQEND
  8
0
  0
POLYLINE
  8
16
 66
1
 10
0.0000
 20
0.0000
 30
0.0000
 40
0.0000
 41
0.0000
 70
1
  0
VERTEX
  8
16
 10
208.2800
 20
95.2500
 30
0.0000
  0
VERTEX
  8
16
 10
204.4700
 20
95.2500
 30
0.0000
 42
1.0000
  0
VERTEX
  8
16
 10
204.4700
 20
93.9800
 30
0.0000
  0
VERTEX
  8
16
 10
208.2800
 20
93.9800
 30
0.0000
 42
1.0000
  0
SEQEND
  8
0
  0
POLYLINE
  8
16
 66
1
 10
0.0000
 20
0.0000
 30
0.0000
 40
0.0000
 41
0.0000
 70
1
  0
VERTEX
  8
16
 10
204.9190
 20
95.0640
 30
0.0000
  0
VERTEX
  8
16
 10
203.6490
 20
96.3340
 30
0.0000
 42
1.0000
  0
VERTEX
  8
16
 10
202.7510
 20
95.4360
 30
0.0000
  0
VERTEX
  8
16
 10
204.0210
 20
94.1660
 30
0.0000
 42
1.0000
  0
SEQEND
  8
0
  0
POLYLINE
  8
16
 66
1
 10
0.0000
 20
0.0000
 30
0.0000
 40
0.0000
 41
0.0000
 70
1
  0
VERTEX
  8
16
 10
203.6490
 20
106.8660
 30
0.0000
  0
VERTEX
  8
16
 10
206.1890
 20
109.4060
 30
0.0000
 42
1.0000
  0
VERTEX
  8
16
 10
205.2910
 20
110.3040
 30
0.0000
  0
VERTEX
  8
16
 10
202.7510
 20
107.7640
 30
0.0000
 42
1.0000
  0
SEQEND
  8
0
  0
POLYLINE
  8
16
 66
1
 10
0.0000
 20
0.0000
 30
0.0000
 40
0.0000
 41
0.0000
 70
1
  0
VERTEX
  8
16
 10
205.7400
 20
109.2200
 30
0.0000
  0
VERTEX
  8
16
 10
208.2800
 20
109.2200
 30
0.0000
 42
1.0000
  0
VERTEX
  8
16
 10
208.2800
 20
110.4900
 30
0.0000
  0
VERTEX
  8
16
 10
205.7400
 20
110.4900
 30
0.0000
 42
1.0000
  0
SEQEND
  8
0
  0
POLYLINE
  8
16
 66
1
 10
0.0000
 20
0.0000
 30
0.0000
 40
0.0000
 41
0.0000
 70
1
  0
VERTEX
  8
16
 10
207.8310
 20
109.4060
 30
0.0000
  0
VERTEX
  8
16
 10
209.1010
 20
108.1360
 30
0.0000
 42
1.0000
  0
VERTEX
  8
16
 10
209.9990
 20
109.0340
 30
0.0000
  0
VERTEX
  8
16
 10
208.7290
 20
110.3040
 30
0.0000
 42
1.0000
  0
SEQEND
  8
0
  0
POLYLINE
  8
16
 66
1
 10
0.0000
 20
0.0000
 30
0.0000
 40
0.0000
 41
0.0000
 70
1
  0
VERTEX
  8
16
 10
208.9150
 20
108.5850
 30
0.0000
  0
VERTEX
  8
16
 10
208.9150
 20
105.4100
 30
0.0000
 42
1.0000
  0
VERTEX
  8
16
 10
210.1850
 20
105.4100
 30
0.0000
  0
VERTEX
  8
16
 10
210.1850
 20
108.5850
 30
0.0000
 42
1.0000
  0
SEQEND
  8
0
  0
POLYLINE
  8
16
 66
1
 10
0.0000
 20
0.0000
 30
0.0000
 40
0.0000
 41
0.0000
 70
1
  0
VERTEX
  8
16
 10
203.8350
 20
95.8850
 30
0.0000
  0
VERTEX
  8
16
 10
203.8350
 20
96.5200
 30
0.0000
 42
1.0000
  0
VERTEX
  8
16
 10
202.5650
 20
96.5200
 30
0.0000
  0
VERTEX
  8
16
 10
202.5650
 20
95.8850
 30
0.0000
 42
1.0000
  0
SEQEND
  8
0
  0
POLYLINE
  8
16
 66
1
 10
0.0000
 20
0.0000
 30
0.0000
 40
0.0000
 41
0.0000
 70
1
  0
VERTEX
  8
16
 10
203.8350
 20
96.5200
 30
0.0000
  0
VERTEX
  8
16
 10
203.8350
 20
107.3150
 30
0.0000
 42
1.0000
  0
VERTEX
  8
16
 10
202.5650
 20
107.3150
 30
0.0000
  0
VERTEX
  8
16
 10
202.5650
 20
96.5200
 30
0.0000
 42
1.0000
  0
SEQEND
  8
0
  0
POLYLINE
  8
16
 66
1
 10
0.0000
 20
0.0000
 30
0.0000
 40
0.0000
 41
0.0000
 70
1
  0
VERTEX
  8
16
 10
219.0750
 20
71.1200
 30
0.0000
  0
VERTEX
  8
16
 10
219.0750
 20
65.4050
 30
0.0000
 42
1.0000
  0
VERTEX
  8
16
 10
220.3450
 20
65.4050
 30
0.0000
  0
VERTEX
  8
16
 10
220.3450
 20
71.1200
 30
0.0000
 42
1.0000
  0
SEQEND
  8
0
  0
POLYLINE
  8
16
 66
1
 10
0.0000
 20
0.0000
 30
0.0000
 40
0.0000
 41
0.0000
 70
1
  0
VERTEX
  8
16
 10
203.2000
 20
135.2550
 30
0.0000
  0
VERTEX
  8
16
 10
203.2000
 20
128.2700
 30
0.0000
 42
1.0000
  0
VERTEX
  8
16
 10
204.4700
 20
128.2700
 30
0.0000
  0
VERTEX
  8
16
 10
204.4700
 20
135.2550
 30
0.0000
 42
1.0000
  0
SEQEND
  8
0
  0
POLYLINE
  8
16
 66
1
 10
0.0000
 20
0.0000
 30
0.0000
 40
0.0000
 41
0.0000
 70
1
  0
VERTEX
  8
16
 10
203.3860
 20
127.8210
 30
0.0000
  0
VERTEX
  8
16
 10
204.6560
 20
126.5510
 30
0.0000
 42
1.0000
  0
VERTEX
  8
16
 10
205.5540
 20
127.4490
 30
0.0000
  0
VERTEX
  8
16
 10
204.2840
 20
128.7190
 30
0.0000
 42
1.0000
  0
SEQEND
  8
0
  0
POLYLINE
  8
16
 66
1
 10
0.0000
 20
0.0000
 30
0.0000
 40
0.0000
 41
0.0000
 70
1
  0
VERTEX
  8
16
 10
209.1010
 20
126.5510
 30
0.0000
  0
VERTEX
  8
16
 10
219.2610
 20
116.3910
 30
0.0000
 42
1.0000
  0
VERTEX
  8
16
 10
220.1590
 20
117.2890
 30
0.0000
  0
VERTEX
  8
16
 10
209.9990
 20
127.4490
 30
0.0000
 42
1.0000
  0
SEQEND
  8
0
  0
POLYLINE
  8
16
 66
1
 10
0.0000
 20
0.0000
 30
0.0000
 40
0.0000
 41
0.0000
 70
1
  0
VERTEX
  8
16
 10
205.1050
 20
126.3650
 30
0.0000
  0
VERTEX
  8
16
 10
209.5500
 20
126.3650
 30
0.0000
 42
1.0000
  0
VERTEX
  8
16
 10
209.5500
 20
127.6350
 30
0.0000
  0
VERTEX
  8
16
 10
205.1050
 20
127.6350
 30
0.0000
 42
1.0000
  0
SEQEND
  8
0
  0
POLYLINE
  8
16
 66
1
 10
0.0000
 20
0.0000
 30
0.0000
 40
0.0000
 41
0.0000
 70
1
  0
VERTEX
  8
16
 10
219.0750
 20
116.8400
 30
0.0000
  0
VERTEX
  8
16
 10
219.0750
 20
105.4100
 30
0.0000
 42
1.0000
  0
VERTEX
  8
16
 10
220.3450
 20
105.4100
 30
0.0000
  0
VERTEX
  8
16
 10
220.3450
 20
116.8400
 30
0.0000
 42
1.0000
  0
SEQEND
  8
0
  0
INSERT
  8
18
  2
ROUNDV
 10
203.2000
 20
96.5200
 30
0.0000
 41
1.7780
 42
1.7780
 43
1.0000
 50
0.0000
  0
CIRCLE
  8
44
 10
203.2000
 20
96.5200
 30
0.0000
 40
0.1750
  0
INSERT
  8
18
  2
ROUNDV
 10
203.2000
 20
80.0100
 30
0.0000
 41
1.7780
 42
1.7780
 43
1.0000
 50
0.0000
  0
CIRCLE
  8
44
 10
203.2000
 20
80.0100
 30
0.0000
 40
0.1750
  0
INSERT
  8
18
  2
ROUNDV
 10
208.2800
 20
109.8550
 30
0.0000
 41
1.7780
 42
1.7780
 43
1.0000
 50
0.0000
  0
CIRCLE
  8
44
 10
208.2800
 20
109.8550
 30
0.0000
 40
0.1750
  0
INSERT
  8
18
  2
ROUNDV
 10
208.2800
 20
65.4050
 30
0.0000
 41
1.7780
 42
1.7780
 43
1.0000
 50
0.0000
  0
CIRCLE
  8
44
 10
208.2800
 20
65.4050
 30
0.0000
 40
0.1750
  0
INSERT
  8
18
  2
ROUNDV
 10
208.2800
 20
81.9150
 30
0.0000
 41
1.7780
 42
1.7780
 43
1.0000
 50
0.0000
  0
CIRCLE
  8
44
 10
208.2800
 20
81.9150
 30
0.0000
 40
0.1750
  0
INSERT
  8
18
  2
ROUNDV
 10
219.7100
 20
81.9150
 30
0.0000
 41
1.7780
 42
1.7780
 43
1.0000
 50
0.0000
  0
CIRCLE
  8
44
 10
219.7100
 20
81.9150
 30
0.0000
 40
0.1750
  0
POLYLINE
  8
16
 66
1
 10
0.0000
 20
0.0000
 30
0.0000
 40
0.0000
 41
0.0000
 70
1
  0
VERTEX
  8
16
 10
229.4210
 20
97.3410
 30
0.0000
  0
VERTEX
  8
16
 10
230.6910
 20
96.0710
 30
0.0000
 42
1.0000
  0
VERTEX
  8
16
 10
231.5890
 20
96.9690
 30
0.0000
  0
VERTEX
  8
16
 10
230.3190
 20
98.2390
 30
0.0000
 42
1.0000
  0
SEQEND
  8
0
  0
POLYLINE
  8
16
 66
1
 10
0.0000
 20
0.0000
 30
0.0000
 40
0.0000
 41
0.0000
 70
1
  0
VERTEX
  8
16
 10
231.1400
 20
95.8850
 30
0.0000
  0
VERTEX
  8
16
 10
236.2200
 20
95.8850
 30
0.0000
 42
1.0000
  0
VERTEX
  8
16
 10
236.2200
 20
97.1550
 30
0.0000
  0
VERTEX
  8
16
 10
231.1400
 20
97.1550
 30
0.0000
 42
1.0000
  0
SEQEND
  8
0
  0
POLYLINE
  8
16
 66
1
 10
0.0000
 20
0.0000
 30
0.0000
 40
0.0000
 41
0.0000
 70
1
  0
VERTEX
  8
16
 10
222.2500
 20
104.7750
 30
0.0000
  0
VERTEX
  8
16
 10
225.4250
 20
104.7750
 30
0.0000
 42
1.0000
  0
VERTEX
  8
16
 10
225.4250
 20
106.0450
 30
0.0000
  0
VERTEX
  8
16
 10
222.2500
 20
106.0450
 30
0.0000
 42
1.0000
  0
SEQEND
  8
0
  0
POLYLINE
  8
16
 66
1
 10
0.0000
 20
0.0000
 30
0.0000
 40
0.0000
 41
0.0000
 70
1
  0
VERTEX
  8
16
 10
224.9760
 20
104.9610
 30
0.0000
  0
VERTEX
  8
16
 10
229.4210
 20
100.5160
 30
0.0000
 42
1.0000
  0
VERTEX
  8
16
 10
230.3190
 20
101.4140
 30
0.0000
  0
VERTEX
  8
16
 10
225.8740
 20
105.8590
 30
0.0000
 42
1.0000
  0
SEQEND
  8
0
  0
POLYLINE
  8
16
 66
1
 10
0.0000
 20
0.0000
 30
0.0000
 40
0.0000
 41
0.0000
 70
1
  0
VERTEX
  8
16
 10
229.2350
 20
100.9650
 30
0.0000
  0
VERTEX
  8
16
 10
229.2350
 20
97.7900
 30
0.0000
 42
1.0000
  0
VERTEX
  8
16
 10
230.5050
 20
97.7900
 30
0.0000
  0
VERTEX
  8
16
 10
230.5050
 20
100.9650
 30
0.0000
 42
1.0000
  0
SEQEND
  8
0
  0
POLYLINE
  8
16
 66
1
 10
0.0000
 20
0.0000
 30
0.0000
 40
0.0000
 41
0.0000
 70
1
  0
VERTEX
  8
16
 10
236.2200
 20
94.6150
 30
0.0000
  0
VERTEX
  8
16
 10
227.9650
 20
94.6150
 30
0.0000
 42
1.0000
  0
VERTEX
  8
16
 10
227.9650
 20
93.3450
 30
0.0000
  0
VERTEX
  8
16
 10
236.2200
 20
93.3450
 30
0.0000
 42
1.0000
  0
SEQEND
  8
0
  0
POLYLINE
  8
16
 66
1
 10
0.0000
 20
0.0000
 30
0.0000
 40
0.0000
 41
0.0000
 70
1
  0
VERTEX
  8
16
 10
228.4140
 20
94.4290
 30
0.0000
  0
VERTEX
  8
16
 10
227.7790
 20
95.0640
 30
0.0000
 42
1.0000
  0
VERTEX
  8
16
 10
226.8810
 20
94.1660
 30
0.0000
  0
VERTEX
  8
16
 10
227.5160
 20
93.5310
 30
0.0000
 42
1.0000
  0
SEQEND
  8
0
  0
POLYLINE
  8
16
 66
1
 10
0.0000
 20
0.0000
 30
0.0000
 40
0.0000
 41
0.0000
 70
1
  0
VERTEX
  8
16
 10
227.9650
 20
94.6150
 30
0.0000
  0
VERTEX
  8
16
 10
227.9650
 20
100.3300
 30
0.0000
 42
1.0000
  0
VERTEX
  8
16
 10
226.6950
 20
100.3300
 30
0.0000
  0
VERTEX
  8
16
 10
226.6950
 20
94.6150
 30
0.0000
 42
1.0000
  0
SEQEND
  8
0
  0
POLYLINE
  8
16
 66
1
 10
0.0000
 20
0.0000
 30
0.0000
 40
0.0000
 41
0.0000
 70
1
  0
VERTEX
  8
16
 10
227.7790
 20
100.7790
 30
0.0000
  0
VERTEX
  8
16
 10
225.2898
 20
103.2682
 30
0.0000
 42
1.0000
  0
VERTEX
  8
16
 10
224.3918
 20
102.3702
 30
0.0000
  0
VERTEX
  8
16
 10
226.8810
 20
99.8810
 30
0.0000
 42
1.0000
  0
SEQEND
  8
0
  0
POLYLINE
  8
16
 66
1
 10
0.0000
 20
0.0000
 30
0.0000
 40
0.0000
 41
0.0000
 70
1
  0
VERTEX
  8
16
 10
208.7798
 20
103.2682
 30
0.0000
  0
VERTEX
  8
16
 10
207.4590
 20
104.5890
 30
0.0000
 42
1.0000
  0
VERTEX
  8
16
 10
206.5610
 20
103.6910
 30
0.0000
  0
VERTEX
  8
16
 10
207.8818
 20
102.3702
 30
0.0000
 42
1.0000
  0
SEQEND
  8
0
  0
POLYLINE
  8
16
 66
1
 10
0.0000
 20
0.0000
 30
0.0000
 40
0.0000
 41
0.0000
 70
1
  0
VERTEX
  8
16
 10
207.6450
 20
104.1400
 30
0.0000
  0
VERTEX
  8
16
 10
207.6450
 20
105.4100
 30
0.0000
 42
1.0000
  0
VERTEX
  8
16
 10
206.3750
 20
105.4100
 30
0.0000
  0
VERTEX
  8
16
 10
206.3750
 20
104.1400
 30
0.0000
 42
1.0000
  0
SEQEND
  8
0
  0
POLYLINE
  8
16
 66
1
 10
0.0000
 20
0.0000
 30
0.0000
 40
0.0000
 41
0.0000
 70
1
  0
VERTEX
  8
16
 10
224.8408
 20
103.4542
 30
0.0000
  0
VERTEX
  8
16
 10
208.3308
 20
103.4542
 30
0.0000
 42
1.0000
  0
VERTEX
  8
16
 10
208.3308
 20
102.1842
 30
0.0000
  0
VERTEX
  8
16
 10
224.8408
 20
102.1842
 30
0.0000
 42
1.0000
  0
SEQEND
  8
0
  0
POLYLINE
  8
16
 66
1
 10
0.0000
 20
0.0000
 30
0.0000
 40
0.0000
 41
0.0000
 70
1
  0
VERTEX
  8
16
 10
207.6450
 20
97.7900
 30
0.0000
  0
VERTEX
  8
16
 10
207.6450
 20
99.0600
 30
0.0000
 42
1.0000
  0
VERTEX
  8
16
 10
206.3750
 20
99.0600
 30
0.0000
  0
VERTEX
  8
16
 10
206.3750
 20
97.7900
 30
0.0000
 42
1.0000
  0
SEQEND
  8
0
  0
POLYLINE
  8
16
 66
1
 10
0.0000
 20
0.0000
 30
0.0000
 40
0.0000
 41
0.0000
 70
1
  0
VERTEX
  8
16
 10
208.3308
 20
99.7458
 30
0.0000
  0
VERTEX
  8
16
 10
223.4692
 20
99.7458
 30
0.0000
 42
1.0000
  0
VERTEX
  8
16
 10
223.4692
 20
101.0158
 30
0.0000
  0
VERTEX
  8
16
 10
208.3308
 20
101.0158
 30
0.0000
 42
1.0000
  0
SEQEND
  8
0
  0
POLYLINE
  8
16
 66
1
 10
0.0000
 20
0.0000
 30
0.0000
 40
0.0000
 41
0.0000
 70
1
  0
VERTEX
  8
16
 10
223.0202
 20
99.9318
 30
0.0000
  0
VERTEX
  8
16
 10
224.3410
 20
98.6110
 30
0.0000
 42
1.0000
  0
VERTEX
  8
16
 10
225.2390
 20
99.5090
 30
0.0000
  0
VERTEX
  8
16
 10
223.9182
 20
100.8298
 30
0.0000
 42
1.0000
  0
SEQEND
  8
0
  0
POLYLINE
  8
16
 66
1
 10
0.0000
 20
0.0000
 30
0.0000
 40
0.0000
 41
0.0000
 70
1
  0
VERTEX
  8
16
 10
207.4590
 20
98.6110
 30
0.0000
  0
VERTEX
  8
16
 10
208.7798
 20
99.9318
 30
0.0000
 42
1.0000
  0
VERTEX
  8
16
 10
207.8818
 20
100.8298
 30
0.0000
  0
VERTEX
  8
16
 10
206.5610
 20
99.5090
 30
0.0000
 42
1.0000
  0
SEQEND
  8
0
  0
POLYLINE
  8
16
 66
1
 10
0.0000
 20
0.0000
 30
0.0000
 40
0.0000
 41
0.0000
 70
1
  0
VERTEX
  8
16
 10
224.1550
 20
99.0600
 30
0.0000
  0
VERTEX
  8
16
 10
224.1550
 20
92.7100
 30
0.0000
 42
1.0000
  0
VERTEX
  8
16
 10
225.4250
 20
92.7100
 30
0.0000
  0
VERTEX
  8
16
 10
225.4250
 20
99.0600
 30
0.0000
 42
1.0000
  0
SEQEND
  8
0
  0
POLYLINE
  8
16
 66
1
 10
0.0000
 20
0.0000
 30
0.0000
 40
0.0000
 41
0.0000
 70
1
  0
VERTEX
  8
16
 10
224.3410
 20
92.2610
 30
0.0000
  0
VERTEX
  8
16
 10
225.6110
 20
90.9910
 30
0.0000
 42
1.0000
  0
VERTEX
  8
16
 10
226.5090
 20
91.8890
 30
0.0000
  0
VERTEX
  8
16
 10
225.2390
 20
93.1590
 30
0.0000
 42
1.0000
  0
SEQEND
  8
0
  0
POLYLINE
  8
16
 66
1
 10
0.0000
 20
0.0000
 30
0.0000
 40
0.0000
 41
0.0000
 70
1
  0
VERTEX
  8
16
 10
226.0600
 20
90.8050
 30
0.0000
  0
VERTEX
  8
16
 10
236.2200
 20
90.8050
 30
0.0000
 42
1.0000
  0
VERTEX
  8
16
 10
236.2200
 20
92.0750
 30
0.0000
  0
VERTEX
  8
16
 10
226.0600
 20
92.0750
 30
0.0000
 42
1.0000
  0
SEQEND
  8
0
  0
POLYLINE
  8
16
 66
1
 10
0.0000
 20
0.0000
 30
0.0000
 40
0.0000
 41
0.0000
 70
1
  0
VERTEX
  8
16
 10
221.6150
 20
97.7900
 30
0.0000
  0
VERTEX
  8
16
 10
221.6150
 20
90.8050
 30
0.0000
 42
1.0000
  0
VERTEX
  8
16
 10
222.8850
 20
90.8050
 30
0.0000
  0
VERTEX
  8
16
 10
222.8850
 20
97.7900
 30
0.0000
 42
1.0000
  0
SEQEND
  8
0
  0
POLYLINE
  8
16
 66
1
 10
0.0000
 20
0.0000
 30
0.0000
 40
0.0000
 41
0.0000
 70
1
  0
VERTEX
  8
16
 10
221.8010
 20
90.3560
 30
0.0000
  0
VERTEX
  8
16
 10
223.7060
 20
88.4510
 30
0.0000
 42
1.0000
  0
VERTEX
  8
16
 10
224.6040
 20
89.3490
 30
0.0000
  0
VERTEX
  8
16
 10
222.6990
 20
91.2540
 30
0.0000
 42
1.0000
  0
SEQEND
  8
0
  0
POLYLINE
  8
16
 66
1
 10
0.0000
 20
0.0000
 30
0.0000
 40
0.0000
 41
0.0000
 70
1
  0
VERTEX
  8
16
 10
224.1550
 20
88.2650
 30
0.0000
  0
VERTEX
  8
16
 10
236.2200
 20
88.2650
 30
0.0000
 42
1.0000
  0
VERTEX
  8
16
 10
236.2200
 20
89.5350
 30
0.0000
  0
VERTEX
  8
16
 10
224.1550
 20
89.5350
 30
0.0000
 42
1.0000
  0
SEQEND
  8
0
  0
POLYLINE
  8
16
 66
1
 10
0.0000
 20
0.0000
 30
0.0000
 40
0.0000
 41
0.0000
 70
1
  0
VERTEX
  8
16
 10
223.7060
 20
86.8090
 30
0.0000
  0
VERTEX
  8
16
 10
221.8010
 20
84.9040
 30
0.0000
 42
1.0000
  0
VERTEX
  8
16
 10
222.6990
 20
84.0060
 30
0.0000
  0
VERTEX
  8
16
 10
224.6040
 20
85.9110
 30
0.0000
 42
1.0000
  0
SEQEND
  8
0
  0
POLYLINE
  8
16
 66
1
 10
0.0000
 20
0.0000
 30
0.0000
 40
0.0000
 41
0.0000
 70
1
  0
VERTEX
  8
16
 10
221.6150
 20
84.4550
 30
0.0000
  0
VERTEX
  8
16
 10
221.6150
 20
78.7400
 30
0.0000
 42
1.0000
  0
VERTEX
  8
16
 10
222.8850
 20
78.7400
 30
0.0000
  0
VERTEX
  8
16
 10
222.8850
 20
84.4550
 30
0.0000
 42
1.0000
  0
SEQEND
  8
0
  0
POLYLINE
  8
16
 66
1
 10
0.0000
 20
0.0000
 30
0.0000
 40
0.0000
 41
0.0000
 70
1
  0
VERTEX
  8
16
 10
236.2200
 20
86.9950
 30
0.0000
  0
VERTEX
  8
16
 10
224.1550
 20
86.9950
 30
0.0000
 42
1.0000
  0
VERTEX
  8
16
 10
224.1550
 20
85.7250
 30
0.0000
  0
VERTEX
  8
16
 10
236.2200
 20
85.7250
 30
0.0000
 42
1.0000
  0
SEQEND
  8
0
  0
POLYLINE
  8
16
 66
1
 10
0.0000
 20
0.0000
 30
0.0000
 40
0.0000
 41
0.0000
 70
1
  0
VERTEX
  8
16
 10
206.5610
 20
77.0210
 30
0.0000
  0
VERTEX
  8
16
 10
207.8818
 20
75.7002
 30
0.0000
 42
1.0000
  0
VERTEX
  8
16
 10
208.7798
 20
76.5982
 30
0.0000
  0
VERTEX
  8
16
 10
207.4590
 20
77.9190
 30
0.0000
 42
1.0000
  0
SEQEND
  8
0
  0
POLYLINE
  8
16
 66
1
 10
0.0000
 20
0.0000
 30
0.0000
 40
0.0000
 41
0.0000
 70
1
  0
VERTEX
  8
16
 10
223.4986
 20
75.7002
 30
0.0000
  0
VERTEX
  8
16
 10
223.5494
 20
75.7510
 30
0.0000
 42
1.0000
  0
VERTEX
  8
16
 10
222.6514
 20
76.6490
 30
0.0000
  0
VERTEX
  8
16
 10
222.6006
 20
76.5982
 30
0.0000
 42
1.0000
  0
SEQEND
  8
0
  0
POLYLINE
  8
16
 66
1
 10
0.0000
 20
0.0000
 30
0.0000
 40
0.0000
 41
0.0000
 70
1
  0
VERTEX
  8
16
 10
223.1004
 20
75.5650
 30
0.0000
  0
VERTEX
  8
16
 10
223.5200
 20
75.5650
 30
0.0000
 42
1.0000
  0
VERTEX
  8
16
 10
223.5200
 20
76.8350
 30
0.0000
  0
VERTEX
  8
16
 10
223.1004
 20
76.8350
 30
0.0000
 42
1.0000
  0
SEQEND
  8
0
  0
POLYLINE
  8
16
 66
1
 10
0.0000
 20
0.0000
 30
0.0000
 40
0.0000
 41
0.0000
 70
1
  0
VERTEX
  8
16
 10
208.3308
 20
75.5142
 30
0.0000
  0
VERTEX
  8
16
 10
223.0496
 20
75.5142
 30
0.0000
 42
1.0000
  0
VERTEX
  8
16
 10
223.0496
 20
76.7842
 30
0.0000
  0
VERTEX
  8
16
 10
208.3308
 20
76.7842
 30
0.0000
 42
1.0000
  0
SEQEND
  8
0
  0
POLYLINE
  8
16
 66
1
 10
0.0000
 20
0.0000
 30
0.0000
 40
0.0000
 41
0.0000
 70
1
  0
VERTEX
  8
16
 10
223.9690
 20
75.7510
 30
0.0000
  0
VERTEX
  8
16
 10
225.2390
 20
77.0210
 30
0.0000
 42
1.0000
  0
VERTEX
  8
16
 10
224.3410
 20
77.9190
 30
0.0000
  0
VERTEX
  8
16
 10
223.0710
 20
76.6490
 30
0.0000
 42
1.0000
  0
SEQEND
  8
0
  0
POLYLINE
  8
16
 66
1
 10
0.0000
 20
0.0000
 30
0.0000
 40
0.0000
 41
0.0000
 70
1
  0
VERTEX
  8
16
 10
225.4250
 20
77.4700
 30
0.0000
  0
VERTEX
  8
16
 10
225.4250
 20
82.5500
 30
0.0000
 42
1.0000
  0
VERTEX
  8
16
 10
224.1550
 20
82.5500
 30
0.0000
  0
VERTEX
  8
16
 10
224.1550
 20
77.4700
 30
0.0000
 42
1.0000
  0
SEQEND
  8
0
  0
POLYLINE
  8
16
 66
1
 10
0.0000
 20
0.0000
 30
0.0000
 40
0.0000
 41
0.0000
 70
1
  0
VERTEX
  8
16
 10
225.2390
 20
82.1010
 30
0.0000
  0
VERTEX
  8
16
 10
226.5090
 20
83.3710
 30
0.0000
 42
1.0000
  0
VERTEX
  8
16
 10
225.6110
 20
84.2690
 30
0.0000
  0
VERTEX
  8
16
 10
224.3410
 20
82.9990
 30
0.0000
 42
1.0000
  0
SEQEND
  8
0
  0
POLYLINE
  8
16
 66
1
 10
0.0000
 20
0.0000
 30
0.0000
 40
0.0000
 41
0.0000
 70
1
  0
VERTEX
  8
16
 10
226.0600
 20
83.1850
 30
0.0000
  0
VERTEX
  8
16
 10
236.2200
 20
83.1850
 30
0.0000
 42
1.0000
  0
VERTEX
  8
16
 10
236.2200
 20
84.4550
 30
0.0000
  0
VERTEX
  8
16
 10
226.0600
 20
84.4550
 30
0.0000
 42
1.0000
  0
SEQEND
  8
0
  0
POLYLINE
  8
16
 66
1
 10
0.0000
 20
0.0000
 30
0.0000
 40
0.0000
 41
0.0000
 70
1
  0
VERTEX
  8
16
 10
206.3750
 20
78.7400
 30
0.0000
  0
VERTEX
  8
16
 10
206.3750
 20
77.4700
 30
0.0000
 42
1.0000
  0
VERTEX
  8
16
 10
207.6450
 20
77.4700
 30
0.0000
  0
VERTEX
  8
16
 10
207.6450
 20
78.7400
 30
0.0000
 42
1.0000
  0
SEQEND
  8
0
  0
POLYLINE
  8
16
 66
1
 10
0.0000
 20
0.0000
 30
0.0000
 40
0.0000
 41
0.0000
 70
1
  0
VERTEX
  8
16
 10
207.6450
 20
71.1200
 30
0.0000
  0
VERTEX
  8
16
 10
207.6450
 20
72.3900
 30
0.0000
 42
1.0000
  0
VERTEX
  8
16
 10
206.3750
 20
72.3900
 30
0.0000
  0
VERTEX
  8
16
 10
206.3750
 20
71.1200
 30
0.0000
 42
1.0000
  0
SEQEND
  8
0
  0
POLYLINE
  8
16
 66
1
 10
0.0000
 20
0.0000
 30
0.0000
 40
0.0000
 41
0.0000
 70
1
  0
VERTEX
  8
16
 10
222.6006
 20
73.2618
 30
0.0000
  0
VERTEX
  8
16
 10
222.6514
 20
73.2110
 30
0.0000
 42
1.0000
  0
VERTEX
  8
16
 10
223.5494
 20
74.1090
 30
0.0000
  0
VERTEX
  8
16
 10
223.4986
 20
74.1598
 30
0.0000
 42
1.0000
  0
SEQEND
  8
0
  0
POLYLINE
  8
16
 66
1
 10
0.0000
 20
0.0000
 30
0.0000
 40
0.0000
 41
0.0000
 70
1
  0
VERTEX
  8
16
 10
223.1004
 20
73.0250
 30
0.0000
  0
VERTEX
  8
16
 10
224.1550
 20
73.0250
 30
0.0000
 42
1.0000
  0
VERTEX
  8
16
 10
224.1550
 20
74.2950
 30
0.0000
  0
VERTEX
  8
16
 10
223.1004
 20
74.2950
 30
0.0000
 42
1.0000
  0
SEQEND
  8
0
  0
POLYLINE
  8
16
 66
1
 10
0.0000
 20
0.0000
 30
0.0000
 40
0.0000
 41
0.0000
 70
1
  0
VERTEX
  8
16
 10
208.3308
 20
73.0758
 30
0.0000
  0
VERTEX
  8
16
 10
223.0496
 20
73.0758
 30
0.0000
 42
1.0000
  0
VERTEX
  8
16
 10
223.0496
 20
74.3458
 30
0.0000
  0
VERTEX
  8
16
 10
208.3308
 20
74.3458
 30
0.0000
 42
1.0000
  0
SEQEND
  8
0
  0
POLYLINE
  8
16
 66
1
 10
0.0000
 20
0.0000
 30
0.0000
 40
0.0000
 41
0.0000
 70
1
  0
VERTEX
  8
16
 10
207.4590
 20
71.9410
 30
0.0000
  0
VERTEX
  8
16
 10
208.7798
 20
73.2618
 30
0.0000
 42
1.0000
  0
VERTEX
  8
16
 10
207.8818
 20
74.1598
 30
0.0000
  0
VERTEX
  8
16
 10
206.5610
 20
72.8390
 30
0.0000
 42
1.0000
  0
SEQEND
  8
0
  0
POLYLINE
  8
16
 66
1
 10
0.0000
 20
0.0000
 30
0.0000
 40
0.0000
 41
0.0000
 70
1
  0
VERTEX
  8
16
 10
224.6040
 20
73.2110
 30
0.0000
  0
VERTEX
  8
16
 10
227.7790
 20
76.3860
 30
0.0000
 42
1.0000
  0
VERTEX
  8
16
 10
226.8810
 20
77.2840
 30
0.0000
  0
VERTEX
  8
16
 10
223.7060
 20
74.1090
 30
0.0000
 42
1.0000
  0
SEQEND
  8
0
  0
POLYLINE
  8
16
 66
1
 10
0.0000
 20
0.0000
 30
0.0000
 40
0.0000
 41
0.0000
 70
1
  0
VERTEX
  8
16
 10
227.7790
 20
79.5610
 30
0.0000
  0
VERTEX
  8
16
 10
229.0490
 20
80.8310
 30
0.0000
 42
1.0000
  0
VERTEX
  8
16
 10
228.1510
 20
81.7290
 30
0.0000
  0
VERTEX
  8
16
 10
226.8810
 20
80.4590
 30
0.0000
 42
1.0000
  0
SEQEND
  8
0
  0
POLYLINE
  8
16
 66
1
 10
0.0000
 20
0.0000
 30
0.0000
 40
0.0000
 41
0.0000
 70
1
  0
VERTEX
  8
16
 10
228.6000
 20
80.6450
 30
0.0000
  0
VERTEX
  8
16
 10
236.2200
 20
80.6450
 30
0.0000
 42
1.0000
  0
VERTEX
  8
16
 10
236.2200
 20
81.9150
 30
0.0000
  0
VERTEX
  8
16
 10
228.6000
 20
81.9150
 30
0.0000
 42
1.0000
  0
SEQEND
  8
0
  0
POLYLINE
  8
16
 66
1
 10
0.0000
 20
0.0000
 30
0.0000
 40
0.0000
 41
0.0000
 70
1
  0
VERTEX
  8
16
 10
227.9650
 20
76.8350
 30
0.0000
  0
VERTEX
  8
16
 10
227.9650
 20
80.0100
 30
0.0000
 42
1.0000
  0
VERTEX
  8
16
 10
226.6950
 20
80.0100
 30
0.0000
  0
VERTEX
  8
16
 10
226.6950
 20
76.8350
 30
0.0000
 42
1.0000
  0
SEQEND
  8
0
  0
POLYLINE
  8
16
 66
1
 10
0.0000
 20
0.0000
 30
0.0000
 40
0.0000
 41
0.0000
 70
1
  0
VERTEX
  8
16
 10
222.2500
 20
70.4850
 30
0.0000
  0
VERTEX
  8
16
 10
224.7900
 20
70.4850
 30
0.0000
 42
1.0000
  0
VERTEX
  8
16
 10
224.7900
 20
71.7550
 30
0.0000
  0
VERTEX
  8
16
 10
222.2500
 20
71.7550
 30
0.0000
 42
1.0000
  0
SEQEND
  8
0
  0
POLYLINE
  8
16
 66
1
 10
0.0000
 20
0.0000
 30
0.0000
 40
0.0000
 41
0.0000
 70
1
  0
VERTEX
  8
16
 10
225.2390
 20
70.6710
 30
0.0000
  0
VERTEX
  8
16
 10
230.3190
 20
75.7510
 30
0.0000
 42
1.0000
  0
VERTEX
  8
16
 10
229.4210
 20
76.6490
 30
0.0000
  0
VERTEX
  8
16
 10
224.3410
 20
71.5690
 30
0.0000
 42
1.0000
  0
SEQEND
  8
0
  0
POLYLINE
  8
16
 66
1
 10
0.0000
 20
0.0000
 30
0.0000
 40
0.0000
 41
0.0000
 70
1
  0
VERTEX
  8
16
 10
230.5050
 20
76.2000
 30
0.0000
  0
VERTEX
  8
16
 10
230.5050
 20
77.4700
 30
0.0000
 42
1.0000
  0
VERTEX
  8
16
 10
229.2350
 20
77.4700
 30
0.0000
  0
VERTEX
  8
16
 10
229.2350
 20
76.2000
 30
0.0000
 42
1.0000
  0
SEQEND
  8
0
  0
POLYLINE
  8
16
 66
1
 10
0.0000
 20
0.0000
 30
0.0000
 40
0.0000
 41
0.0000
 70
1
  0
VERTEX
  8
16
 10
230.3190
 20
77.0210
 30
0.0000
  0
VERTEX
  8
16
 10
231.5890
 20
78.2910
 30
0.0000
 42
1.0000
  0
VERTEX
  8
16
 10
230.6910
 20
79.1890
 30
0.0000
  0
VERTEX
  8
16
 10
229.4210
 20
77.9190
 30
0.0000
 42
1.0000
  0
SEQEND
  8
0
  0
POLYLINE
  8
16
 66
1
 10
0.0000
 20
0.0000
 30
0.0000
 40
0.0000
 41
0.0000
 70
1
  0
VERTEX
  8
16
 10
231.1400
 20
78.1050
 30
0.0000
  0
VERTEX
  8
16
 10
236.2200
 20
78.1050
 30
0.0000
 42
1.0000
  0
VERTEX
  8
16
 10
236.2200
 20
79.3750
 30
0.0000
  0
VERTEX
  8
16
 10
231.1400
 20
79.3750
 30
0.0000
 42
1.0000
  0
SEQEND
  8
0
  0
POLYLINE
  8
16
 66
1
 10
0.0000
 20
0.0000
 30
0.0000
 40
0.0000
 41
0.0000
 70
1
  0
VERTEX
  8
16
 10
216.7210
 20
62.0440
 30
0.0000
  0
VERTEX
  8
16
 10
215.4510
 20
60.7740
 30
0.0000
 42
1.0000
  0
VERTEX
  8
16
 10
216.3490
 20
59.8760
 30
0.0000
  0
VERTEX
  8
16
 10
217.6190
 20
61.1460
 30
0.0000
 42
1.0000
  0
SEQEND
  8
0
  0
POLYLINE
  8
16
 66
1
 10
0.0000
 20
0.0000
 30
0.0000
 40
0.0000
 41
0.0000
 70
1
  0
VERTEX
  8
16
 10
201.1421
 20
60.7383
 30
0.0000
  0
VERTEX
  8
16
 10
197.3321
 20
65.1833
 30
0.0000
 42
1.0000
  0
VERTEX
  8
16
 10
196.3679
 20
64.3567
 30
0.0000
  0
VERTEX
  8
16
 10
200.1779
 20
59.9117
 30
0.0000
 42
1.0000
  0
SEQEND
  8
0
  0
POLYLINE
  8
16
 66
1
 10
0.0000
 20
0.0000
 30
0.0000
 40
0.0000
 41
0.0000
 70
1
  0
VERTEX
  8
16
 10
197.4850
 20
64.7700
 30
0.0000
  0
VERTEX
  8
16
 10
197.4850
 20
81.2800
 30
0.0000
 42
1.0000
  0
VERTEX
  8
16
 10
196.2150
 20
81.2800
 30
0.0000
  0
VERTEX
  8
16
 10
196.2150
 20
64.7700
 30
0.0000
 42
1.0000
  0
SEQEND
  8
0
  0
POLYLINE
  8
16
 66
1
 10
0.0000
 20
0.0000
 30
0.0000
 40
0.0000
 41
0.0000
 70
1
  0
VERTEX
  8
16
 10
216.5350
 20
71.1200
 30
0.0000
  0
VERTEX
  8
16
 10
216.5350
 20
61.5950
 30
0.0000
 42
1.0000
  0
VERTEX
  8
16
 10
217.8050
 20
61.5950
 30
0.0000
  0
VERTEX
  8
16
 10
217.8050
 20
71.1200
 30
0.0000
 42
1.0000
  0
SEQEND
  8
0
  0
POLYLINE
  8
16
 66
1
 10
0.0000
 20
0.0000
 30
0.0000
 40
0.0000
 41
0.0000
 70
1
  0
VERTEX
  8
16
 10
215.9000
 20
60.9600
 30
0.0000
  0
VERTEX
  8
16
 10
200.6600
 20
60.9600
 30
0.0000
 42
1.0000
  0
VERTEX
  8
16
 10
200.6600
 20
59.6900
 30
0.0000
  0
VERTEX
  8
16
 10
215.9000
 20
59.6900
 30
0.0000
 42
1.0000
  0
SEQEND
  8
0
  0
POLYLINE
  8
16
 66
1
 10
0.0000
 20
0.0000
 30
0.0000
 40
0.0000
 41
0.0000
 70
1
  0
VERTEX
  8
16
 10
200.2110
 20
90.9910
 30
0.0000
  0
VERTEX
  8
16
 10
202.1160
 20
89.0860
 30
0.0000
 42
1.0000
  0
VERTEX
  8
16
 10
203.0140
 20
89.9840
 30
0.0000
  0
VERTEX
  8
16
 10
201.1090
 20
91.8890
 30
0.0000
 42
1.0000
  0
SEQEND
  8
0
  0
POLYLINE
  8
16
 66
1
 10
0.0000
 20
0.0000
 30
0.0000
 40
0.0000
 41
0.0000
 70
1
  0
VERTEX
  8
16
 10
202.5650
 20
88.9000
 30
0.0000
  0
VERTEX
  8
16
 10
215.9000
 20
88.9000
 30
0.0000
 42
1.0000
  0
VERTEX
  8
16
 10
215.9000
 20
90.1700
 30
0.0000
  0
VERTEX
  8
16
 10
202.5650
 20
90.1700
 30
0.0000
 42
1.0000
  0
SEQEND
  8
0
  0
POLYLINE
  8
16
 66
1
 10
0.0000
 20
0.0000
 30
0.0000
 40
0.0000
 41
0.0000
 70
1
  0
VERTEX
  8
16
 10
216.3490
 20
89.0860
 30
0.0000
  0
VERTEX
  8
16
 10
217.6190
 20
90.3560
 30
0.0000
 42
1.0000
  0
VERTEX
  8
16
 10
216.7210
 20
91.2540
 30
0.0000
  0
VERTEX
  8
16
 10
215.4510
 20
89.9840
 30
0.0000
 42
1.0000
  0
SEQEND
  8
0
  0
POLYLINE
  8
16
 66
1
 10
0.0000
 20
0.0000
 30
0.0000
 40
0.0000
 41
0.0000
 70
1
  0
VERTEX
  8
16
 10
217.8050
 20
90.8050
 30
0.0000
  0
VERTEX
  8
16
 10
217.8050
 20
97.7900
 30
0.0000
 42
1.0000
  0
VERTEX
  8
16
 10
216.5350
 20
97.7900
 30
0.0000
  0
VERTEX
  8
16
 10
216.5350
 20
90.8050
 30
0.0000
 42
1.0000
  0
SEQEND
  8
0
  0
POLYLINE
  8
16
 66
1
 10
0.0000
 20
0.0000
 30
0.0000
 40
0.0000
 41
0.0000
 70
1
  0
VERTEX
  8
16
 10
196.8500
 20
90.8050
 30
0.0000
  0
VERTEX
  8
16
 10
200.6600
 20
90.8050
 30
0.0000
 42
1.0000
  0
VERTEX
  8
16
 10
200.6600
 20
92.0750
 30
0.0000
  0
VERTEX
  8
16
 10
196.8500
 20
92.0750
 30
0.0000
 42
1.0000
  0
SEQEND
  8
0
  0
POLYLINE
  8
16
 66
1
 10
0.0000
 20
0.0000
 30
0.0000
 40
0.0000
 41
0.0000
 70
1
  0
VERTEX
  8
16
 10
212.7250
 20
105.4100
 30
0.0000
  0
VERTEX
  8
16
 10
212.7250
 20
110.4900
 30
0.0000
 42
1.0000
  0
VERTEX
  8
16
 10
211.4550
 20
110.4900
 30
0.0000
  0
VERTEX
  8
16
 10
211.4550
 20
105.4100
 30
0.0000
 42
1.0000
  0
SEQEND
  8
0
  0
POLYLINE
  8
16
 66
1
 10
0.0000
 20
0.0000
 30
0.0000
 40
0.0000
 41
0.0000
 70
1
  0
VERTEX
  8
16
 10
212.5390
 20
110.9390
 30
0.0000
  0
VERTEX
  8
16
 10
211.2690
 20
112.2090
 30
0.0000
 42
1.0000
  0
VERTEX
  8
16
 10
210.3710
 20
111.3110
 30
0.0000
  0
VERTEX
  8
16
 10
211.6410
 20
110.0410
 30
0.0000
 42
1.0000
  0
SEQEND
  8
0
  0
POLYLINE
  8
16
 66
1
 10
0.0000
 20
0.0000
 30
0.0000
 40
0.0000
 41
0.0000
 70
1
  0
VERTEX
  8
16
 10
210.8200
 20
112.3950
 30
0.0000
  0
VERTEX
  8
16
 10
198.1200
 20
112.3950
 30
0.0000
 42
1.0000
  0
VERTEX
  8
16
 10
198.1200
 20
111.1250
 30
0.0000
  0
VERTEX
  8
16
 10
210.8200
 20
111.1250
 30
0.0000
 42
1.0000
  0
SEQEND
  8
0
  0
POLYLINE
  8
16
 66
1
 10
0.0000
 20
0.0000
 30
0.0000
 40
0.0000
 41
0.0000
 70
1
  0
VERTEX
  8
16
 10
197.6710
 20
112.2090
 30
0.0000
  0
VERTEX
  8
16
 10
196.4010
 20
110.9390
 30
0.0000
 42
1.0000
  0
VERTEX
  8
16
 10
197.2990
 20
110.0410
 30
0.0000
  0
VERTEX
  8
16
 10
198.5690
 20
111.3110
 30
0.0000
 42
1.0000
  0
SEQEND
  8
0
  0
POLYLINE
  8
16
 66
1
 10
0.0000
 20
0.0000
 30
0.0000
 40
0.0000
 41
0.0000
 70
1
  0
VERTEX
  8
16
 10
196.2150
 20
110.4900
 30
0.0000
  0
VERTEX
  8
16
 10
196.2150
 20
96.5200
 30
0.0000
 42
1.0000
  0
VERTEX
  8
16
 10
197.4850
 20
96.5200
 30
0.0000
  0
VERTEX
  8
16
 10
197.4850
 20
110.4900
 30
0.0000
 42
1.0000
  0
SEQEND
  8
0
  0
POLYLINE
  8
16
 66
1
 10
0.0000
 20
0.0000
 30
0.0000
 40
0.0000
 41
0.0000
 70
1
  0
VERTEX
  8
16
 10
211.4550
 20
97.7900
 30
0.0000
  0
VERTEX
  8
16
 10
211.4550
 20
93.3450
 30
0.0000
 42
1.0000
  0
VERTEX
  8
16
 10
212.7250
 20
93.3450
 30
0.0000
  0
VERTEX
  8
16
 10
212.7250
 20
97.7900
 30
0.0000
 42
1.0000
  0
SEQEND
  8
0
  0
POLYLINE
  8
16
 66
1
 10
0.0000
 20
0.0000
 30
0.0000
 40
0.0000
 41
0.0000
 70
1
  0
VERTEX
  8
16
 10
211.6410
 20
93.7940
 30
0.0000
  0
VERTEX
  8
16
 10
210.3710
 20
92.5240
 30
0.0000
 42
1.0000
  0
VERTEX
  8
16
 10
211.2690
 20
91.6260
 30
0.0000
  0
VERTEX
  8
16
 10
212.5390
 20
92.8960
 30
0.0000
 42
1.0000
  0
SEQEND
  8
0
  0
POLYLINE
  8
16
 66
1
 10
0.0000
 20
0.0000
 30
0.0000
 40
0.0000
 41
0.0000
 70
1
  0
VERTEX
  8
16
 10
203.6490
 20
92.5240
 30
0.0000
  0
VERTEX
  8
16
 10
201.7440
 20
94.4290
 30
0.0000
 42
1.0000
  0
VERTEX
  8
16
 10
200.8460
 20
93.5310
 30
0.0000
  0
VERTEX
  8
16
 10
202.7510
 20
91.6260
 30
0.0000
 42
1.0000
  0
SEQEND
  8
0
  0
POLYLINE
  8
16
 66
1
 10
0.0000
 20
0.0000
 30
0.0000
 40
0.0000
 41
0.0000
 70
1
  0
VERTEX
  8
16
 10
201.2950
 20
94.6150
 30
0.0000
  0
VERTEX
  8
16
 10
196.8500
 20
94.6150
 30
0.0000
 42
1.0000
  0
VERTEX
  8
16
 10
196.8500
 20
93.3450
 30
0.0000
  0
VERTEX
  8
16
 10
201.2950
 20
93.3450
 30
0.0000
 42
1.0000
  0
SEQEND
  8
0
  0
POLYLINE
  8
16
 66
1
 10
0.0000
 20
0.0000
 30
0.0000
 40
0.0000
 41
0.0000
 70
1
  0
VERTEX
  8
16
 10
210.8200
 20
92.7100
 30
0.0000
  0
VERTEX
  8
16
 10
203.2000
 20
92.7100
 30
0.0000
 42
1.0000
  0
VERTEX
  8
16
 10
203.2000
 20
91.4400
 30
0.0000
  0
VERTEX
  8
16
 10
210.8200
 20
91.4400
 30
0.0000
 42
1.0000
  0
SEQEND
  8
0
  0
INSERT
  8
18
  2
ROUNDV
 10
219.7100
 20
109.8550
 30
0.0000
 41
1.7780
 42
1.7780
 43
1.0000
 50
0.0000
  0
CIRCLE
  8
44
 10
219.7100
 20
109.8550
 30
0.0000
 40
0.1750
  0
POLYLINE
  8
16
 66
1
 10
0.0000
 20
0.0000
 30
0.0000
 40
0.0000
 41
0.0000
 70
1
  0
VERTEX
  8
16
 10
200.0569
 20
88.4510
 30
0.0000
  0
VERTEX
  8
16
 10
201.3269
 20
87.1810
 30
0.0000
 42
1.0000
  0
VERTEX
  8
16
 10
202.2249
 20
88.0790
 30
0.0000
  0
VERTEX
  8
16
 10
200.9549
 20
89.3490
 30
0.0000
 42
1.0000
  0
SEQEND
  8
0
  0
POLYLINE
  8
16
 66
1
 10
0.0000
 20
0.0000
 30
0.0000
 40
0.0000
 41
0.0000
 70
1
  0
VERTEX
  8
16
 10
201.7759
 20
86.9950
 30
0.0000
  0
VERTEX
  8
16
 10
201.9300
 20
86.9950
 30
0.0000
 42
1.0000
  0
VERTEX
  8
16
 10
201.9300
 20
88.2650
 30
0.0000
  0
VERTEX
  8
16
 10
201.7759
 20
88.2650
 30
0.0000
 42
1.0000
  0
SEQEND
  8
0
  0
POLYLINE
  8
16
 66
1
 10
0.0000
 20
0.0000
 30
0.0000
 40
0.0000
 41
0.0000
 70
1
  0
VERTEX
  8
16
 10
201.4810
 20
87.1810
 30
0.0000
  0
VERTEX
  8
16
 10
202.1160
 20
86.5460
 30
0.0000
 42
1.0000
  0
VERTEX
  8
16
 10
203.0140
 20
87.4440
 30
0.0000
  0
VERTEX
  8
16
 10
202.3790
 20
88.0790
 30
0.0000
 42
1.0000
  0
SEQEND
  8
0
  0
POLYLINE
  8
16
 66
1
 10
0.0000
 20
0.0000
 30
0.0000
 40
0.0000
 41
0.0000
 70
1
  0
VERTEX
  8
16
 10
196.8500
 20
88.2650
 30
0.0000
  0
VERTEX
  8
16
 10
200.5059
 20
88.2650
 30
0.0000
 42
1.0000
  0
VERTEX
  8
16
 10
200.5059
 20
89.5350
 30
0.0000
  0
VERTEX
  8
16
 10
196.8500
 20
89.5350
 30
0.0000
 42
1.0000
  0
SEQEND
  8
0
  0
POLYLINE
  8
16
 66
1
 10
0.0000
 20
0.0000
 30
0.0000
 40
0.0000
 41
0.0000
 70
1
  0
VERTEX
  8
16
 10
202.5650
 20
86.3600
 30
0.0000
  0
VERTEX
  8
16
 10
215.9000
 20
86.3600
 30
0.0000
 42
1.0000
  0
VERTEX
  8
16
 10
215.9000
 20
87.6300
 30
0.0000
  0
VERTEX
  8
16
 10
202.5650
 20
87.6300
 30
0.0000
 42
1.0000
  0
SEQEND
  8
0
  0
POLYLINE
  8
16
 66
1
 10
0.0000
 20
0.0000
 30
0.0000
 40
0.0000
 41
0.0000
 70
1
  0
VERTEX
  8
16
 10
215.4510
 20
86.5460
 30
0.0000
  0
VERTEX
  8
16
 10
216.7210
 20
85.2760
 30
0.0000
 42
1.0000
  0
VERTEX
  8
16
 10
217.6190
 20
86.1740
 30
0.0000
  0
VERTEX
  8
16
 10
216.3490
 20
87.4440
 30
0.0000
 42
1.0000
  0
SEQEND
  8
0
  0
POLYLINE
  8
16
 66
1
 10
0.0000
 20
0.0000
 30
0.0000
 40
0.0000
 41
0.0000
 70
1
  0
VERTEX
  8
16
 10
216.5350
 20
85.7250
 30
0.0000
  0
VERTEX
  8
16
 10
216.5350
 20
78.7400
 30
0.0000
 42
1.0000
  0
VERTEX
  8
16
 10
217.8050
 20
78.7400
 30
0.0000
  0
VERTEX
  8
16
 10
217.8050
 20
85.7250
 30
0.0000
 42
1.0000
  0
SEQEND
  8
0
  0
INSERT
  8
18
  2
ROUNDV
 10
219.7100
 20
65.4050
 30
0.0000
 41
1.7780
 42
1.7780
 43
1.0000
 50
0.0000
  0
CIRCLE
  8
44
 10
219.7100
 20
65.4050
 30
0.0000
 40
0.1750
  0
INSERT
  8
18
  2
ROUNDV
 10
214.6300
 20
84.4550
 30
0.0000
 41
1.7780
 42
1.7780
 43
1.0000
 50
0.0000
  0
CIRCLE
  8
44
 10
214.6300
 20
84.4550
 30
0.0000
 40
0.1750
  0
INSERT
  8
18
  2
ROUNDV
 10
214.6300
 20
62.8650
 30
0.0000
 41
1.7780
 42
1.7780
 43
1.0000
 50
0.0000
  0
CIRCLE
  8
44
 10
214.6300
 20
62.8650
 30
0.0000
 40
0.1750
  0
POLYLINE
  8
16
 66
1
 10
0.0000
 20
0.0000
 30
0.0000
 40
0.0000
 41
0.0000
 70
1
  0
VERTEX
  8
16
 10
226.6950
 20
62.2300
 30
0.0000
  0
VERTEX
  8
16
 10
233.0450
 20
62.2300
 30
0.0000
 42
1.0000
  0
VERTEX
  8
16
 10
233.0450
 20
63.5000
 30
0.0000
  0
VERTEX
  8
16
 10
226.6950
 20
63.5000
 30
0.0000
 42
1.0000
  0
SEQEND
  8
0
  0
POLYLINE
  8
16
 66
1
 10
0.0000
 20
0.0000
 30
0.0000
 40
0.0000
 41
0.0000
 70
1
  0
VERTEX
  8
16
 10
232.5960
 20
62.4160
 30
0.0000
  0
VERTEX
  8
16
 10
238.3110
 20
56.7010
 30
0.0000
 42
1.0000
  0
VERTEX
  8
16
 10
239.2090
 20
57.5990
 30
0.0000
  0
VERTEX
  8
16
 10
233.4940
 20
63.3140
 30
0.0000
 42
1.0000
  0
SEQEND
  8
0
  0
POLYLINE
  8
16
 66
1
 10
0.0000
 20
0.0000
 30
0.0000
 40
0.0000
 41
0.0000
 70
1
  0
VERTEX
  8
16
 10
238.7600
 20
56.5150
 30
0.0000
  0
VERTEX
  8
16
 10
243.8400
 20
56.5150
 30
0.0000
 42
1.0000
  0
VERTEX
  8
16
 10
243.8400
 20
57.7850
 30
0.0000
  0
VERTEX
  8
16
 10
238.7600
 20
57.7850
 30
0.0000
 42
1.0000
  0
SEQEND
  8
0
  0
POLYLINE
  8
16
 66
1
 10
0.0000
 20
0.0000
 30
0.0000
 40
0.0000
 41
0.0000
 70
1
  0
VERTEX
  8
16
 10
244.2890
 20
56.7010
 30
0.0000
  0
VERTEX
  8
16
 10
245.5590
 20
57.9710
 30
0.0000
 42
1.0000
  0
VERTEX
  8
16
 10
244.6610
 20
58.8690
 30
0.0000
  0
VERTEX
  8
16
 10
243.3910
 20
57.5990
 30
0.0000
 42
1.0000
  0
SEQEND
  8
0
  0
POLYLINE
  8
16
 66
1
 10
0.0000
 20
0.0000
 30
0.0000
 40
0.0000
 41
0.0000
 70
1
  0
VERTEX
  8
16
 10
245.7450
 20
58.4200
 30
0.0000
  0
VERTEX
  8
16
 10
245.7450
 20
60.9600
 30
0.0000
 42
1.0000
  0
VERTEX
  8
16
 10
244.4750
 20
60.9600
 30
0.0000
  0
VERTEX
  8
16
 10
244.4750
 20
58.4200
 30
0.0000
 42
1.0000
  0
SEQEND
  8
0
  0
POLYLINE
  8
16
 66
1
 10
0.0000
 20
0.0000
 30
0.0000
 40
0.0000
 41
0.0000
 70
1
  0
VERTEX
  8
16
 10
226.2460
 20
63.3140
 30
0.0000
  0
VERTEX
  8
16
 10
218.6260
 20
55.6940
 30
0.0000
 42
1.0000
  0
VERTEX
  8
16
 10
219.5240
 20
54.7960
 30
0.0000
  0
VERTEX
  8
16
 10
227.1440
 20
62.4160
 30
0.0000
 42
1.0000
  0
SEQEND
  8
0
  0
POLYLINE
  8
16
 66
1
 10
0.0000
 20
0.0000
 30
0.0000
 40
0.0000
 41
0.0000
 70
1
  0
VERTEX
  8
16
 10
199.2040
 20
55.6940
 30
0.0000
  0
VERTEX
  8
16
 10
187.7740
 20
67.1240
 30
0.0000
 42
1.0000
  0
VERTEX
  8
16
 10
186.8760
 20
66.2260
 30
0.0000
  0
VERTEX
  8
16
 10
198.3060
 20
54.7960
 30
0.0000
 42
1.0000
  0
SEQEND
  8
0
  0
POLYLINE
  8
16
 66
1
 10
0.0000
 20
0.0000
 30
0.0000
 40
0.0000
 41
0.0000
 70
1
  0
VERTEX
  8
16
 10
187.9600
 20
66.6750
 30
0.0000
  0
VERTEX
  8
16
 10
187.9600
 20
112.3950
 30
0.0000
 42
1.0000
  0
VERTEX
  8
16
 10
186.6900
 20
112.3950
 30
0.0000
  0
VERTEX
  8
16
 10
186.6900
 20
66.6750
 30
0.0000
 42
1.0000
  0
SEQEND
  8
0
  0
POLYLINE
  8
16
 66
1
 10
0.0000
 20
0.0000
 30
0.0000
 40
0.0000
 41
0.0000
 70
1
  0
VERTEX
  8
16
 10
187.7740
 20
111.9460
 30
0.0000
  0
VERTEX
  8
16
 10
196.6640
 20
120.8360
 30
0.0000
 42
1.0000
  0
VERTEX
  8
16
 10
195.7660
 20
121.7340
 30
0.0000
  0
VERTEX
  8
16
 10
186.8760
 20
112.8440
 30
0.0000
 42
1.0000
  0
SEQEND
  8
0
  0
POLYLINE
  8
16
 66
1
 10
0.0000
 20
0.0000
 30
0.0000
 40
0.0000
 41
0.0000
 70
1
  0
VERTEX
  8
16
 10
196.2150
 20
120.6500
 30
0.0000
  0
VERTEX
  8
16
 10
201.2950
 20
120.6500
 30
0.0000
 42
1.0000
  0
VERTEX
  8
16
 10
201.2950
 20
121.9200
 30
0.0000
  0
VERTEX
  8
16
 10
196.2150
 20
121.9200
 30
0.0000
 42
1.0000
  0
SEQEND
  8
0
  0
POLYLINE
  8
16
 66
1
 10
0.0000
 20
0.0000
 30
0.0000
 40
0.0000
 41
0.0000
 70
1
  0
VERTEX
  8
16
 10
219.0750
 20
55.8800
 30
0.0000
  0
VERTEX
  8
16
 10
198.7550
 20
55.8800
 30
0.0000
 42
1.0000
  0
VERTEX
  8
16
 10
198.7550
 20
54.6100
 30
0.0000
  0
VERTEX
  8
16
 10
219.0750
 20
54.6100
 30
0.0000
 42
1.0000
  0
SEQEND
  8
0
  0
INSERT
  8
18
  2
ROUNDV
 10
226.6950
 20
62.8650
 30
0.0000
 41
1.7780
 42
1.7780
 43
1.0000
 50
0.0000
  0
CIRCLE
  8
44
 10
226.6950
 20
62.8650
 30
0.0000
 40
0.1750
  0
INSERT
  8
18
  2
ROUNDV
 10
229.8700
 20
70.4850
 30
0.0000
 41
1.7780
 42
1.7780
 43
1.0000
 50
0.0000
  0
CIRCLE
  8
44
 10
229.8700
 20
70.4850
 30
0.0000
 40
0.1750
  0
INSERT
  8
18
  2
ROUNDV
 10
214.6300
 20
111.7600
 30
0.0000
 41
1.7780
 42
1.7780
 43
1.0000
 50
0.0000
  0
CIRCLE
  8
44
 10
214.6300
 20
111.7600
 30
0.0000
 40
0.1750
  0
POLYLINE
  8
16
 66
1
 10
0.0000
 20
0.0000
 30
0.0000
 40
0.0000
 41
0.0000
 70
1
  0
VERTEX
  8
16
 10
214.6300
 20
118.1100
 30
0.0000
  0
VERTEX
  8
16
 10
195.5800
 20
118.1100
 30
0.0000
 42
1.0000
  0
VERTEX
  8
16
 10
195.5800
 20
116.8400
 30
0.0000
  0
VERTEX
  8
16
 10
214.6300
 20
116.8400
 30
0.0000
 42
1.0000
  0
SEQEND
  8
0
  0
POLYLINE
  8
16
 66
1
 10
0.0000
 20
0.0000
 30
0.0000
 40
0.0000
 41
0.0000
 70
1
  0
VERTEX
  8
16
 10
195.1310
 20
117.9240
 30
0.0000
  0
VERTEX
  8
16
 10
189.4160
 20
112.2090
 30
0.0000
 42
1.0000
  0
VERTEX
  8
16
 10
190.3140
 20
111.3110
 30
0.0000
  0
VERTEX
  8
16
 10
196.0290
 20
117.0260
 30
0.0000
 42
1.0000
  0
SEQEND
  8
0
  0
POLYLINE
  8
16
 66
1
 10
0.0000
 20
0.0000
 30
0.0000
 40
0.0000
 41
0.0000
 70
1
  0
VERTEX
  8
16
 10
189.2300
 20
111.7600
 30
0.0000
  0
VERTEX
  8
16
 10
189.2300
 20
67.3100
 30
0.0000
 42
1.0000
  0
VERTEX
  8
16
 10
190.5000
 20
67.3100
 30
0.0000
  0
VERTEX
  8
16
 10
190.5000
 20
111.7600
 30
0.0000
 42
1.0000
  0
SEQEND
  8
0
  0
POLYLINE
  8
16
 66
1
 10
0.0000
 20
0.0000
 30
0.0000
 40
0.0000
 41
0.0000
 70
1
  0
VERTEX
  8
16
 10
189.4160
 20
66.8610
 30
0.0000
  0
VERTEX
  8
16
 10
198.9410
 20
57.3360
 30
0.0000
 42
1.0000
  0
VERTEX
  8
16
 10
199.8390
 20
58.2340
 30
0.0000
  0
VERTEX
  8
16
 10
190.3140
 20
67.7590
 30
0.0000
 42
1.0000
  0
SEQEND
  8
0
  0
POLYLINE
  8
16
 66
1
 10
0.0000
 20
0.0000
 30
0.0000
 40
0.0000
 41
0.0000
 70
1
  0
VERTEX
  8
16
 10
199.3900
 20
57.1500
 30
0.0000
  0
VERTEX
  8
16
 10
217.1700
 20
57.1500
 30
0.0000
 42
1.0000
  0
VERTEX
  8
16
 10
217.1700
 20
58.4200
 30
0.0000
  0
VERTEX
  8
16
 10
199.3900
 20
58.4200
 30
0.0000
 42
1.0000
  0
SEQEND
  8
0
  0
POLYLINE
  8
16
 66
1
 10
0.0000
 20
0.0000
 30
0.0000
 40
0.0000
 41
0.0000
 70
1
  0
VERTEX
  8
16
 10
217.6190
 20
57.3360
 30
0.0000
  0
VERTEX
  8
16
 10
230.3190
 20
70.0360
 30
0.0000
 42
1.0000
  0
VERTEX
  8
16
 10
229.4210
 20
70.9340
 30
0.0000
  0
VERTEX
  8
16
 10
216.7210
 20
58.2340
 30
0.0000
 42
1.0000
  0
SEQEND
  8
0
  0
INSERT
  8
18
  2
ROUNDV
 10
214.6300
 20
117.4750
 30
0.0000
 41
1.7780
 42
1.7780
 43
1.0000
 50
0.0000
  0
CIRCLE
  8
44
 10
214.6300
 20
117.4750
 30
0.0000
 40
0.1750
  0
INSERT
  8
18
  2
ROUNDV
 10
201.2950
 20
121.2850
 30
0.0000
 41
1.7780
 42
1.7780
 43
1.0000
 50
0.0000
  0
CIRCLE
  8
44
 10
201.2950
 20
121.2850
 30
0.0000
 40
0.1750
  0
POLYLINE
  8
16
 66
1
 10
0.0000
 20
0.0000
 30
0.0000
 40
0.0000
 41
0.0000
 70
1
  0
VERTEX
  8
16
 10
230.5050
 20
129.5400
 30
0.0000
  0
VERTEX
  8
16
 10
230.5050
 20
121.2850
 30
0.0000
 42
1.0000
  0
VERTEX
  8
16
 10
231.7750
 20
121.2850
 30
0.0000
  0
VERTEX
  8
16
 10
231.7750
 20
129.5400
 30
0.0000
 42
1.0000
  0
SEQEND
  8
0
  0
POLYLINE
  8
16
 66
1
 10
0.0000
 20
0.0000
 30
0.0000
 40
0.0000
 41
0.0000
 70
1
  0
VERTEX
  8
16
 10
231.1400
 20
121.9200
 30
0.0000
  0
VERTEX
  8
16
 10
229.2350
 20
121.9200
 30
0.0000
 42
1.0000
  0
VERTEX
  8
16
 10
229.2350
 20
120.6500
 30
0.0000
  0
VERTEX
  8
16
 10
231.1400
 20
120.6500
 30
0.0000
 42
1.0000
  0
SEQEND
  8
0
  0
POLYLINE
  8
16
 66
1
 10
0.0000
 20
0.0000
 30
0.0000
 40
0.0000
 41
0.0000
 70
1
  0
VERTEX
  8
16
 10
228.7860
 20
121.7340
 30
0.0000
  0
VERTEX
  8
16
 10
227.5160
 20
120.4640
 30
0.0000
 42
1.0000
  0
VERTEX
  8
16
 10
228.4140
 20
119.5660
 30
0.0000
  0
VERTEX
  8
16
 10
229.6840
 20
120.8360
 30
0.0000
 42
1.0000
  0
SEQEND
  8
0
  0
POLYLINE
  8
16
 66
1
 10
0.0000
 20
0.0000
 30
0.0000
 40
0.0000
 41
0.0000
 70
1
  0
VERTEX
  8
16
 10
227.3300
 20
120.0150
 30
0.0000
  0
VERTEX
  8
16
 10
227.3300
 20
116.2050
 30
0.0000
 42
1.0000
  0
VERTEX
  8
16
 10
228.6000
 20
116.2050
 30
0.0000
  0
VERTEX
  8
16
 10
228.6000
 20
120.0150
 30
0.0000
 42
1.0000
  0
SEQEND
  8
0
  0
POLYLINE
  8
16
 66
1
 10
0.0000
 20
0.0000
 30
0.0000
 40
0.0000
 41
0.0000
 70
1
  0
VERTEX
  8
16
 10
227.5160
 20
115.7560
 30
0.0000
  0
VERTEX
  8
16
 10
228.7860
 20
114.4860
 30
0.0000
 42
1.0000
  0
VERTEX
  8
16
 10
229.6840
 20
115.3840
 30
0.0000
  0
VERTEX
  8
16
 10
228.4140
 20
116.6540
 30
0.0000
 42
1.0000
  0
SEQEND
  8
0
  0
POLYLINE
  8
16
 66
1
 10
0.0000
 20
0.0000
 30
0.0000
 40
0.0000
 41
0.0000
 70
1
  0
VERTEX
  8
16
 10
229.2350
 20
114.3000
 30
0.0000
  0
VERTEX
  8
16
 10
238.7600
 20
114.3000
 30
0.0000
 42
1.0000
  0
VERTEX
  8
16
 10
238.7600
 20
115.5700
 30
0.0000
  0
VERTEX
  8
16
 10
229.2350
 20
115.5700
 30
0.0000
 42
1.0000
  0
SEQEND
  8
0
  0
POLYLINE
  8
16
 66
1
 10
0.0000
 20
0.0000
 30
0.0000
 40
0.0000
 41
0.0000
 70
1
  0
VERTEX
  8
16
 10
239.2090
 20
114.4860
 30
0.0000
  0
VERTEX
  8
16
 10
241.1140
 20
116.3910
 30
0.0000
 42
1.0000
  0
VERTEX
  8
16
 10
240.2160
 20
117.2890
 30
0.0000
  0
VERTEX
  8
16
 10
238.3110
 20
115.3840
 30
0.0000
 42
1.0000
  0
SEQEND
  8
0
  0
POLYLINE
  8
16
 66
1
 10
0.0000
 20
0.0000
 30
0.0000
 40
0.0000
 41
0.0000
 70
1
  0
VERTEX
  8
16
 10
248.9200
 20
117.4750
 30
0.0000
  0
VERTEX
  8
16
 10
240.6650
 20
117.4750
 30
0.0000
 42
1.0000
  0
VERTEX
  8
16
 10
240.6650
 20
116.2050
 30
0.0000
  0
VERTEX
  8
16
 10
248.9200
 20
116.2050
 30
0.0000
 42
1.0000
  0
SEQEND
  8
0
  0
POLYLINE
  8
16
 66
1
 10
0.0000
 20
0.0000
 30
0.0000
 40
0.0000
 41
0.0000
 70
1
  0
VERTEX
  8
16
 10
252.0950
 20
111.7600
 30
0.0000
  0
VERTEX
  8
16
 10
252.0950
 20
114.3000
 30
0.0000
 42
1.0000
  0
VERTEX
  8
16
 10
250.8250
 20
114.3000
 30
0.0000
  0
VERTEX
  8
16
 10
250.8250
 20
111.7600
 30
0.0000
 42
1.0000
  0
SEQEND
  8
0
  0
POLYLINE
  8
16
 66
1
 10
0.0000
 20
0.0000
 30
0.0000
 40
0.0000
 41
0.0000
 70
1
  0
VERTEX
  8
16
 10
251.9090
 20
114.7490
 30
0.0000
  0
VERTEX
  8
16
 10
249.3690
 20
117.2890
 30
0.0000
 42
1.0000
  0
VERTEX
  8
16
 10
248.4710
 20
116.3910
 30
0.0000
  0
VERTEX
  8
16
 10
251.0110
 20
113.8510
 30
0.0000
 42
1.0000
  0
SEQEND
  8
0
  0
POLYLINE
  8
16
 66
1
 10
0.0000
 20
0.0000
 30
0.0000
 40
0.0000
 41
0.0000
 70
1
  0
VERTEX
  8
16
 10
249.5550
 20
120.4722
 30
0.0000
  0
VERTEX
  8
16
 10
249.5550
 20
118.1100
 30
0.0000
 42
1.0000
  0
VERTEX
  8
16
 10
250.8250
 20
118.1100
 30
0.0000
  0
VERTEX
  8
16
 10
250.8250
 20
120.4722
 30
0.0000
 42
1.0000
  0
SEQEND
  8
0
  0
POLYLINE
  8
16
 66
1
 10
0.0000
 20
0.0000
 30
0.0000
 40
0.0000
 41
0.0000
 70
1
  0
VERTEX
  8
16
 10
249.7410
 20
118.5590
 30
0.0000
  0
VERTEX
  8
16
 10
248.4710
 20
117.2890
 30
0.0000
 42
1.0000
  0
VERTEX
  8
16
 10
249.3690
 20
116.3910
 30
0.0000
  0
VERTEX
  8
16
 10
250.6390
 20
117.6610
 30
0.0000
 42
1.0000
  0
SEQEND
  8
0
  0
POLYLINE
  8
16
 66
1
 10
0.0000
 20
0.0000
 30
0.0000
 40
0.0000
 41
0.0000
 70
1
  0
VERTEX
  8
16
 10
244.8450
 20
133.3500
 30
0.0000
  0
VERTEX
  8
16
 10
244.8450
 20
122.8200
 30
0.0000
 42
1.0000
  0
VERTEX
  8
16
 10
246.1150
 20
122.8200
 30
0.0000
  0
VERTEX
  8
16
 10
246.1150
 20
133.3500
 30
0.0000
 42
1.0000
  0
SEQEND
  8
0
  0
POLYLINE
  8
16
 66
1
 10
0.0000
 20
0.0000
 30
0.0000
 40
0.0000
 41
0.0000
 70
1
  0
VERTEX
  8
16
 10
247.8278
 20
119.8372
 30
0.0000
  0
VERTEX
  8
16
 10
250.1900
 20
119.8372
 30
0.0000
 42
1.0000
  0
VERTEX
  8
16
 10
250.1900
 20
121.1072
 30
0.0000
  0
VERTEX
  8
16
 10
247.8278
 20
121.1072
 30
0.0000
 42
1.0000
  0
SEQEND
  8
0
  0
POLYLINE
  8
16
 66
1
 10
0.0000
 20
0.0000
 30
0.0000
 40
0.0000
 41
0.0000
 70
1
  0
VERTEX
  8
16
 10
245.0310
 20
122.3710
 30
0.0000
  0
VERTEX
  8
16
 10
247.3788
 20
120.0232
 30
0.0000
 42
1.0000
  0
VERTEX
  8
16
 10
248.2768
 20
120.9212
 30
0.0000
  0
VERTEX
  8
16
 10
245.9290
 20
123.2690
 30
0.0000
 42
1.0000
  0
SEQEND
  8
0
  0
POLYLINE
  8
16
 66
1
 10
0.0000
 20
0.0000
 30
0.0000
 40
0.0000
 41
0.0000
 70
1
  0
VERTEX
  8
16
 10
248.2850
 20
60.9600
 30
0.0000
  0
VERTEX
  8
16
 10
248.2850
 20
67.9450
 30
0.0000
 42
1.0000
  0
VERTEX
  8
16
 10
247.0150
 20
67.9450
 30
0.0000
  0
VERTEX
  8
16
 10
247.0150
 20
60.9600
 30
0.0000
 42
1.0000
  0
SEQEND
  8
0
  0
POLYLINE
  8
16
 66
1
 10
0.0000
 20
0.0000
 30
0.0000
 40
0.0000
 41
0.0000
 70
1
  0
VERTEX
  8
16
 10
251.4600
 20
112.3950
 30
0.0000
  0
VERTEX
  8
16
 10
249.5550
 20
112.3950
 30
0.0000
 42
1.0000
  0
VERTEX
  8
16
 10
249.5550
 20
111.1250
 30
0.0000
  0
VERTEX
  8
16
 10
251.4600
 20
111.1250
 30
0.0000
 42
1.0000
  0
SEQEND
  8
0
  0
POLYLINE
  8
16
 66
1
 10
0.0000
 20
0.0000
 30
0.0000
 40
0.0000
 41
0.0000
 70
1
  0
VERTEX
  8
16
 10
249.1060
 20
112.2090
 30
0.0000
  0
VERTEX
  8
16
 10
247.2010
 20
110.3040
 30
0.0000
 42
1.0000
  0
VERTEX
  8
16
 10
248.0990
 20
109.4060
 30
0.0000
  0
VERTEX
  8
16
 10
250.0040
 20
111.3110
 30
0.0000
 42
1.0000
  0
SEQEND
  8
0
  0
POLYLINE
  8
16
 66
1
 10
0.0000
 20
0.0000
 30
0.0000
 40
0.0000
 41
0.0000
 70
1
  0
VERTEX
  8
16
 10
248.2850
 20
75.5650
 30
0.0000
  0
VERTEX
  8
16
 10
248.2850
 20
109.8550
 30
0.0000
 42
1.0000
  0
VERTEX
  8
16
 10
247.0150
 20
109.8550
 30
0.0000
  0
VERTEX
  8
16
 10
247.0150
 20
75.5650
 30
0.0000
 42
1.0000
  0
SEQEND
  8
0
  0
POLYLINE
  8
16
 66
1
 10
0.0000
 20
0.0000
 30
0.0000
 40
0.0000
 41
0.0000
 70
1
  0
VERTEX
  8
16
 10
248.0990
 20
67.4960
 30
0.0000
  0
VERTEX
  8
16
 10
248.7340
 20
68.1310
 30
0.0000
 42
1.0000
  0
VERTEX
  8
16
 10
247.8360
 20
69.0290
 30
0.0000
  0
VERTEX
  8
16
 10
247.2010
 20
68.3940
 30
0.0000
 42
1.0000
  0
SEQEND
  8
0
  0
POLYLINE
  8
16
 66
1
 10
0.0000
 20
0.0000
 30
0.0000
 40
0.0000
 41
0.0000
 70
1
  0
VERTEX
  8
16
 10
248.2850
 20
67.9450
 30
0.0000
  0
VERTEX
  8
16
 10
250.1900
 20
67.9450
 30
0.0000
 42
1.0000
  0
VERTEX
  8
16
 10
250.1900
 20
69.2150
 30
0.0000
  0
VERTEX
  8
16
 10
248.2850
 20
69.2150
 30
0.0000
 42
1.0000
  0
SEQEND
  8
0
  0
POLYLINE
  8
16
 66
1
 10
0.0000
 20
0.0000
 30
0.0000
 40
0.0000
 41
0.0000
 70
1
  0
VERTEX
  8
16
 10
250.6390
 20
68.1310
 30
0.0000
  0
VERTEX
  8
16
 10
251.2740
 20
68.7660
 30
0.0000
 42
1.0000
  0
VERTEX
  8
16
 10
250.3760
 20
69.6640
 30
0.0000
  0
VERTEX
  8
16
 10
249.7410
 20
69.0290
 30
0.0000
 42
1.0000
  0
SEQEND
  8
0
  0
POLYLINE
  8
16
 66
1
 10
0.0000
 20
0.0000
 30
0.0000
 40
0.0000
 41
0.0000
 70
1
  0
VERTEX
  8
16
 10
251.4600
 20
69.2150
 30
0.0000
  0
VERTEX
  8
16
 10
251.4600
 20
72.3900
 30
0.0000
 42
1.0000
  0
VERTEX
  8
16
 10
250.1900
 20
72.3900
 30
0.0000
  0
VERTEX
  8
16
 10
250.1900
 20
69.2150
 30
0.0000
 42
1.0000
  0
SEQEND
  8
0
  0
POLYLINE
  8
16
 66
1
 10
0.0000
 20
0.0000
 30
0.0000
 40
0.0000
 41
0.0000
 70
1
  0
VERTEX
  8
16
 10
251.2740
 20
72.8390
 30
0.0000
  0
VERTEX
  8
16
 10
248.0990
 20
76.0140
 30
0.0000
 42
1.0000
  0
VERTEX
  8
16
 10
247.2010
 20
75.1160
 30
0.0000
  0
VERTEX
  8
16
 10
250.3760
 20
71.9410
 30
0.0000
 42
1.0000
  0
SEQEND
  8
0
  0
POLYLINE
  8
16
 66
1
 10
0.0000
 20
0.0000
 30
0.0000
 40
0.0000
 41
0.0000
 70
1
  0
VERTEX
  8
16
 10
243.2050
 20
60.9600
 30
0.0000
  0
VERTEX
  8
16
 10
243.2050
 20
67.9450
 30
0.0000
 42
1.0000
  0
VERTEX
  8
16
 10
241.9350
 20
67.9450
 30
0.0000
  0
VERTEX
  8
16
 10
241.9350
 20
60.9600
 30
0.0000
 42
1.0000
  0
SEQEND
  8
0
  0
POLYLINE
  8
16
 66
1
 10
0.0000
 20
0.0000
 30
0.0000
 40
0.0000
 41
0.0000
 70
1
  0
VERTEX
  8
16
 10
215.2650
 20
78.7400
 30
0.0000
  0
VERTEX
  8
16
 10
215.2650
 20
84.4550
 30
0.0000
 42
1.0000
  0
VERTEX
  8
16
 10
213.9950
 20
84.4550
 30
0.0000
  0
VERTEX
  8
16
 10
213.9950
 20
78.7400
 30
0.0000
 42
1.0000
  0
SEQEND
  8
0
  0
POLYLINE
  8
16
 66
1
 10
0.0000
 20
0.0000
 30
0.0000
 40
0.0000
 41
0.0000
 70
1
  0
VERTEX
  8
16
 10
242.5700
 20
68.5800
 30
0.0000
  0
VERTEX
  8
16
 10
232.4100
 20
68.5800
 30
0.0000
 42
1.0000
  0
VERTEX
  8
16
 10
232.4100
 20
67.3100
 30
0.0000
  0
VERTEX
  8
16
 10
242.5700
 20
67.3100
 30
0.0000
 42
1.0000
  0
SEQEND
  8
0
  0
POLYLINE
  8
16
 66
1
 10
0.0000
 20
0.0000
 30
0.0000
 40
0.0000
 41
0.0000
 70
1
  0
VERTEX
  8
16
 10
232.8590
 20
68.3940
 30
0.0000
  0
VERTEX
  8
16
 10
230.3190
 20
70.9340
 30
0.0000
 42
1.0000
  0
VERTEX
  8
16
 10
229.4210
 20
70.0360
 30
0.0000
  0
VERTEX
  8
16
 10
231.9610
 20
67.4960
 30
0.0000
 42
1.0000
  0
SEQEND
  8
0
  0
POLYLINE
  8
16
 66
1
 10
0.0000
 20
0.0000
 30
0.0000
 40
0.0000
 41
0.0000
 70
1
  0
VERTEX
  8
16
 10
215.2650
 20
105.4100
 30
0.0000
  0
VERTEX
  8
16
 10
215.2650
 20
111.7600
 30
0.0000
 42
1.0000
  0
VERTEX
  8
16
 10
213.9950
 20
111.7600
 30
0.0000
  0
VERTEX
  8
16
 10
213.9950
 20
105.4100
 30
0.0000
 42
1.0000
  0
SEQEND
  8
0
  0
POLYLINE
  8
16
 66
1
 10
0.0000
 20
0.0000
 30
0.0000
 40
0.0000
 41
0.0000
 70
1
  0
VERTEX
  8
16
 10
192.5910
 20
127.1860
 30
0.0000
  0
VERTEX
  8
16
 10
195.7660
 20
124.0110
 30
0.0000
 42
1.0000
  0
VERTEX
  8
16
 10
196.6640
 20
124.9090
 30
0.0000
  0
VERTEX
  8
16
 10
193.4890
 20
128.0840
 30
0.0000
 42
1.0000
  0
SEQEND
  8
0
  0
POLYLINE
  8
16
 66
1
 10
0.0000
 20
0.0000
 30
0.0000
 40
0.0000
 41
0.0000
 70
1
  0
VERTEX
  8
16
 10
196.2150
 20
123.8250
 30
0.0000
  0
VERTEX
  8
16
 10
205.7400
 20
123.8250
 30
0.0000
 42
1.0000
  0
VERTEX
  8
16
 10
205.7400
 20
125.0950
 30
0.0000
  0
VERTEX
  8
16
 10
196.2150
 20
125.0950
 30
0.0000
 42
1.0000
  0
SEQEND
  8
0
  0
POLYLINE
  8
16
 66
1
 10
0.0000
 20
0.0000
 30
0.0000
 40
0.0000
 41
0.0000
 70
1
  0
VERTEX
  8
16
 10
205.2910
 20
124.0110
 30
0.0000
  0
VERTEX
  8
16
 10
208.4660
 20
120.8360
 30
0.0000
 42
1.0000
  0
VERTEX
  8
16
 10
209.3640
 20
121.7340
 30
0.0000
  0
VERTEX
  8
16
 10
206.1890
 20
124.9090
 30
0.0000
 42
1.0000
  0
SEQEND
  8
0
  0
POLYLINE
  8
16
 66
1
 10
0.0000
 20
0.0000
 30
0.0000
 40
0.0000
 41
0.0000
 70
1
  0
VERTEX
  8
16
 10
208.2800
 20
121.2850
 30
0.0000
  0
VERTEX
  8
16
 10
208.2800
 20
117.4750
 30
0.0000
 42
1.0000
  0
VERTEX
  8
16
 10
209.5500
 20
117.4750
 30
0.0000
  0
VERTEX
  8
16
 10
209.5500
 20
121.2850
 30
0.0000
 42
1.0000
  0
SEQEND
  8
0
  0
POLYLINE
  8
16
 66
1
 10
0.0000
 20
0.0000
 30
0.0000
 40
0.0000
 41
0.0000
 70
1
  0
VERTEX
  8
16
 10
235.5850
 20
129.5400
 30
0.0000
  0
VERTEX
  8
16
 10
235.5850
 20
121.2850
 30
0.0000
 42
1.0000
  0
VERTEX
  8
16
 10
236.8550
 20
121.2850
 30
0.0000
  0
VERTEX
  8
16
 10
236.8550
 20
129.5400
 30
0.0000
 42
1.0000
  0
SEQEND
  8
0
  0
POLYLINE
  8
16
 66
1
 10
0.0000
 20
0.0000
 30
0.0000
 40
0.0000
 41
0.0000
 70
1
  0
VERTEX
  8
16
 10
236.8550
 20
129.5400
 30
0.0000
  0
VERTEX
  8
16
 10
236.8550
 20
133.3500
 30
0.0000
 42
1.0000
  0
VERTEX
  8
16
 10
235.5850
 20
133.3500
 30
0.0000
  0
VERTEX
  8
16
 10
235.5850
 20
129.5400
 30
0.0000
 42
1.0000
  0
SEQEND
  8
0
  0
POLYLINE
  8
16
 66
1
 10
0.0000
 20
0.0000
 30
0.0000
 40
0.0000
 41
0.0000
 70
1
  0
VERTEX
  8
16
 10
236.6690
 20
133.7990
 30
0.0000
  0
VERTEX
  8
16
 10
234.1290
 20
136.3390
 30
0.0000
 42
1.0000
  0
VERTEX
  8
16
 10
233.2310
 20
135.4410
 30
0.0000
  0
VERTEX
  8
16
 10
235.7710
 20
132.9010
 30
0.0000
 42
1.0000
  0
SEQEND
  8
0
  0
POLYLINE
  8
16
 66
1
 10
0.0000
 20
0.0000
 30
0.0000
 40
0.0000
 41
0.0000
 70
1
  0
VERTEX
  8
16
 10
225.4250
 20
135.2550
 30
0.0000
  0
VERTEX
  8
16
 10
233.6800
 20
135.2550
 30
0.0000
 42
1.0000
  0
VERTEX
  8
16
 10
233.6800
 20
136.5250
 30
0.0000
  0
VERTEX
  8
16
 10
225.4250
 20
136.5250
 30
0.0000
 42
1.0000
  0
SEQEND
  8
0
  0
POLYLINE
  8
16
 66
1
 10
0.0000
 20
0.0000
 30
0.0000
 40
0.0000
 41
0.0000
 70
1
  0
VERTEX
  8
16
 10
224.1550
 20
125.0950
 30
0.0000
  0
VERTEX
  8
16
 10
220.9800
 20
125.0950
 30
0.0000
 42
1.0000
  0
VERTEX
  8
16
 10
220.9800
 20
123.8250
 30
0.0000
  0
VERTEX
  8
16
 10
224.1550
 20
123.8250
 30
0.0000
 42
1.0000
  0
SEQEND
  8
0
  0
POLYLINE
  8
16
 66
1
 10
0.0000
 20
0.0000
 30
0.0000
 40
0.0000
 41
0.0000
 70
1
  0
VERTEX
  8
16
 10
221.4290
 20
124.9090
 30
0.0000
  0
VERTEX
  8
16
 10
220.1590
 20
126.1790
 30
0.0000
 42
1.0000
  0
VERTEX
  8
16
 10
219.2610
 20
125.2810
 30
0.0000
  0
VERTEX
  8
16
 10
220.5310
 20
124.0110
 30
0.0000
 42
1.0000
  0
SEQEND
  8
0
  0
POLYLINE
  8
16
 66
1
 10
0.0000
 20
0.0000
 30
0.0000
 40
0.0000
 41
0.0000
 70
1
  0
VERTEX
  8
16
 10
220.3450
 20
125.7300
 30
0.0000
  0
VERTEX
  8
16
 10
220.3450
 20
130.1750
 30
0.0000
 42
1.0000
  0
VERTEX
  8
16
 10
219.0750
 20
130.1750
 30
0.0000
  0
VERTEX
  8
16
 10
219.0750
 20
125.7300
 30
0.0000
 42
1.0000
  0
SEQEND
  8
0
  0
POLYLINE
  8
16
 66
1
 10
0.0000
 20
0.0000
 30
0.0000
 40
0.0000
 41
0.0000
 70
1
  0
VERTEX
  8
16
 10
220.1590
 20
129.7260
 30
0.0000
  0
VERTEX
  8
16
 10
225.8740
 20
135.4410
 30
0.0000
 42
1.0000
  0
VERTEX
  8
16
 10
224.9760
 20
136.3390
 30
0.0000
  0
VERTEX
  8
16
 10
219.2610
 20
130.6240
 30
0.0000
 42
1.0000
  0
SEQEND
  8
0
  0
ENDSEC
  0
EOF
