  0
SECTION
  2
HEADER
  9
$ACADVER
  1
AC1009
  9
$DWGCODEPAGE
  3
ansi_1252
  9
$INSBASE
 10
0.0
 20
0.0
 30
0.0
  9
$EXTMIN
 10
130.111017755315
 20
-0.0762261110119095
 30
0.0
  9
$EXTMAX
 10
250.9134699773388
 20
14.04622611101191
 30
0.0
  9
$LIMMIN
 10
0.0
 20
0.0
  9
$LIMMAX
 10
12.0
 20
9.0
  9
$ORTHOMODE
 70
     0
  9
$REGENMODE
 70
     1
  9
$FILLMODE
 70
     1
  9
$QTEXTMODE
 70
     0
  9
$MIRRTEXT
 70
     1
  9
$DRAGMODE
 70
     2
  9
$LTSCALE
 40
1.0
  9
$OSMODE
 70
    37
  9
$ATTMODE
 70
     1
  9
$TEXTSIZE
 40
0.2
  9
$TRACEWID
 40
0.05
  9
$TEXTSTYLE
  7
STANDARD
  9
$CLAYER
  8
0
  9
$CELTYPE
  6
BYLAYER
  9
$CECOLOR
 62
   256
  9
$DIMSCALE
 40
1.0
  9
$DIMASZ
 40
0.18
  9
$DIMEXO
 40
0.0625
  9
$DIMDLI
 40
0.38
  9
$DIMRND
 40
0.0
  9
$DIMDLE
 40
0.0
  9
$DIMEXE
 40
0.18
  9
$DIMTP
 40
0.0
  9
$DIMTM
 40
0.0
  9
$DIMTXT
 40
0.18
  9
$DIMCEN
 40
0.09
  9
$DIMTSZ
 40
0.0
  9
$DIMTOL
 70
     0
  9
$DIMLIM
 70
     0
  9
$DIMTIH
 70
     1
  9
$DIMTOH
 70
     1
  9
$DIMSE1
 70
     0
  9
$DIMSE2
 70
     0
  9
$DIMTAD
 70
     0
  9
$DIMZIN
 70
     0
  9
$DIMBLK
  1

  9
$DIMASO
 70
     1
  9
$DIMSHO
 70
     1
  9
$DIMPOST
  1

  9
$DIMAPOST
  1

  9
$DIMALT
 70
     0
  9
$DIMALTD
 70
     2
  9
$DIMALTF
 40
25.4
  9
$DIMLFAC
 40
1.0
  9
$DIMTOFL
 70
     0
  9
$DIMTVP
 40
0.0
  9
$DIMTIX
 70
     0
  9
$DIMSOXD
 70
     0
  9
$DIMSAH
 70
     0
  9
$DIMBLK1
  1

  9
$DIMBLK2
  1

  9
$DIMSTYLE
  2
STANDARD
  9
$DIMCLRD
 70
     0
  9
$DIMCLRE
 70
     0
  9
$DIMCLRT
 70
     0
  9
$DIMTFAC
 40
1.0
  9
$DIMGAP
 40
0.09
  9
$LUNITS
 70
     2
  9
$LUPREC
 70
     3
  9
$SKETCHINC
 40
0.1
  9
$FILLETRAD
 40
0.5
  9
$AUNITS
 70
     0
  9
$AUPREC
 70
     0
  9
$MENU
  1
.
  9
$ELEVATION
 40
0.0
  9
$PELEVATION
 40
0.0
  9
$THICKNESS
 40
0.0
  9
$LIMCHECK
 70
     0
  9
$CHAMFERA
 40
0.0
  9
$CHAMFERB
 40
0.0
  9
$SKPOLY
 70
     0
  9
$TDCREATE
 40
2458178.579924514
  9
$TDUPDATE
 40
2458178.579944259
  9
$TDINDWG
 40
0.0000000116
  9
$TDUSRTIMER
 40
0.0000000116
  9
$USRTIMER
 70
     1
  9
$ANGBASE
 50
0.0
  9
$ANGDIR
 70
     0
  9
$PDMODE
 70
     0
  9
$PDSIZE
 40
0.0
  9
$PLINEWID
 40
0.0
  9
$COORDS
 70
     1
  9
$SPLFRAME
 70
     0
  9
$SPLINETYPE
 70
     6
  9
$SPLINESEGS
 70
     8
  9
$ATTDIA
 70
     0
  9
$ATTREQ
 70
     1
  9
$HANDLING
 70
     1
  9
$HANDSEED
  5
167
  9
$SURFTAB1
 70
     6
  9
$SURFTAB2
 70
     6
  9
$SURFTYPE
 70
     6
  9
$SURFU
 70
     6
  9
$SURFV
 70
     6
  9
$UCSNAME
  2

  9
$UCSORG
 10
0.0
 20
0.0
 30
0.0
  9
$UCSXDIR
 10
1.0
 20
0.0
 30
0.0
  9
$UCSYDIR
 10
0.0
 20
1.0
 30
0.0
  9
$PUCSNAME
  2

  9
$PUCSORG
 10
0.0
 20
0.0
 30
0.0
  9
$PUCSXDIR
 10
1.0
 20
0.0
 30
0.0
  9
$PUCSYDIR
 10
0.0
 20
1.0
 30
0.0
  9
$USERI1
 70
     0
  9
$USERI2
 70
     0
  9
$USERI3
 70
     0
  9
$USERI4
 70
     0
  9
$USERI5
 70
     0
  9
$USERR1
 40
0.0
  9
$USERR2
 40
0.0
  9
$USERR3
 40
0.0
  9
$USERR4
 40
0.0
  9
$USERR5
 40
0.0
  9
$WORLDVIEW
 70
     1
  9
$SHADEDGE
 70
     3
  9
$SHADEDIF
 70
    70
  9
$TILEMODE
 70
     1
  9
$MAXACTVP
 70
    64
  9
$PLIMCHECK
 70
     0
  9
$PEXTMIN
 10
1.000000000000000E+20
 20
1.000000000000000E+20
 30
1.000000000000000E+20
  9
$PEXTMAX
 10
-1.000000000000000E+20
 20
-1.000000000000000E+20
 30
-1.000000000000000E+20
  9
$PLIMMIN
 10
0.0
 20
0.0
  9
$PLIMMAX
 10
12.0
 20
9.0
  9
$UNITMODE
 70
     0
  9
$VISRETAIN
 70
     1
  9
$PLINEGEN
 70
     0
  9
$PSLTSCALE
 70
     1
  0
ENDSEC
  0
SECTION
  2
TABLES
  0
TABLE
  2
VPORT
 70
     1
  0
VPORT
  2
*ACTIVE
 70
     0
 10
0.0
 20
0.0
 11
1.0
 21
1.0
 12
190.5122438663269
 22
6.984999999999999
 13
0.0
 23
0.0
 14
0.5
 24
0.5
 15
0.5
 25
0.5
 16
0.0
 26
0.0
 36
1.0
 17
0.0
 27
0.0
 37
0.0
 40
14.40490126646429
 41
8.553928901500099
 42
50.0
 43
0.0
 44
0.0
 50
0.0
 51
0.0
 71
     0
 72
   100
 73
     1
 74
     3
 75
     0
 76
     0
 77
     0
 78
     0
  0
ENDTAB
  0
TABLE
  2
LTYPE
 70
     1
  0
LTYPE
  2
CONTINUOUS
 70
     0
  3
Solid line
 72
    65
 73
     0
 40
0.0
  0
ENDTAB
  0
TABLE
  2
LAYER
 70
     4
  0
LAYER
  2
0
 70
     0
 62
     7
  6
CONTINUOUS
  0
LAYER
  2
20
 70
     0
 62
    30
  6
CONTINUOUS
  0
LAYER
  2
44
 70
     0
 62
     4
  6
CONTINUOUS
  0
LAYER
  2
16
 70
     0
 62
   177
  6
CONTINUOUS
  0
ENDTAB
  0
TABLE
  2
STYLE
 70
     1
  0
STYLE
  2
STANDARD
 70
     0
 40
0.0
 41
1.0
 50
0.0
 71
     0
 42
0.2
  3
txt
  4

  0
ENDTAB
  0
TABLE
  2
VIEW
 70
     0
  0
ENDTAB
  0
TABLE
  2
UCS
 70
     0
  0
ENDTAB
  0
TABLE
  2
APPID
 70
     1
  0
APPID
  2
ACAD
 70
     0
  0
ENDTAB
  0
TABLE
  2
DIMSTYLE
 70
     1
  0
DIMSTYLE
  2
STANDARD
 70
     0
  3

  4

  5

  6

  7

 40
1.0
 41
0.18
 42
0.0625
 43
0.38
 44
0.18
 45
0.0
 46
0.0
 47
0.0
 48
0.0
140
0.18
141
0.09
142
0.0
143
25.4
144
1.0
145
0.0
146
1.0
147
0.09
 71
     0
 72
     0
 73
     1
 74
     1
 75
     0
 76
     0
 77
     0
 78
     0
170
     0
171
     2
172
     0
173
     0
174
     0
175
     0
176
     0
177
     0
178
     0
  0
ENDTAB
  0
ENDSEC
  0
SECTION
  2
BLOCKS
  0
BLOCK
  8
0
  2
$MODEL_SPACE
 70
     0
 10
0.0
 20
0.0
 30
0.0
  3
$MODEL_SPACE
  1

  0
ENDBLK
  5
21
  8
0
  0
BLOCK
 67
     1
  8
0
  2
$PAPER_SPACE
 70
     0
 10
0.0
 20
0.0
 30
0.0
  3
$PAPER_SPACE
  1

  0
ENDBLK
  5
1D
 67
     1
  8
0
  0
ENDSEC
  0
SECTION
  2
ENTITIES
  0
POLYLINE
  5
6B
  8
20
 66
     1
 10
0.0
 20
0.0
 30
0.0
  0
VERTEX
  5
6C
  8
20
 10
250.7610438663269
 20
2.54
 30
0.0
  0
VERTEX
  5
6D
  8
20
 10
250.7610438663269
 20
11.43
 30
0.0
 42
-0.9999999999998134
  0
VERTEX
  5
6E
  8
20
 10
250.9134438663269
 20
11.43
 30
0.0
  0
VERTEX
  5
6F
  8
20
 10
250.9134438663269
 20
2.54
 30
0.0
 42
-0.9999999999998134
  0
VERTEX
  5
70
  8
20
 10
250.7610438663269
 20
2.54
 30
0.0
  0
SEQEND
  5
71
  8
20
  0
POLYLINE
  5
72
  8
20
 66
     1
 10
0.0
 20
0.0
 30
0.0
  0
VERTEX
  5
73
  8
20
 10
250.7833438663269
 20
11.3761
 30
0.0
  0
VERTEX
  5
74
  8
20
 10
248.2433438663269
 20
13.9161
 30
0.0
 42
-0.9999999999999999
  0
VERTEX
  5
75
  8
20
 10
248.3511438663269
 20
14.0239
 30
0.0
  0
VERTEX
  5
76
  8
20
 10
250.8911438663269
 20
11.4839
 30
0.0
 42
-1.000000000000016
  0
VERTEX
  5
77
  8
20
 10
250.7833438663269
 20
11.3761
 30
0.0
  0
SEQEND
  5
78
  8
20
  0
POLYLINE
  5
79
  8
20
 66
     1
 10
0.0
 20
0.0
 30
0.0
  0
VERTEX
  5
7A
  8
20
 10
248.2972438663269
 20
13.8938
 30
0.0
  0
VERTEX
  5
7B
  8
20
 10
132.7272438663269
 20
13.8938
 30
0.0
 42
-1.000000000000187
  0
VERTEX
  5
7C
  8
20
 10
132.7272438663269
 20
14.0462
 30
0.0
  0
VERTEX
  5
7D
  8
20
 10
248.2972438663269
 20
14.0462
 30
0.0
 42
-1.000000000000187
  0
VERTEX
  5
7E
  8
20
 10
248.2972438663269
 20
13.8938
 30
0.0
  0
SEQEND
  5
7F
  8
20
  0
POLYLINE
  5
80
  8
20
 66
     1
 10
0.0
 20
0.0
 30
0.0
  0
VERTEX
  5
81
  8
20
 10
132.7811438663269
 20
13.9161
 30
0.0
  0
VERTEX
  5
82
  8
20
 10
130.2411438663269
 20
11.37610000000003
 30
0.0
 42
-1.000000000000363
  0
VERTEX
  5
83
  8
20
 10
130.1333438663269
 20
11.4839
 30
0.0
  0
VERTEX
  5
84
  8
20
 10
132.6733438663269
 20
14.0239
 30
0.0
 42
-0.9999999999999999
  0
VERTEX
  5
85
  8
20
 10
132.7811438663269
 20
13.9161
 30
0.0
  0
SEQEND
  5
86
  8
20
  0
POLYLINE
  5
87
  8
20
 66
     1
 10
0.0
 20
0.0
 30
0.0
  0
VERTEX
  5
88
  8
20
 10
130.2634438663269
 20
11.43
 30
0.0
  0
VERTEX
  5
89
  8
20
 10
130.2634438663269
 20
2.54
 30
0.0
 42
-1.000000000000187
  0
VERTEX
  5
8A
  8
20
 10
130.1110438663269
 20
2.54
 30
0.0
  0
VERTEX
  5
8B
  8
20
 10
130.1110438663269
 20
11.43
 30
0.0
 42
-1.000000000000187
  0
VERTEX
  5
8C
  8
20
 10
130.2634438663269
 20
11.43
 30
0.0
  0
SEQEND
  5
8D
  8
20
  0
POLYLINE
  5
8E
  8
20
 66
     1
 10
0.0
 20
0.0
 30
0.0
  0
VERTEX
  5
8F
  8
20
 10
130.2411438663269
 20
2.5939
 30
0.0
  0
VERTEX
  5
90
  8
20
 10
132.7811438663269
 20
0.0539000000000005
 30
0.0
 42
-1.000000000000012
  0
VERTEX
  5
91
  8
20
 10
132.6733438663269
 20
-0.0539
 30
0.0
  0
VERTEX
  5
92
  8
20
 10
130.1333438663269
 20
2.486099999999999
 30
0.0
 42
-1.000000000000012
  0
VERTEX
  5
93
  8
20
 10
130.2411438663269
 20
2.5939
 30
0.0
  0
SEQEND
  5
94
  8
20
  0
POLYLINE
  5
95
  8
20
 66
     1
 10
0.0
 20
0.0
 30
0.0
  0
VERTEX
  5
96
  8
20
 10
132.7272438663269
 20
0.0762
 30
0.0
  0
VERTEX
  5
97
  8
20
 10
248.2972438663269
 20
0.0762
 30
0.0
 42
-1.000000000000187
  0
VERTEX
  5
98
  8
20
 10
248.2972438663269
 20
-0.0762
 30
0.0
  0
VERTEX
  5
99
  8
20
 10
132.7272438663269
 20
-0.0762
 30
0.0
 42
-1.000000000000187
  0
VERTEX
  5
9A
  8
20
 10
132.7272438663269
 20
0.0762
 30
0.0
  0
SEQEND
  5
9B
  8
20
  0
POLYLINE
  5
9C
  8
20
 66
     1
 10
0.0
 20
0.0
 30
0.0
  0
VERTEX
  5
9D
  8
20
 10
248.2433438663269
 20
0.0539
 30
0.0
  0
VERTEX
  5
9E
  8
20
 10
250.783343866327
 20
2.593899999999971
 30
0.0
 42
-1.000000000000379
  0
VERTEX
  5
9F
  8
20
 10
250.8911438663269
 20
2.4861
 30
0.0
  0
VERTEX
  5
A0
  8
20
 10
248.3511438663269
 20
-0.0538999999999991
 30
0.0
 42
-0.9999999999999881
  0
VERTEX
  5
A1
  8
20
 10
248.2433438663269
 20
0.0539
 30
0.0
  0
SEQEND
  5
A2
  8
20
  0
CIRCLE
  5
A3
  8
20
 10
-245.7572438663269
 20
6.35
 30
0.0
 40
1.8
210
0.0
220
0.0
230
-1.0
  0
CIRCLE
  5
A4
  8
20
 10
-135.2672438663269
 20
6.35
 30
0.0
 40
1.8
210
0.0
220
0.0
230
-1.0
  0
CIRCLE
  5
A6
  8
44
 10
-146.8750438663269
 20
5.08
 30
0.0
 40
0.6
210
0.0
220
0.0
230
-1.0
  0
CIRCLE
  5
A7
  8
44
 10
-143.0194438663269
 20
5.08
 30
0.0
 40
0.6
210
0.0
220
0.0
230
-1.0
  0
CIRCLE
  5
A8
  8
44
 10
-158.3050438663269
 20
5.08
 30
0.0
 40
0.6
210
0.0
220
0.0
230
-1.0
  0
CIRCLE
  5
A9
  8
44
 10
-154.4494438663269
 20
5.08
 30
0.0
 40
0.6
210
0.0
220
0.0
230
-1.0
  0
CIRCLE
  5
AA
  8
44
 10
-169.7350438663269
 20
5.08
 30
0.0
 40
0.6
210
0.0
220
0.0
230
-1.0
  0
CIRCLE
  5
AB
  8
44
 10
-165.8794438663269
 20
5.08
 30
0.0
 40
0.6
210
0.0
220
0.0
230
-1.0
  0
CIRCLE
  5
AC
  8
44
 10
-181.1650438663269
 20
5.08
 30
0.0
 40
0.6
210
0.0
220
0.0
230
-1.0
  0
CIRCLE
  5
AD
  8
44
 10
-177.3094438663269
 20
5.08
 30
0.0
 40
0.6
210
0.0
220
0.0
230
-1.0
  0
CIRCLE
  5
AE
  8
44
 10
-192.5950438663269
 20
5.08
 30
0.0
 40
0.6
210
0.0
220
0.0
230
-1.0
  0
CIRCLE
  5
AF
  8
44
 10
-188.7394438663269
 20
5.08
 30
0.0
 40
0.6
210
0.0
220
0.0
230
-1.0
  0
CIRCLE
  5
B0
  8
44
 10
-204.0250438663269
 20
5.08
 30
0.0
 40
0.6
210
0.0
220
0.0
230
-1.0
  0
CIRCLE
  5
B1
  8
44
 10
-200.1694438663269
 20
5.08
 30
0.0
 40
0.6
210
0.0
220
0.0
230
-1.0
  0
CIRCLE
  5
B2
  8
44
 10
-215.4550438663269
 20
5.08
 30
0.0
 40
0.6
210
0.0
220
0.0
230
-1.0
  0
CIRCLE
  5
B3
  8
44
 10
-211.5994438663269
 20
5.08
 30
0.0
 40
0.6
210
0.0
220
0.0
230
-1.0
  0
CIRCLE
  5
B4
  8
44
 10
-226.8850438663269
 20
5.08
 30
0.0
 40
0.6
210
0.0
220
0.0
230
-1.0
  0
CIRCLE
  5
B5
  8
44
 10
-223.0294438663269
 20
5.08
 30
0.0
 40
0.6
210
0.0
220
0.0
230
-1.0
  0
CIRCLE
  5
B6
  8
44
 10
-234.1494438663269
 20
5.08
 30
0.0
 40
0.6
210
0.0
220
0.0
230
-1.0
  0
CIRCLE
  5
B7
  8
44
 10
-238.0050438663269
 20
5.08
 30
0.0
 40
0.6
210
0.0
220
0.0
230
-1.0
  0
CIRCLE
  5
B8
  8
44
 10
-150.5072438663269
 20
10.16
 30
0.0
 40
0.4064
210
0.0
220
0.0
230
-1.0
  0
CIRCLE
  5
B9
  8
44
 10
-150.5072438663269
 20
2.54
 30
0.0
 40
0.4064
210
0.0
220
0.0
230
-1.0
  0
CIRCLE
  5
BA
  8
44
 10
-161.9372438663269
 20
2.54
 30
0.0
 40
0.4064
210
0.0
220
0.0
230
-1.0
  0
CIRCLE
  5
BB
  8
44
 10
-161.9372438663269
 20
10.16
 30
0.0
 40
0.4064
210
0.0
220
0.0
230
-1.0
  0
CIRCLE
  5
BC
  8
44
 10
-173.3672438663269
 20
2.54
 30
0.0
 40
0.4064
210
0.0
220
0.0
230
-1.0
  0
CIRCLE
  5
BD
  8
44
 10
-173.3672438663269
 20
10.16
 30
0.0
 40
0.4064
210
0.0
220
0.0
230
-1.0
  0
CIRCLE
  5
BE
  8
44
 10
-184.7972438663269
 20
2.54
 30
0.0
 40
0.4064
210
0.0
220
0.0
230
-1.0
  0
CIRCLE
  5
BF
  8
44
 10
-184.7972438663269
 20
10.16
 30
0.0
 40
0.4064
210
0.0
220
0.0
230
-1.0
  0
CIRCLE
  5
C0
  8
44
 10
-196.2272438663269
 20
2.54
 30
0.0
 40
0.4064
210
0.0
220
0.0
230
-1.0
  0
CIRCLE
  5
C1
  8
44
 10
-196.2272438663269
 20
10.16
 30
0.0
 40
0.4064
210
0.0
220
0.0
230
-1.0
  0
CIRCLE
  5
C2
  8
44
 10
-207.6572438663269
 20
2.54
 30
0.0
 40
0.4064
210
0.0
220
0.0
230
-1.0
  0
CIRCLE
  5
C3
  8
44
 10
-207.6572438663269
 20
10.16
 30
0.0
 40
0.4064
210
0.0
220
0.0
230
-1.0
  0
CIRCLE
  5
C4
  8
44
 10
-219.0872438663269
 20
2.54
 30
0.0
 40
0.4064
210
0.0
220
0.0
230
-1.0
  0
CIRCLE
  5
C5
  8
44
 10
-219.0872438663269
 20
10.16
 30
0.0
 40
0.4064
210
0.0
220
0.0
230
-1.0
  0
CIRCLE
  5
C6
  8
44
 10
-230.5172438663269
 20
2.54
 30
0.0
 40
0.4064
210
0.0
220
0.0
230
-1.0
  0
CIRCLE
  5
C7
  8
44
 10
-230.5172438663269
 20
10.16
 30
0.0
 40
0.4064
210
0.0
220
0.0
230
-1.0
  0
POLYLINE
  5
C9
  8
16
 66
     1
 10
0.0
 20
0.0
 30
0.0
  0
VERTEX
  5
CA
  8
16
 10
145.7750438663269
 20
5.08
 30
0.0
 42
-1.088847058559095
  0
VERTEX
  5
CB
  8
16
 10
147.9591808594236
 20
4.893863006903315
 30
0.0
  0
VERTEX
  5
CC
  8
16
 10
149.6384110174731
 20
3.214632848853818
 30
0.0
 42
-3.028700939770437
  0
VERTEX
  5
CD
  8
16
 10
149.609037319924
 20
1.905000000000716
 30
0.0
  0
VERTEX
  5
CE
  8
16
 10
149.415043866327
 20
1.904999999999985
 30
0.0
 42
-0.1988847818697069
  0
VERTEX
  5
CF
  8
16
 10
148.966043866327
 20
2.090999999999973
 30
0.0
  0
VERTEX
  5
D0
  8
16
 10
147.0611808594237
 20
3.995863006903243
 30
0.0
 42
-0.4649389526379809
  0
VERTEX
  5
D1
  8
16
 10
145.775043866327
 20
5.08
 30
0.0
  0
SEQEND
  5
D2
  8
16
  0
POLYLINE
  5
D3
  8
16
 66
     1
 10
0.0
 20
0.0
 30
0.0
  0
VERTEX
  5
D4
  8
16
 10
149.407243866327
 20
10.16
 30
0.0
 42
-0.7314944458745883
  0
VERTEX
  5
D5
  8
16
 10
151.4054504127298
 20
10.79499999999926
 30
0.0
  0
VERTEX
  5
D6
  8
16
 10
161.0390373199236
 20
10.79499999999998
 30
0.0
 42
-0.5176982976384861
  0
VERTEX
  5
D7
  8
16
 10
162.8354504127297
 20
10.79499999999931
 30
0.0
  0
VERTEX
  5
D8
  8
16
 10
172.4690373199235
 20
10.79499999999999
 30
0.0
 42
-0.5176982976384866
  0
VERTEX
  5
D9
  8
16
 10
174.2654504127296
 20
10.79499999999927
 30
0.0
  0
VERTEX
  5
DA
  8
16
 10
183.8990373199235
 20
10.79500000000001
 30
0.0
 42
-0.5176982976384689
  0
VERTEX
  5
DB
  8
16
 10
185.6954504127297
 20
10.79499999999932
 30
0.0
  0
VERTEX
  5
DC
  8
16
 10
195.3290373199235
 20
10.79500000000002
 30
0.0
 42
-0.5176982976384823
  0
VERTEX
  5
DD
  8
16
 10
197.1254504127297
 20
10.79499999999924
 30
0.0
  0
VERTEX
  5
DE
  8
16
 10
206.7590373199236
 20
10.79499999999999
 30
0.0
 42
-0.5176982976384563
  0
VERTEX
  5
DF
  8
16
 10
208.5554504127298
 20
10.79499999999924
 30
0.0
  0
VERTEX
  5
E0
  8
16
 10
218.1890373199236
 20
10.79499999999998
 30
0.0
 42
-0.5176982976384922
  0
VERTEX
  5
E1
  8
16
 10
219.9854504127298
 20
10.79499999999926
 30
0.0
  0
VERTEX
  5
E2
  8
16
 10
229.6190373199236
 20
10.79499999999997
 30
0.0
 42
-0.5176982976385002
  0
VERTEX
  5
E3
  8
16
 10
231.4154504127298
 20
10.79499999999929
 30
0.0
  0
VERTEX
  5
E4
  8
16
 10
236.8672438663269
 20
10.79499999999999
 30
0.0
 42
-0.2008759562273665
  0
VERTEX
  5
E5
  8
16
 10
237.3196350347924
 20
10.6056088314816
 30
0.0
  0
VERTEX
  5
E6
  8
16
 10
238.4540438663269
 20
9.471200000000009
 30
0.0
  0
VERTEX
  5
E7
  8
16
 10
238.4638992345815
 20
9.46112340780736
 30
0.0
  0
VERTEX
  5
E8
  8
16
 10
238.4736140293006
 20
9.450737082188718
 30
0.0
  0
VERTEX
  5
E9
  8
16
 10
238.483175912421
 20
9.4400418509402
 30
0.0
  0
VERTEX
  5
EA
  8
16
 10
238.4925723790922
 20
9.429039120258079
 30
0.0
  0
VERTEX
  5
EB
  8
16
 10
238.5017907876736
 20
9.417730896016584
 30
0.0
  0
VERTEX
  5
EC
  8
16
 10
238.5108183919188
 20
9.406119803452548
 30
0.0
  0
VERTEX
  5
ED
  8
16
 10
238.5196423752776
 20
9.394209105035008
 30
0.0
  0
VERTEX
  5
EE
  8
16
 10
238.5282498872168
 20
9.38200271629839
 30
0.0
  0
VERTEX
  5
EF
  8
16
 10
238.5366280814434
 20
9.369505219420569
 30
0.0
  0
VERTEX
  5
F0
  8
16
 10
238.5447641558852
 20
9.35672187433274
 30
0.0
  0
VERTEX
  5
F1
  8
16
 10
238.5526453942595
 20
9.343658627156081
 30
0.0
  0
VERTEX
  5
F2
  8
16
 10
238.5602592090411
 20
9.330322115771606
 30
0.0
  0
VERTEX
  5
F3
  8
16
 10
238.5675931856112
 20
9.316719672343456
 30
0.0
  0
VERTEX
  5
F4
  8
16
 10
238.5746351273499
 20
9.302859322633113
 30
0.0
  0
VERTEX
  5
F5
  8
16
 10
238.5813731014138
 20
9.288749781961942
 30
0.0
  0
VERTEX
  5
F6
  8
16
 10
238.5877954849186
 20
9.274400447702272
 30
0.0
  0
VERTEX
  5
F7
  8
16
 10
238.5938910112308
 20
9.259821388202793
 30
0.0
  0
VERTEX
  5
F8
  8
16
 10
238.5996488160582
 20
9.245023328082008
 30
0.0
  0
VERTEX
  5
F9
  8
16
 10
238.6050584830152
 20
9.230017629853647
 30
0.0
  0
VERTEX
  5
FA
  8
16
 10
238.6101100883311
 20
9.21481627188012
 30
0.0
  0
VERTEX
  5
FB
  8
16
 10
238.6147942443662
 20
9.199431822683636
 30
0.0
  0
VERTEX
  5
FC
  8
16
 10
238.6191021415949
 20
9.183877411679342
 30
0.0
  0
VERTEX
  5
FD
  8
16
 10
238.6230255887217
 20
9.168166696430191
 30
0.0
  0
VERTEX
  5
FE
  8
16
 10
238.6265570506002
 20
9.152313826558668
 30
0.0
  0
VERTEX
  5
FF
  8
16
 10
238.6296896836375
 20
9.136333404485619
 30
0.0
  0
VERTEX
  5
100
  8
16
 10
238.632417368379
 20
9.120240443200515
 30
0.0
  0
VERTEX
  5
101
  8
16
 10
238.6347347389925
 20
9.10405032130015
 30
0.0
  0
VERTEX
  5
102
  8
16
 10
238.6366372093854
 20
9.0877787355634
 30
0.0
  0
VERTEX
  5
103
  8
16
 10
238.6381209957256
 20
9.071441651357786
 30
0.0
  0
VERTEX
  5
104
  8
16
 10
238.6391831351567
 20
9.055055251198603
 30
0.0
  0
VERTEX
  5
105
  8
16
 10
238.6398215005394
 20
9.038635881803119
 30
0.0
  0
VERTEX
  5
106
  8
16
 10
238.6400433962426
 20
5.978206878736056
 30
0.0
 42
-3.146783389291012
  0
VERTEX
  5
107
  8
16
 10
237.3700438663277
 20
5.97820654640284
 30
0.0
  0
VERTEX
  5
108
  8
16
 10
237.3700438663269
 20
8.759200000000007
 30
0.0
  0
VERTEX
  5
109
  8
16
 10
236.604243866327
 20
9.525000000000007
 30
0.0
  0
VERTEX
  5
10A
  8
16
 10
231.4154504127304
 20
9.525000000000006
 30
0.0
 42
-0.5176982976384868
  0
VERTEX
  5
10B
  8
16
 10
229.6190373199241
 20
9.52500000000073
 30
0.0
  0
VERTEX
  5
10C
  8
16
 10
219.9854504127303
 20
9.525000000000013
 30
0.0
 42
-0.5176982976384583
  0
VERTEX
  5
10D
  8
16
 10
218.189037319924
 20
9.525000000000666
 30
0.0
  0
VERTEX
  5
10E
  8
16
 10
208.5554504127304
 20
9.525000000000006
 30
0.0
 42
-0.5176982976385089
  0
VERTEX
  5
10F
  8
16
 10
206.7590373199241
 20
9.525000000000738
 30
0.0
  0
VERTEX
  5
110
  8
16
 10
197.1254504127303
 20
9.525
 30
0.0
 42
-0.5176982976384801
  0
VERTEX
  5
111
  8
16
 10
195.3290373199241
 20
9.525000000000722
 30
0.0
  0
VERTEX
  5
112
  8
16
 10
185.6954504127304
 20
9.524999999999968
 30
0.0
 42
-0.5176982976384732
  0
VERTEX
  5
113
  8
16
 10
183.8990373199241
 20
9.525000000000675
 30
0.0
  0
VERTEX
  5
114
  8
16
 10
174.2654504127302
 20
9.525000000000027
 30
0.0
 42
-0.517698297638469
  0
VERTEX
  5
115
  8
16
 10
172.4690373199242
 20
9.525000000000693
 30
0.0
  0
VERTEX
  5
116
  8
16
 10
162.8354504127303
 20
9.525000000000002
 30
0.0
 42
-0.5176982976385173
  0
VERTEX
  5
117
  8
16
 10
161.0390373199241
 20
9.525000000000743
 30
0.0
  0
VERTEX
  5
118
  8
16
 10
151.4054504127303
 20
9.525000000000011
 30
0.0
 42
-0.7314944458744409
  0
VERTEX
  5
119
  8
16
 10
149.4072438663269
 20
10.16
 30
0.0
  0
SEQEND
  5
11A
  8
16
  0
POLYLINE
  5
11B
  8
16
 66
     1
 10
0.0
 20
0.0
 30
0.0
  0
VERTEX
  5
11C
  8
16
 10
157.2050438663269
 20
5.08
 30
0.0
 42
-1.088847058559152
  0
VERTEX
  5
11D
  8
16
 10
159.3891808594236
 20
4.893863006903265
 30
0.0
  0
VERTEX
  5
11E
  8
16
 10
161.0684110174731
 20
3.214632848853811
 30
0.0
 42
-3.028700939770432
  0
VERTEX
  5
11F
  8
16
 10
161.0390373199242
 20
1.905000000000706
 30
0.0
  0
VERTEX
  5
120
  8
16
 10
160.845043866327
 20
1.905000000000017
 30
0.0
 42
-0.198884781869595
  0
VERTEX
  5
121
  8
16
 10
160.3960438663269
 20
2.090999999999973
 30
0.0
  0
VERTEX
  5
122
  8
16
 10
158.4911808594237
 20
3.995863006903267
 30
0.0
 42
-0.4649389526379479
  0
VERTEX
  5
123
  8
16
 10
157.205043866327
 20
5.08
 30
0.0
  0
SEQEND
  5
124
  8
16
  0
POLYLINE
  5
125
  8
16
 66
     1
 10
0.0
 20
0.0
 30
0.0
  0
VERTEX
  5
126
  8
16
 10
168.635043866327
 20
5.08
 30
0.0
 42
-1.088847058559123
  0
VERTEX
  5
127
  8
16
 10
170.8191808594237
 20
4.893863006903293
 30
0.0
  0
VERTEX
  5
128
  8
16
 10
172.4984110174731
 20
3.214632848853823
 30
0.0
 42
-3.028700939770464
  0
VERTEX
  5
129
  8
16
 10
172.4690373199242
 20
1.905000000000775
 30
0.0
  0
VERTEX
  5
12A
  8
16
 10
172.275043866327
 20
1.904999999999999
 30
0.0
 42
-0.1988847818696688
  0
VERTEX
  5
12B
  8
16
 10
171.826043866327
 20
2.090999999999993
 30
0.0
  0
VERTEX
  5
12C
  8
16
 10
169.9211808594237
 20
3.995863006903222
 30
0.0
 42
-0.4649389526379984
  0
VERTEX
  5
12D
  8
16
 10
168.6350438663269
 20
5.08
 30
0.0
  0
SEQEND
  5
12E
  8
16
  0
POLYLINE
  5
12F
  8
16
 66
     1
 10
0.0
 20
0.0
 30
0.0
  0
VERTEX
  5
130
  8
16
 10
180.0650438663269
 20
5.08
 30
0.0
 42
-1.088847058559107
  0
VERTEX
  5
131
  8
16
 10
182.2491808594237
 20
4.893863006903272
 30
0.0
  0
VERTEX
  5
132
  8
16
 10
183.9284110174731
 20
3.214632848853819
 30
0.0
 42
-3.028700939770557
  0
VERTEX
  5
133
  8
16
 10
183.8990373199241
 20
1.905000000000717
 30
0.0
  0
VERTEX
  5
134
  8
16
 10
183.7050438663269
 20
1.90500000000001
 30
0.0
 42
-0.1988847818696078
  0
VERTEX
  5
135
  8
16
 10
183.2560438663269
 20
2.090999999999982
 30
0.0
  0
VERTEX
  5
136
  8
16
 10
181.3511808594237
 20
3.995863006903241
 30
0.0
 42
-0.4649389526379406
  0
VERTEX
  5
137
  8
16
 10
180.065043866327
 20
5.08
 30
0.0
  0
SEQEND
  5
138
  8
16
  0
POLYLINE
  5
139
  8
16
 66
     1
 10
0.0
 20
0.0
 30
0.0
  0
VERTEX
  5
13A
  8
16
 10
191.4950438663269
 20
5.08
 30
0.0
 42
-1.088847058559107
  0
VERTEX
  5
13B
  8
16
 10
193.6791808594237
 20
4.893863006903254
 30
0.0
  0
VERTEX
  5
13C
  8
16
 10
195.3584110174732
 20
3.21463284885382
 30
0.0
 42
-3.028700939770265
  0
VERTEX
  5
13D
  8
16
 10
195.3290373199241
 20
1.905000000000644
 30
0.0
  0
VERTEX
  5
13E
  8
16
 10
195.135043866327
 20
1.904999999999987
 30
0.0
 42
-0.1988847818697126
  0
VERTEX
  5
13F
  8
16
 10
194.686043866327
 20
2.091000000000007
 30
0.0
  0
VERTEX
  5
140
  8
16
 10
192.7811808594238
 20
3.995863006903241
 30
0.0
 42
-0.4649389526380072
  0
VERTEX
  5
141
  8
16
 10
191.4950438663269
 20
5.08
 30
0.0
  0
SEQEND
  5
142
  8
16
  0
POLYLINE
  5
143
  8
16
 66
     1
 10
0.0
 20
0.0
 30
0.0
  0
VERTEX
  5
144
  8
16
 10
202.9250438663269
 20
5.08
 30
0.0
 42
-1.088847058559133
  0
VERTEX
  5
145
  8
16
 10
205.1091808594237
 20
4.893863006903227
 30
0.0
  0
VERTEX
  5
146
  8
16
 10
206.7884110174731
 20
3.214632848853813
 30
0.0
 42
-3.028718280525445
  0
VERTEX
  5
147
  8
16
 10
206.7590329903311
 20
1.905006124247918
 30
0.0
 42
-0.2350866264857722
  0
VERTEX
  5
148
  8
16
 10
206.116043866327
 20
2.090999999999988
 30
0.0
  0
VERTEX
  5
149
  8
16
 10
204.2111808594237
 20
3.99586300690323
 30
0.0
 42
-0.464938952637953
  0
VERTEX
  5
14A
  8
16
 10
202.9250438663269
 20
5.08
 30
0.0
  0
SEQEND
  5
14B
  8
16
  0
POLYLINE
  5
14C
  8
16
 66
     1
 10
0.0
 20
0.0
 30
0.0
  0
VERTEX
  5
14D
  8
16
 10
214.3550438663269
 20
5.08
 30
0.0
 42
-1.088847058559161
  0
VERTEX
  5
14E
  8
16
 10
216.5391808594237
 20
4.893863006903227
 30
0.0
  0
VERTEX
  5
14F
  8
16
 10
218.2184110174731
 20
3.214632848853804
 30
0.0
 42
-3.028718280521846
  0
VERTEX
  5
150
  8
16
 10
218.1890329903319
 20
1.905006124246727
 30
0.0
 42
-0.2350866712466126
  0
VERTEX
  5
151
  8
16
 10
217.5460438663269
 20
2.090999999999989
 30
0.0
  0
VERTEX
  5
152
  8
16
 10
215.6411808594237
 20
3.995863006903245
 30
0.0
 42
-0.4649389526379527
  0
VERTEX
  5
153
  8
16
 10
214.3550438663269
 20
5.08
 30
0.0
  0
SEQEND
  5
154
  8
16
  0
POLYLINE
  5
155
  8
16
 66
     1
 10
0.0
 20
0.0
 30
0.0
  0
VERTEX
  5
156
  8
16
 10
225.7850438663269
 20
5.08
 30
0.0
 42
-1.088847058559134
  0
VERTEX
  5
157
  8
16
 10
227.9691808594237
 20
4.893863006903233
 30
0.0
  0
VERTEX
  5
158
  8
16
 10
229.6484110174732
 20
3.214632848853801
 30
0.0
 42
-3.028718280525135
  0
VERTEX
  5
159
  8
16
 10
229.619032990331
 20
1.905006124247843
 30
0.0
 42
-0.2350866264857201
  0
VERTEX
  5
15A
  8
16
 10
228.9760438663269
 20
2.091000000000013
 30
0.0
  0
VERTEX
  5
15B
  8
16
 10
227.0711808594237
 20
3.995863006903213
 30
0.0
 42
-0.4649389526379412
  0
VERTEX
  5
15C
  8
16
 10
225.7850438663269
 20
5.08
 30
0.0
  0
SEQEND
  5
15D
  8
16
  0
ENDSEC
  0
EOF
