  0
SECTION
  2
HEADER
  9
$ACADVER
  1
AC1009
  9
$DWGCODEPAGE
  3
ansi_1252
  9
$INSBASE
 10
0.0
 20
0.0
 30
0.0
  9
$EXTMIN
 10
143.1405342005139
 20
2.644875567156873
 30
0.0
  9
$EXTMAX
 10
265.2129342005139
 20
35.81727556715687
 30
0.0
  9
$LIMMIN
 10
0.0
 20
0.0
  9
$LIMMAX
 10
12.0
 20
9.0
  9
$ORTHOMODE
 70
     0
  9
$REGENMODE
 70
     1
  9
$FILLMODE
 70
     1
  9
$QTEXTMODE
 70
     0
  9
$MIRRTEXT
 70
     1
  9
$DRAGMODE
 70
     2
  9
$LTSCALE
 40
1.0
  9
$OSMODE
 70
    37
  9
$ATTMODE
 70
     1
  9
$TEXTSIZE
 40
0.2
  9
$TRACEWID
 40
0.05
  9
$TEXTSTYLE
  7
STANDARD
  9
$CLAYER
  8
DEFAULT
  9
$CELTYPE
  6
BYLAYER
  9
$CECOLOR
 62
   256
  9
$DIMSCALE
 40
1.0
  9
$DIMASZ
 40
0.18
  9
$DIMEXO
 40
0.0625
  9
$DIMDLI
 40
0.38
  9
$DIMRND
 40
0.0
  9
$DIMDLE
 40
0.0
  9
$DIMEXE
 40
0.18
  9
$DIMTP
 40
0.0
  9
$DIMTM
 40
0.0
  9
$DIMTXT
 40
0.18
  9
$DIMCEN
 40
0.09
  9
$DIMTSZ
 40
0.0
  9
$DIMTOL
 70
     0
  9
$DIMLIM
 70
     0
  9
$DIMTIH
 70
     1
  9
$DIMTOH
 70
     1
  9
$DIMSE1
 70
     0
  9
$DIMSE2
 70
     0
  9
$DIMTAD
 70
     0
  9
$DIMZIN
 70
     0
  9
$DIMBLK
  1

  9
$DIMASO
 70
     1
  9
$DIMSHO
 70
     1
  9
$DIMPOST
  1

  9
$DIMAPOST
  1

  9
$DIMALT
 70
     0
  9
$DIMALTD
 70
     2
  9
$DIMALTF
 40
25.4
  9
$DIMLFAC
 40
1.0
  9
$DIMTOFL
 70
     0
  9
$DIMTVP
 40
0.0
  9
$DIMTIX
 70
     0
  9
$DIMSOXD
 70
     0
  9
$DIMSAH
 70
     0
  9
$DIMBLK1
  1

  9
$DIMBLK2
  1

  9
$DIMSTYLE
  2
STANDARD
  9
$DIMCLRD
 70
     0
  9
$DIMCLRE
 70
     0
  9
$DIMCLRT
 70
     0
  9
$DIMTFAC
 40
1.0
  9
$DIMGAP
 40
0.09
  9
$LUNITS
 70
     2
  9
$LUPREC
 70
     3
  9
$SKETCHINC
 40
0.1
  9
$FILLETRAD
 40
0.5
  9
$AUNITS
 70
     0
  9
$AUPREC
 70
     0
  9
$MENU
  1
.
  9
$ELEVATION
 40
0.0
  9
$PELEVATION
 40
0.0
  9
$THICKNESS
 40
0.0
  9
$LIMCHECK
 70
     0
  9
$CHAMFERA
 40
0.0
  9
$CHAMFERB
 40
0.0
  9
$SKPOLY
 70
     0
  9
$TDCREATE
 40
2458164.660908866
  9
$TDUPDATE
 40
2458164.66092103
  9
$TDINDWG
 40
0.0000000116
  9
$TDUSRTIMER
 40
0.0000000116
  9
$USRTIMER
 70
     1
  9
$ANGBASE
 50
0.0
  9
$ANGDIR
 70
     0
  9
$PDMODE
 70
     0
  9
$PDSIZE
 40
0.0
  9
$PLINEWID
 40
0.0
  9
$COORDS
 70
     1
  9
$SPLFRAME
 70
     0
  9
$SPLINETYPE
 70
     6
  9
$SPLINESEGS
 70
     8
  9
$ATTDIA
 70
     0
  9
$ATTREQ
 70
     1
  9
$HANDLING
 70
     1
  9
$HANDSEED
  5
284
  9
$SURFTAB1
 70
     6
  9
$SURFTAB2
 70
     6
  9
$SURFTYPE
 70
     6
  9
$SURFU
 70
     6
  9
$SURFV
 70
     6
  9
$UCSNAME
  2

  9
$UCSORG
 10
0.0
 20
0.0
 30
0.0
  9
$UCSXDIR
 10
1.0
 20
0.0
 30
0.0
  9
$UCSYDIR
 10
0.0
 20
1.0
 30
0.0
  9
$PUCSNAME
  2

  9
$PUCSORG
 10
0.0
 20
0.0
 30
0.0
  9
$PUCSXDIR
 10
1.0
 20
0.0
 30
0.0
  9
$PUCSYDIR
 10
0.0
 20
1.0
 30
0.0
  9
$USERI1
 70
     0
  9
$USERI2
 70
     0
  9
$USERI3
 70
     0
  9
$USERI4
 70
     0
  9
$USERI5
 70
     0
  9
$USERR1
 40
0.0
  9
$USERR2
 40
0.0
  9
$USERR3
 40
0.0
  9
$USERR4
 40
0.0
  9
$USERR5
 40
0.0
  9
$WORLDVIEW
 70
     1
  9
$SHADEDGE
 70
     3
  9
$SHADEDIF
 70
    70
  9
$TILEMODE
 70
     1
  9
$MAXACTVP
 70
    64
  9
$PLIMCHECK
 70
     0
  9
$PEXTMIN
 10
1.000000000000000E+20
 20
1.000000000000000E+20
 30
1.000000000000000E+20
  9
$PEXTMAX
 10
-1.000000000000000E+20
 20
-1.000000000000000E+20
 30
-1.000000000000000E+20
  9
$PLIMMIN
 10
0.0
 20
0.0
  9
$PLIMMAX
 10
12.0
 20
9.0
  9
$UNITMODE
 70
     0
  9
$VISRETAIN
 70
     1
  9
$PLINEGEN
 70
     0
  9
$PSLTSCALE
 70
     1
  0
ENDSEC
  0
SECTION
  2
TABLES
  0
TABLE
  2
VPORT
 70
     1
  0
VPORT
  2
*ACTIVE
 70
     0
 10
0.0
 20
0.0
 11
1.0
 21
1.0
 12
204.1767342005139
 22
19.23107556715687
 13
0.0
 23
0.0
 14
0.5
 24
0.5
 15
0.5
 25
0.5
 16
0.0
 26
0.0
 36
1.0
 17
0.0
 27
0.0
 37
0.0
 40
33.835848
 41
3.679938744257275
 42
50.0
 43
0.0
 44
0.0
 50
0.0
 51
0.0
 71
     0
 72
   100
 73
     1
 74
     3
 75
     0
 76
     0
 77
     0
 78
     0
  0
ENDTAB
  0
TABLE
  2
LTYPE
 70
     1
  0
LTYPE
  2
CONTINUOUS
 70
     0
  3
Solid line
 72
    65
 73
     0
 40
0.0
  0
ENDTAB
  0
TABLE
  2
LAYER
 70
     4
  0
LAYER
  2
0
 70
     0
 62
     7
  6
CONTINUOUS
  0
LAYER
  2
20
 70
     0
 62
    30
  6
CONTINUOUS
  0
LAYER
  2
44
 70
     0
 62
     4
  6
CONTINUOUS
  0
LAYER
  2
DEFAULT
 70
     0
 62
     7
  6
CONTINUOUS
  0
ENDTAB
  0
TABLE
  2
STYLE
 70
     1
  0
STYLE
  2
STANDARD
 70
     0
 40
0.0
 41
1.0
 50
0.0
 71
     0
 42
0.2
  3
txt
  4

  0
ENDTAB
  0
TABLE
  2
VIEW
 70
     0
  0
ENDTAB
  0
TABLE
  2
UCS
 70
     0
  0
ENDTAB
  0
TABLE
  2
APPID
 70
     1
  0
APPID
  2
ACAD
 70
     0
  0
ENDTAB
  0
TABLE
  2
DIMSTYLE
 70
     1
  0
DIMSTYLE
  2
STANDARD
 70
     0
  3

  4

  5

  6

  7

 40
1.0
 41
0.18
 42
0.0625
 43
0.38
 44
0.18
 45
0.0
 46
0.0
 47
0.0
 48
0.0
140
0.18
141
0.09
142
0.0
143
25.4
144
1.0
145
0.0
146
1.0
147
0.09
 71
     0
 72
     0
 73
     1
 74
     1
 75
     0
 76
     0
 77
     0
 78
     0
170
     0
171
     2
172
     0
173
     0
174
     0
175
     0
176
     0
177
     0
178
     0
  0
ENDTAB
  0
ENDSEC
  0
SECTION
  2
BLOCKS
  0
BLOCK
  8
0
  2
$MODEL_SPACE
 70
     0
 10
0.0
 20
0.0
 30
0.0
  3
$MODEL_SPACE
  1

  0
ENDBLK
  5
21
  8
0
  0
BLOCK
 67
     1
  8
0
  2
$PAPER_SPACE
 70
     0
 10
0.0
 20
0.0
 30
0.0
  3
$PAPER_SPACE
  1

  0
ENDBLK
  5
1D
 67
     1
  8
0
  0
ENDSEC
  0
SECTION
  2
ENTITIES
  0
POLYLINE
  5
6B
  8
20
 66
     1
 10
0.0
 20
0.0
 30
0.0
  0
VERTEX
  5
6C
  8
20
 10
265.1367342005138
 20
2.644875567156873
 30
0.0
  0
VERTEX
  5
6D
  8
20
 10
143.2167342005139
 20
2.644875567156873
 30
0.0
 42
-0.9999999999998134
  0
VERTEX
  5
6E
  8
20
 10
143.2167342005139
 20
2.797275567156873
 30
0.0
  0
VERTEX
  5
6F
  8
20
 10
265.1367342005138
 20
2.797275567156873
 30
0.0
 42
-0.9999999999999999
  0
VERTEX
  5
70
  8
20
 10
265.1367342005138
 20
2.644875567156873
 30
0.0
  0
SEQEND
  5
71
  8
20
  0
POLYLINE
  5
72
  8
20
 66
     1
 10
0.0
 20
0.0
 30
0.0
  0
VERTEX
  5
73
  8
20
 10
143.1405342005139
 20
2.721075567156873
 30
0.0
  0
VERTEX
  5
74
  8
20
 10
143.1405342005139
 20
35.74107556715687
 30
0.0
 42
-0.9999999999998134
  0
VERTEX
  5
75
  8
20
 10
143.2929342005139
 20
35.74107556715687
 30
0.0
  0
VERTEX
  5
76
  8
20
 10
143.2929342005139
 20
2.721075567156873
 30
0.0
 42
-0.9999999999998134
  0
VERTEX
  5
77
  8
20
 10
143.1405342005139
 20
2.721075567156873
 30
0.0
  0
SEQEND
  5
78
  8
20
  0
POLYLINE
  5
79
  8
20
 66
     1
 10
0.0
 20
0.0
 30
0.0
  0
VERTEX
  5
7A
  8
20
 10
143.2167342005139
 20
35.81727556715687
 30
0.0
  0
VERTEX
  5
7B
  8
20
 10
265.1367342005138
 20
35.81727556715687
 30
0.0
 42
-0.9999999999999999
  0
VERTEX
  5
7C
  8
20
 10
265.1367342005138
 20
35.66487556715687
 30
0.0
  0
VERTEX
  5
7D
  8
20
 10
143.2167342005139
 20
35.66487556715687
 30
0.0
 42
-0.9999999999998134
  0
VERTEX
  5
7E
  8
20
 10
143.2167342005139
 20
35.81727556715687
 30
0.0
  0
SEQEND
  5
7F
  8
20
  0
POLYLINE
  5
80
  8
20
 66
     1
 10
0.0
 20
0.0
 30
0.0
  0
VERTEX
  5
81
  8
20
 10
265.2129342005139
 20
35.74107556715687
 30
0.0
  0
VERTEX
  5
82
  8
20
 10
265.2129342005138
 20
2.721075567156873
 30
0.0
 42
-0.9999999999999999
  0
VERTEX
  5
83
  8
20
 10
265.0605342005139
 20
2.721075567156873
 30
0.0
  0
VERTEX
  5
84
  8
20
 10
265.0605342005139
 20
35.74107556715687
 30
0.0
 42
-0.9999999999999999
  0
VERTEX
  5
85
  8
20
 10
265.2129342005138
 20
35.74107556715687
 30
0.0
  0
SEQEND
  5
86
  8
20
  0
CIRCLE
  5
88
  8
44
 10
-164.8067342005139
 20
16.69107556715687
 30
0.0
 40
0.4064
210
0.0
220
0.0
230
-1.0
  0
CIRCLE
  5
89
  8
44
 10
-164.8067342005139
 20
9.071075567156868
 30
0.0
 40
0.4064
210
0.0
220
0.0
230
-1.0
  0
CIRCLE
  5
8A
  8
44
 10
-172.4267342005139
 20
19.23107556715686
 30
0.0
 40
0.4064
210
0.0
220
0.0
230
-1.0
  0
CIRCLE
  5
8B
  8
44
 10
-172.4267342005139
 20
11.61107556715687
 30
0.0
 40
0.4064
210
0.0
220
0.0
230
-1.0
  0
CIRCLE
  5
8C
  8
44
 10
-177.5067342005138
 20
16.69107556715687
 30
0.0
 40
0.4064
210
0.0
220
0.0
230
-1.0
  0
CIRCLE
  5
8D
  8
44
 10
-177.5067342005138
 20
9.071075567156868
 30
0.0
 40
0.4064
210
0.0
220
0.0
230
-1.0
  0
CIRCLE
  5
8E
  8
44
 10
-185.1267342005139
 20
19.23107556715686
 30
0.0
 40
0.4064
210
0.0
220
0.0
230
-1.0
  0
CIRCLE
  5
8F
  8
44
 10
-185.1267342005139
 20
11.61107556715687
 30
0.0
 40
0.4064
210
0.0
220
0.0
230
-1.0
  0
CIRCLE
  5
90
  8
44
 10
-190.2067342005139
 20
16.69107556715687
 30
0.0
 40
0.4064
210
0.0
220
0.0
230
-1.0
  0
CIRCLE
  5
91
  8
44
 10
-190.2067342005139
 20
9.071075567156868
 30
0.0
 40
0.4064
210
0.0
220
0.0
230
-1.0
  0
CIRCLE
  5
92
  8
44
 10
-197.8267342005138
 20
19.23107556715686
 30
0.0
 40
0.4064
210
0.0
220
0.0
230
-1.0
  0
CIRCLE
  5
93
  8
44
 10
-197.8267342005138
 20
11.61107556715687
 30
0.0
 40
0.4064
210
0.0
220
0.0
230
-1.0
  0
CIRCLE
  5
94
  8
44
 10
-202.9067342005139
 20
16.69107556715687
 30
0.0
 40
0.4064
210
0.0
220
0.0
230
-1.0
  0
CIRCLE
  5
95
  8
44
 10
-202.9067342005139
 20
9.071075567156868
 30
0.0
 40
0.4064
210
0.0
220
0.0
230
-1.0
  0
CIRCLE
  5
96
  8
44
 10
-210.5267342005139
 20
19.23107556715686
 30
0.0
 40
0.4064
210
0.0
220
0.0
230
-1.0
  0
CIRCLE
  5
97
  8
44
 10
-210.5267342005139
 20
11.61107556715687
 30
0.0
 40
0.4064
210
0.0
220
0.0
230
-1.0
  0
CIRCLE
  5
98
  8
44
 10
-215.6067342005139
 20
16.69107556715687
 30
0.0
 40
0.4064
210
0.0
220
0.0
230
-1.0
  0
CIRCLE
  5
99
  8
44
 10
-215.6067342005139
 20
9.071075567156868
 30
0.0
 40
0.4064
210
0.0
220
0.0
230
-1.0
  0
CIRCLE
  5
9A
  8
44
 10
-223.2267342005139
 20
19.23107556715686
 30
0.0
 40
0.4064
210
0.0
220
0.0
230
-1.0
  0
CIRCLE
  5
9B
  8
44
 10
-223.2267342005139
 20
11.61107556715687
 30
0.0
 40
0.4064
210
0.0
220
0.0
230
-1.0
  0
CIRCLE
  5
9C
  8
44
 10
-228.3067342005139
 20
16.69107556715687
 30
0.0
 40
0.4064
210
0.0
220
0.0
230
-1.0
  0
CIRCLE
  5
9D
  8
44
 10
-228.3067342005139
 20
9.071075567156868
 30
0.0
 40
0.4064
210
0.0
220
0.0
230
-1.0
  0
CIRCLE
  5
9E
  8
44
 10
-235.9267342005139
 20
19.23107556715686
 30
0.0
 40
0.4064
210
0.0
220
0.0
230
-1.0
  0
CIRCLE
  5
9F
  8
44
 10
-235.9267342005139
 20
11.61107556715687
 30
0.0
 40
0.4064
210
0.0
220
0.0
230
-1.0
  0
CIRCLE
  5
A0
  8
44
 10
-241.0067342005138
 20
16.69107556715687
 30
0.0
 40
0.4064
210
0.0
220
0.0
230
-1.0
  0
CIRCLE
  5
A1
  8
44
 10
-241.0067342005138
 20
9.071075567156868
 30
0.0
 40
0.4064
210
0.0
220
0.0
230
-1.0
  0
CIRCLE
  5
A2
  8
44
 10
-248.6267342005139
 20
19.23107556715686
 30
0.0
 40
0.4064
210
0.0
220
0.0
230
-1.0
  0
CIRCLE
  5
A3
  8
44
 10
-248.6267342005139
 20
11.61107556715687
 30
0.0
 40
0.4064
210
0.0
220
0.0
230
-1.0
  0
CIRCLE
  5
A4
  8
44
 10
-253.7067342005139
 20
16.69107556715687
 30
0.0
 40
0.4064
210
0.0
220
0.0
230
-1.0
  0
CIRCLE
  5
A5
  8
44
 10
-253.7067342005139
 20
9.071075567156868
 30
0.0
 40
0.4064
210
0.0
220
0.0
230
-1.0
  0
CIRCLE
  5
A6
  8
44
 10
-261.3267342005138
 20
19.23107556715686
 30
0.0
 40
0.4064
210
0.0
220
0.0
230
-1.0
  0
CIRCLE
  5
A7
  8
44
 10
-261.3267342005138
 20
11.61107556715687
 30
0.0
 40
0.4064
210
0.0
220
0.0
230
-1.0
  0
CIRCLE
  5
A8
  8
44
 10
-169.6835342005139
 20
19.23107556715686
 30
0.0
 40
0.45
210
0.0
220
0.0
230
-1.0
  0
CIRCLE
  5
A9
  8
44
 10
-169.6835342005139
 20
16.69107556715687
 30
0.0
 40
0.45
210
0.0
220
0.0
230
-1.0
  0
CIRCLE
  5
AA
  8
44
 10
-167.5753342005139
 20
16.69107556715687
 30
0.0
 40
0.45
210
0.0
220
0.0
230
-1.0
  0
CIRCLE
  5
AB
  8
44
 10
-167.5753342005139
 20
19.23107556715686
 30
0.0
 40
0.45
210
0.0
220
0.0
230
-1.0
  0
CIRCLE
  5
AC
  8
44
 10
-182.3835342005139
 20
19.23107556715686
 30
0.0
 40
0.45
210
0.0
220
0.0
230
-1.0
  0
CIRCLE
  5
AD
  8
44
 10
-182.3835342005139
 20
16.69107556715687
 30
0.0
 40
0.45
210
0.0
220
0.0
230
-1.0
  0
CIRCLE
  5
AE
  8
44
 10
-180.2753342005139
 20
16.69107556715687
 30
0.0
 40
0.45
210
0.0
220
0.0
230
-1.0
  0
CIRCLE
  5
AF
  8
44
 10
-180.2753342005139
 20
19.23107556715686
 30
0.0
 40
0.45
210
0.0
220
0.0
230
-1.0
  0
CIRCLE
  5
B0
  8
44
 10
-195.0835342005139
 20
19.23107556715686
 30
0.0
 40
0.45
210
0.0
220
0.0
230
-1.0
  0
CIRCLE
  5
B1
  8
44
 10
-195.0835342005139
 20
16.69107556715687
 30
0.0
 40
0.45
210
0.0
220
0.0
230
-1.0
  0
CIRCLE
  5
B2
  8
44
 10
-192.9753342005139
 20
16.69107556715687
 30
0.0
 40
0.45
210
0.0
220
0.0
230
-1.0
  0
CIRCLE
  5
B3
  8
44
 10
-192.9753342005139
 20
19.23107556715686
 30
0.0
 40
0.45
210
0.0
220
0.0
230
-1.0
  0
CIRCLE
  5
B4
  8
44
 10
-207.7835342005139
 20
19.23107556715686
 30
0.0
 40
0.45
210
0.0
220
0.0
230
-1.0
  0
CIRCLE
  5
B5
  8
44
 10
-207.7835342005139
 20
16.69107556715687
 30
0.0
 40
0.45
210
0.0
220
0.0
230
-1.0
  0
CIRCLE
  5
B6
  8
44
 10
-205.6753342005139
 20
16.69107556715687
 30
0.0
 40
0.45
210
0.0
220
0.0
230
-1.0
  0
CIRCLE
  5
B7
  8
44
 10
-205.6753342005139
 20
19.23107556715686
 30
0.0
 40
0.45
210
0.0
220
0.0
230
-1.0
  0
CIRCLE
  5
B8
  8
44
 10
-220.4835342005139
 20
19.23107556715686
 30
0.0
 40
0.45
210
0.0
220
0.0
230
-1.0
  0
CIRCLE
  5
B9
  8
44
 10
-220.4835342005139
 20
16.69107556715687
 30
0.0
 40
0.45
210
0.0
220
0.0
230
-1.0
  0
CIRCLE
  5
BA
  8
44
 10
-218.3753342005139
 20
16.69107556715687
 30
0.0
 40
0.45
210
0.0
220
0.0
230
-1.0
  0
CIRCLE
  5
BB
  8
44
 10
-218.3753342005139
 20
19.23107556715686
 30
0.0
 40
0.45
210
0.0
220
0.0
230
-1.0
  0
CIRCLE
  5
BC
  8
44
 10
-233.1835342005139
 20
19.23107556715686
 30
0.0
 40
0.45
210
0.0
220
0.0
230
-1.0
  0
CIRCLE
  5
BD
  8
44
 10
-233.1835342005139
 20
16.69107556715687
 30
0.0
 40
0.45
210
0.0
220
0.0
230
-1.0
  0
CIRCLE
  5
BE
  8
44
 10
-231.0753342005139
 20
16.69107556715687
 30
0.0
 40
0.45
210
0.0
220
0.0
230
-1.0
  0
CIRCLE
  5
BF
  8
44
 10
-231.0753342005139
 20
19.23107556715686
 30
0.0
 40
0.45
210
0.0
220
0.0
230
-1.0
  0
CIRCLE
  5
C0
  8
44
 10
-245.8835342005139
 20
19.23107556715686
 30
0.0
 40
0.45
210
0.0
220
0.0
230
-1.0
  0
CIRCLE
  5
C1
  8
44
 10
-245.8835342005139
 20
16.69107556715687
 30
0.0
 40
0.45
210
0.0
220
0.0
230
-1.0
  0
CIRCLE
  5
C2
  8
44
 10
-243.7753342005138
 20
16.69107556715687
 30
0.0
 40
0.45
210
0.0
220
0.0
230
-1.0
  0
CIRCLE
  5
C3
  8
44
 10
-243.7753342005138
 20
19.23107556715686
 30
0.0
 40
0.45
210
0.0
220
0.0
230
-1.0
  0
CIRCLE
  5
C4
  8
44
 10
-258.5835342005138
 20
19.23107556715686
 30
0.0
 40
0.45
210
0.0
220
0.0
230
-1.0
  0
CIRCLE
  5
C5
  8
44
 10
-258.5835342005138
 20
16.69107556715687
 30
0.0
 40
0.45
210
0.0
220
0.0
230
-1.0
  0
CIRCLE
  5
C6
  8
44
 10
-256.4753342005139
 20
16.69107556715687
 30
0.0
 40
0.45
210
0.0
220
0.0
230
-1.0
  0
CIRCLE
  5
C7
  8
44
 10
-256.4753342005139
 20
19.23107556715686
 30
0.0
 40
0.45
210
0.0
220
0.0
230
-1.0
  0
CIRCLE
  5
C8
  8
44
 10
-152.1067342005139
 20
30.02607556715687
 30
0.0
 40
0.5
210
0.0
220
0.0
230
-1.0
  0
CIRCLE
  5
C9
  8
44
 10
-149.5667342005138
 20
30.02607556715687
 30
0.0
 40
0.5
210
0.0
220
0.0
230
-1.0
  0
CIRCLE
  5
CA
  8
44
 10
-152.1067342005139
 20
27.48607556715687
 30
0.0
 40
0.5
210
0.0
220
0.0
230
-1.0
  0
CIRCLE
  5
CB
  8
44
 10
-149.5667342005138
 20
27.48607556715687
 30
0.0
 40
0.5
210
0.0
220
0.0
230
-1.0
  0
CIRCLE
  5
CC
  8
44
 10
-152.1067342005139
 20
24.94607556715687
 30
0.0
 40
0.5
210
0.0
220
0.0
230
-1.0
  0
CIRCLE
  5
CD
  8
44
 10
-149.5667342005138
 20
24.94607556715687
 30
0.0
 40
0.5
210
0.0
220
0.0
230
-1.0
  0
CIRCLE
  5
CE
  8
44
 10
-152.1067342005139
 20
22.40607556715688
 30
0.0
 40
0.5
210
0.0
220
0.0
230
-1.0
  0
CIRCLE
  5
CF
  8
44
 10
-149.5667342005138
 20
22.40607556715688
 30
0.0
 40
0.5
210
0.0
220
0.0
230
-1.0
  0
CIRCLE
  5
D0
  8
44
 10
-152.1067342005139
 20
19.86607556715687
 30
0.0
 40
0.5
210
0.0
220
0.0
230
-1.0
  0
CIRCLE
  5
D1
  8
44
 10
-149.5667342005138
 20
19.86607556715687
 30
0.0
 40
0.5
210
0.0
220
0.0
230
-1.0
  0
CIRCLE
  5
D2
  8
44
 10
-152.1067342005139
 20
17.32607556715686
 30
0.0
 40
0.5
210
0.0
220
0.0
230
-1.0
  0
CIRCLE
  5
D3
  8
44
 10
-149.5667342005138
 20
17.32607556715686
 30
0.0
 40
0.5
210
0.0
220
0.0
230
-1.0
  0
CIRCLE
  5
D4
  8
44
 10
-152.1067342005139
 20
14.78607556715687
 30
0.0
 40
0.5
210
0.0
220
0.0
230
-1.0
  0
CIRCLE
  5
D5
  8
44
 10
-149.5667342005138
 20
14.78607556715687
 30
0.0
 40
0.5
210
0.0
220
0.0
230
-1.0
  0
POLYLINE
  5
D7
  8
DEFAULT
 66
     1
 10
0.0
 20
0.0
 30
0.0
  0
VERTEX
  5
D8
  8
DEFAULT
 10
161.6642212657424
 20
31.27156263234308
 30
0.0
 42
-0.200875956226659
  0
VERTEX
  5
D9
  8
DEFAULT
 10
162.0261342005139
 20
31.42307556715688
 30
0.0
  0
VERTEX
  5
DA
  8
DEFAULT
 10
246.8995342005139
 20
31.42307556715687
 30
0.0
 42
-0.2008759562279567
  0
VERTEX
  5
DB
  8
DEFAULT
 10
247.2614471352872
 20
31.27156263234122
 30
0.0
  0
VERTEX
  5
DC
  8
DEFAULT
 10
248.0038525038138
 20
30.52915726385689
 30
0.0
 42
-0.162895819470968
  0
VERTEX
  5
DD
  8
DEFAULT
 10
248.2924342005139
 20
30.38527556715686
 30
0.0
  0
VERTEX
  5
DE
  8
DEFAULT
 10
258.4275342005138
 20
20.25017556715687
 30
0.0
  0
VERTEX
  5
DF
  8
DEFAULT
 10
258.4531902157839
 20
20.22254439956901
 30
0.0
 42
-0.3007696449468759
  0
VERTEX
  5
E0
  8
DEFAULT
 10
259.4448912693303
 20
19.73907556715682
 30
0.0
  0
VERTEX
  5
E1
  8
DEFAULT
 10
260.5838102474742
 20
19.73907556715687
 30
0.0
 42
-3.234102269763048
  0
VERTEX
  5
E2
  8
DEFAULT
 10
260.5838102474743
 20
18.72307556715699
 30
0.0
  0
VERTEX
  5
E3
  8
DEFAULT
 10
259.4448912693304
 20
18.72307556715684
 30
0.0
 42
-0.7636544621793468
  0
VERTEX
  5
E4
  8
DEFAULT
 10
257.5835342005138
 20
19.23107556715686
 30
0.0
  0
VERTEX
  5
E5
  8
DEFAULT
 10
257.6216123909164
 20
19.50440034141032
 30
0.0
  0
VERTEX
  5
E6
  8
DEFAULT
 10
257.5653129238856
 20
19.67547381976363
 30
0.0
  0
VERTEX
  5
E7
  8
DEFAULT
 10
247.7177661740855
 20
29.52304359358519
 30
0.0
 42
-0.1628244845029611
  0
VERTEX
  5
E8
  8
DEFAULT
 10
247.4293341550934
 20
29.66687561257734
 30
0.0
  0
VERTEX
  5
E9
  8
DEFAULT
 10
246.6891342005139
 20
30.40707556715687
 30
0.0
  0
VERTEX
  5
EA
  8
DEFAULT
 10
162.2365342005139
 20
30.40707556715687
 30
0.0
  0
VERTEX
  5
EB
  8
DEFAULT
 10
161.4963342005139
 20
29.66687556715686
 30
0.0
 42
-0.1989026346151927
  0
VERTEX
  5
EC
  8
DEFAULT
 10
161.1371342005139
 20
29.51808281135467
 30
0.0
  0
VERTEX
  5
ED
  8
DEFAULT
 10
153.0824062765724
 20
29.51807556715687
 30
0.0
 42
-4.085968653658708
  0
VERTEX
  5
EE
  8
DEFAULT
 10
153.0824062765722
 20
30.5340755671568
 30
0.0
  0
VERTEX
  5
EF
  8
DEFAULT
 10
160.9267342005139
 20
30.53407556715688
 30
0.0
  0
VERTEX
  5
F0
  8
DEFAULT
 10
161.6642212657211
 20
31.27156263236413
 30
0.0
  0
SEQEND
  5
F1
  8
DEFAULT
  0
POLYLINE
  5
F2
  8
DEFAULT
 66
     1
 10
0.0
 20
0.0
 30
0.0
  0
VERTEX
  5
F3
  8
DEFAULT
 10
163.7067342005139
 20
16.69107556715687
 30
0.0
 42
-0.7847733099779481
  0
VERTEX
  5
F4
  8
DEFAULT
 10
165.7824062765723
 20
17.19907556715678
 30
0.0
  0
VERTEX
  5
F5
  8
DEFAULT
 10
166.7139771316974
 20
17.19907556715687
 30
0.0
 42
-3.664088718142975
  0
VERTEX
  5
F6
  8
DEFAULT
 10
166.7139771316973
 20
16.18307556715689
 30
0.0
  0
VERTEX
  5
F7
  8
DEFAULT
 10
165.7824062765723
 20
16.18307556715689
 30
0.0
 42
-0.7847733099779026
  0
VERTEX
  5
F8
  8
DEFAULT
 10
163.7067342005138
 20
16.69107556715687
 30
0.0
  0
SEQEND
  5
F9
  8
DEFAULT
  0
POLYLINE
  5
FA
  8
DEFAULT
 66
     1
 10
0.0
 20
0.0
 30
0.0
  0
VERTEX
  5
FB
  8
DEFAULT
 10
166.0767341148715
 20
21.64406832295936
 30
0.0
  0
VERTEX
  5
FC
  8
DEFAULT
 10
168.6167342005139
 20
21.64407556717735
 30
0.0
 42
-0.200875956202667
  0
VERTEX
  5
FD
  8
DEFAULT
 10
168.9786471352868
 20
21.4925626323416
 30
0.0
  0
VERTEX
  5
FE
  8
DEFAULT
 10
170.0427342005138
 20
20.42847556715687
 30
0.0
 42
-0.1869195463394837
  0
VERTEX
  5
FF
  8
DEFAULT
 10
170.1909765129229
 20
20.09276129850651
 30
0.0
 42
-0.1271082561256617
  0
VERTEX
  5
100
  8
DEFAULT
 10
170.5448912693303
 20
19.73907556715683
 30
0.0
  0
VERTEX
  5
101
  8
DEFAULT
 10
171.4510621244554
 20
19.73907556715687
 30
0.0
 42
-4.085968653659976
  0
VERTEX
  5
102
  8
DEFAULT
 10
171.4510621244554
 20
18.72307556715693
 30
0.0
  0
VERTEX
  5
103
  8
DEFAULT
 10
170.5448912693303
 20
18.72307556715686
 30
0.0
 42
-1.184689283554005
  0
VERTEX
  5
104
  8
DEFAULT
 10
169.0388690935152
 20
19.99554067415553
 30
0.0
  0
VERTEX
  5
105
  8
DEFAULT
 10
168.4063342005138
 20
20.62807556715687
 30
0.0
  0
VERTEX
  5
106
  8
DEFAULT
 10
166.2871342005139
 20
20.62807556715687
 30
0.0
  0
VERTEX
  5
107
  8
DEFAULT
 10
163.4097342005139
 20
17.75067556715689
 30
0.0
  0
VERTEX
  5
108
  8
DEFAULT
 10
163.4097342005139
 20
11.61107556715687
 30
0.0
 42
-0.200875956227675
  0
VERTEX
  5
109
  8
DEFAULT
 10
163.2582212656986
 20
11.24916263238382
 30
0.0
  0
VERTEX
  5
10A
  8
DEFAULT
 10
160.7236471353069
 20
8.714588501949883
 30
0.0
 42
-0.2008759561902725
  0
VERTEX
  5
10B
  8
DEFAULT
 10
160.3617342005139
 20
8.56307556715688
 30
0.0
  0
VERTEX
  5
10C
  8
DEFAULT
 10
150.2017341148714
 20
8.563082811354679
 30
0.0
 42
-0.1989025433748539
  0
VERTEX
  5
10D
  8
DEFAULT
 10
149.8425342610705
 20
8.711875506600276
 30
0.0
  0
VERTEX
  5
10E
  8
DEFAULT
 10
149.2102471353064
 20
9.344162632364334
 30
0.0
 42
-0.2008759561896695
  0
VERTEX
  5
10F
  8
DEFAULT
 10
149.0587342005139
 20
9.706075567156873
 30
0.0
  0
VERTEX
  5
110
  8
DEFAULT
 10
149.0587342005139
 20
13.81040349109839
 30
0.0
 42
-4.085968653660884
  0
VERTEX
  5
111
  8
DEFAULT
 10
150.0747342005138
 20
13.8104034910984
 30
0.0
  0
VERTEX
  5
112
  8
DEFAULT
 10
150.0747342005139
 20
9.916475567156866
 30
0.0
  0
VERTEX
  5
113
  8
DEFAULT
 10
150.4121342005139
 20
9.579075567156863
 30
0.0
  0
VERTEX
  5
114
  8
DEFAULT
 10
160.1513342005138
 20
9.579075567156863
 30
0.0
  0
VERTEX
  5
115
  8
DEFAULT
 10
162.3937342005138
 20
11.82147556715685
 30
0.0
  0
VERTEX
  5
116
  8
DEFAULT
 10
162.3937342005138
 20
17.96107556715687
 30
0.0
 42
-0.2008759562298101
  0
VERTEX
  5
117
  8
DEFAULT
 10
162.5452471353322
 20
18.32298850193288
 30
0.0
  0
VERTEX
  5
118
  8
DEFAULT
 10
165.7175342005139
 20
21.49527556715687
 30
0.0
 42
-0.1989026328093513
  0
VERTEX
  5
119
  8
DEFAULT
 10
166.0767341148715
 20
21.6440683229591
 30
0.0
  0
SEQEND
  5
11A
  8
DEFAULT
  0
POLYLINE
  5
11B
  8
DEFAULT
 66
     1
 10
0.0
 20
0.0
 30
0.0
  0
VERTEX
  5
11C
  8
DEFAULT
 10
176.4067342005139
 20
16.69107556715687
 30
0.0
 42
-0.7847733099779242
  0
VERTEX
  5
11D
  8
DEFAULT
 10
178.4824062765722
 20
17.19907556715678
 30
0.0
  0
VERTEX
  5
11E
  8
DEFAULT
 10
179.4139771316974
 20
17.19907556715687
 30
0.0
 42
-3.664088718143196
  0
VERTEX
  5
11F
  8
DEFAULT
 10
179.4139771316975
 20
16.18307556715693
 30
0.0
  0
VERTEX
  5
120
  8
DEFAULT
 10
178.4824062765723
 20
16.18307556715685
 30
0.0
 42
-0.7847733099778869
  0
VERTEX
  5
121
  8
DEFAULT
 10
176.4067342005138
 20
16.69107556715687
 30
0.0
  0
SEQEND
  5
122
  8
DEFAULT
  0
POLYLINE
  5
123
  8
DEFAULT
 66
     1
 10
0.0
 20
0.0
 30
0.0
  0
VERTEX
  5
124
  8
DEFAULT
 10
165.136121265743
 20
22.88956263234372
 30
0.0
 42
-0.200875956226194
  0
VERTEX
  5
125
  8
DEFAULT
 10
165.4980342005139
 20
23.04107556715687
 30
0.0
  0
VERTEX
  5
126
  8
DEFAULT
 10
179.2215795776482
 20
23.04107556715686
 30
0.0
 42
-0.2012871860921679
  0
VERTEX
  5
127
  8
DEFAULT
 10
179.5854342005138
 20
22.89227556715687
 30
0.0
  0
VERTEX
  5
128
  8
DEFAULT
 10
182.2275342005139
 20
20.25017556715687
 30
0.0
  0
VERTEX
  5
129
  8
DEFAULT
 10
182.253190215784
 20
20.22254439956901
 30
0.0
 42
-0.3007696449468077
  0
VERTEX
  5
12A
  8
DEFAULT
 10
183.2448912693302
 20
19.73907556715681
 30
0.0
  0
VERTEX
  5
12B
  8
DEFAULT
 10
184.1510621244554
 20
19.73907556715687
 30
0.0
 42
-4.085968653660052
  0
VERTEX
  5
12C
  8
DEFAULT
 10
184.1510621244555
 20
18.72307556715697
 30
0.0
  0
VERTEX
  5
12D
  8
DEFAULT
 10
183.2448912693303
 20
18.72307556715686
 30
0.0
 42
-0.7636544621793145
  0
VERTEX
  5
12E
  8
DEFAULT
 10
181.3835342005138
 20
19.23107556715686
 30
0.0
  0
VERTEX
  5
12F
  8
DEFAULT
 10
181.4216123909164
 20
19.50440034141032
 30
0.0
  0
VERTEX
  5
130
  8
DEFAULT
 10
181.3652852009788
 20
19.67552456669194
 30
0.0
  0
VERTEX
  5
131
  8
DEFAULT
 10
179.0157342005139
 20
22.02507556715688
 30
0.0
  0
VERTEX
  5
132
  8
DEFAULT
 10
165.7084342005139
 20
22.02507556715688
 30
0.0
  0
VERTEX
  5
133
  8
DEFAULT
 10
162.0127342005138
 20
18.32937556715686
 30
0.0
  0
VERTEX
  5
134
  8
DEFAULT
 10
162.012726956316
 20
16.05607548151446
 30
0.0
 42
-0.1989025433747192
  0
VERTEX
  5
135
  8
DEFAULT
 10
161.8639342610704
 20
15.69687562771347
 30
0.0
  0
VERTEX
  5
136
  8
DEFAULT
 10
160.5966471353074
 20
14.42958850195036
 30
0.0
 42
-0.2008759561904549
  0
VERTEX
  5
137
  8
DEFAULT
 10
160.2347342005139
 20
14.27807556715687
 30
0.0
  0
VERTEX
  5
138
  8
DEFAULT
 10
153.0824062765724
 20
14.27807556715688
 30
0.0
 42
-4.085968653660311
  0
VERTEX
  5
139
  8
DEFAULT
 10
153.0824062765722
 20
15.29407556715677
 30
0.0
  0
VERTEX
  5
13A
  8
DEFAULT
 10
160.0243342005138
 20
15.29407556715687
 30
0.0
  0
VERTEX
  5
13B
  8
DEFAULT
 10
160.9967342005139
 20
16.26647556715687
 30
0.0
  0
VERTEX
  5
13C
  8
DEFAULT
 10
160.9967342005139
 20
18.53977556715687
 30
0.0
 42
-0.200875956226109
  0
VERTEX
  5
13D
  8
DEFAULT
 10
161.1482471353267
 20
18.90168850192742
 30
0.0
  0
VERTEX
  5
13E
  8
DEFAULT
 10
165.1361212657217
 20
22.8895626323647
 30
0.0
  0
SEQEND
  5
13F
  8
DEFAULT
  0
POLYLINE
  5
140
  8
DEFAULT
 66
     1
 10
0.0
 20
0.0
 30
0.0
  0
VERTEX
  5
141
  8
DEFAULT
 10
189.1067342005139
 20
16.69107556715687
 30
0.0
 42
-0.7847733099779041
  0
VERTEX
  5
142
  8
DEFAULT
 10
191.1824062765723
 20
17.19907556715682
 30
0.0
  0
VERTEX
  5
143
  8
DEFAULT
 10
192.1139771316974
 20
17.19907556715687
 30
0.0
 42
-3.664088718143481
  0
VERTEX
  5
144
  8
DEFAULT
 10
192.1139771316974
 20
16.18307556715693
 30
0.0
  0
VERTEX
  5
145
  8
DEFAULT
 10
191.1824062765724
 20
16.18307556715688
 30
0.0
 42
-0.784773309977927
  0
VERTEX
  5
146
  8
DEFAULT
 10
189.1067342005139
 20
16.69107556715687
 30
0.0
  0
SEQEND
  5
147
  8
DEFAULT
  0
POLYLINE
  5
148
  8
DEFAULT
 66
     1
 10
0.0
 20
0.0
 30
0.0
  0
VERTEX
  5
149
  8
DEFAULT
 10
164.5575212657416
 20
24.28656263234236
 30
0.0
 42
-0.2008759562271067
  0
VERTEX
  5
14A
  8
DEFAULT
 10
164.9194342005138
 20
24.43807556715687
 30
0.0
  0
VERTEX
  5
14B
  8
DEFAULT
 10
190.5291342005139
 20
24.43807556715687
 30
0.0
 42
-0.2119261175024
  0
VERTEX
  5
14C
  8
DEFAULT
 10
190.906710001879
 20
24.27047884300264
 30
0.0
  0
VERTEX
  5
14D
  8
DEFAULT
 10
194.953190215784
 20
20.22254439956901
 30
0.0
 42
-0.300769644946823
  0
VERTEX
  5
14E
  8
DEFAULT
 10
195.9448912693304
 20
19.73907556715683
 30
0.0
  0
VERTEX
  5
14F
  8
DEFAULT
 10
196.8510621244554
 20
19.73907556715687
 30
0.0
 42
-4.085968653660036
  0
VERTEX
  5
150
  8
DEFAULT
 10
196.8510621244554
 20
18.72307556715691
 30
0.0
  0
VERTEX
  5
151
  8
DEFAULT
 10
195.9448912693303
 20
18.72307556715688
 30
0.0
 42
-0.7636544621793464
  0
VERTEX
  5
152
  8
DEFAULT
 10
194.0835342005139
 20
19.23107556715686
 30
0.0
  0
VERTEX
  5
153
  8
DEFAULT
 10
194.1216123909163
 20
19.50440034141028
 30
0.0
  0
VERTEX
  5
154
  8
DEFAULT
 10
194.0652852009788
 20
19.67552456669191
 30
0.0
  0
VERTEX
  5
155
  8
DEFAULT
 10
190.3187342005139
 20
23.42207556715686
 30
0.0
  0
VERTEX
  5
156
  8
DEFAULT
 10
165.1298342005138
 20
23.42207556715687
 30
0.0
  0
VERTEX
  5
157
  8
DEFAULT
 10
160.6102083401054
 20
18.90244970674842
 30
0.0
 42
-0.1608558962679745
  0
VERTEX
  5
158
  8
DEFAULT
 10
160.4669342610704
 20
18.61787562771348
 30
0.0
  0
VERTEX
  5
159
  8
DEFAULT
 10
158.1836471353048
 20
16.33458850194784
 30
0.0
 42
-0.200875956188733
  0
VERTEX
  5
15A
  8
DEFAULT
 10
157.8217342005138
 20
16.18307556715686
 30
0.0
  0
VERTEX
  5
15B
  8
DEFAULT
 10
152.7417341148715
 20
16.18308281135466
 30
0.0
 42
-0.157583267954241
  0
VERTEX
  5
15C
  8
DEFAULT
 10
152.444415054858
 20
16.27918892543799
 30
0.0
 42
-3.403592338952143
  0
VERTEX
  5
15D
  8
DEFAULT
 10
153.1993782413616
 20
17.19907556715684
 30
0.0
  0
VERTEX
  5
15E
  8
DEFAULT
 10
157.6113342005139
 20
17.19907556715687
 30
0.0
  0
VERTEX
  5
15F
  8
DEFAULT
 10
159.6052600609223
 20
19.19300142756526
 30
0.0
 42
-0.1608559844375903
  0
VERTEX
  5
160
  8
DEFAULT
 10
159.7485342005139
 20
19.47757556715687
 30
0.0
  0
VERTEX
  5
161
  8
DEFAULT
 10
164.5575212657204
 20
24.28656263236342
 30
0.0
  0
SEQEND
  5
162
  8
DEFAULT
  0
POLYLINE
  5
163
  8
DEFAULT
 66
     1
 10
0.0
 20
0.0
 30
0.0
  0
VERTEX
  5
164
  8
DEFAULT
 10
201.8067342005139
 20
16.69107556715687
 30
0.0
 42
-0.7847733099779295
  0
VERTEX
  5
165
  8
DEFAULT
 10
203.8824062765723
 20
17.1990755671568
 30
0.0
  0
VERTEX
  5
166
  8
DEFAULT
 10
204.8139771316974
 20
17.19907556715687
 30
0.0
 42
-3.664088718143264
  0
VERTEX
  5
167
  8
DEFAULT
 10
204.8139771316974
 20
16.1830755671569
 30
0.0
  0
VERTEX
  5
168
  8
DEFAULT
 10
203.8824062765723
 20
16.18307556715687
 30
0.0
 42
-0.784773309977931
  0
VERTEX
  5
169
  8
DEFAULT
 10
201.8067342005139
 20
16.69107556715687
 30
0.0
  0
SEQEND
  5
16A
  8
DEFAULT
  0
POLYLINE
  5
16B
  8
DEFAULT
 66
     1
 10
0.0
 20
0.0
 30
0.0
  0
VERTEX
  5
16C
  8
DEFAULT
 10
163.9788212657397
 20
25.68356263234041
 30
0.0
 42
-0.2008759562284761
  0
VERTEX
  5
16D
  8
DEFAULT
 10
164.3407342005139
 20
25.83507556715686
 30
0.0
  0
VERTEX
  5
16E
  8
DEFAULT
 10
201.8321342005138
 20
25.83507556715686
 30
0.0
 42
-0.2119261175023697
  0
VERTEX
  5
16F
  8
DEFAULT
 10
202.209710001879
 20
25.66747884300263
 30
0.0
  0
VERTEX
  5
170
  8
DEFAULT
 10
207.653190215784
 20
20.22254439956904
 30
0.0
 42
-0.3007696449468525
  0
VERTEX
  5
171
  8
DEFAULT
 10
208.6448912693303
 20
19.73907556715682
 30
0.0
  0
VERTEX
  5
172
  8
DEFAULT
 10
209.5510621244554
 20
19.73907556715687
 30
0.0
 42
-4.085968653659713
  0
VERTEX
  5
173
  8
DEFAULT
 10
209.5510621244554
 20
18.72307556715695
 30
0.0
  0
VERTEX
  5
174
  8
DEFAULT
 10
208.6448912693304
 20
18.72307556715686
 30
0.0
 42
-0.7636544621793553
  0
VERTEX
  5
175
  8
DEFAULT
 10
206.7835342005139
 20
19.23107556715686
 30
0.0
  0
VERTEX
  5
176
  8
DEFAULT
 10
206.8216123909164
 20
19.50440034141034
 30
0.0
  0
VERTEX
  5
177
  8
DEFAULT
 10
206.7652852009788
 20
19.67552456669192
 30
0.0
  0
VERTEX
  5
178
  8
DEFAULT
 10
201.6217342005139
 20
24.81907556715687
 30
0.0
  0
VERTEX
  5
179
  8
DEFAULT
 10
164.5511342005139
 20
24.81907556715687
 30
0.0
  0
VERTEX
  5
17A
  8
DEFAULT
 10
159.2416471353075
 20
19.50958850195054
 30
0.0
 42
-0.2008759561906016
  0
VERTEX
  5
17B
  8
DEFAULT
 10
158.8797342005139
 20
19.35807556715687
 30
0.0
  0
VERTEX
  5
17C
  8
DEFAULT
 10
153.0824062765724
 20
19.35807556715687
 30
0.0
 42
-4.085968653658511
  0
VERTEX
  5
17D
  8
DEFAULT
 10
153.0824062765722
 20
20.37407556715677
 30
0.0
  0
VERTEX
  5
17E
  8
DEFAULT
 10
158.6693342005139
 20
20.37407556715686
 30
0.0
  0
VERTEX
  5
17F
  8
DEFAULT
 10
163.9788212657184
 20
25.68356263236144
 30
0.0
  0
SEQEND
  5
180
  8
DEFAULT
  0
POLYLINE
  5
181
  8
DEFAULT
 66
     1
 10
0.0
 20
0.0
 30
0.0
  0
VERTEX
  5
182
  8
DEFAULT
 10
214.5067342005138
 20
16.69107556715687
 30
0.0
 42
-0.7847733099779052
  0
VERTEX
  5
183
  8
DEFAULT
 10
216.5824062765722
 20
17.19907556715676
 30
0.0
  0
VERTEX
  5
184
  8
DEFAULT
 10
217.5139771316974
 20
17.19907556715687
 30
0.0
 42
-3.664088718143225
  0
VERTEX
  5
185
  8
DEFAULT
 10
217.5139771316975
 20
16.18307556715692
 30
0.0
  0
VERTEX
  5
186
  8
DEFAULT
 10
216.5824062765724
 20
16.18307556715684
 30
0.0
 42
-0.7847733099778202
  0
VERTEX
  5
187
  8
DEFAULT
 10
214.5067342005138
 20
16.69107556715687
 30
0.0
  0
SEQEND
  5
188
  8
DEFAULT
  0
POLYLINE
  5
189
  8
DEFAULT
 66
     1
 10
0.0
 20
0.0
 30
0.0
  0
VERTEX
  5
18A
  8
DEFAULT
 10
163.3844833991486
 20
27.0644538430026
 30
0.0
 42
-0.2119716997843203
  0
VERTEX
  5
18B
  8
DEFAULT
 10
163.7620342005139
 20
27.23207556715685
 30
0.0
  0
VERTEX
  5
18C
  8
DEFAULT
 10
212.9905342005139
 20
27.2320755671569
 30
0.0
 42
-0.2008759562268209
  0
VERTEX
  5
18D
  8
DEFAULT
 10
213.3524471352857
 20
27.08056263234278
 30
0.0
  0
VERTEX
  5
18E
  8
DEFAULT
 10
217.5238525039825
 20
22.90915726368822
 30
0.0
 42
-0.1628958195914935
  0
VERTEX
  5
18F
  8
DEFAULT
 10
217.8124342005138
 20
22.76527556715686
 30
0.0
  0
VERTEX
  5
190
  8
DEFAULT
 10
220.3275342005139
 20
20.25017556715687
 30
0.0
  0
VERTEX
  5
191
  8
DEFAULT
 10
220.353190215784
 20
20.22254439956904
 30
0.0
 42
-0.3007696449468115
  0
VERTEX
  5
192
  8
DEFAULT
 10
221.3448912693302
 20
19.73907556715679
 30
0.0
  0
VERTEX
  5
193
  8
DEFAULT
 10
222.2510621244554
 20
19.73907556715687
 30
0.0
 42
-4.085968653659608
  0
VERTEX
  5
194
  8
DEFAULT
 10
222.2510621244554
 20
18.72307556715695
 30
0.0
  0
VERTEX
  5
195
  8
DEFAULT
 10
221.3448912693304
 20
18.72307556715685
 30
0.0
 42
-0.7636544621793441
  0
VERTEX
  5
196
  8
DEFAULT
 10
219.4835342005138
 20
19.23107556715686
 30
0.0
  0
VERTEX
  5
197
  8
DEFAULT
 10
219.5216123909164
 20
19.50440034141031
 30
0.0
  0
VERTEX
  5
198
  8
DEFAULT
 10
219.4652852009788
 20
19.67552456669193
 30
0.0
  0
VERTEX
  5
199
  8
DEFAULT
 10
217.2377661740856
 20
21.90304359358513
 30
0.0
 42
-0.1628244730075531
  0
VERTEX
  5
19A
  8
DEFAULT
 10
216.9493337463248
 20
22.04687602134601
 30
0.0
  0
VERTEX
  5
19B
  8
DEFAULT
 10
212.7801342005139
 20
26.21607556715686
 30
0.0
  0
VERTEX
  5
19C
  8
DEFAULT
 10
163.9725342005139
 20
26.21607556715686
 30
0.0
  0
VERTEX
  5
19D
  8
DEFAULT
 10
159.8033342005138
 20
22.04687556715689
 30
0.0
 42
-0.2012871861541715
  0
VERTEX
  5
19E
  8
DEFAULT
 10
159.4394795776491
 20
21.89807556720779
 30
0.0
  0
VERTEX
  5
19F
  8
DEFAULT
 10
153.0824062765723
 20
21.89807556715686
 30
0.0
 42
-4.085968653659442
  0
VERTEX
  5
1A0
  8
DEFAULT
 10
153.0824062765722
 20
22.91407556715678
 30
0.0
  0
VERTEX
  5
1A1
  8
DEFAULT
 10
159.2336586507034
 20
22.91408371722004
 30
0.0
  0
VERTEX
  5
1A2
  8
DEFAULT
 10
163.3844833991486
 20
27.0644538430026
 30
0.0
  0
SEQEND
  5
1A3
  8
DEFAULT
  0
POLYLINE
  5
1A4
  8
DEFAULT
 66
     1
 10
0.0
 20
0.0
 30
0.0
  0
VERTEX
  5
1A5
  8
DEFAULT
 10
227.2067342005139
 20
16.69107556715687
 30
0.0
 42
-0.7847733099779393
  0
VERTEX
  5
1A6
  8
DEFAULT
 10
229.2824062765723
 20
17.19907556715678
 30
0.0
  0
VERTEX
  5
1A7
  8
DEFAULT
 10
230.2139771316974
 20
17.19907556715687
 30
0.0
 42
-3.664088718143353
  0
VERTEX
  5
1A8
  8
DEFAULT
 10
230.2139771316974
 20
16.18307556715693
 30
0.0
  0
VERTEX
  5
1A9
  8
DEFAULT
 10
229.2824062765723
 20
16.18307556715688
 30
0.0
 42
-0.784773309977912
  0
VERTEX
  5
1AA
  8
DEFAULT
 10
227.2067342005138
 20
16.69107556715687
 30
0.0
  0
SEQEND
  5
1AB
  8
DEFAULT
  0
POLYLINE
  5
1AC
  8
DEFAULT
 66
     1
 10
0.0
 20
0.0
 30
0.0
  0
VERTEX
  5
1AD
  8
DEFAULT
 10
162.8215212657396
 20
28.47756263234026
 30
0.0
 42
-0.200875956228704
  0
VERTEX
  5
1AE
  8
DEFAULT
 10
163.1834342005139
 20
28.62907556715689
 30
0.0
  0
VERTEX
  5
1AF
  8
DEFAULT
 10
224.2935342005139
 20
28.62907556715686
 30
0.0
 42
-0.2008759562278667
  0
VERTEX
  5
1B0
  8
DEFAULT
 10
224.6554471352872
 20
28.47756263234128
 30
0.0
  0
VERTEX
  5
1B1
  8
DEFAULT
 10
227.6838525039825
 20
25.44915726368822
 30
0.0
 42
-0.1628958195914417
  0
VERTEX
  5
1B2
  8
DEFAULT
 10
227.9724342005139
 20
25.30527556715687
 30
0.0
  0
VERTEX
  5
1B3
  8
DEFAULT
 10
233.0275342005139
 20
20.25017556715687
 30
0.0
  0
VERTEX
  5
1B4
  8
DEFAULT
 10
233.053190215784
 20
20.22254439956903
 30
0.0
 42
-0.3007696449468549
  0
VERTEX
  5
1B5
  8
DEFAULT
 10
234.0448912693303
 20
19.73907556715681
 30
0.0
  0
VERTEX
  5
1B6
  8
DEFAULT
 10
234.9510621244553
 20
19.73907556715687
 30
0.0
 42
-4.085968653659973
  0
VERTEX
  5
1B7
  8
DEFAULT
 10
234.9510621244554
 20
18.72307556715693
 30
0.0
  0
VERTEX
  5
1B8
  8
DEFAULT
 10
234.0448912693303
 20
18.72307556715689
 30
0.0
 42
-0.7636544621793726
  0
VERTEX
  5
1B9
  8
DEFAULT
 10
232.1835342005139
 20
19.23107556715686
 30
0.0
  0
VERTEX
  5
1BA
  8
DEFAULT
 10
232.2216123909164
 20
19.50440034141031
 30
0.0
  0
VERTEX
  5
1BB
  8
DEFAULT
 10
232.1652852009788
 20
19.67552456669189
 30
0.0
  0
VERTEX
  5
1BC
  8
DEFAULT
 10
227.3977661740855
 20
24.44304359358513
 30
0.0
 42
-0.1628245757148066
  0
VERTEX
  5
1BD
  8
DEFAULT
 10
227.1093342005138
 20
24.58687556715686
 30
0.0
  0
VERTEX
  5
1BE
  8
DEFAULT
 10
224.0831342005139
 20
27.61307556715687
 30
0.0
  0
VERTEX
  5
1BF
  8
DEFAULT
 10
163.3938342005139
 20
27.61307556715687
 30
0.0
  0
VERTEX
  5
1C0
  8
DEFAULT
 10
160.3676342005139
 20
24.58687556715685
 30
0.0
 42
-0.1989026838334696
  0
VERTEX
  5
1C1
  8
DEFAULT
 10
160.0084342005138
 20
24.43808281135464
 30
0.0
  0
VERTEX
  5
1C2
  8
DEFAULT
 10
153.0824062765724
 20
24.43807556715687
 30
0.0
 42
-4.085968653659446
  0
VERTEX
  5
1C3
  8
DEFAULT
 10
153.0824062765722
 20
25.45407556715677
 30
0.0
  0
VERTEX
  5
1C4
  8
DEFAULT
 10
159.7980342005139
 20
25.45407556715686
 30
0.0
  0
VERTEX
  5
1C5
  8
DEFAULT
 10
162.8215212657183
 20
28.47756263236133
 30
0.0
  0
SEQEND
  5
1C6
  8
DEFAULT
  0
POLYLINE
  5
1C7
  8
DEFAULT
 66
     1
 10
0.0
 20
0.0
 30
0.0
  0
VERTEX
  5
1C8
  8
DEFAULT
 10
239.9067342005139
 20
16.69107556715687
 30
0.0
 42
-0.7847733099779213
  0
VERTEX
  5
1C9
  8
DEFAULT
 10
241.9824062765722
 20
17.19907556715675
 30
0.0
  0
VERTEX
  5
1CA
  8
DEFAULT
 10
242.9139771316974
 20
17.19907556715687
 30
0.0
 42
-3.664088718142982
  0
VERTEX
  5
1CB
  8
DEFAULT
 10
242.9139771316974
 20
16.18307556715689
 30
0.0
  0
VERTEX
  5
1CC
  8
DEFAULT
 10
241.9824062765723
 20
16.18307556715689
 30
0.0
 42
-0.7847733099778866
  0
VERTEX
  5
1CD
  8
DEFAULT
 10
239.9067342005139
 20
16.69107556715687
 30
0.0
  0
SEQEND
  5
1CE
  8
DEFAULT
  0
POLYLINE
  5
1CF
  8
DEFAULT
 66
     1
 10
0.0
 20
0.0
 30
0.0
  0
VERTEX
  5
1D0
  8
DEFAULT
 10
162.2428212657426
 20
29.87456263234334
 30
0.0
 42
-0.2008759562263747
  0
VERTEX
  5
1D1
  8
DEFAULT
 10
162.6047342005139
 20
30.02607556715686
 30
0.0
  0
VERTEX
  5
1D2
  8
DEFAULT
 10
235.5965342005139
 20
30.02607556715685
 30
0.0
 42
-0.2008759562267501
  0
VERTEX
  5
1D3
  8
DEFAULT
 10
235.9584471352856
 20
29.87456263234285
 30
0.0
  0
VERTEX
  5
1D4
  8
DEFAULT
 10
237.8438525039825
 20
27.98915726368823
 30
0.0
 42
-0.1628958195913528
  0
VERTEX
  5
1D5
  8
DEFAULT
 10
238.1324342005139
 20
27.84527556715688
 30
0.0
  0
VERTEX
  5
1D6
  8
DEFAULT
 10
245.7275342005138
 20
20.25017556715687
 30
0.0
  0
VERTEX
  5
1D7
  8
DEFAULT
 10
245.753190215784
 20
20.22254439956902
 30
0.0
 42
-0.3007696449468422
  0
VERTEX
  5
1D8
  8
DEFAULT
 10
246.7448912693303
 20
19.73907556715682
 30
0.0
  0
VERTEX
  5
1D9
  8
DEFAULT
 10
247.6510621244554
 20
19.73907556715687
 30
0.0
 42
-4.085968653659835
  0
VERTEX
  5
1DA
  8
DEFAULT
 10
247.6510621244555
 20
18.72307556715698
 30
0.0
  0
VERTEX
  5
1DB
  8
DEFAULT
 10
246.7448912693303
 20
18.72307556715689
 30
0.0
 42
-0.7636544621793806
  0
VERTEX
  5
1DC
  8
DEFAULT
 10
244.8835342005138
 20
19.23107556715686
 30
0.0
  0
VERTEX
  5
1DD
  8
DEFAULT
 10
244.9216123909164
 20
19.50440034141031
 30
0.0
  0
VERTEX
  5
1DE
  8
DEFAULT
 10
244.8652852009788
 20
19.67552456669191
 30
0.0
  0
VERTEX
  5
1DF
  8
DEFAULT
 10
237.5577661740856
 20
26.98304359358519
 30
0.0
 42
-0.1628245757146616
  0
VERTEX
  5
1E0
  8
DEFAULT
 10
237.2693342005139
 20
27.12687556715689
 30
0.0
  0
VERTEX
  5
1E1
  8
DEFAULT
 10
235.3861342005139
 20
29.01007556715687
 30
0.0
  0
VERTEX
  5
1E2
  8
DEFAULT
 10
162.8151342005139
 20
29.01007556715687
 30
0.0
  0
VERTEX
  5
1E3
  8
DEFAULT
 10
160.9319342005139
 20
27.12687556715687
 30
0.0
 42
-0.1989026346152494
  0
VERTEX
  5
1E4
  8
DEFAULT
 10
160.5727342005138
 20
26.97808281135466
 30
0.0
  0
VERTEX
  5
1E5
  8
DEFAULT
 10
153.0824062765723
 20
26.97807556715687
 30
0.0
 42
-4.085968653658578
  0
VERTEX
  5
1E6
  8
DEFAULT
 10
153.0824062765722
 20
27.99407556715678
 30
0.0
  0
VERTEX
  5
1E7
  8
DEFAULT
 10
160.3623342005139
 20
27.99407556715687
 30
0.0
  0
VERTEX
  5
1E8
  8
DEFAULT
 10
162.2428212657213
 20
29.87456263236427
 30
0.0
  0
SEQEND
  5
1E9
  8
DEFAULT
  0
POLYLINE
  5
1EA
  8
DEFAULT
 66
     1
 10
0.0
 20
0.0
 30
0.0
  0
VERTEX
  5
1EB
  8
DEFAULT
 10
252.6067342005139
 20
16.69107556715687
 30
0.0
 42
-0.7847733099779
  0
VERTEX
  5
1EC
  8
DEFAULT
 10
254.6824062765723
 20
17.19907556715682
 30
0.0
  0
VERTEX
  5
1ED
  8
DEFAULT
 10
255.6139771316974
 20
17.19907556715687
 30
0.0
 42
-3.664088718143343
  0
VERTEX
  5
1EE
  8
DEFAULT
 10
255.6139771316974
 20
16.18307556715689
 30
0.0
  0
VERTEX
  5
1EF
  8
DEFAULT
 10
254.6824062765723
 20
16.18307556715687
 30
0.0
 42
-0.7847733099779128
  0
VERTEX
  5
1F0
  8
DEFAULT
 10
252.6067342005139
 20
16.69107556715687
 30
0.0
  0
SEQEND
  5
1F1
  8
DEFAULT
  0
POLYLINE
  5
1F2
  8
DEFAULT
 66
     1
 10
0.0
 20
0.0
 30
0.0
  0
VERTEX
  5
1F3
  8
DEFAULT
 10
148.5910621244555
 20
27.99407556715679
 30
0.0
 42
-4.085968653658955
  0
VERTEX
  5
1F4
  8
DEFAULT
 10
148.5910621244554
 20
26.97807556715694
 30
0.0
  0
VERTEX
  5
1F5
  8
DEFAULT
 10
147.8721342005139
 20
26.97807556715686
 30
0.0
  0
VERTEX
  5
1F6
  8
DEFAULT
 10
147.5347342005139
 20
26.64067556715688
 30
0.0
  0
VERTEX
  5
1F7
  8
DEFAULT
 10
147.5347342005139
 20
10.55147556715685
 30
0.0
  0
VERTEX
  5
1F8
  8
DEFAULT
 10
148.6489734456371
 20
9.366536322033548
 30
0.0
  0
VERTEX
  5
1F9
  8
DEFAULT
 10
149.8334342005138
 20
8.182075567156879
 30
0.0
  0
VERTEX
  5
1FA
  8
DEFAULT
 10
160.7300342005138
 20
8.182075567156872
 30
0.0
  0
VERTEX
  5
1FB
  8
DEFAULT
 10
161.9782342005139
 20
9.430275567156853
 30
0.0
 42
-0.1989026346152654
  0
VERTEX
  5
1FC
  8
DEFAULT
 10
162.3374342005139
 20
9.579068322959081
 30
0.0
  0
VERTEX
  5
1FD
  8
DEFAULT
 10
163.8310621244554
 20
9.579075567156856
 30
0.0
 42
-0.363930027889191
  0
VERTEX
  5
1FE
  8
DEFAULT
 10
165.1374438757613
 20
10.12018524240431
 30
0.0
  0
VERTEX
  5
1FF
  8
DEFAULT
 10
166.9875342005139
 20
11.97027556715686
 30
0.0
 42
-0.1989026966028748
  0
VERTEX
  5
200
  8
DEFAULT
 10
167.3467348060971
 20
12.11906832295908
 30
0.0
  0
VERTEX
  5
201
  8
DEFAULT
 10
171.4510621244554
 20
12.11907556715687
 30
0.0
 42
-0.9162658615203779
  0
VERTEX
  5
202
  8
DEFAULT
 10
173.4758438757612
 20
11.28036589190949
 30
0.0
  0
VERTEX
  5
203
  8
DEFAULT
 10
175.1771351007657
 20
9.579075267072916
 30
0.0
  0
VERTEX
  5
204
  8
DEFAULT
 10
176.5310621244554
 20
9.579075567156847
 30
0.0
 42
-0.363930027889202
  0
VERTEX
  5
205
  8
DEFAULT
 10
177.8374438757612
 20
10.1201852424043
 30
0.0
  0
VERTEX
  5
206
  8
DEFAULT
 10
179.6875342005139
 20
11.97027556715687
 30
0.0
 42
-0.1989026328093489
  0
VERTEX
  5
207
  8
DEFAULT
 10
180.0467341148715
 20
12.11906832295907
 30
0.0
  0
VERTEX
  5
208
  8
DEFAULT
 10
184.1510621244553
 20
12.11907556715687
 30
0.0
 42
-0.9162658615204179
  0
VERTEX
  5
209
  8
DEFAULT
 10
186.1758438757612
 20
11.28036589190947
 30
0.0
  0
VERTEX
  5
20A
  8
DEFAULT
 10
187.8771351007657
 20
9.579075267072916
 30
0.0
  0
VERTEX
  5
20B
  8
DEFAULT
 10
189.2310621244554
 20
9.579075567156872
 30
0.0
 42
-0.3639300278891706
  0
VERTEX
  5
20C
  8
DEFAULT
 10
190.5374438757613
 20
10.12018524240428
 30
0.0
  0
VERTEX
  5
20D
  8
DEFAULT
 10
192.3875342005139
 20
11.97027556715688
 30
0.0
 42
-0.1989026328094118
  0
VERTEX
  5
20E
  8
DEFAULT
 10
192.7467341148715
 20
12.11906832295906
 30
0.0
  0
VERTEX
  5
20F
  8
DEFAULT
 10
196.8510621244554
 20
12.11907556715688
 30
0.0
 42
-0.9162658615203924
  0
VERTEX
  5
210
  8
DEFAULT
 10
198.8758438757613
 20
11.28036589190946
 30
0.0
  0
VERTEX
  5
211
  8
DEFAULT
 10
200.5771351007657
 20
9.579075267072916
 30
0.0
  0
VERTEX
  5
212
  8
DEFAULT
 10
201.9310621244554
 20
9.579075567156865
 30
0.0
 42
-0.36393002788919
  0
VERTEX
  5
213
  8
DEFAULT
 10
203.2374438757613
 20
10.1201852424043
 30
0.0
  0
VERTEX
  5
214
  8
DEFAULT
 10
205.0875342005139
 20
11.97027556715686
 30
0.0
 42
-0.198902632809416
  0
VERTEX
  5
215
  8
DEFAULT
 10
205.4467341148715
 20
12.11906832295906
 30
0.0
  0
VERTEX
  5
216
  8
DEFAULT
 10
209.5510621244553
 20
12.11907556715688
 30
0.0
 42
-0.9162658615204102
  0
VERTEX
  5
217
  8
DEFAULT
 10
211.5758438757613
 20
11.28036589190945
 30
0.0
  0
VERTEX
  5
218
  8
DEFAULT
 10
213.2771351007657
 20
9.57907526707292
 30
0.0
  0
VERTEX
  5
219
  8
DEFAULT
 10
214.6310621244554
 20
9.579075567156872
 30
0.0
 42
-0.363930027889171
  0
VERTEX
  5
21A
  8
DEFAULT
 10
215.9374438757613
 20
10.1201852424043
 30
0.0
  0
VERTEX
  5
21B
  8
DEFAULT
 10
217.7875342005139
 20
11.97027556715685
 30
0.0
 42
-0.1989026328092292
  0
VERTEX
  5
21C
  8
DEFAULT
 10
218.1467341148715
 20
12.11906832295906
 30
0.0
  0
VERTEX
  5
21D
  8
DEFAULT
 10
222.2510621244553
 20
12.11907556715688
 30
0.0
 42
-0.9162658615204212
  0
VERTEX
  5
21E
  8
DEFAULT
 10
224.2758438757613
 20
11.28036589190946
 30
0.0
  0
VERTEX
  5
21F
  8
DEFAULT
 10
225.9771351007657
 20
9.579075267072916
 30
0.0
  0
VERTEX
  5
220
  8
DEFAULT
 10
227.3310621244553
 20
9.57907556715687
 30
0.0
 42
-0.3639300278892199
  0
VERTEX
  5
221
  8
DEFAULT
 10
228.6374438757612
 20
10.12018524240427
 30
0.0
  0
VERTEX
  5
222
  8
DEFAULT
 10
230.4875342005139
 20
11.97027556715689
 30
0.0
 42
-0.1989026328093385
  0
VERTEX
  5
223
  8
DEFAULT
 10
230.8467341148715
 20
12.11906832295903
 30
0.0
  0
VERTEX
  5
224
  8
DEFAULT
 10
234.9510621244553
 20
12.11907556715689
 30
0.0
 42
-0.916265861520386
  0
VERTEX
  5
225
  8
DEFAULT
 10
236.9758438757613
 20
11.28036589190945
 30
0.0
  0
VERTEX
  5
226
  8
DEFAULT
 10
238.6771351007657
 20
9.579075267072916
 30
0.0
  0
VERTEX
  5
227
  8
DEFAULT
 10
240.0310621244554
 20
9.57907556715687
 30
0.0
 42
-0.363930027889183
  0
VERTEX
  5
228
  8
DEFAULT
 10
241.3374438757613
 20
10.12018524240431
 30
0.0
  0
VERTEX
  5
229
  8
DEFAULT
 10
243.1875342005139
 20
11.97027556715686
 30
0.0
 42
-0.1989026328093093
  0
VERTEX
  5
22A
  8
DEFAULT
 10
243.5467341148715
 20
12.11906832295906
 30
0.0
  0
VERTEX
  5
22B
  8
DEFAULT
 10
247.6510621244554
 20
12.11907556715686
 30
0.0
 42
-0.9162658615204304
  0
VERTEX
  5
22C
  8
DEFAULT
 10
249.6758438757613
 20
11.28036589190947
 30
0.0
  0
VERTEX
  5
22D
  8
DEFAULT
 10
251.3771351007657
 20
9.579075267072916
 30
0.0
  0
VERTEX
  5
22E
  8
DEFAULT
 10
252.7310621244554
 20
9.57907556715686
 30
0.0
 42
-0.363930027889193
  0
VERTEX
  5
22F
  8
DEFAULT
 10
254.0374438757613
 20
10.12018524240429
 30
0.0
  0
VERTEX
  5
230
  8
DEFAULT
 10
255.8875342005138
 20
11.97027556715691
 30
0.0
 42
-0.198902632809293
  0
VERTEX
  5
231
  8
DEFAULT
 10
256.2467341148715
 20
12.11906832295906
 30
0.0
  0
VERTEX
  5
232
  8
DEFAULT
 10
260.3510621244554
 20
12.11907556715687
 30
0.0
 42
-4.085968653659882
  0
VERTEX
  5
233
  8
DEFAULT
 10
260.3510621244556
 20
11.103075567157
 30
0.0
  0
VERTEX
  5
234
  8
DEFAULT
 10
256.4571342005138
 20
11.10307556715686
 30
0.0
  0
VERTEX
  5
235
  8
DEFAULT
 10
254.7558438757613
 20
9.401785242404284
 30
0.0
 42
-0.9162658615204028
  0
VERTEX
  5
236
  8
DEFAULT
 10
252.7310621244554
 20
8.563075567156938
 30
0.0
  0
VERTEX
  5
237
  8
DEFAULT
 10
251.1667342005139
 20
8.56308281135466
 30
0.0
 42
-0.1989026838333547
  0
VERTEX
  5
238
  8
DEFAULT
 10
250.8075342005139
 20
8.711875567156879
 30
0.0
  0
VERTEX
  5
239
  8
DEFAULT
 10
248.9574438757612
 20
10.56196589190948
 30
0.0
 42
-0.3639300278892728
  0
VERTEX
  5
23A
  8
DEFAULT
 10
247.6510621244555
 20
11.10307556715696
 30
0.0
  0
VERTEX
  5
23B
  8
DEFAULT
 10
243.7571342005139
 20
11.10307556715686
 30
0.0
  0
VERTEX
  5
23C
  8
DEFAULT
 10
242.0558438757613
 20
9.401785242404284
 30
0.0
 42
-0.9162658615204406
  0
VERTEX
  5
23D
  8
DEFAULT
 10
240.0310621244555
 20
8.563075567156968
 30
0.0
  0
VERTEX
  5
23E
  8
DEFAULT
 10
238.4667342005139
 20
8.563082811354679
 30
0.0
 42
-0.1989026346153423
  0
VERTEX
  5
23F
  8
DEFAULT
 10
238.1075342005138
 20
8.71187556715687
 30
0.0
  0
VERTEX
  5
240
  8
DEFAULT
 10
236.2574438757613
 20
10.56196589190944
 30
0.0
 42
-0.3639300278892226
  0
VERTEX
  5
241
  8
DEFAULT
 10
234.9510621244554
 20
11.10307556715695
 30
0.0
  0
VERTEX
  5
242
  8
DEFAULT
 10
231.0571342005138
 20
11.10307556715686
 30
0.0
  0
VERTEX
  5
243
  8
DEFAULT
 10
229.3558438757613
 20
9.401785242404294
 30
0.0
 42
-0.9162658615204945
  0
VERTEX
  5
244
  8
DEFAULT
 10
227.3310621244555
 20
8.563075567156968
 30
0.0
  0
VERTEX
  5
245
  8
DEFAULT
 10
225.7667345033055
 20
8.563082811354663
 30
0.0
 42
-0.1989026902182151
  0
VERTEX
  5
246
  8
DEFAULT
 10
225.4075342005139
 20
8.711875567156875
 30
0.0
  0
VERTEX
  5
247
  8
DEFAULT
 10
223.5574438757613
 20
10.56196589190945
 30
0.0
 42
-0.3639300278892525
  0
VERTEX
  5
248
  8
DEFAULT
 10
222.2510621244555
 20
11.10307556715693
 30
0.0
  0
VERTEX
  5
249
  8
DEFAULT
 10
218.3571342005139
 20
11.10307556715686
 30
0.0
  0
VERTEX
  5
24A
  8
DEFAULT
 10
216.6558438757613
 20
9.4017852424043
 30
0.0
 42
-0.9162658615204431
  0
VERTEX
  5
24B
  8
DEFAULT
 10
214.6310621244555
 20
8.563075567156979
 30
0.0
  0
VERTEX
  5
24C
  8
DEFAULT
 10
213.0667342005138
 20
8.563082811354683
 30
0.0
 42
-0.1989026838333854
  0
VERTEX
  5
24D
  8
DEFAULT
 10
212.7075342005139
 20
8.711875567156879
 30
0.0
  0
VERTEX
  5
24E
  8
DEFAULT
 10
210.8574438757613
 20
10.56196589190944
 30
0.0
 42
-0.3639300278892539
  0
VERTEX
  5
24F
  8
DEFAULT
 10
209.5510621244555
 20
11.10307556715695
 30
0.0
  0
VERTEX
  5
250
  8
DEFAULT
 10
205.6571342005138
 20
11.10307556715686
 30
0.0
  0
VERTEX
  5
251
  8
DEFAULT
 10
203.9558438757613
 20
9.401785242404276
 30
0.0
 42
-0.9162658615204872
  0
VERTEX
  5
252
  8
DEFAULT
 10
201.9310621244555
 20
8.563075567156984
 30
0.0
  0
VERTEX
  5
253
  8
DEFAULT
 10
200.3667342005139
 20
8.563082811354644
 30
0.0
 42
-0.1989026838334171
  0
VERTEX
  5
254
  8
DEFAULT
 10
200.0075342005139
 20
8.71187556715687
 30
0.0
  0
VERTEX
  5
255
  8
DEFAULT
 10
198.1574438757613
 20
10.56196589190944
 30
0.0
 42
-0.3639300278892589
  0
VERTEX
  5
256
  8
DEFAULT
 10
196.8510621244555
 20
11.10307556715695
 30
0.0
  0
VERTEX
  5
257
  8
DEFAULT
 10
192.9571342005138
 20
11.10307556715686
 30
0.0
  0
VERTEX
  5
258
  8
DEFAULT
 10
191.2558438757613
 20
9.401785242404285
 30
0.0
 42
-0.9162658615204597
  0
VERTEX
  5
259
  8
DEFAULT
 10
189.2310621244555
 20
8.563075567156961
 30
0.0
  0
VERTEX
  5
25A
  8
DEFAULT
 10
187.6667342005139
 20
8.563082811354654
 30
0.0
 42
-0.198902634615212
  0
VERTEX
  5
25B
  8
DEFAULT
 10
187.3075342005139
 20
8.711875567156875
 30
0.0
  0
VERTEX
  5
25C
  8
DEFAULT
 10
185.4574438757613
 20
10.56196589190945
 30
0.0
 42
-0.3639300278892526
  0
VERTEX
  5
25D
  8
DEFAULT
 10
184.1510621244554
 20
11.10307556715695
 30
0.0
  0
VERTEX
  5
25E
  8
DEFAULT
 10
180.2571342005139
 20
11.10307556715686
 30
0.0
  0
VERTEX
  5
25F
  8
DEFAULT
 10
178.5558438757613
 20
9.401785242404285
 30
0.0
 42
-0.9162658615204619
  0
VERTEX
  5
260
  8
DEFAULT
 10
176.5310621244555
 20
8.56307556715696
 30
0.0
  0
VERTEX
  5
261
  8
DEFAULT
 10
174.9667345033055
 20
8.563082811354654
 30
0.0
 42
-0.1989026902182308
  0
VERTEX
  5
262
  8
DEFAULT
 10
174.6075342005139
 20
8.711875567156879
 30
0.0
  0
VERTEX
  5
263
  8
DEFAULT
 10
172.7574438757613
 20
10.56196589190943
 30
0.0
 42
-0.3639300278891844
  0
VERTEX
  5
264
  8
DEFAULT
 10
171.4510621244554
 20
11.10307556715696
 30
0.0
  0
VERTEX
  5
265
  8
DEFAULT
 10
167.5571342005138
 20
11.10307556715686
 30
0.0
  0
VERTEX
  5
266
  8
DEFAULT
 10
165.8558438757613
 20
9.40178524240429
 30
0.0
 42
-0.916265861520424
  0
VERTEX
  5
267
  8
DEFAULT
 10
163.8310621244554
 20
8.563075567156964
 30
0.0
  0
VERTEX
  5
268
  8
DEFAULT
 10
162.5478342005139
 20
8.563075567156872
 30
0.0
  0
VERTEX
  5
269
  8
DEFAULT
 10
161.2996342005138
 20
7.314875567156884
 30
0.0
 42
-0.1989027122807362
  0
VERTEX
  5
26A
  8
DEFAULT
 10
160.9404328513747
 20
7.166082811354642
 30
0.0
  0
VERTEX
  5
26B
  8
DEFAULT
 10
149.6230341148714
 20
7.166082811354663
 30
0.0
 42
-0.1989026276541039
  0
VERTEX
  5
26C
  8
DEFAULT
 10
149.263834027267
 20
7.314875740403732
 30
0.0
  0
VERTEX
  5
26D
  8
DEFAULT
 10
147.8132471353105
 20
8.765462632360283
 30
0.0
  0
VERTEX
  5
26E
  8
DEFAULT
 10
147.6904712747322
 20
8.958938492938552
 30
0.0
  0
VERTEX
  5
26F
  8
DEFAULT
 10
146.6702471353082
 20
9.979162632362494
 30
0.0
 42
-0.2008759561911261
  0
VERTEX
  5
270
  8
DEFAULT
 10
146.5187342005138
 20
10.34107556715686
 30
0.0
  0
VERTEX
  5
271
  8
DEFAULT
 10
146.5187414447117
 20
26.85107565279927
 30
0.0
 42
-0.1989026328094441
  0
VERTEX
  5
272
  8
DEFAULT
 10
146.6675342005139
 20
27.21027556715687
 30
0.0
  0
VERTEX
  5
273
  8
DEFAULT
 10
147.2998212657178
 20
27.84256263236083
 30
0.0
 42
-0.2008759561923172
  0
VERTEX
  5
274
  8
DEFAULT
 10
147.6617342005138
 20
27.99407556715687
 30
0.0
  0
VERTEX
  5
275
  8
DEFAULT
 10
148.5910621244553
 20
27.99407556715687
 30
0.0
  0
SEQEND
  5
276
  8
DEFAULT
  0
CIRCLE
  5
277
  8
DEFAULT
 10
-149.5667342005138
 20
17.32607556715686
 30
0.0
 40
1.099999999999994
210
0.0
220
0.0
230
-1.0
  0
CIRCLE
  5
278
  8
DEFAULT
 10
-149.5667342005138
 20
19.86607556715686
 30
0.0
 40
1.099999999999994
210
0.0
220
0.0
230
-1.0
  0
CIRCLE
  5
279
  8
DEFAULT
 10
-149.5667342005138
 20
22.40607556715688
 30
0.0
 40
1.099999999999994
210
0.0
220
0.0
230
-1.0
  0
CIRCLE
  5
27A
  8
DEFAULT
 10
-149.5667342005138
 20
24.94607556715687
 30
0.0
 40
1.099999999999994
210
0.0
220
0.0
230
-1.0
  0
ENDSEC
  0
EOF
