  0
SECTION
  2
HEADER
  9
$ACADVER
  1
AC1009
  9
$DWGCODEPAGE
  3
ansi_1252
  9
$INSBASE
 10
0.0
 20
0.0
 30
0.0
  9
$EXTMIN
 10
148.2261278042288
 20
-39.77246099097412
 30
0.0
  9
$EXTMAX
 10
181.3985278042289
 20
82.2999390090259
 30
0.0
  9
$LIMMIN
 10
0.0
 20
0.0
  9
$LIMMAX
 10
12.0
 20
9.0
  9
$ORTHOMODE
 70
     0
  9
$REGENMODE
 70
     1
  9
$FILLMODE
 70
     1
  9
$QTEXTMODE
 70
     0
  9
$MIRRTEXT
 70
     1
  9
$DRAGMODE
 70
     2
  9
$LTSCALE
 40
1.0
  9
$OSMODE
 70
    37
  9
$ATTMODE
 70
     1
  9
$TEXTSIZE
 40
0.2
  9
$TRACEWID
 40
0.05
  9
$TEXTSTYLE
  7
STANDARD
  9
$CLAYER
  8
DEFAULT
  9
$CELTYPE
  6
BYLAYER
  9
$CECOLOR
 62
   256
  9
$DIMSCALE
 40
1.0
  9
$DIMASZ
 40
0.18
  9
$DIMEXO
 40
0.0625
  9
$DIMDLI
 40
0.38
  9
$DIMRND
 40
0.0
  9
$DIMDLE
 40
0.0
  9
$DIMEXE
 40
0.18
  9
$DIMTP
 40
0.0
  9
$DIMTM
 40
0.0
  9
$DIMTXT
 40
0.18
  9
$DIMCEN
 40
0.09
  9
$DIMTSZ
 40
0.0
  9
$DIMTOL
 70
     0
  9
$DIMLIM
 70
     0
  9
$DIMTIH
 70
     1
  9
$DIMTOH
 70
     1
  9
$DIMSE1
 70
     0
  9
$DIMSE2
 70
     0
  9
$DIMTAD
 70
     0
  9
$DIMZIN
 70
     0
  9
$DIMBLK
  1

  9
$DIMASO
 70
     1
  9
$DIMSHO
 70
     1
  9
$DIMPOST
  1

  9
$DIMAPOST
  1

  9
$DIMALT
 70
     0
  9
$DIMALTD
 70
     2
  9
$DIMALTF
 40
25.4
  9
$DIMLFAC
 40
1.0
  9
$DIMTOFL
 70
     0
  9
$DIMTVP
 40
0.0
  9
$DIMTIX
 70
     0
  9
$DIMSOXD
 70
     0
  9
$DIMSAH
 70
     0
  9
$DIMBLK1
  1

  9
$DIMBLK2
  1

  9
$DIMSTYLE
  2
STANDARD
  9
$DIMCLRD
 70
     0
  9
$DIMCLRE
 70
     0
  9
$DIMCLRT
 70
     0
  9
$DIMTFAC
 40
1.0
  9
$DIMGAP
 40
0.09
  9
$LUNITS
 70
     2
  9
$LUPREC
 70
     3
  9
$SKETCHINC
 40
0.1
  9
$FILLETRAD
 40
0.5
  9
$AUNITS
 70
     0
  9
$AUPREC
 70
     0
  9
$MENU
  1
.
  9
$ELEVATION
 40
0.0
  9
$PELEVATION
 40
0.0
  9
$THICKNESS
 40
0.0
  9
$LIMCHECK
 70
     0
  9
$CHAMFERA
 40
0.0
  9
$CHAMFERB
 40
0.0
  9
$SKPOLY
 70
     0
  9
$TDCREATE
 40
2458165.567431586
  9
$TDUPDATE
 40
2458165.567444954
  9
$TDINDWG
 40
0.0000000116
  9
$TDUSRTIMER
 40
0.0000000116
  9
$USRTIMER
 70
     1
  9
$ANGBASE
 50
0.0
  9
$ANGDIR
 70
     0
  9
$PDMODE
 70
     0
  9
$PDSIZE
 40
0.0
  9
$PLINEWID
 40
0.0
  9
$COORDS
 70
     1
  9
$SPLFRAME
 70
     0
  9
$SPLINETYPE
 70
     6
  9
$SPLINESEGS
 70
     8
  9
$ATTDIA
 70
     0
  9
$ATTREQ
 70
     1
  9
$HANDLING
 70
     1
  9
$HANDSEED
  5
284
  9
$SURFTAB1
 70
     6
  9
$SURFTAB2
 70
     6
  9
$SURFTYPE
 70
     6
  9
$SURFU
 70
     6
  9
$SURFV
 70
     6
  9
$UCSNAME
  2

  9
$UCSORG
 10
0.0
 20
0.0
 30
0.0
  9
$UCSXDIR
 10
1.0
 20
0.0
 30
0.0
  9
$UCSYDIR
 10
0.0
 20
1.0
 30
0.0
  9
$PUCSNAME
  2

  9
$PUCSORG
 10
0.0
 20
0.0
 30
0.0
  9
$PUCSXDIR
 10
1.0
 20
0.0
 30
0.0
  9
$PUCSYDIR
 10
0.0
 20
1.0
 30
0.0
  9
$USERI1
 70
     0
  9
$USERI2
 70
     0
  9
$USERI3
 70
     0
  9
$USERI4
 70
     0
  9
$USERI5
 70
     0
  9
$USERR1
 40
0.0
  9
$USERR2
 40
0.0
  9
$USERR3
 40
0.0
  9
$USERR4
 40
0.0
  9
$USERR5
 40
0.0
  9
$WORLDVIEW
 70
     1
  9
$SHADEDGE
 70
     3
  9
$SHADEDIF
 70
    70
  9
$TILEMODE
 70
     1
  9
$MAXACTVP
 70
    64
  9
$PLIMCHECK
 70
     0
  9
$PEXTMIN
 10
1.000000000000000E+20
 20
1.000000000000000E+20
 30
1.000000000000000E+20
  9
$PEXTMAX
 10
-1.000000000000000E+20
 20
-1.000000000000000E+20
 30
-1.000000000000000E+20
  9
$PLIMMIN
 10
0.0
 20
0.0
  9
$PLIMMAX
 10
12.0
 20
9.0
  9
$UNITMODE
 70
     0
  9
$VISRETAIN
 70
     1
  9
$PLINEGEN
 70
     0
  9
$PSLTSCALE
 70
     1
  0
ENDSEC
  0
SECTION
  2
TABLES
  0
TABLE
  2
VPORT
 70
     1
  0
VPORT
  2
*ACTIVE
 70
     0
 10
0.0
 20
0.0
 11
1.0
 21
1.0
 12
164.8123278042288
 22
21.26373900902589
 13
0.0
 23
0.0
 14
0.5
 24
0.5
 15
0.5
 25
0.5
 16
0.0
 26
0.0
 36
1.0
 17
0.0
 27
0.0
 37
0.0
 40
124.513848
 41
0.2717436537661264
 42
50.0
 43
0.0
 44
0.0
 50
0.0
 51
0.0
 71
     0
 72
   100
 73
     1
 74
     3
 75
     0
 76
     0
 77
     0
 78
     0
  0
ENDTAB
  0
TABLE
  2
LTYPE
 70
     1
  0
LTYPE
  2
CONTINUOUS
 70
     0
  3
Solid line
 72
    65
 73
     0
 40
0.0
  0
ENDTAB
  0
TABLE
  2
LAYER
 70
     4
  0
LAYER
  2
0
 70
     0
 62
     7
  6
CONTINUOUS
  0
LAYER
  2
DEFAULT
 70
     0
 62
     7
  6
CONTINUOUS
  0
LAYER
  2
44
 70
     0
 62
     4
  6
CONTINUOUS
  0
LAYER
  2
20
 70
     0
 62
    30
  6
CONTINUOUS
  0
ENDTAB
  0
TABLE
  2
STYLE
 70
     1
  0
STYLE
  2
STANDARD
 70
     0
 40
0.0
 41
1.0
 50
0.0
 71
     0
 42
0.2
  3
txt
  4

  0
ENDTAB
  0
TABLE
  2
VIEW
 70
     0
  0
ENDTAB
  0
TABLE
  2
UCS
 70
     0
  0
ENDTAB
  0
TABLE
  2
APPID
 70
     1
  0
APPID
  2
ACAD
 70
     0
  0
ENDTAB
  0
TABLE
  2
DIMSTYLE
 70
     1
  0
DIMSTYLE
  2
STANDARD
 70
     0
  3

  4

  5

  6

  7

 40
1.0
 41
0.18
 42
0.0625
 43
0.38
 44
0.18
 45
0.0
 46
0.0
 47
0.0
 48
0.0
140
0.18
141
0.09
142
0.0
143
25.4
144
1.0
145
0.0
146
1.0
147
0.09
 71
     0
 72
     0
 73
     1
 74
     1
 75
     0
 76
     0
 77
     0
 78
     0
170
     0
171
     2
172
     0
173
     0
174
     0
175
     0
176
     0
177
     0
178
     0
  0
ENDTAB
  0
ENDSEC
  0
SECTION
  2
BLOCKS
  0
BLOCK
  8
0
  2
$MODEL_SPACE
 70
     0
 10
0.0
 20
0.0
 30
0.0
  3
$MODEL_SPACE
  1

  0
ENDBLK
  5
21
  8
0
  0
BLOCK
 67
     1
  8
0
  2
$PAPER_SPACE
 70
     0
 10
0.0
 20
0.0
 30
0.0
  3
$PAPER_SPACE
  1

  0
ENDBLK
  5
1D
 67
     1
  8
0
  0
ENDSEC
  0
SECTION
  2
ENTITIES
  0
CIRCLE
  5
6B
  8
DEFAULT
 10
-170.5273278042289
 20
75.8737390090259
 30
0.0
 40
1.099999999999994
210
0.0
220
0.0
230
-1.0
  0
CIRCLE
  5
6C
  8
DEFAULT
 10
-167.9873278042288
 20
75.87373900902588
 30
0.0
 40
1.100000000000009
210
0.0
220
0.0
230
-1.0
  0
CIRCLE
  5
6D
  8
DEFAULT
 10
-165.4473278042288
 20
75.8737390090259
 30
0.0
 40
1.099999999999994
210
0.0
220
0.0
230
-1.0
  0
CIRCLE
  5
6E
  8
DEFAULT
 10
-162.9073278042288
 20
75.87373900902588
 30
0.0
 40
1.100000000000009
210
0.0
220
0.0
230
-1.0
  0
POLYLINE
  5
6F
  8
DEFAULT
 66
     1
 10
0.0
 20
0.0
 30
0.0
  0
VERTEX
  5
70
  8
DEFAULT
 10
173.5753278042287
 20
76.84941108508427
 30
0.0
 42
-4.08596865365925
  0
VERTEX
  5
71
  8
DEFAULT
 10
172.5593278042289
 20
76.84941108508428
 30
0.0
  0
VERTEX
  5
72
  8
DEFAULT
 10
172.5593278042288
 20
77.56833900902588
 30
0.0
  0
VERTEX
  5
73
  8
DEFAULT
 10
172.2219278042289
 20
77.90573900902588
 30
0.0
  0
VERTEX
  5
74
  8
DEFAULT
 10
156.1327278042288
 20
77.90573900902588
 30
0.0
  0
VERTEX
  5
75
  8
DEFAULT
 10
154.9477885591055
 20
76.79149976390258
 30
0.0
  0
VERTEX
  5
76
  8
DEFAULT
 10
153.7633278042288
 20
75.60703900902591
 30
0.0
  0
VERTEX
  5
77
  8
DEFAULT
 10
153.7633278042288
 20
64.7104390090259
 30
0.0
  0
VERTEX
  5
78
  8
DEFAULT
 10
155.0115278042288
 20
63.46223900902589
 30
0.0
 42
-0.1989026346151979
  0
VERTEX
  5
79
  8
DEFAULT
 10
155.1603205600311
 20
63.10303900902586
 30
0.0
  0
VERTEX
  5
7A
  8
DEFAULT
 10
155.1603278042288
 20
61.60941108508439
 30
0.0
 42
-0.363930027889204
  0
VERTEX
  5
7B
  8
DEFAULT
 10
155.7014374794763
 20
60.30302933377843
 30
0.0
  0
VERTEX
  5
7C
  8
DEFAULT
 10
157.5515278042288
 20
58.45293900902588
 30
0.0
 42
-0.1989026966031517
  0
VERTEX
  5
7D
  8
DEFAULT
 10
157.7003205600311
 20
58.09373840344271
 30
0.0
  0
VERTEX
  5
7E
  8
DEFAULT
 10
157.7003278042288
 20
53.98941108508436
 30
0.0
 42
-0.916265861520354
  0
VERTEX
  5
7F
  8
DEFAULT
 10
156.8616181289815
 20
51.96462933377848
 30
0.0
  0
VERTEX
  5
80
  8
DEFAULT
 10
155.1603275041449
 20
50.26333810877402
 30
0.0
  0
VERTEX
  5
81
  8
DEFAULT
 10
155.1603278042288
 20
48.90941108508438
 30
0.0
 42
-0.3639300278892086
  0
VERTEX
  5
82
  8
DEFAULT
 10
155.7014374794762
 20
47.60302933377851
 30
0.0
  0
VERTEX
  5
83
  8
DEFAULT
 10
157.5515278042288
 20
45.75293900902589
 30
0.0
 42
-0.1989026328091585
  0
VERTEX
  5
84
  8
DEFAULT
 10
157.7003205600311
 20
45.39373909466824
 30
0.0
  0
VERTEX
  5
85
  8
DEFAULT
 10
157.7003278042288
 20
41.28941108508439
 30
0.0
 42
-0.9162658615203952
  0
VERTEX
  5
86
  8
DEFAULT
 10
156.8616181289815
 20
39.26462933377854
 30
0.0
  0
VERTEX
  5
87
  8
DEFAULT
 10
155.1603275041449
 20
37.56333810877403
 30
0.0
  0
VERTEX
  5
88
  8
DEFAULT
 10
155.1603278042288
 20
36.20941108508436
 30
0.0
 42
-0.3639300278892312
  0
VERTEX
  5
89
  8
DEFAULT
 10
155.7014374794762
 20
34.90302933377847
 30
0.0
  0
VERTEX
  5
8A
  8
DEFAULT
 10
157.5515278042288
 20
33.05293900902588
 30
0.0
 42
-0.1989026328092041
  0
VERTEX
  5
8B
  8
DEFAULT
 10
157.7003205600311
 20
32.69373909466827
 30
0.0
  0
VERTEX
  5
8C
  8
DEFAULT
 10
157.7003278042288
 20
28.58941108508435
 30
0.0
 42
-0.9162658615203378
  0
VERTEX
  5
8D
  8
DEFAULT
 10
156.8616181289814
 20
26.56462933377849
 30
0.0
  0
VERTEX
  5
8E
  8
DEFAULT
 10
155.1603275041449
 20
24.86333810877402
 30
0.0
  0
VERTEX
  5
8F
  8
DEFAULT
 10
155.1603278042288
 20
23.50941108508438
 30
0.0
 42
-0.3639300278892402
  0
VERTEX
  5
90
  8
DEFAULT
 10
155.7014374794762
 20
22.20302933377848
 30
0.0
  0
VERTEX
  5
91
  8
DEFAULT
 10
157.5515278042288
 20
20.35293900902589
 30
0.0
 42
-0.1989026328089929
  0
VERTEX
  5
92
  8
DEFAULT
 10
157.7003205600311
 20
19.99373909466827
 30
0.0
  0
VERTEX
  5
93
  8
DEFAULT
 10
157.7003278042288
 20
15.88941108508438
 30
0.0
 42
-0.9162658615203699
  0
VERTEX
  5
94
  8
DEFAULT
 10
156.8616181289815
 20
13.86462933377846
 30
0.0
  0
VERTEX
  5
95
  8
DEFAULT
 10
155.1603275041449
 20
12.16333810877406
 30
0.0
  0
VERTEX
  5
96
  8
DEFAULT
 10
155.1603278042288
 20
10.8094110850844
 30
0.0
 42
-0.3639300278892043
  0
VERTEX
  5
97
  8
DEFAULT
 10
155.7014374794763
 20
9.50302933377847
 30
0.0
  0
VERTEX
  5
98
  8
DEFAULT
 10
157.5515278042288
 20
7.652939009025903
 30
0.0
 42
-0.1989026328093024
  0
VERTEX
  5
99
  8
DEFAULT
 10
157.7003205600311
 20
7.293739094668264
 30
0.0
  0
VERTEX
  5
9A
  8
DEFAULT
 10
157.7003278042288
 20
3.189411085084373
 30
0.0
 42
-0.9162658615203834
  0
VERTEX
  5
9B
  8
DEFAULT
 10
156.8616181289814
 20
1.164629333778488
 30
0.0
  0
VERTEX
  5
9C
  8
DEFAULT
 10
155.1603275041449
 20
-0.5366618912259611
 30
0.0
  0
VERTEX
  5
9D
  8
DEFAULT
 10
155.1603278042288
 20
-1.890588914915596
 30
0.0
 42
-0.3639300278892271
  0
VERTEX
  5
9E
  8
DEFAULT
 10
155.7014374794762
 20
-3.196970666221529
 30
0.0
  0
VERTEX
  5
9F
  8
DEFAULT
 10
157.5515278042288
 20
-5.047060990974116
 30
0.0
 42
-0.1989026328093373
  0
VERTEX
  5
A0
  8
DEFAULT
 10
157.7003205600311
 20
-5.406260905331735
 30
0.0
  0
VERTEX
  5
A1
  8
DEFAULT
 10
157.7003278042288
 20
-9.510588914915626
 30
0.0
 42
-0.916265861520357
  0
VERTEX
  5
A2
  8
DEFAULT
 10
156.8616181289814
 20
-11.53537066622156
 30
0.0
  0
VERTEX
  5
A3
  8
DEFAULT
 10
155.1603275041449
 20
-13.23666189122598
 30
0.0
  0
VERTEX
  5
A4
  8
DEFAULT
 10
155.1603278042288
 20
-14.59058891491562
 30
0.0
 42
-0.3639300278891789
  0
VERTEX
  5
A5
  8
DEFAULT
 10
155.7014374794763
 20
-15.89697066622152
 30
0.0
  0
VERTEX
  5
A6
  8
DEFAULT
 10
157.5515278042288
 20
-17.74706099097411
 30
0.0
 42
-0.1989026328091548
  0
VERTEX
  5
A7
  8
DEFAULT
 10
157.7003205600311
 20
-18.10626090533173
 30
0.0
  0
VERTEX
  5
A8
  8
DEFAULT
 10
157.7003278042289
 20
-22.2105889149156
 30
0.0
 42
-0.9162658615203726
  0
VERTEX
  5
A9
  8
DEFAULT
 10
156.8616181289814
 20
-24.23537066622158
 30
0.0
  0
VERTEX
  5
AA
  8
DEFAULT
 10
155.1603275041449
 20
-25.93666189122597
 30
0.0
  0
VERTEX
  5
AB
  8
DEFAULT
 10
155.1603278042288
 20
-27.29058891491563
 30
0.0
 42
-0.3639300278892601
  0
VERTEX
  5
AC
  8
DEFAULT
 10
155.7014374794762
 20
-28.59697066622155
 30
0.0
  0
VERTEX
  5
AD
  8
DEFAULT
 10
157.5515278042288
 20
-30.44706099097413
 30
0.0
 42
-0.1989026328091552
  0
VERTEX
  5
AE
  8
DEFAULT
 10
157.700320560031
 20
-30.80626090533173
 30
0.0
  0
VERTEX
  5
AF
  8
DEFAULT
 10
157.7003278042288
 20
-34.91058891491564
 30
0.0
 42
-4.085968653659666
  0
VERTEX
  5
B0
  8
DEFAULT
 10
156.6843278042289
 20
-34.91058891491573
 30
0.0
  0
VERTEX
  5
B1
  8
DEFAULT
 10
156.6843278042288
 20
-31.0166609909741
 30
0.0
  0
VERTEX
  5
B2
  8
DEFAULT
 10
154.9830374794763
 20
-29.31537066622155
 30
0.0
 42
-0.9162658615204551
  0
VERTEX
  5
B3
  8
DEFAULT
 10
154.1443278042289
 20
-27.29058891491568
 30
0.0
  0
VERTEX
  5
B4
  8
DEFAULT
 10
154.1443350484266
 20
-25.72626099097413
 30
0.0
 42
-0.1989026838333895
  0
VERTEX
  5
B5
  8
DEFAULT
 10
154.2931278042288
 20
-25.36706099097411
 30
0.0
  0
VERTEX
  5
B6
  8
DEFAULT
 10
156.1432181289814
 20
-23.51697066622152
 30
0.0
 42
-0.3639300278892244
  0
VERTEX
  5
B7
  8
DEFAULT
 10
156.6843278042289
 20
-22.21058891491571
 30
0.0
  0
VERTEX
  5
B8
  8
DEFAULT
 10
156.6843278042288
 20
-18.31666099097411
 30
0.0
  0
VERTEX
  5
B9
  8
DEFAULT
 10
154.9830374794763
 20
-16.61537066622156
 30
0.0
 42
-0.9162658615204925
  0
VERTEX
  5
BA
  8
DEFAULT
 10
154.144327804229
 20
-14.59058891491571
 30
0.0
  0
VERTEX
  5
BB
  8
DEFAULT
 10
154.1443350484266
 20
-13.02626099097411
 30
0.0
 42
-0.1989026346151423
  0
VERTEX
  5
BC
  8
DEFAULT
 10
154.2931278042288
 20
-12.66706099097409
 30
0.0
  0
VERTEX
  5
BD
  8
DEFAULT
 10
156.1432181289814
 20
-10.81697066622154
 30
0.0
 42
-0.3639300278891978
  0
VERTEX
  5
BE
  8
DEFAULT
 10
156.684327804229
 20
-9.510588914915745
 30
0.0
  0
VERTEX
  5
BF
  8
DEFAULT
 10
156.6843278042288
 20
-5.616660990974097
 30
0.0
  0
VERTEX
  5
C0
  8
DEFAULT
 10
154.9830374794763
 20
-3.915370666221529
 30
0.0
 42
-0.9162658615205095
  0
VERTEX
  5
C1
  8
DEFAULT
 10
154.144327804229
 20
-1.890588914915692
 30
0.0
  0
VERTEX
  5
C2
  8
DEFAULT
 10
154.1443350484266
 20
-0.3262612937657111
 30
0.0
 42
-0.1989026902180936
  0
VERTEX
  5
C3
  8
DEFAULT
 10
154.2931278042288
 20
0.032939009025871
 30
0.0
  0
VERTEX
  5
C4
  8
DEFAULT
 10
156.1432181289814
 20
1.883029333778454
 30
0.0
 42
-0.3639300278892603
  0
VERTEX
  5
C5
  8
DEFAULT
 10
156.6843278042289
 20
3.189411085084235
 30
0.0
  0
VERTEX
  5
C6
  8
DEFAULT
 10
156.6843278042288
 20
7.083339009025892
 30
0.0
  0
VERTEX
  5
C7
  8
DEFAULT
 10
154.9830374794763
 20
8.784629333778488
 30
0.0
 42
-0.9162658615205329
  0
VERTEX
  5
C8
  8
DEFAULT
 10
154.144327804229
 20
10.80941108508428
 30
0.0
  0
VERTEX
  5
C9
  8
DEFAULT
 10
154.1443350484266
 20
12.3737390090259
 30
0.0
 42
-0.1989026838336576
  0
VERTEX
  5
CA
  8
DEFAULT
 10
154.2931278042288
 20
12.73293900902588
 30
0.0
  0
VERTEX
  5
CB
  8
DEFAULT
 10
156.1432181289814
 20
14.58302933377847
 30
0.0
 42
-0.3639300278892786
  0
VERTEX
  5
CC
  8
DEFAULT
 10
156.6843278042289
 20
15.88941108508427
 30
0.0
  0
VERTEX
  5
CD
  8
DEFAULT
 10
156.6843278042288
 20
19.78333900902591
 30
0.0
  0
VERTEX
  5
CE
  8
DEFAULT
 10
154.9830374794763
 20
21.48462933377848
 30
0.0
 42
-0.9162658615204573
  0
VERTEX
  5
CF
  8
DEFAULT
 10
154.144327804229
 20
23.5094110850843
 30
0.0
  0
VERTEX
  5
D0
  8
DEFAULT
 10
154.1443350484266
 20
25.07373900902589
 30
0.0
 42
-0.1989026838334097
  0
VERTEX
  5
D1
  8
DEFAULT
 10
154.2931278042288
 20
25.43293900902587
 30
0.0
  0
VERTEX
  5
D2
  8
DEFAULT
 10
156.1432181289814
 20
27.28302933377846
 30
0.0
 42
-0.3639300278892399
  0
VERTEX
  5
D3
  8
DEFAULT
 10
156.6843278042289
 20
28.58941108508426
 30
0.0
  0
VERTEX
  5
D4
  8
DEFAULT
 10
156.6843278042288
 20
32.4833390090259
 30
0.0
  0
VERTEX
  5
D5
  8
DEFAULT
 10
154.9830374794762
 20
34.18462933377848
 30
0.0
 42
-0.9162658615204794
  0
VERTEX
  5
D6
  8
DEFAULT
 10
154.1443278042289
 20
36.20941108508422
 30
0.0
  0
VERTEX
  5
D7
  8
DEFAULT
 10
154.1443350484266
 20
37.77373900902587
 30
0.0
 42
-0.1989026346151498
  0
VERTEX
  5
D8
  8
DEFAULT
 10
154.2931278042288
 20
38.13293900902587
 30
0.0
  0
VERTEX
  5
D9
  8
DEFAULT
 10
156.1432181289814
 20
39.98302933377848
 30
0.0
 42
-0.3639300278892368
  0
VERTEX
  5
DA
  8
DEFAULT
 10
156.6843278042289
 20
41.28941108508432
 30
0.0
  0
VERTEX
  5
DB
  8
DEFAULT
 10
156.6843278042288
 20
45.18333900902589
 30
0.0
  0
VERTEX
  5
DC
  8
DEFAULT
 10
154.9830374794763
 20
46.88462933377848
 30
0.0
 42
-0.9162658615204433
  0
VERTEX
  5
DD
  8
DEFAULT
 10
154.1443278042289
 20
48.90941108508429
 30
0.0
  0
VERTEX
  5
DE
  8
DEFAULT
 10
154.1443350484266
 20
50.47373870623427
 30
0.0
 42
-0.1989026902182588
  0
VERTEX
  5
DF
  8
DEFAULT
 10
154.2931278042289
 20
50.83293900902585
 30
0.0
  0
VERTEX
  5
E0
  8
DEFAULT
 10
156.1432181289814
 20
52.68302933377846
 30
0.0
 42
-0.3639300278892403
  0
VERTEX
  5
E1
  8
DEFAULT
 10
156.684327804229
 20
53.98941108508429
 30
0.0
  0
VERTEX
  5
E2
  8
DEFAULT
 10
156.6843278042288
 20
57.8833390090259
 30
0.0
  0
VERTEX
  5
E3
  8
DEFAULT
 10
154.9830374794763
 20
59.58462933377844
 30
0.0
 42
-0.9162658615204458
  0
VERTEX
  5
E4
  8
DEFAULT
 10
154.1443278042289
 20
61.60941108508435
 30
0.0
  0
VERTEX
  5
E5
  8
DEFAULT
 10
154.1443278042289
 20
62.89263900902587
 30
0.0
  0
VERTEX
  5
E6
  8
DEFAULT
 10
152.8961278042288
 20
64.1408390090259
 30
0.0
 42
-0.198902712280582
  0
VERTEX
  5
E7
  8
DEFAULT
 10
152.7473350484266
 20
64.50004035816508
 30
0.0
  0
VERTEX
  5
E8
  8
DEFAULT
 10
152.7473350484266
 20
75.8174390946683
 30
0.0
 42
-0.1989026276540809
  0
VERTEX
  5
E9
  8
DEFAULT
 10
152.8961279774757
 20
76.17663918227275
 30
0.0
  0
VERTEX
  5
EA
  8
DEFAULT
 10
154.3467148694322
 20
77.62722607422928
 30
0.0
  0
VERTEX
  5
EB
  8
DEFAULT
 10
154.5401907300105
 20
77.75000193480754
 30
0.0
  0
VERTEX
  5
EC
  8
DEFAULT
 10
155.5604148694345
 20
78.77022607423149
 30
0.0
 42
-0.2008759561912007
  0
VERTEX
  5
ED
  8
DEFAULT
 10
155.9223278042288
 20
78.92173900902588
 30
0.0
  0
VERTEX
  5
EE
  8
DEFAULT
 10
172.4323278898713
 20
78.9217317648281
 30
0.0
 42
-0.1989026328091925
  0
VERTEX
  5
EF
  8
DEFAULT
 10
172.7915278042288
 20
78.77293900902586
 30
0.0
  0
VERTEX
  5
F0
  8
DEFAULT
 10
173.4238148694328
 20
78.14065194382194
 30
0.0
 42
-0.2008759561924967
  0
VERTEX
  5
F1
  8
DEFAULT
 10
173.5753278042288
 20
77.7787390090259
 30
0.0
  0
VERTEX
  5
F2
  8
DEFAULT
 10
173.5753278042288
 20
76.84941108508441
 30
0.0
  0
SEQEND
  5
F3
  8
DEFAULT
  0
POLYLINE
  5
F4
  8
DEFAULT
 66
     1
 10
0.0
 20
0.0
 30
0.0
  0
VERTEX
  5
F5
  8
DEFAULT
 10
162.2723278042288
 20
-27.16626099097412
 30
0.0
 42
-0.7847733099778819
  0
VERTEX
  5
F6
  8
DEFAULT
 10
162.7803278042288
 20
-29.24193306703255
 30
0.0
  0
VERTEX
  5
F7
  8
DEFAULT
 10
162.7803278042288
 20
-30.17350392215761
 30
0.0
 42
-3.664088718143625
  0
VERTEX
  5
F8
  8
DEFAULT
 10
161.7643278042289
 20
-30.17350392215771
 30
0.0
  0
VERTEX
  5
F9
  8
DEFAULT
 10
161.7643278042288
 20
-29.24193306703259
 30
0.0
 42
-0.784773309977884
  0
VERTEX
  5
FA
  8
DEFAULT
 10
162.2723278042288
 20
-27.16626099097417
 30
0.0
  0
SEQEND
  5
FB
  8
DEFAULT
  0
POLYLINE
  5
FC
  8
DEFAULT
 66
     1
 10
0.0
 20
0.0
 30
0.0
  0
VERTEX
  5
FD
  8
DEFAULT
 10
175.4558148694153
 20
63.1976519437971
 30
0.0
 42
-0.2008759562262848
  0
VERTEX
  5
FE
  8
DEFAULT
 10
175.6073278042288
 20
62.83573900902589
 30
0.0
  0
VERTEX
  5
FF
  8
DEFAULT
 10
175.6073278042288
 20
-10.15606099097413
 30
0.0
 42
-0.2008759562268122
  0
VERTEX
  5
100
  8
DEFAULT
 10
175.4558148694148
 20
-10.51797392574585
 30
0.0
  0
VERTEX
  5
101
  8
DEFAULT
 10
173.5704095007602
 20
-12.40337929444276
 30
0.0
 42
-0.1628958195912835
  0
VERTEX
  5
102
  8
DEFAULT
 10
173.4265278042288
 20
-12.69196099097412
 30
0.0
  0
VERTEX
  5
103
  8
DEFAULT
 10
165.8314278042288
 20
-20.2870609909741
 30
0.0
  0
VERTEX
  5
104
  8
DEFAULT
 10
165.803796636641
 20
-20.31271700624423
 30
0.0
 42
-0.3007696449468798
  0
VERTEX
  5
105
  8
DEFAULT
 10
165.3203278042288
 20
-21.30441805979053
 30
0.0
  0
VERTEX
  5
106
  8
DEFAULT
 10
165.3203278042288
 20
-22.21058891491561
 30
0.0
 42
-4.085968653660161
  0
VERTEX
  5
107
  8
DEFAULT
 10
164.3043278042289
 20
-22.21058891491567
 30
0.0
  0
VERTEX
  5
108
  8
DEFAULT
 10
164.3043278042288
 20
-21.30441805979062
 30
0.0
 42
-0.7636544621793266
  0
VERTEX
  5
109
  8
DEFAULT
 10
164.8123278042288
 20
-19.44306099097405
 30
0.0
  0
VERTEX
  5
10A
  8
DEFAULT
 10
165.0856525784823
 20
-19.48113918137663
 30
0.0
  0
VERTEX
  5
10B
  8
DEFAULT
 10
165.2567768037639
 20
-19.42481199143906
 30
0.0
  0
VERTEX
  5
10C
  8
DEFAULT
 10
172.5642958306572
 20
-12.11729296454583
 30
0.0
 42
-0.1628245757147782
  0
VERTEX
  5
10D
  8
DEFAULT
 10
172.7081278042288
 20
-11.82886099097412
 30
0.0
  0
VERTEX
  5
10E
  8
DEFAULT
 10
174.5913278042289
 20
-9.945660990974105
 30
0.0
  0
VERTEX
  5
10F
  8
DEFAULT
 10
174.5913278042289
 20
62.62533900902589
 30
0.0
  0
VERTEX
  5
110
  8
DEFAULT
 10
172.7081278042288
 20
64.5085390090259
 30
0.0
 42
-0.1989026346152875
  0
VERTEX
  5
111
  8
DEFAULT
 10
172.5593350484266
 20
64.8677390090259
 30
0.0
  0
VERTEX
  5
112
  8
DEFAULT
 10
172.5593278042288
 20
72.35806693296743
 30
0.0
 42
-4.085968653659297
  0
VERTEX
  5
113
  8
DEFAULT
 10
173.5753278042287
 20
72.3580669329675
 30
0.0
  0
VERTEX
  5
114
  8
DEFAULT
 10
173.5753278042288
 20
65.07813900902589
 30
0.0
  0
VERTEX
  5
115
  8
DEFAULT
 10
175.4558148694362
 20
63.19765194381849
 30
0.0
  0
SEQEND
  5
116
  8
DEFAULT
  0
POLYLINE
  5
117
  8
DEFAULT
 66
     1
 10
0.0
 20
0.0
 30
0.0
  0
VERTEX
  5
118
  8
DEFAULT
 10
162.2723278042288
 20
-14.46626099097411
 30
0.0
 42
-0.7847733099778973
  0
VERTEX
  5
119
  8
DEFAULT
 10
162.7803278042288
 20
-16.54193306703256
 30
0.0
  0
VERTEX
  5
11A
  8
DEFAULT
 10
162.7803278042288
 20
-17.47350392215768
 30
0.0
 42
-3.664088718142825
  0
VERTEX
  5
11B
  8
DEFAULT
 10
161.7643278042289
 20
-17.47350392215771
 30
0.0
  0
VERTEX
  5
11C
  8
DEFAULT
 10
161.7643278042288
 20
-16.54193306703262
 30
0.0
 42
-0.7847733099778885
  0
VERTEX
  5
11D
  8
DEFAULT
 10
162.2723278042288
 20
-14.46626099097411
 30
0.0
  0
SEQEND
  5
11E
  8
DEFAULT
  0
POLYLINE
  5
11F
  8
DEFAULT
 66
     1
 10
0.0
 20
0.0
 30
0.0
  0
VERTEX
  5
120
  8
DEFAULT
 10
174.0588148694123
 20
62.61895194380018
 30
0.0
 42
-0.2008759562284652
  0
VERTEX
  5
121
  8
DEFAULT
 10
174.2103278042288
 20
62.25703900902589
 30
0.0
  0
VERTEX
  5
122
  8
DEFAULT
 10
174.2103278042288
 20
1.146939009025871
 30
0.0
 42
-0.2008759562278547
  0
VERTEX
  5
123
  8
DEFAULT
 10
174.0588148694132
 20
0.7850260742525603
 30
0.0
  0
VERTEX
  5
124
  8
DEFAULT
 10
171.0304095007602
 20
-2.243379294442762
 30
0.0
 42
-0.1628958195912917
  0
VERTEX
  5
125
  8
DEFAULT
 10
170.8865278042288
 20
-2.531960990974131
 30
0.0
  0
VERTEX
  5
126
  8
DEFAULT
 10
165.8314278042288
 20
-7.587060990974109
 30
0.0
  0
VERTEX
  5
127
  8
DEFAULT
 10
165.803796636641
 20
-7.612717006244255
 30
0.0
 42
-0.3007696449468415
  0
VERTEX
  5
128
  8
DEFAULT
 10
165.3203278042288
 20
-8.604418059790572
 30
0.0
  0
VERTEX
  5
129
  8
DEFAULT
 10
165.3203278042289
 20
-9.5105889149156
 30
0.0
 42
-4.085968653659572
  0
VERTEX
  5
12A
  8
DEFAULT
 10
164.3043278042289
 20
-9.510588914915738
 30
0.0
  0
VERTEX
  5
12B
  8
DEFAULT
 10
164.3043278042288
 20
-8.604418059790616
 30
0.0
 42
-0.7636544621794065
  0
VERTEX
  5
12C
  8
DEFAULT
 10
164.8123278042288
 20
-6.743060990974109
 30
0.0
  0
VERTEX
  5
12D
  8
DEFAULT
 10
165.0856525784823
 20
-6.781139181376598
 30
0.0
  0
VERTEX
  5
12E
  8
DEFAULT
 10
165.2567768037638
 20
-6.724811991439063
 30
0.0
  0
VERTEX
  5
12F
  8
DEFAULT
 10
170.0242958306571
 20
-1.957292964545801
 30
0.0
 42
-0.1628245757146715
  0
VERTEX
  5
130
  8
DEFAULT
 10
170.1681278042288
 20
-1.668860990974098
 30
0.0
  0
VERTEX
  5
131
  8
DEFAULT
 10
173.1943278042289
 20
1.357339009025893
 30
0.0
  0
VERTEX
  5
132
  8
DEFAULT
 10
173.1943278042289
 20
62.0466390090259
 30
0.0
  0
VERTEX
  5
133
  8
DEFAULT
 10
170.1681278042288
 20
65.07283900902587
 30
0.0
 42
-0.1989026838333424
  0
VERTEX
  5
134
  8
DEFAULT
 10
170.0193350484266
 20
65.4320390090259
 30
0.0
  0
VERTEX
  5
135
  8
DEFAULT
 10
170.0193278042289
 20
72.3580669329674
 30
0.0
 42
-4.085968653661206
  0
VERTEX
  5
136
  8
DEFAULT
 10
171.0353278042287
 20
72.3580669329674
 30
0.0
  0
VERTEX
  5
137
  8
DEFAULT
 10
171.0353278042288
 20
65.64243900902586
 30
0.0
  0
VERTEX
  5
138
  8
DEFAULT
 10
174.0588148694333
 20
62.61895194382141
 30
0.0
  0
SEQEND
  5
139
  8
DEFAULT
  0
POLYLINE
  5
13A
  8
DEFAULT
 66
     1
 10
0.0
 20
0.0
 30
0.0
  0
VERTEX
  5
13B
  8
DEFAULT
 10
162.2723278042288
 20
-1.766260990974118
 30
0.0
 42
-0.7847733099779108
  0
VERTEX
  5
13C
  8
DEFAULT
 10
162.7803278042288
 20
-3.841933067032509
 30
0.0
  0
VERTEX
  5
13D
  8
DEFAULT
 10
162.7803278042288
 20
-4.773503922157642
 30
0.0
 42
-3.664088718142671
  0
VERTEX
  5
13E
  8
DEFAULT
 10
161.7643278042288
 20
-4.773503922157657
 30
0.0
  0
VERTEX
  5
13F
  8
DEFAULT
 10
161.7643278042288
 20
-3.841933067032599
 30
0.0
 42
-0.7847733099778895
  0
VERTEX
  5
140
  8
DEFAULT
 10
162.2723278042288
 20
-1.766260990974091
 30
0.0
  0
SEQEND
  5
141
  8
DEFAULT
  0
POLYLINE
  5
142
  8
DEFAULT
 66
     1
 10
0.0
 20
0.0
 30
0.0
  0
VERTEX
  5
143
  8
DEFAULT
 10
172.6457060800746
 20
62.05598981039113
 30
0.0
 42
-0.211971699784312
  0
VERTEX
  5
144
  8
DEFAULT
 10
172.8133278042288
 20
61.67843900902589
 30
0.0
  0
VERTEX
  5
145
  8
DEFAULT
 10
172.8133278042288
 20
12.44993900902587
 30
0.0
 42
-0.2008759562269903
  0
VERTEX
  5
146
  8
DEFAULT
 10
172.6618148694147
 20
12.08802607425407
 30
0.0
  0
VERTEX
  5
147
  8
DEFAULT
 10
168.4904095007602
 20
7.916620705557264
 30
0.0
 42
-0.1628958195914808
  0
VERTEX
  5
148
  8
DEFAULT
 10
168.3465278042289
 20
7.628039009025895
 30
0.0
  0
VERTEX
  5
149
  8
DEFAULT
 10
165.8314278042288
 20
5.112939009025879
 30
0.0
  0
VERTEX
  5
14A
  8
DEFAULT
 10
165.8037966366411
 20
5.087282993755787
 30
0.0
 42
-0.3007696449468715
  0
VERTEX
  5
14B
  8
DEFAULT
 10
165.3203278042288
 20
4.095581940209422
 30
0.0
  0
VERTEX
  5
14C
  8
DEFAULT
 10
165.3203278042288
 20
3.189411085084379
 30
0.0
 42
-4.085968653660031
  0
VERTEX
  5
14D
  8
DEFAULT
 10
164.3043278042289
 20
3.189411085084274
 30
0.0
  0
VERTEX
  5
14E
  8
DEFAULT
 10
164.3043278042288
 20
4.095581940209415
 30
0.0
 42
-0.763654462179376
  0
VERTEX
  5
14F
  8
DEFAULT
 10
164.8123278042288
 20
5.956939009025866
 30
0.0
  0
VERTEX
  5
150
  8
DEFAULT
 10
165.0856525784823
 20
5.918860818623358
 30
0.0
  0
VERTEX
  5
151
  8
DEFAULT
 10
165.2567768037639
 20
5.975188008560938
 30
0.0
  0
VERTEX
  5
152
  8
DEFAULT
 10
167.4842958306571
 20
8.202707035454194
 30
0.0
 42
-0.1628244730075783
  0
VERTEX
  5
153
  8
DEFAULT
 10
167.628128258418
 20
8.491139463215012
 30
0.0
  0
VERTEX
  5
154
  8
DEFAULT
 10
171.7973278042288
 20
12.66033900902586
 30
0.0
  0
VERTEX
  5
155
  8
DEFAULT
 10
171.7973278042288
 20
61.46793900902587
 30
0.0
  0
VERTEX
  5
156
  8
DEFAULT
 10
167.6281278042288
 20
65.63713900902589
 30
0.0
 42
-0.2012871861543809
  0
VERTEX
  5
157
  8
DEFAULT
 10
167.4793278042798
 20
66.00099363189067
 30
0.0
  0
VERTEX
  5
158
  8
DEFAULT
 10
167.4793278042289
 20
72.35806693296746
 30
0.0
 42
-4.085968653659258
  0
VERTEX
  5
159
  8
DEFAULT
 10
168.4953278042288
 20
72.35806693296749
 30
0.0
  0
VERTEX
  5
15A
  8
DEFAULT
 10
168.495335954292
 20
66.20681455883637
 30
0.0
  0
VERTEX
  5
15B
  8
DEFAULT
 10
172.6457060800745
 20
62.05598981039113
 30
0.0
  0
SEQEND
  5
15C
  8
DEFAULT
  0
POLYLINE
  5
15D
  8
DEFAULT
 66
     1
 10
0.0
 20
0.0
 30
0.0
  0
VERTEX
  5
15E
  8
DEFAULT
 10
162.2723278042288
 20
10.9337390090259
 30
0.0
 42
-0.7847733099779552
  0
VERTEX
  5
15F
  8
DEFAULT
 10
162.7803278042288
 20
8.858066932967496
 30
0.0
  0
VERTEX
  5
160
  8
DEFAULT
 10
162.7803278042288
 20
7.926496077842362
 30
0.0
 42
-3.664088718143126
  0
VERTEX
  5
161
  8
DEFAULT
 10
161.7643278042289
 20
7.926496077842343
 30
0.0
  0
VERTEX
  5
162
  8
DEFAULT
 10
161.7643278042288
 20
8.858066932967416
 30
0.0
 42
-0.7847733099778577
  0
VERTEX
  5
163
  8
DEFAULT
 10
162.2723278042288
 20
10.93373900902593
 30
0.0
  0
SEQEND
  5
164
  8
DEFAULT
  0
POLYLINE
  5
165
  8
DEFAULT
 66
     1
 10
0.0
 20
0.0
 30
0.0
  0
VERTEX
  5
166
  8
DEFAULT
 10
171.2648148694124
 20
61.46165194380004
 30
0.0
 42
-0.2008759562285479
  0
VERTEX
  5
167
  8
DEFAULT
 10
171.4163278042288
 20
61.0997390090259
 30
0.0
  0
VERTEX
  5
168
  8
DEFAULT
 10
171.4163278042288
 20
23.6083390090259
 30
0.0
 42
-0.2119261175022344
  0
VERTEX
  5
169
  8
DEFAULT
 10
171.2487310800746
 20
23.2307632076607
 30
0.0
  0
VERTEX
  5
16A
  8
DEFAULT
 10
165.803796636641
 20
17.78728299375577
 30
0.0
 42
-0.3007696449468404
  0
VERTEX
  5
16B
  8
DEFAULT
 10
165.3203278042288
 20
16.79558194020941
 30
0.0
  0
VERTEX
  5
16C
  8
DEFAULT
 10
165.3203278042288
 20
15.88941108508436
 30
0.0
 42
-4.085968653659002
  0
VERTEX
  5
16D
  8
DEFAULT
 10
164.3043278042289
 20
15.88941108508428
 30
0.0
  0
VERTEX
  5
16E
  8
DEFAULT
 10
164.3043278042288
 20
16.79558194020941
 30
0.0
 42
-0.7636544621793564
  0
VERTEX
  5
16F
  8
DEFAULT
 10
164.8123278042288
 20
18.65693900902589
 30
0.0
  0
VERTEX
  5
170
  8
DEFAULT
 10
165.0856525784823
 20
18.61886081862338
 30
0.0
  0
VERTEX
  5
171
  8
DEFAULT
 10
165.2567768037639
 20
18.67518800856095
 30
0.0
  0
VERTEX
  5
172
  8
DEFAULT
 10
170.4003278042288
 20
23.81873900902589
 30
0.0
  0
VERTEX
  5
173
  8
DEFAULT
 10
170.4003278042288
 20
60.88933900902587
 30
0.0
  0
VERTEX
  5
174
  8
DEFAULT
 10
165.0908407390225
 20
66.19882607423223
 30
0.0
 42
-0.2008759561907466
  0
VERTEX
  5
175
  8
DEFAULT
 10
164.9393278042289
 20
66.56073900902588
 30
0.0
  0
VERTEX
  5
176
  8
DEFAULT
 10
164.9393278042289
 20
72.35806693296736
 30
0.0
 42
-4.085968653660036
  0
VERTEX
  5
177
  8
DEFAULT
 10
165.9553278042287
 20
72.35806693296749
 30
0.0
  0
VERTEX
  5
178
  8
DEFAULT
 10
165.9553278042288
 20
66.77113900902587
 30
0.0
  0
VERTEX
  5
179
  8
DEFAULT
 10
171.2648148694334
 20
61.46165194382131
 30
0.0
  0
SEQEND
  5
17A
  8
DEFAULT
  0
POLYLINE
  5
17B
  8
DEFAULT
 66
     1
 10
0.0
 20
0.0
 30
0.0
  0
VERTEX
  5
17C
  8
DEFAULT
 10
162.2723278042288
 20
23.63373900902589
 30
0.0
 42
-0.7847733099779064
  0
VERTEX
  5
17D
  8
DEFAULT
 10
162.7803278042287
 20
21.55806693296755
 30
0.0
  0
VERTEX
  5
17E
  8
DEFAULT
 10
162.7803278042288
 20
20.62649607784237
 30
0.0
 42
-3.664088718143081
  0
VERTEX
  5
17F
  8
DEFAULT
 10
161.7643278042289
 20
20.62649607784235
 30
0.0
  0
VERTEX
  5
180
  8
DEFAULT
 10
161.7643278042288
 20
21.55806693296741
 30
0.0
 42
-0.784773309977905
  0
VERTEX
  5
181
  8
DEFAULT
 10
162.2723278042288
 20
23.63373900902587
 30
0.0
  0
SEQEND
  5
182
  8
DEFAULT
  0
POLYLINE
  5
183
  8
DEFAULT
 66
     1
 10
0.0
 20
0.0
 30
0.0
  0
VERTEX
  5
184
  8
DEFAULT
 10
169.8678148694143
 20
60.88295194379817
 30
0.0
 42
-0.2008759562273228
  0
VERTEX
  5
185
  8
DEFAULT
 10
170.0193278042289
 20
60.5210390090259
 30
0.0
  0
VERTEX
  5
186
  8
DEFAULT
 10
170.0193278042289
 20
34.91133900902589
 30
0.0
 42
-0.211926117502303
  0
VERTEX
  5
187
  8
DEFAULT
 10
169.8517310800746
 20
34.53376320766072
 30
0.0
  0
VERTEX
  5
188
  8
DEFAULT
 10
165.803796636641
 20
30.48728299375575
 30
0.0
 42
-0.3007696449468189
  0
VERTEX
  5
189
  8
DEFAULT
 10
165.3203278042288
 20
29.49558194020942
 30
0.0
  0
VERTEX
  5
18A
  8
DEFAULT
 10
165.3203278042288
 20
28.5894110850844
 30
0.0
 42
-4.085968653659655
  0
VERTEX
  5
18B
  8
DEFAULT
 10
164.3043278042289
 20
28.5894110850843
 30
0.0
  0
VERTEX
  5
18C
  8
DEFAULT
 10
164.3043278042288
 20
29.4955819402094
 30
0.0
 42
-0.7636544621793733
  0
VERTEX
  5
18D
  8
DEFAULT
 10
164.8123278042288
 20
31.35693900902583
 30
0.0
  0
VERTEX
  5
18E
  8
DEFAULT
 10
165.0856525784822
 20
31.31886081862341
 30
0.0
  0
VERTEX
  5
18F
  8
DEFAULT
 10
165.2567768037639
 20
31.37518800856095
 30
0.0
  0
VERTEX
  5
190
  8
DEFAULT
 10
169.0033278042288
 20
35.12173900902586
 30
0.0
  0
VERTEX
  5
191
  8
DEFAULT
 10
169.0033278042288
 20
60.31063900902591
 30
0.0
  0
VERTEX
  5
192
  8
DEFAULT
 10
164.4837019438204
 20
64.83026486943434
 30
0.0
 42
-0.1608558962680519
  0
VERTEX
  5
193
  8
DEFAULT
 10
164.1991278647854
 20
64.97353894846931
 30
0.0
  0
VERTEX
  5
194
  8
DEFAULT
 10
161.9158407390198
 20
67.25682607423492
 30
0.0
 42
-0.2008759561887494
  0
VERTEX
  5
195
  8
DEFAULT
 10
161.7643278042289
 20
67.6187390090259
 30
0.0
  0
VERTEX
  5
196
  8
DEFAULT
 10
161.7643350484267
 20
72.69873909466828
 30
0.0
 42
-0.1575832679541584
  0
VERTEX
  5
197
  8
DEFAULT
 10
161.8604411625099
 20
72.9960581546817
 30
0.0
 42
-3.403592338953285
  0
VERTEX
  5
198
  8
DEFAULT
 10
162.7803278042288
 20
72.24109496817819
 30
0.0
  0
VERTEX
  5
199
  8
DEFAULT
 10
162.7803278042288
 20
67.8291390090259
 30
0.0
  0
VERTEX
  5
19A
  8
DEFAULT
 10
164.7742536646372
 20
65.83521314861748
 30
0.0
 42
-0.1608559844375051
  0
VERTEX
  5
19B
  8
DEFAULT
 10
165.0588278042288
 20
65.69193900902589
 30
0.0
  0
VERTEX
  5
19C
  8
DEFAULT
 10
169.8678148694354
 20
60.88295194381932
 30
0.0
  0
SEQEND
  5
19D
  8
DEFAULT
  0
POLYLINE
  5
19E
  8
DEFAULT
 66
     1
 10
0.0
 20
0.0
 30
0.0
  0
VERTEX
  5
19F
  8
DEFAULT
 10
162.2723278042288
 20
36.33373900902588
 30
0.0
 42
-0.7847733099779255
  0
VERTEX
  5
1A0
  8
DEFAULT
 10
162.7803278042287
 20
34.25806693296747
 30
0.0
  0
VERTEX
  5
1A1
  8
DEFAULT
 10
162.7803278042288
 20
33.32649607784234
 30
0.0
 42
-3.664088718143529
  0
VERTEX
  5
1A2
  8
DEFAULT
 10
161.7643278042289
 20
33.32649607784234
 30
0.0
  0
VERTEX
  5
1A3
  8
DEFAULT
 10
161.7643278042288
 20
34.25806693296737
 30
0.0
 42
-0.7847733099779568
  0
VERTEX
  5
1A4
  8
DEFAULT
 10
162.2723278042288
 20
36.33373900902581
 30
0.0
  0
SEQEND
  5
1A5
  8
DEFAULT
  0
POLYLINE
  5
1A6
  8
DEFAULT
 66
     1
 10
0.0
 20
0.0
 30
0.0
  0
VERTEX
  5
1A7
  8
DEFAULT
 10
168.4708148694157
 20
60.30435194379674
 30
0.0
 42
-0.2008759562258965
  0
VERTEX
  5
1A8
  8
DEFAULT
 10
168.6223278042289
 20
59.94243900902588
 30
0.0
  0
VERTEX
  5
1A9
  8
DEFAULT
 10
168.6223278042288
 20
46.2188936318915
 30
0.0
 42
-0.2012871860920353
  0
VERTEX
  5
1AA
  8
DEFAULT
 10
168.4735278042288
 20
45.85503900902593
 30
0.0
  0
VERTEX
  5
1AB
  8
DEFAULT
 10
165.8314278042288
 20
43.21293900902587
 30
0.0
  0
VERTEX
  5
1AC
  8
DEFAULT
 10
165.803796636641
 20
43.18728299375576
 30
0.0
 42
-0.3007696449468482
  0
VERTEX
  5
1AD
  8
DEFAULT
 10
165.3203278042288
 20
42.1955819402095
 30
0.0
  0
VERTEX
  5
1AE
  8
DEFAULT
 10
165.3203278042288
 20
41.28941108508438
 30
0.0
 42
-4.085968653659721
  0
VERTEX
  5
1AF
  8
DEFAULT
 10
164.3043278042289
 20
41.28941108508426
 30
0.0
  0
VERTEX
  5
1B0
  8
DEFAULT
 10
164.3043278042288
 20
42.19558194020946
 30
0.0
 42
-0.7636544621793523
  0
VERTEX
  5
1B1
  8
DEFAULT
 10
164.8123278042288
 20
44.05693900902586
 30
0.0
  0
VERTEX
  5
1B2
  8
DEFAULT
 10
165.0856525784823
 20
44.01886081862337
 30
0.0
  0
VERTEX
  5
1B3
  8
DEFAULT
 10
165.2567768037639
 20
44.07518800856096
 30
0.0
  0
VERTEX
  5
1B4
  8
DEFAULT
 10
167.6063278042288
 20
46.42473900902588
 30
0.0
  0
VERTEX
  5
1B5
  8
DEFAULT
 10
167.6063278042288
 20
59.73203900902588
 30
0.0
  0
VERTEX
  5
1B6
  8
DEFAULT
 10
163.9106278042288
 20
63.4277390090259
 30
0.0
  0
VERTEX
  5
1B7
  8
DEFAULT
 10
161.6373277185864
 20
63.4277462532237
 30
0.0
 42
-0.1989025433750389
  0
VERTEX
  5
1B8
  8
DEFAULT
 10
161.2781278647855
 20
63.57653894846932
 30
0.0
  0
VERTEX
  5
1B9
  8
DEFAULT
 10
160.0108407390223
 20
64.84382607423238
 30
0.0
 42
-0.2008759561903798
  0
VERTEX
  5
1BA
  8
DEFAULT
 10
159.8593278042288
 20
65.20573900902589
 30
0.0
  0
VERTEX
  5
1BB
  8
DEFAULT
 10
159.8593278042288
 20
72.35806693296735
 30
0.0
 42
-4.085968653659246
  0
VERTEX
  5
1BC
  8
DEFAULT
 10
160.8753278042287
 20
72.35806693296749
 30
0.0
  0
VERTEX
  5
1BD
  8
DEFAULT
 10
160.8753278042288
 20
65.41613900902591
 30
0.0
  0
VERTEX
  5
1BE
  8
DEFAULT
 10
161.8477278042288
 20
64.44373900902589
 30
0.0
  0
VERTEX
  5
1BF
  8
DEFAULT
 10
164.1210278042288
 20
64.4437390090259
 30
0.0
 42
-0.2008759562257755
  0
VERTEX
  5
1C0
  8
DEFAULT
 10
164.4829407389994
 20
64.29222607421308
 30
0.0
  0
VERTEX
  5
1C1
  8
DEFAULT
 10
168.4708148694367
 20
60.30435194381808
 30
0.0
  0
SEQEND
  5
1C2
  8
DEFAULT
  0
POLYLINE
  5
1C3
  8
DEFAULT
 66
     1
 10
0.0
 20
0.0
 30
0.0
  0
VERTEX
  5
1C4
  8
DEFAULT
 10
162.2723278042288
 20
49.03373900902589
 30
0.0
 42
-0.7847733099779759
  0
VERTEX
  5
1C5
  8
DEFAULT
 10
162.7803278042288
 20
46.95806693296746
 30
0.0
  0
VERTEX
  5
1C6
  8
DEFAULT
 10
162.7803278042288
 20
46.0264960778424
 30
0.0
 42
-3.664088718143391
  0
VERTEX
  5
1C7
  8
DEFAULT
 10
161.7643278042289
 20
46.02649607784234
 30
0.0
  0
VERTEX
  5
1C8
  8
DEFAULT
 10
161.7643278042288
 20
46.95806693296743
 30
0.0
 42
-0.784773309977854
  0
VERTEX
  5
1C9
  8
DEFAULT
 10
162.2723278042288
 20
49.03373900902593
 30
0.0
  0
SEQEND
  5
1CA
  8
DEFAULT
  0
POLYLINE
  5
1CB
  8
DEFAULT
 66
     1
 10
0.0
 20
0.0
 30
0.0
  0
VERTEX
  5
1CC
  8
DEFAULT
 10
167.2253205600427
 20
59.36373909466828
 30
0.0
  0
VERTEX
  5
1CD
  8
DEFAULT
 10
167.2253278042608
 20
56.82373900902589
 30
0.0
 42
-0.2008759561886978
  0
VERTEX
  5
1CE
  8
DEFAULT
 10
167.0738148694136
 20
56.46182607425293
 30
0.0
  0
VERTEX
  5
1CF
  8
DEFAULT
 10
166.0097278042288
 20
55.3977390090259
 30
0.0
 42
-0.1869195463395119
  0
VERTEX
  5
1D0
  8
DEFAULT
 10
165.6740135355785
 20
55.24949669661687
 30
0.0
 42
-0.127108256125676
  0
VERTEX
  5
1D1
  8
DEFAULT
 10
165.3203278042288
 20
54.89558194020945
 30
0.0
  0
VERTEX
  5
1D2
  8
DEFAULT
 10
165.3203278042288
 20
53.98941108508434
 30
0.0
 42
-4.085968653659505
  0
VERTEX
  5
1D3
  8
DEFAULT
 10
164.3043278042289
 20
53.98941108508433
 30
0.0
  0
VERTEX
  5
1D4
  8
DEFAULT
 10
164.3043278042288
 20
54.89558194020939
 30
0.0
 42
-1.184689283553999
  0
VERTEX
  5
1D5
  8
DEFAULT
 10
165.5767929112275
 20
56.40160411602456
 30
0.0
  0
VERTEX
  5
1D6
  8
DEFAULT
 10
166.2093278042288
 20
57.03413900902591
 30
0.0
  0
VERTEX
  5
1D7
  8
DEFAULT
 10
166.2093278042288
 20
59.15333900902588
 30
0.0
  0
VERTEX
  5
1D8
  8
DEFAULT
 10
163.3319278042289
 20
62.03073900902588
 30
0.0
  0
VERTEX
  5
1D9
  8
DEFAULT
 10
157.1923278042289
 20
62.03073900902585
 30
0.0
 42
-0.2008759562276277
  0
VERTEX
  5
1DA
  8
DEFAULT
 10
156.8304148694558
 20
62.18225194384122
 30
0.0
  0
VERTEX
  5
1DB
  8
DEFAULT
 10
154.2958407390219
 20
64.71682607423288
 30
0.0
 42
-0.2008759561902589
  0
VERTEX
  5
1DC
  8
DEFAULT
 10
154.1443278042289
 20
65.07873900902588
 30
0.0
  0
VERTEX
  5
1DD
  8
DEFAULT
 10
154.1443350484266
 20
75.2387390946683
 30
0.0
 42
-0.1989025433747321
  0
VERTEX
  5
1DE
  8
DEFAULT
 10
154.2931277436723
 20
75.59793894846929
 30
0.0
  0
VERTEX
  5
1DF
  8
DEFAULT
 10
154.9254148694363
 20
76.23022607423333
 30
0.0
 42
-0.2008759561898756
  0
VERTEX
  5
1E0
  8
DEFAULT
 10
155.2873278042288
 20
76.3817390090259
 30
0.0
  0
VERTEX
  5
1E1
  8
DEFAULT
 10
159.3916557281703
 20
76.38173900902589
 30
0.0
 42
-4.085968653660829
  0
VERTEX
  5
1E2
  8
DEFAULT
 10
159.3916557281705
 20
75.36573900902597
 30
0.0
  0
VERTEX
  5
1E3
  8
DEFAULT
 10
155.4977278042288
 20
75.36573900902589
 30
0.0
  0
VERTEX
  5
1E4
  8
DEFAULT
 10
155.1603278042288
 20
75.02833900902588
 30
0.0
  0
VERTEX
  5
1E5
  8
DEFAULT
 10
155.1603278042288
 20
65.2891390090259
 30
0.0
  0
VERTEX
  5
1E6
  8
DEFAULT
 10
157.4027278042288
 20
63.0467390090259
 30
0.0
  0
VERTEX
  5
1E7
  8
DEFAULT
 10
163.5423278042288
 20
63.04673900902591
 30
0.0
 42
-0.2008759562297238
  0
VERTEX
  5
1E8
  8
DEFAULT
 10
163.9042407390048
 20
62.89522607420759
 30
0.0
  0
VERTEX
  5
1E9
  8
DEFAULT
 10
167.0765278042288
 20
59.72293900902589
 30
0.0
 42
-0.1989026328093934
  0
VERTEX
  5
1EA
  8
DEFAULT
 10
167.2253205600311
 20
59.36373909466827
 30
0.0
  0
SEQEND
  5
1EB
  8
DEFAULT
  0
POLYLINE
  5
1EC
  8
DEFAULT
 66
     1
 10
0.0
 20
0.0
 30
0.0
  0
VERTEX
  5
1ED
  8
DEFAULT
 10
162.2723278042288
 20
61.73373900902588
 30
0.0
 42
-0.7847733099779574
  0
VERTEX
  5
1EE
  8
DEFAULT
 10
162.7803278042288
 20
59.65806693296749
 30
0.0
  0
VERTEX
  5
1EF
  8
DEFAULT
 10
162.7803278042288
 20
58.72649607784241
 30
0.0
 42
-3.664088718143171
  0
VERTEX
  5
1F0
  8
DEFAULT
 10
161.7643278042289
 20
58.72649607784236
 30
0.0
  0
VERTEX
  5
1F1
  8
DEFAULT
 10
161.7643278042288
 20
59.6580669329674
 30
0.0
 42
-0.7847733099778696
  0
VERTEX
  5
1F2
  8
DEFAULT
 10
162.2723278042288
 20
61.73373900902594
 30
0.0
  0
SEQEND
  5
1F3
  8
DEFAULT
  0
POLYLINE
  5
1F4
  8
DEFAULT
 66
     1
 10
0.0
 20
0.0
 30
0.0
  0
VERTEX
  5
1F5
  8
DEFAULT
 10
176.852814869415
 20
63.77625194379736
 30
0.0
 42
-0.2008759562265674
  0
VERTEX
  5
1F6
  8
DEFAULT
 10
177.0043278042288
 20
63.41433900902588
 30
0.0
  0
VERTEX
  5
1F7
  8
DEFAULT
 10
177.0043278042288
 20
-21.45906099097412
 30
0.0
 42
-0.2008759562280057
  0
VERTEX
  5
1F8
  8
DEFAULT
 10
176.8528148694132
 20
-21.82097392574745
 30
0.0
  0
VERTEX
  5
1F9
  8
DEFAULT
 10
176.1104095009289
 20
-22.5633792942741
 30
0.0
 42
-0.1628958194708302
  0
VERTEX
  5
1FA
  8
DEFAULT
 10
175.9665278042289
 20
-22.85196099097412
 30
0.0
  0
VERTEX
  5
1FB
  8
DEFAULT
 10
165.8314278042288
 20
-32.98706099097409
 30
0.0
  0
VERTEX
  5
1FC
  8
DEFAULT
 10
165.803796636641
 20
-33.01271700624424
 30
0.0
 42
-0.3007696449469276
  0
VERTEX
  5
1FD
  8
DEFAULT
 10
165.3203278042288
 20
-34.00441805979055
 30
0.0
  0
VERTEX
  5
1FE
  8
DEFAULT
 10
165.3203278042288
 20
-35.14333703793439
 30
0.0
 42
-3.234102269763433
  0
VERTEX
  5
1FF
  8
DEFAULT
 10
164.3043278042288
 20
-35.14333703793449
 30
0.0
  0
VERTEX
  5
200
  8
DEFAULT
 10
164.3043278042288
 20
-34.00441805979061
 30
0.0
 42
-0.763654462179344
  0
VERTEX
  5
201
  8
DEFAULT
 10
164.8123278042288
 20
-32.14306099097408
 30
0.0
  0
VERTEX
  5
202
  8
DEFAULT
 10
165.0856525784823
 20
-32.18113918137664
 30
0.0
  0
VERTEX
  5
203
  8
DEFAULT
 10
165.2567260568356
 20
-32.1248397143459
 30
0.0
  0
VERTEX
  5
204
  8
DEFAULT
 10
175.1042958306571
 20
-22.2772929645458
 30
0.0
 42
-0.1628244845028384
  0
VERTEX
  5
205
  8
DEFAULT
 10
175.2481278496493
 20
-21.98886094555366
 30
0.0
  0
VERTEX
  5
206
  8
DEFAULT
 10
175.9883278042288
 20
-21.24866099097413
 30
0.0
  0
VERTEX
  5
207
  8
DEFAULT
 10
175.9883278042288
 20
63.20393900902589
 30
0.0
  0
VERTEX
  5
208
  8
DEFAULT
 10
175.2481278042288
 20
63.94413900902587
 30
0.0
 42
-0.1989026346152756
  0
VERTEX
  5
209
  8
DEFAULT
 10
175.0993350484267
 20
64.30333900902586
 30
0.0
  0
VERTEX
  5
20A
  8
DEFAULT
 10
175.0993278042288
 20
72.35806693296738
 30
0.0
 42
-4.085968653658491
  0
VERTEX
  5
20B
  8
DEFAULT
 10
176.1153278042287
 20
72.35806693296743
 30
0.0
  0
VERTEX
  5
20C
  8
DEFAULT
 10
176.1153278042289
 20
64.51373900902588
 30
0.0
  0
VERTEX
  5
20D
  8
DEFAULT
 10
176.8528148694361
 20
63.77625194381862
 30
0.0
  0
SEQEND
  5
20E
  8
DEFAULT
  0
CIRCLE
  5
210
  8
44
 10
-160.3673278042289
 20
75.8737390090259
 30
0.0
 40
0.5
210
0.0
220
0.0
230
-1.0
  0
CIRCLE
  5
211
  8
44
 10
-160.3673278042289
 20
73.33373900902588
 30
0.0
 40
0.5
210
0.0
220
0.0
230
-1.0
  0
CIRCLE
  5
212
  8
44
 10
-162.9073278042288
 20
75.8737390090259
 30
0.0
 40
0.5
210
0.0
220
0.0
230
-1.0
  0
CIRCLE
  5
213
  8
44
 10
-162.9073278042288
 20
73.33373900902588
 30
0.0
 40
0.5
210
0.0
220
0.0
230
-1.0
  0
CIRCLE
  5
214
  8
44
 10
-165.4473278042288
 20
75.8737390090259
 30
0.0
 40
0.5
210
0.0
220
0.0
230
-1.0
  0
CIRCLE
  5
215
  8
44
 10
-165.4473278042288
 20
73.33373900902588
 30
0.0
 40
0.5
210
0.0
220
0.0
230
-1.0
  0
CIRCLE
  5
216
  8
44
 10
-167.9873278042289
 20
75.8737390090259
 30
0.0
 40
0.5
210
0.0
220
0.0
230
-1.0
  0
CIRCLE
  5
217
  8
44
 10
-167.9873278042289
 20
73.33373900902588
 30
0.0
 40
0.5
210
0.0
220
0.0
230
-1.0
  0
CIRCLE
  5
218
  8
44
 10
-170.5273278042288
 20
75.8737390090259
 30
0.0
 40
0.5
210
0.0
220
0.0
230
-1.0
  0
CIRCLE
  5
219
  8
44
 10
-170.5273278042288
 20
73.33373900902588
 30
0.0
 40
0.5
210
0.0
220
0.0
230
-1.0
  0
CIRCLE
  5
21A
  8
44
 10
-173.0673278042289
 20
75.8737390090259
 30
0.0
 40
0.5
210
0.0
220
0.0
230
-1.0
  0
CIRCLE
  5
21B
  8
44
 10
-173.0673278042289
 20
73.33373900902588
 30
0.0
 40
0.5
210
0.0
220
0.0
230
-1.0
  0
CIRCLE
  5
21C
  8
44
 10
-175.6073278042288
 20
75.8737390090259
 30
0.0
 40
0.5
210
0.0
220
0.0
230
-1.0
  0
CIRCLE
  5
21D
  8
44
 10
-175.6073278042288
 20
73.33373900902588
 30
0.0
 40
0.5
210
0.0
220
0.0
230
-1.0
  0
CIRCLE
  5
21E
  8
44
 10
-164.8123278042288
 20
-31.03486099097414
 30
0.0
 40
0.45
210
0.0
220
0.0
230
-1.0
  0
CIRCLE
  5
21F
  8
44
 10
-162.2723278042288
 20
-31.03486099097414
 30
0.0
 40
0.45
210
0.0
220
0.0
230
-1.0
  0
CIRCLE
  5
220
  8
44
 10
-162.2723278042288
 20
-33.14306099097409
 30
0.0
 40
0.45
210
0.0
220
0.0
230
-1.0
  0
CIRCLE
  5
221
  8
44
 10
-164.8123278042288
 20
-33.14306099097409
 30
0.0
 40
0.45
210
0.0
220
0.0
230
-1.0
  0
CIRCLE
  5
222
  8
44
 10
-164.8123278042288
 20
-18.33486099097409
 30
0.0
 40
0.45
210
0.0
220
0.0
230
-1.0
  0
CIRCLE
  5
223
  8
44
 10
-162.2723278042288
 20
-18.33486099097409
 30
0.0
 40
0.45
210
0.0
220
0.0
230
-1.0
  0
CIRCLE
  5
224
  8
44
 10
-162.2723278042288
 20
-20.4430609909741
 30
0.0
 40
0.45
210
0.0
220
0.0
230
-1.0
  0
CIRCLE
  5
225
  8
44
 10
-164.8123278042288
 20
-20.4430609909741
 30
0.0
 40
0.45
210
0.0
220
0.0
230
-1.0
  0
CIRCLE
  5
226
  8
44
 10
-164.8123278042288
 20
-5.634860990974104
 30
0.0
 40
0.45
210
0.0
220
0.0
230
-1.0
  0
CIRCLE
  5
227
  8
44
 10
-162.2723278042288
 20
-5.634860990974104
 30
0.0
 40
0.45
210
0.0
220
0.0
230
-1.0
  0
CIRCLE
  5
228
  8
44
 10
-162.2723278042288
 20
-7.743060990974115
 30
0.0
 40
0.45
210
0.0
220
0.0
230
-1.0
  0
CIRCLE
  5
229
  8
44
 10
-164.8123278042288
 20
-7.743060990974115
 30
0.0
 40
0.45
210
0.0
220
0.0
230
-1.0
  0
CIRCLE
  5
22A
  8
44
 10
-164.8123278042288
 20
7.065139009025884
 30
0.0
 40
0.45
210
0.0
220
0.0
230
-1.0
  0
CIRCLE
  5
22B
  8
44
 10
-162.2723278042288
 20
7.065139009025884
 30
0.0
 40
0.45
210
0.0
220
0.0
230
-1.0
  0
CIRCLE
  5
22C
  8
44
 10
-162.2723278042288
 20
4.956939009025874
 30
0.0
 40
0.45
210
0.0
220
0.0
230
-1.0
  0
CIRCLE
  5
22D
  8
44
 10
-164.8123278042288
 20
4.956939009025874
 30
0.0
 40
0.45
210
0.0
220
0.0
230
-1.0
  0
CIRCLE
  5
22E
  8
44
 10
-164.8123278042288
 20
19.76513900902587
 30
0.0
 40
0.45
210
0.0
220
0.0
230
-1.0
  0
CIRCLE
  5
22F
  8
44
 10
-162.2723278042288
 20
19.76513900902587
 30
0.0
 40
0.45
210
0.0
220
0.0
230
-1.0
  0
CIRCLE
  5
230
  8
44
 10
-162.2723278042288
 20
17.65693900902589
 30
0.0
 40
0.45
210
0.0
220
0.0
230
-1.0
  0
CIRCLE
  5
231
  8
44
 10
-164.8123278042288
 20
17.65693900902589
 30
0.0
 40
0.45
210
0.0
220
0.0
230
-1.0
  0
CIRCLE
  5
232
  8
44
 10
-164.8123278042288
 20
32.46513900902589
 30
0.0
 40
0.45
210
0.0
220
0.0
230
-1.0
  0
CIRCLE
  5
233
  8
44
 10
-162.2723278042288
 20
32.46513900902589
 30
0.0
 40
0.45
210
0.0
220
0.0
230
-1.0
  0
CIRCLE
  5
234
  8
44
 10
-162.2723278042288
 20
30.35693900902588
 30
0.0
 40
0.45
210
0.0
220
0.0
230
-1.0
  0
CIRCLE
  5
235
  8
44
 10
-164.8123278042288
 20
30.35693900902588
 30
0.0
 40
0.45
210
0.0
220
0.0
230
-1.0
  0
CIRCLE
  5
236
  8
44
 10
-164.8123278042288
 20
45.16513900902588
 30
0.0
 40
0.45
210
0.0
220
0.0
230
-1.0
  0
CIRCLE
  5
237
  8
44
 10
-162.2723278042288
 20
45.16513900902588
 30
0.0
 40
0.45
210
0.0
220
0.0
230
-1.0
  0
CIRCLE
  5
238
  8
44
 10
-162.2723278042288
 20
43.0569390090259
 30
0.0
 40
0.45
210
0.0
220
0.0
230
-1.0
  0
CIRCLE
  5
239
  8
44
 10
-164.8123278042288
 20
43.0569390090259
 30
0.0
 40
0.45
210
0.0
220
0.0
230
-1.0
  0
CIRCLE
  5
23A
  8
44
 10
-164.8123278042288
 20
57.8651390090259
 30
0.0
 40
0.45
210
0.0
220
0.0
230
-1.0
  0
CIRCLE
  5
23B
  8
44
 10
-162.2723278042288
 20
57.8651390090259
 30
0.0
 40
0.45
210
0.0
220
0.0
230
-1.0
  0
CIRCLE
  5
23C
  8
44
 10
-162.2723278042288
 20
55.75693900902588
 30
0.0
 40
0.45
210
0.0
220
0.0
230
-1.0
  0
CIRCLE
  5
23D
  8
44
 10
-164.8123278042288
 20
55.75693900902588
 30
0.0
 40
0.45
210
0.0
220
0.0
230
-1.0
  0
CIRCLE
  5
23E
  8
44
 10
-157.1923278042289
 20
-35.88626099097409
 30
0.0
 40
0.4064
210
0.0
220
0.0
230
-1.0
  0
CIRCLE
  5
23F
  8
44
 10
-164.8123278042288
 20
-35.88626099097409
 30
0.0
 40
0.4064
210
0.0
220
0.0
230
-1.0
  0
CIRCLE
  5
240
  8
44
 10
-154.6523278042288
 20
-28.26626099097412
 30
0.0
 40
0.4064
210
0.0
220
0.0
230
-1.0
  0
CIRCLE
  5
241
  8
44
 10
-162.2723278042288
 20
-28.26626099097412
 30
0.0
 40
0.4064
210
0.0
220
0.0
230
-1.0
  0
CIRCLE
  5
242
  8
44
 10
-157.1923278042289
 20
-23.18626099097411
 30
0.0
 40
0.4064
210
0.0
220
0.0
230
-1.0
  0
CIRCLE
  5
243
  8
44
 10
-164.8123278042288
 20
-23.18626099097411
 30
0.0
 40
0.4064
210
0.0
220
0.0
230
-1.0
  0
CIRCLE
  5
244
  8
44
 10
-154.6523278042288
 20
-15.5662609909741
 30
0.0
 40
0.4064
210
0.0
220
0.0
230
-1.0
  0
CIRCLE
  5
245
  8
44
 10
-162.2723278042288
 20
-15.5662609909741
 30
0.0
 40
0.4064
210
0.0
220
0.0
230
-1.0
  0
CIRCLE
  5
246
  8
44
 10
-157.1923278042289
 20
-10.48626099097412
 30
0.0
 40
0.4064
210
0.0
220
0.0
230
-1.0
  0
CIRCLE
  5
247
  8
44
 10
-164.8123278042288
 20
-10.48626099097412
 30
0.0
 40
0.4064
210
0.0
220
0.0
230
-1.0
  0
CIRCLE
  5
248
  8
44
 10
-154.6523278042288
 20
-2.866260990974112
 30
0.0
 40
0.4064
210
0.0
220
0.0
230
-1.0
  0
CIRCLE
  5
249
  8
44
 10
-162.2723278042288
 20
-2.866260990974112
 30
0.0
 40
0.4064
210
0.0
220
0.0
230
-1.0
  0
CIRCLE
  5
24A
  8
44
 10
-157.1923278042289
 20
2.213739009025872
 30
0.0
 40
0.4064
210
0.0
220
0.0
230
-1.0
  0
CIRCLE
  5
24B
  8
44
 10
-164.8123278042288
 20
2.213739009025872
 30
0.0
 40
0.4064
210
0.0
220
0.0
230
-1.0
  0
CIRCLE
  5
24C
  8
44
 10
-154.6523278042288
 20
9.833739009025876
 30
0.0
 40
0.4064
210
0.0
220
0.0
230
-1.0
  0
CIRCLE
  5
24D
  8
44
 10
-162.2723278042288
 20
9.833739009025876
 30
0.0
 40
0.4064
210
0.0
220
0.0
230
-1.0
  0
CIRCLE
  5
24E
  8
44
 10
-157.1923278042289
 20
14.91373900902589
 30
0.0
 40
0.4064
210
0.0
220
0.0
230
-1.0
  0
CIRCLE
  5
24F
  8
44
 10
-164.8123278042288
 20
14.91373900902589
 30
0.0
 40
0.4064
210
0.0
220
0.0
230
-1.0
  0
CIRCLE
  5
250
  8
44
 10
-154.6523278042288
 20
22.53373900902589
 30
0.0
 40
0.4064
210
0.0
220
0.0
230
-1.0
  0
CIRCLE
  5
251
  8
44
 10
-162.2723278042288
 20
22.53373900902589
 30
0.0
 40
0.4064
210
0.0
220
0.0
230
-1.0
  0
CIRCLE
  5
252
  8
44
 10
-157.1923278042289
 20
27.61373900902591
 30
0.0
 40
0.4064
210
0.0
220
0.0
230
-1.0
  0
CIRCLE
  5
253
  8
44
 10
-164.8123278042288
 20
27.61373900902591
 30
0.0
 40
0.4064
210
0.0
220
0.0
230
-1.0
  0
CIRCLE
  5
254
  8
44
 10
-154.6523278042288
 20
35.23373900902588
 30
0.0
 40
0.4064
210
0.0
220
0.0
230
-1.0
  0
CIRCLE
  5
255
  8
44
 10
-162.2723278042288
 20
35.23373900902588
 30
0.0
 40
0.4064
210
0.0
220
0.0
230
-1.0
  0
CIRCLE
  5
256
  8
44
 10
-157.1923278042289
 20
40.31373900902589
 30
0.0
 40
0.4064
210
0.0
220
0.0
230
-1.0
  0
CIRCLE
  5
257
  8
44
 10
-164.8123278042288
 20
40.31373900902589
 30
0.0
 40
0.4064
210
0.0
220
0.0
230
-1.0
  0
CIRCLE
  5
258
  8
44
 10
-154.6523278042288
 20
47.9337390090259
 30
0.0
 40
0.4064
210
0.0
220
0.0
230
-1.0
  0
CIRCLE
  5
259
  8
44
 10
-162.2723278042288
 20
47.9337390090259
 30
0.0
 40
0.4064
210
0.0
220
0.0
230
-1.0
  0
CIRCLE
  5
25A
  8
44
 10
-157.1923278042289
 20
53.01373900902588
 30
0.0
 40
0.4064
210
0.0
220
0.0
230
-1.0
  0
CIRCLE
  5
25B
  8
44
 10
-164.8123278042288
 20
53.01373900902588
 30
0.0
 40
0.4064
210
0.0
220
0.0
230
-1.0
  0
CIRCLE
  5
25C
  8
44
 10
-154.6523278042288
 20
60.63373900902589
 30
0.0
 40
0.4064
210
0.0
220
0.0
230
-1.0
  0
CIRCLE
  5
25D
  8
44
 10
-162.2723278042288
 20
60.63373900902589
 30
0.0
 40
0.4064
210
0.0
220
0.0
230
-1.0
  0
POLYLINE
  5
25F
  8
20
 66
     1
 10
0.0
 20
0.0
 30
0.0
  0
VERTEX
  5
260
  8
20
 10
181.3223278042288
 20
-39.77246099097412
 30
0.0
  0
VERTEX
  5
261
  8
20
 10
148.3023278042288
 20
-39.77246099097412
 30
0.0
 42
-0.9999999999999999
  0
VERTEX
  5
262
  8
20
 10
148.3023278042288
 20
-39.6200609909741
 30
0.0
  0
VERTEX
  5
263
  8
20
 10
181.3223278042288
 20
-39.62006099097412
 30
0.0
 42
-0.9999999999999999
  0
VERTEX
  5
264
  8
20
 10
181.3223278042288
 20
-39.7724609909741
 30
0.0
  0
SEQEND
  5
265
  8
20
  0
POLYLINE
  5
266
  8
20
 66
     1
 10
0.0
 20
0.0
 30
0.0
  0
VERTEX
  5
267
  8
20
 10
181.3985278042288
 20
82.22373900902589
 30
0.0
  0
VERTEX
  5
268
  8
20
 10
181.3985278042288
 20
-39.6962609909741
 30
0.0
 42
-1.000000000000187
  0
VERTEX
  5
269
  8
20
 10
181.2461278042288
 20
-39.6962609909741
 30
0.0
  0
VERTEX
  5
26A
  8
20
 10
181.2461278042288
 20
82.22373900902589
 30
0.0
 42
-1.000000000000187
  0
VERTEX
  5
26B
  8
20
 10
181.3985278042288
 20
82.22373900902589
 30
0.0
  0
SEQEND
  5
26C
  8
20
  0
POLYLINE
  5
26D
  8
20
 66
     1
 10
0.0
 20
0.0
 30
0.0
  0
VERTEX
  5
26E
  8
20
 10
148.3023278042288
 20
82.29993900902589
 30
0.0
  0
VERTEX
  5
26F
  8
20
 10
181.3223278042288
 20
82.29993900902589
 30
0.0
 42
-1.000000000000187
  0
VERTEX
  5
270
  8
20
 10
181.3223278042288
 20
82.14753900902589
 30
0.0
  0
VERTEX
  5
271
  8
20
 10
148.3023278042288
 20
82.14753900902589
 30
0.0
 42
-1.000000000000187
  0
VERTEX
  5
272
  8
20
 10
148.3023278042288
 20
82.29993900902589
 30
0.0
  0
SEQEND
  5
273
  8
20
  0
POLYLINE
  5
274
  8
20
 66
     1
 10
0.0
 20
0.0
 30
0.0
  0
VERTEX
  5
275
  8
20
 10
148.2261278042288
 20
-39.6962609909741
 30
0.0
  0
VERTEX
  5
276
  8
20
 10
148.2261278042288
 20
82.22373900902589
 30
0.0
 42
-1.000000000000187
  0
VERTEX
  5
277
  8
20
 10
148.3785278042288
 20
82.22373900902589
 30
0.0
  0
VERTEX
  5
278
  8
20
 10
148.3785278042288
 20
-39.6962609909741
 30
0.0
 42
-1.000000000000187
  0
VERTEX
  5
279
  8
20
 10
148.2261278042288
 20
-39.6962609909741
 30
0.0
  0
SEQEND
  5
27A
  8
20
  0
ENDSEC
  0
EOF
