  0
SECTION
  2
HEADER
  9
$ACADVER
  1
AC1009
  9
$DWGCODEPAGE
  3
ansi_1252
  9
$INSBASE
 10
0.0
 20
0.0
 30
0.0
  9
$EXTMIN
 10
0.0
 20
0.0
 30
0.0
  9
$EXTMAX
 10
150.0
 20
100.0
 30
0.0
  9
$LIMMIN
 10
0.0
 20
0.0
  9
$LIMMAX
 10
12.0
 20
9.0
  9
$ORTHOMODE
 70
     0
  9
$REGENMODE
 70
     1
  9
$FILLMODE
 70
     1
  9
$QTEXTMODE
 70
     0
  9
$MIRRTEXT
 70
     1
  9
$DRAGMODE
 70
     2
  9
$LTSCALE
 40
1.0
  9
$OSMODE
 70
    37
  9
$ATTMODE
 70
     1
  9
$TEXTSIZE
 40
0.2
  9
$TRACEWID
 40
0.05
  9
$TEXTSTYLE
  7
STANDARD
  9
$CLAYER
  8
DEFAULT
  9
$CELTYPE
  6
BYLAYER
  9
$CECOLOR
 62
   256
  9
$DIMSCALE
 40
1.0
  9
$DIMASZ
 40
0.18
  9
$DIMEXO
 40
0.0625
  9
$DIMDLI
 40
0.38
  9
$DIMRND
 40
0.0
  9
$DIMDLE
 40
0.0
  9
$DIMEXE
 40
0.18
  9
$DIMTP
 40
0.0
  9
$DIMTM
 40
0.0
  9
$DIMTXT
 40
0.18
  9
$DIMCEN
 40
0.09
  9
$DIMTSZ
 40
0.0
  9
$DIMTOL
 70
     0
  9
$DIMLIM
 70
     0
  9
$DIMTIH
 70
     1
  9
$DIMTOH
 70
     1
  9
$DIMSE1
 70
     0
  9
$DIMSE2
 70
     0
  9
$DIMTAD
 70
     0
  9
$DIMZIN
 70
     0
  9
$DIMBLK
  1

  9
$DIMASO
 70
     1
  9
$DIMSHO
 70
     1
  9
$DIMPOST
  1

  9
$DIMAPOST
  1

  9
$DIMALT
 70
     0
  9
$DIMALTD
 70
     2
  9
$DIMALTF
 40
25.4
  9
$DIMLFAC
 40
1.0
  9
$DIMTOFL
 70
     0
  9
$DIMTVP
 40
0.0
  9
$DIMTIX
 70
     0
  9
$DIMSOXD
 70
     0
  9
$DIMSAH
 70
     0
  9
$DIMBLK1
  1

  9
$DIMBLK2
  1

  9
$DIMSTYLE
  2
STANDARD
  9
$DIMCLRD
 70
     0
  9
$DIMCLRE
 70
     0
  9
$DIMCLRT
 70
     0
  9
$DIMTFAC
 40
1.0
  9
$DIMGAP
 40
0.09
  9
$LUNITS
 70
     2
  9
$LUPREC
 70
     3
  9
$SKETCHINC
 40
0.1
  9
$FILLETRAD
 40
0.5
  9
$AUNITS
 70
     0
  9
$AUPREC
 70
     0
  9
$MENU
  1
.
  9
$ELEVATION
 40
0.0
  9
$PELEVATION
 40
0.0
  9
$THICKNESS
 40
0.0
  9
$LIMCHECK
 70
     0
  9
$CHAMFERA
 40
0.0
  9
$CHAMFERB
 40
0.0
  9
$SKPOLY
 70
     0
  9
$TDCREATE
 40
2458178.745427593
  9
$TDUPDATE
 40
2458178.745441169
  9
$TDINDWG
 40
0.0000000116
  9
$TDUSRTIMER
 40
0.0000000116
  9
$USRTIMER
 70
     1
  9
$ANGBASE
 50
0.0
  9
$ANGDIR
 70
     0
  9
$PDMODE
 70
     0
  9
$PDSIZE
 40
0.0
  9
$PLINEWID
 40
0.0
  9
$COORDS
 70
     1
  9
$SPLFRAME
 70
     0
  9
$SPLINETYPE
 70
     6
  9
$SPLINESEGS
 70
     8
  9
$ATTDIA
 70
     0
  9
$ATTREQ
 70
     1
  9
$HANDLING
 70
     1
  9
$HANDSEED
  5
746
  9
$SURFTAB1
 70
     6
  9
$SURFTAB2
 70
     6
  9
$SURFTYPE
 70
     6
  9
$SURFU
 70
     6
  9
$SURFV
 70
     6
  9
$UCSNAME
  2

  9
$UCSORG
 10
0.0
 20
0.0
 30
0.0
  9
$UCSXDIR
 10
1.0
 20
0.0
 30
0.0
  9
$UCSYDIR
 10
0.0
 20
1.0
 30
0.0
  9
$PUCSNAME
  2

  9
$PUCSORG
 10
0.0
 20
0.0
 30
0.0
  9
$PUCSXDIR
 10
1.0
 20
0.0
 30
0.0
  9
$PUCSYDIR
 10
0.0
 20
1.0
 30
0.0
  9
$USERI1
 70
     0
  9
$USERI2
 70
     0
  9
$USERI3
 70
     0
  9
$USERI4
 70
     0
  9
$USERI5
 70
     0
  9
$USERR1
 40
0.0
  9
$USERR2
 40
0.0
  9
$USERR3
 40
0.0
  9
$USERR4
 40
0.0
  9
$USERR5
 40
0.0
  9
$WORLDVIEW
 70
     1
  9
$SHADEDGE
 70
     3
  9
$SHADEDIF
 70
    70
  9
$TILEMODE
 70
     1
  9
$MAXACTVP
 70
    64
  9
$PLIMCHECK
 70
     0
  9
$PEXTMIN
 10
1.000000000000000E+20
 20
1.000000000000000E+20
 30
1.000000000000000E+20
  9
$PEXTMAX
 10
-1.000000000000000E+20
 20
-1.000000000000000E+20
 30
-1.000000000000000E+20
  9
$PLIMMIN
 10
0.0
 20
0.0
  9
$PLIMMAX
 10
12.0
 20
9.0
  9
$UNITMODE
 70
     0
  9
$VISRETAIN
 70
     1
  9
$PLINEGEN
 70
     0
  9
$PSLTSCALE
 70
     1
  0
ENDSEC
  0
SECTION
  2
TABLES
  0
TABLE
  2
VPORT
 70
     1
  0
VPORT
  2
*ACTIVE
 70
     0
 10
0.0
 20
0.0
 11
1.0
 21
1.0
 12
75.0
 22
50.0
 13
0.0
 23
0.0
 14
0.5
 24
0.5
 15
0.5
 25
0.5
 16
0.0
 26
0.0
 36
1.0
 17
0.0
 27
0.0
 37
0.0
 40
102.0
 41
1.5
 42
50.0
 43
0.0
 44
0.0
 50
0.0
 51
0.0
 71
     0
 72
   100
 73
     1
 74
     3
 75
     0
 76
     0
 77
     0
 78
     0
  0
ENDTAB
  0
TABLE
  2
LTYPE
 70
     1
  0
LTYPE
  2
CONTINUOUS
 70
     0
  3
Solid line
 72
    65
 73
     0
 40
0.0
  0
ENDTAB
  0
TABLE
  2
LAYER
 70
     8
  0
LAYER
  2
0
 70
     0
 62
     7
  6
CONTINUOUS
  0
LAYER
  2
ROUTES
 70
     0
 62
     7
  6
CONTINUOUS
  0
LAYER
  2
DRILL
 70
     0
 62
     4
  6
CONTINUOUS
  0
LAYER
  2
CUT
 70
     0
 62
    30
  6
CONTINUOUS
  0
LAYER
  2
20
 70
     0
 62
    30
  6
CONTINUOUS
  0
LAYER
  2
44
 70
     0
 62
     4
  6
CONTINUOUS
  0
LAYER
  2
16
 70
     0
 62
   179
  6
CONTINUOUS
  0
LAYER
  2
DEFAULT
 70
     0
 62
     7
  6
CONTINUOUS
  0
ENDTAB
  0
TABLE
  2
STYLE
 70
     1
  0
STYLE
  2
STANDARD
 70
     0
 40
0.0
 41
1.0
 50
0.0
 71
     0
 42
0.2
  3
txt
  4

  0
ENDTAB
  0
TABLE
  2
VIEW
 70
     0
  0
ENDTAB
  0
TABLE
  2
UCS
 70
     0
  0
ENDTAB
  0
TABLE
  2
APPID
 70
     1
  0
APPID
  2
ACAD
 70
     0
  0
ENDTAB
  0
TABLE
  2
DIMSTYLE
 70
     1
  0
DIMSTYLE
  2
STANDARD
 70
     0
  3

  4

  5

  6

  7

 40
1.0
 41
0.18
 42
0.0625
 43
0.38
 44
0.18
 45
0.0
 46
0.0
 47
0.0
 48
0.0
140
0.18
141
0.09
142
0.0
143
25.4
144
1.0
145
0.0
146
1.0
147
0.09
 71
     0
 72
     0
 73
     1
 74
     1
 75
     0
 76
     0
 77
     0
 78
     0
170
     0
171
     2
172
     0
173
     0
174
     0
175
     0
176
     0
177
     0
178
     0
  0
ENDTAB
  0
ENDSEC
  0
SECTION
  2
BLOCKS
  0
BLOCK
  8
0
  2
$MODEL_SPACE
 70
     0
 10
0.0
 20
0.0
 30
0.0
  3
$MODEL_SPACE
  1

  0
ENDBLK
  5
21
  8
0
  0
BLOCK
 67
     1
  8
0
  2
$PAPER_SPACE
 70
     0
 10
0.0
 20
0.0
 30
0.0
  3
$PAPER_SPACE
  1

  0
ENDBLK
  5
1D
 67
     1
  8
0
  0
ENDSEC
  0
SECTION
  2
ENTITIES
  0
CIRCLE
  5
6B
  8
ROUTES
 10
-67.38923398314479
 20
58.07047678893403
 30
0.0
 40
1.100000000000009
210
0.0
220
0.0
230
-1.0
  0
POLYLINE
  5
6C
  8
ROUTES
 66
     1
 10
0.0
 20
0.0
 30
0.0
  0
VERTEX
  5
6D
  8
ROUTES
 10
67.35143398314479
 20
70.78947678893402
 30
0.0
  0
VERTEX
  5
6E
  8
ROUTES
 10
67.35143372088432
 20
69.48147697438057
 30
0.0
 42
-1.00000028779711
  0
VERTEX
  5
6F
  8
ROUTES
 10
65.1514339831448
 20
69.48147697438058
 30
0.0
  0
VERTEX
  5
70
  8
ROUTES
 10
65.15143398314478
 20
70.78947678893402
 30
0.0
 42
-0.9999999999999999
  0
VERTEX
  5
71
  8
ROUTES
 10
67.35143398314477
 20
70.78947678893407
 30
0.0
  0
SEQEND
  5
72
  8
ROUTES
  0
POLYLINE
  5
73
  8
ROUTES
 66
     1
 10
0.0
 20
0.0
 30
0.0
  0
VERTEX
  5
74
  8
ROUTES
 10
64.81143398314477
 20
70.78947681845492
 30
0.0
  0
VERTEX
  5
75
  8
ROUTES
 10
64.81143398314477
 20
69.4814769744099
 30
0.0
 42
-1.00000016861446
  0
VERTEX
  5
76
  8
ROUTES
 10
62.61143398314483
 20
69.48147697440987
 30
0.0
  0
VERTEX
  5
77
  8
ROUTES
 10
62.61143398314482
 20
70.78947697438068
 30
0.0
 42
-0.9999998179940331
  0
VERTEX
  5
78
  8
ROUTES
 10
64.81143398314478
 20
70.78947681845493
 30
0.0
  0
SEQEND
  5
79
  8
ROUTES
  0
POLYLINE
  5
7A
  8
ROUTES
 66
     1
 10
0.0
 20
0.0
 30
0.0
  0
VERTEX
  5
7B
  8
ROUTES
 10
62.27143398314475
 20
70.78947681845446
 30
0.0
  0
VERTEX
  5
7C
  8
ROUTES
 10
62.27143372088432
 20
69.48147660346868
 30
0.0
 42
-1.000000021479781
  0
VERTEX
  5
7D
  8
ROUTES
 10
60.0714339831448
 20
69.48147675939437
 30
0.0
  0
VERTEX
  5
7E
  8
ROUTES
 10
60.07143398314479
 20
70.78947697438022
 30
0.0
 42
-0.9999998179942785
  0
VERTEX
  5
7F
  8
ROUTES
 10
62.27143398314475
 20
70.78947681845447
 30
0.0
  0
SEQEND
  5
80
  8
ROUTES
  0
POLYLINE
  5
81
  8
ROUTES
 66
     1
 10
0.0
 20
0.0
 30
0.0
  0
VERTEX
  5
82
  8
ROUTES
 10
59.73143372088431
 20
70.78947660347106
 30
0.0
  0
VERTEX
  5
83
  8
ROUTES
 10
59.7314339831448
 20
69.48147697438151
 30
0.0
 42
-0.2435013591531127
  0
VERTEX
  5
84
  8
ROUTES
 10
59.26643374266926
 20
68.58327007252413
 30
0.0
  0
VERTEX
  5
85
  8
ROUTES
 10
59.26621161735723
 20
60.59404080668102
 30
0.0
  0
VERTEX
  5
86
  8
ROUTES
 10
59.26557325197452
 20
60.57762144370892
 30
0.0
  0
VERTEX
  5
87
  8
ROUTES
 10
59.26451111254336
 20
60.5612350497872
 30
0.0
  0
VERTEX
  5
88
  8
ROUTES
 10
59.26302732620321
 20
60.54489797162736
 30
0.0
  0
VERTEX
  5
89
  8
ROUTES
 10
59.26112485581031
 20
60.52862639173927
 30
0.0
  0
VERTEX
  5
8A
  8
ROUTES
 10
59.25880748519684
 20
60.51243627548556
 30
0.0
  0
VERTEX
  5
8B
  8
ROUTES
 10
59.25607980045523
 20
60.49634331964054
 30
0.0
  0
VERTEX
  5
8C
  8
ROUTES
 10
59.25294716741804
 20
60.48036290279694
 30
0.0
  0
VERTEX
  5
8D
  8
ROUTES
 10
59.24941570553956
 20
60.46451003794058
 30
0.0
  0
VERTEX
  5
8E
  8
ROUTES
 10
59.24549225841277
 20
60.44879932748924
 30
0.0
  0
VERTEX
  5
8F
  8
ROUTES
 10
59.24118436118404
 20
60.43324492106265
 30
0.0
  0
VERTEX
  5
90
  8
ROUTES
 10
59.23650020514891
 20
60.41786047622153
 30
0.0
  0
VERTEX
  5
91
  8
ROUTES
 10
59.23144859983297
 20
60.40265912237928
 30
0.0
  0
VERTEX
  5
92
  8
ROUTES
 10
59.22603893287608
 20
60.38765342805684
 30
0.0
  0
VERTEX
  5
93
  8
ROUTES
 10
59.22028112804863
 20
60.37285537161571
 30
0.0
  0
VERTEX
  5
94
  8
ROUTES
 10
59.21418560173642
 20
60.35827631556927
 30
0.0
  0
VERTEX
  5
95
  8
ROUTES
 10
59.20776321823168
 20
60.34392698453613
 30
0.0
  0
VERTEX
  5
96
  8
ROUTES
 10
59.20102524416775
 20
60.32981744686541
 30
0.0
  0
VERTEX
  5
97
  8
ROUTES
 10
59.19398330242906
 20
60.31595709993039
 30
0.0
  0
VERTEX
  5
98
  8
ROUTES
 10
59.18664932585899
 20
60.30235465905369
 30
0.0
  0
VERTEX
  5
99
  8
ROUTES
 10
59.17903551107732
 20
60.28901814999855
 30
0.0
  0
VERTEX
  5
9A
  8
ROUTES
 10
59.17115427270302
 20
60.27595490493113
 30
0.0
  0
VERTEX
  5
9B
  8
ROUTES
 10
59.1630181982613
 20
60.26317156173488
 30
0.0
  0
VERTEX
  5
9C
  8
ROUTES
 10
59.15464000403456
 20
60.25067406653378
 30
0.0
  0
VERTEX
  5
9D
  8
ROUTES
 10
59.14603249209542
 20
60.23846767926202
 30
0.0
  0
VERTEX
  5
9E
  8
ROUTES
 10
59.13720850873666
 20
60.22655698210085
 30
0.0
  0
VERTEX
  5
9F
  8
ROUTES
 10
59.1281809044914
 20
60.21494589058838
 30
0.0
  0
VERTEX
  5
A0
  8
ROUTES
 10
59.11896249591008
 20
60.20363766719751
 30
0.0
  0
VERTEX
  5
A1
  8
ROUTES
 10
59.10956602923882
 20
60.19263493716917
 30
0.0
  0
VERTEX
  5
A2
  8
ROUTES
 10
59.10000414611854
 20
60.18193970638194
 30
0.0
  0
VERTEX
  5
A3
  8
ROUTES
 10
59.09028935139936
 20
60.17155338103666
 30
0.0
  0
VERTEX
  5
A4
  8
ROUTES
 10
59.08043398314477
 20
60.16147678893404
 30
0.0
  0
VERTEX
  5
A5
  8
ROUTES
 10
57.81043398314479
 20
58.89147678893406
 30
0.0
 42
-0.2222211033711042
  0
VERTEX
  5
A6
  8
ROUTES
 10
56.98964373171231
 20
58.7054813184146
 30
0.0
 42
-3.146795707338776
  0
VERTEX
  5
A7
  8
ROUTES
 10
56.98964052954763
 20
59.97547678893334
 30
0.0
  0
VERTEX
  5
A8
  8
ROUTES
 10
57.0984339831448
 20
59.97547678893406
 30
0.0
  0
VERTEX
  5
A9
  8
ROUTES
 10
57.99643387609486
 20
60.87347778600051
 30
0.0
  0
VERTEX
  5
AA
  8
ROUTES
 10
57.99643398314478
 20
68.58327024253065
 30
0.0
 42
-0.2435012786999032
  0
VERTEX
  5
AB
  8
ROUTES
 10
57.5314339831448
 20
69.48147697438152
 30
0.0
  0
VERTEX
  5
AC
  8
ROUTES
 10
57.53143398314484
 20
70.78947660347106
 30
0.0
 42
-1.000000084301359
  0
VERTEX
  5
AD
  8
ROUTES
 10
59.73143372088435
 20
70.78947660347107
 30
0.0
  0
SEQEND
  5
AE
  8
ROUTES
  0
POLYLINE
  5
AF
  8
ROUTES
 66
     1
 10
0.0
 20
0.0
 30
0.0
  0
VERTEX
  5
B0
  8
ROUTES
 10
56.7264339831441
 20
62.77868333533686
 30
0.0
 42
-3.146781962842639
  0
VERTEX
  5
B1
  8
ROUTES
 10
55.45643398314556
 20
62.77868333533684
 30
0.0
  0
VERTEX
  5
B2
  8
ROUTES
 10
55.45643398314481
 20
68.58327024253065
 30
0.0
 42
-0.2435012786999113
  0
VERTEX
  5
B3
  8
ROUTES
 10
54.99143398314481
 20
69.48147697438021
 30
0.0
  0
VERTEX
  5
B4
  8
ROUTES
 10
54.99143398314477
 20
70.78947678893402
 30
0.0
 42
-0.9999999999999966
  0
VERTEX
  5
B5
  8
ROUTES
 10
57.1914339831448
 20
70.78947678893402
 30
0.0
  0
VERTEX
  5
B6
  8
ROUTES
 10
57.19143398314475
 20
69.48147697438017
 30
0.0
 42
-0.2435012882522772
  0
VERTEX
  5
B7
  8
ROUTES
 10
56.72643398314406
 20
68.5832702425312
 30
0.0
  0
VERTEX
  5
B8
  8
ROUTES
 10
56.72643398314479
 20
62.77868333533743
 30
0.0
  0
SEQEND
  5
B9
  8
ROUTES
  0
POLYLINE
  5
BA
  8
ROUTES
 66
     1
 10
0.0
 20
0.0
 30
0.0
  0
VERTEX
  5
BB
  8
ROUTES
 10
54.18643398314406
 20
62.77868333533685
 30
0.0
 42
-3.146781962842762
  0
VERTEX
  5
BC
  8
ROUTES
 10
52.91643398314553
 20
62.77868333533688
 30
0.0
  0
VERTEX
  5
BD
  8
ROUTES
 10
52.91643398314478
 20
68.58327024253069
 30
0.0
 42
-0.2435011510272763
  0
VERTEX
  5
BE
  8
ROUTES
 10
52.45143398314483
 20
69.48147675941205
 30
0.0
  0
VERTEX
  5
BF
  8
ROUTES
 10
52.4514339831448
 20
70.78947697438994
 30
0.0
 42
-0.9999998179898636
  0
VERTEX
  5
C0
  8
ROUTES
 10
54.65143398314475
 20
70.7894768184642
 30
0.0
  0
VERTEX
  5
C1
  8
ROUTES
 10
54.65143398314473
 20
69.4814766034863
 30
0.0
 42
-0.2435011525291307
  0
VERTEX
  5
C2
  8
ROUTES
 10
54.18643398314406
 20
68.58327024253121
 30
0.0
  0
VERTEX
  5
C3
  8
ROUTES
 10
54.18643398314482
 20
62.77868333533743
 30
0.0
  0
SEQEND
  5
C4
  8
ROUTES
  0
POLYLINE
  5
C5
  8
ROUTES
 66
     1
 10
0.0
 20
0.0
 30
0.0
  0
VERTEX
  5
C6
  8
ROUTES
 10
52.11143398314478
 20
70.78947678893402
 30
0.0
  0
VERTEX
  5
C7
  8
ROUTES
 10
52.11143398314479
 20
69.48147697438927
 30
0.0
 42
-0.2435012882544998
  0
VERTEX
  5
C8
  8
ROUTES
 10
51.64643398314404
 20
68.58327024253119
 30
0.0
  0
VERTEX
  5
C9
  8
ROUTES
 10
51.64643398314475
 20
62.77868333533743
 30
0.0
 42
-3.146781962844796
  0
VERTEX
  5
CA
  8
ROUTES
 10
50.37643398314547
 20
62.77868333533686
 30
0.0
  0
VERTEX
  5
CB
  8
ROUTES
 10
50.37643398314476
 20
68.58327024253062
 30
0.0
 42
-0.2435012786997853
  0
VERTEX
  5
CC
  8
ROUTES
 10
49.91143398314481
 20
69.48147697438927
 30
0.0
  0
VERTEX
  5
CD
  8
ROUTES
 10
49.91143398314479
 20
70.78947678893402
 30
0.0
 42
-1.000000000000016
  0
VERTEX
  5
CE
  8
ROUTES
 10
52.11143398314475
 20
70.78947678893401
 30
0.0
  0
SEQEND
  5
CF
  8
ROUTES
  0
POLYLINE
  5
D0
  8
ROUTES
 66
     1
 10
0.0
 20
0.0
 30
0.0
  0
VERTEX
  5
D1
  8
ROUTES
 10
49.57143398314476
 20
70.78947681845474
 30
0.0
  0
VERTEX
  5
D2
  8
ROUTES
 10
49.57143398314476
 20
69.48147697439722
 30
0.0
 42
-0.243501288256383
  0
VERTEX
  5
D3
  8
ROUTES
 10
49.10643398314404
 20
68.58327024253123
 30
0.0
  0
VERTEX
  5
D4
  8
ROUTES
 10
49.10643398314478
 20
62.77868333533743
 30
0.0
 42
-3.146781962845009
  0
VERTEX
  5
D5
  8
ROUTES
 10
47.83643398314555
 20
62.77868333533689
 30
0.0
  0
VERTEX
  5
D6
  8
ROUTES
 10
47.83643398314479
 20
68.58327024253063
 30
0.0
 42
-0.2435012786997635
  0
VERTEX
  5
D7
  8
ROUTES
 10
47.3714339831448
 20
69.48147697439725
 30
0.0
  0
VERTEX
  5
D8
  8
ROUTES
 10
47.3714339831448
 20
70.78947681845474
 30
0.0
 42
-0.999999817994149
  0
VERTEX
  5
D9
  8
ROUTES
 10
49.57143398314476
 20
70.78947681845476
 30
0.0
  0
SEQEND
  5
DA
  8
ROUTES
  0
POLYLINE
  5
DB
  8
ROUTES
 66
     1
 10
0.0
 20
0.0
 30
0.0
  0
VERTEX
  5
DC
  8
ROUTES
 10
46.56643398314405
 20
62.77868333533689
 30
0.0
 42
-3.146781962842801
  0
VERTEX
  5
DD
  8
ROUTES
 10
45.29643398314555
 20
62.77868333533684
 30
0.0
  0
VERTEX
  5
DE
  8
ROUTES
 10
45.29643398314478
 20
68.58327024253063
 30
0.0
 42
-0.2435012786996434
  0
VERTEX
  5
DF
  8
ROUTES
 10
44.83143398314481
 20
69.481476974407
 30
0.0
  0
VERTEX
  5
E0
  8
ROUTES
 10
44.83143398314481
 20
70.78947697438056
 30
0.0
 42
-0.999999817994088
  0
VERTEX
  5
E1
  8
ROUTES
 10
47.03143398314475
 20
70.78947681845479
 30
0.0
  0
VERTEX
  5
E2
  8
ROUTES
 10
47.03143398314473
 20
69.481476974407
 30
0.0
 42
-0.2435012882588106
  0
VERTEX
  5
E3
  8
ROUTES
 10
46.56643398314406
 20
68.5832702425312
 30
0.0
  0
VERTEX
  5
E4
  8
ROUTES
 10
46.56643398314482
 20
62.77868333533743
 30
0.0
  0
SEQEND
  5
E5
  8
ROUTES
  0
POLYLINE
  5
E6
  8
ROUTES
 66
     1
 10
0.0
 20
0.0
 30
0.0
  0
VERTEX
  5
E7
  8
ROUTES
 10
44.02643398314404
 20
62.77868333533688
 30
0.0
 42
-3.146781962842641
  0
VERTEX
  5
E8
  8
ROUTES
 10
42.75643398314545
 20
62.77868333533686
 30
0.0
  0
VERTEX
  5
E9
  8
ROUTES
 10
42.75643398314476
 20
68.58327024253063
 30
0.0
 42
-0.2435012786996149
  0
VERTEX
  5
EA
  8
ROUTES
 10
42.29143398314483
 20
69.48147697440879
 30
0.0
  0
VERTEX
  5
EB
  8
ROUTES
 10
42.29143398314483
 20
70.78947697438204
 30
0.0
 42
-0.9999998179934065
  0
VERTEX
  5
EC
  8
ROUTES
 10
44.49143398314473
 20
70.7894768184563
 30
0.0
  0
VERTEX
  5
ED
  8
ROUTES
 10
44.49143398314478
 20
69.48147697440882
 30
0.0
 42
-0.2435012882591797
  0
VERTEX
  5
EE
  8
ROUTES
 10
44.02643398314404
 20
68.58327024253119
 30
0.0
  0
VERTEX
  5
EF
  8
ROUTES
 10
44.0264339831448
 20
62.77868333533743
 30
0.0
  0
SEQEND
  5
F0
  8
ROUTES
  0
POLYLINE
  5
F1
  8
ROUTES
 66
     1
 10
0.0
 20
0.0
 30
0.0
  0
VERTEX
  5
F2
  8
ROUTES
 10
41.95143398314475
 20
70.78947681845554
 30
0.0
  0
VERTEX
  5
F3
  8
ROUTES
 10
41.95143398314481
 20
69.48147678893403
 30
0.0
 42
-0.2435012436064783
  0
VERTEX
  5
F4
  8
ROUTES
 10
41.48643398314407
 20
68.58327024253114
 30
0.0
  0
VERTEX
  5
F5
  8
ROUTES
 10
41.48643398314477
 20
62.77868333533748
 30
0.0
 42
-3.146781962845425
  0
VERTEX
  5
F6
  8
ROUTES
 10
40.21643398314555
 20
62.77868333533686
 30
0.0
  0
VERTEX
  5
F7
  8
ROUTES
 10
40.2164339831448
 20
68.58327024253063
 30
0.0
 42
-0.2435012436059587
  0
VERTEX
  5
F8
  8
ROUTES
 10
39.75143398314481
 20
69.48147678893403
 30
0.0
  0
VERTEX
  5
F9
  8
ROUTES
 10
39.75143398314482
 20
70.7894769743813
 30
0.0
 42
-0.9999998179937716
  0
VERTEX
  5
FA
  8
ROUTES
 10
41.95143398314477
 20
70.78947681845555
 30
0.0
  0
SEQEND
  5
FB
  8
ROUTES
  0
POLYLINE
  5
FC
  8
ROUTES
 66
     1
 10
0.0
 20
0.0
 30
0.0
  0
VERTEX
  5
FD
  8
ROUTES
 10
39.41143398314473
 20
70.78947660346753
 30
0.0
  0
VERTEX
  5
FE
  8
ROUTES
 10
39.41143398314473
 20
69.48147697438034
 30
0.0
 42
-1.000000168587586
  0
VERTEX
  5
FF
  8
ROUTES
 10
37.2114339831448
 20
69.48147697438036
 30
0.0
  0
VERTEX
  5
100
  8
ROUTES
 10
37.2114339831448
 20
70.78947660346753
 30
0.0
 42
-1.000000084302996
  0
VERTEX
  5
101
  8
ROUTES
 10
39.41143398314473
 20
70.78947660346755
 30
0.0
  0
SEQEND
  5
102
  8
ROUTES
  0
POLYLINE
  5
103
  8
ROUTES
 66
     1
 10
0.0
 20
0.0
 30
0.0
  0
VERTEX
  5
104
  8
ROUTES
 10
36.87143398314477
 20
70.78947681846503
 30
0.0
  0
VERTEX
  5
105
  8
ROUTES
 10
36.87143372088435
 20
69.48147697438108
 30
0.0
 42
-1.000000287797592
  0
VERTEX
  5
106
  8
ROUTES
 10
34.67143398314484
 20
69.48147697438107
 30
0.0
  0
VERTEX
  5
107
  8
ROUTES
 10
34.67143398314484
 20
70.78947681846503
 30
0.0
 42
-0.9999998179894661
  0
VERTEX
  5
108
  8
ROUTES
 10
36.87143398314477
 20
70.78947681846502
 30
0.0
  0
SEQEND
  5
109
  8
ROUTES
  0
POLYLINE
  5
10A
  8
ROUTES
 66
     1
 10
0.0
 20
0.0
 30
0.0
  0
VERTEX
  5
10B
  8
ROUTES
 10
27.34643398314473
 20
91.85247679270788
 30
0.0
  0
VERTEX
  5
10C
  8
ROUTES
 10
27.34643398314473
 20
90.32847697438112
 30
0.0
 42
-1.00000016858828
  0
VERTEX
  5
10D
  8
ROUTES
 10
25.1464339831448
 20
90.32847697438112
 30
0.0
  0
VERTEX
  5
10E
  8
ROUTES
 10
25.14643398314481
 20
91.85247697438282
 30
0.0
 42
-0.9999998296972785
  0
VERTEX
  5
10F
  8
ROUTES
 10
27.34643398314475
 20
91.85247679270789
 30
0.0
  0
SEQEND
  5
110
  8
ROUTES
  0
POLYLINE
  5
111
  8
ROUTES
 66
     1
 10
0.0
 20
0.0
 30
0.0
  0
VERTEX
  5
112
  8
ROUTES
 10
33.54918988863529
 20
91.6402550938224
 30
0.0
 42
-0.5770400390279509
  0
VERTEX
  5
113
  8
ROUTES
 10
33.54918988863528
 20
90.5406984840457
 30
0.0
 42
-0.5472253421209616
  0
VERTEX
  5
114
  8
ROUTES
 10
31.69822743674191
 20
90.45547678893477
 30
0.0
  0
VERTEX
  5
115
  8
ROUTES
 10
29.88643398314481
 20
90.45547678893402
 30
0.0
  0
VERTEX
  5
116
  8
ROUTES
 10
29.88643398314475
 20
90.3284766034802
 30
0.0
 42
-0.2435088433422977
  0
VERTEX
  5
117
  8
ROUTES
 10
29.42140789782637
 20
89.43025180170984
 30
0.0
  0
VERTEX
  5
118
  8
ROUTES
 10
29.42121162050155
 20
88.5340411950016
 30
0.0
  0
VERTEX
  5
119
  8
ROUTES
 10
29.42057325805423
 20
88.51762181086897
 30
0.0
  0
VERTEX
  5
11A
  8
ROUTES
 10
29.41951112134423
 20
88.501235396179
 30
0.0
  0
VERTEX
  5
11B
  8
ROUTES
 10
29.41802733750656
 20
88.48489829767118
 30
0.0
  0
VERTEX
  5
11C
  8
ROUTES
 10
29.41612486939393
 20
88.46862669788263
 30
0.0
  0
VERTEX
  5
11D
  8
ROUTES
 10
29.41380750083603
 20
88.45243656220211
 30
0.0
  0
VERTEX
  5
11E
  8
ROUTES
 10
29.41107981792341
 20
88.43634358742904
 30
0.0
  0
VERTEX
  5
11F
  8
ROUTES
 10
29.40794718648802
 20
88.42036315218004
 30
0.0
  0
VERTEX
  5
120
  8
ROUTES
 10
29.4044157259839
 20
88.4045102694636
 30
0.0
  0
VERTEX
  5
121
  8
ROUTES
 10
29.40049228000522
 20
88.38879954171867
 30
0.0
  0
VERTEX
  5
122
  8
ROUTES
 10
29.39618438369997
 20
88.37324511858483
 30
0.0
  0
VERTEX
  5
123
  8
ROUTES
 10
29.39150022836635
 20
88.35786065764108
 30
0.0
  0
VERTEX
  5
124
  8
ROUTES
 10
29.38644862353335
 20
88.34265928831758
 30
0.0
  0
VERTEX
  5
125
  8
ROUTES
 10
29.38103895684482
 20
88.32765357915034
 30
0.0
  0
VERTEX
  5
126
  8
ROUTES
 10
29.37528115207614
 20
88.31285550851439
 30
0.0
  0
VERTEX
  5
127
  8
ROUTES
 10
29.36918562561847
 20
88.2982764389348
 30
0.0
  0
VERTEX
  5
128
  8
ROUTES
 10
29.36276324177017
 20
88.28392709504024
 30
0.0
  0
VERTEX
  5
129
  8
ROUTES
 10
29.35602526717123
 20
88.26981754518826
 30
0.0
  0
VERTEX
  5
12A
  8
ROUTES
 10
29.3489833247133
 20
88.2559571867587
 30
0.0
  0
VERTEX
  5
12B
  8
ROUTES
 10
29.34164934724727
 20
88.2423547350792
 30
0.0
  0
VERTEX
  5
12C
  8
ROUTES
 10
29.33403553140108
 20
88.22901821591628
 30
0.0
  0
VERTEX
  5
12D
  8
ROUTES
 10
29.32615429180181
 20
88.21595496143777
 30
0.0
  0
VERTEX
  5
12E
  8
ROUTES
 10
29.31801821598346
 20
88.20317160952715
 30
0.0
  0
VERTEX
  5
12F
  8
ROUTES
 10
29.30964002023724
 20
88.19067410630689
 30
0.0
  0
VERTEX
  5
130
  8
ROUTES
 10
29.3010325066448
 20
88.17846771170818
 30
0.0
  0
VERTEX
  5
131
  8
ROUTES
 10
29.29220852150804
 20
88.16655700790784
 30
0.0
  0
VERTEX
  5
132
  8
ROUTES
 10
29.28318091536933
 20
88.1549459104381
 30
0.0
  0
VERTEX
  5
133
  8
ROUTES
 10
29.27396250478832
 20
88.14363768176472
 30
0.0
  0
VERTEX
  5
134
  8
ROUTES
 10
29.26456603602038
 20
88.13263494712024
 30
0.0
  0
VERTEX
  5
135
  8
ROUTES
 10
29.25500415071538
 20
88.12193971237375
 30
0.0
  0
VERTEX
  5
136
  8
ROUTES
 10
29.24528935373276
 20
88.11155338371529
 30
0.0
  0
VERTEX
  5
137
  8
ROUTES
 10
29.2354339831448
 20
88.10147678893404
 30
0.0
  0
VERTEX
  5
138
  8
ROUTES
 10
27.51643398314481
 20
86.38247678893404
 30
0.0
  0
VERTEX
  5
139
  8
ROUTES
 10
27.51621162050158
 20
82.184041408088
 30
0.0
  0
VERTEX
  5
13A
  8
ROUTES
 10
27.5155732580542
 20
82.16762201032932
 30
0.0
  0
VERTEX
  5
13B
  8
ROUTES
 10
27.5145111213442
 20
82.15123558240774
 30
0.0
  0
VERTEX
  5
13C
  8
ROUTES
 10
27.51302733750653
 20
82.13489847107493
 30
0.0
  0
VERTEX
  5
13D
  8
ROUTES
 10
27.5111248693939
 20
82.11862685887945
 30
0.0
  0
VERTEX
  5
13E
  8
ROUTES
 10
27.508807500836
 20
82.10243671122058
 30
0.0
  0
VERTEX
  5
13F
  8
ROUTES
 10
27.50607981792344
 20
82.08634372490735
 30
0.0
  0
VERTEX
  5
140
  8
ROUTES
 10
27.50294718648799
 20
82.070363278565
 30
0.0
  0
VERTEX
  5
141
  8
ROUTES
 10
27.49941572598392
 20
82.05451038520968
 30
0.0
  0
VERTEX
  5
142
  8
ROUTES
 10
27.49549228000519
 20
82.0387996472871
 30
0.0
  0
VERTEX
  5
143
  8
ROUTES
 10
27.4911843837
 20
82.02324521444254
 30
0.0
  0
VERTEX
  5
144
  8
ROUTES
 10
27.48650022836632
 20
82.00786074425966
 30
0.0
  0
VERTEX
  5
145
  8
ROUTES
 10
27.48144862353332
 20
81.99265936617243
 30
0.0
  0
VERTEX
  5
146
  8
ROUTES
 10
27.47603895684485
 20
81.97765364871955
 30
0.0
  0
VERTEX
  5
147
  8
ROUTES
 10
27.47028115207611
 20
81.96285557027784
 30
0.0
  0
VERTEX
  5
148
  8
ROUTES
 10
27.46418562561844
 20
81.94827649337319
 30
0.0
  0
VERTEX
  5
149
  8
ROUTES
 10
27.45776324177014
 20
81.93392714263416
 30
0.0
  0
VERTEX
  5
14A
  8
ROUTES
 10
27.45102526717126
 20
81.9198175864172
 30
0.0
  0
VERTEX
  5
14B
  8
ROUTES
 10
27.44398332471327
 20
81.90595722210034
 30
0.0
  0
VERTEX
  5
14C
  8
ROUTES
 10
27.4366493472473
 20
81.89235476500838
 30
0.0
  0
VERTEX
  5
14D
  8
ROUTES
 10
27.42903553140106
 20
81.87901824090423
 30
0.0
  0
VERTEX
  5
14E
  8
ROUTES
 10
27.42115429180184
 20
81.86595498195132
 30
0.0
  0
VERTEX
  5
14F
  8
ROUTES
 10
27.41301821598343
 20
81.85317162602806
 30
0.0
  0
VERTEX
  5
150
  8
ROUTES
 10
27.40464002023727
 20
81.84067411925102
 30
0.0
  0
VERTEX
  5
151
  8
ROUTES
 10
27.39603250664477
 20
81.82846772154485
 30
0.0
  0
VERTEX
  5
152
  8
ROUTES
 10
27.38720852150807
 20
81.81655701507933
 30
0.0
  0
VERTEX
  5
153
  8
ROUTES
 10
27.37818091536936
 20
81.80494591537891
 30
0.0
  0
VERTEX
  5
154
  8
ROUTES
 10
27.36896250478829
 20
81.79363768490109
 30
0.0
  0
VERTEX
  5
155
  8
ROUTES
 10
27.35956603602035
 20
81.78263494886968
 30
0.0
  0
VERTEX
  5
156
  8
ROUTES
 10
27.35000415071541
 20
81.77193971314458
 30
0.0
  0
VERTEX
  5
157
  8
ROUTES
 10
27.34028935373279
 20
81.76155338390632
 30
0.0
  0
VERTEX
  5
158
  8
ROUTES
 10
27.33043398314477
 20
81.75147678893401
 30
0.0
  0
VERTEX
  5
159
  8
ROUTES
 10
24.1588251516364
 20
78.57986795742568
 30
0.0
 42
-0.2008759561873409
  0
VERTEX
  5
15A
  8
ROUTES
 10
23.70643398314477
 20
78.39047678893405
 30
0.0
  0
VERTEX
  5
15B
  8
ROUTES
 10
19.78943398314478
 20
78.39047678893402
 30
0.0
  0
VERTEX
  5
15C
  8
ROUTES
 10
17.35643398314478
 20
75.95747678893403
 30
0.0
  0
VERTEX
  5
15D
  8
ROUTES
 10
17.35643398314478
 20
71.40531066707794
 30
0.0
  0
VERTEX
  5
15E
  8
ROUTES
 10
20.26822090952012
 20
71.40546755608855
 30
0.0
 42
-0.7988886844511773
  0
VERTEX
  5
15F
  8
ROUTES
 10
22.25057097623721
 20
70.58433979581183
 30
0.0
  0
VERTEX
  5
160
  8
ROUTES
 10
24.15204281465278
 20
68.68286795742607
 30
0.0
 42
-0.2008759561875401
  0
VERTEX
  5
161
  8
ROUTES
 10
24.34143398314479
 20
68.23047678893404
 30
0.0
  0
VERTEX
  5
162
  8
ROUTES
 10
24.3414339831448
 20
64.68347678893403
 30
0.0
  0
VERTEX
  5
163
  8
ROUTES
 10
26.06043398314479
 20
62.96447678893404
 30
0.0
  0
VERTEX
  5
164
  8
ROUTES
 10
26.07028935373275
 20
62.9544001944075
 30
0.0
  0
VERTEX
  5
165
  8
ROUTES
 10
26.08000415071542
 20
62.94401386652211
 30
0.0
  0
VERTEX
  5
166
  8
ROUTES
 10
26.08956603602037
 20
62.93331863308035
 30
0.0
  0
VERTEX
  5
167
  8
ROUTES
 10
26.0989625047883
 20
62.92231590028516
 30
0.0
  0
VERTEX
  5
168
  8
ROUTES
 10
26.10818091536932
 20
62.91100767401767
 30
0.0
  0
VERTEX
  5
169
  8
ROUTES
 10
26.11720852150803
 20
62.89939657952223
 30
0.0
  0
VERTEX
  5
16A
  8
ROUTES
 10
26.12603250664479
 20
62.88748587927549
 30
0.0
  0
VERTEX
  5
16B
  8
ROUTES
 10
26.13464002023723
 20
62.87527948882004
 30
0.0
  0
VERTEX
  5
16C
  8
ROUTES
 10
26.14301821598345
 20
62.86278199034214
 30
0.0
  0
VERTEX
  5
16D
  8
ROUTES
 10
26.1511542918018
 20
62.84999864378173
 30
0.0
  0
VERTEX
  5
16E
  8
ROUTES
 10
26.15903553140107
 20
62.83693539526902
 30
0.0
  0
VERTEX
  5
16F
  8
ROUTES
 10
26.16664934724731
 20
62.82359888269443
 30
0.0
  0
VERTEX
  5
170
  8
ROUTES
 10
26.17398332471329
 20
62.80999643823159
 30
0.0
  0
VERTEX
  5
171
  8
ROUTES
 10
26.18102526717122
 20
62.79613608765177
 30
0.0
  0
VERTEX
  5
172
  8
ROUTES
 10
26.18776324177016
 20
62.78202654628635
 30
0.0
  0
VERTEX
  5
173
  8
ROUTES
 10
26.19418562561846
 20
62.76767721151779
 30
0.0
  0
VERTEX
  5
174
  8
ROUTES
 10
26.20028115207613
 20
62.75309815170496
 30
0.0
  0
VERTEX
  5
175
  8
ROUTES
 10
26.20603895684481
 20
62.7383000914767
 30
0.0
  0
VERTEX
  5
176
  8
ROUTES
 10
26.21144862353334
 20
62.72329439335695
 30
0.0
  0
VERTEX
  5
177
  8
ROUTES
 10
26.21650022836634
 20
62.70809303571846
 30
0.0
  0
VERTEX
  5
178
  8
ROUTES
 10
26.22118438369996
 20
62.69270858709351
 30
0.0
  0
VERTEX
  5
179
  8
ROUTES
 10
26.22549228000521
 20
62.67715417690735
 30
0.0
  0
VERTEX
  5
17A
  8
ROUTES
 10
26.22941572598394
 20
62.66144346273259
 30
0.0
  0
VERTEX
  5
17B
  8
ROUTES
 10
26.23294718648795
 20
62.64559059420125
 30
0.0
  0
VERTEX
  5
17C
  8
ROUTES
 10
26.23607981792345
 20
62.62961017374343
 30
0.0
  0
VERTEX
  5
17D
  8
ROUTES
 10
26.23880750083602
 20
62.61351721435724
 30
0.0
  0
VERTEX
  5
17E
  8
ROUTES
 10
26.24112486939391
 20
62.59732709464785
 30
0.0
  0
VERTEX
  5
17F
  8
ROUTES
 10
26.24302733750655
 20
62.5810555114019
 30
0.0
  0
VERTEX
  5
180
  8
ROUTES
 10
26.24451112134422
 20
62.56471842999409
 30
0.0
  0
VERTEX
  5
181
  8
ROUTES
 10
26.24557325805422
 20
62.54833203294632
 30
0.0
  0
VERTEX
  5
182
  8
ROUTES
 10
26.24621162050154
 20
62.5319126669817
 30
0.0
  0
VERTEX
  5
183
  8
ROUTES
 10
26.24643226375141
 20
60.36568455088477
 30
0.0
 42
-0.2435016577175512
  0
VERTEX
  5
184
  8
ROUTES
 10
26.71143398314474
 20
59.4674767927316
 30
0.0
  0
VERTEX
  5
185
  8
ROUTES
 10
26.71143398314475
 20
57.94347697440006
 30
0.0
 42
-1.000000168605475
  0
VERTEX
  5
186
  8
ROUTES
 10
24.5114339831448
 20
57.94347697440001
 30
0.0
  0
VERTEX
  5
187
  8
ROUTES
 10
24.51143398314481
 20
59.46747697440654
 30
0.0
 42
-0.2435011525293285
  0
VERTEX
  5
188
  8
ROUTES
 10
24.97643398314553
 20
60.36568333533688
 30
0.0
  0
VERTEX
  5
189
  8
ROUTES
 10
24.97643398314479
 20
62.25247678893405
 30
0.0
  0
VERTEX
  5
18A
  8
ROUTES
 10
23.26082515163672
 20
63.9680856204421
 30
0.0
 42
-0.2008759561874803
  0
VERTEX
  5
18B
  8
ROUTES
 10
23.0714339831448
 20
64.42047678893408
 30
0.0
  0
VERTEX
  5
18C
  8
ROUTES
 10
23.07143398314481
 20
67.96747678893408
 30
0.0
  0
VERTEX
  5
18D
  8
ROUTES
 10
21.35257097624152
 20
69.68633979583731
 30
0.0
 42
-0.2890298588369996
  0
VERTEX
  5
18E
  8
ROUTES
 10
20.26822485496024
 20
70.13548044086889
 30
0.0
  0
VERTEX
  5
18F
  8
ROUTES
 10
17.16235437312004
 20
70.13560346201186
 30
0.0
 42
-0.4035664892480769
  0
VERTEX
  5
190
  8
ROUTES
 10
16.28016394300684
 20
70.13577266519358
 30
0.0
  0
VERTEX
  5
191
  8
ROUTES
 10
15.55779177816164
 20
70.13563380466437
 30
0.0
 42
-0.4513735279337521
  0
VERTEX
  5
192
  8
ROUTES
 10
13.9175850084232
 20
70.31418647940245
 30
0.0
 42
-0.2186868525820221
  0
VERTEX
  5
193
  8
ROUTES
 10
13.72536929081582
 20
70.80835596564496
 30
0.0
 42
-0.8597620016148957
  0
VERTEX
  5
194
  8
ROUTES
 10
15.81693629112137
 20
71.4054366425225
 30
0.0
  0
VERTEX
  5
195
  8
ROUTES
 10
16.0864339831448
 20
71.405385637541
 30
0.0
  0
VERTEX
  5
196
  8
ROUTES
 10
16.0864339831448
 20
76.22047678893406
 30
0.0
 42
-0.2008759562266979
  0
VERTEX
  5
197
  8
ROUTES
 10
16.27582515166209
 20
76.67286795739852
 30
0.0
  0
VERTEX
  5
198
  8
ROUTES
 10
19.07404281465269
 20
79.47108562044197
 30
0.0
 42
-0.2008759561875125
  0
VERTEX
  5
199
  8
ROUTES
 10
19.52643398314479
 20
79.66047678893405
 30
0.0
  0
VERTEX
  5
19A
  8
ROUTES
 10
23.44343398314477
 20
79.66047678893406
 30
0.0
  0
VERTEX
  5
19B
  8
ROUTES
 10
26.24643451892423
 20
82.46347786049299
 30
0.0
  0
VERTEX
  5
19C
  8
ROUTES
 10
26.246656345788
 20
86.66191216978007
 30
0.0
  0
VERTEX
  5
19D
  8
ROUTES
 10
26.24729470823532
 20
86.67833156753872
 30
0.0
  0
VERTEX
  5
19E
  8
ROUTES
 10
26.24835684494538
 20
86.69471799546037
 30
0.0
  0
VERTEX
  5
19F
  8
ROUTES
 10
26.24984062878305
 20
86.71105510679317
 30
0.0
  0
VERTEX
  5
1A0
  8
ROUTES
 10
26.25174309689568
 20
86.72732671898862
 30
0.0
  0
VERTEX
  5
1A1
  8
ROUTES
 10
26.25406046545358
 20
86.7435168666475
 30
0.0
  0
VERTEX
  5
1A2
  8
ROUTES
 10
26.25678814836614
 20
86.75960985296072
 30
0.0
  0
VERTEX
  5
1A3
  8
ROUTES
 10
26.25992077980159
 20
86.7755902993031
 30
0.0
  0
VERTEX
  5
1A4
  8
ROUTES
 10
26.26345224030565
 20
86.79144319265836
 30
0.0
  0
VERTEX
  5
1A5
  8
ROUTES
 10
26.26737568628438
 20
86.807153930581
 30
0.0
  0
VERTEX
  5
1A6
  8
ROUTES
 10
26.27168358258957
 20
86.82270836342556
 30
0.0
  0
VERTEX
  5
1A7
  8
ROUTES
 10
26.27636773792325
 20
86.83809283360839
 30
0.0
  0
VERTEX
  5
1A8
  8
ROUTES
 10
26.28141934275625
 20
86.85329421169564
 30
0.0
  0
VERTEX
  5
1A9
  8
ROUTES
 10
26.28682900944473
 20
86.86829992914852
 30
0.0
  0
VERTEX
  5
1AA
  8
ROUTES
 10
26.29258681421346
 20
86.88309800759023
 30
0.0
  0
VERTEX
  5
1AB
  8
ROUTES
 10
26.29868234067114
 20
86.89767708449489
 30
0.0
  0
VERTEX
  5
1AC
  8
ROUTES
 10
26.30510472451944
 20
86.91202643523391
 30
0.0
  0
VERTEX
  5
1AD
  8
ROUTES
 10
26.31184269911832
 20
86.92613599145085
 30
0.0
  0
VERTEX
  5
1AE
  8
ROUTES
 10
26.3188846415763
 20
86.93999635576773
 30
0.0
  0
VERTEX
  5
1AF
  8
ROUTES
 10
26.32621861904228
 20
86.9535988128597
 30
0.0
  0
VERTEX
  5
1B0
  8
ROUTES
 10
26.33383243488852
 20
86.96693533696384
 30
0.0
  0
VERTEX
  5
1B1
  8
ROUTES
 10
26.34171367448774
 20
86.97999859591673
 30
0.0
  0
VERTEX
  5
1B2
  8
ROUTES
 10
26.34984975030609
 20
86.99278195183999
 30
0.0
  0
VERTEX
  5
1B3
  8
ROUTES
 10
26.35822794605231
 20
87.00527945861708
 30
0.0
  0
VERTEX
  5
1B4
  8
ROUTES
 10
26.3668354596448
 20
87.01748585632319
 30
0.0
  0
VERTEX
  5
1B5
  8
ROUTES
 10
26.3756594447815
 20
87.02939656278872
 30
0.0
  0
VERTEX
  5
1B6
  8
ROUTES
 10
26.38468705092022
 20
87.04100766248919
 30
0.0
  0
VERTEX
  5
1B7
  8
ROUTES
 10
26.39390546150129
 20
87.05231589296702
 30
0.0
  0
VERTEX
  5
1B8
  8
ROUTES
 10
26.40330193026922
 20
87.06331862899839
 30
0.0
  0
VERTEX
  5
1B9
  8
ROUTES
 10
26.41286381557417
 20
87.07401386472353
 30
0.0
  0
VERTEX
  5
1BA
  8
ROUTES
 10
26.42257861255679
 20
87.08440019396178
 30
0.0
  0
VERTEX
  5
1BB
  8
ROUTES
 10
28.15141774410144
 20
88.813428071804
 30
0.0
  0
VERTEX
  5
1BC
  8
ROUTES
 10
28.15142535063962
 20
89.43027634546618
 30
0.0
 42
-0.2434986056029826
  0
VERTEX
  5
1BD
  8
ROUTES
 10
27.68643398314482
 20
90.32847678515515
 30
0.0
  0
VERTEX
  5
1BE
  8
ROUTES
 10
27.68643398314483
 20
91.85247660347048
 30
0.0
 42
-1.000000084301615
  0
VERTEX
  5
1BF
  8
ROUTES
 10
29.88643372088434
 20
91.85247660347049
 30
0.0
  0
VERTEX
  5
1C0
  8
ROUTES
 10
29.88643398314481
 20
91.72531468968813
 30
0.0
  0
VERTEX
  5
1C1
  8
ROUTES
 10
31.69821484761799
 20
91.72545898126327
 30
0.0
 42
-0.5472317827721536
  0
VERTEX
  5
1C2
  8
ROUTES
 10
33.54918988863278
 20
91.64025509385138
 30
0.0
  0
SEQEND
  5
1C3
  8
ROUTES
  0
POLYLINE
  5
1C4
  8
ROUTES
 66
     1
 10
0.0
 20
0.0
 30
0.0
  0
VERTEX
  5
1C5
  8
ROUTES
 10
31.79143398314473
 20
86.02947681848943
 30
0.0
  0
VERTEX
  5
1C6
  8
ROUTES
 10
31.79143372088432
 20
84.72147697441375
 30
0.0
 42
-1.000000287827263
  0
VERTEX
  5
1C7
  8
ROUTES
 10
29.59143398314481
 20
84.72147697441376
 30
0.0
  0
VERTEX
  5
1C8
  8
ROUTES
 10
29.59143398314479
 20
86.02947697441519
 30
0.0
 42
-0.9999998179783801
  0
VERTEX
  5
1C9
  8
ROUTES
 10
31.79143398314475
 20
86.02947681848941
 30
0.0
  0
SEQEND
  5
1CA
  8
ROUTES
  0
POLYLINE
  5
1CB
  8
ROUTES
 66
     1
 10
0.0
 20
0.0
 30
0.0
  0
VERTEX
  5
1CC
  8
ROUTES
 10
34.33143398314475
 20
86.02947681849847
 30
0.0
  0
VERTEX
  5
1CD
  8
ROUTES
 10
34.33143398314475
 20
84.72147697446619
 30
0.0
 42
-1.000000168665655
  0
VERTEX
  5
1CE
  8
ROUTES
 10
32.1314339831448
 20
84.72147697446619
 30
0.0
  0
VERTEX
  5
1CF
  8
ROUTES
 10
32.13143398314481
 20
86.02947697442423
 30
0.0
 42
-0.9999998179742896
  0
VERTEX
  5
1D0
  8
ROUTES
 10
34.33143398314476
 20
86.02947681849845
 30
0.0
  0
SEQEND
  5
1D1
  8
ROUTES
  0
POLYLINE
  5
1D2
  8
ROUTES
 66
     1
 10
0.0
 20
0.0
 30
0.0
  0
VERTEX
  5
1D3
  8
ROUTES
 10
36.87143398314477
 20
86.02947681848119
 30
0.0
  0
VERTEX
  5
1D4
  8
ROUTES
 10
36.87143398314478
 20
84.72147697438149
 30
0.0
 42
-1.000000168588658
  0
VERTEX
  5
1D5
  8
ROUTES
 10
34.67143398314483
 20
84.72147697438149
 30
0.0
  0
VERTEX
  5
1D6
  8
ROUTES
 10
34.67143424540524
 20
86.02947697440695
 30
0.0
 42
-1.000000105778851
  0
VERTEX
  5
1D7
  8
ROUTES
 10
36.87143398314475
 20
86.0294768184812
 30
0.0
  0
SEQEND
  5
1D8
  8
ROUTES
  0
POLYLINE
  5
1D9
  8
ROUTES
 66
     1
 10
0.0
 20
0.0
 30
0.0
  0
VERTEX
  5
1DA
  8
ROUTES
 10
39.41143398314473
 20
86.0294768184553
 30
0.0
  0
VERTEX
  5
1DB
  8
ROUTES
 10
39.41143372088433
 20
84.72147697443464
 30
0.0
 42
-1.000000287846306
  0
VERTEX
  5
1DC
  8
ROUTES
 10
37.21143398314479
 20
84.72147697443462
 30
0.0
  0
VERTEX
  5
1DD
  8
ROUTES
 10
37.2114339831448
 20
86.02947697438105
 30
0.0
 42
-0.9999998179939006
  0
VERTEX
  5
1DE
  8
ROUTES
 10
39.41143398314476
 20
86.0294768184553
 30
0.0
  0
SEQEND
  5
1DF
  8
ROUTES
  0
POLYLINE
  5
1E0
  8
ROUTES
 66
     1
 10
0.0
 20
0.0
 30
0.0
  0
VERTEX
  5
1E1
  8
ROUTES
 10
41.95143398314475
 20
86.0294766034879
 30
0.0
  0
VERTEX
  5
1E2
  8
ROUTES
 10
41.95143398314473
 20
84.72147675939726
 30
0.0
 42
-0.9999999731483998
  0
VERTEX
  5
1E3
  8
ROUTES
 10
39.75143398314483
 20
84.72147675939725
 30
0.0
  0
VERTEX
  5
1E4
  8
ROUTES
 10
39.75143424540524
 20
86.0294766034879
 30
0.0
 42
-1.00000037209047
  0
VERTEX
  5
1E5
  8
ROUTES
 10
41.95143398314475
 20
86.0294766034879
 30
0.0
  0
SEQEND
  5
1E6
  8
ROUTES
  0
POLYLINE
  5
1E7
  8
ROUTES
 66
     1
 10
0.0
 20
0.0
 30
0.0
  0
VERTEX
  5
1E8
  8
ROUTES
 10
47.03143372088432
 20
86.02947660347652
 30
0.0
  0
VERTEX
  5
1E9
  8
ROUTES
 10
47.03143398314474
 20
84.72147697438189
 30
0.0
 42
-1.000000168589007
  0
VERTEX
  5
1EA
  8
ROUTES
 10
44.83143398314481
 20
84.72147697438184
 30
0.0
  0
VERTEX
  5
1EB
  8
ROUTES
 10
44.83143398314481
 20
86.02947660347652
 30
0.0
 42
-1.000000084298869
  0
VERTEX
  5
1EC
  8
ROUTES
 10
47.03143372088431
 20
86.02947660347654
 30
0.0
  0
SEQEND
  5
1ED
  8
ROUTES
  0
POLYLINE
  5
1EE
  8
ROUTES
 66
     1
 10
0.0
 20
0.0
 30
0.0
  0
VERTEX
  5
1EF
  8
ROUTES
 10
47.03143372088432
 20
92.66527660345233
 30
0.0
  0
VERTEX
  5
1F0
  8
ROUTES
 10
47.03143398314474
 20
90.7856766034879
 30
0.0
 42
-0.243501152529101
  0
VERTEX
  5
1F1
  8
ROUTES
 10
46.56643398314407
 20
89.8874702425312
 30
0.0
  0
VERTEX
  5
1F2
  8
ROUTES
 10
46.5664339831448
 20
89.18547678893404
 30
0.0
 42
-0.2008759562270555
  0
VERTEX
  5
1F3
  8
ROUTES
 10
46.37704281462673
 20
88.73308562046883
 30
0.0
  0
VERTEX
  5
1F4
  8
ROUTES
 10
44.29736469896132
 20
86.65340750475124
 30
0.0
 42
-0.1519320283832007
  0
VERTEX
  5
1F5
  8
ROUTES
 10
44.49143372088434
 20
86.02947660346864
 30
0.0
  0
VERTEX
  5
1F6
  8
ROUTES
 10
44.4914337208843
 20
84.72147697438149
 30
0.0
 42
-1.000000287797931
  0
VERTEX
  5
1F7
  8
ROUTES
 10
42.29143398314478
 20
84.72147697438149
 30
0.0
  0
VERTEX
  5
1F8
  8
ROUTES
 10
42.29143398314478
 20
86.02947660346862
 30
0.0
 42
-0.2730278725329702
  0
VERTEX
  5
1F9
  8
ROUTES
 10
42.85956431686142
 20
86.99234472281056
 30
0.0
  0
VERTEX
  5
1FA
  8
ROUTES
 10
45.2964337025261
 20
89.44847650831537
 30
0.0
  0
VERTEX
  5
1FB
  8
ROUTES
 10
45.29643398314477
 20
89.88747024253064
 30
0.0
 42
-0.2435012436059494
  0
VERTEX
  5
1FC
  8
ROUTES
 10
44.8314339831448
 20
90.78567678893404
 30
0.0
  0
VERTEX
  5
1FD
  8
ROUTES
 10
44.83143398314483
 20
92.66527660345233
 30
0.0
 42
-1.000000084309862
  0
VERTEX
  5
1FE
  8
ROUTES
 10
47.03143372088432
 20
92.6652766034523
 30
0.0
  0
SEQEND
  5
1FF
  8
ROUTES
  0
POLYLINE
  5
200
  8
ROUTES
 66
     1
 10
0.0
 20
0.0
 30
0.0
  0
VERTEX
  5
201
  8
ROUTES
 10
44.49143398314477
 20
92.66527675031543
 30
0.0
  0
VERTEX
  5
202
  8
ROUTES
 10
44.49143398314478
 20
90.78567678893404
 30
0.0
 42
-0.9999999999999966
  0
VERTEX
  5
203
  8
ROUTES
 10
42.29143398314481
 20
90.78567678893404
 30
0.0
  0
VERTEX
  5
204
  8
ROUTES
 10
42.29143424540526
 20
92.66527697438121
 30
0.0
 42
-0.2435012898408241
  0
VERTEX
  5
205
  8
ROUTES
 10
42.75643398314551
 20
93.56348333533688
 30
0.0
  0
VERTEX
  5
206
  8
ROUTES
 10
42.75643398314476
 20
94.63747678893404
 30
0.0
  0
VERTEX
  5
207
  8
ROUTES
 10
41.85843398314479
 20
95.53547678893403
 30
0.0
  0
VERTEX
  5
208
  8
ROUTES
 10
25.23943398314482
 20
95.53547678893403
 30
0.0
  0
VERTEX
  5
209
  8
ROUTES
 10
24.3414339831448
 20
94.63747678893404
 30
0.0
  0
VERTEX
  5
20A
  8
ROUTES
 10
24.3414339831448
 20
92.75068333533746
 30
0.0
 42
-0.2404127549084608
  0
VERTEX
  5
20B
  8
ROUTES
 10
24.80639700025748
 20
91.8652333627524
 30
0.0
  0
VERTEX
  5
20C
  8
ROUTES
 10
24.95787750797957
 20
91.86523379165314
 30
0.0
  0
VERTEX
  5
20D
  8
ROUTES
 10
24.95787750797957
 20
91.85247678893873
 30
0.0
  0
VERTEX
  5
20E
  8
ROUTES
 10
24.80643398314477
 20
91.8524766073422
 30
0.0
  0
VERTEX
  5
20F
  8
ROUTES
 10
24.80643398314476
 20
90.32847697438132
 30
0.0
 42
-0.2435012882525933
  0
VERTEX
  5
210
  8
ROUTES
 10
24.34143398314403
 20
89.43027024253117
 30
0.0
  0
VERTEX
  5
211
  8
ROUTES
 10
24.34143398314479
 20
88.55047678893405
 30
0.0
 42
-0.200875956227194
  0
VERTEX
  5
212
  8
ROUTES
 10
24.15204281462662
 20
88.09808562046872
 30
0.0
  0
VERTEX
  5
213
  8
ROUTES
 10
23.52057097623962
 20
87.46661378204217
 30
0.0
 42
-2.737891236658754
  0
VERTEX
  5
214
  8
ROUTES
 10
22.43643398314478
 20
88.38047678893403
 30
0.0
  0
VERTEX
  5
215
  8
ROUTES
 10
22.62256613373911
 20
88.36461461343569
 30
0.0
  0
VERTEX
  5
216
  8
ROUTES
 10
23.07145051146018
 20
88.81350984556485
 30
0.0
  0
VERTEX
  5
217
  8
ROUTES
 10
23.07144277018541
 20
89.43026403047074
 30
0.0
 42
-0.2435038694238679
  0
VERTEX
  5
218
  8
ROUTES
 10
22.60643398314484
 20
90.32847697438132
 30
0.0
  0
VERTEX
  5
219
  8
ROUTES
 10
22.60643398314485
 20
91.85247697446096
 30
0.0
 42
-0.2435312252126156
  0
VERTEX
  5
21A
  8
ROUTES
 10
23.07153598470014
 20
92.75075543811168
 30
0.0
  0
VERTEX
  5
21B
  8
ROUTES
 10
23.07143398314593
 20
94.90047678893404
 30
0.0
 42
-0.2008759562284927
  0
VERTEX
  5
21C
  8
ROUTES
 10
23.26082515166332
 20
95.35286795739974
 30
0.0
  0
VERTEX
  5
21D
  8
ROUTES
 10
24.52404281465267
 20
96.61608562044194
 30
0.0
  0
VERTEX
  5
21E
  8
ROUTES
 10
24.53583684426867
 20
96.62775040643098
 30
0.0
  0
VERTEX
  5
21F
  8
ROUTES
 10
24.54792857465095
 20
96.63910042783118
 30
0.0
  0
VERTEX
  5
220
  8
ROUTES
 10
24.56030527413419
 20
96.65012446960813
 30
0.0
  0
VERTEX
  5
221
  8
ROUTES
 10
24.57295365862406
 20
96.66081200871815
 30
0.0
  0
VERTEX
  5
222
  8
ROUTES
 10
24.58585993883328
 20
96.67115324728175
 30
0.0
  0
VERTEX
  5
223
  8
ROUTES
 10
24.59900986982832
 20
96.68113914188174
 30
0.0
  0
VERTEX
  5
224
  8
ROUTES
 10
24.61238880251683
 20
96.69076142880905
 30
0.0
  0
VERTEX
  5
225
  8
ROUTES
 10
24.62598173669188
 20
96.70001264511566
 30
0.0
  0
VERTEX
  5
226
  8
ROUTES
 10
24.63977337523757
 20
96.70888614537867
 30
0.0
  0
VERTEX
  5
227
  8
ROUTES
 10
24.65374817909778
 20
96.71737611411913
 30
0.0
  0
VERTEX
  5
228
  8
ROUTES
 10
24.66789042260827
 20
96.72547757386207
 30
0.0
  0
VERTEX
  5
229
  8
ROUTES
 10
24.6821842487977
 20
96.73318638886454
 30
0.0
  0
VERTEX
  5
22A
  8
ROUTES
 10
24.69661372427261
 20
96.74049926457874
 30
0.0
  0
VERTEX
  5
22B
  8
ROUTES
 10
24.71116289331577
 20
96.74741374295465
 30
0.0
  0
VERTEX
  5
22C
  8
ROUTES
 10
24.72581583084305
 20
96.75392819372183
 30
0.0
  0
VERTEX
  5
22D
  8
ROUTES
 10
24.74055669388765
 20
96.76004180182335
 30
0.0
  0
VERTEX
  5
22E
  8
ROUTES
 10
24.75536977130379
 20
96.76575455120317
 30
0.0
  0
VERTEX
  5
22F
  8
ROUTES
 10
24.77023953140845
 20
96.77106720517534
 30
0.0
  0
VERTEX
  5
230
  8
ROUTES
 10
24.78515066731076
 20
96.7759812836243
 30
0.0
  0
VERTEX
  5
231
  8
ROUTES
 10
24.80008813970694
 20
96.7804990373051
 30
0.0
  0
VERTEX
  5
232
  8
ROUTES
 10
24.81503721695391
 20
96.78462341952618
 30
0.0
  0
VERTEX
  5
233
  8
ROUTES
 10
24.82998351226372
 20
96.78835805550747
 30
0.0
  0
VERTEX
  5
234
  8
ROUTES
 10
24.84491301789633
 20
96.79170720971447
 30
0.0
  0
VERTEX
  5
235
  8
ROUTES
 10
24.85981213625861
 20
96.79467575147012
 30
0.0
  0
VERTEX
  5
236
  8
ROUTES
 10
24.87466770785046
 20
96.7972691191475
 30
0.0
  0
VERTEX
  5
237
  8
ROUTES
 10
24.8894670360278
 20
96.7994932832411
 30
0.0
  0
VERTEX
  5
238
  8
ROUTES
 10
24.90419790858182
 20
96.8013547086083
 30
0.0
  0
VERTEX
  5
239
  8
ROUTES
 10
24.91884861616047
 20
96.80286031616242
 30
0.0
  0
VERTEX
  5
23A
  8
ROUTES
 10
24.93340796758339
 20
96.80401744428713
 30
0.0
  0
VERTEX
  5
23B
  8
ROUTES
 10
24.94786530212373
 20
96.80483381022793
 30
0.0
  0
VERTEX
  5
23C
  8
ROUTES
 10
24.96221049885055
 20
96.80531747169985
 30
0.0
  0
VERTEX
  5
23D
  8
ROUTES
 10
42.12143193930156
 20
96.80546773368681
 30
0.0
  0
VERTEX
  5
23E
  8
ROUTES
 10
42.13786794341475
 20
96.80525442629084
 30
0.0
  0
VERTEX
  5
23F
  8
ROUTES
 10
42.15428743201353
 20
96.8046160638435
 30
0.0
  0
VERTEX
  5
240
  8
ROUTES
 10
42.17067394814616
 20
96.80355392713349
 30
0.0
  0
VERTEX
  5
241
  8
ROUTES
 10
42.18701114497891
 20
96.80207014329582
 30
0.0
  0
VERTEX
  5
242
  8
ROUTES
 10
42.20328283988728
 20
96.80016767518319
 30
0.0
  0
VERTEX
  5
243
  8
ROUTES
 10
42.21947306740181
 20
96.79785030662526
 30
0.0
  0
VERTEX
  5
244
  8
ROUTES
 10
42.23556613064956
 20
96.7951226237127
 30
0.0
  0
VERTEX
  5
245
  8
ROUTES
 10
42.25154665094756
 20
96.79198999227725
 30
0.0
  0
VERTEX
  5
246
  8
ROUTES
 10
42.26739961522851
 20
96.78845853177319
 30
0.0
  0
VERTEX
  5
247
  8
ROUTES
 10
42.28311042100218
 20
96.78453508579449
 30
0.0
  0
VERTEX
  5
248
  8
ROUTES
 10
42.29866491858498
 20
96.78022718948924
 30
0.0
  0
VERTEX
  5
249
  8
ROUTES
 10
42.31404945036191
 20
96.77554303415562
 30
0.0
  0
VERTEX
  5
24A
  8
ROUTES
 10
42.32925088687411
 20
96.77049142932259
 30
0.0
  0
VERTEX
  5
24B
  8
ROUTES
 10
42.34425665956458
 20
96.76508176263408
 30
0.0
  0
VERTEX
  5
24C
  8
ROUTES
 10
42.35905479004471
 20
96.75932395786538
 30
0.0
  0
VERTEX
  5
24D
  8
ROUTES
 10
42.37363391578306
 20
96.7532284314077
 30
0.0
  0
VERTEX
  5
24E
  8
ROUTES
 10
42.38798331215197
 20
96.7468060475594
 30
0.0
  0
VERTEX
  5
24F
  8
ROUTES
 10
42.40209291080181
 20
96.7400680729605
 30
0.0
  0
VERTEX
  5
250
  8
ROUTES
 10
42.41595331436748
 20
96.73302613050254
 30
0.0
  0
VERTEX
  5
251
  8
ROUTES
 10
42.42955580754257
 20
96.72569215303656
 30
0.0
  0
VERTEX
  5
252
  8
ROUTES
 10
42.44289236458827
 20
96.71807833719032
 30
0.0
  0
VERTEX
  5
253
  8
ROUTES
 10
42.45595565337034
 20
96.71019709759108
 30
0.0
  0
VERTEX
  5
254
  8
ROUTES
 10
42.46873903604468
 20
96.70206102177272
 30
0.0
  0
VERTEX
  5
255
  8
ROUTES
 10
42.48123656653367
 20
96.6936828260265
 30
0.0
  0
VERTEX
  5
256
  8
ROUTES
 10
42.49344298495602
 20
96.68507531243404
 30
0.0
  0
VERTEX
  5
257
  8
ROUTES
 10
42.50535370918961
 20
96.67625132729731
 30
0.0
  0
VERTEX
  5
258
  8
ROUTES
 10
42.5169648237614
 20
96.66722372115859
 30
0.0
  0
VERTEX
  5
259
  8
ROUTES
 10
42.52827306626877
 20
96.65800531057755
 30
0.0
  0
VERTEX
  5
25A
  8
ROUTES
 10
42.53927581154626
 20
96.64860884180959
 30
0.0
  0
VERTEX
  5
25B
  8
ROUTES
 10
42.54997105379529
 20
96.63904695650464
 30
0.0
  0
VERTEX
  5
25C
  8
ROUTES
 10
42.56035738689913
 20
96.629332159522
 30
0.0
  0
VERTEX
  5
25D
  8
ROUTES
 10
42.57043398314478
 20
96.61947678893404
 30
0.0
  0
VERTEX
  5
25E
  8
ROUTES
 10
43.83704281465131
 20
95.35286795742753
 30
0.0
 42
-0.2008759561884027
  0
VERTEX
  5
25F
  8
ROUTES
 10
44.02643398314481
 20
94.90047678893403
 30
0.0
  0
VERTEX
  5
260
  8
ROUTES
 10
44.0264339831448
 20
93.56348333533745
 30
0.0
 42
-0.2435011503711253
  0
VERTEX
  5
261
  8
ROUTES
 10
44.49143398314474
 20
92.66527675031546
 30
0.0
  0
SEQEND
  5
262
  8
ROUTES
  0
POLYLINE
  5
263
  8
ROUTES
 66
     1
 10
0.0
 20
0.0
 30
0.0
  0
VERTEX
  5
264
  8
ROUTES
 10
54.65143398314474
 20
86.0294768184888
 30
0.0
  0
VERTEX
  5
265
  8
ROUTES
 10
54.65143398314478
 20
84.72147678893404
 30
0.0
 42
-0.999999999999987
  0
VERTEX
  5
266
  8
ROUTES
 10
52.45143398314479
 20
84.72147678893401
 30
0.0
  0
VERTEX
  5
267
  8
ROUTES
 10
52.45143398314481
 20
86.02947697441454
 30
0.0
 42
-0.9999998179786757
  0
VERTEX
  5
268
  8
ROUTES
 10
54.65143398314476
 20
86.02947681848879
 30
0.0
  0
SEQEND
  5
269
  8
ROUTES
  0
POLYLINE
  5
26A
  8
ROUTES
 66
     1
 10
0.0
 20
0.0
 30
0.0
  0
VERTEX
  5
26B
  8
ROUTES
 10
57.19143398314476
 20
86.02947681848363
 30
0.0
  0
VERTEX
  5
26C
  8
ROUTES
 10
57.19143372088433
 20
84.72147697438035
 30
0.0
 42
-1.000000287796907
  0
VERTEX
  5
26D
  8
ROUTES
 10
54.99143398314484
 20
84.72147697438034
 30
0.0
  0
VERTEX
  5
26E
  8
ROUTES
 10
54.99143424540524
 20
86.02947697440939
 30
0.0
 42
-1.000000105777708
  0
VERTEX
  5
26F
  8
ROUTES
 10
57.19143398314475
 20
86.02947681848359
 30
0.0
  0
SEQEND
  5
270
  8
ROUTES
  0
POLYLINE
  5
271
  8
ROUTES
 66
     1
 10
0.0
 20
0.0
 30
0.0
  0
VERTEX
  5
272
  8
ROUTES
 10
59.73143372088431
 20
86.02947660340979
 30
0.0
  0
VERTEX
  5
273
  8
ROUTES
 10
59.73143398314479
 20
84.72147697438345
 30
0.0
 42
-1.000000168590434
  0
VERTEX
  5
274
  8
ROUTES
 10
57.53143398314479
 20
84.72147697438345
 30
0.0
  0
VERTEX
  5
275
  8
ROUTES
 10
57.53143398314486
 20
86.02947660340979
 30
0.0
 42
-1.000000084329196
  0
VERTEX
  5
276
  8
ROUTES
 10
59.73143372088436
 20
86.02947660340978
 30
0.0
  0
SEQEND
  5
277
  8
ROUTES
  0
POLYLINE
  5
278
  8
ROUTES
 66
     1
 10
0.0
 20
0.0
 30
0.0
  0
VERTEX
  5
279
  8
ROUTES
 10
62.2714339831448
 20
86.02947678893403
 30
0.0
  0
VERTEX
  5
27A
  8
ROUTES
 10
62.27143398314475
 20
84.72147697438018
 30
0.0
 42
-1.000000168587421
  0
VERTEX
  5
27B
  8
ROUTES
 10
60.07143398314481
 20
84.7214769743802
 30
0.0
  0
VERTEX
  5
27C
  8
ROUTES
 10
60.07143398314481
 20
86.02947678893403
 30
0.0
 42
-1.000000000000019
  0
VERTEX
  5
27D
  8
ROUTES
 10
62.27143398314477
 20
86.029476788934
 30
0.0
  0
SEQEND
  5
27E
  8
ROUTES
  0
POLYLINE
  5
27F
  8
ROUTES
 66
     1
 10
0.0
 20
0.0
 30
0.0
  0
VERTEX
  5
280
  8
ROUTES
 10
64.81143398314477
 20
86.02947660342616
 30
0.0
  0
VERTEX
  5
281
  8
ROUTES
 10
64.81143398314477
 20
84.7214769448598
 30
0.0
 42
-1.000000070875358
  0
VERTEX
  5
282
  8
ROUTES
 10
62.61143398314479
 20
84.72147678893405
 30
0.0
  0
VERTEX
  5
283
  8
ROUTES
 10
62.61143398314483
 20
86.02947660342616
 30
0.0
 42
-1.000000084321757
  0
VERTEX
  5
284
  8
ROUTES
 10
64.81143398314478
 20
86.0294766034262
 30
0.0
  0
SEQEND
  5
285
  8
ROUTES
  0
POLYLINE
  5
286
  8
ROUTES
 66
     1
 10
0.0
 20
0.0
 30
0.0
  0
VERTEX
  5
287
  8
ROUTES
 10
67.35143398314473
 20
86.02947660346322
 30
0.0
  0
VERTEX
  5
288
  8
ROUTES
 10
67.35143398314479
 20
84.72147678893404
 30
0.0
 42
-0.999999999999987
  0
VERTEX
  5
289
  8
ROUTES
 10
65.15143398314477
 20
84.72147678893404
 30
0.0
  0
VERTEX
  5
28A
  8
ROUTES
 10
65.15143398314486
 20
86.02947660346322
 30
0.0
 42
-1.000000084304911
  0
VERTEX
  5
28B
  8
ROUTES
 10
67.35143398314473
 20
86.02947660346324
 30
0.0
  0
SEQEND
  5
28C
  8
ROUTES
  0
POLYLINE
  5
28D
  8
ROUTES
 66
     1
 10
0.0
 20
0.0
 30
0.0
  0
VERTEX
  5
28E
  8
ROUTES
 10
63.54143398314478
 20
92.36047623438205
 30
0.0
  0
VERTEX
  5
28F
  8
ROUTES
 10
66.90286996539778
 20
92.36025442314647
 30
0.0
  0
VERTEX
  5
290
  8
ROUTES
 10
66.91928932836989
 20
92.35961605776376
 30
0.0
  0
VERTEX
  5
291
  8
ROUTES
 10
66.9356757222916
 20
92.35855391833263
 30
0.0
  0
VERTEX
  5
292
  8
ROUTES
 10
66.9520128004515
 20
92.35707013199251
 30
0.0
  0
VERTEX
  5
293
  8
ROUTES
 10
66.96828438033954
 20
92.35516766159955
 30
0.0
  0
VERTEX
  5
294
  8
ROUTES
 10
66.98447449659325
 20
92.35285029098611
 30
0.0
  0
VERTEX
  5
295
  8
ROUTES
 10
67.00056745243826
 20
92.3501226062445
 30
0.0
  0
VERTEX
  5
296
  8
ROUTES
 10
67.01654786928187
 20
92.34698997320734
 30
0.0
  0
VERTEX
  5
297
  8
ROUTES
 10
67.03240073413822
 20
92.34345851132883
 30
0.0
  0
VERTEX
  5
298
  8
ROUTES
 10
67.04811144458957
 20
92.33953506420204
 30
0.0
  0
VERTEX
  5
299
  8
ROUTES
 10
67.06366585101615
 20
92.33522716697331
 30
0.0
  0
VERTEX
  5
29A
  8
ROUTES
 10
67.07905029585727
 20
92.33054301093816
 30
0.0
  0
VERTEX
  5
29B
  8
ROUTES
 10
67.09425164969953
 20
92.32549140562222
 30
0.0
  0
VERTEX
  5
29C
  8
ROUTES
 10
67.10925734402203
 20
92.32008173866535
 30
0.0
  0
VERTEX
  5
29D
  8
ROUTES
 10
67.12405540046309
 20
92.31432393383793
 30
0.0
  0
VERTEX
  5
29E
  8
ROUTES
 10
67.13863445650954
 20
92.30822840752572
 30
0.0
  0
VERTEX
  5
29F
  8
ROUTES
 10
67.15298378754268
 20
92.30180602402092
 30
0.0
  0
VERTEX
  5
2A0
  8
ROUTES
 10
67.1670933252134
 20
92.29506804995702
 30
0.0
  0
VERTEX
  5
2A1
  8
ROUTES
 10
67.18095367214842
 20
92.28802610821833
 30
0.0
  0
VERTEX
  5
2A2
  8
ROUTES
 10
67.19455611302511
 20
92.28069213164824
 30
0.0
  0
VERTEX
  5
2A3
  8
ROUTES
 10
67.20789262208031
 20
92.27307831686662
 30
0.0
  0
VERTEX
  5
2A4
  8
ROUTES
 10
67.22095586714768
 20
92.26519707849232
 30
0.0
  0
VERTEX
  5
2A5
  8
ROUTES
 10
67.23373921034393
 20
92.25706100405057
 30
0.0
  0
VERTEX
  5
2A6
  8
ROUTES
 10
67.24623670554509
 20
92.24868280982383
 30
0.0
  0
VERTEX
  5
2A7
  8
ROUTES
 10
67.25844309281685
 20
92.24007529788469
 30
0.0
  0
VERTEX
  5
2A8
  8
ROUTES
 10
67.27035378997796
 20
92.23125131452593
 30
0.0
  0
VERTEX
  5
2A9
  8
ROUTES
 10
67.28196488149048
 20
92.2222237102807
 30
0.0
  0
VERTEX
  5
2AA
  8
ROUTES
 10
67.29327310488135
 20
92.21300530169933
 30
0.0
  0
VERTEX
  5
2AB
  8
ROUTES
 10
67.30427583490969
 20
92.20360883502812
 30
0.0
  0
VERTEX
  5
2AC
  8
ROUTES
 10
67.31497106569687
 20
92.19404695190778
 30
0.0
  0
VERTEX
  5
2AD
  8
ROUTES
 10
67.3253573910422
 20
92.1843321571886
 30
0.0
  0
VERTEX
  5
2AE
  8
ROUTES
 10
67.33543398314477
 20
92.17447678893404
 30
0.0
  0
VERTEX
  5
2AF
  8
ROUTES
 10
70.51043398314478
 20
88.99947678893403
 30
0.0
  0
VERTEX
  5
2B0
  8
ROUTES
 10
70.52028935373274
 20
88.98940019440747
 30
0.0
  0
VERTEX
  5
2B1
  8
ROUTES
 10
70.53000415071541
 20
88.97901386652214
 30
0.0
  0
VERTEX
  5
2B2
  8
ROUTES
 10
70.53956603602036
 20
88.96831863308037
 30
0.0
  0
VERTEX
  5
2B3
  8
ROUTES
 10
70.54896250478829
 20
88.95731590028518
 30
0.0
  0
VERTEX
  5
2B4
  8
ROUTES
 10
70.5581809153693
 20
88.9460076740177
 30
0.0
  0
VERTEX
  5
2B5
  8
ROUTES
 10
70.56720852150808
 20
88.93439657952223
 30
0.0
  0
VERTEX
  5
2B6
  8
ROUTES
 10
70.57603250664478
 20
88.92248587927548
 30
0.0
  0
VERTEX
  5
2B7
  8
ROUTES
 10
70.58464002023727
 20
88.91027948882004
 30
0.0
  0
VERTEX
  5
2B8
  8
ROUTES
 10
70.59301821598343
 20
88.89778199034214
 30
0.0
  0
VERTEX
  5
2B9
  8
ROUTES
 10
70.60115429180179
 20
88.88499864378176
 30
0.0
  0
VERTEX
  5
2BA
  8
ROUTES
 10
70.60903553140106
 20
88.87193539526908
 30
0.0
  0
VERTEX
  5
2BB
  8
ROUTES
 10
70.61664934724725
 20
88.85859888269445
 30
0.0
  0
VERTEX
  5
2BC
  8
ROUTES
 10
70.62398332471328
 20
88.84499643823162
 30
0.0
  0
VERTEX
  5
2BD
  8
ROUTES
 10
70.63102526717121
 20
88.8311360876518
 30
0.0
  0
VERTEX
  5
2BE
  8
ROUTES
 10
70.63776324177014
 20
88.81702654628637
 30
0.0
  0
VERTEX
  5
2BF
  8
ROUTES
 10
70.64418562561845
 20
88.80267721151782
 30
0.0
  0
VERTEX
  5
2C0
  8
ROUTES
 10
70.65028115207612
 20
88.78809815170499
 30
0.0
  0
VERTEX
  5
2C1
  8
ROUTES
 10
70.6560389568448
 20
88.7733000914767
 30
0.0
  0
VERTEX
  5
2C2
  8
ROUTES
 10
70.66144862353333
 20
88.75829439335698
 30
0.0
  0
VERTEX
  5
2C3
  8
ROUTES
 10
70.66650022836633
 20
88.74309303571846
 30
0.0
  0
VERTEX
  5
2C4
  8
ROUTES
 10
70.67118438369995
 20
88.72770858709353
 30
0.0
  0
VERTEX
  5
2C5
  8
ROUTES
 10
70.6754922800052
 20
88.71215417690735
 30
0.0
  0
VERTEX
  5
2C6
  8
ROUTES
 10
70.67941572598387
 20
88.69644346273259
 30
0.0
  0
VERTEX
  5
2C7
  8
ROUTES
 10
70.682947186488
 20
88.68059059420128
 30
0.0
  0
VERTEX
  5
2C8
  8
ROUTES
 10
70.68607981792344
 20
88.66461017374343
 30
0.0
  0
VERTEX
  5
2C9
  8
ROUTES
 10
70.688807500836
 20
88.64851721435724
 30
0.0
  0
VERTEX
  5
2CA
  8
ROUTES
 10
70.6911248693939
 20
88.63232709464785
 30
0.0
  0
VERTEX
  5
2CB
  8
ROUTES
 10
70.69302733750654
 20
88.6160555114019
 30
0.0
  0
VERTEX
  5
2CC
  8
ROUTES
 10
70.6945111213442
 20
88.59971842999408
 30
0.0
  0
VERTEX
  5
2CD
  8
ROUTES
 10
70.69557325805421
 20
88.58333203294632
 30
0.0
  0
VERTEX
  5
2CE
  8
ROUTES
 10
70.69621162050153
 20
88.5669126669817
 30
0.0
  0
VERTEX
  5
2CF
  8
ROUTES
 10
70.69642492789752
 20
79.02547668188103
 30
0.0
  0
VERTEX
  5
2D0
  8
ROUTES
 10
70.69621161735724
 20
79.00904080668104
 30
0.0
  0
VERTEX
  5
2D1
  8
ROUTES
 10
70.69557325197452
 20
78.99262144370891
 30
0.0
  0
VERTEX
  5
2D2
  8
ROUTES
 10
70.69451111254337
 20
78.97623504978719
 30
0.0
  0
VERTEX
  5
2D3
  8
ROUTES
 10
70.69302732620322
 20
78.95989797162733
 30
0.0
  0
VERTEX
  5
2D4
  8
ROUTES
 10
70.69112485581026
 20
78.94362639173929
 30
0.0
  0
VERTEX
  5
2D5
  8
ROUTES
 10
70.68880748519685
 20
78.92743627548558
 30
0.0
  0
VERTEX
  5
2D6
  8
ROUTES
 10
70.68607980045523
 20
78.91134331964054
 30
0.0
  0
VERTEX
  5
2D7
  8
ROUTES
 10
70.68294716741805
 20
78.89536290279696
 30
0.0
  0
VERTEX
  5
2D8
  8
ROUTES
 10
70.67941570553957
 20
78.8795100379406
 30
0.0
  0
VERTEX
  5
2D9
  8
ROUTES
 10
70.67549225841277
 20
78.86379932748926
 30
0.0
  0
VERTEX
  5
2DA
  8
ROUTES
 10
70.67118436118405
 20
78.84824492106264
 30
0.0
  0
VERTEX
  5
2DB
  8
ROUTES
 10
70.66650020514886
 20
78.83286047622155
 30
0.0
  0
VERTEX
  5
2DC
  8
ROUTES
 10
70.66144859983292
 20
78.8176591223793
 30
0.0
  0
VERTEX
  5
2DD
  8
ROUTES
 10
70.65603893287603
 20
78.8026534280568
 30
0.0
  0
VERTEX
  5
2DE
  8
ROUTES
 10
70.65028112804863
 20
78.78785537161568
 30
0.0
  0
VERTEX
  5
2DF
  8
ROUTES
 10
70.64418560173642
 20
78.77327631556929
 30
0.0
  0
VERTEX
  5
2E0
  8
ROUTES
 10
70.63776321823163
 20
78.75892698453615
 30
0.0
  0
VERTEX
  5
2E1
  8
ROUTES
 10
70.6310252441677
 20
78.7448174468654
 30
0.0
  0
VERTEX
  5
2E2
  8
ROUTES
 10
70.62398330242901
 20
78.73095709993038
 30
0.0
  0
VERTEX
  5
2E3
  8
ROUTES
 10
70.616649325859
 20
78.71735465905368
 30
0.0
  0
VERTEX
  5
2E4
  8
ROUTES
 10
70.60903551107732
 20
78.70401814999852
 30
0.0
  0
VERTEX
  5
2E5
  8
ROUTES
 10
70.60115427270303
 20
78.69095490493112
 30
0.0
  0
VERTEX
  5
2E6
  8
ROUTES
 10
70.5930181982613
 20
78.6781715617349
 30
0.0
  0
VERTEX
  5
2E7
  8
ROUTES
 10
70.58464000403457
 20
78.66567406653374
 30
0.0
  0
VERTEX
  5
2E8
  8
ROUTES
 10
70.57603249209542
 20
78.65346767926195
 30
0.0
  0
VERTEX
  5
2E9
  8
ROUTES
 10
70.56720850873667
 20
78.64155698210081
 30
0.0
  0
VERTEX
  5
2EA
  8
ROUTES
 10
70.55818090449141
 20
78.62994589058832
 30
0.0
  0
VERTEX
  5
2EB
  8
ROUTES
 10
70.54896249591009
 20
78.61863766719748
 30
0.0
  0
VERTEX
  5
2EC
  8
ROUTES
 10
70.53956602923883
 20
78.60763493716914
 30
0.0
  0
VERTEX
  5
2ED
  8
ROUTES
 10
70.53000414611849
 20
78.59693970638196
 30
0.0
  0
VERTEX
  5
2EE
  8
ROUTES
 10
70.52028935139931
 20
78.58655338103662
 30
0.0
  0
VERTEX
  5
2EF
  8
ROUTES
 10
67.14929008139133
 20
75.21563198862881
 30
0.0
  0
VERTEX
  5
2F0
  8
ROUTES
 10
70.5104339832463
 20
71.85447678906411
 30
0.0
  0
VERTEX
  5
2F1
  8
ROUTES
 10
70.52028935382891
 20
71.84440019414862
 30
0.0
  0
VERTEX
  5
2F2
  8
ROUTES
 10
70.53000415080625
 20
71.83401386509681
 30
0.0
  0
VERTEX
  5
2F3
  8
ROUTES
 10
70.53956603610597
 20
71.82331862969122
 30
0.0
  0
VERTEX
  5
2F4
  8
ROUTES
 10
70.54896250486878
 20
71.81231589411559
 30
0.0
  0
VERTEX
  5
2F5
  8
ROUTES
 10
70.5581809154448
 20
71.8010076642328
 30
0.0
  0
VERTEX
  5
2F6
  8
ROUTES
 10
70.56720852157862
 20
71.78939656526958
 30
0.0
  0
VERTEX
  5
2F7
  8
ROUTES
 10
70.57603250671049
 20
71.7774858596863
 30
0.0
  0
VERTEX
  5
2F8
  8
ROUTES
 10
70.58464002029827
 20
71.76527946300996
 30
0.0
  0
VERTEX
  5
2F9
  8
ROUTES
 10
70.59301821603988
 20
71.75278195741262
 30
0.0
  0
VERTEX
  5
2FA
  8
ROUTES
 10
70.6011542918538
 20
71.7399986028212
 30
0.0
  0
VERTEX
  5
2FB
  8
ROUTES
 10
70.6090355314487
 20
71.72693534535429
 30
0.0
  0
VERTEX
  5
2FC
  8
ROUTES
 10
70.61664934729085
 20
71.71359882289187
 30
0.0
  0
VERTEX
  5
2FD
  8
ROUTES
 10
70.62398332475284
 20
71.69999636759894
 30
0.0
  0
VERTEX
  5
2FE
  8
ROUTES
 10
70.63102526720691
 20
71.6861360052396
 30
0.0
  0
VERTEX
  5
2FF
  8
ROUTES
 10
70.63776324180215
 20
71.6720264511396
 30
0.0
  0
VERTEX
  5
300
  8
ROUTES
 10
70.64418562564698
 20
71.65767710267752
 30
0.0
  0
VERTEX
  5
301
  8
ROUTES
 10
70.6502811521013
 20
71.64309802821035
 30
0.0
  0
VERTEX
  5
302
  8
ROUTES
 10
70.65603895686685
 20
71.62829995236652
 30
0.0
  0
VERTEX
  5
303
  8
ROUTES
 10
70.66144862355243
 20
71.61329423767171
 30
0.0
  0
VERTEX
  5
304
  8
ROUTES
 10
70.66650022838265
 20
71.59809286250217
 30
0.0
  0
VERTEX
  5
305
  8
ROUTES
 10
70.67118438371376
 20
71.58270839539577
 30
0.0
  0
VERTEX
  5
306
  8
ROUTES
 10
70.67549228001663
 20
71.56715396578508
 30
0.0
  0
VERTEX
  5
307
  8
ROUTES
 10
70.6794157259932
 20
71.5514432312523
 30
0.0
  0
VERTEX
  5
308
  8
ROUTES
 10
70.68294718649533
 20
71.53559034144084
 30
0.0
  0
VERTEX
  5
309
  8
ROUTES
 10
70.68607981792907
 20
71.51960989879407
 30
0.0
  0
VERTEX
  5
30A
  8
ROUTES
 10
70.68880750084016
 20
71.50351691632565
 30
0.0
  0
VERTEX
  5
30B
  8
ROUTES
 10
70.6911248693968
 20
71.48732677265792
 30
0.0
  0
VERTEX
  5
30C
  8
ROUTES
 10
70.69302733750841
 20
71.47105516459678
 30
0.0
  0
VERTEX
  5
30D
  8
ROUTES
 10
70.69451112134523
 20
71.45471805753795
 30
0.0
  0
VERTEX
  5
30E
  8
ROUTES
 10
70.69557325805467
 20
71.43833163402613
 30
0.0
  0
VERTEX
  5
30F
  8
ROUTES
 10
70.69621162050164
 20
71.42191224080904
 30
0.0
  0
VERTEX
  5
310
  8
ROUTES
 10
70.69643398314481
 20
67.59547678893406
 30
0.0
  0
VERTEX
  5
311
  8
ROUTES
 10
70.69627466591056
 20
67.58125330463983
 30
0.0
  0
VERTEX
  5
312
  8
ROUTES
 10
70.69579100443856
 20
67.56690810791306
 30
0.0
  0
VERTEX
  5
313
  8
ROUTES
 10
70.69497463849764
 20
67.55245077337278
 30
0.0
  0
VERTEX
  5
314
  8
ROUTES
 10
70.69381751037277
 20
67.53789142195004
 30
0.0
  0
VERTEX
  5
315
  8
ROUTES
 10
70.69231190281847
 20
67.52324071437155
 30
0.0
  0
VERTEX
  5
316
  8
ROUTES
 10
70.69045047745102
 20
67.50850984181781
 30
0.0
  0
VERTEX
  5
317
  8
ROUTES
 10
70.68822631335708
 20
67.49371051364082
 30
0.0
  0
VERTEX
  5
318
  8
ROUTES
 10
70.6856329456793
 20
67.47885494204931
 30
0.0
  0
VERTEX
  5
319
  8
ROUTES
 10
70.68266440392325
 20
67.46395582368743
 30
0.0
  0
VERTEX
  5
31A
  8
ROUTES
 10
70.6793152497158
 20
67.44902631805527
 30
0.0
  0
VERTEX
  5
31B
  8
ROUTES
 10
70.67558061373394
 20
67.43408002274597
 30
0.0
  0
VERTEX
  5
31C
  8
ROUTES
 10
70.67145623151232
 20
67.41913094549957
 30
0.0
  0
VERTEX
  5
31D
  8
ROUTES
 10
70.66693847783087
 20
67.40419347310396
 30
0.0
  0
VERTEX
  5
31E
  8
ROUTES
 10
70.66202439938122
 20
67.38928233720239
 30
0.0
  0
VERTEX
  5
31F
  8
ROUTES
 10
70.65671174540832
 20
67.37441257709841
 30
0.0
  0
VERTEX
  5
320
  8
ROUTES
 10
70.6509989960277
 20
67.35959949968307
 30
0.0
  0
VERTEX
  5
321
  8
ROUTES
 10
70.6448853879253
 20
67.34485863663937
 30
0.0
  0
VERTEX
  5
322
  8
ROUTES
 10
70.63837093715723
 20
67.33020569911301
 30
0.0
  0
VERTEX
  5
323
  8
ROUTES
 10
70.63145645878036
 20
67.31565653007081
 30
0.0
  0
VERTEX
  5
324
  8
ROUTES
 10
70.62414358306508
 20
67.30122705459686
 30
0.0
  0
VERTEX
  5
325
  8
ROUTES
 10
70.61643476806155
 20
67.28693322840851
 30
0.0
  0
VERTEX
  5
326
  8
ROUTES
 10
70.60833330831748
 20
67.27279098489916
 30
0.0
  0
VERTEX
  5
327
  8
ROUTES
 10
70.5998433395758
 20
67.25881618104015
 30
0.0
  0
VERTEX
  5
328
  8
ROUTES
 10
70.59096983931154
 20
67.24502454249566
 30
0.0
  0
VERTEX
  5
329
  8
ROUTES
 10
70.58171862300368
 20
67.23143160832191
 30
0.0
  0
VERTEX
  5
32A
  8
ROUTES
 10
70.572096336075
 20
67.21805267563477
 30
0.0
  0
VERTEX
  5
32B
  8
ROUTES
 10
70.56211044147354
 20
67.20490274464115
 30
0.0
  0
VERTEX
  5
32C
  8
ROUTES
 10
70.55176920290855
 20
67.19199646443334
 30
0.0
  0
VERTEX
  5
32D
  8
ROUTES
 10
70.54108166379702
 20
67.17934807994496
 30
0.0
  0
VERTEX
  5
32E
  8
ROUTES
 10
70.5300576220185
 20
67.16697138046325
 30
0.0
  0
VERTEX
  5
32F
  8
ROUTES
 10
70.51870760061668
 20
67.15487965008256
 30
0.0
  0
VERTEX
  5
330
  8
ROUTES
 10
64.16864181883246
 20
60.80470087737771
 30
0.0
  0
VERTEX
  5
331
  8
ROUTES
 10
64.16850794487308
 20
58.9687724266398
 30
0.0
 42
-0.7210959659392621
  0
VERTEX
  5
332
  8
ROUTES
 10
63.56373761383181
 20
56.97088878817281
 30
0.0
  0
VERTEX
  5
333
  8
ROUTES
 10
62.80400557413789
 20
55.83159458251404
 30
0.0
  0
VERTEX
  5
334
  8
ROUTES
 10
62.79276461001218
 20
55.81407294767715
 30
0.0
  0
VERTEX
  5
335
  8
ROUTES
 10
62.78091563114613
 20
55.79687304849185
 30
0.0
  0
VERTEX
  5
336
  8
ROUTES
 10
62.76847258669257
 20
55.78002606385164
 30
0.0
  0
VERTEX
  5
337
  8
ROUTES
 10
62.75545153545779
 20
55.76356235457186
 30
0.0
  0
VERTEX
  5
338
  8
ROUTES
 10
62.74187058388465
 20
55.74751128639625
 30
0.0
  0
VERTEX
  5
339
  8
ROUTES
 10
62.72774980632069
 20
55.73190105886155
 30
0.0
  0
VERTEX
  5
33A
  8
ROUTES
 10
62.71311114825228
 20
55.71675854207726
 30
0.0
  0
VERTEX
  5
33B
  8
ROUTES
 10
62.69797831345763
 20
55.7021091233818
 30
0.0
  0
VERTEX
  5
33C
  8
ROUTES
 10
62.68237663628521
 20
55.68797656570254
 30
0.0
  0
VERTEX
  5
33D
  8
ROUTES
 10
62.66633294050071
 20
55.67438287927607
 30
0.0
  0
VERTEX
  5
33E
  8
ROUTES
 10
62.64987538634985
 20
55.66134820817925
 30
0.0
  0
VERTEX
  5
33F
  8
ROUTES
 10
62.63303330765849
 20
55.64889073288944
 30
0.0
  0
VERTEX
  5
340
  8
ROUTES
 10
62.6158370409279
 20
55.63702658983757
 30
0.0
  0
VERTEX
  5
341
  8
ROUTES
 10
62.59831774847886
 20
55.62576980864648
 30
0.0
  0
VERTEX
  5
342
  8
ROUTES
 10
62.5805072377532
 20
55.61513226746703
 30
0.0
  0
VERTEX
  5
343
  8
ROUTES
 10
62.56243777889445
 20
55.6051236665447
 30
0.0
  0
VERTEX
  5
344
  8
ROUTES
 10
62.54414192270072
 20
55.59575151986959
 30
0.0
  0
VERTEX
  5
345
  8
ROUTES
 10
62.52565232097403
 20
55.58702116450146
 30
0.0
  0
VERTEX
  5
346
  8
ROUTES
 10
62.50700155118905
 20
55.57893578690866
 30
0.0
  0
VERTEX
  5
347
  8
ROUTES
 10
62.48822194726456
 20
55.57149646543982
 30
0.0
  0
VERTEX
  5
348
  8
ROUTES
 10
62.46934543806073
 20
55.56470222784188
 30
0.0
  0
VERTEX
  5
349
  8
ROUTES
 10
62.45040339503699
 20
55.55855012257521
 30
0.0
  0
VERTEX
  5
34A
  8
ROUTES
 10
62.43142649030433
 20
55.55303530253482
 30
0.0
  0
VERTEX
  5
34B
  8
ROUTES
 10
62.41244456609105
 20
55.54815111968557
 30
0.0
  0
VERTEX
  5
34C
  8
ROUTES
 10
62.39348651642321
 20
55.54388922904909
 30
0.0
  0
VERTEX
  5
34D
  8
ROUTES
 10
62.37458018160005
 20
55.5402397004419
 30
0.0
  0
VERTEX
  5
34E
  8
ROUTES
 10
62.35575225583291
 20
55.5371911363587
 30
0.0
  0
VERTEX
  5
34F
  8
ROUTES
 10
62.33702820820766
 20
55.53473079441667
 30
0.0
  0
VERTEX
  5
350
  8
ROUTES
 10
62.31843221694096
 20
55.53284471282663
 30
0.0
  0
VERTEX
  5
351
  8
ROUTES
 10
62.29998711672233
 20
55.53151783742621
 30
0.0
  0
VERTEX
  5
352
  8
ROUTES
 10
62.28171435877705
 20
55.53073414890227
 30
0.0
  0
VERTEX
  5
353
  8
ROUTES
 10
53.57974243817917
 20
55.53079244530497
 30
0.0
  0
VERTEX
  5
354
  8
ROUTES
 10
53.52312552811039
 20
55.53079244530494
 30
0.0
 42
-0.0001271073709346
  0
VERTEX
  5
355
  8
ROUTES
 10
51.0397424381792
 20
55.53079244530727
 30
0.0
  0
VERTEX
  5
356
  8
ROUTES
 10
50.98312552811042
 20
55.53079244530497
 30
0.0
  0
VERTEX
  5
357
  8
ROUTES
 10
49.72499810908973
 20
55.53069915460534
 30
0.0
  0
VERTEX
  5
358
  8
ROUTES
 10
49.70857874724562
 20
55.53133751963983
 30
0.0
  0
VERTEX
  5
359
  8
ROUTES
 10
49.69219235441825
 20
55.53239965849284
 30
0.0
  0
VERTEX
  5
35A
  8
ROUTES
 10
49.67585527730257
 20
55.53388344402802
 30
0.0
  0
VERTEX
  5
35B
  8
ROUTES
 10
49.65958369839224
 20
55.53578591339365
 30
0.0
  0
VERTEX
  5
35C
  8
ROUTES
 10
49.64339358303393
 20
55.53810328276299
 30
0.0
  0
VERTEX
  5
35D
  8
ROUTES
 10
49.62730062798677
 20
55.54083096605044
 30
0.0
  0
VERTEX
  5
35E
  8
ROUTES
 10
49.61132021182887
 20
55.54396359743137
 30
0.0
  0
VERTEX
  5
35F
  8
ROUTES
 10
49.59546734753197
 20
55.54749505746034
 30
0.0
  0
VERTEX
  5
360
  8
ROUTES
 10
49.57975663750064
 20
55.5514185025543
 30
0.0
  0
VERTEX
  5
361
  8
ROUTES
 10
49.56420223134235
 20
55.55572639757756
 30
0.0
  0
VERTEX
  5
362
  8
ROUTES
 10
49.54881778660639
 20
55.56041055124624
 30
0.0
  0
VERTEX
  5
363
  8
ROUTES
 10
49.53361643269569
 20
55.56546215404691
 30
0.0
  0
VERTEX
  5
364
  8
ROUTES
 10
49.51861073812178
 20
55.5708718183528
 30
0.0
  0
VERTEX
  5
365
  8
ROUTES
 10
49.50381268123785
 20
55.57662962040686
 30
0.0
  0
VERTEX
  5
366
  8
ROUTES
 10
49.48923362454993
 20
55.58272514383722
 30
0.0
  0
VERTEX
  5
367
  8
ROUTES
 10
49.47488429267038
 20
55.58914752436598
 30
0.0
  0
VERTEX
  5
368
  8
ROUTES
 10
49.46077475394334
 20
55.59588549537429
 30
0.0
  0
VERTEX
  5
369
  8
ROUTES
 10
49.4469144057381
 20
55.60292743399233
 30
0.0
  0
VERTEX
  5
36A
  8
ROUTES
 10
49.43331196337444
 20
55.61026140739145
 30
0.0
  0
VERTEX
  5
36B
  8
ROUTES
 10
49.41997545261371
 20
55.61787521896665
 30
0.0
  0
VERTEX
  5
36C
  8
ROUTES
 10
49.40691220562145
 20
55.62575645411354
 30
0.0
  0
VERTEX
  5
36D
  8
ROUTES
 10
49.39412886028147
 20
55.63389252532144
 30
0.0
  0
VERTEX
  5
36E
  8
ROUTES
 10
49.38163136271892
 20
55.64227071632186
 30
0.0
  0
VERTEX
  5
36F
  8
ROUTES
 10
49.36942497287039
 20
55.65087822505629
 30
0.0
  0
VERTEX
  5
370
  8
ROUTES
 10
49.35751427292026
 20
55.65970220524511
 30
0.0
  0
VERTEX
  5
371
  8
ROUTES
 10
49.34590317841055
 20
55.66872980636842
 30
0.0
  0
VERTEX
  5
372
  8
ROUTES
 10
49.33459495181911
 20
55.67794821188804
 30
0.0
  0
VERTEX
  5
373
  8
ROUTES
 10
49.32359221839245
 20
55.68734467556979
 30
0.0
  0
VERTEX
  5
374
  8
ROUTES
 10
49.31289698401527
 20
55.69690655578412
 30
0.0
  0
VERTEX
  5
375
  8
ROUTES
 10
49.30251065489524
 20
55.70662134769142
 30
0.0
  0
VERTEX
  5
376
  8
ROUTES
 10
49.29243405884053
 20
55.71647671323828
 30
0.0
  0
VERTEX
  5
377
  8
ROUTES
 10
48.0258251516383
 20
56.98308562044051
 30
0.0
 42
-0.2008759561883962
  0
VERTEX
  5
378
  8
ROUTES
 10
47.83643398314481
 20
57.43547678893402
 30
0.0
  0
VERTEX
  5
379
  8
ROUTES
 10
47.8364339831448
 20
58.44227024253067
 30
0.0
 42
-3.146781962845183
  0
VERTEX
  5
37A
  8
ROUTES
 10
49.10643398314406
 20
58.44227024253118
 30
0.0
  0
VERTEX
  5
37B
  8
ROUTES
 10
49.10643398314478
 20
57.69847678893402
 30
0.0
  0
VERTEX
  5
37C
  8
ROUTES
 10
50.00443398314481
 20
56.80047678893405
 30
0.0
  0
VERTEX
  5
37D
  8
ROUTES
 10
50.37625843081555
 20
56.80047678893405
 30
0.0
  0
VERTEX
  5
37E
  8
ROUTES
 10
50.3764120310188
 20
58.44228576230315
 30
0.0
 42
-3.146715351011927
  0
VERTEX
  5
37F
  8
ROUTES
 10
51.64643398314404
 20
58.44227024253117
 30
0.0
  0
VERTEX
  5
380
  8
ROUTES
 10
51.6464339831448
 20
56.80047678893405
 30
0.0
  0
VERTEX
  5
381
  8
ROUTES
 10
52.91656138158386
 20
56.80047678893405
 30
0.0
  0
VERTEX
  5
382
  8
ROUTES
 10
52.91644991476694
 20
58.44225897965381
 30
0.0
 42
-3.146830306862161
  0
VERTEX
  5
383
  8
ROUTES
 10
54.18643398314408
 20
58.44227024253119
 30
0.0
  0
VERTEX
  5
384
  8
ROUTES
 10
54.18643398314482
 20
56.80047678893405
 30
0.0
  0
VERTEX
  5
385
  8
ROUTES
 10
61.92376731647813
 20
56.80047678893405
 30
0.0
  0
VERTEX
  5
386
  8
ROUTES
 10
62.50703755579771
 20
57.67538214791344
 30
0.0
 42
-0.3433066401077169
  0
VERTEX
  5
387
  8
ROUTES
 10
62.89863455668141
 20
58.96868374080597
 30
0.0
  0
VERTEX
  5
388
  8
ROUTES
 10
62.89885634982251
 20
61.08411277207725
 30
0.0
  0
VERTEX
  5
389
  8
ROUTES
 10
62.89949471787391
 20
61.10053213771809
 30
0.0
  0
VERTEX
  5
38A
  8
ROUTES
 10
62.90055686174703
 20
61.11691853608173
 30
0.0
  0
VERTEX
  5
38B
  8
ROUTES
 10
62.90204065429334
 20
61.13325562044778
 30
0.0
  0
VERTEX
  5
38C
  8
ROUTES
 10
62.90394313264444
 20
61.14952720829396
 30
0.0
  0
VERTEX
  5
38D
  8
ROUTES
 10
62.9062605129521
 20
61.16571733424186
 30
0.0
  0
VERTEX
  5
38E
  8
ROUTES
 10
62.90898820910475
 20
61.18181030149796
 30
0.0
  0
VERTEX
  5
38F
  8
ROUTES
 10
62.91212085524747
 20
61.1977907314471
 30
0.0
  0
VERTEX
  5
390
  8
ROUTES
 10
62.91565233190029
 20
61.21364361107774
 30
0.0
  0
VERTEX
  5
391
  8
ROUTES
 10
62.91957579544165
 20
61.2293543379437
 30
0.0
  0
VERTEX
  5
392
  8
ROUTES
 10
62.9238837106936
 20
61.24490876239352
 30
0.0
  0
VERTEX
  5
393
  8
ROUTES
 10
62.92856788632641
 20
61.26029322683226
 30
0.0
  0
VERTEX
  5
394
  8
ROUTES
 10
62.93361951277747
 20
61.2754946018097
 30
0.0
  0
VERTEX
  5
395
  8
ROUTES
 10
62.93902920236776
 20
61.2905003187656
 30
0.0
  0
VERTEX
  5
396
  8
ROUTES
 10
62.9447870312854
 20
61.3052983992969
 30
0.0
  0
VERTEX
  5
397
  8
ROUTES
 10
62.95088258310092
 20
61.3198774808466
 30
0.0
  0
VERTEX
  5
398
  8
ROUTES
 10
62.95730499347668
 20
61.33422683875077
 30
0.0
  0
VERTEX
  5
399
  8
ROUTES
 10
62.96404299573216
 20
61.34833640461304
 30
0.0
  0
VERTEX
  5
39A
  8
ROUTES
 10
62.97108496693438
 20
61.36219678101159
 30
0.0
  0
VERTEX
  5
39B
  8
ROUTES
 10
62.97841897418989
 20
61.37579925257378
 30
0.0
  0
VERTEX
  5
39C
  8
ROUTES
 10
62.98603282082799
 20
61.38913579348539
 30
0.0
  0
VERTEX
  5
39D
  8
ROUTES
 10
62.99391409217777
 20
61.40219907152832
 30
0.0
  0
VERTEX
  5
39E
  8
ROUTES
 10
63.00205020066137
 20
61.41498244876632
 30
0.0
  0
VERTEX
  5
39F
  8
ROUTES
 10
63.01042842994305
 20
61.42747997902242
 30
0.0
  0
VERTEX
  5
3A0
  8
ROUTES
 10
63.01903597789671
 20
61.43968640230869
 30
0.0
  0
VERTEX
  5
3A1
  8
ROUTES
 10
63.02785999817583
 20
61.45159713639018
 30
0.0
  0
VERTEX
  5
3A2
  8
ROUTES
 10
63.03688764019348
 20
61.46320826567504
 30
0.0
  0
VERTEX
  5
3A3
  8
ROUTES
 10
63.04610608734568
 20
61.47451652763678
 30
0.0
  0
VERTEX
  5
3A4
  8
ROUTES
 10
63.0555025933328
 20
61.48551929698098
 30
0.0
  0
VERTEX
  5
3A5
  8
ROUTES
 10
63.06506451646125
 20
61.49621456777632
 30
0.0
  0
VERTEX
  5
3A6
  8
ROUTES
 10
63.07477935182841
 20
61.50660093376959
 30
0.0
  0
VERTEX
  5
3A7
  8
ROUTES
 10
63.08463476131915
 20
61.51667756710842
 30
0.0
  0
VERTEX
  5
3A8
  8
ROUTES
 10
69.42643398314478
 20
67.85847678893404
 30
0.0
  0
VERTEX
  5
3A9
  8
ROUTES
 10
69.42643398314478
 20
71.14247678893403
 30
0.0
  0
VERTEX
  5
3AA
  8
ROUTES
 10
65.98843398314479
 20
74.58047678893402
 30
0.0
  0
VERTEX
  5
3AB
  8
ROUTES
 10
32.85943398314483
 20
74.58047678893402
 30
0.0
  0
VERTEX
  5
3AC
  8
ROUTES
 10
31.32643398314481
 20
73.04747678893406
 30
0.0
  0
VERTEX
  5
3AD
  8
ROUTES
 10
31.32643398314481
 20
71.68768333533748
 30
0.0
 42
-0.2435012436059278
  0
VERTEX
  5
3AE
  8
ROUTES
 10
31.79143398314476
 20
70.78947678893402
 30
0.0
  0
VERTEX
  5
3AF
  8
ROUTES
 10
31.79143398314478
 20
69.48147697445418
 30
0.0
 42
-0.2435012882701007
  0
VERTEX
  5
3B0
  8
ROUTES
 10
31.32643398314403
 20
68.58327024253117
 30
0.0
  0
VERTEX
  5
3B1
  8
ROUTES
 10
31.32643398314481
 20
67.85847678893404
 30
0.0
  0
VERTEX
  5
3B2
  8
ROUTES
 10
32.41029699004805
 20
66.7746137820308
 30
0.0
  0
VERTEX
  5
3B3
  8
ROUTES
 10
32.59643398314479
 20
66.79047678893399
 30
0.0
 42
-0.7314970676326462
  0
VERTEX
  5
3B4
  8
ROUTES
 10
33.23142784697743
 20
64.79226590451165
 30
0.0
  0
VERTEX
  5
3B5
  8
ROUTES
 10
33.23127466591059
 20
60.59625330463982
 30
0.0
  0
VERTEX
  5
3B6
  8
ROUTES
 10
33.23079100443859
 20
60.58190810791305
 30
0.0
  0
VERTEX
  5
3B7
  8
ROUTES
 10
33.22997463849767
 20
60.56745077337288
 30
0.0
  0
VERTEX
  5
3B8
  8
ROUTES
 10
33.22881751037279
 20
60.55289142195008
 30
0.0
  0
VERTEX
  5
3B9
  8
ROUTES
 10
33.2273119028185
 20
60.53824071437165
 30
0.0
  0
VERTEX
  5
3BA
  8
ROUTES
 10
33.22545047745099
 20
60.52350984181791
 30
0.0
  0
VERTEX
  5
3BB
  8
ROUTES
 10
33.22322631335705
 20
60.50871051364086
 30
0.0
  0
VERTEX
  5
3BC
  8
ROUTES
 10
33.22063294567933
 20
60.49385494204935
 30
0.0
  0
VERTEX
  5
3BD
  8
ROUTES
 10
33.21766440392328
 20
60.47895582368741
 30
0.0
  0
VERTEX
  5
3BE
  8
ROUTES
 10
33.21431524971577
 20
60.46402631805526
 30
0.0
  0
VERTEX
  5
3BF
  8
ROUTES
 10
33.21058061373397
 20
60.44908002274596
 30
0.0
  0
VERTEX
  5
3C0
  8
ROUTES
 10
33.20645623151229
 20
60.43413094549956
 30
0.0
  0
VERTEX
  5
3C1
  8
ROUTES
 10
33.20193847783089
 20
60.419193473104
 30
0.0
  0
VERTEX
  5
3C2
  8
ROUTES
 10
33.19702439938125
 20
60.40428233720237
 30
0.0
  0
VERTEX
  5
3C3
  8
ROUTES
 10
33.19171174540834
 20
60.3894125770984
 30
0.0
  0
VERTEX
  5
3C4
  8
ROUTES
 10
33.18599899602766
 20
60.37459949968311
 30
0.0
  0
VERTEX
  5
3C5
  8
ROUTES
 10
33.17988538792532
 20
60.35985863663936
 30
0.0
  0
VERTEX
  5
3C6
  8
ROUTES
 10
33.1733709371572
 20
60.345205699113
 30
0.0
  0
VERTEX
  5
3C7
  8
ROUTES
 10
33.16645645878033
 20
60.3306565300708
 30
0.0
  0
VERTEX
  5
3C8
  8
ROUTES
 10
33.1591435830651
 20
60.31622705459685
 30
0.0
  0
VERTEX
  5
3C9
  8
ROUTES
 10
33.15143476806158
 20
60.3019332284085
 30
0.0
  0
VERTEX
  5
3CA
  8
ROUTES
 10
33.14333330831751
 20
60.28779098489915
 30
0.0
  0
VERTEX
  5
3CB
  8
ROUTES
 10
33.13484333957582
 20
60.27381618104008
 30
0.0
  0
VERTEX
  5
3CC
  8
ROUTES
 10
33.12596983931157
 20
60.26002454249564
 30
0.0
  0
VERTEX
  5
3CD
  8
ROUTES
 10
33.11671862300371
 20
60.2464316083219
 30
0.0
  0
VERTEX
  5
3CE
  8
ROUTES
 10
33.10709633607503
 20
60.23305267563475
 30
0.0
  0
VERTEX
  5
3CF
  8
ROUTES
 10
33.09711044147356
 20
60.21990274464113
 30
0.0
  0
VERTEX
  5
3D0
  8
ROUTES
 10
33.08676920290857
 20
60.20699646443333
 30
0.0
  0
VERTEX
  5
3D1
  8
ROUTES
 10
33.07608166379704
 20
60.19434807994494
 30
0.0
  0
VERTEX
  5
3D2
  8
ROUTES
 10
33.06505762201853
 20
60.1819713804633
 30
0.0
  0
VERTEX
  5
3D3
  8
ROUTES
 10
33.0537076006167
 20
60.16987965008255
 30
0.0
  0
VERTEX
  5
3D4
  8
ROUTES
 10
33.04204281462604
 20
60.1580856204682
 30
0.0
  0
VERTEX
  5
3D5
  8
ROUTES
 10
31.7914339831507
 20
58.90747678894613
 30
0.0
  0
VERTEX
  5
3D6
  8
ROUTES
 10
31.79143398314473
 20
57.94347660345849
 30
0.0
 42
-0.9999999139654062
  0
VERTEX
  5
3D7
  8
ROUTES
 10
29.59143398314485
 20
57.94347678513343
 30
0.0
  0
VERTEX
  5
3D8
  8
ROUTES
 10
29.59143398314484
 20
59.46747679272769
 30
0.0
 42
-0.6369754629697459
  0
VERTEX
  5
3D9
  8
ROUTES
 10
31.39827332133044
 20
60.31031612711973
 30
0.0
  0
VERTEX
  5
3DA
  8
ROUTES
 10
31.9614339831448
 20
60.87347678893403
 30
0.0
  0
VERTEX
  5
3DB
  8
ROUTES
 10
31.9614339831448
 20
64.79227024253068
 30
0.0
 42
-0.2890287574718686
  0
VERTEX
  5
3DC
  8
ROUTES
 10
31.51229699004805
 20
65.87661378203076
 30
0.0
  0
VERTEX
  5
3DD
  8
ROUTES
 10
30.24582515163696
 20
67.14308562044184
 30
0.0
 42
-0.200875956187659
  0
VERTEX
  5
3DE
  8
ROUTES
 10
30.05643398314476
 20
67.59547678893402
 30
0.0
  0
VERTEX
  5
3DF
  8
ROUTES
 10
30.05643398314478
 20
68.58327024253065
 30
0.0
 42
-0.2435012786992015
  0
VERTEX
  5
3E0
  8
ROUTES
 10
29.59143398314479
 20
69.48147697445417
 30
0.0
  0
VERTEX
  5
3E1
  8
ROUTES
 10
29.59143398314479
 20
70.78947678893402
 30
0.0
 42
-0.2435259932474628
  0
VERTEX
  5
3E2
  8
ROUTES
 10
30.05651792932623
 20
71.68774267641051
 30
0.0
  0
VERTEX
  5
3E3
  8
ROUTES
 10
30.05643398314472
 20
73.31047678893404
 30
0.0
 42
-0.2008759562274907
  0
VERTEX
  5
3E4
  8
ROUTES
 10
30.24582515166371
 20
73.76286795740009
 30
0.0
  0
VERTEX
  5
3E5
  8
ROUTES
 10
32.14404281465296
 20
75.66108562044221
 30
0.0
 42
-0.2008759561874914
  0
VERTEX
  5
3E6
  8
ROUTES
 10
32.59643398314477
 20
75.85047678893406
 30
0.0
  0
VERTEX
  5
3E7
  8
ROUTES
 10
65.98843398314479
 20
75.85047678893406
 30
0.0
  0
VERTEX
  5
3E8
  8
ROUTES
 10
69.42643398314478
 20
79.28847678893405
 30
0.0
  0
VERTEX
  5
3E9
  8
ROUTES
 10
69.42643398314478
 20
88.28747678893404
 30
0.0
  0
VERTEX
  5
3EA
  8
ROUTES
 10
66.62343398314478
 20
91.09047678893407
 30
0.0
  0
VERTEX
  5
3EB
  8
ROUTES
 10
63.54143398314478
 20
91.09047678893404
 30
0.0
  0
VERTEX
  5
3EC
  8
ROUTES
 10
63.54143398314474
 20
90.78567697438211
 30
0.0
 42
-1.000000168589175
  0
VERTEX
  5
3ED
  8
ROUTES
 10
61.34143398314479
 20
90.78567697438211
 30
0.0
  0
VERTEX
  5
3EE
  8
ROUTES
 10
61.34143398314478
 20
92.66527660342669
 30
0.0
 42
-1.000000084321538
  0
VERTEX
  5
3EF
  8
ROUTES
 10
63.5414337208843
 20
92.6652766034267
 30
0.0
  0
VERTEX
  5
3F0
  8
ROUTES
 10
63.54143398314478
 20
92.36047623438205
 30
0.0
  0
SEQEND
  5
3F1
  8
ROUTES
  0
POLYLINE
  5
3F2
  8
ROUTES
 66
     1
 10
0.0
 20
0.0
 30
0.0
  0
VERTEX
  5
3F3
  8
ROUTES
 10
55.92143398314478
 20
92.66527678893405
 30
0.0
  0
VERTEX
  5
3F4
  8
ROUTES
 10
55.92143398314472
 20
90.78567697447113
 30
0.0
 42
-1.000000168670115
  0
VERTEX
  5
3F5
  8
ROUTES
 10
53.72143398314486
 20
90.78567697447114
 30
0.0
  0
VERTEX
  5
3F6
  8
ROUTES
 10
53.72143398314479
 20
91.09047678893404
 30
0.0
  0
VERTEX
  5
3F7
  8
ROUTES
 10
51.90943398314478
 20
91.09047678893404
 30
0.0
  0
VERTEX
  5
3F8
  8
ROUTES
 10
49.10643398314478
 20
88.28747678893407
 30
0.0
  0
VERTEX
  5
3F9
  8
ROUTES
 10
49.10643398314478
 20
86.92768333533743
 30
0.0
 42
-0.2435015583340283
  0
VERTEX
  5
3FA
  8
ROUTES
 10
49.5714337208843
 20
86.0294766034542
 30
0.0
  0
VERTEX
  5
3FB
  8
ROUTES
 10
49.57143372088428
 20
84.72147697438072
 30
0.0
 42
-1.000000287797233
  0
VERTEX
  5
3FC
  8
ROUTES
 10
47.37143398314483
 20
84.7214769743807
 30
0.0
  0
VERTEX
  5
3FD
  8
ROUTES
 10
47.37143398314482
 20
86.02947660345421
 30
0.0
 42
-0.2435012787000415
  0
VERTEX
  5
3FE
  8
ROUTES
 10
47.83643398314552
 20
86.92768333533691
 30
0.0
  0
VERTEX
  5
3FF
  8
ROUTES
 10
47.8364339831448
 20
88.55047678893405
 30
0.0
 42
-0.2008759562278223
  0
VERTEX
  5
400
  8
ROUTES
 10
48.02582515166412
 20
89.00286795740045
 30
0.0
  0
VERTEX
  5
401
  8
ROUTES
 10
51.19404281465206
 20
92.17108562044129
 30
0.0
 42
-0.2008759561880627
  0
VERTEX
  5
402
  8
ROUTES
 10
51.64643398314479
 20
92.36047678893406
 30
0.0
  0
VERTEX
  5
403
  8
ROUTES
 10
53.72143398314479
 20
92.36047678893405
 30
0.0
  0
VERTEX
  5
404
  8
ROUTES
 10
53.72143398314478
 20
92.66527678893405
 30
0.0
 42
-1.00000000000001
  0
VERTEX
  5
405
  8
ROUTES
 10
55.92143398314482
 20
92.665276788934
 30
0.0
  0
SEQEND
  5
406
  8
ROUTES
  0
POLYLINE
  5
407
  8
ROUTES
 66
     1
 10
0.0
 20
0.0
 30
0.0
  0
VERTEX
  5
408
  8
ROUTES
 10
58.4614339831448
 20
92.66527656486826
 30
0.0
  0
VERTEX
  5
409
  8
ROUTES
 10
58.46143372088434
 20
90.78567660347531
 30
0.0
 42
-0.243503775180163
  0
VERTEX
  5
40A
  8
ROUTES
 10
57.99642555353889
 20
89.88746428316023
 30
0.0
 42
-0.2201666872704749
  0
VERTEX
  5
40B
  8
ROUTES
 10
57.81043398314478
 20
89.37147678893406
 30
0.0
  0
VERTEX
  5
40C
  8
ROUTES
 10
56.54043398314475
 20
88.10147678893404
 30
0.0
  0
VERTEX
  5
40D
  8
ROUTES
 10
56.53035738823617
 20
88.09162141834608
 30
0.0
  0
VERTEX
  5
40E
  8
ROUTES
 10
56.51997105919118
 20
88.08190662136343
 30
0.0
  0
VERTEX
  5
40F
  8
ROUTES
 10
56.50927582379229
 20
88.07234473605845
 30
0.0
  0
VERTEX
  5
410
  8
ROUTES
 10
56.4982730882232
 20
88.06294826729052
 30
0.0
  0
VERTEX
  5
411
  8
ROUTES
 10
56.48696485834689
 20
88.05372985670948
 30
0.0
  0
VERTEX
  5
412
  8
ROUTES
 10
56.47535375938999
 20
88.04470225057077
 30
0.0
  0
VERTEX
  5
413
  8
ROUTES
 10
56.46344305381281
 20
88.03587826543404
 30
0.0
  0
VERTEX
  5
414
  8
ROUTES
 10
56.4512366571425
 20
88.02727075184157
 30
0.0
  0
VERTEX
  5
415
  8
ROUTES
 10
56.43873915155105
 20
88.01889255609538
 30
0.0
  0
VERTEX
  5
416
  8
ROUTES
 10
56.42595579696537
 20
88.010756480277
 30
0.0
  0
VERTEX
  5
417
  8
ROUTES
 10
56.41289253950391
 20
88.00287524067775
 30
0.0
  0
VERTEX
  5
418
  8
ROUTES
 10
56.39955601704681
 20
87.99526142483151
 30
0.0
  0
VERTEX
  5
419
  8
ROUTES
 10
56.38595356175905
 20
87.98792744736554
 30
0.0
  0
VERTEX
  5
41A
  8
ROUTES
 10
56.37209319940463
 20
87.98088550490758
 30
0.0
  0
VERTEX
  5
41B
  8
ROUTES
 10
56.35798364530929
 20
87.97414753030867
 30
0.0
  0
VERTEX
  5
41C
  8
ROUTES
 10
56.34363429685176
 20
87.96772514646037
 30
0.0
  0
VERTEX
  5
41D
  8
ROUTES
 10
56.32905522238879
 20
87.9616296200027
 30
0.0
  0
VERTEX
  5
41E
  8
ROUTES
 10
56.314257146549
 20
87.95587181523402
 30
0.0
  0
VERTEX
  5
41F
  8
ROUTES
 10
56.29925143185802
 20
87.95046214854548
 30
0.0
  0
VERTEX
  5
420
  8
ROUTES
 10
56.28405005669204
 20
87.94541054371248
 30
0.0
  0
VERTEX
  5
421
  8
ROUTES
 10
56.26866558958888
 20
87.94072638837886
 30
0.0
  0
VERTEX
  5
422
  8
ROUTES
 10
56.2531111599812
 20
87.93641849207361
 30
0.0
  0
VERTEX
  5
423
  8
ROUTES
 10
56.23740042545116
 20
87.93249504609491
 30
0.0
  0
VERTEX
  5
424
  8
ROUTES
 10
56.22154753564213
 20
87.92896358559085
 30
0.0
  0
VERTEX
  5
425
  8
ROUTES
 10
56.20556709299758
 20
87.9258309541554
 30
0.0
  0
VERTEX
  5
426
  8
ROUTES
 10
56.18947411053109
 20
87.92310327124281
 30
0.0
  0
VERTEX
  5
427
  8
ROUTES
 10
56.17328396686499
 20
87.92078590268491
 30
0.0
  0
VERTEX
  5
428
  8
ROUTES
 10
56.15701235880518
 20
87.91888343457228
 30
0.0
  0
VERTEX
  5
429
  8
ROUTES
 10
56.14067525174734
 20
87.91739965073461
 30
0.0
  0
VERTEX
  5
42A
  8
ROUTES
 10
56.12428882823629
 20
87.9163375140246
 30
0.0
  0
VERTEX
  5
42B
  8
ROUTES
 10
56.10786943501962
 20
87.91569915157726
 30
0.0
  0
VERTEX
  5
42C
  8
ROUTES
 10
52.54443398314477
 20
87.91547678893406
 30
0.0
  0
VERTEX
  5
42D
  8
ROUTES
 10
51.6464339831448
 20
87.01747678893406
 30
0.0
  0
VERTEX
  5
42E
  8
ROUTES
 10
51.6464339831448
 20
86.92768333533743
 30
0.0
 42
-0.2435011510274587
  0
VERTEX
  5
42F
  8
ROUTES
 10
52.11143398314475
 20
86.02947681847694
 30
0.0
  0
VERTEX
  5
430
  8
ROUTES
 10
52.11143398314479
 20
84.72147697438041
 30
0.0
 42
-1.00000016858765
  0
VERTEX
  5
431
  8
ROUTES
 10
49.91143398314478
 20
84.72147697438041
 30
0.0
  0
VERTEX
  5
432
  8
ROUTES
 10
49.91143398314485
 20
86.02947697440271
 30
0.0
 42
-0.2435011525293357
  0
VERTEX
  5
433
  8
ROUTES
 10
50.37643398314552
 20
86.92768333533692
 30
0.0
  0
VERTEX
  5
434
  8
ROUTES
 10
50.37643398314477
 20
87.28047678893404
 30
0.0
 42
-0.2008759562280281
  0
VERTEX
  5
435
  8
ROUTES
 10
50.56582515166446
 20
87.73286795740086
 30
0.0
  0
VERTEX
  5
436
  8
ROUTES
 10
51.83243398314478
 20
88.99947678893403
 30
0.0
  0
VERTEX
  5
437
  8
ROUTES
 10
51.84251057805336
 20
89.00933215952202
 30
0.0
  0
VERTEX
  5
438
  8
ROUTES
 10
51.85289690709841
 20
89.01904695650464
 30
0.0
  0
VERTEX
  5
439
  8
ROUTES
 10
51.8635921424973
 20
89.02860884180961
 30
0.0
  0
VERTEX
  5
43A
  8
ROUTES
 10
51.87459487806639
 20
89.03800531057755
 30
0.0
  0
VERTEX
  5
43B
  8
ROUTES
 10
51.8859031079427
 20
89.04722372115859
 30
0.0
  0
VERTEX
  5
43C
  8
ROUTES
 10
51.8975142068996
 20
89.0562513272973
 30
0.0
  0
VERTEX
  5
43D
  8
ROUTES
 10
51.90942491247672
 20
89.06507531243403
 30
0.0
  0
VERTEX
  5
43E
  8
ROUTES
 10
51.92163130914703
 20
89.0736828260265
 30
0.0
  0
VERTEX
  5
43F
  8
ROUTES
 10
51.93412881473849
 20
89.08206102177272
 30
0.0
  0
VERTEX
  5
440
  8
ROUTES
 10
51.94691216932422
 20
89.09019709759107
 30
0.0
  0
VERTEX
  5
441
  8
ROUTES
 10
51.95997542678568
 20
89.09807833719029
 30
0.0
  0
VERTEX
  5
442
  8
ROUTES
 10
51.97331194924273
 20
89.10569215303653
 30
0.0
  0
VERTEX
  5
443
  8
ROUTES
 10
51.98691440453054
 20
89.1130261305025
 30
0.0
  0
VERTEX
  5
444
  8
ROUTES
 10
52.00077476688496
 20
89.12006807296046
 30
0.0
  0
VERTEX
  5
445
  8
ROUTES
 10
52.0148843209803
 20
89.1268060475594
 30
0.0
  0
VERTEX
  5
446
  8
ROUTES
 10
52.02923366943783
 20
89.1332284314077
 30
0.0
  0
VERTEX
  5
447
  8
ROUTES
 10
52.04381274390074
 20
89.13932395786537
 30
0.0
  0
VERTEX
  5
448
  8
ROUTES
 10
52.05861081974054
 20
89.14508176263408
 30
0.0
  0
VERTEX
  5
449
  8
ROUTES
 10
52.07361653443157
 20
89.15049142932256
 30
0.0
  0
VERTEX
  5
44A
  8
ROUTES
 10
52.08881790959755
 20
89.15554303415561
 30
0.0
  0
VERTEX
  5
44B
  8
ROUTES
 10
52.10420237670071
 20
89.16022718948923
 30
0.0
  0
VERTEX
  5
44C
  8
ROUTES
 10
52.11975680630839
 20
89.16453508579445
 30
0.0
  0
VERTEX
  5
44D
  8
ROUTES
 10
52.13546754083843
 20
89.16845853177318
 30
0.0
  0
VERTEX
  5
44E
  8
ROUTES
 10
52.1513204306474
 20
89.17198999227722
 30
0.0
  0
VERTEX
  5
44F
  8
ROUTES
 10
52.16730087329201
 20
89.1751226237127
 30
0.0
  0
VERTEX
  5
450
  8
ROUTES
 10
52.1833938557585
 20
89.17785030662526
 30
0.0
  0
VERTEX
  5
451
  8
ROUTES
 10
52.1995839994246
 20
89.18016767518316
 30
0.0
  0
VERTEX
  5
452
  8
ROUTES
 10
52.21585560748441
 20
89.18207014329579
 30
0.0
  0
VERTEX
  5
453
  8
ROUTES
 10
52.23219271454225
 20
89.18355392713343
 30
0.0
  0
VERTEX
  5
454
  8
ROUTES
 10
52.2485791380533
 20
89.18461606384349
 30
0.0
  0
VERTEX
  5
455
  8
ROUTES
 10
52.26499853126997
 20
89.18525442629084
 30
0.0
  0
VERTEX
  5
456
  8
ROUTES
 10
55.82843398314476
 20
89.18547678893404
 30
0.0
  0
VERTEX
  5
457
  8
ROUTES
 10
56.61794258568884
 20
89.97498539147814
 30
0.0
 42
-0.2101671337309877
  0
VERTEX
  5
458
  8
ROUTES
 10
56.26143398314482
 20
90.78567682754111
 30
0.0
  0
VERTEX
  5
459
  8
ROUTES
 10
56.26143424540521
 20
92.66527678893405
 30
0.0
 42
-1.00000038964487
  0
VERTEX
  5
45A
  8
ROUTES
 10
58.46143398314479
 20
92.66527656486825
 30
0.0
  0
SEQEND
  5
45B
  8
ROUTES
  0
CIRCLE
  5
45D
  8
DRILL
 10
-56.0914339831448
 20
59.34047678893407
 30
0.0
 40
0.5
210
0.0
220
0.0
230
-1.0
  0
CIRCLE
  5
45E
  8
DRILL
 10
-56.0914339831448
 20
61.88047678893403
 30
0.0
 40
0.5
210
0.0
220
0.0
230
-1.0
  0
CIRCLE
  5
45F
  8
DRILL
 10
-53.55143398314478
 20
59.34047678893407
 30
0.0
 40
0.5
210
0.0
220
0.0
230
-1.0
  0
CIRCLE
  5
460
  8
DRILL
 10
-53.55143398314478
 20
61.88047678893403
 30
0.0
 40
0.5
210
0.0
220
0.0
230
-1.0
  0
CIRCLE
  5
461
  8
DRILL
 10
-51.01143398314476
 20
59.34047678893407
 30
0.0
 40
0.5
210
0.0
220
0.0
230
-1.0
  0
CIRCLE
  5
462
  8
DRILL
 10
-51.01143398314476
 20
61.88047678893403
 30
0.0
 40
0.5
210
0.0
220
0.0
230
-1.0
  0
CIRCLE
  5
463
  8
DRILL
 10
-48.47143398314479
 20
59.34047678893407
 30
0.0
 40
0.5
210
0.0
220
0.0
230
-1.0
  0
CIRCLE
  5
464
  8
DRILL
 10
-48.47143398314479
 20
61.88047678893403
 30
0.0
 40
0.5
210
0.0
220
0.0
230
-1.0
  0
CIRCLE
  5
465
  8
DRILL
 10
-45.93143398314477
 20
59.34047678893407
 30
0.0
 40
0.5
210
0.0
220
0.0
230
-1.0
  0
CIRCLE
  5
466
  8
DRILL
 10
-45.93143398314477
 20
61.88047678893403
 30
0.0
 40
0.5
210
0.0
220
0.0
230
-1.0
  0
CIRCLE
  5
467
  8
DRILL
 10
-43.39143398314481
 20
59.34047678893407
 30
0.0
 40
0.5
210
0.0
220
0.0
230
-1.0
  0
CIRCLE
  5
468
  8
DRILL
 10
-43.39143398314481
 20
61.88047678893403
 30
0.0
 40
0.5
210
0.0
220
0.0
230
-1.0
  0
CIRCLE
  5
469
  8
DRILL
 10
-40.85143398314479
 20
59.34047678893407
 30
0.0
 40
0.5
210
0.0
220
0.0
230
-1.0
  0
CIRCLE
  5
46A
  8
DRILL
 10
-40.85143398314479
 20
61.88047678893403
 30
0.0
 40
0.5
210
0.0
220
0.0
230
-1.0
  0
CIRCLE
  5
46B
  8
DRILL
 10
-30.69143398314476
 20
85.37547678893404
 30
0.0
 40
0.4
210
0.0
220
0.0
230
-1.0
  0
CIRCLE
  5
46C
  8
DRILL
 10
-33.23143398314478
 20
85.37547678893404
 30
0.0
 40
0.4
210
0.0
220
0.0
230
-1.0
  0
CIRCLE
  5
46D
  8
DRILL
 10
-35.7714339831448
 20
85.37547678893404
 30
0.0
 40
0.4
210
0.0
220
0.0
230
-1.0
  0
CIRCLE
  5
46E
  8
DRILL
 10
-35.7714339831448
 20
70.13547678893403
 30
0.0
 40
0.4
210
0.0
220
0.0
230
-1.0
  0
CIRCLE
  5
46F
  8
DRILL
 10
-30.69143398314476
 20
70.13547678893403
 30
0.0
 40
0.4
210
0.0
220
0.0
230
-1.0
  0
CIRCLE
  5
470
  8
DRILL
 10
-38.31143398314477
 20
85.37547678893404
 30
0.0
 40
0.4
210
0.0
220
0.0
230
-1.0
  0
CIRCLE
  5
471
  8
DRILL
 10
-33.23143398314478
 20
70.13547678893403
 30
0.0
 40
0.4
210
0.0
220
0.0
230
-1.0
  0
CIRCLE
  5
472
  8
DRILL
 10
-66.25143398314476
 20
70.13547678893403
 30
0.0
 40
0.4
210
0.0
220
0.0
230
-1.0
  0
CIRCLE
  5
473
  8
DRILL
 10
-66.25143398314476
 20
85.37547678893404
 30
0.0
 40
0.4
210
0.0
220
0.0
230
-1.0
  0
CIRCLE
  5
474
  8
DRILL
 10
-63.7114339831448
 20
85.37547678893404
 30
0.0
 40
0.4
210
0.0
220
0.0
230
-1.0
  0
CIRCLE
  5
475
  8
DRILL
 10
-61.17143398314478
 20
85.37547678893404
 30
0.0
 40
0.4
210
0.0
220
0.0
230
-1.0
  0
CIRCLE
  5
476
  8
DRILL
 10
-58.63143398314476
 20
85.37547678893404
 30
0.0
 40
0.4
210
0.0
220
0.0
230
-1.0
  0
CIRCLE
  5
477
  8
DRILL
 10
-56.0914339831448
 20
85.37547678893404
 30
0.0
 40
0.4
210
0.0
220
0.0
230
-1.0
  0
CIRCLE
  5
478
  8
DRILL
 10
-53.55143398314478
 20
85.37547678893404
 30
0.0
 40
0.4
210
0.0
220
0.0
230
-1.0
  0
CIRCLE
  5
479
  8
DRILL
 10
-51.01143398314476
 20
85.37547678893404
 30
0.0
 40
0.4
210
0.0
220
0.0
230
-1.0
  0
CIRCLE
  5
47A
  8
DRILL
 10
-48.47143398314479
 20
85.37547678893404
 30
0.0
 40
0.4
210
0.0
220
0.0
230
-1.0
  0
CIRCLE
  5
47B
  8
DRILL
 10
-45.93143398314477
 20
85.37547678893404
 30
0.0
 40
0.4
210
0.0
220
0.0
230
-1.0
  0
CIRCLE
  5
47C
  8
DRILL
 10
-43.39143398314481
 20
85.37547678893404
 30
0.0
 40
0.4
210
0.0
220
0.0
230
-1.0
  0
CIRCLE
  5
47D
  8
DRILL
 10
-40.85143398314479
 20
85.37547678893404
 30
0.0
 40
0.4
210
0.0
220
0.0
230
-1.0
  0
CIRCLE
  5
47E
  8
DRILL
 10
-61.17143398314478
 20
70.13547678893403
 30
0.0
 40
0.4
210
0.0
220
0.0
230
-1.0
  0
CIRCLE
  5
47F
  8
DRILL
 10
-40.85143398314479
 20
70.13547678893403
 30
0.0
 40
0.4
210
0.0
220
0.0
230
-1.0
  0
CIRCLE
  5
480
  8
DRILL
 10
-43.39143398314481
 20
70.13547678893403
 30
0.0
 40
0.4
210
0.0
220
0.0
230
-1.0
  0
CIRCLE
  5
481
  8
DRILL
 10
-45.93143398314477
 20
70.13547678893403
 30
0.0
 40
0.4
210
0.0
220
0.0
230
-1.0
  0
CIRCLE
  5
482
  8
DRILL
 10
-48.47143398314479
 20
70.13547678893403
 30
0.0
 40
0.4
210
0.0
220
0.0
230
-1.0
  0
CIRCLE
  5
483
  8
DRILL
 10
-51.01143398314476
 20
70.13547678893403
 30
0.0
 40
0.4
210
0.0
220
0.0
230
-1.0
  0
CIRCLE
  5
484
  8
DRILL
 10
-53.55143398314478
 20
70.13547678893403
 30
0.0
 40
0.4
210
0.0
220
0.0
230
-1.0
  0
CIRCLE
  5
485
  8
DRILL
 10
-56.0914339831448
 20
70.13547678893403
 30
0.0
 40
0.4
210
0.0
220
0.0
230
-1.0
  0
CIRCLE
  5
486
  8
DRILL
 10
-58.63143398314476
 20
70.13547678893403
 30
0.0
 40
0.4
210
0.0
220
0.0
230
-1.0
  0
CIRCLE
  5
487
  8
DRILL
 10
-38.31143398314477
 20
70.13547678893403
 30
0.0
 40
0.4
210
0.0
220
0.0
230
-1.0
  0
CIRCLE
  5
488
  8
DRILL
 10
-63.7114339831448
 20
70.13547678893403
 30
0.0
 40
0.4
210
0.0
220
0.0
230
-1.0
  0
CIRCLE
  5
489
  8
DRILL
 10
-40.85143398314479
 20
91.72547678893403
 30
0.0
 40
0.5588
210
0.0
220
0.0
230
-1.0
  0
CIRCLE
  5
48A
  8
DRILL
 10
-43.39143398314481
 20
91.72547678893403
 30
0.0
 40
0.5588
210
0.0
220
0.0
230
-1.0
  0
CIRCLE
  5
48B
  8
DRILL
 10
-45.93143398314477
 20
91.72547678893403
 30
0.0
 40
0.5588
210
0.0
220
0.0
230
-1.0
  0
CIRCLE
  5
48C
  8
DRILL
 10
-54.82143398314481
 20
91.72547678893403
 30
0.0
 40
0.5588
210
0.0
220
0.0
230
-1.0
  0
CIRCLE
  5
48D
  8
DRILL
 10
-57.36143398314478
 20
91.72547678893403
 30
0.0
 40
0.5588
210
0.0
220
0.0
230
-1.0
  0
CIRCLE
  5
48E
  8
DRILL
 10
-59.9014339831448
 20
91.72547678893403
 30
0.0
 40
0.5588
210
0.0
220
0.0
230
-1.0
  0
CIRCLE
  5
48F
  8
DRILL
 10
-62.44143398314482
 20
91.72547678893403
 30
0.0
 40
0.5588
210
0.0
220
0.0
230
-1.0
  0
CIRCLE
  5
490
  8
DRILL
 10
-67.38923398314479
 20
58.07047678893403
 30
0.0
 40
0.6
210
0.0
220
0.0
230
-1.0
  0
CIRCLE
  5
491
  8
DRILL
 10
-63.53363398314481
 20
58.07047678893403
 30
0.0
 40
0.6
210
0.0
220
0.0
230
-1.0
  0
CIRCLE
  5
492
  8
DRILL
 10
-14.81643398314476
 20
67.09267678893403
 30
0.0
 40
0.6
210
0.0
220
0.0
230
-1.0
  0
CIRCLE
  5
493
  8
DRILL
 10
-14.81643398314476
 20
70.94827678893404
 30
0.0
 40
0.6
210
0.0
220
0.0
230
-1.0
  0
CIRCLE
  5
494
  8
DRILL
 10
-23.70643398314481
 20
91.09047678893404
 30
0.0
 40
0.508
210
0.0
220
0.0
230
-1.0
  0
CIRCLE
  5
495
  8
DRILL
 10
-26.24643398314477
 20
91.09047678893404
 30
0.0
 40
0.508
210
0.0
220
0.0
230
-1.0
  0
CIRCLE
  5
496
  8
DRILL
 10
-28.78643398314479
 20
91.09047678893404
 30
0.0
 40
0.508
210
0.0
220
0.0
230
-1.0
  0
CIRCLE
  5
497
  8
DRILL
 10
-30.69143398314476
 20
58.70547678893402
 30
0.0
 40
0.508
210
0.0
220
0.0
230
-1.0
  0
CIRCLE
  5
498
  8
DRILL
 10
-28.1514339831448
 20
58.70547678893402
 30
0.0
 40
0.508
210
0.0
220
0.0
230
-1.0
  0
CIRCLE
  5
499
  8
DRILL
 10
-25.61143398314478
 20
58.70547678893402
 30
0.0
 40
0.508
210
0.0
220
0.0
230
-1.0
  0
CIRCLE
  5
49B
  8
CUT
 10
-15.45143398314481
 20
59.34047678893407
 30
0.0
 40
1.65
210
0.0
220
0.0
230
-1.0
  0
CIRCLE
  5
49C
  8
CUT
 10
-15.45143398314481
 20
92.36047678893405
 30
0.0
 40
1.65
210
0.0
220
0.0
230
-1.0
  0
CIRCLE
  5
49D
  8
CUT
 10
-75.14143398314481
 20
92.99547678893404
 30
0.0
 40
1.65
210
0.0
220
0.0
230
-1.0
  0
CIRCLE
  5
49E
  8
CUT
 10
-75.14143398314481
 20
59.34047678893407
 30
0.0
 40
1.65
210
0.0
220
0.0
230
-1.0
  0
CIRCLE
  5
49F
  8
DRILL
 10
-19.5264339831448
 20
79.02547678893404
 30
0.0
 40
1.6
210
0.0
220
0.0
230
-1.0
  0
CIRCLE
  5
4A0
  8
DRILL
 10
-16.67643398314478
 20
83.82547678893403
 30
0.0
 40
1.4
210
0.0
220
0.0
230
-1.0
  0
CIRCLE
  5
4A1
  8
DRILL
 10
-13.2764339831448
 20
79.02547678893404
 30
0.0
 40
1.4
210
0.0
220
0.0
230
-1.0
  0
CIRCLE
  5
4A2
  8
DRILL
 10
-22.43643398314477
 20
82.20047678893403
 30
0.0
 40
0.4064
210
0.0
220
0.0
230
-1.0
  0
CIRCLE
  5
4A3
  8
DRILL
 10
-22.43643398314477
 20
87.28047678893404
 30
0.0
 40
0.4064
210
0.0
220
0.0
230
-1.0
  0
CIRCLE
  5
4A4
  8
DRILL
 10
-37.67643398314478
 20
91.09047678893404
 30
0.0
 40
0.4064
210
0.0
220
0.0
230
-1.0
  0
CIRCLE
  5
4A5
  8
DRILL
 10
-32.59643398314479
 20
91.09047678893404
 30
0.0
 40
0.4064
210
0.0
220
0.0
230
-1.0
  0
CIRCLE
  5
4A6
  8
DRILL
 10
-27.51643398314481
 20
65.69047678893403
 30
0.0
 40
0.4064
210
0.0
220
0.0
230
-1.0
  0
CIRCLE
  5
4A7
  8
DRILL
 10
-32.59643398314479
 20
65.69047678893403
 30
0.0
 40
0.4064
210
0.0
220
0.0
230
-1.0
  0
CIRCLE
  5
4A8
  8
DRILL
 10
-21.16643398314478
 20
65.69047678893403
 30
0.0
 40
0.4064
210
0.0
220
0.0
230
-1.0
  0
CIRCLE
  5
4A9
  8
DRILL
 10
-21.16643398314478
 20
70.77047678893402
 30
0.0
 40
0.4064
210
0.0
220
0.0
230
-1.0
  0
POLYLINE
  5
4AA
  8
CUT
 66
     1
 10
0.0
 20
0.0
 30
0.0
  0
VERTEX
  5
4AB
  8
CUT
 10
10.4476339831448
 20
98.07547678893405
 30
0.0
  0
VERTEX
  5
4AC
  8
CUT
 10
10.4476339831448
 20
53.62547678893404
 30
0.0
 42
-0.9999999999999999
  0
VERTEX
  5
4AD
  8
CUT
 10
10.29523398314477
 20
53.62547678893404
 30
0.0
  0
VERTEX
  5
4AE
  8
CUT
 10
10.2952339831448
 20
98.07547678893405
 30
0.0
 42
-1.000000000000093
  0
VERTEX
  5
4AF
  8
CUT
 10
10.44763398314477
 20
98.07547678893405
 30
0.0
  0
SEQEND
  5
4B0
  8
CUT
  0
POLYLINE
  5
4B1
  8
CUT
 66
     1
 10
0.0
 20
0.0
 30
0.0
  0
VERTEX
  5
4B2
  8
CUT
 10
78.95143398314481
 20
97.99927678893405
 30
0.0
  0
VERTEX
  5
4B3
  8
CUT
 10
10.37143398314477
 20
97.99927678893405
 30
0.0
 42
-0.9999999999999999
  0
VERTEX
  5
4B4
  8
CUT
 10
10.37143398314477
 20
98.15167678893405
 30
0.0
  0
VERTEX
  5
4B5
  8
CUT
 10
78.95143398314481
 20
98.15167678893405
 30
0.0
 42
-0.9999999999999999
  0
VERTEX
  5
4B6
  8
CUT
 10
78.95143398314481
 20
97.99927678893405
 30
0.0
  0
SEQEND
  5
4B7
  8
CUT
  0
POLYLINE
  5
4B8
  8
CUT
 66
     1
 10
0.0
 20
0.0
 30
0.0
  0
VERTEX
  5
4B9
  8
CUT
 10
80.80253398314478
 20
96.11657678893405
 30
0.0
  0
VERTEX
  5
4BA
  8
CUT
 10
78.89753398314481
 20
98.02157678893403
 30
0.0
 42
-0.9999999999999999
  0
VERTEX
  5
4BB
  8
CUT
 10
79.00533398314481
 20
98.12937678893402
 30
0.0
  0
VERTEX
  5
4BC
  8
CUT
 10
80.91033398314478
 20
96.22437678893404
 30
0.0
 42
-1.000000000000132
  0
VERTEX
  5
4BD
  8
CUT
 10
80.80253398314478
 20
96.11657678893407
 30
0.0
  0
SEQEND
  5
4BE
  8
CUT
  0
POLYLINE
  5
4BF
  8
CUT
 66
     1
 10
0.0
 20
0.0
 30
0.0
  0
VERTEX
  5
4C0
  8
CUT
 10
80.78023398314481
 20
53.62547678893404
 30
0.0
  0
VERTEX
  5
4C1
  8
CUT
 10
80.78023398314481
 20
96.17047678893405
 30
0.0
 42
-1.000000000000187
  0
VERTEX
  5
4C2
  8
CUT
 10
80.93263398314478
 20
96.17047678893405
 30
0.0
  0
VERTEX
  5
4C3
  8
CUT
 10
80.93263398314475
 20
53.62547678893404
 30
0.0
 42
-1.000000000000093
  0
VERTEX
  5
4C4
  8
CUT
 10
80.78023398314478
 20
53.62547678893404
 30
0.0
  0
SEQEND
  5
4C5
  8
CUT
  0
POLYLINE
  5
4C6
  8
CUT
 66
     1
 10
0.0
 20
0.0
 30
0.0
  0
VERTEX
  5
4C7
  8
CUT
 10
10.37143398314477
 20
53.70167678893401
 30
0.0
  0
VERTEX
  5
4C8
  8
CUT
 10
80.85643398314478
 20
53.70167678893401
 30
0.0
 42
-0.9999999999999066
  0
VERTEX
  5
4C9
  8
CUT
 10
80.85643398314478
 20
53.54927678893404
 30
0.0
  0
VERTEX
  5
4CA
  8
CUT
 10
10.37143398314477
 20
53.54927678893407
 30
0.0
 42
-0.9999999999999999
  0
VERTEX
  5
4CB
  8
CUT
 10
10.37143398314477
 20
53.70167678893404
 30
0.0
  0
SEQEND
  5
4CC
  8
CUT
  0
POLYLINE
  5
4CE
  8
20
 66
     1
 10
0.0
 20
0.0
 30
0.0
  0
VERTEX
  5
4CF
  8
20
 10
130.0687248007544
 20
38.41824351297407
 30
0.0
  0
VERTEX
  5
4D0
  8
20
 10
130.0687248007543
 20
47.30824351297407
 30
0.0
 42
-0.9999999999999999
  0
VERTEX
  5
4D1
  8
20
 10
130.2211248007543
 20
47.30824351297404
 30
0.0
  0
VERTEX
  5
4D2
  8
20
 10
130.2211248007543
 20
38.41824351297407
 30
0.0
 42
-0.9999999999999999
  0
VERTEX
  5
4D3
  8
20
 10
130.0687248007543
 20
38.4182435129741
 30
0.0
  0
SEQEND
  5
4D4
  8
20
  0
POLYLINE
  5
4D5
  8
20
 66
     1
 10
0.0
 20
0.0
 30
0.0
  0
VERTEX
  5
4D6
  8
20
 10
130.0910248007543
 20
47.25434351297407
 30
0.0
  0
VERTEX
  5
4D7
  8
20
 10
127.5510248007543
 20
49.79434351297405
 30
0.0
 42
-0.9999999999999999
  0
VERTEX
  5
4D8
  8
20
 10
127.6588248007543
 20
49.90214351297407
 30
0.0
  0
VERTEX
  5
4D9
  8
20
 10
130.1988248007543
 20
47.36214351297407
 30
0.0
 42
-0.9999999999999999
  0
VERTEX
  5
4DA
  8
20
 10
130.0910248007543
 20
47.25434351297407
 30
0.0
  0
SEQEND
  5
4DB
  8
20
  0
POLYLINE
  5
4DC
  8
20
 66
     1
 10
0.0
 20
0.0
 30
0.0
  0
VERTEX
  5
4DD
  8
20
 10
127.6049248007543
 20
49.77204351297407
 30
0.0
  0
VERTEX
  5
4DE
  8
20
 10
12.03492480075433
 20
49.77204351297407
 30
0.0
 42
-1.00000000000014
  0
VERTEX
  5
4DF
  8
20
 10
12.03492480075428
 20
49.92444351297407
 30
0.0
  0
VERTEX
  5
4E0
  8
20
 10
127.6049248007543
 20
49.92444351297407
 30
0.0
 42
-1.00000000000014
  0
VERTEX
  5
4E1
  8
20
 10
127.6049248007544
 20
49.77204351297407
 30
0.0
  0
SEQEND
  5
4E2
  8
20
  0
POLYLINE
  5
4E3
  8
20
 66
     1
 10
0.0
 20
0.0
 30
0.0
  0
VERTEX
  5
4E4
  8
20
 10
12.08882480075432
 20
49.79434351297407
 30
0.0
  0
VERTEX
  5
4E5
  8
20
 10
9.548824800754334
 20
47.2543435129741
 30
0.0
 42
-1.000000000000214
  0
VERTEX
  5
4E6
  8
20
 10
9.441024800754287
 20
47.36214351297403
 30
0.0
  0
VERTEX
  5
4E7
  8
20
 10
11.98102480075433
 20
49.90214351297407
 30
0.0
 42
-0.9999999999999999
  0
VERTEX
  5
4E8
  8
20
 10
12.08882480075432
 20
49.79434351297407
 30
0.0
  0
SEQEND
  5
4E9
  8
20
  0
POLYLINE
  5
4EA
  8
20
 66
     1
 10
0.0
 20
0.0
 30
0.0
  0
VERTEX
  5
4EB
  8
20
 10
9.571124800754333
 20
47.30824351297407
 30
0.0
  0
VERTEX
  5
4EC
  8
20
 10
9.571124800754333
 20
38.41824351297407
 30
0.0
 42
-0.9999999999999999
  0
VERTEX
  5
4ED
  8
20
 10
9.418724800754333
 20
38.41824351297404
 30
0.0
  0
VERTEX
  5
4EE
  8
20
 10
9.418724800754333
 20
47.30824351297407
 30
0.0
 42
-0.9999999999999999
  0
VERTEX
  5
4EF
  8
20
 10
9.571124800754333
 20
47.3082435129741
 30
0.0
  0
SEQEND
  5
4F0
  8
20
  0
POLYLINE
  5
4F1
  8
20
 66
     1
 10
0.0
 20
0.0
 30
0.0
  0
VERTEX
  5
4F2
  8
20
 10
9.548824800754332
 20
38.47214351297407
 30
0.0
  0
VERTEX
  5
4F3
  8
20
 10
12.08882480075432
 20
35.93214351297407
 30
0.0
 42
-0.9999999999999999
  0
VERTEX
  5
4F4
  8
20
 10
11.98102480075433
 20
35.82434351297407
 30
0.0
  0
VERTEX
  5
4F5
  8
20
 10
9.441024800754336
 20
38.36434351297407
 30
0.0
 42
-0.9999999999999999
  0
VERTEX
  5
4F6
  8
20
 10
9.548824800754332
 20
38.47214351297407
 30
0.0
  0
SEQEND
  5
4F7
  8
20
  0
POLYLINE
  5
4F8
  8
20
 66
     1
 10
0.0
 20
0.0
 30
0.0
  0
VERTEX
  5
4F9
  8
20
 10
12.03492480075433
 20
35.95444351297407
 30
0.0
  0
VERTEX
  5
4FA
  8
20
 10
127.6049248007543
 20
35.95444351297407
 30
0.0
 42
-1.00000000000014
  0
VERTEX
  5
4FB
  8
20
 10
127.6049248007544
 20
35.80204351297407
 30
0.0
  0
VERTEX
  5
4FC
  8
20
 10
12.03492480075433
 20
35.80204351297407
 30
0.0
 42
-1.00000000000014
  0
VERTEX
  5
4FD
  8
20
 10
12.03492480075428
 20
35.95444351297407
 30
0.0
  0
SEQEND
  5
4FE
  8
20
  0
POLYLINE
  5
4FF
  8
20
 66
     1
 10
0.0
 20
0.0
 30
0.0
  0
VERTEX
  5
500
  8
20
 10
127.5510248007543
 20
35.93214351297407
 30
0.0
  0
VERTEX
  5
501
  8
20
 10
130.0910248007544
 20
38.47214351297406
 30
0.0
 42
-0.9999999999998682
  0
VERTEX
  5
502
  8
20
 10
130.1988248007544
 20
38.36434351297412
 30
0.0
  0
VERTEX
  5
503
  8
20
 10
127.6588248007543
 20
35.82434351297407
 30
0.0
 42
-0.9999999999999999
  0
VERTEX
  5
504
  8
20
 10
127.5510248007543
 20
35.93214351297407
 30
0.0
  0
SEQEND
  5
505
  8
20
  0
CIRCLE
  5
506
  8
20
 10
-125.0649248007543
 20
42.22824351297407
 30
0.0
 40
1.8
210
0.0
220
0.0
230
-1.0
  0
CIRCLE
  5
507
  8
20
 10
-14.57492480075435
 20
42.22824351297407
 30
0.0
 40
1.8
210
0.0
220
0.0
230
-1.0
  0
CIRCLE
  5
509
  8
44
 10
-26.18272480075434
 20
40.95824351297407
 30
0.0
 40
0.6
210
0.0
220
0.0
230
-1.0
  0
CIRCLE
  5
50A
  8
44
 10
-22.32712480075433
 20
40.95824351297407
 30
0.0
 40
0.6
210
0.0
220
0.0
230
-1.0
  0
CIRCLE
  5
50B
  8
44
 10
-37.61272480075435
 20
40.95824351297407
 30
0.0
 40
0.6
210
0.0
220
0.0
230
-1.0
  0
CIRCLE
  5
50C
  8
44
 10
-33.75712480075434
 20
40.95824351297407
 30
0.0
 40
0.6
210
0.0
220
0.0
230
-1.0
  0
CIRCLE
  5
50D
  8
44
 10
-49.04272480075433
 20
40.95824351297407
 30
0.0
 40
0.6
210
0.0
220
0.0
230
-1.0
  0
CIRCLE
  5
50E
  8
44
 10
-45.18712480075435
 20
40.95824351297407
 30
0.0
 40
0.6
210
0.0
220
0.0
230
-1.0
  0
CIRCLE
  5
50F
  8
44
 10
-60.47272480075434
 20
40.95824351297407
 30
0.0
 40
0.6
210
0.0
220
0.0
230
-1.0
  0
CIRCLE
  5
510
  8
44
 10
-56.61712480075433
 20
40.95824351297407
 30
0.0
 40
0.6
210
0.0
220
0.0
230
-1.0
  0
CIRCLE
  5
511
  8
44
 10
-71.90272480075434
 20
40.95824351297407
 30
0.0
 40
0.6
210
0.0
220
0.0
230
-1.0
  0
CIRCLE
  5
512
  8
44
 10
-68.04712480075433
 20
40.95824351297407
 30
0.0
 40
0.6
210
0.0
220
0.0
230
-1.0
  0
CIRCLE
  5
513
  8
44
 10
-83.33272480075435
 20
40.95824351297407
 30
0.0
 40
0.6
210
0.0
220
0.0
230
-1.0
  0
CIRCLE
  5
514
  8
44
 10
-79.47712480075434
 20
40.95824351297407
 30
0.0
 40
0.6
210
0.0
220
0.0
230
-1.0
  0
CIRCLE
  5
515
  8
44
 10
-94.76272480075433
 20
40.95824351297407
 30
0.0
 40
0.6
210
0.0
220
0.0
230
-1.0
  0
CIRCLE
  5
516
  8
44
 10
-90.90712480075435
 20
40.95824351297407
 30
0.0
 40
0.6
210
0.0
220
0.0
230
-1.0
  0
CIRCLE
  5
517
  8
44
 10
-106.1927248007543
 20
40.95824351297407
 30
0.0
 40
0.6
210
0.0
220
0.0
230
-1.0
  0
CIRCLE
  5
518
  8
44
 10
-102.3371248007543
 20
40.95824351297407
 30
0.0
 40
0.6
210
0.0
220
0.0
230
-1.0
  0
CIRCLE
  5
519
  8
44
 10
-113.4571248007543
 20
40.95824351297407
 30
0.0
 40
0.6
210
0.0
220
0.0
230
-1.0
  0
CIRCLE
  5
51A
  8
44
 10
-117.3127248007543
 20
40.95824351297407
 30
0.0
 40
0.6
210
0.0
220
0.0
230
-1.0
  0
CIRCLE
  5
51B
  8
44
 10
-29.81492480075433
 20
46.03824351297407
 30
0.0
 40
0.4064
210
0.0
220
0.0
230
-1.0
  0
CIRCLE
  5
51C
  8
44
 10
-29.81492480075433
 20
38.41824351297407
 30
0.0
 40
0.4064
210
0.0
220
0.0
230
-1.0
  0
CIRCLE
  5
51D
  8
44
 10
-41.24492480075433
 20
38.41824351297407
 30
0.0
 40
0.4064
210
0.0
220
0.0
230
-1.0
  0
CIRCLE
  5
51E
  8
44
 10
-41.24492480075433
 20
46.03824351297407
 30
0.0
 40
0.4064
210
0.0
220
0.0
230
-1.0
  0
CIRCLE
  5
51F
  8
44
 10
-52.67492480075434
 20
38.41824351297407
 30
0.0
 40
0.4064
210
0.0
220
0.0
230
-1.0
  0
CIRCLE
  5
520
  8
44
 10
-52.67492480075434
 20
46.03824351297407
 30
0.0
 40
0.4064
210
0.0
220
0.0
230
-1.0
  0
CIRCLE
  5
521
  8
44
 10
-64.10492480075435
 20
38.41824351297407
 30
0.0
 40
0.4064
210
0.0
220
0.0
230
-1.0
  0
CIRCLE
  5
522
  8
44
 10
-64.10492480075435
 20
46.03824351297407
 30
0.0
 40
0.4064
210
0.0
220
0.0
230
-1.0
  0
CIRCLE
  5
523
  8
44
 10
-75.53492480075433
 20
38.41824351297407
 30
0.0
 40
0.4064
210
0.0
220
0.0
230
-1.0
  0
CIRCLE
  5
524
  8
44
 10
-75.53492480075433
 20
46.03824351297407
 30
0.0
 40
0.4064
210
0.0
220
0.0
230
-1.0
  0
CIRCLE
  5
525
  8
44
 10
-86.96492480075433
 20
38.41824351297407
 30
0.0
 40
0.4064
210
0.0
220
0.0
230
-1.0
  0
CIRCLE
  5
526
  8
44
 10
-86.96492480075433
 20
46.03824351297407
 30
0.0
 40
0.4064
210
0.0
220
0.0
230
-1.0
  0
CIRCLE
  5
527
  8
44
 10
-98.39492480075434
 20
38.41824351297407
 30
0.0
 40
0.4064
210
0.0
220
0.0
230
-1.0
  0
CIRCLE
  5
528
  8
44
 10
-98.39492480075434
 20
46.03824351297407
 30
0.0
 40
0.4064
210
0.0
220
0.0
230
-1.0
  0
CIRCLE
  5
529
  8
44
 10
-109.8249248007543
 20
38.41824351297407
 30
0.0
 40
0.4064
210
0.0
220
0.0
230
-1.0
  0
CIRCLE
  5
52A
  8
44
 10
-109.8249248007543
 20
46.03824351297407
 30
0.0
 40
0.4064
210
0.0
220
0.0
230
-1.0
  0
POLYLINE
  5
52C
  8
16
 66
     1
 10
0.0
 20
0.0
 30
0.0
  0
VERTEX
  5
52D
  8
16
 10
25.08272480075436
 20
40.95824351297408
 30
0.0
 42
-1.088847058559093
  0
VERTEX
  5
52E
  8
16
 10
27.26686179385105
 20
40.77210651987739
 30
0.0
  0
VERTEX
  5
52F
  8
16
 10
28.94609195190053
 20
39.09287636182789
 30
0.0
 42
-3.028700939770371
  0
VERTEX
  5
530
  8
16
 10
28.91671825435142
 20
37.78324351297479
 30
0.0
  0
VERTEX
  5
531
  8
16
 10
28.72272480075445
 20
37.78324351297406
 30
0.0
 42
-0.1988847818697148
  0
VERTEX
  5
532
  8
16
 10
28.27372480075443
 20
37.96924351297405
 30
0.0
  0
VERTEX
  5
533
  8
16
 10
26.36886179385114
 20
39.87410651987732
 30
0.0
 42
-0.4649389526379804
  0
VERTEX
  5
534
  8
16
 10
25.08272480075443
 20
40.95824351297407
 30
0.0
  0
SEQEND
  5
535
  8
16
  0
POLYLINE
  5
536
  8
16
 66
     1
 10
0.0
 20
0.0
 30
0.0
  0
VERTEX
  5
537
  8
16
 10
28.71492480075444
 20
46.03824351297407
 30
0.0
 42
-0.7314944458745871
  0
VERTEX
  5
538
  8
16
 10
30.71313134715723
 20
46.67324351297333
 30
0.0
  0
VERTEX
  5
539
  8
16
 10
40.34671825435105
 20
46.67324351297405
 30
0.0
 42
-0.5176982976384861
  0
VERTEX
  5
53A
  8
16
 10
42.14313134715714
 20
46.67324351297338
 30
0.0
  0
VERTEX
  5
53B
  8
16
 10
51.77671825435095
 20
46.67324351297406
 30
0.0
 42
-0.5176982976384876
  0
VERTEX
  5
53C
  8
16
 10
53.57313134715704
 20
46.67324351297334
 30
0.0
  0
VERTEX
  5
53D
  8
16
 10
63.20671825435095
 20
46.67324351297408
 30
0.0
 42
-0.5176982976384732
  0
VERTEX
  5
53E
  8
16
 10
65.00313134715715
 20
46.67324351297339
 30
0.0
  0
VERTEX
  5
53F
  8
16
 10
74.63671825435092
 20
46.67324351297409
 30
0.0
 42
-0.517698297638475
  0
VERTEX
  5
540
  8
16
 10
76.43313134715714
 20
46.67324351297331
 30
0.0
  0
VERTEX
  5
541
  8
16
 10
86.06671825435106
 20
46.67324351297405
 30
0.0
 42
-0.5176982976384567
  0
VERTEX
  5
542
  8
16
 10
87.86313134715725
 20
46.67324351297331
 30
0.0
  0
VERTEX
  5
543
  8
16
 10
97.49671825435105
 20
46.67324351297405
 30
0.0
 42
-0.5176982976384935
  0
VERTEX
  5
544
  8
16
 10
99.29313134715723
 20
46.67324351297334
 30
0.0
  0
VERTEX
  5
545
  8
16
 10
108.926718254351
 20
46.67324351297405
 30
0.0
 42
-0.5176982976384966
  0
VERTEX
  5
546
  8
16
 10
110.7231313471572
 20
46.67324351297336
 30
0.0
  0
VERTEX
  5
547
  8
16
 10
116.1749248007543
 20
46.67324351297407
 30
0.0
 42
-0.2008759562273632
  0
VERTEX
  5
548
  8
16
 10
116.6273159692198
 20
46.48385234445568
 30
0.0
  0
VERTEX
  5
549
  8
16
 10
117.7617248007544
 20
45.34944351297408
 30
0.0
  0
VERTEX
  5
54A
  8
16
 10
117.7715801690089
 20
45.33936692078144
 30
0.0
  0
VERTEX
  5
54B
  8
16
 10
117.781294963728
 20
45.32898059516279
 30
0.0
  0
VERTEX
  5
54C
  8
16
 10
117.7908568468484
 20
45.31828536391428
 30
0.0
  0
VERTEX
  5
54D
  8
16
 10
117.8002533135196
 20
45.30728263323216
 30
0.0
  0
VERTEX
  5
54E
  8
16
 10
117.809471722101
 20
45.29597440899066
 30
0.0
  0
VERTEX
  5
54F
  8
16
 10
117.8184993263462
 20
45.28436331642662
 30
0.0
  0
VERTEX
  5
550
  8
16
 10
117.8273233097051
 20
45.27245261800908
 30
0.0
  0
VERTEX
  5
551
  8
16
 10
117.8359308216442
 20
45.26024622927246
 30
0.0
  0
VERTEX
  5
552
  8
16
 10
117.8443090158708
 20
45.24774873239464
 30
0.0
  0
VERTEX
  5
553
  8
16
 10
117.8524450903126
 20
45.23496538730681
 30
0.0
  0
VERTEX
  5
554
  8
16
 10
117.860326328687
 20
45.22190214013015
 30
0.0
  0
VERTEX
  5
555
  8
16
 10
117.8679401434685
 20
45.20856562874568
 30
0.0
  0
VERTEX
  5
556
  8
16
 10
117.8752741200386
 20
45.19496318531753
 30
0.0
  0
VERTEX
  5
557
  8
16
 10
117.8823160617773
 20
45.18110283560718
 30
0.0
  0
VERTEX
  5
558
  8
16
 10
117.8890540358412
 20
45.16699329493601
 30
0.0
  0
VERTEX
  5
559
  8
16
 10
117.895476419346
 20
45.15264396067634
 30
0.0
  0
VERTEX
  5
55A
  8
16
 10
117.9015719456582
 20
45.13806490117687
 30
0.0
  0
VERTEX
  5
55B
  8
16
 10
117.9073297504856
 20
45.12326684105608
 30
0.0
  0
VERTEX
  5
55C
  8
16
 10
117.9127394174426
 20
45.10826114282772
 30
0.0
  0
VERTEX
  5
55D
  8
16
 10
117.9177910227585
 20
45.09305978485419
 30
0.0
  0
VERTEX
  5
55E
  8
16
 10
117.9224751787936
 20
45.07767533565771
 30
0.0
  0
VERTEX
  5
55F
  8
16
 10
117.9267830760223
 20
45.06212092465341
 30
0.0
  0
VERTEX
  5
560
  8
16
 10
117.9307065231491
 20
45.04641020940426
 30
0.0
  0
VERTEX
  5
561
  8
16
 10
117.9342379850277
 20
45.03055733953274
 30
0.0
  0
VERTEX
  5
562
  8
16
 10
117.9373706180649
 20
45.01457691745969
 30
0.0
  0
VERTEX
  5
563
  8
16
 10
117.9400983028064
 20
44.99848395617459
 30
0.0
  0
VERTEX
  5
564
  8
16
 10
117.9424156734199
 20
44.98229383427422
 30
0.0
  0
VERTEX
  5
565
  8
16
 10
117.9443181438129
 20
44.96602224853748
 30
0.0
  0
VERTEX
  5
566
  8
16
 10
117.945801930153
 20
44.94968516433186
 30
0.0
  0
VERTEX
  5
567
  8
16
 10
117.9468640695842
 20
44.93329876417268
 30
0.0
  0
VERTEX
  5
568
  8
16
 10
117.9475024349668
 20
44.91687939477719
 30
0.0
  0
VERTEX
  5
569
  8
16
 10
117.94772433067
 20
41.85645039171013
 30
0.0
 42
-3.146783389290958
  0
VERTEX
  5
56A
  8
16
 10
116.6777248007551
 20
41.85645005937692
 30
0.0
  0
VERTEX
  5
56B
  8
16
 10
116.6777248007543
 20
44.63744351297408
 30
0.0
  0
VERTEX
  5
56C
  8
16
 10
115.9119248007544
 20
45.40324351297408
 30
0.0
  0
VERTEX
  5
56D
  8
16
 10
110.7231313471578
 20
45.40324351297409
 30
0.0
 42
-0.5176982976384858
  0
VERTEX
  5
56E
  8
16
 10
108.9267182543515
 20
45.4032435129748
 30
0.0
  0
VERTEX
  5
56F
  8
16
 10
99.29313134715774
 20
45.40324351297409
 30
0.0
 42
-0.5176982976384589
  0
VERTEX
  5
570
  8
16
 10
97.49671825435145
 20
45.40324351297474
 30
0.0
  0
VERTEX
  5
571
  8
16
 10
87.86313134715783
 20
45.40324351297409
 30
0.0
 42
-0.5176982976385075
  0
VERTEX
  5
572
  8
16
 10
86.06671825435154
 20
45.40324351297481
 30
0.0
  0
VERTEX
  5
573
  8
16
 10
76.43313134715773
 20
45.40324351297407
 30
0.0
 42
-0.5176982976384717
  0
VERTEX
  5
574
  8
16
 10
74.63671825435155
 20
45.4032435129748
 30
0.0
  0
VERTEX
  5
575
  8
16
 10
65.00313134715782
 20
45.40324351297405
 30
0.0
 42
-0.5176982976384809
  0
VERTEX
  5
576
  8
16
 10
63.20671825435155
 20
45.40324351297475
 30
0.0
  0
VERTEX
  5
577
  8
16
 10
53.57313134715763
 20
45.40324351297409
 30
0.0
 42
-0.5176982976384654
  0
VERTEX
  5
578
  8
16
 10
51.77671825435165
 20
45.40324351297477
 30
0.0
  0
VERTEX
  5
579
  8
16
 10
42.14313134715772
 20
45.40324351297409
 30
0.0
 42
-0.5176982976385203
  0
VERTEX
  5
57A
  8
16
 10
40.34671825435154
 20
45.40324351297481
 30
0.0
  0
VERTEX
  5
57B
  8
16
 10
30.71313134715772
 20
45.40324351297409
 30
0.0
 42
-0.7314944458744391
  0
VERTEX
  5
57C
  8
16
 10
28.71492480075432
 20
46.03824351297408
 30
0.0
  0
SEQEND
  5
57D
  8
16
  0
POLYLINE
  5
57E
  8
16
 66
     1
 10
0.0
 20
0.0
 30
0.0
  0
VERTEX
  5
57F
  8
16
 10
36.51272480075433
 20
40.95824351297407
 30
0.0
 42
-1.088847058559147
  0
VERTEX
  5
580
  8
16
 10
38.69686179385103
 20
40.77210651987734
 30
0.0
  0
VERTEX
  5
581
  8
16
 10
40.37609195190053
 20
39.09287636182788
 30
0.0
 42
-3.028700939770432
  0
VERTEX
  5
582
  8
16
 10
40.34671825435164
 20
37.78324351297478
 30
0.0
  0
VERTEX
  5
583
  8
16
 10
40.15272480075443
 20
37.78324351297409
 30
0.0
 42
-0.1988847818695863
  0
VERTEX
  5
584
  8
16
 10
39.70372480075432
 20
37.96924351297405
 30
0.0
  0
VERTEX
  5
585
  8
16
 10
37.79886179385115
 20
39.87410651987734
 30
0.0
 42
-0.4649389526379478
  0
VERTEX
  5
586
  8
16
 10
36.51272480075446
 20
40.95824351297407
 30
0.0
  0
SEQEND
  5
587
  8
16
  0
POLYLINE
  5
588
  8
16
 66
     1
 10
0.0
 20
0.0
 30
0.0
  0
VERTEX
  5
589
  8
16
 10
47.94272480075445
 20
40.95824351297407
 30
0.0
 42
-1.088847058559129
  0
VERTEX
  5
58A
  8
16
 10
50.12686179385115
 20
40.77210651987737
 30
0.0
  0
VERTEX
  5
58B
  8
16
 10
51.80609195190053
 20
39.0928763618279
 30
0.0
 42
-3.028700939770471
  0
VERTEX
  5
58C
  8
16
 10
51.77671825435164
 20
37.78324351297485
 30
0.0
  0
VERTEX
  5
58D
  8
16
 10
51.58272480075443
 20
37.78324351297407
 30
0.0
 42
-0.19888478186967
  0
VERTEX
  5
58E
  8
16
 10
51.13372480075446
 20
37.96924351297407
 30
0.0
  0
VERTEX
  5
58F
  8
16
 10
49.22886179385115
 20
39.87410651987729
 30
0.0
 42
-0.464938952637996
  0
VERTEX
  5
590
  8
16
 10
47.94272480075435
 20
40.95824351297407
 30
0.0
  0
SEQEND
  5
591
  8
16
  0
POLYLINE
  5
592
  8
16
 66
     1
 10
0.0
 20
0.0
 30
0.0
  0
VERTEX
  5
593
  8
16
 10
59.37272480075433
 20
40.95824351297407
 30
0.0
 42
-1.088847058559111
  0
VERTEX
  5
594
  8
16
 10
61.55686179385112
 20
40.77210651987735
 30
0.0
  0
VERTEX
  5
595
  8
16
 10
63.23609195190055
 20
39.09287636182788
 30
0.0
 42
-3.028700939770615
  0
VERTEX
  5
596
  8
16
 10
63.20671825435156
 20
37.78324351297479
 30
0.0
  0
VERTEX
  5
597
  8
16
 10
63.01272480075433
 20
37.78324351297409
 30
0.0
 42
-0.1988847818696073
  0
VERTEX
  5
598
  8
16
 10
62.56372480075433
 20
37.96924351297406
 30
0.0
  0
VERTEX
  5
599
  8
16
 10
60.65886179385113
 20
39.87410651987732
 30
0.0
 42
-0.4649389526379453
  0
VERTEX
  5
59A
  8
16
 10
59.37272480075442
 20
40.95824351297407
 30
0.0
  0
SEQEND
  5
59B
  8
16
  0
POLYLINE
  5
59C
  8
16
 66
     1
 10
0.0
 20
0.0
 30
0.0
  0
VERTEX
  5
59D
  8
16
 10
70.80272480075433
 20
40.95824351297407
 30
0.0
 42
-1.088847058559108
  0
VERTEX
  5
59E
  8
16
 10
72.98686179385112
 20
40.77210651987732
 30
0.0
  0
VERTEX
  5
59F
  8
16
 10
74.66609195190064
 20
39.0928763618279
 30
0.0
 42
-3.028700939770272
  0
VERTEX
  5
5A0
  8
16
 10
74.63671825435155
 20
37.78324351297471
 30
0.0
  0
VERTEX
  5
5A1
  8
16
 10
74.44272480075445
 20
37.78324351297407
 30
0.0
 42
-0.1988847818697372
  0
VERTEX
  5
5A2
  8
16
 10
73.99372480075442
 20
37.96924351297407
 30
0.0
  0
VERTEX
  5
5A3
  8
16
 10
72.08886179385125
 20
39.87410651987732
 30
0.0
 42
-0.4649389526380049
  0
VERTEX
  5
5A4
  8
16
 10
70.80272480075435
 20
40.95824351297407
 30
0.0
  0
SEQEND
  5
5A5
  8
16
  0
POLYLINE
  5
5A6
  8
16
 66
     1
 10
0.0
 20
0.0
 30
0.0
  0
VERTEX
  5
5A7
  8
16
 10
82.23272480075433
 20
40.95824351297407
 30
0.0
 42
-1.088847058559135
  0
VERTEX
  5
5A8
  8
16
 10
84.41686179385114
 20
40.7721065198773
 30
0.0
  0
VERTEX
  5
5A9
  8
16
 10
86.09609195190053
 20
39.09287636182789
 30
0.0
 42
-3.028718280525565
  0
VERTEX
  5
5AA
  8
16
 10
86.06671392475855
 20
37.78324963722198
 30
0.0
 42
-0.2350866264857674
  0
VERTEX
  5
5AB
  8
16
 10
85.42372480075444
 20
37.96924351297406
 30
0.0
  0
VERTEX
  5
5AC
  8
16
 10
83.51886179385114
 20
39.87410651987729
 30
0.0
 42
-0.4649389526379462
  0
VERTEX
  5
5AD
  8
16
 10
82.23272480075434
 20
40.95824351297407
 30
0.0
  0
SEQEND
  5
5AE
  8
16
  0
POLYLINE
  5
5AF
  8
16
 66
     1
 10
0.0
 20
0.0
 30
0.0
  0
VERTEX
  5
5B0
  8
16
 10
93.66272480075433
 20
40.95824351297407
 30
0.0
 42
-1.088847058559163
  0
VERTEX
  5
5B1
  8
16
 10
95.84686179385115
 20
40.7721065198773
 30
0.0
  0
VERTEX
  5
5B2
  8
16
 10
97.52609195190054
 20
39.09287636182787
 30
0.0
 42
-3.028718280521857
  0
VERTEX
  5
5B3
  8
16
 10
97.49671392475933
 20
37.78324963722081
 30
0.0
 42
-0.235086671246616
  0
VERTEX
  5
5B4
  8
16
 10
96.85372480075432
 20
37.96924351297406
 30
0.0
  0
VERTEX
  5
5B5
  8
16
 10
94.94886179385114
 20
39.87410651987734
 30
0.0
 42
-0.4649389526379582
  0
VERTEX
  5
5B6
  8
16
 10
93.66272480075433
 20
40.95824351297407
 30
0.0
  0
SEQEND
  5
5B7
  8
16
  0
POLYLINE
  5
5B8
  8
16
 66
     1
 10
0.0
 20
0.0
 30
0.0
  0
VERTEX
  5
5B9
  8
16
 10
105.0927248007544
 20
40.95824351297407
 30
0.0
 42
-1.088847058559133
  0
VERTEX
  5
5BA
  8
16
 10
107.2768617938511
 20
40.77210651987731
 30
0.0
  0
VERTEX
  5
5BB
  8
16
 10
108.9560919519006
 20
39.09287636182788
 30
0.0
 42
-3.02871828052514
  0
VERTEX
  5
5BC
  8
16
 10
108.9267139247584
 20
37.78324963722191
 30
0.0
 42
-0.2350866264857142
  0
VERTEX
  5
5BD
  8
16
 10
108.2837248007543
 20
37.96924351297408
 30
0.0
  0
VERTEX
  5
5BE
  8
16
 10
106.3788617938511
 20
39.87410651987729
 30
0.0
 42
-0.4649389526379462
  0
VERTEX
  5
5BF
  8
16
 10
105.0927248007543
 20
40.95824351297407
 30
0.0
  0
SEQEND
  5
5C0
  8
16
  0
LINE
  5
5C1
  8
20
 10
140.0910624322768
 20
3.463073852295418
 30
0.0
 11
9.301062432276808
 21
3.463073852295418
 31
0.0
  0
POLYLINE
  5
5C2
  8
20
 66
     1
 10
0.0
 20
0.0
 30
0.0
  0
VERTEX
  5
5C3
  8
20
 10
140.0910624322768
 20
31.25067385229542
 30
0.0
  0
VERTEX
  5
5C4
  8
20
 10
15.63106243227679
 20
31.25067385229542
 30
0.0
 42
-0.9999999999999999
  0
VERTEX
  5
5C5
  8
20
 10
15.63106243227679
 20
31.55547385229542
 30
0.0
  0
VERTEX
  5
5C6
  8
20
 10
140.0910624322768
 20
31.55547385229542
 30
0.0
 42
-0.9999999999999066
  0
VERTEX
  5
5C7
  8
20
 10
140.0910624322767
 20
31.25067385229542
 30
0.0
  0
SEQEND
  5
5C8
  8
20
  0
POLYLINE
  5
5C9
  8
20
 66
     1
 10
0.0
 20
0.0
 30
0.0
  0
VERTEX
  5
5CA
  8
20
 10
15.73886243227679
 20
31.29527385229542
 30
0.0
  0
VERTEX
  5
5CB
  8
20
 10
9.388862432276797
 20
24.94527385229541
 30
0.0
 42
-1.000000000000016
  0
VERTEX
  5
5CC
  8
20
 10
9.173262432276804
 20
25.16087385229542
 30
0.0
  0
VERTEX
  5
5CD
  8
20
 10
15.5232624322768
 20
31.51087385229542
 30
0.0
 42
-0.9999999999999835
  0
VERTEX
  5
5CE
  8
20
 10
15.73886243227679
 20
31.29527385229541
 30
0.0
  0
SEQEND
  5
5CF
  8
20
  0
POLYLINE
  5
5D0
  8
20
 66
     1
 10
0.0
 20
0.0
 30
0.0
  0
VERTEX
  5
5D1
  8
20
 10
9.433462432276798
 20
25.05307385229542
 30
0.0
  0
VERTEX
  5
5D2
  8
20
 10
9.433462432276798
 20
3.463073852295418
 30
0.0
 42
-0.9999999999999999
  0
VERTEX
  5
5D3
  8
20
 10
9.128662432276798
 20
3.463073852295418
 30
0.0
  0
VERTEX
  5
5D4
  8
20
 10
9.128662432276798
 20
25.05307385229542
 30
0.0
 42
-0.9999999999999999
  0
VERTEX
  5
5D5
  8
20
 10
9.433462432276798
 20
25.05307385229542
 30
0.0
  0
SEQEND
  5
5D6
  8
20
  0
POLYLINE
  5
5D7
  8
20
 66
     1
 10
0.0
 20
0.0
 30
0.0
  0
VERTEX
  5
5D8
  8
20
 10
140.2434624322768
 20
31.40307385229542
 30
0.0
  0
VERTEX
  5
5D9
  8
20
 10
140.2434624322768
 20
3.463073852295418
 30
0.0
 42
-1.000000000000093
  0
VERTEX
  5
5DA
  8
20
 10
139.9386624322768
 20
3.463073852295475
 30
0.0
  0
VERTEX
  5
5DB
  8
20
 10
139.9386624322768
 20
31.40307385229542
 30
0.0
 42
-1.000000000000093
  0
VERTEX
  5
5DC
  8
20
 10
140.2434624322768
 20
31.40307385229536
 30
0.0
  0
SEQEND
  5
5DD
  8
20
  0
POLYLINE
  5
5DE
  8
20
 66
     1
 10
0.0
 20
0.0
 30
0.0
  0
VERTEX
  5
5DF
  8
20
 10
140.0910624322768
 20
3.310673852295418
 30
0.0
  0
VERTEX
  5
5E0
  8
20
 10
9.281062432276798
 20
3.310673852295418
 30
0.0
 42
-0.9999999999999999
  0
VERTEX
  5
5E1
  8
20
 10
9.281062432276798
 20
3.615473852295418
 30
0.0
  0
VERTEX
  5
5E2
  8
20
 10
140.0910624322768
 20
3.615473852295417
 30
0.0
 42
-0.9999999999999082
  0
VERTEX
  5
5E3
  8
20
 10
140.0910624322767
 20
3.310673852295418
 30
0.0
  0
SEQEND
  5
5E4
  8
20
  0
CIRCLE
  5
5E5
  8
20
 10
-134.3760624322769
 20
9.178073852295418
 30
0.0
 40
1.8
210
0.0
220
0.0
230
-1.0
  0
CIRCLE
  5
5E6
  8
20
 10
-14.9960624322768
 20
9.178073852295418
 30
0.0
 40
1.8
210
0.0
220
0.0
230
-1.0
  0
CIRCLE
  5
5E7
  8
44
 10
-16.4438624322768
 20
19.97307385229542
 30
0.0
 40
0.6
210
0.0
220
0.0
230
-1.0
  0
CIRCLE
  5
5E8
  8
44
 10
-12.58826243227679
 20
19.97307385229542
 30
0.0
 40
0.6
210
0.0
220
0.0
230
-1.0
  0
CIRCLE
  5
5E9
  8
44
 10
-29.14386243227679
 20
19.97307385229542
 30
0.0
 40
0.6
210
0.0
220
0.0
230
-1.0
  0
CIRCLE
  5
5EA
  8
44
 10
-25.28826243227681
 20
19.97307385229542
 30
0.0
 40
0.6
210
0.0
220
0.0
230
-1.0
  0
CIRCLE
  5
5EB
  8
44
 10
-41.84386243227681
 20
19.97307385229542
 30
0.0
 40
0.6
210
0.0
220
0.0
230
-1.0
  0
CIRCLE
  5
5EC
  8
44
 10
-37.9882624322768
 20
19.97307385229542
 30
0.0
 40
0.6
210
0.0
220
0.0
230
-1.0
  0
CIRCLE
  5
5ED
  8
44
 10
-54.5438624322768
 20
19.97307385229542
 30
0.0
 40
0.6
210
0.0
220
0.0
230
-1.0
  0
CIRCLE
  5
5EE
  8
44
 10
-50.68826243227679
 20
19.97307385229542
 30
0.0
 40
0.6
210
0.0
220
0.0
230
-1.0
  0
CIRCLE
  5
5EF
  8
44
 10
-67.24386243227681
 20
19.97307385229542
 30
0.0
 40
0.6
210
0.0
220
0.0
230
-1.0
  0
CIRCLE
  5
5F0
  8
44
 10
-63.3882624322768
 20
19.97307385229542
 30
0.0
 40
0.6
210
0.0
220
0.0
230
-1.0
  0
CIRCLE
  5
5F1
  8
44
 10
-79.9438624322768
 20
19.97307385229542
 30
0.0
 40
0.6
210
0.0
220
0.0
230
-1.0
  0
CIRCLE
  5
5F2
  8
44
 10
-76.08826243227679
 20
19.97307385229542
 30
0.0
 40
0.6
210
0.0
220
0.0
230
-1.0
  0
CIRCLE
  5
5F3
  8
44
 10
-92.64386243227679
 20
19.97307385229542
 30
0.0
 40
0.6
210
0.0
220
0.0
230
-1.0
  0
CIRCLE
  5
5F4
  8
44
 10
-88.78826243227681
 20
19.97307385229542
 30
0.0
 40
0.6
210
0.0
220
0.0
230
-1.0
  0
CIRCLE
  5
5F5
  8
44
 10
-106.6138624322768
 20
19.97307385229542
 30
0.0
 40
0.6
210
0.0
220
0.0
230
-1.0
  0
CIRCLE
  5
5F6
  8
44
 10
-102.7582624322768
 20
19.97307385229542
 30
0.0
 40
0.6
210
0.0
220
0.0
230
-1.0
  0
CIRCLE
  5
5F7
  8
44
 10
-20.07606243227681
 20
19.97307385229542
 30
0.0
 40
0.4064
210
0.0
220
0.0
230
-1.0
  0
CIRCLE
  5
5F8
  8
44
 10
-20.07606243227681
 20
27.59307385229542
 30
0.0
 40
0.4064
210
0.0
220
0.0
230
-1.0
  0
CIRCLE
  5
5F9
  8
44
 10
-32.7760624322768
 20
19.97307385229542
 30
0.0
 40
0.4064
210
0.0
220
0.0
230
-1.0
  0
CIRCLE
  5
5FA
  8
44
 10
-32.7760624322768
 20
27.59307385229542
 30
0.0
 40
0.4064
210
0.0
220
0.0
230
-1.0
  0
CIRCLE
  5
5FB
  8
44
 10
-45.47606243227679
 20
19.97307385229542
 30
0.0
 40
0.4064
210
0.0
220
0.0
230
-1.0
  0
CIRCLE
  5
5FC
  8
44
 10
-45.47606243227679
 20
27.59307385229542
 30
0.0
 40
0.4064
210
0.0
220
0.0
230
-1.0
  0
CIRCLE
  5
5FD
  8
44
 10
-58.17606243227681
 20
19.97307385229542
 30
0.0
 40
0.4064
210
0.0
220
0.0
230
-1.0
  0
CIRCLE
  5
5FE
  8
44
 10
-58.17606243227681
 20
27.59307385229542
 30
0.0
 40
0.4064
210
0.0
220
0.0
230
-1.0
  0
CIRCLE
  5
5FF
  8
44
 10
-70.8760624322768
 20
19.97307385229542
 30
0.0
 40
0.4064
210
0.0
220
0.0
230
-1.0
  0
CIRCLE
  5
600
  8
44
 10
-70.8760624322768
 20
27.59307385229542
 30
0.0
 40
0.4064
210
0.0
220
0.0
230
-1.0
  0
CIRCLE
  5
601
  8
44
 10
-83.57606243227681
 20
19.97307385229542
 30
0.0
 40
0.4064
210
0.0
220
0.0
230
-1.0
  0
CIRCLE
  5
602
  8
44
 10
-83.57606243227681
 20
27.59307385229542
 30
0.0
 40
0.4064
210
0.0
220
0.0
230
-1.0
  0
CIRCLE
  5
603
  8
44
 10
-96.2760624322768
 20
19.97307385229542
 30
0.0
 40
0.4064
210
0.0
220
0.0
230
-1.0
  0
CIRCLE
  5
604
  8
44
 10
-96.2760624322768
 20
27.59307385229542
 30
0.0
 40
0.4064
210
0.0
220
0.0
230
-1.0
  0
CIRCLE
  5
605
  8
44
 10
-110.2460624322768
 20
19.97307385229542
 30
0.0
 40
0.4064
210
0.0
220
0.0
230
-1.0
  0
CIRCLE
  5
606
  8
44
 10
-110.2460624322768
 20
27.59307385229542
 30
0.0
 40
0.4064
210
0.0
220
0.0
230
-1.0
  0
CIRCLE
  5
607
  8
44
 10
-134.3760624322769
 20
21.24307385229542
 30
0.0
 40
0.5
210
0.0
220
0.0
230
-1.0
  0
CIRCLE
  5
608
  8
44
 10
-134.3760624322769
 20
23.78307385229542
 30
0.0
 40
0.5
210
0.0
220
0.0
230
-1.0
  0
CIRCLE
  5
609
  8
44
 10
-131.8360624322768
 20
21.24307385229542
 30
0.0
 40
0.5
210
0.0
220
0.0
230
-1.0
  0
CIRCLE
  5
60A
  8
44
 10
-131.8360624322768
 20
23.78307385229542
 30
0.0
 40
0.5
210
0.0
220
0.0
230
-1.0
  0
CIRCLE
  5
60B
  8
44
 10
-129.2960624322768
 20
21.24307385229542
 30
0.0
 40
0.5
210
0.0
220
0.0
230
-1.0
  0
CIRCLE
  5
60C
  8
44
 10
-129.2960624322768
 20
23.78307385229542
 30
0.0
 40
0.5
210
0.0
220
0.0
230
-1.0
  0
CIRCLE
  5
60D
  8
44
 10
-126.7560624322768
 20
21.24307385229542
 30
0.0
 40
0.5
210
0.0
220
0.0
230
-1.0
  0
CIRCLE
  5
60E
  8
44
 10
-126.7560624322768
 20
23.78307385229542
 30
0.0
 40
0.5
210
0.0
220
0.0
230
-1.0
  0
CIRCLE
  5
60F
  8
44
 10
-124.2160624322768
 20
21.24307385229542
 30
0.0
 40
0.5
210
0.0
220
0.0
230
-1.0
  0
CIRCLE
  5
610
  8
44
 10
-124.2160624322768
 20
23.78307385229542
 30
0.0
 40
0.5
210
0.0
220
0.0
230
-1.0
  0
CIRCLE
  5
611
  8
44
 10
-121.6760624322768
 20
21.24307385229542
 30
0.0
 40
0.5
210
0.0
220
0.0
230
-1.0
  0
CIRCLE
  5
612
  8
44
 10
-121.6760624322768
 20
23.78307385229542
 30
0.0
 40
0.5
210
0.0
220
0.0
230
-1.0
  0
CIRCLE
  5
613
  8
44
 10
-119.1360624322768
 20
21.24307385229542
 30
0.0
 40
0.5
210
0.0
220
0.0
230
-1.0
  0
CIRCLE
  5
614
  8
44
 10
-119.1360624322768
 20
23.78307385229542
 30
0.0
 40
0.5
210
0.0
220
0.0
230
-1.0
  0
POLYLINE
  5
616
  8
DEFAULT
 66
     1
 10
0.0
 20
0.0
 30
0.0
  0
VERTEX
  5
617
  8
DEFAULT
 10
113.4210633406516
 20
26.95806479704818
 30
0.0
  0
VERTEX
  5
618
  8
DEFAULT
 10
121.0552859165711
 20
26.95791453506121
 30
0.0
  0
VERTEX
  5
619
  8
DEFAULT
 10
121.0696311132978
 20
26.95743087358921
 30
0.0
  0
VERTEX
  5
61A
  8
DEFAULT
 10
121.084088447838
 20
26.95661450764828
 30
0.0
  0
VERTEX
  5
61B
  8
DEFAULT
 10
121.0986477992608
 20
26.95545737952342
 30
0.0
  0
VERTEX
  5
61C
  8
DEFAULT
 10
121.1132985068392
 20
26.95395177196912
 30
0.0
  0
VERTEX
  5
61D
  8
DEFAULT
 10
121.1280293793929
 20
26.95209034660165
 30
0.0
  0
VERTEX
  5
61E
  8
DEFAULT
 10
121.14282870757
 20
26.94986618250772
 30
0.0
  0
VERTEX
  5
61F
  8
DEFAULT
 10
121.1576842791614
 20
26.94727281482998
 30
0.0
  0
VERTEX
  5
620
  8
DEFAULT
 10
121.1725833975233
 20
26.94430427307393
 30
0.0
  0
VERTEX
  5
621
  8
DEFAULT
 10
121.1875129031555
 20
26.94095511886647
 30
0.0
  0
VERTEX
  5
622
  8
DEFAULT
 10
121.2024591984647
 20
26.93722048288464
 30
0.0
  0
VERTEX
  5
623
  8
DEFAULT
 10
121.2174082757112
 20
26.93309610066301
 30
0.0
  0
VERTEX
  5
624
  8
DEFAULT
 10
121.2323457481067
 20
26.92857834698158
 30
0.0
  0
VERTEX
  5
625
  8
DEFAULT
 10
121.2472568840082
 20
26.92366426853196
 30
0.0
  0
VERTEX
  5
626
  8
DEFAULT
 10
121.2621266441122
 20
26.91835161455906
 30
0.0
  0
VERTEX
  5
627
  8
DEFAULT
 10
121.2769397215275
 20
26.91263886517843
 30
0.0
  0
VERTEX
  5
628
  8
DEFAULT
 10
121.2916805845713
 20
26.90652525707608
 30
0.0
  0
VERTEX
  5
629
  8
DEFAULT
 10
121.3063335220976
 20
26.90001080630799
 30
0.0
  0
VERTEX
  5
62A
  8
DEFAULT
 10
121.3208826911398
 20
26.89309632793114
 30
0.0
  0
VERTEX
  5
62B
  8
DEFAULT
 10
121.3353121666137
 20
26.88578345221591
 30
0.0
  0
VERTEX
  5
62C
  8
DEFAULT
 10
121.3496059928021
 20
26.87807463721239
 30
0.0
  0
VERTEX
  5
62D
  8
DEFAULT
 10
121.3637482363114
 20
26.86997317746832
 30
0.0
  0
VERTEX
  5
62E
  8
DEFAULT
 10
121.3777230401704
 20
26.86148320872667
 30
0.0
  0
VERTEX
  5
62F
  8
DEFAULT
 10
121.3915146787148
 20
26.85260970846244
 30
0.0
  0
VERTEX
  5
630
  8
DEFAULT
 10
121.4051076128885
 20
26.84335849215456
 30
0.0
  0
VERTEX
  5
631
  8
DEFAULT
 10
121.4184865455757
 20
26.83373620522592
 30
0.0
  0
VERTEX
  5
632
  8
DEFAULT
 10
121.4316364765693
 20
26.8237503106245
 30
0.0
  0
VERTEX
  5
633
  8
DEFAULT
 10
121.4445427567772
 20
26.81340907205952
 30
0.0
  0
VERTEX
  5
634
  8
DEFAULT
 10
121.4571911412656
 20
26.802721532948
 30
0.0
  0
VERTEX
  5
635
  8
DEFAULT
 10
121.4695678407472
 20
26.79169749116955
 30
0.0
  0
VERTEX
  5
636
  8
DEFAULT
 10
121.4816595711279
 20
26.78034746976775
 30
0.0
  0
VERTEX
  5
637
  8
DEFAULT
 10
121.4934536007422
 20
26.7686826837771
 30
0.0
  0
VERTEX
  5
638
  8
DEFAULT
 10
122.1250624322768
 20
26.13707385229541
 30
0.0
 42
-0.1989026346150926
  0
VERTEX
  5
639
  8
DEFAULT
 10
122.3110533770296
 20
25.68807385229542
 30
0.0
  0
VERTEX
  5
63A
  8
DEFAULT
 10
122.3110624322768
 20
24.68128039869882
 30
0.0
  0
VERTEX
  5
63B
  8
DEFAULT
 10
122.5742689786797
 20
24.41807385229468
 30
0.0
  0
VERTEX
  5
63C
  8
DEFAULT
 10
123.3178558858735
 20
24.41807385229539
 30
0.0
 42
-0.5176982976384762
  0
VERTEX
  5
63D
  8
DEFAULT
 10
125.1142689786797
 20
24.41807385229469
 30
0.0
  0
VERTEX
  5
63E
  8
DEFAULT
 10
125.8578558858734
 20
24.41807385229541
 30
0.0
 42
-3.146781962845377
  0
VERTEX
  5
63F
  8
DEFAULT
 10
125.857855885874
 20
23.1480738522961
 30
0.0
  0
VERTEX
  5
640
  8
DEFAULT
 10
125.1142689786802
 20
23.14807385229542
 30
0.0
 42
-0.5176982976384726
  0
VERTEX
  5
641
  8
DEFAULT
 10
123.317855885874
 20
23.14807385229608
 30
0.0
  0
VERTEX
  5
642
  8
DEFAULT
 10
122.5742689786803
 20
23.14807385229538
 30
0.0
 42
-1.186299047106202
  0
VERTEX
  5
643
  8
DEFAULT
 10
121.0410624322776
 20
24.68128039869823
 30
0.0
  0
VERTEX
  5
644
  8
DEFAULT
 10
121.0410624322768
 20
25.42507385229542
 30
0.0
  0
VERTEX
  5
645
  8
DEFAULT
 10
120.7780624322768
 20
25.68807385229542
 30
0.0
  0
VERTEX
  5
646
  8
DEFAULT
 10
113.6840624322768
 20
25.68807385229542
 30
0.0
  0
VERTEX
  5
647
  8
DEFAULT
 10
110.063453600768
 20
22.06746502078666
 30
0.0
 42
-0.2008759561902381
  0
VERTEX
  5
648
  8
DEFAULT
 10
109.6110624322768
 20
21.87807385229543
 30
0.0
  0
VERTEX
  5
649
  8
DEFAULT
 10
104.7940624322768
 20
21.87807385229542
 30
0.0
  0
VERTEX
  5
64A
  8
DEFAULT
 10
103.5987255522871
 20
20.68273697230564
 30
0.0
 42
-1.430495383929146
  0
VERTEX
  5
64B
  8
DEFAULT
 10
101.6582624322768
 20
19.97307385229541
 30
0.0
  0
VERTEX
  5
64C
  8
DEFAULT
 10
101.67412543918
 20
20.15921084539218
 30
0.0
  0
VERTEX
  5
64D
  8
DEFAULT
 10
98.6852624322768
 20
23.14807385229542
 30
0.0
  0
VERTEX
  5
64E
  8
DEFAULT
 10
89.4232624322768
 20
23.14807385229542
 30
0.0
  0
VERTEX
  5
64F
  8
DEFAULT
 10
89.4232624322768
 20
20.87128039869882
 30
0.0
 42
-3.146781962845203
  0
VERTEX
  5
650
  8
DEFAULT
 10
88.15326243227759
 20
20.87128039869828
 30
0.0
  0
VERTEX
  5
651
  8
DEFAULT
 10
88.15326243227679
 20
23.14807385229542
 30
0.0
  0
VERTEX
  5
652
  8
DEFAULT
 10
76.72326243227681
 20
23.14807385229542
 30
0.0
  0
VERTEX
  5
653
  8
DEFAULT
 10
76.72326243227683
 20
20.87128039869882
 30
0.0
 42
-3.146781962845048
  0
VERTEX
  5
654
  8
DEFAULT
 10
75.4532624322776
 20
20.87128039869826
 30
0.0
  0
VERTEX
  5
655
  8
DEFAULT
 10
75.4532624322768
 20
23.14807385229542
 30
0.0
  0
VERTEX
  5
656
  8
DEFAULT
 10
64.0232624322768
 20
23.14807385229542
 30
0.0
  0
VERTEX
  5
657
  8
DEFAULT
 10
64.02326243227691
 20
20.87128039869884
 30
0.0
 42
-3.146781962845331
  0
VERTEX
  5
658
  8
DEFAULT
 10
62.75326243227762
 20
20.87128039869829
 30
0.0
  0
VERTEX
  5
659
  8
DEFAULT
 10
62.75326243227681
 20
23.14807385229542
 30
0.0
  0
VERTEX
  5
65A
  8
DEFAULT
 10
51.32326243227681
 20
23.14807385229542
 30
0.0
  0
VERTEX
  5
65B
  8
DEFAULT
 10
51.32326243227681
 20
20.87128039869882
 30
0.0
 42
-3.146781962845227
  0
VERTEX
  5
65C
  8
DEFAULT
 10
50.0532624322776
 20
20.8712803986982
 30
0.0
  0
VERTEX
  5
65D
  8
DEFAULT
 10
50.0532624322768
 20
23.14807385229542
 30
0.0
  0
VERTEX
  5
65E
  8
DEFAULT
 10
38.62326243227679
 20
23.14807385229542
 30
0.0
  0
VERTEX
  5
65F
  8
DEFAULT
 10
38.6232624322768
 20
20.87128039869884
 30
0.0
 42
-3.146781962845219
  0
VERTEX
  5
660
  8
DEFAULT
 10
37.3532624322776
 20
20.87128039869826
 30
0.0
  0
VERTEX
  5
661
  8
DEFAULT
 10
37.35326243227681
 20
23.14807385229542
 30
0.0
  0
VERTEX
  5
662
  8
DEFAULT
 10
25.9232624322768
 20
23.14807385229542
 30
0.0
  0
VERTEX
  5
663
  8
DEFAULT
 10
25.92326243227691
 20
20.87128039869887
 30
0.0
 42
-3.146781962845306
  0
VERTEX
  5
664
  8
DEFAULT
 10
24.6532624322775
 20
20.87128039869824
 30
0.0
  0
VERTEX
  5
665
  8
DEFAULT
 10
24.65326243227679
 20
23.14807385229542
 30
0.0
  0
VERTEX
  5
666
  8
DEFAULT
 10
15.25906243227681
 20
23.14807385229542
 30
0.0
  0
VERTEX
  5
667
  8
DEFAULT
 10
13.0910624322768
 20
20.98007385229543
 30
0.0
  0
VERTEX
  5
668
  8
DEFAULT
 10
13.0910624322768
 20
20.95143583029756
 30
0.0
 42
-3.104269147662789
  0
VERTEX
  5
669
  8
DEFAULT
 10
11.821062432277
 20
20.761365777917
 30
0.0
 42
-0.2047888537352565
  0
VERTEX
  5
66A
  8
DEFAULT
 10
12.01045360079459
 20
21.69546502076038
 30
0.0
  0
VERTEX
  5
66B
  8
DEFAULT
 10
14.54706243227679
 20
24.23207385229544
 30
0.0
 42
-0.1989026838334059
  0
VERTEX
  5
66C
  8
DEFAULT
 10
14.99606243227679
 20
24.41806479704817
 30
0.0
  0
VERTEX
  5
66D
  8
DEFAULT
 10
88.65606091831879
 20
24.41806479704817
 30
0.0
  0
VERTEX
  5
66E
  8
DEFAULT
 10
98.96248591657101
 20
24.41791453506121
 30
0.0
  0
VERTEX
  5
66F
  8
DEFAULT
 10
98.9768311132978
 20
24.41743087358921
 30
0.0
  0
VERTEX
  5
670
  8
DEFAULT
 10
98.991288447838
 20
24.41661450764828
 30
0.0
  0
VERTEX
  5
671
  8
DEFAULT
 10
99.00584779926069
 20
24.41545737952342
 30
0.0
  0
VERTEX
  5
672
  8
DEFAULT
 10
99.0204985068392
 20
24.41395177196912
 30
0.0
  0
VERTEX
  5
673
  8
DEFAULT
 10
99.035229379393
 20
24.41209034660166
 30
0.0
  0
VERTEX
  5
674
  8
DEFAULT
 10
99.05002870757
 20
24.40986618250772
 30
0.0
  0
VERTEX
  5
675
  8
DEFAULT
 10
99.06488427916139
 20
24.40727281482998
 30
0.0
  0
VERTEX
  5
676
  8
DEFAULT
 10
99.07978339752319
 20
24.40430427307392
 30
0.0
  0
VERTEX
  5
677
  8
DEFAULT
 10
99.0947129031554
 20
24.40095511886646
 30
0.0
  0
VERTEX
  5
678
  8
DEFAULT
 10
99.1096591984647
 20
24.39722048288463
 30
0.0
  0
VERTEX
  5
679
  8
DEFAULT
 10
99.1246082757111
 20
24.39309610066301
 30
0.0
  0
VERTEX
  5
67A
  8
DEFAULT
 10
99.1395457481066
 20
24.38857834698157
 30
0.0
  0
VERTEX
  5
67B
  8
DEFAULT
 10
99.1544568840082
 20
24.38366426853197
 30
0.0
  0
VERTEX
  5
67C
  8
DEFAULT
 10
99.16932664411209
 20
24.37835161455906
 30
0.0
  0
VERTEX
  5
67D
  8
DEFAULT
 10
99.18413972152749
 20
24.37263886517844
 30
0.0
  0
VERTEX
  5
67E
  8
DEFAULT
 10
99.19888058457121
 20
24.36652525707609
 30
0.0
  0
VERTEX
  5
67F
  8
DEFAULT
 10
99.2135335220976
 20
24.360010806308
 30
0.0
  0
VERTEX
  5
680
  8
DEFAULT
 10
99.22808269113969
 20
24.35309632793115
 30
0.0
  0
VERTEX
  5
681
  8
DEFAULT
 10
99.2425121666137
 20
24.34578345221593
 30
0.0
  0
VERTEX
  5
682
  8
DEFAULT
 10
99.25680599280199
 20
24.3380746372124
 30
0.0
  0
VERTEX
  5
683
  8
DEFAULT
 10
99.2709482363114
 20
24.32997317746835
 30
0.0
  0
VERTEX
  5
684
  8
DEFAULT
 10
99.28492304017041
 20
24.3214832087267
 30
0.0
  0
VERTEX
  5
685
  8
DEFAULT
 10
99.29871467871479
 20
24.31260970846247
 30
0.0
  0
VERTEX
  5
686
  8
DEFAULT
 10
99.31230761288859
 20
24.30335849215459
 30
0.0
  0
VERTEX
  5
687
  8
DEFAULT
 10
99.3256865455757
 20
24.29373620522595
 30
0.0
  0
VERTEX
  5
688
  8
DEFAULT
 10
99.3388364765693
 20
24.28375031062454
 30
0.0
  0
VERTEX
  5
689
  8
DEFAULT
 10
99.3517427567771
 20
24.27340907205955
 30
0.0
  0
VERTEX
  5
68A
  8
DEFAULT
 10
99.36439114126549
 20
24.26272153294803
 30
0.0
  0
VERTEX
  5
68B
  8
DEFAULT
 10
99.37676784074719
 20
24.25169749116959
 30
0.0
  0
VERTEX
  5
68C
  8
DEFAULT
 10
99.3888595711278
 20
24.24034746976779
 30
0.0
  0
VERTEX
  5
68D
  8
DEFAULT
 10
99.4006536007422
 20
24.22868268377714
 30
0.0
  0
VERTEX
  5
68E
  8
DEFAULT
 10
102.3746624322768
 20
21.25467385229542
 30
0.0
  0
VERTEX
  5
68F
  8
DEFAULT
 10
104.0820624322768
 20
22.96207385229543
 30
0.0
 42
-0.1989026838333582
  0
VERTEX
  5
690
  8
DEFAULT
 10
104.5310624322768
 20
23.14806479704819
 30
0.0
  0
VERTEX
  5
691
  8
DEFAULT
 10
109.3480624322768
 20
23.14807385229542
 30
0.0
  0
VERTEX
  5
692
  8
DEFAULT
 10
112.9720624322769
 20
26.77207385229541
 30
0.0
 42
-0.1989026991566339
  0
VERTEX
  5
693
  8
DEFAULT
 10
113.4210633406516
 20
26.95806479704817
 30
0.0
  0
SEQEND
  5
694
  8
DEFAULT
  0
POLYLINE
  5
695
  8
DEFAULT
 66
     1
 10
0.0
 20
0.0
 30
0.0
  0
VERTEX
  5
696
  8
DEFAULT
 10
133.2760624322767
 20
21.24307385229542
 30
0.0
 42
-1.643758476926779
  0
VERTEX
  5
697
  8
DEFAULT
 10
135.011062432276
 20
20.3448673058926
 30
0.0
  0
VERTEX
  5
698
  8
DEFAULT
 10
135.0110533770296
 20
19.33807374524242
 30
0.0
 42
-0.1989026328092311
  0
VERTEX
  5
699
  8
DEFAULT
 10
134.8250624322768
 20
18.88907385229542
 30
0.0
  0
VERTEX
  5
69A
  8
DEFAULT
 10
121.4934536007684
 20
5.55746502078697
 30
0.0
 42
-0.2008759561904535
  0
VERTEX
  5
69B
  8
DEFAULT
 10
121.0410624322768
 20
5.368073852295413
 30
0.0
  0
VERTEX
  5
69C
  8
DEFAULT
 10
34.046072802889
 20
5.368082907542676
 30
0.0
 42
-0.1989028587103844
  0
VERTEX
  5
69D
  8
DEFAULT
 10
33.59706243227681
 20
5.554073852295415
 30
0.0
  0
VERTEX
  5
69E
  8
DEFAULT
 10
20.26219942537361
 20
18.88893685919864
 30
0.0
 42
-0.2890287574722458
  0
VERTEX
  5
69F
  8
DEFAULT
 10
19.17785588587402
 20
19.33807385229616
 30
0.0
  0
VERTEX
  5
6A0
  8
DEFAULT
 10
17.3420689786802
 20
19.33807385229542
 30
0.0
 42
-3.146781962845503
  0
VERTEX
  5
6A1
  8
DEFAULT
 10
17.34206897867968
 20
20.60807385229471
 30
0.0
  0
VERTEX
  5
6A2
  8
DEFAULT
 10
19.17785588587349
 20
20.6080738522954
 30
0.0
 42
-0.7988844745594456
  0
VERTEX
  5
6A3
  8
DEFAULT
 10
21.16019942537348
 20
19.78693685919868
 30
0.0
  0
VERTEX
  5
6A4
  8
DEFAULT
 10
34.30906243227679
 20
6.638073852295417
 30
0.0
  0
VERTEX
  5
6A5
  8
DEFAULT
 10
120.7780624322768
 20
6.638073852295417
 30
0.0
  0
VERTEX
  5
6A6
  8
DEFAULT
 10
133.7410624322769
 20
19.60107385229543
 30
0.0
  0
VERTEX
  5
6A7
  8
DEFAULT
 10
133.7410624322768
 20
20.34486730589202
 30
0.0
 42
-0.2435012436058753
  0
VERTEX
  5
6A8
  8
DEFAULT
 10
133.2760624322768
 20
21.24307385229542
 30
0.0
  0
SEQEND
  5
6A9
  8
DEFAULT
  0
POLYLINE
  5
6AA
  8
DEFAULT
 66
     1
 10
0.0
 20
0.0
 30
0.0
  0
VERTEX
  5
6AB
  8
DEFAULT
 10
130.7360624322768
 20
21.24307385229542
 30
0.0
 42
-1.643758476926751
  0
VERTEX
  5
6AC
  8
DEFAULT
 10
132.471062432276
 20
20.34486730589261
 30
0.0
  0
VERTEX
  5
6AD
  8
DEFAULT
 10
132.4710533770296
 20
19.33807374524242
 30
0.0
 42
-0.1989026328090861
  0
VERTEX
  5
6AE
  8
DEFAULT
 10
132.2850624322768
 20
18.88907385229541
 30
0.0
  0
VERTEX
  5
6AF
  8
DEFAULT
 10
120.858453600769
 20
7.462465020787577
 30
0.0
 42
-0.2008759561906822
  0
VERTEX
  5
6B0
  8
DEFAULT
 10
120.4060624322768
 20
7.273073852295399
 30
0.0
  0
VERTEX
  5
6B1
  8
DEFAULT
 10
44.84106232522379
 20
7.273082907542682
 30
0.0
 42
-0.1989026328092811
  0
VERTEX
  5
6B2
  8
DEFAULT
 10
44.39206243227677
 20
7.459073852295413
 30
0.0
  0
VERTEX
  5
6B3
  8
DEFAULT
 10
32.9621994253736
 20
18.88893685919864
 30
0.0
 42
-0.289028757472249
  0
VERTEX
  5
6B4
  8
DEFAULT
 10
31.877855885874
 20
19.33807385229619
 30
0.0
  0
VERTEX
  5
6B5
  8
DEFAULT
 10
30.04206897868019
 20
19.33807385229542
 30
0.0
 42
-3.146781962844791
  0
VERTEX
  5
6B6
  8
DEFAULT
 10
30.04206897867972
 20
20.6080738522947
 30
0.0
  0
VERTEX
  5
6B7
  8
DEFAULT
 10
31.87785588587339
 20
20.60807385229545
 30
0.0
 42
-0.7988844745594673
  0
VERTEX
  5
6B8
  8
DEFAULT
 10
33.86019942537352
 20
19.78693685919867
 30
0.0
  0
VERTEX
  5
6B9
  8
DEFAULT
 10
45.10406243227681
 20
8.543073852295413
 30
0.0
  0
VERTEX
  5
6BA
  8
DEFAULT
 10
120.1430624322768
 20
8.543073852295418
 30
0.0
  0
VERTEX
  5
6BB
  8
DEFAULT
 10
131.2010624322768
 20
19.60107385229541
 30
0.0
  0
VERTEX
  5
6BC
  8
DEFAULT
 10
131.2010624322769
 20
20.34486730589201
 30
0.0
 42
-0.243501243605902
  0
VERTEX
  5
6BD
  8
DEFAULT
 10
130.7360624322768
 20
21.24307385229542
 30
0.0
  0
SEQEND
  5
6BE
  8
DEFAULT
  0
POLYLINE
  5
6BF
  8
DEFAULT
 66
     1
 10
0.0
 20
0.0
 30
0.0
  0
VERTEX
  5
6C0
  8
DEFAULT
 10
128.1960624322768
 20
21.24307385229542
 30
0.0
 42
-1.643758476926672
  0
VERTEX
  5
6C1
  8
DEFAULT
 10
129.9310624322761
 20
20.3448673058926
 30
0.0
  0
VERTEX
  5
6C2
  8
DEFAULT
 10
129.9310533770296
 20
19.33807374524242
 30
0.0
 42
-0.1989026328092732
  0
VERTEX
  5
6C3
  8
DEFAULT
 10
129.7450624322768
 20
18.88907385229541
 30
0.0
  0
VERTEX
  5
6C4
  8
DEFAULT
 10
120.2234536007688
 20
9.367465020787408
 30
0.0
 42
-0.2008759561906132
  0
VERTEX
  5
6C5
  8
DEFAULT
 10
119.7710624322768
 20
9.178073852295434
 30
0.0
  0
VERTEX
  5
6C6
  8
DEFAULT
 10
55.6360700777646
 20
9.178082907542647
 30
0.0
 42
-0.1989028127709393
  0
VERTEX
  5
6C7
  8
DEFAULT
 10
55.18706243227688
 20
9.364073852295421
 30
0.0
  0
VERTEX
  5
6C8
  8
DEFAULT
 10
45.66219942537359
 20
18.88893685919865
 30
0.0
 42
-0.2890287574723434
  0
VERTEX
  5
6C9
  8
DEFAULT
 10
44.57785588587398
 20
19.33807385229616
 30
0.0
  0
VERTEX
  5
6CA
  8
DEFAULT
 10
42.74206897868022
 20
19.33807385229541
 30
0.0
 42
-3.146781962844822
  0
VERTEX
  5
6CB
  8
DEFAULT
 10
42.74206897867961
 20
20.60807385229466
 30
0.0
  0
VERTEX
  5
6CC
  8
DEFAULT
 10
44.57785588587339
 20
20.60807385229541
 30
0.0
 42
-0.7988844745595192
  0
VERTEX
  5
6CD
  8
DEFAULT
 10
46.56019942537363
 20
19.78693685919863
 30
0.0
  0
VERTEX
  5
6CE
  8
DEFAULT
 10
55.89906243227679
 20
10.44807385229542
 30
0.0
  0
VERTEX
  5
6CF
  8
DEFAULT
 10
119.5080624322768
 20
10.44807385229542
 30
0.0
  0
VERTEX
  5
6D0
  8
DEFAULT
 10
128.6610624322768
 20
19.60107385229543
 30
0.0
  0
VERTEX
  5
6D1
  8
DEFAULT
 10
128.6610624322768
 20
20.34486730589201
 30
0.0
 42
-0.243501243605954
  0
VERTEX
  5
6D2
  8
DEFAULT
 10
128.1960624322768
 20
21.24307385229542
 30
0.0
  0
SEQEND
  5
6D3
  8
DEFAULT
  0
POLYLINE
  5
6D4
  8
DEFAULT
 66
     1
 10
0.0
 20
0.0
 30
0.0
  0
VERTEX
  5
6D5
  8
DEFAULT
 10
125.6560624322768
 20
21.24307385229542
 30
0.0
 42
-1.64375847692678
  0
VERTEX
  5
6D6
  8
DEFAULT
 10
127.391062432276
 20
20.34486730589252
 30
0.0
  0
VERTEX
  5
6D7
  8
DEFAULT
 10
127.3910533770296
 20
19.33807385229542
 30
0.0
 42
-0.1989025451807513
  0
VERTEX
  5
6D8
  8
DEFAULT
 10
127.2050625079726
 20
18.88907392799118
 30
0.0
  0
VERTEX
  5
6D9
  8
DEFAULT
 10
119.5884536007695
 20
11.27246502078806
 30
0.0
 42
-0.2008759561909483
  0
VERTEX
  5
6DA
  8
DEFAULT
 10
119.1360624322768
 20
11.08307385229541
 30
0.0
  0
VERTEX
  5
6DB
  8
DEFAULT
 10
66.43106232522379
 20
11.08308290754267
 30
0.0
 42
-0.1989026328093025
  0
VERTEX
  5
6DC
  8
DEFAULT
 10
65.9820624322768
 20
11.26907385229543
 30
0.0
  0
VERTEX
  5
6DD
  8
DEFAULT
 10
58.3621994253736
 20
18.88893685919863
 30
0.0
 42
-0.2890287574723108
  0
VERTEX
  5
6DE
  8
DEFAULT
 10
57.277855885874
 20
19.33807385229616
 30
0.0
  0
VERTEX
  5
6DF
  8
DEFAULT
 10
55.44206897868019
 20
19.33807385229542
 30
0.0
 42
-3.146781962845174
  0
VERTEX
  5
6E0
  8
DEFAULT
 10
55.4420689786797
 20
20.60807385229466
 30
0.0
  0
VERTEX
  5
6E1
  8
DEFAULT
 10
57.27785588587341
 20
20.60807385229542
 30
0.0
 42
-0.7988844745594719
  0
VERTEX
  5
6E2
  8
DEFAULT
 10
59.26019942537359
 20
19.78693685919869
 30
0.0
  0
VERTEX
  5
6E3
  8
DEFAULT
 10
66.69406243227681
 20
12.35307385229543
 30
0.0
  0
VERTEX
  5
6E4
  8
DEFAULT
 10
118.8730624322768
 20
12.35307385229542
 30
0.0
  0
VERTEX
  5
6E5
  8
DEFAULT
 10
126.1210624322769
 20
19.60107385229543
 30
0.0
  0
VERTEX
  5
6E6
  8
DEFAULT
 10
126.1210624322768
 20
20.34486730589201
 30
0.0
 42
-0.2435012436059397
  0
VERTEX
  5
6E7
  8
DEFAULT
 10
125.6560624322768
 20
21.24307385229542
 30
0.0
  0
SEQEND
  5
6E8
  8
DEFAULT
  0
POLYLINE
  5
6E9
  8
DEFAULT
 66
     1
 10
0.0
 20
0.0
 30
0.0
  0
VERTEX
  5
6EA
  8
DEFAULT
 10
123.1160624322768
 20
21.24307385229542
 30
0.0
 42
-1.643758476926777
  0
VERTEX
  5
6EB
  8
DEFAULT
 10
124.8510624322761
 20
20.34486730589254
 30
0.0
  0
VERTEX
  5
6EC
  8
DEFAULT
 10
124.8510533770296
 20
19.33807407938912
 30
0.0
 42
-0.1989026876644287
  0
VERTEX
  5
6ED
  8
DEFAULT
 10
124.6650624322768
 20
18.88907385229542
 30
0.0
  0
VERTEX
  5
6EE
  8
DEFAULT
 10
118.9534536007682
 20
13.1774650207868
 30
0.0
 42
-0.200875956190295
  0
VERTEX
  5
6EF
  8
DEFAULT
 10
118.5010624322768
 20
12.98807385229541
 30
0.0
  0
VERTEX
  5
6F0
  8
DEFAULT
 10
77.22606735264031
 20
12.98808290754267
 30
0.0
 42
-0.1989027668217662
  0
VERTEX
  5
6F1
  8
DEFAULT
 10
76.77706243227681
 20
13.17407385229541
 30
0.0
  0
VERTEX
  5
6F2
  8
DEFAULT
 10
71.06219942537359
 20
18.88893685919865
 30
0.0
 42
-0.2890287574723091
  0
VERTEX
  5
6F3
  8
DEFAULT
 10
69.97785588587399
 20
19.33807385229615
 30
0.0
  0
VERTEX
  5
6F4
  8
DEFAULT
 10
68.14206897868019
 20
19.33807385229541
 30
0.0
 42
-3.14678196284512
  0
VERTEX
  5
6F5
  8
DEFAULT
 10
68.14206897867969
 20
20.60807385229468
 30
0.0
  0
VERTEX
  5
6F6
  8
DEFAULT
 10
69.9778558858734
 20
20.60807385229541
 30
0.0
 42
-0.798884474559509
  0
VERTEX
  5
6F7
  8
DEFAULT
 10
71.96019942537359
 20
19.78693685919866
 30
0.0
  0
VERTEX
  5
6F8
  8
DEFAULT
 10
77.4890624322768
 20
14.25807385229542
 30
0.0
  0
VERTEX
  5
6F9
  8
DEFAULT
 10
118.2380624322768
 20
14.25807385229542
 30
0.0
  0
VERTEX
  5
6FA
  8
DEFAULT
 10
123.5810624322768
 20
19.60107385229541
 30
0.0
  0
VERTEX
  5
6FB
  8
DEFAULT
 10
123.5810624322768
 20
20.34486730589201
 30
0.0
 42
-0.2435012436059206
  0
VERTEX
  5
6FC
  8
DEFAULT
 10
123.1160624322768
 20
21.24307385229542
 30
0.0
  0
SEQEND
  5
6FD
  8
DEFAULT
  0
POLYLINE
  5
6FE
  8
DEFAULT
 66
     1
 10
0.0
 20
0.0
 30
0.0
  0
VERTEX
  5
6FF
  8
DEFAULT
 10
120.5760624322768
 20
21.24307385229542
 30
0.0
 42
-1.643758476926768
  0
VERTEX
  5
700
  8
DEFAULT
 10
122.3110624322761
 20
20.34486730589255
 30
0.0
  0
VERTEX
  5
701
  8
DEFAULT
 10
122.3110533770296
 20
19.33807374524242
 30
0.0
 42
-0.1989026328093226
  0
VERTEX
  5
702
  8
DEFAULT
 10
122.1250624322768
 20
18.88907385229542
 30
0.0
  0
VERTEX
  5
703
  8
DEFAULT
 10
118.3184536007689
 20
15.0824650207875
 30
0.0
 42
-0.2008759561907373
  0
VERTEX
  5
704
  8
DEFAULT
 10
117.8660624322768
 20
14.89307385229543
 30
0.0
  0
VERTEX
  5
705
  8
DEFAULT
 10
88.02106599007811
 20
14.89308290754266
 30
0.0
 42
-0.1989027438434926
  0
VERTEX
  5
706
  8
DEFAULT
 10
87.5720624322768
 20
15.07907385229542
 30
0.0
  0
VERTEX
  5
707
  8
DEFAULT
 10
83.76219942537361
 20
18.88893685919864
 30
0.0
 42
-0.2890287574722272
  0
VERTEX
  5
708
  8
DEFAULT
 10
82.67785588587402
 20
19.33807385229615
 30
0.0
  0
VERTEX
  5
709
  8
DEFAULT
 10
80.8420689786802
 20
19.33807385229542
 30
0.0
 42
-3.146781962845755
  0
VERTEX
  5
70A
  8
DEFAULT
 10
80.8420689786797
 20
20.6080738522947
 30
0.0
  0
VERTEX
  5
70B
  8
DEFAULT
 10
82.6778558858734
 20
20.60807385229543
 30
0.0
 42
-0.7988844745594853
  0
VERTEX
  5
70C
  8
DEFAULT
 10
84.66019942537359
 20
19.78693685919865
 30
0.0
  0
VERTEX
  5
70D
  8
DEFAULT
 10
88.28406243227681
 20
16.16307385229542
 30
0.0
  0
VERTEX
  5
70E
  8
DEFAULT
 10
117.6030624322768
 20
16.16307385229542
 30
0.0
  0
VERTEX
  5
70F
  8
DEFAULT
 10
121.0410624322768
 20
19.60107385229543
 30
0.0
  0
VERTEX
  5
710
  8
DEFAULT
 10
121.0410624322768
 20
20.34486730589201
 30
0.0
 42
-0.2435012436059046
  0
VERTEX
  5
711
  8
DEFAULT
 10
120.5760624322768
 20
21.24307385229542
 30
0.0
  0
SEQEND
  5
712
  8
DEFAULT
  0
POLYLINE
  5
713
  8
DEFAULT
 66
     1
 10
0.0
 20
0.0
 30
0.0
  0
VERTEX
  5
714
  8
DEFAULT
 10
118.0360624322768
 20
21.24307385229542
 30
0.0
 42
-1.643758476926659
  0
VERTEX
  5
715
  8
DEFAULT
 10
119.7710624322761
 20
20.34486730589261
 30
0.0
  0
VERTEX
  5
716
  8
DEFAULT
 10
119.7710533770295
 20
19.33807374524242
 30
0.0
 42
-0.1989026328094231
  0
VERTEX
  5
717
  8
DEFAULT
 10
119.5850624322768
 20
18.88907385229543
 30
0.0
  0
VERTEX
  5
718
  8
DEFAULT
 10
117.6834536007688
 20
16.98746502078738
 30
0.0
 42
-0.2008759561906044
  0
VERTEX
  5
719
  8
DEFAULT
 10
117.2310624322768
 20
16.7980738522954
 30
0.0
  0
VERTEX
  5
71A
  8
DEFAULT
 10
98.81606462751591
 20
16.79808290754266
 30
0.0
 42
-0.1989027208629177
  0
VERTEX
  5
71B
  8
DEFAULT
 10
98.36706243227681
 20
16.98407385229542
 30
0.0
  0
VERTEX
  5
71C
  8
DEFAULT
 10
96.4621994253736
 20
18.88893685919864
 30
0.0
 42
-0.2890287574722927
  0
VERTEX
  5
71D
  8
DEFAULT
 10
95.377855885874
 20
19.33807385229618
 30
0.0
  0
VERTEX
  5
71E
  8
DEFAULT
 10
93.54206897868018
 20
19.33807385229542
 30
0.0
 42
-3.146781962844762
  0
VERTEX
  5
71F
  8
DEFAULT
 10
93.54206897867972
 20
20.60807385229469
 30
0.0
  0
VERTEX
  5
720
  8
DEFAULT
 10
95.37785588587342
 20
20.60807385229544
 30
0.0
 42
-0.7988844745594754
  0
VERTEX
  5
721
  8
DEFAULT
 10
97.3601994253737
 20
19.78693685919865
 30
0.0
  0
VERTEX
  5
722
  8
DEFAULT
 10
99.0790624322768
 20
18.06807385229542
 30
0.0
  0
VERTEX
  5
723
  8
DEFAULT
 10
116.9680624322768
 20
18.06807385229542
 30
0.0
  0
VERTEX
  5
724
  8
DEFAULT
 10
118.5010624322769
 20
19.60107385229543
 30
0.0
  0
VERTEX
  5
725
  8
DEFAULT
 10
118.5010624322768
 20
20.34486730589201
 30
0.0
 42
-0.2435012436059447
  0
VERTEX
  5
726
  8
DEFAULT
 10
118.0360624322768
 20
21.24307385229542
 30
0.0
  0
SEQEND
  5
727
  8
DEFAULT
  0
POLYLINE
  5
728
  8
DEFAULT
 66
     1
 10
0.0
 20
0.0
 30
0.0
  0
VERTEX
  5
729
  8
DEFAULT
 10
118.237855885874
 20
24.41807385229468
 30
0.0
 42
-3.146781962842784
  0
VERTEX
  5
72A
  8
DEFAULT
 10
118.237855885874
 20
23.14807385229614
 30
0.0
  0
VERTEX
  5
72B
  8
DEFAULT
 10
114.3190624322768
 20
23.14807385229542
 30
0.0
  0
VERTEX
  5
72C
  8
DEFAULT
 10
111.3301994253736
 20
20.15921084539218
 30
0.0
 42
-0.7988844745596907
  0
VERTEX
  5
72D
  8
DEFAULT
 10
109.347855885874
 20
19.33807385229616
 30
0.0
  0
VERTEX
  5
72E
  8
DEFAULT
 10
107.5120689786802
 20
19.33807385229541
 30
0.0
 42
-3.146781962845421
  0
VERTEX
  5
72F
  8
DEFAULT
 10
107.5120689786797
 20
20.60807385229472
 30
0.0
  0
VERTEX
  5
730
  8
DEFAULT
 10
109.3478558858734
 20
20.60807385229542
 30
0.0
 42
-0.289028757471833
  0
VERTEX
  5
731
  8
DEFAULT
 10
110.4321994253736
 20
21.05721084539224
 30
0.0
  0
VERTEX
  5
732
  8
DEFAULT
 10
113.6070624322768
 20
24.23207385229541
 30
0.0
 42
-0.1989026838333684
  0
VERTEX
  5
733
  8
DEFAULT
 10
114.0560624322769
 20
24.41806479704819
 30
0.0
  0
VERTEX
  5
734
  8
DEFAULT
 10
118.2378558858734
 20
24.41807385229541
 30
0.0
  0
SEQEND
  5
735
  8
DEFAULT
  0
POLYLINE
  5
736
  8
DEFAULT
 66
     1
 10
0.0
 20
0.0
 30
0.0
  0
VERTEX
  5
737
  8
DEFAULT
 10
0.0
 20
0.0
 30
0.0
  0
VERTEX
  5
738
  8
DEFAULT
 10
150.0
 20
0.0
 30
0.0
  0
VERTEX
  5
739
  8
DEFAULT
 10
150.0
 20
100.0
 30
0.0
  0
VERTEX
  5
73A
  8
DEFAULT
 10
0.0
 20
100.0
 30
0.0
  0
VERTEX
  5
73B
  8
DEFAULT
 10
0.0
 20
0.0
 30
0.0
  0
SEQEND
  5
73C
  8
DEFAULT
  0
ENDSEC
  0
EOF
