  0
SECTION
  2
HEADER
  9
$ACADVER
  1
AC1009
  9
$DWGCODEPAGE
  3
ansi_1252
  9
$INSBASE
 10
0.0
 20
0.0
 30
0.0
  9
$EXTMIN
 10
54.16566236951512
 20
1.1938
 30
0.0
  9
$EXTMAX
 10
98.76808848052703
 20
71.83122611101187
 30
0.0
  9
$LIMMIN
 10
0.0
 20
0.0
  9
$LIMMAX
 10
12.0
 20
9.0
  9
$ORTHOMODE
 70
     0
  9
$REGENMODE
 70
     1
  9
$FILLMODE
 70
     1
  9
$QTEXTMODE
 70
     0
  9
$MIRRTEXT
 70
     1
  9
$DRAGMODE
 70
     2
  9
$LTSCALE
 40
1.0
  9
$OSMODE
 70
    37
  9
$ATTMODE
 70
     1
  9
$TEXTSIZE
 40
0.2
  9
$TRACEWID
 40
0.05
  9
$TEXTSTYLE
  7
STANDARD
  9
$CLAYER
  8
ROUTES
  9
$CELTYPE
  6
BYLAYER
  9
$CECOLOR
 62
   256
  9
$DIMSCALE
 40
1.0
  9
$DIMASZ
 40
0.18
  9
$DIMEXO
 40
0.0625
  9
$DIMDLI
 40
0.38
  9
$DIMRND
 40
0.0
  9
$DIMDLE
 40
0.0
  9
$DIMEXE
 40
0.18
  9
$DIMTP
 40
0.0
  9
$DIMTM
 40
0.0
  9
$DIMTXT
 40
0.18
  9
$DIMCEN
 40
0.09
  9
$DIMTSZ
 40
0.0
  9
$DIMTOL
 70
     0
  9
$DIMLIM
 70
     0
  9
$DIMTIH
 70
     1
  9
$DIMTOH
 70
     1
  9
$DIMSE1
 70
     0
  9
$DIMSE2
 70
     0
  9
$DIMTAD
 70
     0
  9
$DIMZIN
 70
     0
  9
$DIMBLK
  1

  9
$DIMASO
 70
     1
  9
$DIMSHO
 70
     1
  9
$DIMPOST
  1

  9
$DIMAPOST
  1

  9
$DIMALT
 70
     0
  9
$DIMALTD
 70
     2
  9
$DIMALTF
 40
25.4
  9
$DIMLFAC
 40
1.0
  9
$DIMTOFL
 70
     0
  9
$DIMTVP
 40
0.0
  9
$DIMTIX
 70
     0
  9
$DIMSOXD
 70
     0
  9
$DIMSAH
 70
     0
  9
$DIMBLK1
  1

  9
$DIMBLK2
  1

  9
$DIMSTYLE
  2
STANDARD
  9
$DIMCLRD
 70
     0
  9
$DIMCLRE
 70
     0
  9
$DIMCLRT
 70
     0
  9
$DIMTFAC
 40
1.0
  9
$DIMGAP
 40
0.09
  9
$LUNITS
 70
     2
  9
$LUPREC
 70
     3
  9
$SKETCHINC
 40
0.1
  9
$FILLETRAD
 40
0.5
  9
$AUNITS
 70
     0
  9
$AUPREC
 70
     0
  9
$MENU
  1
.
  9
$ELEVATION
 40
0.0
  9
$PELEVATION
 40
0.0
  9
$THICKNESS
 40
0.0
  9
$LIMCHECK
 70
     0
  9
$CHAMFERA
 40
0.0
  9
$CHAMFERB
 40
0.0
  9
$SKPOLY
 70
     0
  9
$TDCREATE
 40
2458178.723164826
  9
$TDUPDATE
 40
2458178.723179143
  9
$TDINDWG
 40
0.0000000116
  9
$TDUSRTIMER
 40
0.0000000116
  9
$USRTIMER
 70
     1
  9
$ANGBASE
 50
0.0
  9
$ANGDIR
 70
     0
  9
$PDMODE
 70
     0
  9
$PDSIZE
 40
0.0
  9
$PLINEWID
 40
0.0
  9
$COORDS
 70
     1
  9
$SPLFRAME
 70
     0
  9
$SPLINETYPE
 70
     6
  9
$SPLINESEGS
 70
     8
  9
$ATTDIA
 70
     0
  9
$ATTREQ
 70
     1
  9
$HANDLING
 70
     1
  9
$HANDSEED
  5
4D6
  9
$SURFTAB1
 70
     6
  9
$SURFTAB2
 70
     6
  9
$SURFTYPE
 70
     6
  9
$SURFU
 70
     6
  9
$SURFV
 70
     6
  9
$UCSNAME
  2

  9
$UCSORG
 10
0.0
 20
0.0
 30
0.0
  9
$UCSXDIR
 10
1.0
 20
0.0
 30
0.0
  9
$UCSYDIR
 10
0.0
 20
1.0
 30
0.0
  9
$PUCSNAME
  2

  9
$PUCSORG
 10
0.0
 20
0.0
 30
0.0
  9
$PUCSXDIR
 10
1.0
 20
0.0
 30
0.0
  9
$PUCSYDIR
 10
0.0
 20
1.0
 30
0.0
  9
$USERI1
 70
     0
  9
$USERI2
 70
     0
  9
$USERI3
 70
     0
  9
$USERI4
 70
     0
  9
$USERI5
 70
     0
  9
$USERR1
 40
0.0
  9
$USERR2
 40
0.0
  9
$USERR3
 40
0.0
  9
$USERR4
 40
0.0
  9
$USERR5
 40
0.0
  9
$WORLDVIEW
 70
     1
  9
$SHADEDGE
 70
     3
  9
$SHADEDIF
 70
    70
  9
$TILEMODE
 70
     1
  9
$MAXACTVP
 70
    64
  9
$PLIMCHECK
 70
     0
  9
$PEXTMIN
 10
1.000000000000000E+20
 20
1.000000000000000E+20
 30
1.000000000000000E+20
  9
$PEXTMAX
 10
-1.000000000000000E+20
 20
-1.000000000000000E+20
 30
-1.000000000000000E+20
  9
$PLIMMIN
 10
0.0
 20
0.0
  9
$PLIMMAX
 10
12.0
 20
9.0
  9
$UNITMODE
 70
     0
  9
$VISRETAIN
 70
     1
  9
$PLINEGEN
 70
     0
  9
$PSLTSCALE
 70
     1
  0
ENDSEC
  0
SECTION
  2
TABLES
  0
TABLE
  2
VPORT
 70
     1
  0
VPORT
  2
*ACTIVE
 70
     0
 10
0.0
 20
0.0
 11
1.0
 21
1.0
 12
76.46687542502107
 22
36.51251305550594
 13
0.0
 23
0.0
 14
0.5
 24
0.5
 15
0.5
 25
0.5
 16
0.0
 26
0.0
 36
1.0
 17
0.0
 27
0.0
 37
0.0
 40
72.05017463323212
 41
0.6314276802911241
 42
50.0
 43
0.0
 44
0.0
 50
0.0
 51
0.0
 71
     0
 72
   100
 73
     1
 74
     3
 75
     0
 76
     0
 77
     0
 78
     0
  0
ENDTAB
  0
TABLE
  2
LTYPE
 70
     1
  0
LTYPE
  2
CONTINUOUS
 70
     0
  3
Solid line
 72
    65
 73
     0
 40
0.0
  0
ENDTAB
  0
TABLE
  2
LAYER
 70
     4
  0
LAYER
  2
0
 70
     0
 62
     7
  6
CONTINUOUS
  0
LAYER
  2
CUT
 70
     0
 62
    30
  6
CONTINUOUS
  0
LAYER
  2
DRILL
 70
     0
 62
     4
  6
CONTINUOUS
  0
LAYER
  2
ROUTES
 70
     0
 62
     7
  6
CONTINUOUS
  0
ENDTAB
  0
TABLE
  2
STYLE
 70
     1
  0
STYLE
  2
STANDARD
 70
     0
 40
0.0
 41
1.0
 50
0.0
 71
     0
 42
0.2
  3
txt
  4

  0
ENDTAB
  0
TABLE
  2
VIEW
 70
     0
  0
ENDTAB
  0
TABLE
  2
UCS
 70
     0
  0
ENDTAB
  0
TABLE
  2
APPID
 70
     1
  0
APPID
  2
ACAD
 70
     0
  0
ENDTAB
  0
TABLE
  2
DIMSTYLE
 70
     1
  0
DIMSTYLE
  2
STANDARD
 70
     0
  3

  4

  5

  6

  7

 40
1.0
 41
0.18
 42
0.0625
 43
0.38
 44
0.18
 45
0.0
 46
0.0
 47
0.0
 48
0.0
140
0.18
141
0.09
142
0.0
143
25.4
144
1.0
145
0.0
146
1.0
147
0.09
 71
     0
 72
     0
 73
     1
 74
     1
 75
     0
 76
     0
 77
     0
 78
     0
170
     0
171
     2
172
     0
173
     0
174
     0
175
     0
176
     0
177
     0
178
     0
  0
ENDTAB
  0
ENDSEC
  0
SECTION
  2
BLOCKS
  0
BLOCK
  8
0
  2
$MODEL_SPACE
 70
     0
 10
0.0
 20
0.0
 30
0.0
  3
$MODEL_SPACE
  1

  0
ENDBLK
  5
21
  8
0
  0
BLOCK
 67
     1
  8
0
  2
$PAPER_SPACE
 70
     0
 10
0.0
 20
0.0
 30
0.0
  3
$PAPER_SPACE
  1

  0
ENDBLK
  5
1D
 67
     1
  8
0
  0
ENDSEC
  0
SECTION
  2
ENTITIES
  0
POLYLINE
  5
6B
  8
CUT
 66
     1
 10
0.0
 20
0.0
 30
0.0
  0
VERTEX
  5
6C
  8
CUT
 10
98.61568848052703
 20
1.27
 30
0.0
  0
VERTEX
  5
6D
  8
CUT
 10
98.61568848052703
 20
71.755
 30
0.0
 42
-0.9999999999999999
  0
VERTEX
  5
6E
  8
CUT
 10
98.76808848052703
 20
71.755
 30
0.0
  0
VERTEX
  5
6F
  8
CUT
 10
98.76808848052703
 20
1.27
 30
0.0
 42
-0.9999999999999999
  0
VERTEX
  5
70
  8
CUT
 10
98.61568848052703
 20
1.27
 30
0.0
  0
SEQEND
  5
71
  8
CUT
  0
POLYLINE
  5
72
  8
CUT
 66
     1
 10
0.0
 20
0.0
 30
0.0
  0
VERTEX
  5
73
  8
CUT
 10
98.69188848052703
 20
71.6788
 30
0.0
  0
VERTEX
  5
74
  8
CUT
 10
56.14688848052702
 20
71.6788
 30
0.0
 42
-0.9999999999999999
  0
VERTEX
  5
75
  8
CUT
 10
56.14688848052702
 20
71.8312
 30
0.0
  0
VERTEX
  5
76
  8
CUT
 10
98.69188848052703
 20
71.8312
 30
0.0
 42
-0.9999999999999999
  0
VERTEX
  5
77
  8
CUT
 10
98.69188848052703
 20
71.6788
 30
0.0
  0
SEQEND
  5
78
  8
CUT
  0
POLYLINE
  5
79
  8
CUT
 66
     1
 10
0.0
 20
0.0
 30
0.0
  0
VERTEX
  5
7A
  8
CUT
 10
56.20078848052702
 20
71.7011
 30
0.0
  0
VERTEX
  5
7B
  8
CUT
 10
54.29578848052702
 20
69.7961
 30
0.0
 42
-0.9999999999999999
  0
VERTEX
  5
7C
  8
CUT
 10
54.18798848052703
 20
69.9039
 30
0.0
  0
VERTEX
  5
7D
  8
CUT
 10
56.09298848052703
 20
71.80889999999998
 30
0.0
 42
-0.9999999999998023
  0
VERTEX
  5
7E
  8
CUT
 10
56.20078848052702
 20
71.7011
 30
0.0
  0
SEQEND
  5
7F
  8
CUT
  0
POLYLINE
  5
80
  8
CUT
 66
     1
 10
0.0
 20
0.0
 30
0.0
  0
VERTEX
  5
81
  8
CUT
 10
54.31808848052702
 20
69.85
 30
0.0
  0
VERTEX
  5
82
  8
CUT
 10
54.31808848052702
 20
1.27
 30
0.0
 42
-0.9999999999999999
  0
VERTEX
  5
83
  8
CUT
 10
54.16568848052702
 20
1.27
 30
0.0
  0
VERTEX
  5
84
  8
CUT
 10
54.16568848052702
 20
69.85
 30
0.0
 42
-0.9999999999999999
  0
VERTEX
  5
85
  8
CUT
 10
54.31808848052702
 20
69.85
 30
0.0
  0
SEQEND
  5
86
  8
CUT
  0
POLYLINE
  5
87
  8
CUT
 66
     1
 10
0.0
 20
0.0
 30
0.0
  0
VERTEX
  5
88
  8
CUT
 10
54.24188848052702
 20
1.3462
 30
0.0
  0
VERTEX
  5
89
  8
CUT
 10
98.69188848052703
 20
1.3462
 30
0.0
 42
-0.9999999999999999
  0
VERTEX
  5
8A
  8
CUT
 10
98.69188848052703
 20
1.1938
 30
0.0
  0
VERTEX
  5
8B
  8
CUT
 10
54.24188848052702
 20
1.1938
 30
0.0
 42
-0.9999999999999999
  0
VERTEX
  5
8C
  8
CUT
 10
54.24188848052702
 20
1.3462
 30
0.0
  0
SEQEND
  5
8D
  8
CUT
  0
CIRCLE
  5
8F
  8
DRILL
 10
-81.54688848052703
 20
12.065
 30
0.0
 40
0.4064
210
0.0
220
0.0
230
-1.0
  0
CIRCLE
  5
90
  8
DRILL
 10
-86.62688848052701
 20
12.065
 30
0.0
 40
0.4064
210
0.0
220
0.0
230
-1.0
  0
CIRCLE
  5
91
  8
DRILL
 10
-86.62688848052701
 20
23.495
 30
0.0
 40
0.4064
210
0.0
220
0.0
230
-1.0
  0
CIRCLE
  5
92
  8
DRILL
 10
-86.62688848052701
 20
18.415
 30
0.0
 40
0.4064
210
0.0
220
0.0
230
-1.0
  0
CIRCLE
  5
93
  8
DRILL
 10
-61.22688848052702
 20
23.495
 30
0.0
 40
0.4064
210
0.0
220
0.0
230
-1.0
  0
CIRCLE
  5
94
  8
DRILL
 10
-61.22688848052702
 20
28.575
 30
0.0
 40
0.4064
210
0.0
220
0.0
230
-1.0
  0
CIRCLE
  5
95
  8
DRILL
 10
-65.03688848052703
 20
13.335
 30
0.0
 40
0.4064
210
0.0
220
0.0
230
-1.0
  0
CIRCLE
  5
96
  8
DRILL
 10
-70.11688848052702
 20
13.335
 30
0.0
 40
0.4064
210
0.0
220
0.0
230
-1.0
  0
CIRCLE
  5
97
  8
DRILL
 10
-73.29188848052702
 20
4.175
 30
0.0
 40
1.4
210
0.0
220
0.0
230
-1.0
  0
CIRCLE
  5
98
  8
DRILL
 10
-68.49188848052702
 20
7.575
 30
0.0
 40
1.4
210
0.0
220
0.0
230
-1.0
  0
CIRCLE
  5
99
  8
DRILL
 10
-73.29188848052702
 20
10.425
 30
0.0
 40
1.6
210
0.0
220
0.0
230
-1.0
  0
CIRCLE
  5
9A
  8
CUT
 10
-92.97688848052702
 20
66.04
 30
0.0
 40
1.65
210
0.0
220
0.0
230
-1.0
  0
CIRCLE
  5
9B
  8
CUT
 10
-59.32188848052702
 20
66.04
 30
0.0
 40
1.65
210
0.0
220
0.0
230
-1.0
  0
CIRCLE
  5
9C
  8
CUT
 10
-59.95688848052702
 20
6.35
 30
0.0
 40
1.65
210
0.0
220
0.0
230
-1.0
  0
CIRCLE
  5
9D
  8
CUT
 10
-92.97688848052702
 20
6.35
 30
0.0
 40
1.65
210
0.0
220
0.0
230
-1.0
  0
CIRCLE
  5
9E
  8
DRILL
 10
-93.61188848052703
 20
16.51
 30
0.0
 40
0.508
210
0.0
220
0.0
230
-1.0
  0
CIRCLE
  5
9F
  8
DRILL
 10
-93.61188848052703
 20
19.05
 30
0.0
 40
0.508
210
0.0
220
0.0
230
-1.0
  0
CIRCLE
  5
A0
  8
DRILL
 10
-93.61188848052703
 20
21.59
 30
0.0
 40
0.508
210
0.0
220
0.0
230
-1.0
  0
CIRCLE
  5
A1
  8
DRILL
 10
-61.22688848052702
 20
19.685
 30
0.0
 40
0.508
210
0.0
220
0.0
230
-1.0
  0
CIRCLE
  5
A2
  8
DRILL
 10
-61.22688848052702
 20
17.145
 30
0.0
 40
0.508
210
0.0
220
0.0
230
-1.0
  0
CIRCLE
  5
A3
  8
DRILL
 10
-61.22688848052702
 20
14.605
 30
0.0
 40
0.508
210
0.0
220
0.0
230
-1.0
  0
CIRCLE
  5
A4
  8
DRILL
 10
-81.36908848052703
 20
5.715
 30
0.0
 40
0.6
210
0.0
220
0.0
230
-1.0
  0
CIRCLE
  5
A5
  8
DRILL
 10
-85.22468848052702
 20
5.715
 30
0.0
 40
0.6
210
0.0
220
0.0
230
-1.0
  0
CIRCLE
  5
A6
  8
DRILL
 10
-94.24688848052702
 20
54.4322
 30
0.0
 40
0.6
210
0.0
220
0.0
230
-1.0
  0
CIRCLE
  5
A7
  8
DRILL
 10
-94.24688848052702
 20
58.2878
 30
0.0
 40
0.6
210
0.0
220
0.0
230
-1.0
  0
CIRCLE
  5
A8
  8
DRILL
 10
-60.59188848052703
 20
53.34
 30
0.0
 40
0.5588
210
0.0
220
0.0
230
-1.0
  0
CIRCLE
  5
A9
  8
DRILL
 10
-60.59188848052703
 20
50.8
 30
0.0
 40
0.5588
210
0.0
220
0.0
230
-1.0
  0
CIRCLE
  5
AA
  8
DRILL
 10
-60.59188848052703
 20
48.26
 30
0.0
 40
0.5588
210
0.0
220
0.0
230
-1.0
  0
CIRCLE
  5
AB
  8
DRILL
 10
-60.59188848052703
 20
45.72
 30
0.0
 40
0.5588
210
0.0
220
0.0
230
-1.0
  0
CIRCLE
  5
AC
  8
DRILL
 10
-60.59188848052703
 20
36.83
 30
0.0
 40
0.5588
210
0.0
220
0.0
230
-1.0
  0
CIRCLE
  5
AD
  8
DRILL
 10
-60.59188848052703
 20
34.29
 30
0.0
 40
0.5588
210
0.0
220
0.0
230
-1.0
  0
CIRCLE
  5
AE
  8
DRILL
 10
-60.59188848052703
 20
31.75
 30
0.0
 40
0.5588
210
0.0
220
0.0
230
-1.0
  0
CIRCLE
  5
AF
  8
DRILL
 10
-82.18188848052702
 20
54.61
 30
0.0
 40
0.4
210
0.0
220
0.0
230
-1.0
  0
CIRCLE
  5
B0
  8
DRILL
 10
-82.18188848052702
 20
29.21
 30
0.0
 40
0.4
210
0.0
220
0.0
230
-1.0
  0
CIRCLE
  5
B1
  8
DRILL
 10
-82.18188848052702
 20
49.53
 30
0.0
 40
0.4
210
0.0
220
0.0
230
-1.0
  0
CIRCLE
  5
B2
  8
DRILL
 10
-82.18188848052702
 20
46.99
 30
0.0
 40
0.4
210
0.0
220
0.0
230
-1.0
  0
CIRCLE
  5
B3
  8
DRILL
 10
-82.18188848052702
 20
44.45
 30
0.0
 40
0.4
210
0.0
220
0.0
230
-1.0
  0
CIRCLE
  5
B4
  8
DRILL
 10
-82.18188848052702
 20
41.91
 30
0.0
 40
0.4
210
0.0
220
0.0
230
-1.0
  0
CIRCLE
  5
B5
  8
DRILL
 10
-82.18188848052702
 20
39.37
 30
0.0
 40
0.4
210
0.0
220
0.0
230
-1.0
  0
CIRCLE
  5
B6
  8
DRILL
 10
-82.18188848052702
 20
36.83
 30
0.0
 40
0.4
210
0.0
220
0.0
230
-1.0
  0
CIRCLE
  5
B7
  8
DRILL
 10
-82.18188848052702
 20
34.29
 30
0.0
 40
0.4
210
0.0
220
0.0
230
-1.0
  0
CIRCLE
  5
B8
  8
DRILL
 10
-82.18188848052702
 20
31.75
 30
0.0
 40
0.4
210
0.0
220
0.0
230
-1.0
  0
CIRCLE
  5
B9
  8
DRILL
 10
-82.18188848052702
 20
52.07
 30
0.0
 40
0.4
210
0.0
220
0.0
230
-1.0
  0
CIRCLE
  5
BA
  8
DRILL
 10
-66.94188848052701
 20
31.75
 30
0.0
 40
0.4
210
0.0
220
0.0
230
-1.0
  0
CIRCLE
  5
BB
  8
DRILL
 10
-66.94188848052701
 20
34.29
 30
0.0
 40
0.4
210
0.0
220
0.0
230
-1.0
  0
CIRCLE
  5
BC
  8
DRILL
 10
-66.94188848052701
 20
36.83
 30
0.0
 40
0.4
210
0.0
220
0.0
230
-1.0
  0
CIRCLE
  5
BD
  8
DRILL
 10
-66.94188848052701
 20
39.37
 30
0.0
 40
0.4
210
0.0
220
0.0
230
-1.0
  0
CIRCLE
  5
BE
  8
DRILL
 10
-66.94188848052701
 20
41.91
 30
0.0
 40
0.4
210
0.0
220
0.0
230
-1.0
  0
CIRCLE
  5
BF
  8
DRILL
 10
-66.94188848052701
 20
44.45
 30
0.0
 40
0.4
210
0.0
220
0.0
230
-1.0
  0
CIRCLE
  5
C0
  8
DRILL
 10
-66.94188848052701
 20
46.99
 30
0.0
 40
0.4
210
0.0
220
0.0
230
-1.0
  0
CIRCLE
  5
C1
  8
DRILL
 10
-66.94188848052701
 20
49.53
 30
0.0
 40
0.4
210
0.0
220
0.0
230
-1.0
  0
CIRCLE
  5
C2
  8
DRILL
 10
-66.94188848052701
 20
52.07
 30
0.0
 40
0.4
210
0.0
220
0.0
230
-1.0
  0
CIRCLE
  5
C3
  8
DRILL
 10
-66.94188848052701
 20
54.61
 30
0.0
 40
0.4
210
0.0
220
0.0
230
-1.0
  0
CIRCLE
  5
C4
  8
DRILL
 10
-66.94188848052701
 20
57.15
 30
0.0
 40
0.4
210
0.0
220
0.0
230
-1.0
  0
CIRCLE
  5
C5
  8
DRILL
 10
-82.18188848052702
 20
57.15
 30
0.0
 40
0.4
210
0.0
220
0.0
230
-1.0
  0
CIRCLE
  5
C6
  8
DRILL
 10
-82.18188848052702
 20
24.13
 30
0.0
 40
0.4
210
0.0
220
0.0
230
-1.0
  0
CIRCLE
  5
C7
  8
DRILL
 10
-66.94188848052701
 20
29.21
 30
0.0
 40
0.4
210
0.0
220
0.0
230
-1.0
  0
CIRCLE
  5
C8
  8
DRILL
 10
-82.18188848052702
 20
21.59
 30
0.0
 40
0.4
210
0.0
220
0.0
230
-1.0
  0
CIRCLE
  5
C9
  8
DRILL
 10
-82.18188848052702
 20
26.67
 30
0.0
 40
0.4
210
0.0
220
0.0
230
-1.0
  0
CIRCLE
  5
CA
  8
DRILL
 10
-66.94188848052701
 20
26.67
 30
0.0
 40
0.4
210
0.0
220
0.0
230
-1.0
  0
CIRCLE
  5
CB
  8
DRILL
 10
-66.94188848052701
 20
24.13
 30
0.0
 40
0.4
210
0.0
220
0.0
230
-1.0
  0
CIRCLE
  5
CC
  8
DRILL
 10
-66.94188848052701
 20
21.59
 30
0.0
 40
0.4
210
0.0
220
0.0
230
-1.0
  0
CIRCLE
  5
CD
  8
DRILL
 10
-90.43688848052702
 20
31.75
 30
0.0
 40
0.5
210
0.0
220
0.0
230
-1.0
  0
CIRCLE
  5
CE
  8
DRILL
 10
-92.97688848052702
 20
31.75
 30
0.0
 40
0.5
210
0.0
220
0.0
230
-1.0
  0
CIRCLE
  5
CF
  8
DRILL
 10
-90.43688848052702
 20
34.29
 30
0.0
 40
0.5
210
0.0
220
0.0
230
-1.0
  0
CIRCLE
  5
D0
  8
DRILL
 10
-92.97688848052702
 20
34.29
 30
0.0
 40
0.5
210
0.0
220
0.0
230
-1.0
  0
CIRCLE
  5
D1
  8
DRILL
 10
-90.43688848052702
 20
36.83
 30
0.0
 40
0.5
210
0.0
220
0.0
230
-1.0
  0
CIRCLE
  5
D2
  8
DRILL
 10
-92.97688848052702
 20
36.83
 30
0.0
 40
0.5
210
0.0
220
0.0
230
-1.0
  0
CIRCLE
  5
D3
  8
DRILL
 10
-90.43688848052702
 20
39.37
 30
0.0
 40
0.5
210
0.0
220
0.0
230
-1.0
  0
CIRCLE
  5
D4
  8
DRILL
 10
-92.97688848052702
 20
39.37
 30
0.0
 40
0.5
210
0.0
220
0.0
230
-1.0
  0
CIRCLE
  5
D5
  8
DRILL
 10
-90.43688848052702
 20
41.91
 30
0.0
 40
0.5
210
0.0
220
0.0
230
-1.0
  0
CIRCLE
  5
D6
  8
DRILL
 10
-92.97688848052702
 20
41.91
 30
0.0
 40
0.5
210
0.0
220
0.0
230
-1.0
  0
CIRCLE
  5
D7
  8
DRILL
 10
-90.43688848052702
 20
44.45
 30
0.0
 40
0.5
210
0.0
220
0.0
230
-1.0
  0
CIRCLE
  5
D8
  8
DRILL
 10
-92.97688848052702
 20
44.45
 30
0.0
 40
0.5
210
0.0
220
0.0
230
-1.0
  0
CIRCLE
  5
D9
  8
DRILL
 10
-90.43688848052702
 20
46.99
 30
0.0
 40
0.5
210
0.0
220
0.0
230
-1.0
  0
CIRCLE
  5
DA
  8
DRILL
 10
-92.97688848052702
 20
46.99
 30
0.0
 40
0.5
210
0.0
220
0.0
230
-1.0
  0
POLYLINE
  5
DC
  8
ROUTES
 66
     1
 10
0.0
 20
0.0
 30
0.0
  0
VERTEX
  5
DD
  8
ROUTES
 10
59.65208870459281
 20
49.36
 30
0.0
  0
VERTEX
  5
DE
  8
ROUTES
 10
61.53168866598575
 20
49.35999973773953
 30
0.0
 42
-0.2435037751801621
  0
VERTEX
  5
DF
  8
ROUTES
 10
62.42990098630082
 20
48.8949915703941
 30
0.0
 42
-0.2201666872705138
  0
VERTEX
  5
E0
  8
ROUTES
 10
62.94588848052702
 20
48.70900000000001
 30
0.0
  0
VERTEX
  5
E1
  8
ROUTES
 10
64.21588848052701
 20
47.43899999999999
 30
0.0
  0
VERTEX
  5
E2
  8
ROUTES
 10
64.225743851115
 20
47.42892340509141
 30
0.0
  0
VERTEX
  5
E3
  8
ROUTES
 10
64.23545864809763
 20
47.4185370760464
 30
0.0
  0
VERTEX
  5
E4
  8
ROUTES
 10
64.2450205334026
 20
47.40784184064749
 30
0.0
  0
VERTEX
  5
E5
  8
ROUTES
 10
64.25441700217054
 20
47.39683910507841
 30
0.0
  0
VERTEX
  5
E6
  8
ROUTES
 10
64.26363541275158
 20
47.38553087520208
 30
0.0
  0
VERTEX
  5
E7
  8
ROUTES
 10
64.2726630188903
 20
47.37391977624519
 30
0.0
  0
VERTEX
  5
E8
  8
ROUTES
 10
64.28148700402701
 20
47.36200907066805
 30
0.0
  0
VERTEX
  5
E9
  8
ROUTES
 10
64.2900945176195
 20
47.34980267399774
 30
0.0
  0
VERTEX
  5
EA
  8
ROUTES
 10
64.2984727133657
 20
47.33730516840627
 30
0.0
  0
VERTEX
  5
EB
  8
ROUTES
 10
64.30660878918407
 20
47.32452181382056
 30
0.0
  0
VERTEX
  5
EC
  8
ROUTES
 10
64.31449002878331
 20
47.31145855635913
 30
0.0
  0
VERTEX
  5
ED
  8
ROUTES
 10
64.32210384462954
 20
47.29812203390205
 30
0.0
  0
VERTEX
  5
EE
  8
ROUTES
 10
64.32943782209553
 20
47.28451957861426
 30
0.0
  0
VERTEX
  5
EF
  8
ROUTES
 10
64.33647976455349
 20
47.27065921625982
 30
0.0
  0
VERTEX
  5
F0
  8
ROUTES
 10
64.3432177391524
 20
47.25654966216453
 30
0.0
  0
VERTEX
  5
F1
  8
ROUTES
 10
64.3496401230007
 20
47.24220031370697
 30
0.0
  0
VERTEX
  5
F2
  8
ROUTES
 10
64.35573564945835
 20
47.22762123924402
 30
0.0
  0
VERTEX
  5
F3
  8
ROUTES
 10
64.36149345422706
 20
47.21282316340422
 30
0.0
  0
VERTEX
  5
F4
  8
ROUTES
 10
64.36690312091557
 20
47.19781744871322
 30
0.0
  0
VERTEX
  5
F5
  8
ROUTES
 10
64.37195472574858
 20
47.18261607354722
 30
0.0
  0
VERTEX
  5
F6
  8
ROUTES
 10
64.37663888108221
 20
47.16723160644408
 30
0.0
  0
VERTEX
  5
F7
  8
ROUTES
 10
64.38094677738745
 20
47.15167717683642
 30
0.0
  0
VERTEX
  5
F8
  8
ROUTES
 10
64.38487022336615
 20
47.13596644230637
 30
0.0
  0
VERTEX
  5
F9
  8
ROUTES
 10
64.38840168387021
 20
47.12011355249736
 30
0.0
  0
VERTEX
  5
FA
  8
ROUTES
 10
64.39153431530566
 20
47.1041331098528
 30
0.0
  0
VERTEX
  5
FB
  8
ROUTES
 10
64.39426199821824
 20
47.08804012738628
 30
0.0
  0
VERTEX
  5
FC
  8
ROUTES
 10
64.39657936677615
 20
47.07184998372018
 30
0.0
  0
VERTEX
  5
FD
  8
ROUTES
 10
64.39848183488877
 20
47.05557837566036
 30
0.0
  0
VERTEX
  5
FE
  8
ROUTES
 10
64.39996561872644
 20
47.03924126860257
 30
0.0
  0
VERTEX
  5
FF
  8
ROUTES
 10
64.40102775543646
 20
47.02285484509149
 30
0.0
  0
VERTEX
  5
100
  8
ROUTES
 10
64.4016661178838
 20
47.00643545187483
 30
0.0
  0
VERTEX
  5
101
  8
ROUTES
 10
64.40188848052702
 20
43.443
 30
0.0
  0
VERTEX
  5
102
  8
ROUTES
 10
65.299888480527
 20
42.545
 30
0.0
  0
VERTEX
  5
103
  8
ROUTES
 10
65.38968193412362
 20
42.545
 30
0.0
 42
-0.2435011510274587
  0
VERTEX
  5
104
  8
ROUTES
 10
66.28788845098411
 20
43.00999999999996
 30
0.0
  0
VERTEX
  5
105
  8
ROUTES
 10
67.59588829508066
 20
43.00999999999996
 30
0.0
 42
-1.000000168587644
  0
VERTEX
  5
106
  8
ROUTES
 10
67.59588829508066
 20
40.81000000000002
 30
0.0
  0
VERTEX
  5
107
  8
ROUTES
 10
66.28788829505835
 20
40.81000000000003
 30
0.0
 42
-0.2435011525293128
  0
VERTEX
  5
108
  8
ROUTES
 10
65.38968193412416
 20
41.27500000000074
 30
0.0
  0
VERTEX
  5
109
  8
ROUTES
 10
65.03688848052703
 20
41.27499999999998
 30
0.0
 42
-0.2008759562279962
  0
VERTEX
  5
10A
  8
ROUTES
 10
64.58449731206022
 20
41.46439116851969
 30
0.0
  0
VERTEX
  5
10B
  8
ROUTES
 10
63.31788848052703
 20
42.731
 30
0.0
  0
VERTEX
  5
10C
  8
ROUTES
 10
63.30803310993905
 20
42.74107659490858
 30
0.0
  0
VERTEX
  5
10D
  8
ROUTES
 10
63.29831831295642
 20
42.7514629239536
 30
0.0
  0
VERTEX
  5
10E
  8
ROUTES
 10
63.28875642765146
 20
42.76215815935251
 30
0.0
  0
VERTEX
  5
10F
  8
ROUTES
 10
63.27935995888352
 20
42.77316089492159
 30
0.0
  0
VERTEX
  5
110
  8
ROUTES
 10
63.27014154830248
 20
42.78446912479792
 30
0.0
  0
VERTEX
  5
111
  8
ROUTES
 10
63.26111394216376
 20
42.79608022375481
 30
0.0
  0
VERTEX
  5
112
  8
ROUTES
 10
63.25228995702703
 20
42.80799092933194
 30
0.0
  0
VERTEX
  5
113
  8
ROUTES
 10
63.24368244343457
 20
42.82019732600226
 30
0.0
  0
VERTEX
  5
114
  8
ROUTES
 10
63.23530424768836
 20
42.83269483159372
 30
0.0
  0
VERTEX
  5
115
  8
ROUTES
 10
63.22716817186999
 20
42.84547818617945
 30
0.0
  0
VERTEX
  5
116
  8
ROUTES
 10
63.21928693227076
 20
42.85854144364087
 30
0.0
  0
VERTEX
  5
117
  8
ROUTES
 10
63.21167311642452
 20
42.87187796609795
 30
0.0
  0
VERTEX
  5
118
  8
ROUTES
 10
63.20433913895856
 20
42.88548042138575
 30
0.0
  0
VERTEX
  5
119
  8
ROUTES
 10
63.19729719650059
 20
42.89934078374019
 30
0.0
  0
VERTEX
  5
11A
  8
ROUTES
 10
63.19055922190167
 20
42.91345033783549
 30
0.0
  0
VERTEX
  5
11B
  8
ROUTES
 10
63.18413683805336
 20
42.92779968629303
 30
0.0
  0
VERTEX
  5
11C
  8
ROUTES
 10
63.17804131159569
 20
42.94237876075597
 30
0.0
  0
VERTEX
  5
11D
  8
ROUTES
 10
63.17228350682699
 20
42.95717683659578
 30
0.0
  0
VERTEX
  5
11E
  8
ROUTES
 10
63.16687384013849
 20
42.97218255128678
 30
0.0
  0
VERTEX
  5
11F
  8
ROUTES
 10
63.16182223530546
 20
42.98738392645277
 30
0.0
  0
VERTEX
  5
120
  8
ROUTES
 10
63.15713807997184
 20
43.00276839355591
 30
0.0
  0
VERTEX
  5
121
  8
ROUTES
 10
63.1528301836666
 20
43.01832282316358
 30
0.0
  0
VERTEX
  5
122
  8
ROUTES
 10
63.14890673768789
 20
43.03403355769363
 30
0.0
  0
VERTEX
  5
123
  8
ROUTES
 10
63.14537527718384
 20
43.04988644750264
 30
0.0
  0
VERTEX
  5
124
  8
ROUTES
 10
63.14224264574836
 20
43.0658668901472
 30
0.0
  0
VERTEX
  5
125
  8
ROUTES
 10
63.13951496283581
 20
43.08195987261373
 30
0.0
  0
VERTEX
  5
126
  8
ROUTES
 10
63.13719759427791
 20
43.09815001627983
 30
0.0
  0
VERTEX
  5
127
  8
ROUTES
 10
63.13529512616527
 20
43.11442162433964
 30
0.0
  0
VERTEX
  5
128
  8
ROUTES
 10
63.13381134232762
 20
43.13075873139744
 30
0.0
  0
VERTEX
  5
129
  8
ROUTES
 10
63.13274920561758
 20
43.14714515490851
 30
0.0
  0
VERTEX
  5
12A
  8
ROUTES
 10
63.13211084317023
 20
43.16356454812517
 30
0.0
  0
VERTEX
  5
12B
  8
ROUTES
 10
63.13188848052702
 20
46.72699999999999
 30
0.0
  0
VERTEX
  5
12C
  8
ROUTES
 10
62.34237987798294
 20
47.51650860254406
 30
0.0
 42
-0.2101671337309915
  0
VERTEX
  5
12D
  8
ROUTES
 10
61.53168844191997
 20
47.16000000000003
 30
0.0
  0
VERTEX
  5
12E
  8
ROUTES
 10
59.65208848052703
 20
47.16000026226043
 30
0.0
 42
-1.00000038964487
  0
VERTEX
  5
12F
  8
ROUTES
 10
59.65208870459282
 20
49.36000000000001
 30
0.0
  0
SEQEND
  5
130
  8
ROUTES
  0
POLYLINE
  5
131
  8
ROUTES
 66
     1
 10
0.0
 20
0.0
 30
0.0
  0
VERTEX
  5
132
  8
ROUTES
 10
59.65208848052703
 20
46.82
 30
0.0
  0
VERTEX
  5
133
  8
ROUTES
 10
61.53168829498993
 20
46.81999999999996
 30
0.0
 42
-1.000000168670109
  0
VERTEX
  5
134
  8
ROUTES
 10
61.53168829498993
 20
44.62000000000005
 30
0.0
  0
VERTEX
  5
135
  8
ROUTES
 10
61.22688848052702
 20
44.62
 30
0.0
  0
VERTEX
  5
136
  8
ROUTES
 10
61.22688848052703
 20
42.80799999999999
 30
0.0
  0
VERTEX
  5
137
  8
ROUTES
 10
64.029888480527
 20
40.00500000000001
 30
0.0
  0
VERTEX
  5
138
  8
ROUTES
 10
65.38968193412362
 20
40.00500000000001
 30
0.0
 42
-0.2435015583340179
  0
VERTEX
  5
139
  8
ROUTES
 10
66.28788866600686
 20
40.46999973773953
 30
0.0
  0
VERTEX
  5
13A
  8
ROUTES
 10
67.59588829508034
 20
40.46999973773953
 30
0.0
 42
-1.000000287797236
  0
VERTEX
  5
13B
  8
ROUTES
 10
67.59588829508034
 20
38.27000000000003
 30
0.0
  0
VERTEX
  5
13C
  8
ROUTES
 10
66.28788866600685
 20
38.27000000000002
 30
0.0
 42
-0.2435012787000289
  0
VERTEX
  5
13D
  8
ROUTES
 10
65.38968193412416
 20
38.73500000000073
 30
0.0
  0
VERTEX
  5
13E
  8
ROUTES
 10
63.76688848052702
 20
38.735
 30
0.0
 42
-0.2008759562278148
  0
VERTEX
  5
13F
  8
ROUTES
 10
63.3144973120606
 20
38.92439116851932
 30
0.0
  0
VERTEX
  5
140
  8
ROUTES
 10
60.14627964901976
 20
42.09260883150726
 30
0.0
 42
-0.2008759561880324
  0
VERTEX
  5
141
  8
ROUTES
 10
59.95688848052701
 20
42.545
 30
0.0
  0
VERTEX
  5
142
  8
ROUTES
 10
59.95688848052701
 20
44.62
 30
0.0
  0
VERTEX
  5
143
  8
ROUTES
 10
59.65208848052703
 20
44.62
 30
0.0
 42
-1.00000000000001
  0
VERTEX
  5
144
  8
ROUTES
 10
59.6520884805271
 20
46.82
 30
0.0
  0
SEQEND
  5
145
  8
ROUTES
  0
POLYLINE
  5
146
  8
ROUTES
 66
     1
 10
0.0
 20
0.0
 30
0.0
  0
VERTEX
  5
147
  8
ROUTES
 10
59.956889035079
 20
54.43999999999999
 30
0.0
  0
VERTEX
  5
148
  8
ROUTES
 10
59.95711084631459
 20
57.801435982253
 30
0.0
  0
VERTEX
  5
149
  8
ROUTES
 10
59.95774921169729
 20
57.81785534522513
 30
0.0
  0
VERTEX
  5
14A
  8
ROUTES
 10
59.95881135112843
 20
57.83424173914685
 30
0.0
  0
VERTEX
  5
14B
  8
ROUTES
 10
59.96029513746856
 20
57.8505788173067
 30
0.0
  0
VERTEX
  5
14C
  8
ROUTES
 10
59.96219760786152
 20
57.86685039719476
 30
0.0
  0
VERTEX
  5
14D
  8
ROUTES
 10
59.96451497847495
 20
57.88304051344848
 30
0.0
  0
VERTEX
  5
14E
  8
ROUTES
 10
59.96724266321657
 20
57.8991334692935
 30
0.0
  0
VERTEX
  5
14F
  8
ROUTES
 10
59.97037529625373
 20
57.91511388613709
 30
0.0
  0
VERTEX
  5
150
  8
ROUTES
 10
59.97390675813224
 20
57.93096675099343
 30
0.0
  0
VERTEX
  5
151
  8
ROUTES
 10
59.97783020525902
 20
57.94667746144478
 30
0.0
  0
VERTEX
  5
152
  8
ROUTES
 10
59.98213810248775
 20
57.96223186787137
 30
0.0
  0
VERTEX
  5
153
  8
ROUTES
 10
59.98682225852291
 20
57.97761631271251
 30
0.0
  0
VERTEX
  5
154
  8
ROUTES
 10
59.99187386383883
 20
57.99281766655477
 30
0.0
  0
VERTEX
  5
155
  8
ROUTES
 10
59.99728353079572
 20
58.00782336087723
 30
0.0
  0
VERTEX
  5
156
  8
ROUTES
 10
60.00304133562314
 20
58.02262141731833
 30
0.0
  0
VERTEX
  5
157
  8
ROUTES
 10
60.00913686193536
 20
58.03720047336475
 30
0.0
  0
VERTEX
  5
158
  8
ROUTES
 10
60.01555924544013
 20
58.0515498043979
 30
0.0
  0
VERTEX
  5
159
  8
ROUTES
 10
60.02229721950405
 20
58.06565934206861
 30
0.0
  0
VERTEX
  5
15A
  8
ROUTES
 10
60.02933916124274
 20
58.07951968900364
 30
0.0
  0
VERTEX
  5
15B
  8
ROUTES
 10
60.03667313781281
 20
58.09312212988034
 30
0.0
  0
VERTEX
  5
15C
  8
ROUTES
 10
60.04428695259445
 20
58.1064586389355
 30
0.0
  0
VERTEX
  5
15D
  8
ROUTES
 10
60.05216819096876
 20
58.11952188400292
 30
0.0
  0
VERTEX
  5
15E
  8
ROUTES
 10
60.06030426541049
 20
58.13230522719916
 30
0.0
  0
VERTEX
  5
15F
  8
ROUTES
 10
60.06868245963722
 20
58.14480272240029
 30
0.0
  0
VERTEX
  5
160
  8
ROUTES
 10
60.07728997157637
 20
58.15700910967205
 30
0.0
  0
VERTEX
  5
161
  8
ROUTES
 10
60.08611395493512
 20
58.1689198068332
 30
0.0
  0
VERTEX
  5
162
  8
ROUTES
 10
60.09514155918038
 20
58.18053089834567
 30
0.0
  0
VERTEX
  5
163
  8
ROUTES
 10
60.10435996776174
 20
58.19183912173655
 30
0.0
  0
VERTEX
  5
164
  8
ROUTES
 10
60.11375643443296
 20
58.20284185176488
 30
0.0
  0
VERTEX
  5
165
  8
ROUTES
 10
60.1233183175533
 20
58.2135370825521
 30
0.0
  0
VERTEX
  5
166
  8
ROUTES
 10
60.13303311227246
 20
58.2239234078974
 30
0.0
  0
VERTEX
  5
167
  8
ROUTES
 10
60.14288848052703
 20
58.23399999999999
 30
0.0
  0
VERTEX
  5
168
  8
ROUTES
 10
63.31788848052703
 20
61.409
 30
0.0
  0
VERTEX
  5
169
  8
ROUTES
 10
63.32796507505359
 20
61.41885537058798
 30
0.0
  0
VERTEX
  5
16A
  8
ROUTES
 10
63.33835140293894
 20
61.42857016757062
 30
0.0
  0
VERTEX
  5
16B
  8
ROUTES
 10
63.34904663638068
 20
61.43813205287557
 30
0.0
  0
VERTEX
  5
16C
  8
ROUTES
 10
63.3600493691759
 20
61.44752852164351
 30
0.0
  0
VERTEX
  5
16D
  8
ROUTES
 10
63.37135759544336
 20
61.45674693222454
 30
0.0
  0
VERTEX
  5
16E
  8
ROUTES
 10
63.38296868993884
 20
61.46577453836328
 30
0.0
  0
VERTEX
  5
16F
  8
ROUTES
 10
63.39487939018557
 20
61.4745985235
 30
0.0
  0
VERTEX
  5
170
  8
ROUTES
 10
63.40708578064103
 20
61.48320603709247
 30
0.0
  0
VERTEX
  5
171
  8
ROUTES
 10
63.41958327911892
 20
61.49158423283865
 30
0.0
  0
VERTEX
  5
172
  8
ROUTES
 10
63.43236662567931
 20
61.49972030865702
 30
0.0
  0
VERTEX
  5
173
  8
ROUTES
 10
63.44542987419199
 20
61.50760154825625
 30
0.0
  0
VERTEX
  5
174
  8
ROUTES
 10
63.45876638676661
 20
61.51521536410249
 30
0.0
  0
VERTEX
  5
175
  8
ROUTES
 10
63.47236883122945
 20
61.52254934156847
 30
0.0
  0
VERTEX
  5
176
  8
ROUTES
 10
63.48622918180926
 20
61.52959128402644
 30
0.0
  0
VERTEX
  5
177
  8
ROUTES
 10
63.50033872317468
 20
61.53632925862534
 30
0.0
  0
VERTEX
  5
178
  8
ROUTES
 10
63.51468805794325
 20
61.54275164247365
 30
0.0
  0
VERTEX
  5
179
  8
ROUTES
 10
63.52926711775608
 20
61.54884716893132
 30
0.0
  0
VERTEX
  5
17A
  8
ROUTES
 10
63.54406517798437
 20
61.55460497370002
 30
0.0
  0
VERTEX
  5
17B
  8
ROUTES
 10
63.5590708761041
 20
61.56001464038852
 30
0.0
  0
VERTEX
  5
17C
  8
ROUTES
 10
63.5742722337426
 20
61.56506624522155
 30
0.0
  0
VERTEX
  5
17D
  8
ROUTES
 10
63.58965668236753
 20
61.56975040055518
 30
0.0
  0
VERTEX
  5
17E
  8
ROUTES
 10
63.60521109255371
 20
61.57405829686041
 30
0.0
  0
VERTEX
  5
17F
  8
ROUTES
 10
63.62092180672848
 20
61.57798174283911
 30
0.0
  0
VERTEX
  5
180
  8
ROUTES
 10
63.63677467525978
 20
61.58151320334319
 30
0.0
  0
VERTEX
  5
181
  8
ROUTES
 10
63.65275509571764
 20
61.58464583477866
 30
0.0
  0
VERTEX
  5
182
  8
ROUTES
 10
63.66884805510382
 20
61.58737351769122
 30
0.0
  0
VERTEX
  5
183
  8
ROUTES
 10
63.68503817481322
 20
61.58969088624912
 30
0.0
  0
VERTEX
  5
184
  8
ROUTES
 10
63.70130975805917
 20
61.59159335436176
 30
0.0
  0
VERTEX
  5
185
  8
ROUTES
 10
63.71764683946697
 20
61.59307713819943
 30
0.0
  0
VERTEX
  5
186
  8
ROUTES
 10
63.73403323651475
 20
61.59413927490943
 30
0.0
  0
VERTEX
  5
187
  8
ROUTES
 10
63.75045260247936
 20
61.59477763735676
 30
0.0
  0
VERTEX
  5
188
  8
ROUTES
 10
73.29188858758003
 20
61.59499094475275
 30
0.0
  0
VERTEX
  5
189
  8
ROUTES
 10
73.30832446278002
 20
61.59477763421243
 30
0.0
  0
VERTEX
  5
18A
  8
ROUTES
 10
73.32474382575215
 20
61.59413926882974
 30
0.0
  0
VERTEX
  5
18B
  8
ROUTES
 10
73.34113021967387
 20
61.59307712939859
 30
0.0
  0
VERTEX
  5
18C
  8
ROUTES
 10
73.35746729783372
 20
61.59159334305845
 30
0.0
  0
VERTEX
  5
18D
  8
ROUTES
 10
73.37373887772179
 20
61.58969087266549
 30
0.0
  0
VERTEX
  5
18E
  8
ROUTES
 10
73.3899289939755
 20
61.58737350205205
 30
0.0
  0
VERTEX
  5
18F
  8
ROUTES
 10
73.40602194982053
 20
61.58464581731045
 30
0.0
  0
VERTEX
  5
190
  8
ROUTES
 10
73.42200236666412
 20
61.58151318427328
 30
0.0
  0
VERTEX
  5
191
  8
ROUTES
 10
73.43785523152046
 20
61.57798172239478
 30
0.0
  0
VERTEX
  5
192
  8
ROUTES
 10
73.45356594197182
 20
61.57405827526799
 30
0.0
  0
VERTEX
  5
193
  8
ROUTES
 10
73.46912034839842
 20
61.56975037803925
 30
0.0
  0
VERTEX
  5
194
  8
ROUTES
 10
73.48450479323952
 20
61.5650662220041
 30
0.0
  0
VERTEX
  5
195
  8
ROUTES
 10
73.49970614708178
 20
61.56001461668816
 30
0.0
  0
VERTEX
  5
196
  8
ROUTES
 10
73.51471184140426
 20
61.55460494973127
 30
0.0
  0
VERTEX
  5
197
  8
ROUTES
 10
73.52950989784539
 20
61.54884714490385
 30
0.0
  0
VERTEX
  5
198
  8
ROUTES
 10
73.54408895389179
 20
61.54275161859162
 30
0.0
  0
VERTEX
  5
199
  8
ROUTES
 10
73.55843828492493
 20
61.53632923508685
 30
0.0
  0
VERTEX
  5
19A
  8
ROUTES
 10
73.57254782259567
 20
61.52959126102294
 30
0.0
  0
VERTEX
  5
19B
  8
ROUTES
 10
73.58640816953069
 20
61.52254931928424
 30
0.0
  0
VERTEX
  5
19C
  8
ROUTES
 10
73.60001061040738
 20
61.51521534271419
 30
0.0
  0
VERTEX
  5
19D
  8
ROUTES
 10
73.61334711946253
 20
61.50760152793255
 30
0.0
  0
VERTEX
  5
19E
  8
ROUTES
 10
73.62641036452995
 20
61.49972028955824
 30
0.0
  0
VERTEX
  5
19F
  8
ROUTES
 10
73.63919370772618
 20
61.4915842151165
 30
0.0
  0
VERTEX
  5
1A0
  8
ROUTES
 10
73.65169120292732
 20
61.48320602088979
 30
0.0
  0
VERTEX
  5
1A1
  8
ROUTES
 10
73.66389759019911
 20
61.47459850895063
 30
0.0
  0
VERTEX
  5
1A2
  8
ROUTES
 10
73.67580828736024
 20
61.46577452559188
 30
0.0
  0
VERTEX
  5
1A3
  8
ROUTES
 10
73.68741937887275
 20
61.45674692134663
 30
0.0
  0
VERTEX
  5
1A4
  8
ROUTES
 10
73.6987276022636
 20
61.44752851276528
 30
0.0
  0
VERTEX
  5
1A5
  8
ROUTES
 10
73.70973033229191
 20
61.43813204609405
 30
0.0
  0
VERTEX
  5
1A6
  8
ROUTES
 10
73.72042556307912
 20
61.42857016297371
 30
0.0
  0
VERTEX
  5
1A7
  8
ROUTES
 10
73.73081188842443
 20
61.41885536825453
 30
0.0
  0
VERTEX
  5
1A8
  8
ROUTES
 10
77.10173328083226
 20
58.04785609824656
 30
0.0
  0
VERTEX
  5
1A9
  8
ROUTES
 10
80.46288848039696
 20
61.40900000010151
 30
0.0
  0
VERTEX
  5
1AA
  8
ROUTES
 10
80.47296507531243
 20
61.41885537068412
 30
0.0
  0
VERTEX
  5
1AB
  8
ROUTES
 10
80.48335140436424
 20
61.42857016766146
 30
0.0
  0
VERTEX
  5
1AC
  8
ROUTES
 10
80.49404663976985
 20
61.43813205296118
 30
0.0
  0
VERTEX
  5
1AD
  8
ROUTES
 10
80.5050493753455
 20
61.44752852172401
 30
0.0
  0
VERTEX
  5
1AE
  8
ROUTES
 10
80.51635760522828
 20
61.45674693230001
 30
0.0
  0
VERTEX
  5
1AF
  8
ROUTES
 10
80.52796870419147
 20
61.46577453843381
 30
0.0
  0
VERTEX
  5
1B0
  8
ROUTES
 10
80.53987940977477
 20
61.47459852356571
 30
0.0
  0
VERTEX
  5
1B1
  8
ROUTES
 10
80.5520858064511
 20
61.48320603715347
 30
0.0
  0
VERTEX
  5
1B2
  8
ROUTES
 10
80.56458331204843
 20
61.49158423289509
 30
0.0
  0
VERTEX
  5
1B3
  8
ROUTES
 10
80.57736666663985
 20
61.49972030870902
 30
0.0
  0
VERTEX
  5
1B4
  8
ROUTES
 10
80.59042992410679
 20
61.50760154830394
 30
0.0
  0
VERTEX
  5
1B5
  8
ROUTES
 10
80.6037664465692
 20
61.51521536414604
 30
0.0
  0
VERTEX
  5
1B6
  8
ROUTES
 10
80.61736890186212
 20
61.52254934160803
 30
0.0
  0
VERTEX
  5
1B7
  8
ROUTES
 10
80.63122926422146
 20
61.52959128406215
 30
0.0
  0
VERTEX
  5
1B8
  8
ROUTES
 10
80.64533881832146
 20
61.53632925865737
 30
0.0
  0
VERTEX
  5
1B9
  8
ROUTES
 10
80.65968816678352
 20
61.54275164250218
 30
0.0
  0
VERTEX
  5
1BA
  8
ROUTES
 10
80.67426724125073
 20
61.54884716895652
 30
0.0
  0
VERTEX
  5
1BB
  8
ROUTES
 10
80.68906531709456
 20
61.55460497372208
 30
0.0
  0
VERTEX
  5
1BC
  8
ROUTES
 10
80.70407103178935
 20
61.56001464040762
 30
0.0
  0
VERTEX
  5
1BD
  8
ROUTES
 10
80.71927240695888
 20
61.56506624523789
 30
0.0
  0
VERTEX
  5
1BE
  8
ROUTES
 10
80.73465687406528
 20
61.56975040056897
 30
0.0
  0
VERTEX
  5
1BF
  8
ROUTES
 10
80.75021130367598
 20
61.57405829687185
 30
0.0
  0
VERTEX
  5
1C0
  8
ROUTES
 10
80.76592203820877
 20
61.57798174284841
 30
0.0
  0
VERTEX
  5
1C1
  8
ROUTES
 10
80.78177492802024
 20
61.58151320335055
 30
0.0
  0
VERTEX
  5
1C2
  8
ROUTES
 10
80.79775537066698
 20
61.58464583478428
 30
0.0
  0
VERTEX
  5
1C3
  8
ROUTES
 10
80.81384835313541
 20
61.58737351769536
 30
0.0
  0
VERTEX
  5
1C4
  8
ROUTES
 10
80.83003849680314
 20
61.589690886252
 30
0.0
  0
VERTEX
  5
1C5
  8
ROUTES
 10
80.84631010486429
 20
61.5915933543636
 30
0.0
  0
VERTEX
  5
1C6
  8
ROUTES
 10
80.86264721192312
 20
61.59307713820045
 30
0.0
  0
VERTEX
  5
1C7
  8
ROUTES
 10
80.87903363543492
 20
61.59413927490989
 30
0.0
  0
VERTEX
  5
1C8
  8
ROUTES
 10
80.89545302865203
 20
61.59477763735688
 30
0.0
  0
VERTEX
  5
1C9
  8
ROUTES
 10
84.72188848052703
 20
61.595
 30
0.0
  0
VERTEX
  5
1CA
  8
ROUTES
 10
84.73611196482125
 20
61.59484068276579
 30
0.0
  0
VERTEX
  5
1CB
  8
ROUTES
 10
84.75045716154801
 20
61.59435702129377
 30
0.0
  0
VERTEX
  5
1CC
  8
ROUTES
 10
84.76491449608825
 20
61.59354065535286
 30
0.0
  0
VERTEX
  5
1CD
  8
ROUTES
 10
84.77947384751104
 20
61.59238352722799
 30
0.0
  0
VERTEX
  5
1CE
  8
ROUTES
 10
84.79412455508948
 20
61.59087791967369
 30
0.0
  0
VERTEX
  5
1CF
  8
ROUTES
 10
84.80885542764325
 20
61.58901649430623
 30
0.0
  0
VERTEX
  5
1D0
  8
ROUTES
 10
84.82365475582027
 20
61.58679233021229
 30
0.0
  0
VERTEX
  5
1D1
  8
ROUTES
 10
84.83851032741177
 20
61.58419896253454
 30
0.0
  0
VERTEX
  5
1D2
  8
ROUTES
 10
84.85340944577365
 20
61.58123042077848
 30
0.0
  0
VERTEX
  5
1D3
  8
ROUTES
 10
84.86833895140578
 20
61.577881266571
 30
0.0
  0
VERTEX
  5
1D4
  8
ROUTES
 10
84.8832852467151
 20
61.57414663058916
 30
0.0
  0
VERTEX
  5
1D5
  8
ROUTES
 10
84.8982343239615
 20
61.57002224836751
 30
0.0
  0
VERTEX
  5
1D6
  8
ROUTES
 10
84.91317179635708
 20
61.56550449468609
 30
0.0
  0
VERTEX
  5
1D7
  8
ROUTES
 10
84.92808293225866
 20
61.56059041623645
 30
0.0
  0
VERTEX
  5
1D8
  8
ROUTES
 10
84.94295269236265
 20
61.55527776226354
 30
0.0
  0
VERTEX
  5
1D9
  8
ROUTES
 10
84.95776576977798
 20
61.54956501288289
 30
0.0
  0
VERTEX
  5
1DA
  8
ROUTES
 10
84.97250663282172
 20
61.54345140478053
 30
0.0
  0
VERTEX
  5
1DB
  8
ROUTES
 10
84.98715957034806
 20
61.53693695401244
 30
0.0
  0
VERTEX
  5
1DC
  8
ROUTES
 10
85.00170873939027
 20
61.53002247563556
 30
0.0
  0
VERTEX
  5
1DD
  8
ROUTES
 10
85.0161382148642
 20
61.52270959992032
 30
0.0
  0
VERTEX
  5
1DE
  8
ROUTES
 10
85.03043204105252
 20
61.51500078491677
 30
0.0
  0
VERTEX
  5
1DF
  8
ROUTES
 10
85.0445742845619
 20
61.5068993251727
 30
0.0
  0
VERTEX
  5
1E0
  8
ROUTES
 10
85.05854908842095
 20
61.49840935643103
 30
0.0
  0
VERTEX
  5
1E1
  8
ROUTES
 10
85.0723407269654
 20
61.48953585616677
 30
0.0
  0
VERTEX
  5
1E2
  8
ROUTES
 10
85.08593366113914
 20
61.48028463985887
 30
0.0
  0
VERTEX
  5
1E3
  8
ROUTES
 10
85.09931259382633
 20
61.47066235293022
 30
0.0
  0
VERTEX
  5
1E4
  8
ROUTES
 10
85.11246252481993
 20
61.46067645832877
 30
0.0
  0
VERTEX
  5
1E5
  8
ROUTES
 10
85.12536880502775
 20
61.45033521976376
 30
0.0
  0
VERTEX
  5
1E6
  8
ROUTES
 10
85.13801718951612
 20
61.43964768065221
 30
0.0
  0
VERTEX
  5
1E7
  8
ROUTES
 10
85.15039388899781
 20
61.42862363887374
 30
0.0
  0
VERTEX
  5
1E8
  8
ROUTES
 10
85.16248561937851
 20
61.41727361747192
 30
0.0
  0
VERTEX
  5
1E9
  8
ROUTES
 10
91.51266439208335
 20
55.06720783568765
 30
0.0
  0
VERTEX
  5
1EA
  8
ROUTES
 10
93.34859284282128
 20
55.06707396172827
 30
0.0
 42
-0.7210959659392683
  0
VERTEX
  5
1EB
  8
ROUTES
 10
95.34647648128824
 20
54.46230363068703
 30
0.0
 42
-0.0000266191475267
  0
VERTEX
  5
1EC
  8
ROUTES
 10
96.48577068694705
 20
53.7025715909931
 30
0.0
  0
VERTEX
  5
1ED
  8
ROUTES
 10
96.50329232178392
 20
53.6913306268674
 30
0.0
  0
VERTEX
  5
1EE
  8
ROUTES
 10
96.52049222096925
 20
53.67948164800136
 30
0.0
  0
VERTEX
  5
1EF
  8
ROUTES
 10
96.53733920560946
 20
53.66703860354775
 30
0.0
  0
VERTEX
  5
1F0
  8
ROUTES
 10
96.55380291488922
 20
53.65401755231298
 30
0.0
  0
VERTEX
  5
1F1
  8
ROUTES
 10
96.56985398306485
 20
53.64043660073987
 30
0.0
  0
VERTEX
  5
1F2
  8
ROUTES
 10
96.58546421059953
 20
53.62631582317587
 30
0.0
  0
VERTEX
  5
1F3
  8
ROUTES
 10
96.60060672738379
 20
53.61167716510748
 30
0.0
  0
VERTEX
  5
1F4
  8
ROUTES
 10
96.61525614607926
 20
53.59654433031283
 30
0.0
  0
VERTEX
  5
1F5
  8
ROUTES
 10
96.62938870375851
 20
53.58094265314042
 30
0.0
  0
VERTEX
  5
1F6
  8
ROUTES
 10
96.64298239018497
 20
53.56489895735595
 30
0.0
  0
VERTEX
  5
1F7
  8
ROUTES
 10
96.6560170612818
 20
53.54844140320508
 30
0.0
  0
VERTEX
  5
1F8
  8
ROUTES
 10
96.66847453657164
 20
53.53159932451369
 30
0.0
  0
VERTEX
  5
1F9
  8
ROUTES
 10
96.68033867962349
 20
53.51440305778311
 30
0.0
  0
VERTEX
  5
1FA
  8
ROUTES
 10
96.6915954608146
 20
53.49688376533406
 30
0.0
  0
VERTEX
  5
1FB
  8
ROUTES
 10
96.70223300199403
 20
53.47907325460839
 30
0.0
  0
VERTEX
  5
1FC
  8
ROUTES
 10
96.71224160291638
 20
53.46100379574967
 30
0.0
  0
VERTEX
  5
1FD
  8
ROUTES
 10
96.72161374959144
 20
53.4427079395559
 30
0.0
  0
VERTEX
  5
1FE
  8
ROUTES
 10
96.73034410495963
 20
53.42421833782925
 30
0.0
  0
VERTEX
  5
1FF
  8
ROUTES
 10
96.7384294825524
 20
53.40556756804428
 30
0.0
  0
VERTEX
  5
200
  8
ROUTES
 10
96.74586880402127
 20
53.38678796411978
 30
0.0
  0
VERTEX
  5
201
  8
ROUTES
 10
96.7526630416192
 20
53.36791145491593
 30
0.0
  0
VERTEX
  5
202
  8
ROUTES
 10
96.75881514688584
 20
53.34896941189218
 30
0.0
  0
VERTEX
  5
203
  8
ROUTES
 10
96.76432996692623
 20
53.32999250715952
 30
0.0
  0
VERTEX
  5
204
  8
ROUTES
 10
96.76921414977551
 20
53.31101058294629
 30
0.0
  0
VERTEX
  5
205
  8
ROUTES
 10
96.773476040412
 20
53.29205253327842
 30
0.0
  0
VERTEX
  5
206
  8
ROUTES
 10
96.77712556901916
 20
53.27314619845529
 30
0.0
  0
VERTEX
  5
207
  8
ROUTES
 10
96.78017413310235
 20
53.25431827268815
 30
0.0
  0
VERTEX
  5
208
  8
ROUTES
 10
96.78263447504438
 20
53.2355942250629
 30
0.0
  0
VERTEX
  5
209
  8
ROUTES
 10
96.78452055663442
 20
53.21699823379618
 30
0.0
  0
VERTEX
  5
20A
  8
ROUTES
 10
96.78584743203483
 20
53.19855313357754
 30
0.0
  0
VERTEX
  5
20B
  8
ROUTES
 10
96.78663112055882
 20
53.18028037563224
 30
0.0
  0
VERTEX
  5
20C
  8
ROUTES
 10
96.78657282415607
 20
44.47830845503439
 30
0.0
  0
VERTEX
  5
20D
  8
ROUTES
 10
96.78657282415615
 20
44.42169154496559
 30
0.0
 42
-0.0001271073711781
  0
VERTEX
  5
20E
  8
ROUTES
 10
96.78657282415497
 20
41.9383084550344
 30
0.0
  0
VERTEX
  5
20F
  8
ROUTES
 10
96.78657282415608
 20
41.88169154496561
 30
0.0
  0
VERTEX
  5
210
  8
ROUTES
 10
96.78666611485575
 20
40.62356412594492
 30
0.0
  0
VERTEX
  5
211
  8
ROUTES
 10
96.78602774982123
 20
40.60714476410084
 30
0.0
  0
VERTEX
  5
212
  8
ROUTES
 10
96.7849656109682
 20
40.59075837127349
 30
0.0
  0
VERTEX
  5
213
  8
ROUTES
 10
96.78348182543303
 20
40.57442129415779
 30
0.0
  0
VERTEX
  5
214
  8
ROUTES
 10
96.78157935606743
 20
40.55814971524744
 30
0.0
  0
VERTEX
  5
215
  8
ROUTES
 10
96.7792619866981
 20
40.54195959988915
 30
0.0
  0
VERTEX
  5
216
  8
ROUTES
 10
96.77653430341061
 20
40.525866644842
 30
0.0
  0
VERTEX
  5
217
  8
ROUTES
 10
96.7734016720297
 20
40.50988622868406
 30
0.0
  0
VERTEX
  5
218
  8
ROUTES
 10
96.76987021200071
 20
40.49403336438718
 30
0.0
  0
VERTEX
  5
219
  8
ROUTES
 10
96.76594676690677
 20
40.47832265435585
 30
0.0
  0
VERTEX
  5
21A
  8
ROUTES
 10
96.76163887188349
 20
40.46276824819756
 30
0.0
  0
VERTEX
  5
21B
  8
ROUTES
 10
96.75695471821484
 20
40.4473838034616
 30
0.0
  0
VERTEX
  5
21C
  8
ROUTES
 10
96.75190311541414
 20
40.43218244955091
 30
0.0
  0
VERTEX
  5
21D
  8
ROUTES
 10
96.74649345110826
 20
40.417176754977
 30
0.0
  0
VERTEX
  5
21E
  8
ROUTES
 10
96.74073564905422
 20
40.40237869809305
 30
0.0
  0
VERTEX
  5
21F
  8
ROUTES
 10
96.73464012562383
 20
40.38779964140513
 30
0.0
  0
VERTEX
  5
220
  8
ROUTES
 10
96.72821774509505
 20
40.37345030952561
 30
0.0
  0
VERTEX
  5
221
  8
ROUTES
 10
96.72147977408679
 20
40.35934077079858
 30
0.0
  0
VERTEX
  5
222
  8
ROUTES
 10
96.71443783546874
 20
40.34548042259333
 30
0.0
  0
VERTEX
  5
223
  8
ROUTES
 10
96.70710386206962
 20
40.33187798022963
 30
0.0
  0
VERTEX
  5
224
  8
ROUTES
 10
96.6994900504944
 20
40.31854146946893
 30
0.0
  0
VERTEX
  5
225
  8
ROUTES
 10
96.69160881534751
 20
40.30547822247669
 30
0.0
  0
VERTEX
  5
226
  8
ROUTES
 10
96.68347274413965
 20
40.29269487713668
 30
0.0
  0
VERTEX
  5
227
  8
ROUTES
 10
96.67509455313919
 20
40.28019737957415
 30
0.0
  0
VERTEX
  5
228
  8
ROUTES
 10
96.66648704440479
 20
40.2679909897256
 30
0.0
  0
VERTEX
  5
229
  8
ROUTES
 10
96.65766306421594
 20
40.25608028977546
 30
0.0
  0
VERTEX
  5
22A
  8
ROUTES
 10
96.64863546309267
 20
40.24446919526579
 30
0.0
  0
VERTEX
  5
22B
  8
ROUTES
 10
96.63941705757301
 20
40.23316096867435
 30
0.0
  0
VERTEX
  5
22C
  8
ROUTES
 10
96.63002059389127
 20
40.22215823524765
 30
0.0
  0
VERTEX
  5
22D
  8
ROUTES
 10
96.62045871367691
 20
40.21146300087045
 30
0.0
  0
VERTEX
  5
22E
  8
ROUTES
 10
96.61074392176963
 20
40.20107667175043
 30
0.0
  0
VERTEX
  5
22F
  8
ROUTES
 10
96.60088855622276
 20
40.19100007569575
 30
0.0
  0
VERTEX
  5
230
  8
ROUTES
 10
95.33427964902054
 20
38.92439116849353
 30
0.0
 42
-0.2008759561884331
  0
VERTEX
  5
231
  8
ROUTES
 10
94.88188848052702
 20
38.73499999999999
 30
0.0
  0
VERTEX
  5
232
  8
ROUTES
 10
93.8750950269304
 20
38.73500000000001
 30
0.0
 42
-3.146781962845171
  0
VERTEX
  5
233
  8
ROUTES
 10
93.87509502692988
 20
40.00499999999929
 30
0.0
  0
VERTEX
  5
234
  8
ROUTES
 10
94.61888848052703
 20
40.00500000000002
 30
0.0
  0
VERTEX
  5
235
  8
ROUTES
 10
95.51688848052702
 20
40.903
 30
0.0
  0
VERTEX
  5
236
  8
ROUTES
 10
95.51688848052702
 20
41.27482444767077
 30
0.0
  0
VERTEX
  5
237
  8
ROUTES
 10
93.87507950715788
 20
41.27497804787401
 30
0.0
 42
-3.14671535101194
  0
VERTEX
  5
238
  8
ROUTES
 10
93.87509502692988
 20
42.54499999999927
 30
0.0
  0
VERTEX
  5
239
  8
ROUTES
 10
95.51688848052702
 20
42.545
 30
0.0
  0
VERTEX
  5
23A
  8
ROUTES
 10
95.51688848052702
 20
43.81512739843907
 30
0.0
  0
VERTEX
  5
23B
  8
ROUTES
 10
93.87510628980723
 20
43.81501593162213
 30
0.0
 42
-3.146830306862028
  0
VERTEX
  5
23C
  8
ROUTES
 10
93.8750950269299
 20
45.08499999999928
 30
0.0
  0
VERTEX
  5
23D
  8
ROUTES
 10
95.51688848052702
 20
45.08500000000002
 30
0.0
  0
VERTEX
  5
23E
  8
ROUTES
 10
95.51688848052702
 20
52.82233333333335
 30
0.0
  0
VERTEX
  5
23F
  8
ROUTES
 10
94.64198312154761
 20
53.40560357265294
 30
0.0
 42
-0.3433066401077314
  0
VERTEX
  5
240
  8
ROUTES
 10
93.34868152865512
 20
53.79720057353659
 30
0.0
  0
VERTEX
  5
241
  8
ROUTES
 10
91.23325249738382
 20
53.79742236667773
 30
0.0
  0
VERTEX
  5
242
  8
ROUTES
 10
91.21683313174299
 20
53.79806073472915
 30
0.0
  0
VERTEX
  5
243
  8
ROUTES
 10
91.20044673337934
 20
53.79912287860222
 30
0.0
  0
VERTEX
  5
244
  8
ROUTES
 10
91.18410964901328
 20
53.80060667114858
 30
0.0
  0
VERTEX
  5
245
  8
ROUTES
 10
91.16783806116709
 20
53.80250914949966
 30
0.0
  0
VERTEX
  5
246
  8
ROUTES
 10
91.15164793521917
 20
53.80482652980729
 30
0.0
  0
VERTEX
  5
247
  8
ROUTES
 10
91.13555496796307
 20
53.80755422595998
 30
0.0
  0
VERTEX
  5
248
  8
ROUTES
 10
91.11957453801396
 20
53.81068687210267
 30
0.0
  0
VERTEX
  5
249
  8
ROUTES
 10
91.10372165838331
 20
53.81421834875553
 30
0.0
  0
VERTEX
  5
24A
  8
ROUTES
 10
91.08801093151739
 20
53.81814181229686
 30
0.0
  0
VERTEX
  5
24B
  8
ROUTES
 10
91.07245650706756
 20
53.82244972754883
 30
0.0
  0
VERTEX
  5
24C
  8
ROUTES
 10
91.0570720426288
 20
53.8271339031816
 30
0.0
  0
VERTEX
  5
24D
  8
ROUTES
 10
91.04187066765138
 20
53.83218552963269
 30
0.0
  0
VERTEX
  5
24E
  8
ROUTES
 10
91.02686495069547
 20
53.837595219223
 30
0.0
  0
VERTEX
  5
24F
  8
ROUTES
 10
91.01206687016419
 20
53.8433530481406
 30
0.0
  0
VERTEX
  5
250
  8
ROUTES
 10
90.99748778861446
 20
53.84944859995613
 30
0.0
  0
VERTEX
  5
251
  8
ROUTES
 10
90.98313843071031
 20
53.85587101033192
 30
0.0
  0
VERTEX
  5
252
  8
ROUTES
 10
90.96902886484801
 20
53.86260901258739
 30
0.0
  0
VERTEX
  5
253
  8
ROUTES
 10
90.95516848844946
 20
53.86965098378958
 30
0.0
  0
VERTEX
  5
254
  8
ROUTES
 10
90.94156601688728
 20
53.87698499104513
 30
0.0
  0
VERTEX
  5
255
  8
ROUTES
 10
90.92822947597566
 20
53.88459883768322
 30
0.0
  0
VERTEX
  5
256
  8
ROUTES
 10
90.91516619793278
 20
53.892480109033
 30
0.0
  0
VERTEX
  5
257
  8
ROUTES
 10
90.90238282069473
 20
53.90061621751656
 30
0.0
  0
VERTEX
  5
258
  8
ROUTES
 10
90.88988529043866
 20
53.90899444679824
 30
0.0
  0
VERTEX
  5
259
  8
ROUTES
 10
90.87767886715237
 20
53.91760199475194
 30
0.0
  0
VERTEX
  5
25A
  8
ROUTES
 10
90.86576813307089
 20
53.92642601503103
 30
0.0
  0
VERTEX
  5
25B
  8
ROUTES
 10
90.85415700378601
 20
53.9354536570487
 30
0.0
  0
VERTEX
  5
25C
  8
ROUTES
 10
90.8428487418243
 20
53.94467210420086
 30
0.0
  0
VERTEX
  5
25D
  8
ROUTES
 10
90.83184597248005
 20
53.954068610188
 30
0.0
  0
VERTEX
  5
25E
  8
ROUTES
 10
90.82115070168474
 20
53.96363053331645
 30
0.0
  0
VERTEX
  5
25F
  8
ROUTES
 10
90.81076433569145
 20
53.97334536868362
 30
0.0
  0
VERTEX
  5
260
  8
ROUTES
 10
90.80068770235262
 20
53.98320077817439
 30
0.0
  0
VERTEX
  5
261
  8
ROUTES
 10
84.45888848052704
 20
60.325
 30
0.0
  0
VERTEX
  5
262
  8
ROUTES
 10
81.17488848052702
 20
60.325
 30
0.0
  0
VERTEX
  5
263
  8
ROUTES
 10
77.73688848052703
 20
56.88700000000001
 30
0.0
  0
VERTEX
  5
264
  8
ROUTES
 10
77.73688848052703
 20
23.75800000000001
 30
0.0
  0
VERTEX
  5
265
  8
ROUTES
 10
79.26988848052702
 20
22.225
 30
0.0
  0
VERTEX
  5
266
  8
ROUTES
 10
80.62968193412358
 20
22.225
 30
0.0
 42
-0.2435012436059505
  0
VERTEX
  5
267
  8
ROUTES
 10
81.52788848052703
 20
22.68999999999999
 30
0.0
  0
VERTEX
  5
268
  8
ROUTES
 10
82.8358882950069
 20
22.68999999999998
 30
0.0
 42
-0.2435012882701058
  0
VERTEX
  5
269
  8
ROUTES
 10
83.73409502692986
 20
22.22499999999926
 30
0.0
  0
VERTEX
  5
26A
  8
ROUTES
 10
84.45888848052704
 20
22.225
 30
0.0
  0
VERTEX
  5
26B
  8
ROUTES
 10
85.54275148743027
 20
23.30886300690324
 30
0.0
  0
VERTEX
  5
26C
  8
ROUTES
 10
85.52688848052705
 20
23.495
 30
0.0
 42
-0.7314970676326478
  0
VERTEX
  5
26D
  8
ROUTES
 10
87.5250993649494
 20
24.12999386383263
 30
0.0
  0
VERTEX
  5
26E
  8
ROUTES
 10
91.72111196482123
 20
24.12984068276579
 30
0.0
  0
VERTEX
  5
26F
  8
ROUTES
 10
91.73545716154801
 20
24.12935702129379
 30
0.0
  0
VERTEX
  5
270
  8
ROUTES
 10
91.7499144960882
 20
24.12854065535286
 30
0.0
  0
VERTEX
  5
271
  8
ROUTES
 10
91.76447384751098
 20
24.12738352722799
 30
0.0
  0
VERTEX
  5
272
  8
ROUTES
 10
91.77912455508944
 20
24.12587791967369
 30
0.0
  0
VERTEX
  5
273
  8
ROUTES
 10
91.79385542764317
 20
24.12401649430622
 30
0.0
  0
VERTEX
  5
274
  8
ROUTES
 10
91.80865475582021
 20
24.12179233021228
 30
0.0
  0
VERTEX
  5
275
  8
ROUTES
 10
91.82351032741173
 20
24.11919896253454
 30
0.0
  0
VERTEX
  5
276
  8
ROUTES
 10
91.83840944577365
 20
24.11623042077849
 30
0.0
  0
VERTEX
  5
277
  8
ROUTES
 10
91.85333895140577
 20
24.11288126657101
 30
0.0
  0
VERTEX
  5
278
  8
ROUTES
 10
91.8682852467151
 20
24.10914663058917
 30
0.0
  0
VERTEX
  5
279
  8
ROUTES
 10
91.88323432396152
 20
24.10502224836753
 30
0.0
  0
VERTEX
  5
27A
  8
ROUTES
 10
91.89817179635708
 20
24.1005044946861
 30
0.0
  0
VERTEX
  5
27B
  8
ROUTES
 10
91.91308293225866
 20
24.09559041623647
 30
0.0
  0
VERTEX
  5
27C
  8
ROUTES
 10
91.92795269236265
 20
24.09027776226355
 30
0.0
  0
VERTEX
  5
27D
  8
ROUTES
 10
91.94276576977796
 20
24.0845650128829
 30
0.0
  0
VERTEX
  5
27E
  8
ROUTES
 10
91.95750663282172
 20
24.07845140478053
 30
0.0
  0
VERTEX
  5
27F
  8
ROUTES
 10
91.97215957034807
 20
24.07193695401244
 30
0.0
  0
VERTEX
  5
280
  8
ROUTES
 10
91.98670873939027
 20
24.06502247563557
 30
0.0
  0
VERTEX
  5
281
  8
ROUTES
 10
92.0011382148642
 20
24.05770959992033
 30
0.0
  0
VERTEX
  5
282
  8
ROUTES
 10
92.01543204105253
 20
24.05000078491679
 30
0.0
  0
VERTEX
  5
283
  8
ROUTES
 10
92.02957428456192
 20
24.0418993251727
 30
0.0
  0
VERTEX
  5
284
  8
ROUTES
 10
92.04354908842097
 20
24.03340935643104
 30
0.0
  0
VERTEX
  5
285
  8
ROUTES
 10
92.0573407269654
 20
24.02453585616679
 30
0.0
  0
VERTEX
  5
286
  8
ROUTES
 10
92.07093366113915
 20
24.01528463985889
 30
0.0
  0
VERTEX
  5
287
  8
ROUTES
 10
92.08431259382633
 20
24.00566235293022
 30
0.0
  0
VERTEX
  5
288
  8
ROUTES
 10
92.09746252481993
 20
23.99567645832879
 30
0.0
  0
VERTEX
  5
289
  8
ROUTES
 10
92.11036880502773
 20
23.98533521976377
 30
0.0
  0
VERTEX
  5
28A
  8
ROUTES
 10
92.12301718951613
 20
23.97464768065223
 30
0.0
  0
VERTEX
  5
28B
  8
ROUTES
 10
92.1353938889978
 20
23.96362363887377
 30
0.0
  0
VERTEX
  5
28C
  8
ROUTES
 10
92.14748561937851
 20
23.95227361747194
 30
0.0
  0
VERTEX
  5
28D
  8
ROUTES
 10
92.15927964899286
 20
23.94060883148127
 30
0.0
  0
VERTEX
  5
28E
  8
ROUTES
 10
93.40988848051491
 20
22.69000000000592
 30
0.0
  0
VERTEX
  5
28F
  8
ROUTES
 10
94.37388866600256
 20
22.68999999999997
 30
0.0
 42
-0.9999999139654044
  0
VERTEX
  5
290
  8
ROUTES
 10
94.37388848432762
 20
20.49000000000005
 30
0.0
  0
VERTEX
  5
291
  8
ROUTES
 10
92.84988847673335
 20
20.49000000000005
 30
0.0
 42
-0.6369754629697277
  0
VERTEX
  5
292
  8
ROUTES
 10
92.00704914234136
 20
22.29683933818567
 30
0.0
  0
VERTEX
  5
293
  8
ROUTES
 10
91.44388848052702
 20
22.86
 30
0.0
  0
VERTEX
  5
294
  8
ROUTES
 10
87.52509502693039
 20
22.86
 30
0.0
 42
-0.2890287574718609
  0
VERTEX
  5
295
  8
ROUTES
 10
86.44075148743028
 20
22.41086300690324
 30
0.0
  0
VERTEX
  5
296
  8
ROUTES
 10
85.17427964901921
 20
21.14439116849219
 30
0.0
 42
-0.2008759561876507
  0
VERTEX
  5
297
  8
ROUTES
 10
84.72188848052703
 20
20.955
 30
0.0
  0
VERTEX
  5
298
  8
ROUTES
 10
83.73409502693042
 20
20.95499999999999
 30
0.0
 42
-0.2435012786991867
  0
VERTEX
  5
299
  8
ROUTES
 10
82.83588829500688
 20
20.49000000000002
 30
0.0
  0
VERTEX
  5
29A
  8
ROUTES
 10
81.52788848052703
 20
20.48999999999999
 30
0.0
 42
-0.2435259932474525
  0
VERTEX
  5
29B
  8
ROUTES
 10
80.62962259305056
 20
20.95508394618144
 30
0.0
 42
-0.0000258656594079
  0
VERTEX
  5
29C
  8
ROUTES
 10
79.00688848052702
 20
20.95499999999992
 30
0.0
 42
-0.2008759562274938
  0
VERTEX
  5
29D
  8
ROUTES
 10
78.55449731206097
 20
21.14439116851891
 30
0.0
  0
VERTEX
  5
29E
  8
ROUTES
 10
76.65627964901887
 20
23.04260883150816
 30
0.0
 42
-0.200875956187476
  0
VERTEX
  5
29F
  8
ROUTES
 10
76.46688848052702
 20
23.495
 30
0.0
  0
VERTEX
  5
2A0
  8
ROUTES
 10
76.46688848052702
 20
56.88700000000002
 30
0.0
  0
VERTEX
  5
2A1
  8
ROUTES
 10
73.02888848052703
 20
60.325
 30
0.0
  0
VERTEX
  5
2A2
  8
ROUTES
 10
64.02988848052702
 20
60.325
 30
0.0
  0
VERTEX
  5
2A3
  8
ROUTES
 10
61.22688848052701
 20
57.52199999999999
 30
0.0
  0
VERTEX
  5
2A4
  8
ROUTES
 10
61.22688848052702
 20
54.44
 30
0.0
  0
VERTEX
  5
2A5
  8
ROUTES
 10
61.53168829507895
 20
54.43999999999997
 30
0.0
 42
-1.000000168589162
  0
VERTEX
  5
2A6
  8
ROUTES
 10
61.53168829507895
 20
52.24000000000002
 30
0.0
  0
VERTEX
  5
2A7
  8
ROUTES
 10
59.65208866603438
 20
52.24000000000003
 30
0.0
 42
-1.000000084321535
  0
VERTEX
  5
2A8
  8
ROUTES
 10
59.65208866603438
 20
54.43999973773953
 30
0.0
  0
VERTEX
  5
2A9
  8
ROUTES
 10
59.95688903507901
 20
54.44
 30
0.0
  0
SEQEND
  5
2AA
  8
ROUTES
  0
POLYLINE
  5
2AB
  8
ROUTES
 66
     1
 10
0.0
 20
0.0
 30
0.0
  0
VERTEX
  5
2AC
  8
ROUTES
 10
66.28788866599784
 20
58.24999999999996
 30
0.0
  0
VERTEX
  5
2AD
  8
ROUTES
 10
67.59588848052701
 20
58.24999999999999
 30
0.0
 42
-1.000000000000003
  0
VERTEX
  5
2AE
  8
ROUTES
 10
67.595888480527
 20
56.05
 30
0.0
  0
VERTEX
  5
2AF
  8
ROUTES
 10
66.28788866599784
 20
56.05000000000004
 30
0.0
 42
-1.000000084304914
  0
VERTEX
  5
2B0
  8
ROUTES
 10
66.28788866599783
 20
58.24999999999997
 30
0.0
  0
SEQEND
  5
2B1
  8
ROUTES
  0
POLYLINE
  5
2B2
  8
ROUTES
 66
     1
 10
0.0
 20
0.0
 30
0.0
  0
VERTEX
  5
2B3
  8
ROUTES
 10
66.28788866603489
 20
55.70999999999997
 30
0.0
  0
VERTEX
  5
2B4
  8
ROUTES
 10
67.59588832460128
 20
55.71
 30
0.0
 42
-1.000000070875352
  0
VERTEX
  5
2B5
  8
ROUTES
 10
67.59588848052702
 20
53.51
 30
0.0
  0
VERTEX
  5
2B6
  8
ROUTES
 10
66.28788866603489
 20
53.51000000000003
 30
0.0
 42
-1.000000084321754
  0
VERTEX
  5
2B7
  8
ROUTES
 10
66.28788866603487
 20
55.70999999999999
 30
0.0
  0
SEQEND
  5
2B8
  8
ROUTES
  0
POLYLINE
  5
2B9
  8
ROUTES
 66
     1
 10
0.0
 20
0.0
 30
0.0
  0
VERTEX
  5
2BA
  8
ROUTES
 10
66.28788848052702
 20
53.17
 30
0.0
  0
VERTEX
  5
2BB
  8
ROUTES
 10
67.59588829508087
 20
53.16999999999997
 30
0.0
 42
-1.000000168587427
  0
VERTEX
  5
2BC
  8
ROUTES
 10
67.59588829508087
 20
50.97000000000003
 30
0.0
  0
VERTEX
  5
2BD
  8
ROUTES
 10
66.28788848052702
 20
50.97000000000001
 30
0.0
 42
-0.9999999999999999
  0
VERTEX
  5
2BE
  8
ROUTES
 10
66.28788848052707
 20
53.17
 30
0.0
  0
SEQEND
  5
2BF
  8
ROUTES
  0
POLYLINE
  5
2C0
  8
ROUTES
 66
     1
 10
0.0
 20
0.0
 30
0.0
  0
VERTEX
  5
2C1
  8
ROUTES
 10
66.28788866605126
 20
50.62999973773954
 30
0.0
  0
VERTEX
  5
2C2
  8
ROUTES
 10
67.59588829507761
 20
50.62999999999997
 30
0.0
 42
-1.000000168590428
  0
VERTEX
  5
2C3
  8
ROUTES
 10
67.59588829507761
 20
48.43000000000002
 30
0.0
  0
VERTEX
  5
2C4
  8
ROUTES
 10
66.28788866605126
 20
48.43000000000005
 30
0.0
 42
-1.000000084329196
  0
VERTEX
  5
2C5
  8
ROUTES
 10
66.28788866605127
 20
50.62999973773955
 30
0.0
  0
SEQEND
  5
2C6
  8
ROUTES
  0
POLYLINE
  5
2C7
  8
ROUTES
 66
     1
 10
0.0
 20
0.0
 30
0.0
  0
VERTEX
  5
2C8
  8
ROUTES
 10
66.28788845097745
 20
48.08999999999997
 30
0.0
  0
VERTEX
  5
2C9
  8
ROUTES
 10
67.59588829508073
 20
48.08999973773954
 30
0.0
 42
-1.0000002877969
  0
VERTEX
  5
2CA
  8
ROUTES
 10
67.59588829508073
 20
45.89000000000004
 30
0.0
  0
VERTEX
  5
2CB
  8
ROUTES
 10
66.28788829505169
 20
45.89000026226046
 30
0.0
 42
-1.000000105777721
  0
VERTEX
  5
2CC
  8
ROUTES
 10
66.28788845097746
 20
48.08999999999997
 30
0.0
  0
SEQEND
  5
2CD
  8
ROUTES
  0
POLYLINE
  5
2CE
  8
ROUTES
 66
     1
 10
0.0
 20
0.0
 30
0.0
  0
VERTEX
  5
2CF
  8
ROUTES
 10
66.28788845097228
 20
45.54999999999997
 30
0.0
  0
VERTEX
  5
2D0
  8
ROUTES
 10
67.59588848052701
 20
45.55
 30
0.0
 42
-1.00000000000001
  0
VERTEX
  5
2D1
  8
ROUTES
 10
67.59588848052705
 20
43.35000000000002
 30
0.0
  0
VERTEX
  5
2D2
  8
ROUTES
 10
66.28788829504653
 20
43.35000000000004
 30
0.0
 42
-0.9999998179786757
  0
VERTEX
  5
2D3
  8
ROUTES
 10
66.28788845097229
 20
45.54999999999997
 30
0.0
  0
SEQEND
  5
2D4
  8
ROUTES
  0
POLYLINE
  5
2D5
  8
ROUTES
 66
     1
 10
0.0
 20
0.0
 30
0.0
  0
VERTEX
  5
2D6
  8
ROUTES
 10
59.65208851914562
 20
35.38999999999997
 30
0.0
  0
VERTEX
  5
2D7
  8
ROUTES
 10
61.53168848052702
 20
35.39
 30
0.0
 42
-1.00000000000001
  0
VERTEX
  5
2D8
  8
ROUTES
 10
61.531688480527
 20
33.19
 30
0.0
  0
VERTEX
  5
2D9
  8
ROUTES
 10
59.65208829507984
 20
33.19000026226046
 30
0.0
 42
-0.2435012898408193
  0
VERTEX
  5
2DA
  8
ROUTES
 10
58.75388193412418
 20
33.65500000000071
 30
0.0
  0
VERTEX
  5
2DB
  8
ROUTES
 10
57.67988848052703
 20
33.655
 30
0.0
  0
VERTEX
  5
2DC
  8
ROUTES
 10
56.78188848052704
 20
32.757
 30
0.0
  0
VERTEX
  5
2DD
  8
ROUTES
 10
56.78188848052704
 20
16.13800000000001
 30
0.0
  0
VERTEX
  5
2DE
  8
ROUTES
 10
57.67988848052703
 20
15.24
 30
0.0
  0
VERTEX
  5
2DF
  8
ROUTES
 10
59.56668193412363
 20
15.23999999999999
 30
0.0
 42
-0.2404127549084787
  0
VERTEX
  5
2E0
  8
ROUTES
 10
60.45213190670865
 20
15.70496301711271
 30
0.0
  0
VERTEX
  5
2E1
  8
ROUTES
 10
60.45213147780794
 20
15.85644352483478
 30
0.0
  0
VERTEX
  5
2E2
  8
ROUTES
 10
60.46488848052232
 20
15.85644352483478
 30
0.0
  0
VERTEX
  5
2E3
  8
ROUTES
 10
60.46488866211885
 20
15.705
 30
0.0
  0
VERTEX
  5
2E4
  8
ROUTES
 10
61.98888829507975
 20
15.70499999999997
 30
0.0
 42
-0.2435012882525974
  0
VERTEX
  5
2E5
  8
ROUTES
 10
62.88709502692988
 20
15.23999999999926
 30
0.0
  0
VERTEX
  5
2E6
  8
ROUTES
 10
63.76688848052702
 20
15.24
 30
0.0
 42
-0.2008759562271665
  0
VERTEX
  5
2E7
  8
ROUTES
 10
64.21927964899234
 20
15.05060883148181
 30
0.0
  0
VERTEX
  5
2E8
  8
ROUTES
 10
64.8507514874189
 20
14.41913699309481
 30
0.0
 42
-2.737891236658579
  0
VERTEX
  5
2E9
  8
ROUTES
 10
63.93688848052702
 20
13.335
 30
0.0
  0
VERTEX
  5
2EA
  8
ROUTES
 10
63.95275065602539
 20
13.52113215059431
 30
0.0
  0
VERTEX
  5
2EB
  8
ROUTES
 10
63.50385542389621
 20
13.9700165283154
 30
0.0
  0
VERTEX
  5
2EC
  8
ROUTES
 10
62.88710123899034
 20
13.97000878704063
 30
0.0
 42
-0.2435038694238663
  0
VERTEX
  5
2ED
  8
ROUTES
 10
61.98888829507975
 20
13.50500000000004
 30
0.0
  0
VERTEX
  5
2EE
  8
ROUTES
 10
60.46488829500011
 20
13.50500000000003
 30
0.0
 42
-0.2435312252125993
  0
VERTEX
  5
2EF
  8
ROUTES
 10
59.56660983134937
 20
13.97010200155536
 30
0.0
 42
-0.0000237243651043
  0
VERTEX
  5
2F0
  8
ROUTES
 10
57.41688848052702
 20
13.97000000000117
 30
0.0
 42
-0.2008759562284845
  0
VERTEX
  5
2F1
  8
ROUTES
 10
56.96449731206134
 20
14.15939116851855
 30
0.0
  0
VERTEX
  5
2F2
  8
ROUTES
 10
55.70127964901913
 20
15.42260883150789
 30
0.0
  0
VERTEX
  5
2F3
  8
ROUTES
 10
55.68961486303009
 20
15.43440286112387
 30
0.0
  0
VERTEX
  5
2F4
  8
ROUTES
 10
55.67826484162988
 20
15.44649459150618
 30
0.0
  0
VERTEX
  5
2F5
  8
ROUTES
 10
55.66724079985295
 20
15.4588712909894
 30
0.0
  0
VERTEX
  5
2F6
  8
ROUTES
 10
55.6565532607429
 20
15.47151967547927
 30
0.0
  0
VERTEX
  5
2F7
  8
ROUTES
 10
55.64621202217933
 20
15.48442595568851
 30
0.0
  0
VERTEX
  5
2F8
  8
ROUTES
 10
55.63622612757931
 20
15.49757588668353
 30
0.0
  0
VERTEX
  5
2F9
  8
ROUTES
 10
55.626603840652
 20
15.51095481937206
 30
0.0
  0
VERTEX
  5
2FA
  8
ROUTES
 10
55.6173526243454
 20
15.52454775354708
 30
0.0
  0
VERTEX
  5
2FB
  8
ROUTES
 10
55.6084791240824
 20
15.53833939209276
 30
0.0
  0
VERTEX
  5
2FC
  8
ROUTES
 10
55.59998915534193
 20
15.552314195953
 30
0.0
  0
VERTEX
  5
2FD
  8
ROUTES
 10
55.591887695599
 20
15.5664564394635
 30
0.0
  0
VERTEX
  5
2FE
  8
ROUTES
 10
55.58417888059653
 20
15.58075026565289
 30
0.0
  0
VERTEX
  5
2FF
  8
ROUTES
 10
55.57686600488231
 20
15.59517974112784
 30
0.0
  0
VERTEX
  5
300
  8
ROUTES
 10
55.56995152650642
 20
15.60972891017101
 30
0.0
  0
VERTEX
  5
301
  8
ROUTES
 10
55.56343707573922
 20
15.62438184769825
 30
0.0
  0
VERTEX
  5
302
  8
ROUTES
 10
55.55732346763772
 20
15.63912271074285
 30
0.0
  0
VERTEX
  5
303
  8
ROUTES
 10
55.55161071825788
 20
15.65393578815898
 30
0.0
  0
VERTEX
  5
304
  8
ROUTES
 10
55.54629806428571
 20
15.66880554826369
 30
0.0
  0
VERTEX
  5
305
  8
ROUTES
 10
55.54138398583676
 20
15.68371668416596
 30
0.0
  0
VERTEX
  5
306
  8
ROUTES
 10
55.53686623215596
 20
15.69865415656214
 30
0.0
  0
VERTEX
  5
307
  8
ROUTES
 10
55.53274184993489
 20
15.71360323380911
 30
0.0
  0
VERTEX
  5
308
  8
ROUTES
 10
55.5290072139536
 20
15.72854952911896
 30
0.0
  0
VERTEX
  5
309
  8
ROUTES
 10
55.5256580597466
 20
15.74347903475156
 30
0.0
  0
VERTEX
  5
30A
  8
ROUTES
 10
55.52268951799095
 20
15.75837815311384
 30
0.0
  0
VERTEX
  5
30B
  8
ROUTES
 10
55.52009615031357
 20
15.7732337247057
 30
0.0
  0
VERTEX
  5
30C
  8
ROUTES
 10
55.51787198621995
 20
15.78803305288303
 30
0.0
  0
VERTEX
  5
30D
  8
ROUTES
 10
55.51601056085276
 20
15.80276392543703
 30
0.0
  0
VERTEX
  5
30E
  8
ROUTES
 10
55.51450495329865
 20
15.81741463301567
 30
0.0
  0
VERTEX
  5
30F
  8
ROUTES
 10
55.51334782517394
 20
15.83197398443862
 30
0.0
  0
VERTEX
  5
310
  8
ROUTES
 10
55.51253145923314
 20
15.84643131897894
 30
0.0
  0
VERTEX
  5
311
  8
ROUTES
 10
55.5120477977612
 20
15.86077651570578
 30
0.0
  0
VERTEX
  5
312
  8
ROUTES
 10
55.51189753577425
 20
33.01999795615674
 30
0.0
  0
VERTEX
  5
313
  8
ROUTES
 10
55.51211084317023
 20
33.03643396026997
 30
0.0
  0
VERTEX
  5
314
  8
ROUTES
 10
55.51274920561756
 20
33.05285344886877
 30
0.0
  0
VERTEX
  5
315
  8
ROUTES
 10
55.51381134232758
 20
33.06923996500137
 30
0.0
  0
VERTEX
  5
316
  8
ROUTES
 10
55.51529512616525
 20
33.08557716183414
 30
0.0
  0
VERTEX
  5
317
  8
ROUTES
 10
55.51719759427789
 20
33.10184885674249
 30
0.0
  0
VERTEX
  5
318
  8
ROUTES
 10
55.51951496283579
 20
33.11803908425703
 30
0.0
  0
VERTEX
  5
319
  8
ROUTES
 10
55.52224264574836
 20
33.13413214750476
 30
0.0
  0
VERTEX
  5
31A
  8
ROUTES
 10
55.52537527718381
 20
33.15011266780279
 30
0.0
  0
VERTEX
  5
31B
  8
ROUTES
 10
55.52890673768788
 20
33.16596563208375
 30
0.0
  0
VERTEX
  5
31C
  8
ROUTES
 10
55.53283018366659
 20
33.18167643785736
 30
0.0
  0
VERTEX
  5
31D
  8
ROUTES
 10
55.53713807997183
 20
33.19723093544022
 30
0.0
  0
VERTEX
  5
31E
  8
ROUTES
 10
55.54182223530545
 20
33.2126154672171
 30
0.0
  0
VERTEX
  5
31F
  8
ROUTES
 10
55.54687384013848
 20
33.22781690372932
 30
0.0
  0
VERTEX
  5
320
  8
ROUTES
 10
55.55228350682698
 20
33.2428226764198
 30
0.0
  0
VERTEX
  5
321
  8
ROUTES
 10
55.55804131159568
 20
33.25762080689992
 30
0.0
  0
VERTEX
  5
322
  8
ROUTES
 10
55.56413683805335
 20
33.27219993263827
 30
0.0
  0
VERTEX
  5
323
  8
ROUTES
 10
55.57055922190167
 20
33.28654932900719
 30
0.0
  0
VERTEX
  5
324
  8
ROUTES
 10
55.57729719650057
 20
33.30065892765705
 30
0.0
  0
VERTEX
  5
325
  8
ROUTES
 10
55.58433913895853
 20
33.3145193312227
 30
0.0
  0
VERTEX
  5
326
  8
ROUTES
 10
55.59167311642451
 20
33.3281218243978
 30
0.0
  0
VERTEX
  5
327
  8
ROUTES
 10
55.59928693227075
 20
33.34145838144349
 30
0.0
  0
VERTEX
  5
328
  8
ROUTES
 10
55.60716817186999
 20
33.35452167022555
 30
0.0
  0
VERTEX
  5
329
  8
ROUTES
 10
55.61530424768836
 20
33.36730505289989
 30
0.0
  0
VERTEX
  5
32A
  8
ROUTES
 10
55.62368244343455
 20
33.37980258338889
 30
0.0
  0
VERTEX
  5
32B
  8
ROUTES
 10
55.63228995702703
 20
33.39200900181122
 30
0.0
  0
VERTEX
  5
32C
  8
ROUTES
 10
55.64111394216375
 20
33.4039197260448
 30
0.0
  0
VERTEX
  5
32D
  8
ROUTES
 10
55.65014154830248
 20
33.41553084061658
 30
0.0
  0
VERTEX
  5
32E
  8
ROUTES
 10
55.65935995888351
 20
33.42683908312399
 30
0.0
  0
VERTEX
  5
32F
  8
ROUTES
 10
55.66875642765146
 20
33.4378418284015
 30
0.0
  0
VERTEX
  5
330
  8
ROUTES
 10
55.67831831295641
 20
33.4485370706505
 30
0.0
  0
VERTEX
  5
331
  8
ROUTES
 10
55.68803310993906
 20
33.45892340375432
 30
0.0
  0
VERTEX
  5
332
  8
ROUTES
 10
55.69788848052703
 20
33.46899999999999
 30
0.0
  0
VERTEX
  5
333
  8
ROUTES
 10
56.96449731203354
 20
34.7356088315065
 30
0.0
 42
-0.2008759561884122
  0
VERTEX
  5
334
  8
ROUTES
 10
57.41688848052703
 20
34.925
 30
0.0
  0
VERTEX
  5
335
  8
ROUTES
 10
58.75388193412362
 20
34.925
 30
0.0
 42
-0.243501150371136
  0
VERTEX
  5
336
  8
ROUTES
 10
59.65208851914562
 20
35.38999999999997
 30
0.0
  0
SEQEND
  5
337
  8
ROUTES
  0
POLYLINE
  5
338
  8
ROUTES
 66
     1
 10
0.0
 20
0.0
 30
0.0
  0
VERTEX
  5
339
  8
ROUTES
 10
59.65208866600875
 20
37.92999973773954
 30
0.0
  0
VERTEX
  5
33A
  8
ROUTES
 10
61.53168866597317
 20
37.92999999999997
 30
0.0
 42
-0.2435011525290776
  0
VERTEX
  5
33B
  8
ROUTES
 10
62.42989502692988
 20
37.46499999999926
 30
0.0
  0
VERTEX
  5
33C
  8
ROUTES
 10
63.13188848052702
 20
37.465
 30
0.0
 42
-0.2008759562270588
  0
VERTEX
  5
33D
  8
ROUTES
 10
63.58427964899224
 20
37.27560883148192
 30
0.0
  0
VERTEX
  5
33E
  8
ROUTES
 10
65.6639577647098
 20
35.19593071581651
 30
0.0
 42
-0.1519320283832048
  0
VERTEX
  5
33F
  8
ROUTES
 10
66.28788866599243
 20
35.38999973773954
 30
0.0
  0
VERTEX
  5
340
  8
ROUTES
 10
67.59588829507959
 20
35.38999973773954
 30
0.0
 42
-1.000000287797937
  0
VERTEX
  5
341
  8
ROUTES
 10
67.59588829507959
 20
33.19000000000002
 30
0.0
  0
VERTEX
  5
342
  8
ROUTES
 10
66.28788866599243
 20
33.19000000000002
 30
0.0
 42
-0.273027872532972
  0
VERTEX
  5
343
  8
ROUTES
 10
65.32502054665049
 20
33.75813033371664
 30
0.0
  0
VERTEX
  5
344
  8
ROUTES
 10
62.8688887611457
 20
36.19499971938133
 30
0.0
  0
VERTEX
  5
345
  8
ROUTES
 10
62.42989502693042
 20
36.19499999999999
 30
0.0
 42
-0.243501243605961
  0
VERTEX
  5
346
  8
ROUTES
 10
61.53168848052702
 20
35.73
 30
0.0
  0
VERTEX
  5
347
  8
ROUTES
 10
59.65208866600875
 20
35.73000000000002
 30
0.0
 42
-1.000000084309879
  0
VERTEX
  5
348
  8
ROUTES
 10
59.65208866600876
 20
37.92999973773952
 30
0.0
  0
SEQEND
  5
349
  8
ROUTES
  0
POLYLINE
  5
34A
  8
ROUTES
 66
     1
 10
0.0
 20
0.0
 30
0.0
  0
VERTEX
  5
34B
  8
ROUTES
 10
66.28788866598453
 20
37.92999973773954
 30
0.0
  0
VERTEX
  5
34C
  8
ROUTES
 10
67.59588829507919
 20
37.92999999999997
 30
0.0
 42
-1.000000168588984
  0
VERTEX
  5
34D
  8
ROUTES
 10
67.59588829507919
 20
35.73000000000004
 30
0.0
  0
VERTEX
  5
34E
  8
ROUTES
 10
66.28788866598453
 20
35.73000000000003
 30
0.0
 42
-1.000000084298849
  0
VERTEX
  5
34F
  8
ROUTES
 10
66.28788866598453
 20
37.92999973773952
 30
0.0
  0
SEQEND
  5
350
  8
ROUTES
  0
POLYLINE
  5
351
  8
ROUTES
 66
     1
 10
0.0
 20
0.0
 30
0.0
  0
VERTEX
  5
352
  8
ROUTES
 10
66.28788866597317
 20
32.84999999999997
 30
0.0
  0
VERTEX
  5
353
  8
ROUTES
 10
67.5958885100638
 20
32.84999999999997
 30
0.0
 42
-0.9999999731484063
  0
VERTEX
  5
354
  8
ROUTES
 10
67.59588851006382
 20
30.65000000000006
 30
0.0
  0
VERTEX
  5
355
  8
ROUTES
 10
66.28788866597317
 20
30.65000026226046
 30
0.0
 42
-1.000000372090461
  0
VERTEX
  5
356
  8
ROUTES
 10
66.28788866597318
 20
32.84999999999996
 30
0.0
  0
SEQEND
  5
357
  8
ROUTES
  0
POLYLINE
  5
358
  8
ROUTES
 66
     1
 10
0.0
 20
0.0
 30
0.0
  0
VERTEX
  5
359
  8
ROUTES
 10
66.28788845100577
 20
30.30999999999997
 30
0.0
  0
VERTEX
  5
35A
  8
ROUTES
 10
67.59588829502641
 20
30.30999973773953
 30
0.0
 42
-1.000000287846307
  0
VERTEX
  5
35B
  8
ROUTES
 10
67.59588829502641
 20
28.11000000000001
 30
0.0
  0
VERTEX
  5
35C
  8
ROUTES
 10
66.28788829508001
 20
28.11000000000002
 30
0.0
 42
-0.9999998179938926
  0
VERTEX
  5
35D
  8
ROUTES
 10
66.28788845100577
 20
30.30999999999998
 30
0.0
  0
SEQEND
  5
35E
  8
ROUTES
  0
POLYLINE
  5
35F
  8
ROUTES
 66
     1
 10
0.0
 20
0.0
 30
0.0
  0
VERTEX
  5
360
  8
ROUTES
 10
66.28788845097988
 20
27.76999999999997
 30
0.0
  0
VERTEX
  5
361
  8
ROUTES
 10
67.59588829507956
 20
27.76999999999997
 30
0.0
 42
-1.000000168588655
  0
VERTEX
  5
362
  8
ROUTES
 10
67.59588829507956
 20
25.57000000000002
 30
0.0
  0
VERTEX
  5
363
  8
ROUTES
 10
66.28788829505413
 20
25.57000026226047
 30
0.0
 42
-1.000000105778869
  0
VERTEX
  5
364
  8
ROUTES
 10
66.28788845097988
 20
27.76999999999996
 30
0.0
  0
SEQEND
  5
365
  8
ROUTES
  0
POLYLINE
  5
366
  8
ROUTES
 66
     1
 10
0.0
 20
0.0
 30
0.0
  0
VERTEX
  5
367
  8
ROUTES
 10
66.28788845096261
 20
25.22999999999996
 30
0.0
  0
VERTEX
  5
368
  8
ROUTES
 10
67.59588829499486
 20
25.22999999999996
 30
0.0
 42
-1.00000016866566
  0
VERTEX
  5
369
  8
ROUTES
 10
67.59588829499486
 20
23.03000000000001
 30
0.0
  0
VERTEX
  5
36A
  8
ROUTES
 10
66.28788829503685
 20
23.03000000000003
 30
0.0
 42
-0.9999998179743025
  0
VERTEX
  5
36B
  8
ROUTES
 10
66.28788845096261
 20
25.22999999999995
 30
0.0
  0
SEQEND
  5
36C
  8
ROUTES
  0
POLYLINE
  5
36D
  8
ROUTES
 66
     1
 10
0.0
 20
0.0
 30
0.0
  0
VERTEX
  5
36E
  8
ROUTES
 10
66.28788845097162
 20
22.68999999999997
 30
0.0
  0
VERTEX
  5
36F
  8
ROUTES
 10
67.59588829504732
 20
22.68999973773954
 30
0.0
 42
-1.000000287827282
  0
VERTEX
  5
370
  8
ROUTES
 10
67.59588829504732
 20
20.49000000000004
 30
0.0
  0
VERTEX
  5
371
  8
ROUTES
 10
66.28788829504586
 20
20.49000000000003
 30
0.0
 42
-0.9999998179783768
  0
VERTEX
  5
372
  8
ROUTES
 10
66.28788845097164
 20
22.68999999999997
 30
0.0
  0
SEQEND
  5
373
  8
ROUTES
  0
POLYLINE
  5
374
  8
ROUTES
 66
     1
 10
0.0
 20
0.0
 30
0.0
  0
VERTEX
  5
375
  8
ROUTES
 10
60.67711017563867
 20
24.4477559054905
 30
0.0
 42
-0.5770400390279498
  0
VERTEX
  5
376
  8
ROUTES
 10
61.77666678541539
 20
24.4477559054905
 30
0.0
 42
-0.5472253421209553
  0
VERTEX
  5
377
  8
ROUTES
 10
61.86188848052629
 20
22.59679345359714
 30
0.0
  0
VERTEX
  5
378
  8
ROUTES
 10
61.86188848052704
 20
20.785
 30
0.0
  0
VERTEX
  5
379
  8
ROUTES
 10
61.98888866598088
 20
20.78499999999997
 30
0.0
 42
-0.2435088433423041
  0
VERTEX
  5
37A
  8
ROUTES
 10
62.88711346775121
 20
20.31997391468161
 30
0.0
  0
VERTEX
  5
37B
  8
ROUTES
 10
63.78332407445946
 20
20.31977763735678
 30
0.0
  0
VERTEX
  5
37C
  8
ROUTES
 10
63.7997434585921
 20
20.31913927490944
 30
0.0
  0
VERTEX
  5
37D
  8
ROUTES
 10
63.81612987328208
 20
20.31807713819942
 30
0.0
  0
VERTEX
  5
37E
  8
ROUTES
 10
63.83246697178988
 20
20.31659335436176
 30
0.0
  0
VERTEX
  5
37F
  8
ROUTES
 10
63.84873857157842
 20
20.31469088624913
 30
0.0
  0
VERTEX
  5
380
  8
ROUTES
 10
63.86492870725896
 20
20.31237351769122
 30
0.0
  0
VERTEX
  5
381
  8
ROUTES
 10
63.88102168203203
 20
20.30964583477865
 30
0.0
  0
VERTEX
  5
382
  8
ROUTES
 10
63.89700211728103
 20
20.3065132033432
 30
0.0
  0
VERTEX
  5
383
  8
ROUTES
 10
63.91285499999746
 20
20.30298174283913
 30
0.0
  0
VERTEX
  5
384
  8
ROUTES
 10
63.9285657277424
 20
20.29905829686043
 30
0.0
  0
VERTEX
  5
385
  8
ROUTES
 10
63.94412015087624
 20
20.29475040055519
 30
0.0
  0
VERTEX
  5
386
  8
ROUTES
 10
63.95950461181998
 20
20.29006624522156
 30
0.0
  0
VERTEX
  5
387
  8
ROUTES
 10
63.97470598114349
 20
20.28501464038854
 30
0.0
  0
VERTEX
  5
388
  8
ROUTES
 10
63.98971169031073
 20
20.27960497370004
 30
0.0
  0
VERTEX
  5
389
  8
ROUTES
 10
64.00450976094669
 20
20.27384716893134
 30
0.0
  0
VERTEX
  5
38A
  8
ROUTES
 10
64.01908883052626
 20
20.26775164247367
 30
0.0
  0
VERTEX
  5
38B
  8
ROUTES
 10
64.03343817442082
 20
20.26132925862536
 30
0.0
  0
VERTEX
  5
38C
  8
ROUTES
 10
64.04754772427282
 20
20.25459128402645
 30
0.0
  0
VERTEX
  5
38D
  8
ROUTES
 10
64.06140808270237
 20
20.24754934156849
 30
0.0
  0
VERTEX
  5
38E
  8
ROUTES
 10
64.07501053438186
 20
20.2402153641025
 30
0.0
  0
VERTEX
  5
38F
  8
ROUTES
 10
64.08834705354478
 20
20.23260154825627
 30
0.0
  0
VERTEX
  5
390
  8
ROUTES
 10
64.10141030802329
 20
20.22472030865703
 30
0.0
  0
VERTEX
  5
391
  8
ROUTES
 10
64.11419365993392
 20
20.21658423283867
 30
0.0
  0
VERTEX
  5
392
  8
ROUTES
 10
64.12669116315419
 20
20.20820603709247
 30
0.0
  0
VERTEX
  5
393
  8
ROUTES
 10
64.1388975577529
 20
20.1995985235
 30
0.0
  0
VERTEX
  5
394
  8
ROUTES
 10
64.15080826155322
 20
20.19077453836328
 30
0.0
  0
VERTEX
  5
395
  8
ROUTES
 10
64.16241935902298
 20
20.18174693222456
 30
0.0
  0
VERTEX
  5
396
  8
ROUTES
 10
64.17372758769635
 20
20.17252852164351
 30
0.0
  0
VERTEX
  5
397
  8
ROUTES
 10
64.18473032234081
 20
20.16313205287557
 30
0.0
  0
VERTEX
  5
398
  8
ROUTES
 10
64.19542555708733
 20
20.15357016757062
 30
0.0
  0
VERTEX
  5
399
  8
ROUTES
 10
64.20581188574579
 20
20.14385537058799
 30
0.0
  0
VERTEX
  5
39A
  8
ROUTES
 10
64.21588848052703
 20
20.134
 30
0.0
  0
VERTEX
  5
39B
  8
ROUTES
 10
65.93488848052702
 20
18.415
 30
0.0
  0
VERTEX
  5
39C
  8
ROUTES
 10
70.13332386137307
 20
18.41477763735678
 30
0.0
  0
VERTEX
  5
39D
  8
ROUTES
 10
70.14974325913172
 20
18.41413927490944
 30
0.0
  0
VERTEX
  5
39E
  8
ROUTES
 10
70.16612968705333
 20
18.41307713819942
 30
0.0
  0
VERTEX
  5
39F
  8
ROUTES
 10
70.18246679838614
 20
18.41159335436176
 30
0.0
  0
VERTEX
  5
3A0
  8
ROUTES
 10
70.19873841058161
 20
18.40969088624912
 30
0.0
  0
VERTEX
  5
3A1
  8
ROUTES
 10
70.21492855824047
 20
18.40737351769122
 30
0.0
  0
VERTEX
  5
3A2
  8
ROUTES
 10
70.23102154455371
 20
18.40464583477864
 30
0.0
  0
VERTEX
  5
3A3
  8
ROUTES
 10
70.24700199089607
 20
18.40151320334319
 30
0.0
  0
VERTEX
  5
3A4
  8
ROUTES
 10
70.26285488425138
 20
18.39798174283913
 30
0.0
  0
VERTEX
  5
3A5
  8
ROUTES
 10
70.27856562217397
 20
18.39405829686043
 30
0.0
  0
VERTEX
  5
3A6
  8
ROUTES
 10
70.29412005501854
 20
18.38975040055519
 30
0.0
  0
VERTEX
  5
3A7
  8
ROUTES
 10
70.30950452520139
 20
18.38506624522156
 30
0.0
  0
VERTEX
  5
3A8
  8
ROUTES
 10
70.32470590328863
 20
18.38001464038854
 30
0.0
  0
VERTEX
  5
3A9
  8
ROUTES
 10
70.33971162074151
 20
18.37460497370004
 30
0.0
  0
VERTEX
  5
3AA
  8
ROUTES
 10
70.35450969918323
 20
18.36884716893134
 30
0.0
  0
VERTEX
  5
3AB
  8
ROUTES
 10
70.36908877608786
 20
18.36275164247367
 30
0.0
  0
VERTEX
  5
3AC
  8
ROUTES
 10
70.3834381268269
 20
18.35632925862536
 30
0.0
  0
VERTEX
  5
3AD
  8
ROUTES
 10
70.39754768304387
 20
18.34959128402646
 30
0.0
  0
VERTEX
  5
3AE
  8
ROUTES
 10
70.41140804736072
 20
18.3425493415685
 30
0.0
  0
VERTEX
  5
3AF
  8
ROUTES
 10
70.42501050445269
 20
18.33521536410251
 30
0.0
  0
VERTEX
  5
3B0
  8
ROUTES
 10
70.43834702855685
 20
18.32760154825628
 30
0.0
  0
VERTEX
  5
3B1
  8
ROUTES
 10
70.45141028750973
 20
18.31972030865705
 30
0.0
  0
VERTEX
  5
3B2
  8
ROUTES
 10
70.464193643433
 20
18.31158423283867
 30
0.0
  0
VERTEX
  5
3B3
  8
ROUTES
 10
70.47669115021006
 20
18.30320603709248
 30
0.0
  0
VERTEX
  5
3B4
  8
ROUTES
 10
70.4888975479162
 20
18.29459852350001
 30
0.0
  0
VERTEX
  5
3B5
  8
ROUTES
 10
70.50080825438175
 20
18.28577453836329
 30
0.0
  0
VERTEX
  5
3B6
  8
ROUTES
 10
70.51241935408217
 20
18.27674693222455
 30
0.0
  0
VERTEX
  5
3B7
  8
ROUTES
 10
70.52372758455999
 20
18.26752852164351
 30
0.0
  0
VERTEX
  5
3B8
  8
ROUTES
 10
70.53473032059136
 20
18.25813205287557
 30
0.0
  0
VERTEX
  5
3B9
  8
ROUTES
 10
70.54542555631649
 20
18.24857016757062
 30
0.0
  0
VERTEX
  5
3BA
  8
ROUTES
 10
70.55581188555476
 20
18.23885537058798
 30
0.0
  0
VERTEX
  5
3BB
  8
ROUTES
 10
70.56588848052704
 20
18.229
 30
0.0
  0
VERTEX
  5
3BC
  8
ROUTES
 10
73.73749731203539
 20
15.05739116849164
 30
0.0
 42
-0.2008759561873644
  0
VERTEX
  5
3BD
  8
ROUTES
 10
73.92688848052704
 20
14.605
 30
0.0
  0
VERTEX
  5
3BE
  8
ROUTES
 10
73.92688848052704
 20
10.688
 30
0.0
  0
VERTEX
  5
3BF
  8
ROUTES
 10
76.35988848052703
 20
8.255
 30
0.0
  0
VERTEX
  5
3C0
  8
ROUTES
 10
80.91205460238312
 20
8.255000000000011
 30
0.0
  0
VERTEX
  5
3C1
  8
ROUTES
 10
80.91189771337253
 20
11.1667869263753
 30
0.0
 42
-0.7988886844511902
  0
VERTEX
  5
3C2
  8
ROUTES
 10
81.73302547364922
 20
13.14913699309241
 30
0.0
  0
VERTEX
  5
3C3
  8
ROUTES
 10
83.634497312035
 20
15.05060883150797
 30
0.0
 42
-0.2008759561875677
  0
VERTEX
  5
3C4
  8
ROUTES
 10
84.08688848052702
 20
15.24000000000001
 30
0.0
  0
VERTEX
  5
3C5
  8
ROUTES
 10
87.63388848052702
 20
15.24
 30
0.0
  0
VERTEX
  5
3C6
  8
ROUTES
 10
89.35288848052703
 20
16.959
 30
0.0
  0
VERTEX
  5
3C7
  8
ROUTES
 10
89.36296507505357
 20
16.96885537058798
 30
0.0
  0
VERTEX
  5
3C8
  8
ROUTES
 10
89.37335140293894
 20
16.97857016757062
 30
0.0
  0
VERTEX
  5
3C9
  8
ROUTES
 10
89.38404663638069
 20
16.98813205287556
 30
0.0
  0
VERTEX
  5
3CA
  8
ROUTES
 10
89.39504936917592
 20
16.99752852164351
 30
0.0
  0
VERTEX
  5
3CB
  8
ROUTES
 10
89.40635759544338
 20
17.00674693222455
 30
0.0
  0
VERTEX
  5
3CC
  8
ROUTES
 10
89.41796868993885
 20
17.01577453836327
 30
0.0
  0
VERTEX
  5
3CD
  8
ROUTES
 10
89.42987939018558
 20
17.0245985235
 30
0.0
  0
VERTEX
  5
3CE
  8
ROUTES
 10
89.44208578064104
 20
17.03320603709247
 30
0.0
  0
VERTEX
  5
3CF
  8
ROUTES
 10
89.45458327911894
 20
17.04158423283866
 30
0.0
  0
VERTEX
  5
3D0
  8
ROUTES
 10
89.46736662567933
 20
17.04972030865703
 30
0.0
  0
VERTEX
  5
3D1
  8
ROUTES
 10
89.48042987419201
 20
17.05760154825627
 30
0.0
  0
VERTEX
  5
3D2
  8
ROUTES
 10
89.49376638676664
 20
17.0652153641025
 30
0.0
  0
VERTEX
  5
3D3
  8
ROUTES
 10
89.50736883122948
 20
17.07254934156849
 30
0.0
  0
VERTEX
  5
3D4
  8
ROUTES
 10
89.52122918180928
 20
17.07959128402645
 30
0.0
  0
VERTEX
  5
3D5
  8
ROUTES
 10
89.53533872317469
 20
17.08632925862536
 30
0.0
  0
VERTEX
  5
3D6
  8
ROUTES
 10
89.54968805794326
 20
17.09275164247366
 30
0.0
  0
VERTEX
  5
3D7
  8
ROUTES
 10
89.5642671177561
 20
17.09884716893134
 30
0.0
  0
VERTEX
  5
3D8
  8
ROUTES
 10
89.57906517798439
 20
17.10460497370003
 30
0.0
  0
VERTEX
  5
3D9
  8
ROUTES
 10
89.59407087610411
 20
17.11001464038853
 30
0.0
  0
VERTEX
  5
3DA
  8
ROUTES
 10
89.6092722337426
 20
17.11506624522156
 30
0.0
  0
VERTEX
  5
3DB
  8
ROUTES
 10
89.62465668236753
 20
17.11975040055519
 30
0.0
  0
VERTEX
  5
3DC
  8
ROUTES
 10
89.64021109255373
 20
17.12405829686043
 30
0.0
  0
VERTEX
  5
3DD
  8
ROUTES
 10
89.65592180672849
 20
17.12798174283913
 30
0.0
  0
VERTEX
  5
3DE
  8
ROUTES
 10
89.67177467525978
 20
17.13151320334319
 30
0.0
  0
VERTEX
  5
3DF
  8
ROUTES
 10
89.68775509571765
 20
17.13464583477865
 30
0.0
  0
VERTEX
  5
3E0
  8
ROUTES
 10
89.7038480551038
 20
17.13737351769122
 30
0.0
  0
VERTEX
  5
3E1
  8
ROUTES
 10
89.72003817481323
 20
17.13969088624912
 30
0.0
  0
VERTEX
  5
3E2
  8
ROUTES
 10
89.73630975805918
 20
17.14159335436175
 30
0.0
  0
VERTEX
  5
3E3
  8
ROUTES
 10
89.75264683946699
 20
17.14307713819942
 30
0.0
  0
VERTEX
  5
3E4
  8
ROUTES
 10
89.76903323651476
 20
17.14413927490944
 30
0.0
  0
VERTEX
  5
3E5
  8
ROUTES
 10
89.78545260247937
 20
17.14477763735677
 30
0.0
  0
VERTEX
  5
3E6
  8
ROUTES
 10
91.95168071857633
 20
17.14499828060664
 30
0.0
 42
-0.2435016577175417
  0
VERTEX
  5
3E7
  8
ROUTES
 10
92.84988847672949
 20
17.60999999999996
 30
0.0
  0
VERTEX
  5
3E8
  8
ROUTES
 10
94.37388829506102
 20
17.60999999999998
 30
0.0
 42
-1.000000168605469
  0
VERTEX
  5
3E9
  8
ROUTES
 10
94.37388829506104
 20
15.41000000000003
 30
0.0
  0
VERTEX
  5
3EA
  8
ROUTES
 10
92.84988829505453
 20
15.41000000000003
 30
0.0
 42
-0.2435011525293344
  0
VERTEX
  5
3EB
  8
ROUTES
 10
91.95168193412418
 20
15.87500000000074
 30
0.0
  0
VERTEX
  5
3EC
  8
ROUTES
 10
90.06488848052702
 20
15.875
 30
0.0
  0
VERTEX
  5
3ED
  8
ROUTES
 10
88.34927964901898
 20
14.15939116849196
 30
0.0
 42
-0.2008759561875234
  0
VERTEX
  5
3EE
  8
ROUTES
 10
87.89688848052701
 20
13.96999999999999
 30
0.0
  0
VERTEX
  5
3EF
  8
ROUTES
 10
84.349888480527
 20
13.97
 30
0.0
  0
VERTEX
  5
3F0
  8
ROUTES
 10
82.63102547362377
 20
12.25113699309676
 30
0.0
 42
-0.2890298588370017
  0
VERTEX
  5
3F1
  8
ROUTES
 10
82.18188482859217
 20
11.16679087181545
 30
0.0
 42
-0.0000140554168228
  0
VERTEX
  5
3F2
  8
ROUTES
 10
82.18176180744922
 20
8.060920389975252
 30
0.0
 42
-0.4035664892480763
  0
VERTEX
  5
3F3
  8
ROUTES
 10
82.1815926042675
 20
7.178729959862057
 30
0.0
  0
VERTEX
  5
3F4
  8
ROUTES
 10
82.18173146479671
 20
6.456357795016856
 30
0.0
 42
-0.4513735279337543
  0
VERTEX
  5
3F5
  8
ROUTES
 10
82.00317879005863
 20
4.816151025278379
 30
0.0
 42
-0.2186868525819624
  0
VERTEX
  5
3F6
  8
ROUTES
 10
81.50900930381607
 20
4.623935307671054
 30
0.0
 42
-0.8597620016148939
  0
VERTEX
  5
3F7
  8
ROUTES
 10
80.91192862693856
 20
6.715502307976576
 30
0.0
 42
-0.0000152742343663
  0
VERTEX
  5
3F8
  8
ROUTES
 10
80.91197963192008
 20
6.985000000000005
 30
0.0
  0
VERTEX
  5
3F9
  8
ROUTES
 10
76.09688848052701
 20
6.985000000000003
 30
0.0
 42
-0.2008759562266595
  0
VERTEX
  5
3FA
  8
ROUTES
 10
75.64449731206255
 20
7.174391168517331
 30
0.0
  0
VERTEX
  5
3FB
  8
ROUTES
 10
72.84627964901911
 20
9.972608831507923
 30
0.0
 42
-0.2008759561875314
  0
VERTEX
  5
3FC
  8
ROUTES
 10
72.65688848052702
 20
10.425
 30
0.0
  0
VERTEX
  5
3FD
  8
ROUTES
 10
72.65688848052702
 20
14.342
 30
0.0
  0
VERTEX
  5
3FE
  8
ROUTES
 10
69.85388740896809
 20
17.14500053577947
 30
0.0
  0
VERTEX
  5
3FF
  8
ROUTES
 10
65.655453099681
 20
17.14522236264321
 30
0.0
  0
VERTEX
  5
400
  8
ROUTES
 10
65.63903370192234
 20
17.14586072509055
 30
0.0
  0
VERTEX
  5
401
  8
ROUTES
 10
65.62264727400071
 20
17.14692286180057
 30
0.0
  0
VERTEX
  5
402
  8
ROUTES
 10
65.60631016266791
 20
17.14840664563824
 30
0.0
  0
VERTEX
  5
403
  8
ROUTES
 10
65.59003855047244
 20
17.15030911375087
 30
0.0
  0
VERTEX
  5
404
  8
ROUTES
 10
65.57384840281357
 20
17.15262648230878
 30
0.0
  0
VERTEX
  5
405
  8
ROUTES
 10
65.55775541650033
 20
17.15535416522135
 30
0.0
  0
VERTEX
  5
406
  8
ROUTES
 10
65.54177497015797
 20
17.1584867966568
 30
0.0
  0
VERTEX
  5
407
  8
ROUTES
 10
65.52592207680269
 20
17.16201825716087
 30
0.0
  0
VERTEX
  5
408
  8
ROUTES
 10
65.51021133888008
 20
17.16594170313957
 30
0.0
  0
VERTEX
  5
409
  8
ROUTES
 10
65.4946569060355
 20
17.1702495994448
 30
0.0
  0
VERTEX
  5
40A
  8
ROUTES
 10
65.47927243585266
 20
17.17493375477844
 30
0.0
  0
VERTEX
  5
40B
  8
ROUTES
 10
65.46407105776542
 20
17.17998535961146
 30
0.0
  0
VERTEX
  5
40C
  8
ROUTES
 10
65.44906534031254
 20
17.18539502629996
 30
0.0
  0
VERTEX
  5
40D
  8
ROUTES
 10
65.43426726187083
 20
17.19115283106866
 30
0.0
  0
VERTEX
  5
40E
  8
ROUTES
 10
65.41968818496618
 20
17.19724835752633
 30
0.0
  0
VERTEX
  5
40F
  8
ROUTES
 10
65.40533883422715
 20
17.20367074137464
 30
0.0
  0
VERTEX
  5
410
  8
ROUTES
 10
65.39122927801021
 20
17.21040871597355
 30
0.0
  0
VERTEX
  5
411
  8
ROUTES
 10
65.37736891369333
 20
17.21745065843151
 30
0.0
  0
VERTEX
  5
412
  8
ROUTES
 10
65.36376645660137
 20
17.22478463589749
 30
0.0
  0
VERTEX
  5
413
  8
ROUTES
 10
65.35042993249722
 20
17.23239845174373
 30
0.0
  0
VERTEX
  5
414
  8
ROUTES
 10
65.33736667354432
 20
17.24027969134296
 30
0.0
  0
VERTEX
  5
415
  8
ROUTES
 10
65.32458331762106
 20
17.24841576716133
 30
0.0
  0
VERTEX
  5
416
  8
ROUTES
 10
65.312085810844
 20
17.25679396290753
 30
0.0
  0
VERTEX
  5
417
  8
ROUTES
 10
65.29987941313786
 20
17.2654014765
 30
0.0
  0
VERTEX
  5
418
  8
ROUTES
 10
65.28796870667233
 20
17.27422546163672
 30
0.0
  0
VERTEX
  5
419
  8
ROUTES
 10
65.27635760697187
 20
17.28325306777544
 30
0.0
  0
VERTEX
  5
41A
  8
ROUTES
 10
65.26504937649405
 20
17.29247147835649
 30
0.0
  0
VERTEX
  5
41B
  8
ROUTES
 10
65.25404664046268
 20
17.30186794712444
 30
0.0
  0
VERTEX
  5
41C
  8
ROUTES
 10
65.24335140473755
 20
17.31142983242938
 30
0.0
  0
VERTEX
  5
41D
  8
ROUTES
 10
65.23296507549927
 20
17.32114462941202
 30
0.0
  0
VERTEX
  5
41E
  8
ROUTES
 10
63.50393719765707
 20
19.04998376095665
 30
0.0
  0
VERTEX
  5
41F
  8
ROUTES
 10
62.88708892399487
 20
19.04999136749482
 30
0.0
 42
-0.2434986056029807
  0
VERTEX
  5
420
  8
ROUTES
 10
61.98888848430592
 20
18.58500000000003
 30
0.0
  0
VERTEX
  5
421
  8
ROUTES
 10
60.46488866599057
 20
18.58500000000003
 30
0.0
 42
-1.000000084301609
  0
VERTEX
  5
422
  8
ROUTES
 10
60.46488866599057
 20
20.78499973773954
 30
0.0
  0
VERTEX
  5
423
  8
ROUTES
 10
60.59205057977293
 20
20.785
 30
0.0
  0
VERTEX
  5
424
  8
ROUTES
 10
60.5919062881978
 20
22.59678086447322
 30
0.0
 42
-0.5472317827721525
  0
VERTEX
  5
425
  8
ROUTES
 10
60.67711017560968
 20
24.44775590548797
 30
0.0
  0
SEQEND
  5
426
  8
ROUTES
  0
POLYLINE
  5
427
  8
ROUTES
 66
     1
 10
0.0
 20
0.0
 30
0.0
  0
VERTEX
  5
428
  8
ROUTES
 10
60.46488847675319
 20
18.24499999999997
 30
0.0
  0
VERTEX
  5
429
  8
ROUTES
 10
61.98888829507995
 20
18.24499999999997
 30
0.0
 42
-1.00000016858829
  0
VERTEX
  5
42A
  8
ROUTES
 10
61.98888829507995
 20
16.04500000000004
 30
0.0
  0
VERTEX
  5
42B
  8
ROUTES
 10
60.46488829507824
 20
16.04500000000003
 30
0.0
 42
-0.9999998296972687
  0
VERTEX
  5
42C
  8
ROUTES
 10
60.46488847675319
 20
18.24499999999996
 30
0.0
  0
SEQEND
  5
42D
  8
ROUTES
  0
POLYLINE
  5
42E
  8
ROUTES
 66
     1
 10
0.0
 20
0.0
 30
0.0
  0
VERTEX
  5
42F
  8
ROUTES
 10
81.52788845099604
 20
27.76999999999997
 30
0.0
  0
VERTEX
  5
430
  8
ROUTES
 10
82.83588829507997
 20
27.76999973773954
 30
0.0
 42
-1.000000287797577
  0
VERTEX
  5
431
  8
ROUTES
 10
82.83588829507997
 20
25.57000000000003
 30
0.0
  0
VERTEX
  5
432
  8
ROUTES
 10
81.52788845099604
 20
25.57000000000003
 30
0.0
 42
-0.9999998179894628
  0
VERTEX
  5
433
  8
ROUTES
 10
81.52788845099606
 20
27.76999999999997
 30
0.0
  0
SEQEND
  5
434
  8
ROUTES
  0
POLYLINE
  5
435
  8
ROUTES
 66
     1
 10
0.0
 20
0.0
 30
0.0
  0
VERTEX
  5
436
  8
ROUTES
 10
81.52788866599354
 20
30.30999999999997
 30
0.0
  0
VERTEX
  5
437
  8
ROUTES
 10
82.83588829508072
 20
30.30999999999997
 30
0.0
 42
-1.000000168587584
  0
VERTEX
  5
438
  8
ROUTES
 10
82.83588829508072
 20
28.11000000000004
 30
0.0
  0
VERTEX
  5
439
  8
ROUTES
 10
81.52788866599354
 20
28.11000000000003
 30
0.0
 42
-1.000000084302975
  0
VERTEX
  5
43A
  8
ROUTES
 10
81.52788866599353
 20
30.30999999999997
 30
0.0
  0
SEQEND
  5
43B
  8
ROUTES
  0
POLYLINE
  5
43C
  8
ROUTES
 66
     1
 10
0.0
 20
0.0
 30
0.0
  0
VERTEX
  5
43D
  8
ROUTES
 10
81.52788845100552
 20
32.84999999999997
 30
0.0
  0
VERTEX
  5
43E
  8
ROUTES
 10
82.83588848052702
 20
32.85
 30
0.0
 42
-0.2435012436064815
  0
VERTEX
  5
43F
  8
ROUTES
 10
83.7340950269299
 20
32.38499999999927
 30
0.0
  0
VERTEX
  5
440
  8
ROUTES
 10
89.5386819341236
 20
32.385
 30
0.0
 42
-3.146781962845212
  0
VERTEX
  5
441
  8
ROUTES
 10
89.53868193412418
 20
31.11500000000075
 30
0.0
  0
VERTEX
  5
442
  8
ROUTES
 10
83.73409502693042
 20
31.11500000000001
 30
0.0
 42
-0.2435012436059581
  0
VERTEX
  5
443
  8
ROUTES
 10
82.83588848052702
 20
30.65000000000002
 30
0.0
  0
VERTEX
  5
444
  8
ROUTES
 10
81.52788829507978
 20
30.65000000000002
 30
0.0
 42
-0.9999998179937716
  0
VERTEX
  5
445
  8
ROUTES
 10
81.52788845100552
 20
32.84999999999995
 30
0.0
  0
SEQEND
  5
446
  8
ROUTES
  0
POLYLINE
  5
447
  8
ROUTES
 66
     1
 10
0.0
 20
0.0
 30
0.0
  0
VERTEX
  5
448
  8
ROUTES
 10
89.53868193412417
 20
34.92499999999927
 30
0.0
 42
-3.146781962842634
  0
VERTEX
  5
449
  8
ROUTES
 10
89.53868193412418
 20
33.65500000000068
 30
0.0
  0
VERTEX
  5
44A
  8
ROUTES
 10
83.73409502693043
 20
33.65499999999999
 30
0.0
 42
-0.2435012786996267
  0
VERTEX
  5
44B
  8
ROUTES
 10
82.83588829505226
 20
33.19000000000003
 30
0.0
  0
VERTEX
  5
44C
  8
ROUTES
 10
81.52788829507901
 20
33.19000000000003
 30
0.0
 42
-0.9999998179933903
  0
VERTEX
  5
44D
  8
ROUTES
 10
81.52788845100478
 20
35.38999999999997
 30
0.0
  0
VERTEX
  5
44E
  8
ROUTES
 10
82.83588829505226
 20
35.38999999999996
 30
0.0
 42
-0.2435012882592021
  0
VERTEX
  5
44F
  8
ROUTES
 10
83.73409502692988
 20
34.92499999999927
 30
0.0
  0
VERTEX
  5
450
  8
ROUTES
 10
89.53868193412363
 20
34.925
 30
0.0
  0
SEQEND
  5
451
  8
ROUTES
  0
POLYLINE
  5
452
  8
ROUTES
 66
     1
 10
0.0
 20
0.0
 30
0.0
  0
VERTEX
  5
453
  8
ROUTES
 10
89.53868193412417
 20
37.46499999999926
 30
0.0
 42
-3.146781962842772
  0
VERTEX
  5
454
  8
ROUTES
 10
89.53868193412421
 20
36.19500000000075
 30
0.0
  0
VERTEX
  5
455
  8
ROUTES
 10
83.73409502693042
 20
36.19499999999999
 30
0.0
 42
-0.243501278699648
  0
VERTEX
  5
456
  8
ROUTES
 10
82.83588829505406
 20
35.73000000000002
 30
0.0
  0
VERTEX
  5
457
  8
ROUTES
 10
81.52788829508049
 20
35.73000000000003
 30
0.0
 42
-0.999999817994088
  0
VERTEX
  5
458
  8
ROUTES
 10
81.52788845100626
 20
37.92999999999997
 30
0.0
  0
VERTEX
  5
459
  8
ROUTES
 10
82.83588829505408
 20
37.92999999999997
 30
0.0
 42
-0.2435012882587981
  0
VERTEX
  5
45A
  8
ROUTES
 10
83.73409502692985
 20
37.46499999999927
 30
0.0
  0
VERTEX
  5
45B
  8
ROUTES
 10
89.53868193412362
 20
37.465
 30
0.0
  0
SEQEND
  5
45C
  8
ROUTES
  0
POLYLINE
  5
45D
  8
ROUTES
 66
     1
 10
0.0
 20
0.0
 30
0.0
  0
VERTEX
  5
45E
  8
ROUTES
 10
81.5278884510063
 20
40.46999999999997
 30
0.0
  0
VERTEX
  5
45F
  8
ROUTES
 10
82.83588829506382
 20
40.46999999999996
 30
0.0
 42
-0.2435012882564067
  0
VERTEX
  5
460
  8
ROUTES
 10
83.73409502692985
 20
40.00499999999927
 30
0.0
  0
VERTEX
  5
461
  8
ROUTES
 10
89.53868193412363
 20
40.00500000000002
 30
0.0
 42
-3.146781962845176
  0
VERTEX
  5
462
  8
ROUTES
 10
89.5386819341242
 20
38.73500000000074
 30
0.0
  0
VERTEX
  5
463
  8
ROUTES
 10
83.73409502693042
 20
38.735
 30
0.0
 42
-0.2435012786997451
  0
VERTEX
  5
464
  8
ROUTES
 10
82.83588829506381
 20
38.27000000000004
 30
0.0
  0
VERTEX
  5
465
  8
ROUTES
 10
81.5278884510063
 20
38.27000000000003
 30
0.0
 42
-0.9999998179941524
  0
VERTEX
  5
466
  8
ROUTES
 10
81.52788845100629
 20
40.46999999999998
 30
0.0
  0
SEQEND
  5
467
  8
ROUTES
  0
POLYLINE
  5
468
  8
ROUTES
 66
     1
 10
0.0
 20
0.0
 30
0.0
  0
VERTEX
  5
469
  8
ROUTES
 10
81.52788848052703
 20
43.01
 30
0.0
  0
VERTEX
  5
46A
  8
ROUTES
 10
82.83588829507181
 20
43.00999999999996
 30
0.0
 42
-0.24350128825452
  0
VERTEX
  5
46B
  8
ROUTES
 10
83.73409502692986
 20
42.54499999999928
 30
0.0
  0
VERTEX
  5
46C
  8
ROUTES
 10
89.53868193412363
 20
42.54499999999999
 30
0.0
 42
-3.146781962844951
  0
VERTEX
  5
46D
  8
ROUTES
 10
89.53868193412423
 20
41.27500000000069
 30
0.0
  0
VERTEX
  5
46E
  8
ROUTES
 10
83.73409502693043
 20
41.27499999999999
 30
0.0
 42
-0.2435012786998056
  0
VERTEX
  5
46F
  8
ROUTES
 10
82.83588829507181
 20
40.81000000000002
 30
0.0
  0
VERTEX
  5
470
  8
ROUTES
 10
81.52788848052703
 20
40.81
 30
0.0
 42
-0.9999999999999968
  0
VERTEX
  5
471
  8
ROUTES
 10
81.52788848052705
 20
43.01
 30
0.0
  0
SEQEND
  5
472
  8
ROUTES
  0
POLYLINE
  5
473
  8
ROUTES
 66
     1
 10
0.0
 20
0.0
 30
0.0
  0
VERTEX
  5
474
  8
ROUTES
 10
89.53868193412418
 20
45.08499999999925
 30
0.0
 42
-3.146781962842728
  0
VERTEX
  5
475
  8
ROUTES
 10
89.53868193412416
 20
43.81500000000072
 30
0.0
  0
VERTEX
  5
476
  8
ROUTES
 10
83.73409502693039
 20
43.815
 30
0.0
 42
-0.243501151027281
  0
VERTEX
  5
477
  8
ROUTES
 10
82.83588851004902
 20
43.35000000000003
 30
0.0
  0
VERTEX
  5
478
  8
ROUTES
 10
81.52788829507111
 20
43.35000000000002
 30
0.0
 42
-0.9999998179898569
  0
VERTEX
  5
479
  8
ROUTES
 10
81.52788845099687
 20
45.54999999999995
 30
0.0
  0
VERTEX
  5
47A
  8
ROUTES
 10
82.83588866597475
 20
45.54999999999997
 30
0.0
 42
-0.2435011525291263
  0
VERTEX
  5
47B
  8
ROUTES
 10
83.73409502692988
 20
45.08499999999927
 30
0.0
  0
VERTEX
  5
47C
  8
ROUTES
 10
89.53868193412362
 20
45.08500000000001
 30
0.0
  0
SEQEND
  5
47D
  8
ROUTES
  0
POLYLINE
  5
47E
  8
ROUTES
 66
     1
 10
0.0
 20
0.0
 30
0.0
  0
VERTEX
  5
47F
  8
ROUTES
 10
89.5386819341242
 20
47.6249999999993
 30
0.0
 42
-3.146781962842675
  0
VERTEX
  5
480
  8
ROUTES
 10
89.53868193412423
 20
46.35500000000076
 30
0.0
  0
VERTEX
  5
481
  8
ROUTES
 10
83.73409502693043
 20
46.35499999999999
 30
0.0
 42
-0.2435012786998949
  0
VERTEX
  5
482
  8
ROUTES
 10
82.83588829508086
 20
45.89000000000002
 30
0.0
  0
VERTEX
  5
483
  8
ROUTES
 10
81.52788848052703
 20
45.89
 30
0.0
 42
-0.9999999999999966
  0
VERTEX
  5
484
  8
ROUTES
 10
81.52788848052703
 20
48.09
 30
0.0
  0
VERTEX
  5
485
  8
ROUTES
 10
82.83588829508088
 20
48.08999999999997
 30
0.0
 42
-0.2435012882522843
  0
VERTEX
  5
486
  8
ROUTES
 10
83.73409502692986
 20
47.62499999999928
 30
0.0
  0
VERTEX
  5
487
  8
ROUTES
 10
89.53868193412362
 20
47.625
 30
0.0
  0
SEQEND
  5
488
  8
ROUTES
  0
POLYLINE
  5
489
  8
ROUTES
 66
     1
 10
0.0
 20
0.0
 30
0.0
  0
VERTEX
  5
48A
  8
ROUTES
 10
81.52788866599002
 20
50.62999973773954
 30
0.0
  0
VERTEX
  5
48B
  8
ROUTES
 10
82.83588829507956
 20
50.62999999999997
 30
0.0
 42
-0.2435013591531204
  0
VERTEX
  5
48C
  8
ROUTES
 10
83.73409519693692
 20
50.16499975952446
 30
0.0
  0
VERTEX
  5
48D
  8
ROUTES
 10
91.72332446278003
 20
50.16477763421242
 30
0.0
  0
VERTEX
  5
48E
  8
ROUTES
 10
91.73974382575214
 20
50.16413926882973
 30
0.0
  0
VERTEX
  5
48F
  8
ROUTES
 10
91.75613021967385
 20
50.16307712939858
 30
0.0
  0
VERTEX
  5
490
  8
ROUTES
 10
91.77246729783373
 20
50.16159334305845
 30
0.0
  0
VERTEX
  5
491
  8
ROUTES
 10
91.7887388777218
 20
50.1596908726655
 30
0.0
  0
VERTEX
  5
492
  8
ROUTES
 10
91.8049289939755
 20
50.15737350205205
 30
0.0
  0
VERTEX
  5
493
  8
ROUTES
 10
91.82102194982052
 20
50.15464581731045
 30
0.0
  0
VERTEX
  5
494
  8
ROUTES
 10
91.83700236666412
 20
50.15151318427328
 30
0.0
  0
VERTEX
  5
495
  8
ROUTES
 10
91.85285523152046
 20
50.14798172239478
 30
0.0
  0
VERTEX
  5
496
  8
ROUTES
 10
91.86856594197181
 20
50.144058275268
 30
0.0
  0
VERTEX
  5
497
  8
ROUTES
 10
91.88412034839843
 20
50.13975037803925
 30
0.0
  0
VERTEX
  5
498
  8
ROUTES
 10
91.89950479323954
 20
50.13506622200411
 30
0.0
  0
VERTEX
  5
499
  8
ROUTES
 10
91.91470614708177
 20
50.13001461668816
 30
0.0
  0
VERTEX
  5
49A
  8
ROUTES
 10
91.92971184140426
 20
50.12460494973127
 30
0.0
  0
VERTEX
  5
49B
  8
ROUTES
 10
91.94450989784538
 20
50.11884714490385
 30
0.0
  0
VERTEX
  5
49C
  8
ROUTES
 10
91.9590889538918
 20
50.11275161859164
 30
0.0
  0
VERTEX
  5
49D
  8
ROUTES
 10
91.97343828492495
 20
50.10632923508688
 30
0.0
  0
VERTEX
  5
49E
  8
ROUTES
 10
91.98754782259566
 20
50.09959126102297
 30
0.0
  0
VERTEX
  5
49F
  8
ROUTES
 10
92.00140816953066
 20
50.09254931928425
 30
0.0
  0
VERTEX
  5
4A0
  8
ROUTES
 10
92.01501061040736
 20
50.08521534271421
 30
0.0
  0
VERTEX
  5
4A1
  8
ROUTES
 10
92.02834711946251
 20
50.07760152793255
 30
0.0
  0
VERTEX
  5
4A2
  8
ROUTES
 10
92.04141036452994
 20
50.06972028955825
 30
0.0
  0
VERTEX
  5
4A3
  8
ROUTES
 10
92.05419370772618
 20
50.06158421511651
 30
0.0
  0
VERTEX
  5
4A4
  8
ROUTES
 10
92.0666912029273
 20
50.05320602088979
 30
0.0
  0
VERTEX
  5
4A5
  8
ROUTES
 10
92.07889759019908
 20
50.04459850895062
 30
0.0
  0
VERTEX
  5
4A6
  8
ROUTES
 10
92.0908082873602
 20
50.03577452559189
 30
0.0
  0
VERTEX
  5
4A7
  8
ROUTES
 10
92.1024193788727
 20
50.02674692134662
 30
0.0
  0
VERTEX
  5
4A8
  8
ROUTES
 10
92.11372760226357
 20
50.01752851276528
 30
0.0
  0
VERTEX
  5
4A9
  8
ROUTES
 10
92.1247303322919
 20
50.00813204609406
 30
0.0
  0
VERTEX
  5
4AA
  8
ROUTES
 10
92.13542556307911
 20
49.99857016297373
 30
0.0
  0
VERTEX
  5
4AB
  8
ROUTES
 10
92.14581188842442
 20
49.98885536825455
 30
0.0
  0
VERTEX
  5
4AC
  8
ROUTES
 10
92.15588848052703
 20
49.979
 30
0.0
  0
VERTEX
  5
4AD
  8
ROUTES
 10
93.42588848052702
 20
48.709
 30
0.0
 42
-0.2222211033710871
  0
VERTEX
  5
4AE
  8
ROUTES
 10
93.61188395104645
 20
47.88820974856751
 30
0.0
 42
-3.146795707338844
  0
VERTEX
  5
4AF
  8
ROUTES
 10
92.3418884805277
 20
47.88820654640282
 30
0.0
  0
VERTEX
  5
4B0
  8
ROUTES
 10
92.34188848052702
 20
47.99700000000001
 30
0.0
  0
VERTEX
  5
4B1
  8
ROUTES
 10
91.44388748346053
 20
48.89499989295006
 30
0.0
  0
VERTEX
  5
4B2
  8
ROUTES
 10
83.73409502693042
 20
48.895
 30
0.0
 42
-0.2435012786999065
  0
VERTEX
  5
4B3
  8
ROUTES
 10
82.83588829507954
 20
48.43000000000003
 30
0.0
  0
VERTEX
  5
4B4
  8
ROUTES
 10
81.52788866599002
 20
48.43000000000004
 30
0.0
 42
-1.000000084301362
  0
VERTEX
  5
4B5
  8
ROUTES
 10
81.52788866599
 20
50.62999973773954
 30
0.0
  0
SEQEND
  5
4B6
  8
ROUTES
  0
POLYLINE
  5
4B7
  8
ROUTES
 66
     1
 10
0.0
 20
0.0
 30
0.0
  0
VERTEX
  5
4B8
  8
ROUTES
 10
81.52788845100662
 20
53.16999999999997
 30
0.0
  0
VERTEX
  5
4B9
  8
ROUTES
 10
82.8358886659924
 20
53.16999973773955
 30
0.0
 42
-1.000000021479768
  0
VERTEX
  5
4BA
  8
ROUTES
 10
82.83588851006667
 20
50.97000000000001
 30
0.0
  0
VERTEX
  5
4BB
  8
ROUTES
 10
81.52788829508086
 20
50.97000000000004
 30
0.0
 42
-0.9999998179942883
  0
VERTEX
  5
4BC
  8
ROUTES
 10
81.5278884510066
 20
53.16999999999996
 30
0.0
  0
SEQEND
  5
4BD
  8
ROUTES
  0
POLYLINE
  5
4BE
  8
ROUTES
 66
     1
 10
0.0
 20
0.0
 30
0.0
  0
VERTEX
  5
4BF
  8
ROUTES
 10
81.52788845100613
 20
55.70999999999997
 30
0.0
  0
VERTEX
  5
4C0
  8
ROUTES
 10
82.83588829505118
 20
55.70999999999997
 30
0.0
 42
-1.000000168614448
  0
VERTEX
  5
4C1
  8
ROUTES
 10
82.83588829505118
 20
53.51000000000004
 30
0.0
  0
VERTEX
  5
4C2
  8
ROUTES
 10
81.52788829508037
 20
53.51000000000003
 30
0.0
 42
-0.9999998179940396
  0
VERTEX
  5
4C3
  8
ROUTES
 10
81.52788845100613
 20
55.70999999999998
 30
0.0
  0
SEQEND
  5
4C4
  8
ROUTES
  0
POLYLINE
  5
4C5
  8
ROUTES
 66
     1
 10
0.0
 20
0.0
 30
0.0
  0
VERTEX
  5
4C6
  8
ROUTES
 10
81.52788848052703
 20
58.25000000000001
 30
0.0
  0
VERTEX
  5
4C7
  8
ROUTES
 10
82.8358882950805
 20
58.24999973773954
 30
0.0
 42
-1.00000028779713
  0
VERTEX
  5
4C8
  8
ROUTES
 10
82.8358882950805
 20
56.05000000000003
 30
0.0
  0
VERTEX
  5
4C9
  8
ROUTES
 10
81.52788848052703
 20
56.05
 30
0.0
 42
-0.9999999999999999
  0
VERTEX
  5
4CA
  8
ROUTES
 10
81.527888480527
 20
58.25000000000001
 30
0.0
  0
SEQEND
  5
4CB
  8
ROUTES
  0
CIRCLE
  5
4CC
  8
ROUTES
 10
-94.24688848052703
 20
58.2878
 30
0.0
 40
1.100000000000009
210
0.0
220
0.0
230
-1.0
  0
ENDSEC
  0
EOF
