  0
SECTION
  2
HEADER
  9
$ACADVER
  1
AC1009
  9
$DWGCODEPAGE
  3
ansi_1252
  9
$INSBASE
 10
0.0
 20
0.0
 30
0.0
  9
$EXTMIN
 10
86.3173809385612
 20
5.10861828418885
 30
0.0
  9
$EXTMAX
 10
156.7823809385612
 20
93.67861828418884
 30
0.0
  9
$LIMMIN
 10
0.0
 20
0.0
  9
$LIMMAX
 10
12.0
 20
9.0
  9
$ORTHOMODE
 70
     0
  9
$REGENMODE
 70
     1
  9
$FILLMODE
 70
     1
  9
$QTEXTMODE
 70
     0
  9
$MIRRTEXT
 70
     1
  9
$DRAGMODE
 70
     2
  9
$LTSCALE
 40
1.0
  9
$OSMODE
 70
    37
  9
$ATTMODE
 70
     1
  9
$TEXTSIZE
 40
0.2
  9
$TRACEWID
 40
0.05
  9
$TEXTSTYLE
  7
STANDARD
  9
$CLAYER
  8
44
  9
$CELTYPE
  6
BYLAYER
  9
$CECOLOR
 62
   256
  9
$DIMSCALE
 40
1.0
  9
$DIMASZ
 40
0.18
  9
$DIMEXO
 40
0.0625
  9
$DIMDLI
 40
0.38
  9
$DIMRND
 40
0.0
  9
$DIMDLE
 40
0.0
  9
$DIMEXE
 40
0.18
  9
$DIMTP
 40
0.0
  9
$DIMTM
 40
0.0
  9
$DIMTXT
 40
0.18
  9
$DIMCEN
 40
0.09
  9
$DIMTSZ
 40
0.0
  9
$DIMTOL
 70
     0
  9
$DIMLIM
 70
     0
  9
$DIMTIH
 70
     1
  9
$DIMTOH
 70
     1
  9
$DIMSE1
 70
     0
  9
$DIMSE2
 70
     0
  9
$DIMTAD
 70
     0
  9
$DIMZIN
 70
     0
  9
$DIMBLK
  1

  9
$DIMASO
 70
     1
  9
$DIMSHO
 70
     1
  9
$DIMPOST
  1

  9
$DIMAPOST
  1

  9
$DIMALT
 70
     0
  9
$DIMALTD
 70
     2
  9
$DIMALTF
 40
25.4
  9
$DIMLFAC
 40
1.0
  9
$DIMTOFL
 70
     0
  9
$DIMTVP
 40
0.0
  9
$DIMTIX
 70
     0
  9
$DIMSOXD
 70
     0
  9
$DIMSAH
 70
     0
  9
$DIMBLK1
  1

  9
$DIMBLK2
  1

  9
$DIMSTYLE
  2
STANDARD
  9
$DIMCLRD
 70
     0
  9
$DIMCLRE
 70
     0
  9
$DIMCLRT
 70
     0
  9
$DIMTFAC
 40
1.0
  9
$DIMGAP
 40
0.09
  9
$LUNITS
 70
     2
  9
$LUPREC
 70
     3
  9
$SKETCHINC
 40
0.1
  9
$FILLETRAD
 40
0.5
  9
$AUNITS
 70
     0
  9
$AUPREC
 70
     0
  9
$MENU
  1
.
  9
$ELEVATION
 40
0.0
  9
$PELEVATION
 40
0.0
  9
$THICKNESS
 40
0.0
  9
$LIMCHECK
 70
     0
  9
$CHAMFERA
 40
0.0
  9
$CHAMFERB
 40
0.0
  9
$SKPOLY
 70
     0
  9
$TDCREATE
 40
2458164.538812326
  9
$TDUPDATE
 40
2458164.538828472
  9
$TDINDWG
 40
0.0000000116
  9
$TDUSRTIMER
 40
0.0000000116
  9
$USRTIMER
 70
     1
  9
$ANGBASE
 50
0.0
  9
$ANGDIR
 70
     0
  9
$PDMODE
 70
     0
  9
$PDSIZE
 40
0.0
  9
$PLINEWID
 40
0.0
  9
$COORDS
 70
     1
  9
$SPLFRAME
 70
     0
  9
$SPLINETYPE
 70
     6
  9
$SPLINESEGS
 70
     8
  9
$ATTDIA
 70
     0
  9
$ATTREQ
 70
     1
  9
$HANDLING
 70
     1
  9
$HANDSEED
  5
659
  9
$SURFTAB1
 70
     6
  9
$SURFTAB2
 70
     6
  9
$SURFTYPE
 70
     6
  9
$SURFU
 70
     6
  9
$SURFV
 70
     6
  9
$UCSNAME
  2

  9
$UCSORG
 10
0.0
 20
0.0
 30
0.0
  9
$UCSXDIR
 10
1.0
 20
0.0
 30
0.0
  9
$UCSYDIR
 10
0.0
 20
1.0
 30
0.0
  9
$PUCSNAME
  2

  9
$PUCSORG
 10
0.0
 20
0.0
 30
0.0
  9
$PUCSXDIR
 10
1.0
 20
0.0
 30
0.0
  9
$PUCSYDIR
 10
0.0
 20
1.0
 30
0.0
  9
$USERI1
 70
     0
  9
$USERI2
 70
     0
  9
$USERI3
 70
     0
  9
$USERI4
 70
     0
  9
$USERI5
 70
     0
  9
$USERR1
 40
0.0
  9
$USERR2
 40
0.0
  9
$USERR3
 40
0.0
  9
$USERR4
 40
0.0
  9
$USERR5
 40
0.0
  9
$WORLDVIEW
 70
     1
  9
$SHADEDGE
 70
     3
  9
$SHADEDIF
 70
    70
  9
$TILEMODE
 70
     1
  9
$MAXACTVP
 70
    64
  9
$PLIMCHECK
 70
     0
  9
$PEXTMIN
 10
1.000000000000000E+20
 20
1.000000000000000E+20
 30
1.000000000000000E+20
  9
$PEXTMAX
 10
-1.000000000000000E+20
 20
-1.000000000000000E+20
 30
-1.000000000000000E+20
  9
$PLIMMIN
 10
0.0
 20
0.0
  9
$PLIMMAX
 10
12.0
 20
9.0
  9
$UNITMODE
 70
     0
  9
$VISRETAIN
 70
     1
  9
$PLINEGEN
 70
     0
  9
$PSLTSCALE
 70
     1
  0
ENDSEC
  0
SECTION
  2
TABLES
  0
TABLE
  2
VPORT
 70
     1
  0
VPORT
  2
*ACTIVE
 70
     0
 10
0.0
 20
0.0
 11
1.0
 21
1.0
 12
121.5498809385612
 22
49.39361828418885
 13
0.0
 23
0.0
 14
0.5
 24
0.5
 15
0.5
 25
0.5
 16
0.0
 26
0.0
 36
1.0
 17
0.0
 27
0.0
 37
0.0
 40
90.3414
 41
0.795585412667946
 42
50.0
 43
0.0
 44
0.0
 50
0.0
 51
0.0
 71
     0
 72
   100
 73
     1
 74
     3
 75
     0
 76
     0
 77
     0
 78
     0
  0
ENDTAB
  0
TABLE
  2
LTYPE
 70
     1
  0
LTYPE
  2
CONTINUOUS
 70
     0
  3
Solid line
 72
    65
 73
     0
 40
0.0
  0
ENDTAB
  0
TABLE
  2
LAYER
 70
     4
  0
LAYER
  2
0
 70
     0
 62
     7
  6
CONTINUOUS
  0
LAYER
  2
20
 70
     0
 62
    30
  6
CONTINUOUS
  0
LAYER
  2
44
 70
     0
 62
     4
  6
CONTINUOUS
  0
LAYER
  2
DEFAULT
 70
     0
 62
     7
  6
CONTINUOUS
  0
ENDTAB
  0
TABLE
  2
STYLE
 70
     1
  0
STYLE
  2
STANDARD
 70
     0
 40
0.0
 41
1.0
 50
0.0
 71
     0
 42
0.2
  3
txt
  4

  0
ENDTAB
  0
TABLE
  2
VIEW
 70
     0
  0
ENDTAB
  0
TABLE
  2
UCS
 70
     0
  0
ENDTAB
  0
TABLE
  2
APPID
 70
     1
  0
APPID
  2
ACAD
 70
     0
  0
ENDTAB
  0
TABLE
  2
DIMSTYLE
 70
     1
  0
DIMSTYLE
  2
STANDARD
 70
     0
  3

  4

  5

  6

  7

 40
1.0
 41
0.18
 42
0.0625
 43
0.38
 44
0.18
 45
0.0
 46
0.0
 47
0.0
 48
0.0
140
0.18
141
0.09
142
0.0
143
25.4
144
1.0
145
0.0
146
1.0
147
0.09
 71
     0
 72
     0
 73
     1
 74
     1
 75
     0
 76
     0
 77
     0
 78
     0
170
     0
171
     2
172
     0
173
     0
174
     0
175
     0
176
     0
177
     0
178
     0
  0
ENDTAB
  0
ENDSEC
  0
SECTION
  2
BLOCKS
  0
BLOCK
  8
0
  2
$MODEL_SPACE
 70
     0
 10
0.0
 20
0.0
 30
0.0
  3
$MODEL_SPACE
  1

  0
ENDBLK
  5
21
  8
0
  0
BLOCK
 67
     1
  8
0
  2
$PAPER_SPACE
 70
     0
 10
0.0
 20
0.0
 30
0.0
  3
$PAPER_SPACE
  1

  0
ENDBLK
  5
1D
 67
     1
  8
0
  0
ENDSEC
  0
SECTION
  2
ENTITIES
  0
POLYLINE
  5
6B
  8
20
 66
     1
 10
0.0
 20
0.0
 30
0.0
  0
VERTEX
  5
6C
  8
20
 10
156.7823809385612
 20
93.67861828418884
 30
0.0
  0
VERTEX
  5
6D
  8
20
 10
156.7823809385612
 20
5.108618284188857
 30
0.0
  0
VERTEX
  5
6E
  8
20
 10
86.3173809385612
 20
5.108618284188857
 30
0.0
  0
VERTEX
  5
6F
  8
20
 10
86.3173809385612
 20
93.67861828418884
 30
0.0
  0
VERTEX
  5
70
  8
20
 10
156.7823809385612
 20
93.67861828418884
 30
0.0
  0
SEQEND
  5
71
  8
20
  0
CIRCLE
  5
73
  8
44
 10
-141.5423809385612
 20
72.41861828418885
 30
0.0
 40
0.175
210
0.0
220
0.0
230
-1.0
  0
CIRCLE
  5
74
  8
44
 10
-128.2073809385612
 20
68.60861828418885
 30
0.0
 40
0.175
210
0.0
220
0.0
230
-1.0
  0
CIRCLE
  5
75
  8
44
 10
-128.2073809385612
 20
62.89361828418886
 30
0.0
 40
0.175
210
0.0
220
0.0
230
-1.0
  0
CIRCLE
  5
76
  8
44
 10
-112.9673809385612
 20
21.61861828418886
 30
0.0
 40
0.175
210
0.0
220
0.0
230
-1.0
  0
CIRCLE
  5
77
  8
44
 10
-116.1423809385612
 20
13.99861828418886
 30
0.0
 40
0.175
210
0.0
220
0.0
230
-1.0
  0
CIRCLE
  5
78
  8
44
 10
-128.2073809385612
 20
13.99861828418886
 30
0.0
 40
0.175
210
0.0
220
0.0
230
-1.0
  0
CIRCLE
  5
79
  8
44
 10
-128.2073809385612
 20
35.58861828418885
 30
0.0
 40
0.175
210
0.0
220
0.0
230
-1.0
  0
CIRCLE
  5
7A
  8
44
 10
-123.1273809385612
 20
16.53861828418886
 30
0.0
 40
0.175
210
0.0
220
0.0
230
-1.0
  0
CIRCLE
  5
7B
  8
44
 10
-123.1273809385612
 20
60.98861828418886
 30
0.0
 40
0.175
210
0.0
220
0.0
230
-1.0
  0
CIRCLE
  5
7C
  8
44
 10
-123.1273809385612
 20
33.04861828418886
 30
0.0
 40
0.175
210
0.0
220
0.0
230
-1.0
  0
CIRCLE
  5
7D
  8
44
 10
-134.5573809385612
 20
33.04861828418886
 30
0.0
 40
0.175
210
0.0
220
0.0
230
-1.0
  0
CIRCLE
  5
7E
  8
44
 10
-134.5573809385612
 20
16.53861828418886
 30
0.0
 40
0.175
210
0.0
220
0.0
230
-1.0
  0
CIRCLE
  5
7F
  8
44
 10
-134.5573809385612
 20
60.98861828418886
 30
0.0
 40
0.175
210
0.0
220
0.0
230
-1.0
  0
CIRCLE
  5
80
  8
44
 10
-139.6373809385612
 20
31.14361828418886
 30
0.0
 40
0.175
210
0.0
220
0.0
230
-1.0
  0
CIRCLE
  5
81
  8
44
 10
-139.6373809385612
 20
47.65361828418885
 30
0.0
 40
0.175
210
0.0
220
0.0
230
-1.0
  0
CIRCLE
  5
82
  8
44
 10
-128.2073809385612
 20
43.84361828418885
 30
0.0
 40
0.175
210
0.0
220
0.0
230
-1.0
  0
CIRCLE
  5
83
  8
44
 10
-148.5273809385612
 20
47.65361828418885
 30
0.0
 40
0.5
210
0.0
220
0.0
230
-1.0
  0
CIRCLE
  5
84
  8
44
 10
-145.9873809385612
 20
47.65361828418885
 30
0.0
 40
0.5
210
0.0
220
0.0
230
-1.0
  0
CIRCLE
  5
85
  8
44
 10
-148.5273809385612
 20
45.11361828418886
 30
0.0
 40
0.5
210
0.0
220
0.0
230
-1.0
  0
CIRCLE
  5
86
  8
44
 10
-145.9873809385612
 20
45.11361828418886
 30
0.0
 40
0.5
210
0.0
220
0.0
230
-1.0
  0
CIRCLE
  5
87
  8
44
 10
-148.5273809385612
 20
42.57361828418885
 30
0.0
 40
0.5
210
0.0
220
0.0
230
-1.0
  0
CIRCLE
  5
88
  8
44
 10
-145.9873809385612
 20
42.57361828418885
 30
0.0
 40
0.5
210
0.0
220
0.0
230
-1.0
  0
CIRCLE
  5
89
  8
44
 10
-148.5273809385612
 20
40.03361828418886
 30
0.0
 40
0.5
210
0.0
220
0.0
230
-1.0
  0
CIRCLE
  5
8A
  8
44
 10
-145.9873809385612
 20
40.03361828418886
 30
0.0
 40
0.5
210
0.0
220
0.0
230
-1.0
  0
CIRCLE
  5
8B
  8
44
 10
-148.5273809385612
 20
37.49361828418886
 30
0.0
 40
0.5
210
0.0
220
0.0
230
-1.0
  0
CIRCLE
  5
8C
  8
44
 10
-145.9873809385612
 20
37.49361828418886
 30
0.0
 40
0.5
210
0.0
220
0.0
230
-1.0
  0
CIRCLE
  5
8D
  8
44
 10
-148.5273809385612
 20
34.95361828418885
 30
0.0
 40
0.5
210
0.0
220
0.0
230
-1.0
  0
CIRCLE
  5
8E
  8
44
 10
-145.9873809385612
 20
34.95361828418885
 30
0.0
 40
0.5
210
0.0
220
0.0
230
-1.0
  0
CIRCLE
  5
8F
  8
44
 10
-148.5273809385612
 20
32.41361828418886
 30
0.0
 40
0.5
210
0.0
220
0.0
230
-1.0
  0
CIRCLE
  5
90
  8
44
 10
-145.9873809385612
 20
32.41361828418886
 30
0.0
 40
0.5
210
0.0
220
0.0
230
-1.0
  0
CIRCLE
  5
91
  8
44
 10
-106.6173809385612
 20
62.89361828418886
 30
0.0
 40
0.4
210
0.0
220
0.0
230
-1.0
  0
CIRCLE
  5
92
  8
44
 10
-106.6173809385612
 20
60.35361828418885
 30
0.0
 40
0.4
210
0.0
220
0.0
230
-1.0
  0
CIRCLE
  5
93
  8
44
 10
-106.6173809385612
 20
57.81361828418886
 30
0.0
 40
0.4
210
0.0
220
0.0
230
-1.0
  0
CIRCLE
  5
94
  8
44
 10
-91.37738093856117
 20
57.81361828418886
 30
0.0
 40
0.4
210
0.0
220
0.0
230
-1.0
  0
CIRCLE
  5
95
  8
44
 10
-91.37738093856117
 20
62.89361828418886
 30
0.0
 40
0.4
210
0.0
220
0.0
230
-1.0
  0
CIRCLE
  5
96
  8
44
 10
-106.6173809385612
 20
55.27361828418886
 30
0.0
 40
0.4
210
0.0
220
0.0
230
-1.0
  0
CIRCLE
  5
97
  8
44
 10
-91.37738093856117
 20
60.35361828418885
 30
0.0
 40
0.4
210
0.0
220
0.0
230
-1.0
  0
CIRCLE
  5
98
  8
44
 10
-91.37738093856117
 20
27.33361828418886
 30
0.0
 40
0.4
210
0.0
220
0.0
230
-1.0
  0
CIRCLE
  5
99
  8
44
 10
-106.6173809385612
 20
27.33361828418886
 30
0.0
 40
0.4
210
0.0
220
0.0
230
-1.0
  0
CIRCLE
  5
9A
  8
44
 10
-106.6173809385612
 20
29.87361828418885
 30
0.0
 40
0.4
210
0.0
220
0.0
230
-1.0
  0
CIRCLE
  5
9B
  8
44
 10
-106.6173809385612
 20
32.41361828418886
 30
0.0
 40
0.4
210
0.0
220
0.0
230
-1.0
  0
CIRCLE
  5
9C
  8
44
 10
-106.6173809385612
 20
34.95361828418885
 30
0.0
 40
0.4
210
0.0
220
0.0
230
-1.0
  0
CIRCLE
  5
9D
  8
44
 10
-106.6173809385612
 20
37.49361828418886
 30
0.0
 40
0.4
210
0.0
220
0.0
230
-1.0
  0
CIRCLE
  5
9E
  8
44
 10
-106.6173809385612
 20
40.03361828418886
 30
0.0
 40
0.4
210
0.0
220
0.0
230
-1.0
  0
CIRCLE
  5
9F
  8
44
 10
-106.6173809385612
 20
42.57361828418885
 30
0.0
 40
0.4
210
0.0
220
0.0
230
-1.0
  0
CIRCLE
  5
A0
  8
44
 10
-106.6173809385612
 20
45.11361828418886
 30
0.0
 40
0.4
210
0.0
220
0.0
230
-1.0
  0
CIRCLE
  5
A1
  8
44
 10
-106.6173809385612
 20
47.65361828418885
 30
0.0
 40
0.4
210
0.0
220
0.0
230
-1.0
  0
CIRCLE
  5
A2
  8
44
 10
-106.6173809385612
 20
50.19361828418886
 30
0.0
 40
0.4
210
0.0
220
0.0
230
-1.0
  0
CIRCLE
  5
A3
  8
44
 10
-106.6173809385612
 20
52.73361828418885
 30
0.0
 40
0.4
210
0.0
220
0.0
230
-1.0
  0
CIRCLE
  5
A4
  8
44
 10
-91.37738093856117
 20
32.41361828418886
 30
0.0
 40
0.4
210
0.0
220
0.0
230
-1.0
  0
CIRCLE
  5
A5
  8
44
 10
-91.37738093856117
 20
52.73361828418885
 30
0.0
 40
0.4
210
0.0
220
0.0
230
-1.0
  0
CIRCLE
  5
A6
  8
44
 10
-91.37738093856117
 20
50.19361828418886
 30
0.0
 40
0.4
210
0.0
220
0.0
230
-1.0
  0
CIRCLE
  5
A7
  8
44
 10
-91.37738093856117
 20
47.65361828418885
 30
0.0
 40
0.4
210
0.0
220
0.0
230
-1.0
  0
CIRCLE
  5
A8
  8
44
 10
-91.37738093856117
 20
45.11361828418886
 30
0.0
 40
0.4
210
0.0
220
0.0
230
-1.0
  0
CIRCLE
  5
A9
  8
44
 10
-91.37738093856117
 20
42.57361828418885
 30
0.0
 40
0.4
210
0.0
220
0.0
230
-1.0
  0
CIRCLE
  5
AA
  8
44
 10
-91.37738093856117
 20
40.03361828418886
 30
0.0
 40
0.4
210
0.0
220
0.0
230
-1.0
  0
CIRCLE
  5
AB
  8
44
 10
-91.37738093856117
 20
37.49361828418886
 30
0.0
 40
0.4
210
0.0
220
0.0
230
-1.0
  0
CIRCLE
  5
AC
  8
44
 10
-91.37738093856117
 20
34.95361828418885
 30
0.0
 40
0.4
210
0.0
220
0.0
230
-1.0
  0
CIRCLE
  5
AD
  8
44
 10
-91.37738093856117
 20
55.27361828418886
 30
0.0
 40
0.4
210
0.0
220
0.0
230
-1.0
  0
CIRCLE
  5
AE
  8
44
 10
-91.37738093856117
 20
29.87361828418885
 30
0.0
 40
0.4
210
0.0
220
0.0
230
-1.0
  0
CIRCLE
  5
AF
  8
44
 10
-128.2073809385612
 20
86.38861828418885
 30
0.0
 40
0.4064
210
0.0
220
0.0
230
-1.0
  0
CIRCLE
  5
B0
  8
44
 10
-128.2073809385612
 20
78.76861828418886
 30
0.0
 40
0.4064
210
0.0
220
0.0
230
-1.0
  0
CIRCLE
  5
B1
  8
44
 10
-149.7973809385612
 20
78.76861828418886
 30
0.0
 40
0.4064
210
0.0
220
0.0
230
-1.0
  0
CIRCLE
  5
B2
  8
44
 10
-149.7973809385612
 20
86.38861828418885
 30
0.0
 40
0.4064
210
0.0
220
0.0
230
-1.0
  0
CIRCLE
  5
B3
  8
44
 10
-144.0023809385612
 20
86.38861828418885
 30
0.0
 40
0.6
210
0.0
220
0.0
230
-1.0
  0
CIRCLE
  5
B4
  8
44
 10
-139.0023809385612
 20
86.38861828418885
 30
0.0
 40
0.6
210
0.0
220
0.0
230
-1.0
  0
CIRCLE
  5
B5
  8
44
 10
-134.0023809385612
 20
86.38861828418885
 30
0.0
 40
0.6
210
0.0
220
0.0
230
-1.0
  0
CIRCLE
  5
B6
  8
44
 10
-92.64738093856118
 20
75.46141828418885
 30
0.0
 40
0.6
210
0.0
220
0.0
230
-1.0
  0
CIRCLE
  5
B7
  8
44
 10
-92.64738093856118
 20
71.60581828418886
 30
0.0
 40
0.6
210
0.0
220
0.0
230
-1.0
  0
CIRCLE
  5
B8
  8
44
 10
-118.6823809385612
 20
78.13361828418886
 30
0.0
 40
0.5588
210
0.0
220
0.0
230
-1.0
  0
CIRCLE
  5
B9
  8
44
 10
-118.6823809385612
 20
75.59361828418885
 30
0.0
 40
0.5588
210
0.0
220
0.0
230
-1.0
  0
CIRCLE
  5
BA
  8
44
 10
-118.6823809385612
 20
73.05361828418886
 30
0.0
 40
0.5588
210
0.0
220
0.0
230
-1.0
  0
CIRCLE
  5
BB
  8
44
 10
-106.6173809385612
 20
80.67361828418885
 30
0.0
 40
0.508
210
0.0
220
0.0
230
-1.0
  0
CIRCLE
  5
BC
  8
44
 10
-109.1573809385612
 20
80.67361828418885
 30
0.0
 40
0.508
210
0.0
220
0.0
230
-1.0
  0
CIRCLE
  5
BD
  8
44
 10
-111.6973809385612
 20
80.67361828418885
 30
0.0
 40
0.508
210
0.0
220
0.0
230
-1.0
  0
CIRCLE
  5
BE
  8
44
 10
-120.5873809385612
 20
22.25361828418886
 30
0.0
 40
0.4064
210
0.0
220
0.0
230
-1.0
  0
CIRCLE
  5
BF
  8
44
 10
-123.1273809385612
 20
22.25361828418886
 30
0.0
 40
0.4064
210
0.0
220
0.0
230
-1.0
  0
CIRCLE
  5
C0
  8
44
 10
-125.6673809385612
 20
22.25361828418886
 30
0.0
 40
0.4064
210
0.0
220
0.0
230
-1.0
  0
CIRCLE
  5
C1
  8
44
 10
-128.2073809385612
 20
22.25361828418886
 30
0.0
 40
0.4064
210
0.0
220
0.0
230
-1.0
  0
CIRCLE
  5
C2
  8
44
 10
-130.7473809385612
 20
22.25361828418886
 30
0.0
 40
0.4064
210
0.0
220
0.0
230
-1.0
  0
CIRCLE
  5
C3
  8
44
 10
-133.2873809385612
 20
22.25361828418886
 30
0.0
 40
0.4064
210
0.0
220
0.0
230
-1.0
  0
CIRCLE
  5
C4
  8
44
 10
-135.8273809385612
 20
22.25361828418886
 30
0.0
 40
0.4064
210
0.0
220
0.0
230
-1.0
  0
CIRCLE
  5
C5
  8
44
 10
-135.8273809385612
 20
29.87361828418885
 30
0.0
 40
0.4064
210
0.0
220
0.0
230
-1.0
  0
CIRCLE
  5
C6
  8
44
 10
-133.2873809385612
 20
29.87361828418885
 30
0.0
 40
0.4064
210
0.0
220
0.0
230
-1.0
  0
CIRCLE
  5
C7
  8
44
 10
-130.7473809385612
 20
29.87361828418885
 30
0.0
 40
0.4064
210
0.0
220
0.0
230
-1.0
  0
CIRCLE
  5
C8
  8
44
 10
-128.2073809385612
 20
29.87361828418885
 30
0.0
 40
0.4064
210
0.0
220
0.0
230
-1.0
  0
CIRCLE
  5
C9
  8
44
 10
-125.6673809385612
 20
29.87361828418885
 30
0.0
 40
0.4064
210
0.0
220
0.0
230
-1.0
  0
CIRCLE
  5
CA
  8
44
 10
-123.1273809385612
 20
29.87361828418885
 30
0.0
 40
0.4064
210
0.0
220
0.0
230
-1.0
  0
CIRCLE
  5
CB
  8
44
 10
-120.5873809385612
 20
29.87361828418885
 30
0.0
 40
0.4064
210
0.0
220
0.0
230
-1.0
  0
CIRCLE
  5
CC
  8
44
 10
-100.2673809385612
 20
12.09361828418886
 30
0.0
 40
0.508
210
0.0
220
0.0
230
-1.0
  0
CIRCLE
  5
CD
  8
44
 10
-97.72738093856117
 20
12.09361828418886
 30
0.0
 40
0.508
210
0.0
220
0.0
230
-1.0
  0
CIRCLE
  5
CE
  8
44
 10
-95.18738093856118
 20
12.09361828418886
 30
0.0
 40
0.508
210
0.0
220
0.0
230
-1.0
  0
CIRCLE
  5
CF
  8
44
 10
-120.5873809385612
 20
48.92361828418886
 30
0.0
 40
0.4064
210
0.0
220
0.0
230
-1.0
  0
CIRCLE
  5
D0
  8
44
 10
-123.1273809385612
 20
48.92361828418886
 30
0.0
 40
0.4064
210
0.0
220
0.0
230
-1.0
  0
CIRCLE
  5
D1
  8
44
 10
-125.6673809385612
 20
48.92361828418886
 30
0.0
 40
0.4064
210
0.0
220
0.0
230
-1.0
  0
CIRCLE
  5
D2
  8
44
 10
-128.2073809385612
 20
48.92361828418886
 30
0.0
 40
0.4064
210
0.0
220
0.0
230
-1.0
  0
CIRCLE
  5
D3
  8
44
 10
-130.7473809385612
 20
48.92361828418886
 30
0.0
 40
0.4064
210
0.0
220
0.0
230
-1.0
  0
CIRCLE
  5
D4
  8
44
 10
-133.2873809385612
 20
48.92361828418886
 30
0.0
 40
0.4064
210
0.0
220
0.0
230
-1.0
  0
CIRCLE
  5
D5
  8
44
 10
-135.8273809385612
 20
48.92361828418886
 30
0.0
 40
0.4064
210
0.0
220
0.0
230
-1.0
  0
CIRCLE
  5
D6
  8
44
 10
-135.8273809385612
 20
56.54361828418885
 30
0.0
 40
0.4064
210
0.0
220
0.0
230
-1.0
  0
CIRCLE
  5
D7
  8
44
 10
-133.2873809385612
 20
56.54361828418885
 30
0.0
 40
0.4064
210
0.0
220
0.0
230
-1.0
  0
CIRCLE
  5
D8
  8
44
 10
-130.7473809385612
 20
56.54361828418885
 30
0.0
 40
0.4064
210
0.0
220
0.0
230
-1.0
  0
CIRCLE
  5
D9
  8
44
 10
-128.2073809385612
 20
56.54361828418885
 30
0.0
 40
0.4064
210
0.0
220
0.0
230
-1.0
  0
CIRCLE
  5
DA
  8
44
 10
-125.6673809385612
 20
56.54361828418885
 30
0.0
 40
0.4064
210
0.0
220
0.0
230
-1.0
  0
CIRCLE
  5
DB
  8
44
 10
-123.1273809385612
 20
56.54361828418885
 30
0.0
 40
0.4064
210
0.0
220
0.0
230
-1.0
  0
CIRCLE
  5
DC
  8
44
 10
-120.5873809385612
 20
56.54361828418885
 30
0.0
 40
0.4064
210
0.0
220
0.0
230
-1.0
  0
CIRCLE
  5
DD
  8
44
 10
-106.6173809385612
 20
69.87861828418886
 30
0.0
 40
0.4064
210
0.0
220
0.0
230
-1.0
  0
CIRCLE
  5
DE
  8
44
 10
-106.6173809385612
 20
72.41861828418885
 30
0.0
 40
0.4064
210
0.0
220
0.0
230
-1.0
  0
CIRCLE
  5
DF
  8
44
 10
-111.6973809385612
 20
69.87861828418886
 30
0.0
 40
0.4064
210
0.0
220
0.0
230
-1.0
  0
CIRCLE
  5
E0
  8
44
 10
-111.6973809385612
 20
72.41861828418885
 30
0.0
 40
0.4064
210
0.0
220
0.0
230
-1.0
  0
CIRCLE
  5
E1
  8
44
 10
-100.2673809385612
 20
21.61861828418886
 30
0.0
 40
0.4064
210
0.0
220
0.0
230
-1.0
  0
CIRCLE
  5
E2
  8
44
 10
-100.2673809385612
 20
19.07861828418885
 30
0.0
 40
0.4064
210
0.0
220
0.0
230
-1.0
  0
CIRCLE
  5
E3
  8
44
 10
-95.18738093856118
 20
21.61861828418886
 30
0.0
 40
0.4064
210
0.0
220
0.0
230
-1.0
  0
CIRCLE
  5
E4
  8
44
 10
-95.18738093856118
 20
19.07861828418885
 30
0.0
 40
0.4064
210
0.0
220
0.0
230
-1.0
  0
CIRCLE
  5
E5
  8
44
 10
-148.5273809385612
 20
21.99909663948853
 30
0.0
 40
0.5
210
0.0
220
0.0
230
-1.0
  0
CIRCLE
  5
E6
  8
44
 10
-155.5434797307803
 20
21.99909663948853
 30
0.0
 40
0.5
210
0.0
220
0.0
230
-1.0
  0
POLYLINE
  5
E8
  8
DEFAULT
 66
     1
 10
0.0
 20
0.0
 30
0.0
  0
VERTEX
  5
E9
  8
DEFAULT
 10
115.5073718832573
 20
71.14861783000146
 30
0.0
  0
VERTEX
  5
EA
  8
DEFAULT
 10
115.5073809385012
 20
67.33861828418885
 30
0.0
 42
-0.200875956284754
  0
VERTEX
  5
EB
  8
DEFAULT
 10
115.3179897700448
 20
66.88622711572532
 30
0.0
  0
VERTEX
  5
EC
  8
DEFAULT
 10
114.0513809385612
 20
65.61961828418886
 30
0.0
 42
-0.1989026838334033
  0
VERTEX
  5
ED
  8
DEFAULT
 10
113.6023809385611
 20
65.4336273394361
 30
0.0
  0
VERTEX
  5
EE
  8
DEFAULT
 10
104.0631574542669
 20
65.43377760142306
 30
0.0
  0
VERTEX
  5
EF
  8
DEFAULT
 10
104.04881225754
 20
65.43426126289508
 30
0.0
  0
VERTEX
  5
F0
  8
DEFAULT
 10
104.0343549229998
 20
65.43507762883601
 30
0.0
  0
VERTEX
  5
F1
  8
DEFAULT
 10
104.0197955715769
 20
65.43623475696089
 30
0.0
  0
VERTEX
  5
F2
  8
DEFAULT
 10
104.0051448639984
 20
65.43774036451521
 30
0.0
  0
VERTEX
  5
F3
  8
DEFAULT
 10
103.9904139914446
 20
65.4396017898827
 30
0.0
  0
VERTEX
  5
F4
  8
DEFAULT
 10
103.9756146632674
 20
65.44182595397665
 30
0.0
  0
VERTEX
  5
F5
  8
DEFAULT
 10
103.9607590916759
 20
65.44441932165444
 30
0.0
  0
VERTEX
  5
F6
  8
DEFAULT
 10
103.9458599733139
 20
65.44738786341053
 30
0.0
  0
VERTEX
  5
F7
  8
DEFAULT
 10
103.9309304676817
 20
65.45073701761804
 30
0.0
  0
VERTEX
  5
F8
  8
DEFAULT
 10
103.9159841723723
 20
65.45447165359991
 30
0.0
  0
VERTEX
  5
F9
  8
DEFAULT
 10
103.9010350951258
 20
65.45859603582159
 30
0.0
  0
VERTEX
  5
FA
  8
DEFAULT
 10
103.8860976227301
 20
65.46311378950307
 30
0.0
  0
VERTEX
  5
FB
  8
DEFAULT
 10
103.8711864868285
 20
65.46802786795276
 30
0.0
  0
VERTEX
  5
FC
  8
DEFAULT
 10
103.8563167267244
 20
65.47334052192572
 30
0.0
  0
VERTEX
  5
FD
  8
DEFAULT
 10
103.841503649309
 20
65.47905327130643
 30
0.0
  0
VERTEX
  5
FE
  8
DEFAULT
 10
103.8267627862652
 20
65.48516687940887
 30
0.0
  0
VERTEX
  5
FF
  8
DEFAULT
 10
103.8121098487388
 20
65.49168133017703
 30
0.0
  0
VERTEX
  5
100
  8
DEFAULT
 10
103.7975606796965
 20
65.49859580855397
 30
0.0
  0
VERTEX
  5
101
  8
DEFAULT
 10
103.7831312042226
 20
65.50590868426929
 30
0.0
  0
VERTEX
  5
102
  8
DEFAULT
 10
103.7688373780342
 20
65.51361749927291
 30
0.0
  0
VERTEX
  5
103
  8
DEFAULT
 10
103.7546951345248
 20
65.52171895901706
 30
0.0
  0
VERTEX
  5
104
  8
DEFAULT
 10
103.7407203306657
 20
65.53020892775884
 30
0.0
  0
VERTEX
  5
105
  8
DEFAULT
 10
103.7269286921212
 20
65.53908242802316
 30
0.0
  0
VERTEX
  5
106
  8
DEFAULT
 10
103.7133357579474
 20
65.54833364433115
 30
0.0
  0
VERTEX
  5
107
  8
DEFAULT
 10
103.6999568252602
 20
65.55795593125993
 30
0.0
  0
VERTEX
  5
108
  8
DEFAULT
 10
103.6868068942665
 20
65.56794182586145
 30
0.0
  0
VERTEX
  5
109
  8
DEFAULT
 10
103.6739006140587
 20
65.57828306442656
 30
0.0
  0
VERTEX
  5
10A
  8
DEFAULT
 10
103.6612522295703
 20
65.5889706035382
 30
0.0
  0
VERTEX
  5
10B
  8
DEFAULT
 10
103.6488755300886
 20
65.59999464531677
 30
0.0
  0
VERTEX
  5
10C
  8
DEFAULT
 10
103.6367837997079
 20
65.6113446667187
 30
0.0
  0
VERTEX
  5
10D
  8
DEFAULT
 10
103.6249897700935
 20
65.62300945270947
 30
0.0
  0
VERTEX
  5
10E
  8
DEFAULT
 10
101.9093809385612
 20
67.33861828418887
 30
0.0
  0
VERTEX
  5
10F
  8
DEFAULT
 10
94.1803809385612
 20
67.33861828418885
 30
0.0
  0
VERTEX
  5
110
  8
DEFAULT
 10
92.0123809385612
 20
65.17061828418885
 30
0.0
  0
VERTEX
  5
111
  8
DEFAULT
 10
92.0123809385612
 20
64.04361828418887
 30
0.0
  0
VERTEX
  5
112
  8
DEFAULT
 10
92.03138074467614
 20
64.04361828418885
 30
0.0
 42
-0.2515710607703296
  0
VERTEX
  5
113
  8
DEFAULT
 10
92.99016923636212
 20
63.52861828418884
 30
0.0
 42
-0.2310963609097541
  0
VERTEX
  5
114
  8
DEFAULT
 10
93.73477210702977
 20
63.33922711566738
 30
0.0
  0
VERTEX
  5
115
  8
DEFAULT
 10
95.63638093856119
 20
61.43761828418886
 30
0.0
 42
-0.1989026838333079
  0
VERTEX
  5
116
  8
DEFAULT
 10
95.82237188331399
 20
60.98861828418885
 30
0.0
  0
VERTEX
  5
117
  8
DEFAULT
 10
95.82222162132699
 20
26.68439479989465
 30
0.0
  0
VERTEX
  5
118
  8
DEFAULT
 10
95.82173795985499
 20
26.67004960316786
 30
0.0
  0
VERTEX
  5
119
  8
DEFAULT
 10
95.82092159391406
 20
26.65559226862766
 30
0.0
  0
VERTEX
  5
11A
  8
DEFAULT
 10
95.81976446578919
 20
26.64103291720487
 30
0.0
  0
VERTEX
  5
11B
  8
DEFAULT
 10
95.81825885823491
 20
26.62638220962643
 30
0.0
  0
VERTEX
  5
11C
  8
DEFAULT
 10
95.81639743286743
 20
26.61165133707268
 30
0.0
  0
VERTEX
  5
11D
  8
DEFAULT
 10
95.81417326877349
 20
26.59685200889566
 30
0.0
  0
VERTEX
  5
11E
  8
DEFAULT
 10
95.81157990109574
 20
26.58199643730416
 30
0.0
  0
VERTEX
  5
11F
  8
DEFAULT
 10
95.80861135933968
 20
26.56709731894228
 30
0.0
  0
VERTEX
  5
120
  8
DEFAULT
 10
95.80526220513222
 20
26.55216781331014
 30
0.0
  0
VERTEX
  5
121
  8
DEFAULT
 10
95.80152756915037
 20
26.53722151800081
 30
0.0
  0
VERTEX
  5
122
  8
DEFAULT
 10
95.79740318692875
 20
26.52227244075441
 30
0.0
  0
VERTEX
  5
123
  8
DEFAULT
 10
95.79288543324732
 20
26.50733496835885
 30
0.0
  0
VERTEX
  5
124
  8
DEFAULT
 10
95.78797135479769
 20
26.49242383245727
 30
0.0
  0
VERTEX
  5
125
  8
DEFAULT
 10
95.7826587008248
 20
26.4775540723533
 30
0.0
  0
VERTEX
  5
126
  8
DEFAULT
 10
95.77694595144415
 20
26.46274099493796
 30
0.0
  0
VERTEX
  5
127
  8
DEFAULT
 10
95.77083234334178
 20
26.4480001318942
 30
0.0
  0
VERTEX
  5
128
  8
DEFAULT
 10
95.76431789257371
 20
26.43334719436787
 30
0.0
  0
VERTEX
  5
129
  8
DEFAULT
 10
95.75740341419684
 20
26.41879802532567
 30
0.0
  0
VERTEX
  5
12A
  8
DEFAULT
 10
95.75009053848161
 20
26.40436854985175
 30
0.0
  0
VERTEX
  5
12B
  8
DEFAULT
 10
95.74238172347806
 20
26.39007472366343
 30
0.0
  0
VERTEX
  5
12C
  8
DEFAULT
 10
95.734280263734
 20
26.37593248015406
 30
0.0
  0
VERTEX
  5
12D
  8
DEFAULT
 10
95.72579029499232
 20
26.36195767629501
 30
0.0
  0
VERTEX
  5
12E
  8
DEFAULT
 10
95.71691679472808
 20
26.34816603775057
 30
0.0
  0
VERTEX
  5
12F
  8
DEFAULT
 10
95.70766557842018
 20
26.33457310357683
 30
0.0
  0
VERTEX
  5
130
  8
DEFAULT
 10
95.69804329149153
 20
26.32119417088965
 30
0.0
  0
VERTEX
  5
131
  8
DEFAULT
 10
95.68805739689012
 20
26.30804423989603
 30
0.0
  0
VERTEX
  5
132
  8
DEFAULT
 10
95.67771615832511
 20
26.29513795968824
 30
0.0
  0
VERTEX
  5
133
  8
DEFAULT
 10
95.66702861921358
 20
26.28248957519987
 30
0.0
  0
VERTEX
  5
134
  8
DEFAULT
 10
95.65600457743513
 20
26.27011287571819
 30
0.0
  0
VERTEX
  5
135
  8
DEFAULT
 10
95.64465455603333
 20
26.25802114533748
 30
0.0
  0
VERTEX
  5
136
  8
DEFAULT
 10
95.63298977004263
 20
26.24622711572312
 30
0.0
  0
VERTEX
  5
137
  8
DEFAULT
 10
92.64738056345624
 20
23.26061715887406
 30
0.0
  0
VERTEX
  5
138
  8
DEFAULT
 10
92.64738093856118
 20
20.61161828418886
 30
0.0
  0
VERTEX
  5
139
  8
DEFAULT
 10
92.9105030276753
 20
20.3485572396318
 30
0.0
  0
VERTEX
  5
13A
  8
DEFAULT
 10
94.55238071146744
 20
20.34860922894164
 30
0.0
 42
-0.1732642660704672
  0
VERTEX
  5
13B
  8
DEFAULT
 10
94.95474910286875
 20
20.20484314140982
 30
0.0
 42
-0.8254695269382241
  0
VERTEX
  5
13C
  8
DEFAULT
 10
95.82238093856114
 20
18.11982998638791
 30
0.0
  0
VERTEX
  5
13D
  8
DEFAULT
 10
95.8223809385612
 20
13.81440658198977
 30
0.0
 42
-0.251570924559842
  0
VERTEX
  5
13E
  8
DEFAULT
 10
96.33738093856118
 20
12.85561847806443
 30
0.0
  0
VERTEX
  5
13F
  8
DEFAULT
 10
96.33738093856114
 20
11.33161847806917
 30
0.0
 42
-1.000000084295784
  0
VERTEX
  5
140
  8
DEFAULT
 10
94.03738093856117
 20
11.33161828418886
 30
0.0
  0
VERTEX
  5
141
  8
DEFAULT
 10
94.03738093856121
 20
12.85561847808012
 30
0.0
 42
-0.2515709245600607
  0
VERTEX
  5
142
  8
DEFAULT
 10
94.55238093856117
 20
13.81440658198979
 30
0.0
  0
VERTEX
  5
143
  8
DEFAULT
 10
94.55238093856116
 20
18.11982998638794
 30
0.0
 42
-0.2515710159538638
  0
VERTEX
  5
144
  8
DEFAULT
 10
94.0373809385612
 20
19.07861828418885
 30
0.0
  0
VERTEX
  5
145
  8
DEFAULT
 10
92.64738093856118
 20
19.07861828418885
 30
0.0
 42
-0.2008759562291156
  0
VERTEX
  5
146
  8
DEFAULT
 10
92.19498977009263
 20
19.26800945271036
 30
0.0
  0
VERTEX
  5
147
  8
DEFAULT
 10
91.56338093856118
 20
19.89961828418886
 30
0.0
 42
-0.1989026838333795
  0
VERTEX
  5
148
  8
DEFAULT
 10
91.37738999375404
 20
20.34861828418886
 30
0.0
  0
VERTEX
  5
149
  8
DEFAULT
 10
91.37738093850203
 20
23.52361828418886
 30
0.0
 42
-0.2008759561701249
  0
VERTEX
  5
14A
  8
DEFAULT
 10
91.56677210708095
 20
23.97600945265576
 30
0.0
  0
VERTEX
  5
14B
  8
DEFAULT
 10
94.55238093856121
 20
26.96161828418884
 30
0.0
  0
VERTEX
  5
14C
  8
DEFAULT
 10
94.55238093856119
 20
60.72561828418888
 30
0.0
  0
VERTEX
  5
14D
  8
DEFAULT
 10
93.01938093856117
 20
62.25861828418887
 30
0.0
  0
VERTEX
  5
14E
  8
DEFAULT
 10
92.99016923636214
 20
62.25861828418886
 30
0.0
 42
-0.2515709245599548
  0
VERTEX
  5
14F
  8
DEFAULT
 10
92.03138113244822
 20
61.74361828418888
 30
0.0
  0
VERTEX
  5
150
  8
DEFAULT
 10
90.72338074465455
 20
61.7436182841889
 30
0.0
 42
-0.999999747117381
  0
VERTEX
  5
151
  8
DEFAULT
 10
90.72338074468215
 20
64.04361828418884
 30
0.0
  0
VERTEX
  5
152
  8
DEFAULT
 10
90.74238093856115
 20
64.04361828418887
 30
0.0
  0
VERTEX
  5
153
  8
DEFAULT
 10
90.74238093856118
 20
65.43361828418885
 30
0.0
 42
-0.2008759562292498
  0
VERTEX
  5
154
  8
DEFAULT
 10
90.93177210708294
 20
65.88600945265773
 30
0.0
  0
VERTEX
  5
155
  8
DEFAULT
 10
93.01966886227763
 20
67.97331755441897
 30
0.0
  0
VERTEX
  5
156
  8
DEFAULT
 10
92.20177210704796
 20
68.79122711570207
 30
0.0
 42
-0.2008759561876453
  0
VERTEX
  5
157
  8
DEFAULT
 10
92.0123809385612
 20
69.24361828418886
 30
0.0
  0
VERTEX
  5
158
  8
DEFAULT
 10
92.01238093856118
 20
70.64702998638789
 30
0.0
 42
-1.223584021303655
  0
VERTEX
  5
159
  8
DEFAULT
 10
93.60616923636209
 20
72.24081828418892
 30
0.0
  0
VERTEX
  5
15A
  8
DEFAULT
 10
94.74658093856115
 20
72.24081828418886
 30
0.0
  0
VERTEX
  5
15B
  8
DEFAULT
 10
96.72238093856117
 20
74.21661828418885
 30
0.0
  0
VERTEX
  5
15C
  8
DEFAULT
 10
96.72238093856117
 20
82.47353395759957
 30
0.0
 42
-6.485172167855858
  0
VERTEX
  5
15D
  8
DEFAULT
 10
97.99238093856118
 20
82.47353395759961
 30
0.0
  0
VERTEX
  5
15E
  8
DEFAULT
 10
97.99238093856118
 20
73.95361828418885
 30
0.0
 42
-0.2008759562310715
  0
VERTEX
  5
15F
  8
DEFAULT
 10
97.80298977003619
 20
73.50122711571682
 30
0.0
  0
VERTEX
  5
160
  8
DEFAULT
 10
95.46197210705832
 20
71.16020945268599
 30
0.0
 42
-0.2008759561936042
  0
VERTEX
  5
161
  8
DEFAULT
 10
95.00958093856119
 20
70.97081828418885
 30
0.0
  0
VERTEX
  5
162
  8
DEFAULT
 10
93.60616923636212
 20
70.97081828418885
 30
0.0
  0
VERTEX
  5
163
  8
DEFAULT
 10
93.28238093856122
 20
70.64702998638792
 30
0.0
  0
VERTEX
  5
164
  8
DEFAULT
 10
93.28238093856118
 20
69.50661828418885
 30
0.0
  0
VERTEX
  5
165
  8
DEFAULT
 10
94.1803809385612
 20
68.60861828418885
 30
0.0
  0
VERTEX
  5
166
  8
DEFAULT
 10
102.1723799544885
 20
68.6086092289416
 30
0.0
 42
-0.1989027004335834
  0
VERTEX
  5
167
  8
DEFAULT
 10
102.6213809385612
 20
68.42261828418884
 30
0.0
  0
VERTEX
  5
168
  8
DEFAULT
 10
104.3403809385612
 20
66.70361828418883
 30
0.0
  0
VERTEX
  5
169
  8
DEFAULT
 10
113.3393809385612
 20
66.70361828418885
 30
0.0
  0
VERTEX
  5
16A
  8
DEFAULT
 10
114.2373809385612
 20
67.60161828418885
 30
0.0
  0
VERTEX
  5
16B
  8
DEFAULT
 10
114.2373809385612
 20
70.88561828418887
 30
0.0
  0
VERTEX
  5
16C
  8
DEFAULT
 10
113.3393809385612
 20
71.78361828418885
 30
0.0
  0
VERTEX
  5
16D
  8
DEFAULT
 10
112.6561692363622
 20
71.78361828418886
 30
0.0
 42
-1.223584021303644
  0
VERTEX
  5
16E
  8
DEFAULT
 10
111.0623809385612
 20
73.37740658198982
 30
0.0
  0
VERTEX
  5
16F
  8
DEFAULT
 10
111.0623809385611
 20
78.95282998638791
 30
0.0
 42
-0.2515709245600374
  0
VERTEX
  5
170
  8
DEFAULT
 10
110.5473809385612
 20
79.91161809029654
 30
0.0
  0
VERTEX
  5
171
  8
DEFAULT
 10
110.5473809385612
 20
81.43561828418885
 30
0.0
 42
-0.9999999157019422
  0
VERTEX
  5
172
  8
DEFAULT
 10
112.8473809385612
 20
81.43561847807437
 30
0.0
  0
VERTEX
  5
173
  8
DEFAULT
 10
112.8473809385612
 20
79.91161809030382
 30
0.0
 42
-0.2515709245599201
  0
VERTEX
  5
174
  8
DEFAULT
 10
112.3323809385612
 20
78.95282998638791
 30
0.0
  0
VERTEX
  5
175
  8
DEFAULT
 10
112.3323809385612
 20
73.37740658198982
 30
0.0
  0
VERTEX
  5
176
  8
DEFAULT
 10
112.6561692363622
 20
73.05361828418883
 30
0.0
  0
VERTEX
  5
177
  8
DEFAULT
 10
113.6023809385612
 20
73.05361828418887
 30
0.0
 42
-0.2008759562223918
  0
VERTEX
  5
178
  8
DEFAULT
 10
114.0547721070184
 20
72.86422711567894
 30
0.0
  0
VERTEX
  5
179
  8
DEFAULT
 10
115.3213809385612
 20
71.59761828418885
 30
0.0
 42
-0.198902691495378
  0
VERTEX
  5
17A
  8
DEFAULT
 10
115.5073718833139
 20
71.14861783000144
 30
0.0
  0
SEQEND
  5
17B
  8
DEFAULT
  0
POLYLINE
  5
17C
  8
DEFAULT
 66
     1
 10
0.0
 20
0.0
 30
0.0
  0
VERTEX
  5
17D
  8
DEFAULT
 10
147.3773809385612
 20
32.41361828418886
 30
0.0
 42
-1.729721025916084
  0
VERTEX
  5
17E
  8
DEFAULT
 10
149.1047020132733
 20
31.41903275408434
 30
0.0
  0
VERTEX
  5
17F
  8
DEFAULT
 10
149.1047020132734
 20
22.99368216959316
 30
0.0
 42
-3.313699165019239
  0
VERTEX
  5
180
  8
DEFAULT
 10
147.8347020132791
 20
22.91708133787408
 30
0.0
  0
VERTEX
  5
181
  8
DEFAULT
 10
147.8347020132734
 20
31.49563358579928
 30
0.0
 42
-0.235298730425309
  0
VERTEX
  5
182
  8
DEFAULT
 10
147.3773809385611
 20
32.41361828418886
 30
0.0
  0
SEQEND
  5
183
  8
DEFAULT
  0
POLYLINE
  5
184
  8
DEFAULT
 66
     1
 10
0.0
 20
0.0
 30
0.0
  0
VERTEX
  5
185
  8
DEFAULT
 10
153.6073718833139
 20
62.89361828418886
 30
0.0
  0
VERTEX
  5
186
  8
DEFAULT
 10
153.6073809385612
 20
18.44361828418886
 30
0.0
 42
-0.2008759562253695
  0
VERTEX
  5
187
  8
DEFAULT
 10
153.4179897700461
 20
17.99122711572658
 30
0.0
  0
VERTEX
  5
188
  8
DEFAULT
 10
143.8963809385612
 20
8.469618284188861
 30
0.0
 42
-0.1989026838333602
  0
VERTEX
  5
189
  8
DEFAULT
 10
143.4473809385612
 20
8.283627339436087
 30
0.0
  0
VERTEX
  5
18A
  8
DEFAULT
 10
125.653157454267
 20
8.283777601423065
 30
0.0
  0
VERTEX
  5
18B
  8
DEFAULT
 10
125.6388122575403
 20
8.284261262895068
 30
0.0
  0
VERTEX
  5
18C
  8
DEFAULT
 10
125.6243549230001
 20
8.285077628835989
 30
0.0
  0
VERTEX
  5
18D
  8
DEFAULT
 10
125.6097955715773
 20
8.28623475696085
 30
0.0
  0
VERTEX
  5
18E
  8
DEFAULT
 10
125.5951448639989
 20
8.287740364515145
 30
0.0
  0
VERTEX
  5
18F
  8
DEFAULT
 10
125.5804139914452
 20
8.289601789882607
 30
0.0
  0
VERTEX
  5
190
  8
DEFAULT
 10
125.5656146632681
 20
8.291825953976538
 30
0.0
  0
VERTEX
  5
191
  8
DEFAULT
 10
125.5507590916767
 20
8.29441932165427
 30
0.0
  0
VERTEX
  5
192
  8
DEFAULT
 10
125.5358599733148
 20
8.297387863410325
 30
0.0
  0
VERTEX
  5
193
  8
DEFAULT
 10
125.5209304676827
 20
8.300737017617779
 30
0.0
  0
VERTEX
  5
194
  8
DEFAULT
 10
125.5059841723734
 20
8.304471653599604
 30
0.0
  0
VERTEX
  5
195
  8
DEFAULT
 10
125.491035095127
 20
8.308596035821225
 30
0.0
  0
VERTEX
  5
196
  8
DEFAULT
 10
125.4760976227315
 20
8.313113789502646
 30
0.0
  0
VERTEX
  5
197
  8
DEFAULT
 10
125.46118648683
 20
8.318027867952258
 30
0.0
  0
VERTEX
  5
198
  8
DEFAULT
 10
125.446316726726
 20
8.323340521925154
 30
0.0
  0
VERTEX
  5
199
  8
DEFAULT
 10
125.4315036493107
 20
8.329053271305773
 30
0.0
  0
VERTEX
  5
19A
  8
DEFAULT
 10
125.4167627862669
 20
8.335166879408114
 30
0.0
  0
VERTEX
  5
19B
  8
DEFAULT
 10
125.4021098487406
 20
8.34168133017619
 30
0.0
  0
VERTEX
  5
19C
  8
DEFAULT
 10
125.3875606796984
 20
8.348595808553036
 30
0.0
  0
VERTEX
  5
19D
  8
DEFAULT
 10
125.3731312042245
 20
8.355908684268249
 30
0.0
  0
VERTEX
  5
19E
  8
DEFAULT
 10
125.3588373780362
 20
8.363617499271767
 30
0.0
  0
VERTEX
  5
19F
  8
DEFAULT
 10
125.3446951345269
 20
8.371718959015812
 30
0.0
  0
VERTEX
  5
1A0
  8
DEFAULT
 10
125.3307203306678
 20
8.380208927757446
 30
0.0
  0
VERTEX
  5
1A1
  8
DEFAULT
 10
125.3169286921234
 20
8.389082428021664
 30
0.0
  0
VERTEX
  5
1A2
  8
DEFAULT
 10
125.3033357579497
 20
8.398333644329533
 30
0.0
  0
VERTEX
  5
1A3
  8
DEFAULT
 10
125.2899568252625
 20
8.407955931258162
 30
0.0
  0
VERTEX
  5
1A4
  8
DEFAULT
 10
125.2768068942689
 20
8.417941825859558
 30
0.0
  0
VERTEX
  5
1A5
  8
DEFAULT
 10
125.2639006140611
 20
8.428283064424539
 30
0.0
  0
VERTEX
  5
1A6
  8
DEFAULT
 10
125.2512522295728
 20
8.438970603536044
 30
0.0
  0
VERTEX
  5
1A7
  8
DEFAULT
 10
125.2388755300911
 20
8.449994645314469
 30
0.0
  0
VERTEX
  5
1A8
  8
DEFAULT
 10
125.2267837997104
 20
8.461344666716256
 30
0.0
  0
VERTEX
  5
1A9
  8
DEFAULT
 10
125.214989770096
 20
8.47300945270689
 30
0.0
  0
VERTEX
  5
1AA
  8
DEFAULT
 10
113.1963551268604
 20
20.49164409588964
 30
0.0
  0
VERTEX
  5
1AB
  8
DEFAULT
 10
112.738406750262
 20
20.49164409588961
 30
0.0
  0
VERTEX
  5
1AC
  8
DEFAULT
 10
110.8797721070558
 20
18.63300945268356
 30
0.0
 42
-0.2008759561921439
  0
VERTEX
  5
1AD
  8
DEFAULT
 10
110.4273809385612
 20
18.44361828418885
 30
0.0
  0
VERTEX
  5
1AE
  8
DEFAULT
 10
101.2261692363621
 20
18.44361828418886
 30
0.0
  0
VERTEX
  5
1AF
  8
DEFAULT
 10
100.9023809385612
 20
18.11982998638796
 30
0.0
  0
VERTEX
  5
1B0
  8
DEFAULT
 10
100.9023809385612
 20
13.81440658198976
 30
0.0
 42
-0.2515710494608125
  0
VERTEX
  5
1B1
  8
DEFAULT
 10
101.4173809385611
 20
12.85561809031024
 30
0.0
  0
VERTEX
  5
1B2
  8
DEFAULT
 10
101.4173809385611
 20
11.33161847807011
 30
0.0
 42
-1.000000084296184
  0
VERTEX
  5
1B3
  8
DEFAULT
 10
99.11738093856117
 20
11.33161828418886
 30
0.0
  0
VERTEX
  5
1B4
  8
DEFAULT
 10
99.11738093856121
 20
12.85561847807647
 30
0.0
 42
-0.25157092455997
  0
VERTEX
  5
1B5
  8
DEFAULT
 10
99.63238093856111
 20
13.81440658198976
 30
0.0
  0
VERTEX
  5
1B6
  8
DEFAULT
 10
99.63238093856116
 20
18.11982998638787
 30
0.0
 42
-1.223584021303691
  0
VERTEX
  5
1B7
  8
DEFAULT
 10
101.2261692363621
 20
19.71361828418889
 30
0.0
  0
VERTEX
  5
1B8
  8
DEFAULT
 10
110.1643809385612
 20
19.71361828418885
 30
0.0
  0
VERTEX
  5
1B9
  8
DEFAULT
 10
111.840406750262
 20
21.38964409588966
 30
0.0
  0
VERTEX
  5
1BA
  8
DEFAULT
 10
111.8173809385611
 20
21.61861828418886
 30
0.0
 42
-1.105604242541032
  0
VERTEX
  5
1BB
  8
DEFAULT
 10
114.0943551268605
 20
21.38964409588961
 30
0.0
  0
VERTEX
  5
1BC
  8
DEFAULT
 10
125.9303809385612
 20
9.55361828418885
 30
0.0
  0
VERTEX
  5
1BD
  8
DEFAULT
 10
143.1843809385612
 20
9.553618284188858
 30
0.0
  0
VERTEX
  5
1BE
  8
DEFAULT
 10
152.3373809385612
 20
18.70661828418885
 30
0.0
  0
VERTEX
  5
1BF
  8
DEFAULT
 10
152.3373809385612
 20
34.39083075537184
 30
0.0
  0
VERTEX
  5
1C0
  8
DEFAULT
 10
149.5302618873325
 20
34.39083075537184
 30
0.0
 42
-3.309580487387561
  0
VERTEX
  5
1C1
  8
DEFAULT
 10
149.434216381526
 20
35.66083075536201
 30
0.0
  0
VERTEX
  5
1C2
  8
DEFAULT
 10
152.3373809385612
 20
35.66083075537183
 30
0.0
  0
VERTEX
  5
1C3
  8
DEFAULT
 10
152.3373809385612
 20
62.63061828418884
 30
0.0
  0
VERTEX
  5
1C4
  8
DEFAULT
 10
146.9943809385612
 20
67.97361828418886
 30
0.0
  0
VERTEX
  5
1C5
  8
DEFAULT
 10
129.1661692363621
 20
67.97361828418884
 30
0.0
 42
-3.320926453229164
  0
VERTEX
  5
1C6
  8
DEFAULT
 10
129.1661692363621
 20
69.2436182841888
 30
0.0
  0
VERTEX
  5
1C7
  8
DEFAULT
 10
133.2873809385612
 20
69.24361828418886
 30
0.0
  0
VERTEX
  5
1C8
  8
DEFAULT
 10
133.2873899938084
 20
72.41861783000147
 30
0.0
 42
-0.1989026914952597
  0
VERTEX
  5
1C9
  8
DEFAULT
 10
133.4733809385611
 20
72.86761828418885
 30
0.0
  0
VERTEX
  5
1CA
  8
DEFAULT
 10
136.6449897700642
 20
76.03922711569194
 30
0.0
 42
-0.2008759561934313
  0
VERTEX
  5
1CB
  8
DEFAULT
 10
137.0973809385612
 20
76.22861828418885
 30
0.0
  0
VERTEX
  5
1CC
  8
DEFAULT
 10
146.3593809385612
 20
76.22861828418885
 30
0.0
  0
VERTEX
  5
1CD
  8
DEFAULT
 10
148.670406750262
 20
78.53964409588963
 30
0.0
  0
VERTEX
  5
1CE
  8
DEFAULT
 10
148.6473809385612
 20
78.76861828418886
 30
0.0
 42
-2.803865677366949
  0
VERTEX
  5
1CF
  8
DEFAULT
 10
149.568406750262
 20
77.64164409588963
 30
0.0
  0
VERTEX
  5
1D0
  8
DEFAULT
 10
147.0713809385612
 20
75.14461828418887
 30
0.0
 42
-0.1989026838334738
  0
VERTEX
  5
1D1
  8
DEFAULT
 10
146.6223809385612
 20
74.95862733943608
 30
0.0
  0
VERTEX
  5
1D2
  8
DEFAULT
 10
137.3603809385612
 20
74.95861828418886
 30
0.0
  0
VERTEX
  5
1D3
  8
DEFAULT
 10
134.5573809385612
 20
72.15561828418886
 30
0.0
  0
VERTEX
  5
1D4
  8
DEFAULT
 10
134.5573809385612
 20
69.24361828418886
 30
0.0
  0
VERTEX
  5
1D5
  8
DEFAULT
 10
147.2573809385612
 20
69.24361828418886
 30
0.0
 42
-0.2008759562269338
  0
VERTEX
  5
1D6
  8
DEFAULT
 10
147.7097721070262
 20
69.05422711567093
 30
0.0
  0
VERTEX
  5
1D7
  8
DEFAULT
 10
153.4213809385612
 20
63.34261828418887
 30
0.0
 42
-0.1989026838333783
  0
VERTEX
  5
1D8
  8
DEFAULT
 10
153.6073718833139
 20
62.89361828418886
 30
0.0
  0
SEQEND
  5
1D9
  8
DEFAULT
  0
POLYLINE
  5
1DA
  8
DEFAULT
 66
     1
 10
0.0
 20
0.0
 30
0.0
  0
VERTEX
  5
1DB
  8
DEFAULT
 10
121.7373809385612
 20
49.58401809029453
 30
0.0
  0
VERTEX
  5
1DC
  8
DEFAULT
 10
121.7373809385612
 20
48.26321809029704
 30
0.0
 42
-0.2515709245600283
  0
VERTEX
  5
1DD
  8
DEFAULT
 10
121.2223809385611
 20
47.30442998638794
 30
0.0
  0
VERTEX
  5
1DE
  8
DEFAULT
 10
121.2223809385612
 20
41.93861828418886
 30
0.0
 42
-0.200875956224173
  0
VERTEX
  5
1DF
  8
DEFAULT
 10
121.0329897700481
 20
41.48622711572862
 30
0.0
  0
VERTEX
  5
1E0
  8
DEFAULT
 10
119.1313809385612
 20
39.58461828418884
 30
0.0
 42
-0.1989026838333781
  0
VERTEX
  5
1E1
  8
DEFAULT
 10
118.6823809385612
 20
39.3986273394361
 30
0.0
  0
VERTEX
  5
1E2
  8
DEFAULT
 10
108.2301692363622
 20
39.39861828418886
 30
0.0
 42
-0.251571049460635
  0
VERTEX
  5
1E3
  8
DEFAULT
 10
107.2713807446757
 20
38.88361828418887
 30
0.0
  0
VERTEX
  5
1E4
  8
DEFAULT
 10
105.9633807446821
 20
38.88361828418889
 30
0.0
 42
-0.9999999157098388
  0
VERTEX
  5
1E5
  8
DEFAULT
 10
105.9633811324448
 20
41.18361828418883
 30
0.0
  0
VERTEX
  5
1E6
  8
DEFAULT
 10
107.2713807446664
 20
41.18361828418884
 30
0.0
 42
-0.2515710607726239
  0
VERTEX
  5
1E7
  8
DEFAULT
 10
108.230169236362
 20
40.66861828418888
 30
0.0
  0
VERTEX
  5
1E8
  8
DEFAULT
 10
118.4193809385612
 20
40.66861828418885
 30
0.0
  0
VERTEX
  5
1E9
  8
DEFAULT
 10
119.9523809385612
 20
42.2016182841889
 30
0.0
  0
VERTEX
  5
1EA
  8
DEFAULT
 10
119.9523809385612
 20
47.30442998638795
 30
0.0
 42
-0.2515709245599912
  0
VERTEX
  5
1EB
  8
DEFAULT
 10
119.4373809385612
 20
48.26321809030177
 30
0.0
  0
VERTEX
  5
1EC
  8
DEFAULT
 10
119.4373809385612
 20
49.58401828413464
 30
0.0
 42
-1.000000084325482
  0
VERTEX
  5
1ED
  8
DEFAULT
 10
121.7373809385612
 20
49.58401809029453
 30
0.0
  0
SEQEND
  5
1EE
  8
DEFAULT
  0
POLYLINE
  5
1EF
  8
DEFAULT
 66
     1
 10
0.0
 20
0.0
 30
0.0
  0
VERTEX
  5
1F0
  8
DEFAULT
 10
124.2773809385611
 20
49.58401809029156
 30
0.0
  0
VERTEX
  5
1F1
  8
DEFAULT
 10
124.2773809385611
 20
48.26321809027891
 30
0.0
 42
-0.2515709245602132
  0
VERTEX
  5
1F2
  8
DEFAULT
 10
123.7623809385612
 20
47.30442998638791
 30
0.0
  0
VERTEX
  5
1F3
  8
DEFAULT
 10
123.7623809385612
 20
34.00740658198973
 30
0.0
 42
-0.5371363012890681
  0
VERTEX
  5
1F4
  8
DEFAULT
 10
123.7623809385611
 20
32.08982998638793
 30
0.0
  0
VERTEX
  5
1F5
  8
DEFAULT
 10
123.7623809385612
 20
31.49280658198974
 30
0.0
 42
-0.2515709245598395
  0
VERTEX
  5
1F6
  8
DEFAULT
 10
124.2773809385611
 20
30.53401847806754
 30
0.0
  0
VERTEX
  5
1F7
  8
DEFAULT
 10
124.2773809385612
 20
29.21321828418886
 30
0.0
 42
-0.9999999157023532
  0
VERTEX
  5
1F8
  8
DEFAULT
 10
121.9773809385612
 20
29.21321809030422
 30
0.0
  0
VERTEX
  5
1F9
  8
DEFAULT
 10
121.9773809385612
 20
30.53401847806981
 30
0.0
 42
-0.2515709245599632
  0
VERTEX
  5
1FA
  8
DEFAULT
 10
122.4923809385612
 20
31.49280658198982
 30
0.0
  0
VERTEX
  5
1FB
  8
DEFAULT
 10
122.4923809385612
 20
32.08982998638795
 30
0.0
 42
-0.5371363012890304
  0
VERTEX
  5
1FC
  8
DEFAULT
 10
122.4923809385612
 20
34.00740658198981
 30
0.0
  0
VERTEX
  5
1FD
  8
DEFAULT
 10
122.4923809385612
 20
47.30442998638794
 30
0.0
 42
-0.2515709245600327
  0
VERTEX
  5
1FE
  8
DEFAULT
 10
121.9773809385612
 20
48.26321809030032
 30
0.0
  0
VERTEX
  5
1FF
  8
DEFAULT
 10
121.9773809385612
 20
49.58401828407229
 30
0.0
 42
-1.000000084353886
  0
VERTEX
  5
200
  8
DEFAULT
 10
124.2773809385611
 20
49.58401809029156
 30
0.0
  0
SEQEND
  5
201
  8
DEFAULT
  0
POLYLINE
  5
202
  8
DEFAULT
 66
     1
 10
0.0
 20
0.0
 30
0.0
  0
VERTEX
  5
203
  8
DEFAULT
 10
145.0285926407603
 20
43.20861828418885
 30
0.0
 42
-3.320926453229752
  0
VERTEX
  5
204
  8
DEFAULT
 10
145.0285926407602
 20
41.93861828418883
 30
0.0
  0
VERTEX
  5
205
  8
DEFAULT
 10
142.4403809385612
 20
41.93861828418886
 30
0.0
  0
VERTEX
  5
206
  8
DEFAULT
 10
140.7213809385612
 20
40.21961828418885
 30
0.0
 42
-0.1989026838333265
  0
VERTEX
  5
207
  8
DEFAULT
 10
140.2723809385612
 20
40.03362733943609
 30
0.0
  0
VERTEX
  5
208
  8
DEFAULT
 10
126.9231574542671
 20
40.03377760142307
 30
0.0
  0
VERTEX
  5
209
  8
DEFAULT
 10
126.9088122575404
 20
40.03426126289506
 30
0.0
  0
VERTEX
  5
20A
  8
DEFAULT
 10
126.8943549230003
 20
40.03507762883599
 30
0.0
  0
VERTEX
  5
20B
  8
DEFAULT
 10
126.8797955715775
 20
40.03623475696082
 30
0.0
  0
VERTEX
  5
20C
  8
DEFAULT
 10
126.8651448639992
 20
40.0377403645151
 30
0.0
  0
VERTEX
  5
20D
  8
DEFAULT
 10
126.8504139914456
 20
40.03960178988255
 30
0.0
  0
VERTEX
  5
20E
  8
DEFAULT
 10
126.8356146632686
 20
40.04182595397646
 30
0.0
  0
VERTEX
  5
20F
  8
DEFAULT
 10
126.8207590916772
 20
40.04441932165416
 30
0.0
  0
VERTEX
  5
210
  8
DEFAULT
 10
126.8058599733155
 20
40.04738786341019
 30
0.0
  0
VERTEX
  5
211
  8
DEFAULT
 10
126.7909304676834
 20
40.05073701761761
 30
0.0
  0
VERTEX
  5
212
  8
DEFAULT
 10
126.7759841723742
 20
40.0544716535994
 30
0.0
  0
VERTEX
  5
213
  8
DEFAULT
 10
126.7610350951279
 20
40.05859603582098
 30
0.0
  0
VERTEX
  5
214
  8
DEFAULT
 10
126.7460976227324
 20
40.06311378950235
 30
0.0
  0
VERTEX
  5
215
  8
DEFAULT
 10
126.7311864868309
 20
40.06802786795192
 30
0.0
  0
VERTEX
  5
216
  8
DEFAULT
 10
126.716316726727
 20
40.07334052192476
 30
0.0
  0
VERTEX
  5
217
  8
DEFAULT
 10
126.7015036493118
 20
40.07905327130532
 30
0.0
  0
VERTEX
  5
218
  8
DEFAULT
 10
126.6867627862681
 20
40.08516687940759
 30
0.0
  0
VERTEX
  5
219
  8
DEFAULT
 10
126.6721098487419
 20
40.0916813301756
 30
0.0
  0
VERTEX
  5
21A
  8
DEFAULT
 10
126.6575606796998
 20
40.09859580855238
 30
0.0
  0
VERTEX
  5
21B
  8
DEFAULT
 10
126.6431312042259
 20
40.10590868426752
 30
0.0
  0
VERTEX
  5
21C
  8
DEFAULT
 10
126.6288373780377
 20
40.11361749927096
 30
0.0
  0
VERTEX
  5
21D
  8
DEFAULT
 10
126.6146951345284
 20
40.12171895901492
 30
0.0
  0
VERTEX
  5
21E
  8
DEFAULT
 10
126.6007203306694
 20
40.13020892775647
 30
0.0
  0
VERTEX
  5
21F
  8
DEFAULT
 10
126.586928692125
 20
40.13908242802061
 30
0.0
  0
VERTEX
  5
220
  8
DEFAULT
 10
126.5733357579513
 20
40.14833364432839
 30
0.0
  0
VERTEX
  5
221
  8
DEFAULT
 10
126.5599568252642
 20
40.15795593125692
 30
0.0
  0
VERTEX
  5
222
  8
DEFAULT
 10
126.5468068942706
 20
40.16794182585822
 30
0.0
  0
VERTEX
  5
223
  8
DEFAULT
 10
126.5339006140629
 20
40.17828306442311
 30
0.0
  0
VERTEX
  5
224
  8
DEFAULT
 10
126.5212522295745
 20
40.18897060353451
 30
0.0
  0
VERTEX
  5
225
  8
DEFAULT
 10
126.5088755300929
 20
40.19999464531283
 30
0.0
  0
VERTEX
  5
226
  8
DEFAULT
 10
126.4967837997122
 20
40.21134466671452
 30
0.0
  0
VERTEX
  5
227
  8
DEFAULT
 10
126.4849897700978
 20
40.22300945270504
 30
0.0
  0
VERTEX
  5
228
  8
DEFAULT
 10
125.2183809385612
 20
41.48961828418885
 30
0.0
 42
-0.1989026838333344
  0
VERTEX
  5
229
  8
DEFAULT
 10
125.0323899938084
 20
41.93861828418886
 30
0.0
  0
VERTEX
  5
22A
  8
DEFAULT
 10
125.0323809385612
 20
47.30442998638795
 30
0.0
 42
-0.2515709245602284
  0
VERTEX
  5
22B
  8
DEFAULT
 10
124.5173809385612
 20
48.26321809028071
 30
0.0
  0
VERTEX
  5
22C
  8
DEFAULT
 10
124.5173809385612
 20
49.58401828396684
 30
0.0
 42
-1.000000084395906
  0
VERTEX
  5
22D
  8
DEFAULT
 10
126.8173809385612
 20
49.58401809030038
 30
0.0
  0
VERTEX
  5
22E
  8
DEFAULT
 10
126.8173809385612
 20
48.26321847806524
 30
0.0
 42
-0.2515710607683893
  0
VERTEX
  5
22F
  8
DEFAULT
 10
126.3023809385612
 20
47.30442998638793
 30
0.0
  0
VERTEX
  5
230
  8
DEFAULT
 10
126.3023809385612
 20
42.20161828418884
 30
0.0
  0
VERTEX
  5
231
  8
DEFAULT
 10
127.2003809385612
 20
41.30361828418884
 30
0.0
  0
VERTEX
  5
232
  8
DEFAULT
 10
140.0093809385612
 20
41.30361828418886
 30
0.0
  0
VERTEX
  5
233
  8
DEFAULT
 10
141.7283809385612
 20
43.02261828418884
 30
0.0
 42
-0.198902632809297
  0
VERTEX
  5
234
  8
DEFAULT
 10
142.1773808315082
 20
43.2086092289416
 30
0.0
  0
VERTEX
  5
235
  8
DEFAULT
 10
145.0285926407602
 20
43.20861828418884
 30
0.0
  0
SEQEND
  5
236
  8
DEFAULT
  0
POLYLINE
  5
237
  8
DEFAULT
 66
     1
 10
0.0
 20
0.0
 30
0.0
  0
VERTEX
  5
238
  8
DEFAULT
 10
145.0285926407603
 20
45.74861828418884
 30
0.0
 42
-3.320926453229696
  0
VERTEX
  5
239
  8
DEFAULT
 10
145.0285926407602
 20
44.47861828418883
 30
0.0
  0
VERTEX
  5
23A
  8
DEFAULT
 10
141.8053809385612
 20
44.47861828418885
 30
0.0
  0
VERTEX
  5
23B
  8
DEFAULT
 10
140.0863809385611
 20
42.75961828418887
 30
0.0
 42
-0.1989026346152081
  0
VERTEX
  5
23C
  8
DEFAULT
 10
139.6373809385612
 20
42.57362733943609
 30
0.0
  0
VERTEX
  5
23D
  8
DEFAULT
 10
132.017381846936
 20
42.57362733943609
 30
0.0
 42
-0.1989026991566146
  0
VERTEX
  5
23E
  8
DEFAULT
 10
131.5683809385612
 20
42.75961828418885
 30
0.0
  0
VERTEX
  5
23F
  8
DEFAULT
 10
130.3017721070539
 20
44.02622711569608
 30
0.0
 42
-0.2008759561909331
  0
VERTEX
  5
240
  8
DEFAULT
 10
130.1123809385612
 20
44.47861828418885
 30
0.0
  0
VERTEX
  5
241
  8
DEFAULT
 10
130.1123809385612
 20
47.3044299863879
 30
0.0
 42
-0.2515709245600248
  0
VERTEX
  5
242
  8
DEFAULT
 10
129.5973809385612
 20
48.26321809029223
 30
0.0
  0
VERTEX
  5
243
  8
DEFAULT
 10
129.5973809385612
 20
49.58401828418886
 30
0.0
 42
-0.999999915700296
  0
VERTEX
  5
244
  8
DEFAULT
 10
131.8973809385611
 20
49.58401847807816
 30
0.0
  0
VERTEX
  5
245
  8
DEFAULT
 10
131.8973809385612
 20
48.26321809030051
 30
0.0
 42
-0.2515709245600219
  0
VERTEX
  5
246
  8
DEFAULT
 10
131.3823809385611
 20
47.30442998638793
 30
0.0
  0
VERTEX
  5
247
  8
DEFAULT
 10
131.3823809385612
 20
44.74161828418889
 30
0.0
  0
VERTEX
  5
248
  8
DEFAULT
 10
132.2803809385612
 20
43.84361828418882
 30
0.0
  0
VERTEX
  5
249
  8
DEFAULT
 10
139.3743809385612
 20
43.84361828418885
 30
0.0
  0
VERTEX
  5
24A
  8
DEFAULT
 10
141.0933809385612
 20
45.56261828418886
 30
0.0
 42
-0.1989026838333975
  0
VERTEX
  5
24B
  8
DEFAULT
 10
141.5423809385611
 20
45.74860922894166
 30
0.0
  0
VERTEX
  5
24C
  8
DEFAULT
 10
145.0285926407603
 20
45.74861828418885
 30
0.0
  0
SEQEND
  5
24D
  8
DEFAULT
  0
POLYLINE
  5
24E
  8
DEFAULT
 66
     1
 10
0.0
 20
0.0
 30
0.0
  0
VERTEX
  5
24F
  8
DEFAULT
 10
140.2723809385611
 20
48.61240658198979
 30
0.0
 42
-0.5853960491632708
  0
VERTEX
  5
250
  8
DEFAULT
 10
140.1253115058765
 20
46.61226159146566
 30
0.0
  0
VERTEX
  5
251
  8
DEFAULT
 10
138.819772107053
 20
45.30300945268069
 30
0.0
 42
-0.2008759561904354
  0
VERTEX
  5
252
  8
DEFAULT
 10
138.3673809385612
 20
45.11361828418888
 30
0.0
  0
VERTEX
  5
253
  8
DEFAULT
 10
134.5573808315082
 20
45.1136273394361
 30
0.0
 42
-0.1989026328092683
  0
VERTEX
  5
254
  8
DEFAULT
 10
134.1083809385612
 20
45.29961828418886
 30
0.0
  0
VERTEX
  5
255
  8
DEFAULT
 10
132.8417721070524
 20
46.56622711569769
 30
0.0
 42
-0.2316248077758382
  0
VERTEX
  5
256
  8
DEFAULT
 10
132.6523809385612
 20
47.30442998638791
 30
0.0
 42
-0.2515710159539117
  0
VERTEX
  5
257
  8
DEFAULT
 10
132.1373809385612
 20
48.26321828418887
 30
0.0
  0
VERTEX
  5
258
  8
DEFAULT
 10
132.1373809385612
 20
49.58401847808022
 30
0.0
 42
-0.9999998314034101
  0
VERTEX
  5
259
  8
DEFAULT
 10
134.4373809385611
 20
49.58401847806974
 30
0.0
  0
VERTEX
  5
25A
  8
DEFAULT
 10
134.4373809385611
 20
48.26321847809538
 30
0.0
 42
-0.2515710607753278
  0
VERTEX
  5
25B
  8
DEFAULT
 10
133.9223809385612
 20
47.30442998638794
 30
0.0
  0
VERTEX
  5
25C
  8
DEFAULT
 10
133.9223809385612
 20
47.28161828418884
 30
0.0
  0
VERTEX
  5
25D
  8
DEFAULT
 10
134.8203809385612
 20
46.38361828418886
 30
0.0
  0
VERTEX
  5
25E
  8
DEFAULT
 10
138.1043809385611
 20
46.38361828418886
 30
0.0
  0
VERTEX
  5
25F
  8
DEFAULT
 10
138.7034111571987
 20
46.98264850282633
 30
0.0
 42
-0.4253887629221083
  0
VERTEX
  5
260
  8
DEFAULT
 10
139.0023809385611
 20
48.61240658198977
 30
0.0
  0
VERTEX
  5
261
  8
DEFAULT
 10
139.0023809385612
 20
58.18561828418888
 30
0.0
  0
VERTEX
  5
262
  8
DEFAULT
 10
136.8343809385612
 20
60.35361828418883
 30
0.0
  0
VERTEX
  5
263
  8
DEFAULT
 10
135.5161692363621
 20
60.35361828418885
 30
0.0
 42
-0.3055804955405222
  0
VERTEX
  5
264
  8
DEFAULT
 10
134.328406750262
 20
59.8616440958896
 30
0.0
  0
VERTEX
  5
265
  8
DEFAULT
 10
133.9223809385612
 20
59.45561828418886
 30
0.0
  0
VERTEX
  5
266
  8
DEFAULT
 10
133.9223809385612
 20
58.16280658198977
 30
0.0
 42
-0.251571049460632
  0
VERTEX
  5
267
  8
DEFAULT
 10
134.4373809385611
 20
57.2040180902874
 30
0.0
  0
VERTEX
  5
268
  8
DEFAULT
 10
134.4373809385612
 20
55.88321809029398
 30
0.0
 42
-0.9999999156979232
  0
VERTEX
  5
269
  8
DEFAULT
 10
132.1373809385612
 20
55.88321828418886
 30
0.0
  0
VERTEX
  5
26A
  8
DEFAULT
 10
132.1373809385612
 20
57.20401847807062
 30
0.0
 42
-0.2515709245599831
  0
VERTEX
  5
26B
  8
DEFAULT
 10
132.6523809385612
 20
58.1628065819898
 30
0.0
  0
VERTEX
  5
26C
  8
DEFAULT
 10
132.6523899938084
 20
59.71861790569935
 30
0.0
 42
-0.1989026902182083
  0
VERTEX
  5
26D
  8
DEFAULT
 10
132.8383809385612
 20
60.16761828418886
 30
0.0
  0
VERTEX
  5
26E
  8
DEFAULT
 10
133.4304067502619
 20
60.75964409588957
 30
0.0
  0
VERTEX
  5
26F
  8
DEFAULT
 10
133.4073809385613
 20
60.98861828418886
 30
0.0
 42
-0.743232468665347
  0
VERTEX
  5
270
  8
DEFAULT
 10
135.5161692363621
 20
61.62361828418885
 30
0.0
  0
VERTEX
  5
271
  8
DEFAULT
 10
137.0973809385612
 20
61.62360922894163
 30
0.0
 42
-0.1989026838334153
  0
VERTEX
  5
272
  8
DEFAULT
 10
137.5463809385612
 20
61.43761828418885
 30
0.0
  0
VERTEX
  5
273
  8
DEFAULT
 10
140.0863809385612
 20
58.89761828418885
 30
0.0
 42
-0.1989026838334051
  0
VERTEX
  5
274
  8
DEFAULT
 10
140.2723718833139
 20
58.44861828418885
 30
0.0
  0
VERTEX
  5
275
  8
DEFAULT
 10
140.2723809385612
 20
48.61240658198976
 30
0.0
  0
SEQEND
  5
276
  8
DEFAULT
  0
POLYLINE
  5
277
  8
DEFAULT
 66
     1
 10
0.0
 20
0.0
 30
0.0
  0
VERTEX
  5
278
  8
DEFAULT
 10
136.9773809385612
 20
49.58401847806581
 30
0.0
  0
VERTEX
  5
279
  8
DEFAULT
 10
136.9773809385611
 20
48.26321847809501
 30
0.0
 42
-1.000000084307036
  0
VERTEX
  5
27A
  8
DEFAULT
 10
134.6773809385612
 20
48.26321828418887
 30
0.0
  0
VERTEX
  5
27B
  8
DEFAULT
 10
134.6773809385612
 20
49.58401828414657
 30
0.0
 42
-0.1529577222298292
  0
VERTEX
  5
27C
  8
DEFAULT
 10
134.8828957643889
 20
50.24010345836117
 30
0.0
  0
VERTEX
  5
27D
  8
DEFAULT
 10
134.2435809385612
 20
50.87941828418884
 30
0.0
  0
VERTEX
  5
27E
  8
DEFAULT
 10
119.6311809385612
 20
50.87941828418886
 30
0.0
  0
VERTEX
  5
27F
  8
DEFAULT
 10
118.6823809385612
 20
49.93061828418885
 30
0.0
  0
VERTEX
  5
280
  8
DEFAULT
 10
118.6823809385612
 20
43.84361828418885
 30
0.0
 42
-0.2008759562264509
  0
VERTEX
  5
281
  8
DEFAULT
 10
118.492989770044
 20
43.39122711572456
 30
0.0
  0
VERTEX
  5
282
  8
DEFAULT
 10
117.2263809385612
 20
42.12461828418886
 30
0.0
 42
-0.198902683833349
  0
VERTEX
  5
283
  8
DEFAULT
 10
116.7773809385612
 20
41.9386273394361
 30
0.0
  0
VERTEX
  5
284
  8
DEFAULT
 10
108.2301692363621
 20
41.93861828418886
 30
0.0
 42
-0.251571049460619
  0
VERTEX
  5
285
  8
DEFAULT
 10
107.2713807446711
 20
41.42361828418887
 30
0.0
  0
VERTEX
  5
286
  8
DEFAULT
 10
105.9633807446714
 20
41.42361828418888
 30
0.0
 42
-0.999999915713827
  0
VERTEX
  5
287
  8
DEFAULT
 10
105.9633811324539
 20
43.72361828418884
 30
0.0
  0
VERTEX
  5
288
  8
DEFAULT
 10
107.2713811324396
 20
43.72361828418881
 30
0.0
 42
-0.2515709245599133
  0
VERTEX
  5
289
  8
DEFAULT
 10
108.2301692363621
 20
43.20861828418884
 30
0.0
  0
VERTEX
  5
28A
  8
DEFAULT
 10
116.5143809385611
 20
43.20861828418886
 30
0.0
  0
VERTEX
  5
28B
  8
DEFAULT
 10
117.4123990237775
 20
44.10665445462151
 30
0.0
  0
VERTEX
  5
28C
  8
DEFAULT
 10
117.4123899938084
 20
50.19361752720988
 30
0.0
 42
-0.1989026966028276
  0
VERTEX
  5
28D
  8
DEFAULT
 10
117.5983809385611
 20
50.64261828418885
 30
0.0
  0
VERTEX
  5
28E
  8
DEFAULT
 10
118.9157897700706
 20
51.96002711569823
 30
0.0
 42
-0.2008759561897992
  0
VERTEX
  5
28F
  8
DEFAULT
 10
119.3681809385612
 20
52.14941828418884
 30
0.0
  0
VERTEX
  5
290
  8
DEFAULT
 10
134.5065809385612
 20
52.14941828418885
 30
0.0
 42
-0.2008759562256397
  0
VERTEX
  5
291
  8
DEFAULT
 10
134.9589721070239
 20
51.9600271156733
 30
0.0
  0
VERTEX
  5
292
  8
DEFAULT
 10
136.2729897700648
 20
50.64600945268526
 30
0.0
  0
VERTEX
  5
293
  8
DEFAULT
 10
136.2762079501991
 20
50.6428168078109
 30
0.0
 42
-0.3010980662320541
  0
VERTEX
  5
294
  8
DEFAULT
 10
136.9773809385612
 20
49.58401847806581
 30
0.0
  0
SEQEND
  5
295
  8
DEFAULT
  0
POLYLINE
  5
296
  8
DEFAULT
 66
     1
 10
0.0
 20
0.0
 30
0.0
  0
VERTEX
  5
297
  8
DEFAULT
 10
136.9773809385612
 20
57.20401809028999
 30
0.0
  0
VERTEX
  5
298
  8
DEFAULT
 10
136.9773809385611
 20
55.88321847806624
 30
0.0
 42
-0.3011096196860341
  0
VERTEX
  5
299
  8
DEFAULT
 10
136.2761636275771
 20
54.82440097320469
 30
0.0
  0
VERTEX
  5
29A
  8
DEFAULT
 10
134.9555809385612
 20
53.50381828418886
 30
0.0
 42
-0.198902683833431
  0
VERTEX
  5
29B
  8
DEFAULT
 10
134.5065809385611
 20
53.31782733943609
 30
0.0
  0
VERTEX
  5
29C
  8
DEFAULT
 10
118.2595809385612
 20
53.31781828418886
 30
0.0
  0
VERTEX
  5
29D
  8
DEFAULT
 10
116.1423608319482
 20
51.20057807096291
 30
0.0
  0
VERTEX
  5
29E
  8
DEFAULT
 10
116.1423718833139
 20
45.74861896546994
 30
0.0
 42
-0.1989026953259883
  0
VERTEX
  5
29F
  8
DEFAULT
 10
115.9563809385612
 20
45.29961828418885
 30
0.0
  0
VERTEX
  5
2A0
  8
DEFAULT
 10
115.324772107049
 20
44.66800945267668
 30
0.0
 42
-0.2008759561882603
  0
VERTEX
  5
2A1
  8
DEFAULT
 10
114.8723809385612
 20
44.47861828418885
 30
0.0
  0
VERTEX
  5
2A2
  8
DEFAULT
 10
108.2301692363621
 20
44.47861828418885
 30
0.0
 42
-0.2515709245599471
  0
VERTEX
  5
2A3
  8
DEFAULT
 10
107.2713811324421
 20
43.96361828418888
 30
0.0
  0
VERTEX
  5
2A4
  8
DEFAULT
 10
105.9633807446691
 20
43.96361828418885
 30
0.0
 42
-0.9999999157063292
  0
VERTEX
  5
2A5
  8
DEFAULT
 10
105.9633811324367
 20
46.26361828418882
 30
0.0
  0
VERTEX
  5
2A6
  8
DEFAULT
 10
107.2713811324367
 20
46.26361828418882
 30
0.0
 42
-0.25157092455995
  0
VERTEX
  5
2A7
  8
DEFAULT
 10
108.2301692363621
 20
45.74861828418886
 30
0.0
  0
VERTEX
  5
2A8
  8
DEFAULT
 10
114.6093809385611
 20
45.74861828418885
 30
0.0
  0
VERTEX
  5
2A9
  8
DEFAULT
 10
114.8723809385612
 20
46.01161828418884
 30
0.0
  0
VERTEX
  5
2AA
  8
DEFAULT
 10
114.8723809385612
 20
51.46361828418885
 30
0.0
 42
-0.2008759562305023
  0
VERTEX
  5
2AB
  8
DEFAULT
 10
115.0617721070851
 20
51.91600945265981
 30
0.0
  0
VERTEX
  5
2AC
  8
DEFAULT
 10
117.5475809385612
 20
54.40181828418886
 30
0.0
 42
-0.1989026838333516
  0
VERTEX
  5
2AD
  8
DEFAULT
 10
117.9965809385612
 20
54.58780922894162
 30
0.0
  0
VERTEX
  5
2AE
  8
DEFAULT
 10
134.2435809385613
 20
54.58781828418886
 30
0.0
  0
VERTEX
  5
2AF
  8
DEFAULT
 10
134.8828957643889
 20
55.22713311001655
 30
0.0
 42
-0.1529576342959174
  0
VERTEX
  5
2B0
  8
DEFAULT
 10
134.6773809385612
 20
55.88321809030715
 30
0.0
  0
VERTEX
  5
2B1
  8
DEFAULT
 10
134.6773809385612
 20
57.20401828408217
 30
0.0
 42
-1.000000084350243
  0
VERTEX
  5
2B2
  8
DEFAULT
 10
136.9773809385612
 20
57.20401809028998
 30
0.0
  0
SEQEND
  5
2B3
  8
DEFAULT
  0
POLYLINE
  5
2B4
  8
DEFAULT
 66
     1
 10
0.0
 20
0.0
 30
0.0
  0
VERTEX
  5
2B5
  8
DEFAULT
 10
146.6223809385612
 20
48.61240658198977
 30
0.0
 42
-3.320926453229626
  0
VERTEX
  5
2B6
  8
DEFAULT
 10
145.3523809385611
 20
48.61240658198972
 30
0.0
  0
VERTEX
  5
2B7
  8
DEFAULT
 10
145.3523809385612
 20
61.36061828418885
 30
0.0
  0
VERTEX
  5
2B8
  8
DEFAULT
 10
144.4543809385612
 20
62.25861828418886
 30
0.0
  0
VERTEX
  5
2B9
  8
DEFAULT
 10
132.2803809385612
 20
62.25861828418886
 30
0.0
  0
VERTEX
  5
2BA
  8
DEFAULT
 10
131.3823809385612
 20
61.36061828418885
 30
0.0
  0
VERTEX
  5
2BB
  8
DEFAULT
 10
131.3823809385612
 20
58.16280658198982
 30
0.0
 42
-0.2515709245599309
  0
VERTEX
  5
2BC
  8
DEFAULT
 10
131.8973809385612
 20
57.20401847807113
 30
0.0
  0
VERTEX
  5
2BD
  8
DEFAULT
 10
131.8973809385612
 20
55.88321847807464
 30
0.0
 42
-1.000000084298185
  0
VERTEX
  5
2BE
  8
DEFAULT
 10
129.5973809385612
 20
55.88321828418886
 30
0.0
  0
VERTEX
  5
2BF
  8
DEFAULT
 10
129.5973809385612
 20
57.20401847807014
 30
0.0
 42
-0.2515709245599446
  0
VERTEX
  5
2C0
  8
DEFAULT
 10
130.1123809385612
 20
58.16280658198974
 30
0.0
  0
VERTEX
  5
2C1
  8
DEFAULT
 10
130.1123809385612
 20
61.62361828418885
 30
0.0
 42
-0.200875956228892
  0
VERTEX
  5
2C2
  8
DEFAULT
 10
130.3017721070822
 20
62.07600945265698
 30
0.0
  0
VERTEX
  5
2C3
  8
DEFAULT
 10
131.5683809385612
 20
63.34261828418887
 30
0.0
 42
-0.1989026838334245
  0
VERTEX
  5
2C4
  8
DEFAULT
 10
132.0173809385612
 20
63.5286092289416
 30
0.0
  0
VERTEX
  5
2C5
  8
DEFAULT
 10
144.7316044228554
 20
63.52845896695463
 30
0.0
  0
VERTEX
  5
2C6
  8
DEFAULT
 10
144.7459496195823
 20
63.52797530548263
 30
0.0
  0
VERTEX
  5
2C7
  8
DEFAULT
 10
144.7604069541226
 20
63.52715893954169
 30
0.0
  0
VERTEX
  5
2C8
  8
DEFAULT
 10
144.7749663055455
 20
63.5260018114168
 30
0.0
  0
VERTEX
  5
2C9
  8
DEFAULT
 10
144.7896170131241
 20
63.52449620386248
 30
0.0
  0
VERTEX
  5
2CA
  8
DEFAULT
 10
144.8043478856779
 20
63.522634778495
 30
0.0
  0
VERTEX
  5
2CB
  8
DEFAULT
 10
144.819147213855
 20
63.52041061440102
 30
0.0
  0
VERTEX
  5
2CC
  8
DEFAULT
 10
144.8340027854466
 20
63.51781724672325
 30
0.0
  0
VERTEX
  5
2CD
  8
DEFAULT
 10
144.8489019038085
 20
63.51484870496715
 30
0.0
  0
VERTEX
  5
2CE
  8
DEFAULT
 10
144.8638314094408
 20
63.51149955075965
 30
0.0
  0
VERTEX
  5
2CF
  8
DEFAULT
 10
144.8787777047502
 20
63.50776491477777
 30
0.0
  0
VERTEX
  5
2D0
  8
DEFAULT
 10
144.8937267819967
 20
63.50364053255608
 30
0.0
  0
VERTEX
  5
2D1
  8
DEFAULT
 10
144.9086642543924
 20
63.49912277887458
 30
0.0
  0
VERTEX
  5
2D2
  8
DEFAULT
 10
144.923575390294
 20
63.49420870042488
 30
0.0
  0
VERTEX
  5
2D3
  8
DEFAULT
 10
144.9384451503981
 20
63.48889604645191
 30
0.0
  0
VERTEX
  5
2D4
  8
DEFAULT
 10
144.9532582278135
 20
63.4831832970712
 30
0.0
  0
VERTEX
  5
2D5
  8
DEFAULT
 10
144.9679990908573
 20
63.47706968896875
 30
0.0
  0
VERTEX
  5
2D6
  8
DEFAULT
 10
144.9826520283837
 20
63.47055523820058
 30
0.0
  0
VERTEX
  5
2D7
  8
DEFAULT
 10
144.997201197426
 20
63.46364075982363
 30
0.0
  0
VERTEX
  5
2D8
  8
DEFAULT
 10
145.0116306729
 20
63.4563278841083
 30
0.0
  0
VERTEX
  5
2D9
  8
DEFAULT
 10
145.0259244990884
 20
63.44861906910466
 30
0.0
  0
VERTEX
  5
2DA
  8
DEFAULT
 10
145.0400667425978
 20
63.44051760936049
 30
0.0
  0
VERTEX
  5
2DB
  8
DEFAULT
 10
145.054041546457
 20
63.43202764061873
 30
0.0
  0
VERTEX
  5
2DC
  8
DEFAULT
 10
145.0678331850014
 20
63.42315414035437
 30
0.0
  0
VERTEX
  5
2DD
  8
DEFAULT
 10
145.0814261191752
 20
63.41390292404637
 30
0.0
  0
VERTEX
  5
2DE
  8
DEFAULT
 10
145.0948050518625
 20
63.40428063711759
 30
0.0
  0
VERTEX
  5
2DF
  8
DEFAULT
 10
145.1079549828561
 20
63.39429474251605
 30
0.0
  0
VERTEX
  5
2E0
  8
DEFAULT
 10
145.1208612630639
 20
63.38395350395091
 30
0.0
  0
VERTEX
  5
2E1
  8
DEFAULT
 10
145.1335096475523
 20
63.37326596483926
 30
0.0
  0
VERTEX
  5
2E2
  8
DEFAULT
 10
145.1458863470341
 20
63.36224192306067
 30
0.0
  0
VERTEX
  5
2E3
  8
DEFAULT
 10
145.1579780774148
 20
63.35089190165871
 30
0.0
  0
VERTEX
  5
2E4
  8
DEFAULT
 10
145.1697721070291
 20
63.33922711566792
 30
0.0
  0
VERTEX
  5
2E5
  8
DEFAULT
 10
146.4363809385612
 20
62.07261828418884
 30
0.0
 42
-0.1989026838332805
  0
VERTEX
  5
2E6
  8
DEFAULT
 10
146.6223718833139
 20
61.62361828418886
 30
0.0
  0
VERTEX
  5
2E7
  8
DEFAULT
 10
146.6223809385612
 20
48.61240658198976
 30
0.0
  0
SEQEND
  5
2E8
  8
DEFAULT
  0
POLYLINE
  5
2E9
  8
DEFAULT
 66
     1
 10
0.0
 20
0.0
 30
0.0
  0
VERTEX
  5
2EA
  8
DEFAULT
 10
127.0573809385612
 20
62.89361828418886
 30
0.0
 42
-1.672264226310004
  0
VERTEX
  5
2EB
  8
DEFAULT
 10
128.8423809385612
 20
61.93482998638795
 30
0.0
  0
VERTEX
  5
2EC
  8
DEFAULT
 10
128.8423809385612
 20
58.16280658198981
 30
0.0
 42
-0.2515710159539356
  0
VERTEX
  5
2ED
  8
DEFAULT
 10
129.3573809385612
 20
57.20401828418885
 30
0.0
  0
VERTEX
  5
2EE
  8
DEFAULT
 10
129.3573809385612
 20
55.88321847806642
 30
0.0
 42
-1.000000084294629
  0
VERTEX
  5
2EF
  8
DEFAULT
 10
127.0573809385612
 20
55.88321828418886
 30
0.0
  0
VERTEX
  5
2F0
  8
DEFAULT
 10
127.0573809385612
 20
57.20401828414066
 30
0.0
 42
-0.2515710159649831
  0
VERTEX
  5
2F1
  8
DEFAULT
 10
127.5723809385611
 20
58.16280658198978
 30
0.0
  0
VERTEX
  5
2F2
  8
DEFAULT
 10
127.5723809385612
 20
61.93482998638794
 30
0.0
 42
-0.2515710159538234
  0
VERTEX
  5
2F3
  8
DEFAULT
 10
127.0573809385612
 20
62.89361828418886
 30
0.0
  0
SEQEND
  5
2F4
  8
DEFAULT
  0
POLYLINE
  5
2F5
  8
DEFAULT
 66
     1
 10
0.0
 20
0.0
 30
0.0
  0
VERTEX
  5
2F6
  8
DEFAULT
 10
149.1623809385611
 20
48.6124065819898
 30
0.0
 42
-3.32092645322992
  0
VERTEX
  5
2F7
  8
DEFAULT
 10
147.8923809385612
 20
48.61240658198976
 30
0.0
  0
VERTEX
  5
2F8
  8
DEFAULT
 10
147.8923809385612
 20
63.26561828418888
 30
0.0
  0
VERTEX
  5
2F9
  8
DEFAULT
 10
146.3593809385612
 20
64.79861828418886
 30
0.0
  0
VERTEX
  5
2FA
  8
DEFAULT
 10
127.2003809385612
 20
64.79861828418886
 30
0.0
  0
VERTEX
  5
2FB
  8
DEFAULT
 10
126.3023809385612
 20
63.90061828418887
 30
0.0
  0
VERTEX
  5
2FC
  8
DEFAULT
 10
126.3023809385612
 20
58.16280658198977
 30
0.0
 42
-0.2515709245600976
  0
VERTEX
  5
2FD
  8
DEFAULT
 10
126.8173809385612
 20
57.2040184780904
 30
0.0
  0
VERTEX
  5
2FE
  8
DEFAULT
 10
126.8173809385612
 20
55.88321847808805
 30
0.0
 42
-1.000000084304008
  0
VERTEX
  5
2FF
  8
DEFAULT
 10
124.5173809385612
 20
55.88321828418886
 30
0.0
  0
VERTEX
  5
300
  8
DEFAULT
 10
124.5173809385613
 20
57.20401847806644
 30
0.0
 42
-0.2515709245599406
  0
VERTEX
  5
301
  8
DEFAULT
 10
125.0323809385612
 20
58.16280658198976
 30
0.0
  0
VERTEX
  5
302
  8
DEFAULT
 10
125.0323899938084
 20
64.16361737581407
 30
0.0
 42
-0.1989026991567143
  0
VERTEX
  5
303
  8
DEFAULT
 10
125.2183809385612
 20
64.61261828418886
 30
0.0
  0
VERTEX
  5
304
  8
DEFAULT
 10
126.4849897700663
 20
65.87922711569392
 30
0.0
  0
VERTEX
  5
305
  8
DEFAULT
 10
126.4967838046229
 20
65.89089190213552
 30
0.0
  0
VERTEX
  5
306
  8
DEFAULT
 10
126.5088755395643
 20
65.90224192390316
 30
0.0
  0
VERTEX
  5
307
  8
DEFAULT
 10
126.5212522432249
 20
65.9132659659699
 30
0.0
  0
VERTEX
  5
308
  8
DEFAULT
 10
126.5339006315111
 20
65.92395350529972
 30
0.0
  0
VERTEX
  5
309
  8
DEFAULT
 10
126.5468069151378
 20
65.93429474402036
 30
0.0
  0
VERTEX
  5
30A
  8
DEFAULT
 10
126.5599568491743
 20
65.94428063872198
 30
0.0
  0
VERTEX
  5
30B
  8
DEFAULT
 10
126.5733357845328
 20
65.95390292570234
 30
0.0
  0
VERTEX
  5
30C
  8
DEFAULT
 10
126.5869287210113
 20
65.96315414202019
 30
0.0
  0
VERTEX
  5
30D
  8
DEFAULT
 10
126.6007203615004
 20
65.97202764225901
 30
0.0
  0
VERTEX
  5
30E
  8
DEFAULT
 10
126.614695166951
 20
65.98051761094597
 30
0.0
  0
VERTEX
  5
30F
  8
DEFAULT
 10
126.6288374117071
 20
65.98861907061173
 30
0.0
  0
VERTEX
  5
310
  8
DEFAULT
 10
126.6431312388059
 20
65.99632788551867
 30
0.0
  0
VERTEX
  5
311
  8
DEFAULT
 10
126.6575607148639
 20
66.00364076112392
 30
0.0
  0
VERTEX
  5
312
  8
DEFAULT
 10
126.672109884174
 20
66.01055523938187
 30
0.0
  0
VERTEX
  5
313
  8
DEFAULT
 10
126.6867628216629
 20
66.01706969002613
 30
0.0
  0
VERTEX
  5
314
  8
DEFAULT
 10
126.7015036843753
 20
66.0231832980033
 30
0.0
  0
VERTEX
  5
315
  8
DEFAULT
 10
126.7163167611771
 20
66.0288960472605
 30
0.0
  0
VERTEX
  5
316
  8
DEFAULT
 10
126.7311865203977
 20
66.03420870111442
 30
0.0
  0
VERTEX
  5
317
  8
DEFAULT
 10
126.7460976551586
 20
66.03912277945165
 30
0.0
  0
VERTEX
  5
318
  8
DEFAULT
 10
126.7610351261687
 20
66.0436405330291
 30
0.0
  0
VERTEX
  5
319
  8
DEFAULT
 10
126.775984201798
 20
66.04776491515649
 30
0.0
  0
VERTEX
  5
31A
  8
DEFAULT
 10
126.7909304952715
 20
66.05149955105477
 30
0.0
  0
VERTEX
  5
31B
  8
DEFAULT
 10
126.805859998862
 20
66.05484870518988
 30
0.0
  0
VERTEX
  5
31C
  8
DEFAULT
 10
126.8207591149894
 20
66.05781724688498
 30
0.0
  0
VERTEX
  5
31D
  8
DEFAULT
 10
126.8356146841666
 20
66.06041061451297
 30
0.0
  0
VERTEX
  5
31E
  8
DEFAULT
 10
126.8504140097621
 20
66.06263477856784
 30
0.0
  0
VERTEX
  5
31F
  8
DEFAULT
 10
126.8651448795797
 20
66.0644962039061
 30
0.0
  0
VERTEX
  5
320
  8
DEFAULT
 10
126.8797955842796
 20
66.06600181144002
 30
0.0
  0
VERTEX
  5
321
  8
DEFAULT
 10
126.8943549326936
 20
66.06715893955197
 30
0.0
  0
VERTEX
  5
322
  8
DEFAULT
 10
126.9088122641062
 20
66.06797530548589
 30
0.0
  0
VERTEX
  5
323
  8
DEFAULT
 10
126.9231574575982
 20
66.06845896695513
 30
0.0
  0
VERTEX
  5
324
  8
DEFAULT
 10
146.6223810456142
 20
66.06860922894161
 30
0.0
 42
-0.1989026328091861
  0
VERTEX
  5
325
  8
DEFAULT
 10
147.0713809385612
 20
65.88261828418885
 30
0.0
  0
VERTEX
  5
326
  8
DEFAULT
 10
148.9763809385612
 20
63.97761828418885
 30
0.0
 42
-0.1989026838335363
  0
VERTEX
  5
327
  8
DEFAULT
 10
149.1623718833139
 20
63.52861828418884
 30
0.0
  0
VERTEX
  5
328
  8
DEFAULT
 10
149.1623809385612
 20
48.61240658198979
 30
0.0
  0
SEQEND
  5
329
  8
DEFAULT
  0
POLYLINE
  5
32A
  8
DEFAULT
 66
     1
 10
0.0
 20
0.0
 30
0.0
  0
VERTEX
  5
32B
  8
DEFAULT
 10
137.8523809385612
 20
86.38861828418885
 30
0.0
 42
-1.672264226309968
  0
VERTEX
  5
32C
  8
DEFAULT
 10
139.6373809385612
 20
85.42982998638789
 30
0.0
  0
VERTEX
  5
32D
  8
DEFAULT
 10
139.6373809385612
 20
79.40361828418887
 30
0.0
 42
-0.2008759562284916
  0
VERTEX
  5
32E
  8
DEFAULT
 10
139.4479897700409
 20
78.95122711572142
 30
0.0
  0
VERTEX
  5
32F
  8
DEFAULT
 10
138.1813809385612
 20
77.68461828418886
 30
0.0
 42
-0.1989026927721184
  0
VERTEX
  5
330
  8
DEFAULT
 10
137.7323804086759
 20
77.4986273394361
 30
0.0
  0
VERTEX
  5
331
  8
DEFAULT
 10
133.5503809385612
 20
77.49861828418885
 30
0.0
  0
VERTEX
  5
332
  8
DEFAULT
 10
123.7623809385612
 20
67.71061828418888
 30
0.0
  0
VERTEX
  5
333
  8
DEFAULT
 10
123.7623809385612
 20
61.94740658198975
 30
0.0
 42
-0.5371363012890261
  0
VERTEX
  5
334
  8
DEFAULT
 10
123.7623809385612
 20
60.02982998638792
 30
0.0
  0
VERTEX
  5
335
  8
DEFAULT
 10
123.7623809385612
 20
58.16280658198977
 30
0.0
 42
-0.2515710494605138
  0
VERTEX
  5
336
  8
DEFAULT
 10
124.2773809385611
 20
57.20401809028431
 30
0.0
  0
VERTEX
  5
337
  8
DEFAULT
 10
124.2773809385612
 20
55.883218090307
 30
0.0
 42
-0.9999998314024895
  0
VERTEX
  5
338
  8
DEFAULT
 10
121.9773809385612
 20
55.88321809029642
 30
0.0
  0
VERTEX
  5
339
  8
DEFAULT
 10
121.9773809385612
 20
57.20401847807123
 30
0.0
 42
-0.2515709245600273
  0
VERTEX
  5
33A
  8
DEFAULT
 10
122.4923809385613
 20
58.16280658198985
 30
0.0
  0
VERTEX
  5
33B
  8
DEFAULT
 10
122.4923809385612
 20
60.02982998638788
 30
0.0
 42
-0.5371363012890304
  0
VERTEX
  5
33C
  8
DEFAULT
 10
122.4923809385612
 20
61.94740658198975
 30
0.0
  0
VERTEX
  5
33D
  8
DEFAULT
 10
122.4923899938084
 20
67.97361839124186
 30
0.0
 42
-0.1989026328092577
  0
VERTEX
  5
33E
  8
DEFAULT
 10
122.6783809385612
 20
68.42261828418886
 30
0.0
  0
VERTEX
  5
33F
  8
DEFAULT
 10
132.8383809385612
 20
78.58261828418887
 30
0.0
 42
-0.1989026838333477
  0
VERTEX
  5
340
  8
DEFAULT
 10
133.2873809385611
 20
78.76860922894164
 30
0.0
  0
VERTEX
  5
341
  8
DEFAULT
 10
137.4693809385612
 20
78.76861828418886
 30
0.0
  0
VERTEX
  5
342
  8
DEFAULT
 10
138.3673809385612
 20
79.66661828418887
 30
0.0
  0
VERTEX
  5
343
  8
DEFAULT
 10
138.3673809385612
 20
85.42982998638794
 30
0.0
 42
-0.2515710159538257
  0
VERTEX
  5
344
  8
DEFAULT
 10
137.8523809385612
 20
86.38861828418885
 30
0.0
  0
SEQEND
  5
345
  8
DEFAULT
  0
POLYLINE
  5
346
  8
DEFAULT
 66
     1
 10
0.0
 20
0.0
 30
0.0
  0
VERTEX
  5
347
  8
DEFAULT
 10
121.7373809385612
 20
57.20401809025552
 30
0.0
  0
VERTEX
  5
348
  8
DEFAULT
 10
121.7373809385611
 20
55.88321809030607
 30
0.0
 42
-0.9999998314044573
  0
VERTEX
  5
349
  8
DEFAULT
 10
119.4373809385612
 20
55.88321809030185
 30
0.0
  0
VERTEX
  5
34A
  8
DEFAULT
 10
119.4373809385612
 20
55.90861828418886
 30
0.0
  0
VERTEX
  5
34B
  8
DEFAULT
 10
117.6753809385612
 20
55.90861828418886
 30
0.0
  0
VERTEX
  5
34C
  8
DEFAULT
 10
113.6023809385612
 20
51.83561828418884
 30
0.0
  0
VERTEX
  5
34D
  8
DEFAULT
 10
113.6023718833139
 20
48.92361817713586
 30
0.0
 42
-0.1989025433747895
  0
VERTEX
  5
34E
  8
DEFAULT
 10
113.4163810142569
 20
48.47461835988461
 30
0.0
  0
VERTEX
  5
34F
  8
DEFAULT
 10
112.1463809385612
 20
47.20461828418885
 30
0.0
 42
-0.1989026346152755
  0
VERTEX
  5
350
  8
DEFAULT
 10
111.6973809385612
 20
47.01862733943609
 30
0.0
  0
VERTEX
  5
351
  8
DEFAULT
 10
108.2301692363621
 20
47.01861828418886
 30
0.0
 42
-0.2515709245599121
  0
VERTEX
  5
352
  8
DEFAULT
 10
107.2713811324367
 20
46.50361828418887
 30
0.0
  0
VERTEX
  5
353
  8
DEFAULT
 10
105.9633811324369
 20
46.5036182841889
 30
0.0
 42
-1.000000084319912
  0
VERTEX
  5
354
  8
DEFAULT
 10
105.963381132497
 20
48.80361828418881
 30
0.0
  0
VERTEX
  5
355
  8
DEFAULT
 10
107.2713811324677
 20
48.80361828418881
 30
0.0
 42
-0.2515709245601901
  0
VERTEX
  5
356
  8
DEFAULT
 10
108.2301692363621
 20
48.28861828418886
 30
0.0
  0
VERTEX
  5
357
  8
DEFAULT
 10
111.4343809385612
 20
48.28861828418886
 30
0.0
  0
VERTEX
  5
358
  8
DEFAULT
 10
112.3323816886537
 20
49.18661978437382
 30
0.0
  0
VERTEX
  5
359
  8
DEFAULT
 10
112.3323899938084
 20
52.09861839124186
 30
0.0
 42
-0.1989026328092293
  0
VERTEX
  5
35A
  8
DEFAULT
 10
112.5183809385612
 20
52.54761828418886
 30
0.0
  0
VERTEX
  5
35B
  8
DEFAULT
 10
116.9599897700708
 20
56.98922711569852
 30
0.0
 42
-0.2008759561896924
  0
VERTEX
  5
35C
  8
DEFAULT
 10
117.4123809385612
 20
57.17861828418885
 30
0.0
  0
VERTEX
  5
35D
  8
DEFAULT
 10
119.4373809385612
 20
57.17861828418884
 30
0.0
  0
VERTEX
  5
35E
  8
DEFAULT
 10
119.4373809385612
 20
57.20401828408299
 30
0.0
 42
-1.000000084364874
  0
VERTEX
  5
35F
  8
DEFAULT
 10
121.7373809385611
 20
57.20401809025551
 30
0.0
  0
SEQEND
  5
360
  8
DEFAULT
  0
POLYLINE
  5
361
  8
DEFAULT
 66
     1
 10
0.0
 20
0.0
 30
0.0
  0
VERTEX
  5
362
  8
DEFAULT
 10
119.6221807446588
 20
74.20361828418882
 30
0.0
 42
-1.00000000000794
  0
VERTEX
  5
363
  8
DEFAULT
 10
119.6221811324636
 20
71.9036182841889
 30
0.0
  0
VERTEX
  5
364
  8
DEFAULT
 10
119.3173809385611
 20
71.90361828418884
 30
0.0
  0
VERTEX
  5
365
  8
DEFAULT
 10
119.3173718833139
 20
61.62361964675102
 30
0.0
 42
-0.1989027068179327
  0
VERTEX
  5
366
  8
DEFAULT
 10
119.1313809385612
 20
61.17461828418886
 30
0.0
  0
VERTEX
  5
367
  8
DEFAULT
 10
111.0623198940041
 20
53.10549619507476
 30
0.0
  0
VERTEX
  5
368
  8
DEFAULT
 10
111.0623718833139
 20
51.46361851128255
 30
0.0
 42
-0.1989026876643681
  0
VERTEX
  5
369
  8
DEFAULT
 10
110.8763809385612
 20
51.01461828418886
 30
0.0
  0
VERTEX
  5
36A
  8
DEFAULT
 10
109.6063809385612
 20
49.74461828418885
 30
0.0
 42
-0.1989026346152353
  0
VERTEX
  5
36B
  8
DEFAULT
 10
109.1573809385612
 20
49.55862733943611
 30
0.0
  0
VERTEX
  5
36C
  8
DEFAULT
 10
108.2301692363621
 20
49.55861828418887
 30
0.0
 42
-0.2515710494605394
  0
VERTEX
  5
36D
  8
DEFAULT
 10
107.2713807446645
 20
49.04361828418888
 30
0.0
  0
VERTEX
  5
36E
  8
DEFAULT
 10
105.963381132468
 20
49.04361828418889
 30
0.0
 42
-1.000000084297178
  0
VERTEX
  5
36F
  8
DEFAULT
 10
105.9633811324446
 20
51.34361828418886
 30
0.0
  0
VERTEX
  5
370
  8
DEFAULT
 10
107.2713811324488
 20
51.34361828418884
 30
0.0
 42
-0.2515709245600205
  0
VERTEX
  5
371
  8
DEFAULT
 10
108.2301692363621
 20
50.82861828418885
 30
0.0
  0
VERTEX
  5
372
  8
DEFAULT
 10
108.8943809385612
 20
50.82861828418885
 30
0.0
  0
VERTEX
  5
373
  8
DEFAULT
 10
109.7923809385612
 20
51.72661828418887
 30
0.0
  0
VERTEX
  5
374
  8
DEFAULT
 10
109.7923809385612
 20
53.36861828418886
 30
0.0
 42
-0.2008759562249414
  0
VERTEX
  5
375
  8
DEFAULT
 10
109.9817721070757
 20
53.82100945265054
 30
0.0
  0
VERTEX
  5
376
  8
DEFAULT
 10
118.0473809385612
 20
61.88661828418886
 30
0.0
  0
VERTEX
  5
377
  8
DEFAULT
 10
118.0473809385612
 20
71.90361828418887
 30
0.0
  0
VERTEX
  5
378
  8
DEFAULT
 10
117.7425807446857
 20
71.9036182841889
 30
0.0
 42
-0.9999999157212752
  0
VERTEX
  5
379
  8
DEFAULT
 10
117.7425811324712
 20
74.20361828418885
 30
0.0
  0
VERTEX
  5
37A
  8
DEFAULT
 10
119.6221807446589
 20
74.20361828418882
 30
0.0
  0
SEQEND
  5
37B
  8
DEFAULT
  0
POLYLINE
  5
37C
  8
DEFAULT
 66
     1
 10
0.0
 20
0.0
 30
0.0
  0
VERTEX
  5
37D
  8
DEFAULT
 10
123.5729897700371
 20
81.76100945266003
 30
0.0
  0
VERTEX
  5
37E
  8
DEFAULT
 10
123.5846545560281
 20
81.74921542304565
 30
0.0
  0
VERTEX
  5
37F
  8
DEFAULT
 10
123.5960045774302
 20
81.73712369266488
 30
0.0
  0
VERTEX
  5
380
  8
DEFAULT
 10
123.607028619209
 20
81.72474699318316
 30
0.0
  0
VERTEX
  5
381
  8
DEFAULT
 10
123.6177161583208
 20
81.71209860869472
 30
0.0
  0
VERTEX
  5
382
  8
DEFAULT
 10
123.6280573968861
 20
81.69919232848686
 30
0.0
  0
VERTEX
  5
383
  8
DEFAULT
 10
123.6380432914878
 20
81.68604239749311
 30
0.0
  0
VERTEX
  5
384
  8
DEFAULT
 10
123.6476655784167
 20
81.67266346480582
 30
0.0
  0
VERTEX
  5
385
  8
DEFAULT
 10
123.6569167947249
 20
81.65907053063195
 30
0.0
  0
VERTEX
  5
386
  8
DEFAULT
 10
123.6657902949894
 20
81.64527889208738
 30
0.0
  0
VERTEX
  5
387
  8
DEFAULT
 10
123.6742802637313
 20
81.63130408822816
 30
0.0
  0
VERTEX
  5
388
  8
DEFAULT
 10
123.6823817234756
 20
81.61716184471864
 30
0.0
  0
VERTEX
  5
389
  8
DEFAULT
 10
123.6900905384794
 20
81.60286801853015
 30
0.0
  0
VERTEX
  5
38A
  8
DEFAULT
 10
123.6974034141949
 20
81.58843854305607
 30
0.0
  0
VERTEX
  5
38B
  8
DEFAULT
 10
123.7043178925719
 20
81.57388937401366
 30
0.0
  0
VERTEX
  5
38C
  8
DEFAULT
 10
123.7108323433402
 20
81.55923643648713
 30
0.0
  0
VERTEX
  5
38D
  8
DEFAULT
 10
123.7169459514428
 20
81.5444955734432
 30
0.0
  0
VERTEX
  5
38E
  8
DEFAULT
 10
123.7226587008236
 20
81.52968249602766
 30
0.0
  0
VERTEX
  5
38F
  8
DEFAULT
 10
123.7279713547967
 20
81.5148127359235
 30
0.0
  0
VERTEX
  5
390
  8
DEFAULT
 10
123.7328854332464
 20
81.4999016000217
 30
0.0
  0
VERTEX
  5
391
  8
DEFAULT
 10
123.737403186928
 20
81.48496412762591
 30
0.0
  0
VERTEX
  5
392
  8
DEFAULT
 10
123.7415275691497
 20
81.47001505037929
 30
0.0
  0
VERTEX
  5
393
  8
DEFAULT
 10
123.7452622051317
 20
81.45506875506975
 30
0.0
  0
VERTEX
  5
394
  8
DEFAULT
 10
123.7486113593393
 20
81.44013924943738
 30
0.0
  0
VERTEX
  5
395
  8
DEFAULT
 10
123.7515799010954
 20
81.42524013107531
 30
0.0
  0
VERTEX
  5
396
  8
DEFAULT
 10
123.7541732687732
 20
81.41038455948357
 30
0.0
  0
VERTEX
  5
397
  8
DEFAULT
 10
123.7563974328672
 20
81.39558523130631
 30
0.0
  0
VERTEX
  5
398
  8
DEFAULT
 10
123.7582588582348
 20
81.38085435875237
 30
0.0
  0
VERTEX
  5
399
  8
DEFAULT
 10
123.7597644657891
 20
81.3662036511737
 30
0.0
  0
VERTEX
  5
39A
  8
DEFAULT
 10
123.760921593914
 20
81.35164429975069
 30
0.0
  0
VERTEX
  5
39B
  8
DEFAULT
 10
123.7617379598549
 20
81.33718696521026
 30
0.0
  0
VERTEX
  5
39C
  8
DEFAULT
 10
123.762221621327
 20
81.32284176848329
 30
0.0
  0
VERTEX
  5
39D
  8
DEFAULT
 10
123.762371883314
 20
76.86361881407413
 30
0.0
 42
-0.1989026927721461
  0
VERTEX
  5
39E
  8
DEFAULT
 10
123.5763809385612
 20
76.41461828418885
 30
0.0
  0
VERTEX
  5
39F
  8
DEFAULT
 10
122.3097721070484
 20
75.14800945267606
 30
0.0
 42
-0.2008759561878236
  0
VERTEX
  5
3A0
  8
DEFAULT
 10
121.8573809385612
 20
74.95861828418887
 30
0.0
  0
VERTEX
  5
3A1
  8
DEFAULT
 10
120.5809692363621
 20
74.95861828418887
 30
0.0
 42
-0.2515710494604755
  0
VERTEX
  5
3A2
  8
DEFAULT
 10
119.6221807446533
 20
74.44361828418887
 30
0.0
  0
VERTEX
  5
3A3
  8
DEFAULT
 10
117.7425811324661
 20
74.44361828418886
 30
0.0
 42
-1.000000084310756
  0
VERTEX
  5
3A4
  8
DEFAULT
 10
117.7425811324761
 20
76.74361828418884
 30
0.0
  0
VERTEX
  5
3A5
  8
DEFAULT
 10
119.62218074466
 20
76.74361828418883
 30
0.0
 42
-0.2515710607741211
  0
VERTEX
  5
3A6
  8
DEFAULT
 10
120.5809692363621
 20
76.22861828418887
 30
0.0
  0
VERTEX
  5
3A7
  8
DEFAULT
 10
121.5943809385611
 20
76.22861828418885
 30
0.0
  0
VERTEX
  5
3A8
  8
DEFAULT
 10
122.4923809385612
 20
77.12661828418887
 30
0.0
  0
VERTEX
  5
3A9
  8
DEFAULT
 10
122.4923809385612
 20
81.04561828418886
 30
0.0
  0
VERTEX
  5
3AA
  8
DEFAULT
 10
117.1493809385612
 20
86.38861828418888
 30
0.0
  0
VERTEX
  5
3AB
  8
DEFAULT
 10
109.4203809385612
 20
86.38861828418885
 30
0.0
  0
VERTEX
  5
3AC
  8
DEFAULT
 10
107.2523809385612
 20
84.22061828418884
 30
0.0
  0
VERTEX
  5
3AD
  8
DEFAULT
 10
107.2523809385612
 20
82.39440658198981
 30
0.0
 42
-0.2515710494604265
  0
VERTEX
  5
3AE
  8
DEFAULT
 10
107.7673809385612
 20
81.43561809027466
 30
0.0
  0
VERTEX
  5
3AF
  8
DEFAULT
 10
107.7673809385612
 20
79.91161847806552
 30
0.0
 42
-0.2515710607683344
  0
VERTEX
  5
3B0
  8
DEFAULT
 10
107.2523809385612
 20
78.95282998638788
 30
0.0
  0
VERTEX
  5
3B1
  8
DEFAULT
 10
107.2523809385612
 20
73.37740658198977
 30
0.0
 42
-3.320926453230033
  0
VERTEX
  5
3B2
  8
DEFAULT
 10
105.9823809385612
 20
73.37740658198983
 30
0.0
  0
VERTEX
  5
3B3
  8
DEFAULT
 10
105.9823809385612
 20
78.95282998638791
 30
0.0
 42
-0.2515709245600707
  0
VERTEX
  5
3B4
  8
DEFAULT
 10
105.4673809385612
 20
79.91161809029353
 30
0.0
  0
VERTEX
  5
3B5
  8
DEFAULT
 10
105.4673809385612
 20
81.43561847806723
 30
0.0
 42
-0.2515709245599286
  0
VERTEX
  5
3B6
  8
DEFAULT
 10
105.9823809385612
 20
82.39440658198978
 30
0.0
  0
VERTEX
  5
3B7
  8
DEFAULT
 10
105.9823809385612
 20
84.48361828418885
 30
0.0
 42
-0.2008759562264308
  0
VERTEX
  5
3B8
  8
DEFAULT
 10
106.1717721070782
 20
84.93600945265295
 30
0.0
  0
VERTEX
  5
3B9
  8
DEFAULT
 10
108.7083809385612
 20
87.47261828418885
 30
0.0
 42
-0.1989026346152289
  0
VERTEX
  5
3BA
  8
DEFAULT
 10
109.1573809385612
 20
87.65860922894163
 30
0.0
  0
VERTEX
  5
3BB
  8
DEFAULT
 10
117.4266044228553
 20
87.65845896695465
 30
0.0
  0
VERTEX
  5
3BC
  8
DEFAULT
 10
117.440949619582
 20
87.65797530548264
 30
0.0
  0
VERTEX
  5
3BD
  8
DEFAULT
 10
117.4554069541222
 20
87.65715893954172
 30
0.0
  0
VERTEX
  5
3BE
  8
DEFAULT
 10
117.4699663055449
 20
87.65600181141686
 30
0.0
  0
VERTEX
  5
3BF
  8
DEFAULT
 10
117.4846170131233
 20
87.65449620386259
 30
0.0
  0
VERTEX
  5
3C0
  8
DEFAULT
 10
117.499347885677
 20
87.65263477849513
 30
0.0
  0
VERTEX
  5
3C1
  8
DEFAULT
 10
117.5141472138539
 20
87.65041061440122
 30
0.0
  0
VERTEX
  5
3C2
  8
DEFAULT
 10
117.5290027854453
 20
87.64781724672348
 30
0.0
  0
VERTEX
  5
3C3
  8
DEFAULT
 10
117.5439019038072
 20
87.64484870496744
 30
0.0
  0
VERTEX
  5
3C4
  8
DEFAULT
 10
117.5588314094392
 20
87.64149955076
 30
0.0
  0
VERTEX
  5
3C5
  8
DEFAULT
 10
117.5737777047485
 20
87.6377649147782
 30
0.0
  0
VERTEX
  5
3C6
  8
DEFAULT
 10
117.5887267819949
 20
87.63364053255663
 30
0.0
  0
VERTEX
  5
3C7
  8
DEFAULT
 10
117.6036642543904
 20
87.62912277887523
 30
0.0
  0
VERTEX
  5
3C8
  8
DEFAULT
 10
117.6185753902919
 20
87.62420870042564
 30
0.0
  0
VERTEX
  5
3C9
  8
DEFAULT
 10
117.6334451503958
 20
87.61889604645279
 30
0.0
  0
VERTEX
  5
3CA
  8
DEFAULT
 10
117.6482582278111
 20
87.6131832970722
 30
0.0
  0
VERTEX
  5
3CB
  8
DEFAULT
 10
117.6629990908548
 20
87.60706968896987
 30
0.0
  0
VERTEX
  5
3CC
  8
DEFAULT
 10
117.677652028381
 20
87.60055523820184
 30
0.0
  0
VERTEX
  5
3CD
  8
DEFAULT
 10
117.6922011974232
 20
87.59364075982504
 30
0.0
  0
VERTEX
  5
3CE
  8
DEFAULT
 10
117.7066306728971
 20
87.58632788410988
 30
0.0
  0
VERTEX
  5
3CF
  8
DEFAULT
 10
117.7209244990854
 20
87.57861906910638
 30
0.0
  0
VERTEX
  5
3D0
  8
DEFAULT
 10
117.7350667425947
 20
87.5705176093624
 30
0.0
  0
VERTEX
  5
3D1
  8
DEFAULT
 10
117.7490415464537
 20
87.56202764062081
 30
0.0
  0
VERTEX
  5
3D2
  8
DEFAULT
 10
117.7628331849981
 20
87.55315414035664
 30
0.0
  0
VERTEX
  5
3D3
  8
DEFAULT
 10
117.7764261191718
 20
87.54390292404882
 30
0.0
  0
VERTEX
  5
3D4
  8
DEFAULT
 10
117.789805051859
 20
87.53428063712022
 30
0.0
  0
VERTEX
  5
3D5
  8
DEFAULT
 10
117.8029549828526
 20
87.52429474251889
 30
0.0
  0
VERTEX
  5
3D6
  8
DEFAULT
 10
117.8158612630603
 20
87.51395350395397
 30
0.0
  0
VERTEX
  5
3D7
  8
DEFAULT
 10
117.8285096475487
 20
87.50326596484251
 30
0.0
  0
VERTEX
  5
3D8
  8
DEFAULT
 10
117.8408863470304
 20
87.49224192306416
 30
0.0
  0
VERTEX
  5
3D9
  8
DEFAULT
 10
117.8529780774111
 20
87.4808919016624
 30
0.0
  0
VERTEX
  5
3DA
  8
DEFAULT
 10
117.8647721070254
 20
87.46922711567183
 30
0.0
  0
VERTEX
  5
3DB
  8
DEFAULT
 10
123.5729897700633
 20
81.76100945268675
 30
0.0
  0
SEQEND
  5
3DC
  8
DEFAULT
  0
POLYLINE
  5
3DD
  8
DEFAULT
 66
     1
 10
0.0
 20
0.0
 30
0.0
  0
VERTEX
  5
3DE
  8
DEFAULT
 10
92.03138113244923
 20
58.96361828418882
 30
0.0
 42
-0.9999999999945784
  0
VERTEX
  5
3DF
  8
DEFAULT
 10
92.0313807446732
 20
56.66361828418895
 30
0.0
  0
VERTEX
  5
3E0
  8
DEFAULT
 10
90.72338113243674
 20
56.66361828418889
 30
0.0
 42
-1.000000084301401
  0
VERTEX
  5
3E1
  8
DEFAULT
 10
90.72338113245438
 20
58.9636182841888
 30
0.0
  0
VERTEX
  5
3E2
  8
DEFAULT
 10
92.03138113244921
 20
58.96361828418881
 30
0.0
  0
SEQEND
  5
3E3
  8
DEFAULT
  0
POLYLINE
  5
3E4
  8
DEFAULT
 66
     1
 10
0.0
 20
0.0
 30
0.0
  0
VERTEX
  5
3E5
  8
DEFAULT
 10
107.2713807446812
 20
64.04361828418884
 30
0.0
 42
-1.000000168593016
  0
VERTEX
  5
3E6
  8
DEFAULT
 10
107.2713807446772
 20
61.74361828418887
 30
0.0
  0
VERTEX
  5
3E7
  8
DEFAULT
 10
105.9633807446798
 20
61.74361828418887
 30
0.0
 42
-0.999999747117248
  0
VERTEX
  5
3E8
  8
DEFAULT
 10
105.9633807446819
 20
64.04361828418885
 30
0.0
  0
VERTEX
  5
3E9
  8
DEFAULT
 10
107.2713807446812
 20
64.04361828418884
 30
0.0
  0
SEQEND
  5
3EA
  8
DEFAULT
  0
POLYLINE
  5
3EB
  8
DEFAULT
 66
     1
 10
0.0
 20
0.0
 30
0.0
  0
VERTEX
  5
3EC
  8
DEFAULT
 10
107.2713807446697
 20
61.50361828418882
 30
0.0
 42
-1.000000000005666
  0
VERTEX
  5
3ED
  8
DEFAULT
 10
107.2713811324527
 20
59.2036182841889
 30
0.0
  0
VERTEX
  5
3EE
  8
DEFAULT
 10
105.9633807446857
 20
59.20361828418885
 30
0.0
 42
-0.9999999157099592
  0
VERTEX
  5
3EF
  8
DEFAULT
 10
105.9633811324452
 20
61.50361828418882
 30
0.0
  0
VERTEX
  5
3F0
  8
DEFAULT
 10
107.2713807446697
 20
61.50361828418883
 30
0.0
  0
SEQEND
  5
3F1
  8
DEFAULT
  0
POLYLINE
  5
3F2
  8
DEFAULT
 66
     1
 10
0.0
 20
0.0
 30
0.0
  0
VERTEX
  5
3F3
  8
DEFAULT
 10
107.2713811324513
 20
58.96361828418883
 30
0.0
 42
-0.9999999999937995
  0
VERTEX
  5
3F4
  8
DEFAULT
 10
107.271380744671
 20
56.66361828418889
 30
0.0
  0
VERTEX
  5
3F5
  8
DEFAULT
 10
105.9633807446857
 20
56.66361828418889
 30
0.0
 42
-0.9999999157147877
  0
VERTEX
  5
3F6
  8
DEFAULT
 10
105.9633811324561
 20
58.9636182841888
 30
0.0
  0
VERTEX
  5
3F7
  8
DEFAULT
 10
107.2713811324513
 20
58.96361828418883
 30
0.0
  0
SEQEND
  5
3F8
  8
DEFAULT
  0
POLYLINE
  5
3F9
  8
DEFAULT
 66
     1
 10
0.0
 20
0.0
 30
0.0
  0
VERTEX
  5
3FA
  8
DEFAULT
 10
92.0313807446263
 20
48.80361828418881
 30
0.0
 42
-1.000000168613585
  0
VERTEX
  5
3FB
  8
DEFAULT
 10
92.03138074468484
 20
46.50361828418885
 30
0.0
  0
VERTEX
  5
3FC
  8
DEFAULT
 10
90.72338074468564
 20
46.50361828418887
 30
0.0
 42
-0.9999997471051904
  0
VERTEX
  5
3FD
  8
DEFAULT
 10
90.72338074465404
 20
48.80361828418881
 30
0.0
  0
VERTEX
  5
3FE
  8
DEFAULT
 10
92.03138074462632
 20
48.80361828418881
 30
0.0
  0
SEQEND
  5
3FF
  8
DEFAULT
  0
POLYLINE
  5
400
  8
DEFAULT
 66
     1
 10
0.0
 20
0.0
 30
0.0
  0
VERTEX
  5
401
  8
DEFAULT
 10
92.03138074467181
 20
51.34361828418881
 30
0.0
 42
-1.000000168600094
  0
VERTEX
  5
402
  8
DEFAULT
 10
92.03138074467049
 20
49.04361828418888
 30
0.0
  0
VERTEX
  5
403
  8
DEFAULT
 10
90.72338074468442
 20
49.04361828418887
 30
0.0
 42
-0.9999997471184284
  0
VERTEX
  5
404
  8
DEFAULT
 10
90.72338074468449
 20
51.34361828418881
 30
0.0
  0
VERTEX
  5
405
  8
DEFAULT
 10
92.03138074467182
 20
51.34361828418881
 30
0.0
  0
SEQEND
  5
406
  8
DEFAULT
  0
POLYLINE
  5
407
  8
DEFAULT
 66
     1
 10
0.0
 20
0.0
 30
0.0
  0
VERTEX
  5
408
  8
DEFAULT
 10
92.03138074466688
 20
53.88361828418881
 30
0.0
 42
-1.000000168610008
  0
VERTEX
  5
409
  8
DEFAULT
 10
92.03138074465247
 20
51.58361828418886
 30
0.0
  0
VERTEX
  5
40A
  8
DEFAULT
 10
90.72338074467345
 20
51.58361828418888
 30
0.0
 42
-0.9999997471184873
  0
VERTEX
  5
40B
  8
DEFAULT
 10
90.72338074468459
 20
53.88361828418882
 30
0.0
  0
VERTEX
  5
40C
  8
DEFAULT
 10
92.03138074466688
 20
53.88361828418881
 30
0.0
  0
SEQEND
  5
40D
  8
DEFAULT
  0
POLYLINE
  5
40E
  8
DEFAULT
 66
     1
 10
0.0
 20
0.0
 30
0.0
  0
VERTEX
  5
40F
  8
DEFAULT
 10
92.03138074468563
 20
56.42361828418883
 30
0.0
 42
-1.000000168598237
  0
VERTEX
  5
410
  8
DEFAULT
 10
92.03138074466085
 20
54.12361828418891
 30
0.0
  0
VERTEX
  5
411
  8
DEFAULT
 10
90.72338074468192
 20
54.12361828418889
 30
0.0
 42
-0.9999997471189351
  0
VERTEX
  5
412
  8
DEFAULT
 10
90.72338074468567
 20
56.42361828418882
 30
0.0
  0
VERTEX
  5
413
  8
DEFAULT
 10
92.03138074468563
 20
56.42361828418883
 30
0.0
  0
SEQEND
  5
414
  8
DEFAULT
  0
POLYLINE
  5
415
  8
DEFAULT
 66
     1
 10
0.0
 20
0.0
 30
0.0
  0
VERTEX
  5
416
  8
DEFAULT
 10
107.2713811324367
 20
56.42361828418881
 30
0.0
 42
-1.000000000009113
  0
VERTEX
  5
417
  8
DEFAULT
 10
107.2713807446856
 20
54.12361828418886
 30
0.0
  0
VERTEX
  5
418
  8
DEFAULT
 10
105.9633807446742
 20
54.12361828418889
 30
0.0
 42
-0.9999998314126067
  0
VERTEX
  5
419
  8
DEFAULT
 10
105.9633809385612
 20
56.42361828418885
 30
0.0
  0
VERTEX
  5
41A
  8
DEFAULT
 10
107.2713811324367
 20
56.42361828418882
 30
0.0
  0
SEQEND
  5
41B
  8
DEFAULT
  0
POLYLINE
  5
41C
  8
DEFAULT
 66
     1
 10
0.0
 20
0.0
 30
0.0
  0
VERTEX
  5
41D
  8
DEFAULT
 10
107.2713811324558
 20
53.88361828418883
 30
0.0
 42
-1.000000000000364
  0
VERTEX
  5
41E
  8
DEFAULT
 10
107.2713807446666
 20
51.58361828418887
 30
0.0
  0
VERTEX
  5
41F
  8
DEFAULT
 10
105.963381132469
 20
51.58361828418889
 30
0.0
 42
-1.000000084315742
  0
VERTEX
  5
420
  8
DEFAULT
 10
105.9633811324874
 20
53.88361828418882
 30
0.0
  0
VERTEX
  5
421
  8
DEFAULT
 10
107.2713811324558
 20
53.88361828418883
 30
0.0
  0
SEQEND
  5
422
  8
DEFAULT
  0
POLYLINE
  5
423
  8
DEFAULT
 66
     1
 10
0.0
 20
0.0
 30
0.0
  0
VERTEX
  5
424
  8
DEFAULT
 10
92.03138074466644
 20
38.64361828418883
 30
0.0
 42
-1.000000168599627
  0
VERTEX
  5
425
  8
DEFAULT
 10
92.03138074467682
 20
36.34361828418891
 30
0.0
  0
VERTEX
  5
426
  8
DEFAULT
 10
90.72338074468189
 20
36.34361828418888
 30
0.0
 42
-0.9999997471183294
  0
VERTEX
  5
427
  8
DEFAULT
 10
90.72338074468436
 20
38.64361828418886
 30
0.0
  0
VERTEX
  5
428
  8
DEFAULT
 10
92.03138074466645
 20
38.64361828418883
 30
0.0
  0
SEQEND
  5
429
  8
DEFAULT
  0
POLYLINE
  5
42A
  8
DEFAULT
 66
     1
 10
0.0
 20
0.0
 30
0.0
  0
VERTEX
  5
42B
  8
DEFAULT
 10
92.03138093856117
 20
41.18361828418887
 30
0.0
 42
-1.000000084308782
  0
VERTEX
  5
42C
  8
DEFAULT
 10
92.0313807446509
 20
38.88361828418888
 30
0.0
  0
VERTEX
  5
42D
  8
DEFAULT
 10
90.72338113244459
 20
38.88361828418891
 30
0.0
 42
-1.000000084300999
  0
VERTEX
  5
42E
  8
DEFAULT
 10
90.72338113245354
 20
41.18361828418883
 30
0.0
  0
VERTEX
  5
42F
  8
DEFAULT
 10
92.03138093856117
 20
41.18361828418887
 30
0.0
  0
SEQEND
  5
430
  8
DEFAULT
  0
POLYLINE
  5
431
  8
DEFAULT
 66
     1
 10
0.0
 20
0.0
 30
0.0
  0
VERTEX
  5
432
  8
DEFAULT
 10
92.03138074467097
 20
43.72361828418883
 30
0.0
 42
-1.000000168606853
  0
VERTEX
  5
433
  8
DEFAULT
 10
92.03138074465568
 20
41.42361828418889
 30
0.0
  0
VERTEX
  5
434
  8
DEFAULT
 10
90.72338113245584
 20
41.42361828418888
 30
0.0
 42
-0.9999999157057545
  0
VERTEX
  5
435
  8
DEFAULT
 10
90.72338074468445
 20
43.72361828418885
 30
0.0
  0
VERTEX
  5
436
  8
DEFAULT
 10
92.03138074467097
 20
43.72361828418883
 30
0.0
  0
SEQEND
  5
437
  8
DEFAULT
  0
POLYLINE
  5
438
  8
DEFAULT
 66
     1
 10
0.0
 20
0.0
 30
0.0
  0
VERTEX
  5
439
  8
DEFAULT
 10
92.03138113243672
 20
46.26361828418885
 30
0.0
 42
-1.0000000000141
  0
VERTEX
  5
43A
  8
DEFAULT
 10
92.03138074468562
 20
43.96361828418888
 30
0.0
  0
VERTEX
  5
43B
  8
DEFAULT
 10
90.72338113244453
 20
43.96361828418886
 30
0.0
 42
-1.000000084294818
  0
VERTEX
  5
43C
  8
DEFAULT
 10
90.72338113243934
 20
46.26361828418884
 30
0.0
  0
VERTEX
  5
43D
  8
DEFAULT
 10
92.0313811324367
 20
46.26361828418885
 30
0.0
  0
SEQEND
  5
43E
  8
DEFAULT
  0
POLYLINE
  5
43F
  8
DEFAULT
 66
     1
 10
0.0
 20
0.0
 30
0.0
  0
VERTEX
  5
440
  8
DEFAULT
 10
121.7373809385612
 20
30.53401847807339
 30
0.0
  0
VERTEX
  5
441
  8
DEFAULT
 10
121.7373809385612
 20
29.21321809029988
 30
0.0
 42
-0.9999999157004628
  0
VERTEX
  5
442
  8
DEFAULT
 10
119.4373809385611
 20
29.21321828418886
 30
0.0
  0
VERTEX
  5
443
  8
DEFAULT
 10
119.4373809385612
 20
30.53401828413485
 30
0.0
 42
-0.2515710159663606
  0
VERTEX
  5
444
  8
DEFAULT
 10
119.9523809385612
 20
31.49280658198977
 30
0.0
  0
VERTEX
  5
445
  8
DEFAULT
 10
119.9523809385612
 20
35.32561828418885
 30
0.0
  0
VERTEX
  5
446
  8
DEFAULT
 10
118.4193809385612
 20
36.85861828418884
 30
0.0
  0
VERTEX
  5
447
  8
DEFAULT
 10
108.2301692363621
 20
36.85861828418885
 30
0.0
 42
-0.2515709245599621
  0
VERTEX
  5
448
  8
DEFAULT
 10
107.2713811324467
 20
36.34361828418889
 30
0.0
  0
VERTEX
  5
449
  8
DEFAULT
 10
105.9633811324764
 20
36.34361828418886
 30
0.0
 42
-1.000000084299285
  0
VERTEX
  5
44A
  8
DEFAULT
 10
105.9633811324496
 20
38.64361828418885
 30
0.0
  0
VERTEX
  5
44B
  8
DEFAULT
 10
107.2713807446707
 20
38.64361828418883
 30
0.0
 42
-0.2515710607716183
  0
VERTEX
  5
44C
  8
DEFAULT
 10
108.230169236362
 20
38.12861828418886
 30
0.0
  0
VERTEX
  5
44D
  8
DEFAULT
 10
118.6823809385612
 20
38.12860922894163
 30
0.0
 42
-0.1989026838334221
  0
VERTEX
  5
44E
  8
DEFAULT
 10
119.1313809385612
 20
37.94261828418885
 30
0.0
  0
VERTEX
  5
44F
  8
DEFAULT
 10
121.0363809385612
 20
36.03761828418885
 30
0.0
 42
-0.1989026838334807
  0
VERTEX
  5
450
  8
DEFAULT
 10
121.2223718833139
 20
35.58861828418884
 30
0.0
  0
VERTEX
  5
451
  8
DEFAULT
 10
121.2223809385612
 20
31.49280658198977
 30
0.0
 42
-0.2515709245599212
  0
VERTEX
  5
452
  8
DEFAULT
 10
121.7373809385612
 20
30.5340184780734
 30
0.0
  0
SEQEND
  5
453
  8
DEFAULT
  0
POLYLINE
  5
454
  8
DEFAULT
 66
     1
 10
0.0
 20
0.0
 30
0.0
  0
VERTEX
  5
455
  8
DEFAULT
 10
136.9773809385612
 20
30.53401847807334
 30
0.0
  0
VERTEX
  5
456
  8
DEFAULT
 10
136.9773809385612
 20
29.21321809029652
 30
0.0
 42
-0.3011094802631919
  0
VERTEX
  5
457
  8
DEFAULT
 10
136.2761636275771
 20
28.15440097320472
 30
0.0
  0
VERTEX
  5
458
  8
DEFAULT
 10
134.9555809385612
 20
26.83381828418886
 30
0.0
 42
-0.1989026346152243
  0
VERTEX
  5
459
  8
DEFAULT
 10
134.5065809385612
 20
26.64782733943609
 30
0.0
  0
VERTEX
  5
45A
  8
DEFAULT
 10
119.7877826931789
 20
26.64782733943611
 30
0.0
  0
VERTEX
  5
45B
  8
DEFAULT
 10
119.5389589941857
 20
26.69861828419122
 30
0.0
 42
-0.2349894297987714
  0
VERTEX
  5
45C
  8
DEFAULT
 10
118.8649897700928
 20
26.88800945271018
 30
0.0
  0
VERTEX
  5
45D
  8
DEFAULT
 10
117.5983809385612
 20
28.15461828418886
 30
0.0
 42
-0.1989026346152628
  0
VERTEX
  5
45E
  8
DEFAULT
 10
117.4123899938084
 20
28.60361828418886
 30
0.0
  0
VERTEX
  5
45F
  8
DEFAULT
 10
117.4123809385612
 20
33.42061828418888
 30
0.0
  0
VERTEX
  5
460
  8
DEFAULT
 10
116.5143809385612
 20
34.31861828418884
 30
0.0
  0
VERTEX
  5
461
  8
DEFAULT
 10
108.2301692363621
 20
34.31861828418886
 30
0.0
 42
-0.2515709245601404
  0
VERTEX
  5
462
  8
DEFAULT
 10
107.2713811324652
 20
33.80361828418888
 30
0.0
  0
VERTEX
  5
463
  8
DEFAULT
 10
105.9633807446733
 20
33.80361828418886
 30
0.0
 42
-0.9999999157063014
  0
VERTEX
  5
464
  8
DEFAULT
 10
105.9633811324367
 20
36.10361828418885
 30
0.0
  0
VERTEX
  5
465
  8
DEFAULT
 10
107.271381132437
 20
36.10361828418883
 30
0.0
 42
-0.251570924559927
  0
VERTEX
  5
466
  8
DEFAULT
 10
108.2301692363621
 20
35.58861828418885
 30
0.0
  0
VERTEX
  5
467
  8
DEFAULT
 10
116.7773809385612
 20
35.58860922894161
 30
0.0
 42
-0.1989026346152533
  0
VERTEX
  5
468
  8
DEFAULT
 10
117.2263809385612
 20
35.40261828418885
 30
0.0
  0
VERTEX
  5
469
  8
DEFAULT
 10
118.492989770074
 20
34.13600945267599
 30
0.0
 42
-0.2008759561880405
  0
VERTEX
  5
46A
  8
DEFAULT
 10
118.6823809385612
 20
33.68361828418885
 30
0.0
  0
VERTEX
  5
46B
  8
DEFAULT
 10
118.6823809385612
 20
28.86661828418883
 30
0.0
  0
VERTEX
  5
46C
  8
DEFAULT
 10
119.5809730002407
 20
27.96832225334909
 30
0.0
  0
VERTEX
  5
46D
  8
DEFAULT
 10
119.736980888541
 20
27.9686092289416
 30
0.0
  0
VERTEX
  5
46E
  8
DEFAULT
 10
119.9856506046888
 20
27.91784800907494
 30
0.0
  0
VERTEX
  5
46F
  8
DEFAULT
 10
134.2435809385611
 20
27.91781828418885
 30
0.0
  0
VERTEX
  5
470
  8
DEFAULT
 10
134.8828957643889
 20
28.55713311001657
 30
0.0
 42
-0.1529577222204824
  0
VERTEX
  5
471
  8
DEFAULT
 10
134.6773809385612
 20
29.21321828418886
 30
0.0
  0
VERTEX
  5
472
  8
DEFAULT
 10
134.6773809385612
 20
30.53401828408522
 30
0.0
 42
-0.9999999157474698
  0
VERTEX
  5
473
  8
DEFAULT
 10
136.9773809385612
 20
30.53401847807334
 30
0.0
  0
SEQEND
  5
474
  8
DEFAULT
  0
POLYLINE
  5
475
  8
DEFAULT
 66
     1
 10
0.0
 20
0.0
 30
0.0
  0
VERTEX
  5
476
  8
DEFAULT
 10
136.9773809385611
 20
22.9140180902812
 30
0.0
  0
VERTEX
  5
477
  8
DEFAULT
 10
136.9773809385612
 20
21.59321809029409
 30
0.0
 42
-0.9999998314030457
  0
VERTEX
  5
478
  8
DEFAULT
 10
134.6773809385612
 20
21.59321809031057
 30
0.0
  0
VERTEX
  5
479
  8
DEFAULT
 10
134.6773809385612
 20
22.91401847807695
 30
0.0
 42
-0.1529576342959174
  0
VERTEX
  5
47A
  8
DEFAULT
 10
134.8828957643889
 20
23.5701034583612
 30
0.0
  0
VERTEX
  5
47B
  8
DEFAULT
 10
134.2435809385612
 20
24.20941828418884
 30
0.0
  0
VERTEX
  5
47C
  8
DEFAULT
 10
119.9858028829372
 20
24.20941828418886
 30
0.0
  0
VERTEX
  5
47D
  8
DEFAULT
 10
119.7369809385612
 20
24.15862733943548
 30
0.0
 42
-0.0000042932306352
  0
VERTEX
  5
47E
  8
DEFAULT
 10
118.6823809385612
 20
24.15861828419291
 30
0.0
 42
-0.2008759562297731
  0
VERTEX
  5
47F
  8
DEFAULT
 10
118.2299897700982
 20
24.34800945270467
 30
0.0
  0
VERTEX
  5
480
  8
DEFAULT
 10
115.0583809385612
 20
27.51961828418885
 30
0.0
 42
-0.1989026346152236
  0
VERTEX
  5
481
  8
DEFAULT
 10
114.8723899938085
 20
27.96861828418885
 30
0.0
  0
VERTEX
  5
482
  8
DEFAULT
 10
114.8723809385612
 20
30.88061828418888
 30
0.0
  0
VERTEX
  5
483
  8
DEFAULT
 10
113.9743809385612
 20
31.77861828418885
 30
0.0
  0
VERTEX
  5
484
  8
DEFAULT
 10
108.230169236362
 20
31.77861828418885
 30
0.0
 42
-0.2515709245601601
  0
VERTEX
  5
485
  8
DEFAULT
 10
107.2713811324626
 20
31.26361828418891
 30
0.0
  0
VERTEX
  5
486
  8
DEFAULT
 10
105.9633809385612
 20
31.26361828418885
 30
0.0
 42
-1.000000084311163
  0
VERTEX
  5
487
  8
DEFAULT
 10
105.9633811324769
 20
33.56361828418882
 30
0.0
  0
VERTEX
  5
488
  8
DEFAULT
 10
107.2713811324508
 20
33.56361828418883
 30
0.0
 42
-0.2515709245600097
  0
VERTEX
  5
489
  8
DEFAULT
 10
108.2301692363622
 20
33.04861828418884
 30
0.0
  0
VERTEX
  5
48A
  8
DEFAULT
 10
114.2373800301864
 20
33.04860922894162
 30
0.0
 42
-0.1989026991567185
  0
VERTEX
  5
48B
  8
DEFAULT
 10
114.6863809385612
 20
32.86261828418885
 30
0.0
  0
VERTEX
  5
48C
  8
DEFAULT
 10
115.9563809385612
 20
31.59261828418886
 30
0.0
 42
-0.1989026902183356
  0
VERTEX
  5
48D
  8
DEFAULT
 10
116.1423718833139
 20
31.14361790569937
 30
0.0
  0
VERTEX
  5
48E
  8
DEFAULT
 10
116.1423809385612
 20
28.23161828418885
 30
0.0
  0
VERTEX
  5
48F
  8
DEFAULT
 10
118.9453809385612
 20
25.42861828418884
 30
0.0
  0
VERTEX
  5
490
  8
DEFAULT
 10
119.5389589941851
 20
25.42861828418886
 30
0.0
  0
VERTEX
  5
491
  8
DEFAULT
 10
119.7877809385612
 20
25.47940922894162
 30
0.0
  0
VERTEX
  5
492
  8
DEFAULT
 10
134.5208044228554
 20
25.47925896695464
 30
0.0
  0
VERTEX
  5
493
  8
DEFAULT
 10
134.5351496195821
 20
25.47877530548264
 30
0.0
  0
VERTEX
  5
494
  8
DEFAULT
 10
134.5496069541222
 20
25.47795893954172
 30
0.0
  0
VERTEX
  5
495
  8
DEFAULT
 10
134.564166305545
 20
25.47680181141687
 30
0.0
  0
VERTEX
  5
496
  8
DEFAULT
 10
134.5788170131234
 20
25.47529620386257
 30
0.0
  0
VERTEX
  5
497
  8
DEFAULT
 10
134.5935478856771
 20
25.47343477849511
 30
0.0
  0
VERTEX
  5
498
  8
DEFAULT
 10
134.6083472138541
 20
25.47121061440119
 30
0.0
  0
VERTEX
  5
499
  8
DEFAULT
 10
134.6232027854455
 20
25.46861724672346
 30
0.0
  0
VERTEX
  5
49A
  8
DEFAULT
 10
134.6381019038074
 20
25.46564870496742
 30
0.0
  0
VERTEX
  5
49B
  8
DEFAULT
 10
134.6530314094394
 20
25.46229955075997
 30
0.0
  0
VERTEX
  5
49C
  8
DEFAULT
 10
134.6679777047487
 20
25.45856491477815
 30
0.0
  0
VERTEX
  5
49D
  8
DEFAULT
 10
134.6829267819951
 20
25.45444053255654
 30
0.0
  0
VERTEX
  5
49E
  8
DEFAULT
 10
134.6978642543906
 20
25.44992277887513
 30
0.0
  0
VERTEX
  5
49F
  8
DEFAULT
 10
134.7127753902921
 20
25.44500870042553
 30
0.0
  0
VERTEX
  5
4A0
  8
DEFAULT
 10
134.7276451503961
 20
25.43969604645266
 30
0.0
  0
VERTEX
  5
4A1
  8
DEFAULT
 10
134.7424582278114
 20
25.43398329707204
 30
0.0
  0
VERTEX
  5
4A2
  8
DEFAULT
 10
134.7571990908551
 20
25.42786968896972
 30
0.0
  0
VERTEX
  5
4A3
  8
DEFAULT
 10
134.7718520283814
 20
25.42135523820166
 30
0.0
  0
VERTEX
  5
4A4
  8
DEFAULT
 10
134.7864011974236
 20
25.41444075982483
 30
0.0
  0
VERTEX
  5
4A5
  8
DEFAULT
 10
134.8008306728975
 20
25.40712788410964
 30
0.0
  0
VERTEX
  5
4A6
  8
DEFAULT
 10
134.8151244990857
 20
25.39941906910613
 30
0.0
  0
VERTEX
  5
4A7
  8
DEFAULT
 10
134.8292667425951
 20
25.39131760936212
 30
0.0
  0
VERTEX
  5
4A8
  8
DEFAULT
 10
134.8432415464541
 20
25.3828276406205
 30
0.0
  0
VERTEX
  5
4A9
  8
DEFAULT
 10
134.8570331849985
 20
25.3739541403563
 30
0.0
  0
VERTEX
  5
4AA
  8
DEFAULT
 10
134.8706261191723
 20
25.36470292404846
 30
0.0
  0
VERTEX
  5
4AB
  8
DEFAULT
 10
134.8840050518594
 20
25.35508063711985
 30
0.0
  0
VERTEX
  5
4AC
  8
DEFAULT
 10
134.897154982853
 20
25.34509474251848
 30
0.0
  0
VERTEX
  5
4AD
  8
DEFAULT
 10
134.9100612630608
 20
25.33475350395353
 30
0.0
  0
VERTEX
  5
4AE
  8
DEFAULT
 10
134.9227096475492
 20
25.32406596484205
 30
0.0
  0
VERTEX
  5
4AF
  8
DEFAULT
 10
134.9350863470308
 20
25.31304192306365
 30
0.0
  0
VERTEX
  5
4B0
  8
DEFAULT
 10
134.9471780774116
 20
25.30169190166189
 30
0.0
  0
VERTEX
  5
4B1
  8
DEFAULT
 10
134.9589721070259
 20
25.29002711567128
 30
0.0
  0
VERTEX
  5
4B2
  8
DEFAULT
 10
136.2729897700671
 20
23.97600945268294
 30
0.0
  0
VERTEX
  5
4B3
  8
DEFAULT
 10
136.2762079501991
 20
23.97281680781092
 30
0.0
 42
-0.3010981833406499
  0
VERTEX
  5
4B4
  8
DEFAULT
 10
136.9773809385612
 20
22.91401809028121
 30
0.0
  0
SEQEND
  5
4B5
  8
DEFAULT
  0
POLYLINE
  5
4B6
  8
DEFAULT
 66
     1
 10
0.0
 20
0.0
 30
0.0
  0
VERTEX
  5
4B7
  8
DEFAULT
 10
121.7373809385612
 20
22.91401847807171
 30
0.0
  0
VERTEX
  5
4B8
  8
DEFAULT
 10
121.7373809385612
 20
21.59321847808505
 30
0.0
 42
-1.000000084302714
  0
VERTEX
  5
4B9
  8
DEFAULT
 10
119.4373809385612
 20
21.59321828418886
 30
0.0
  0
VERTEX
  5
4BA
  8
DEFAULT
 10
119.4373809385611
 20
21.61861828418886
 30
0.0
  0
VERTEX
  5
4BB
  8
DEFAULT
 10
118.0473809385612
 20
21.61861828418886
 30
0.0
 42
-0.2008759562248914
  0
VERTEX
  5
4BC
  8
DEFAULT
 10
117.5949897700998
 20
21.80800945270311
 30
0.0
  0
VERTEX
  5
4BD
  8
DEFAULT
 10
112.5183809385612
 20
26.88461828418886
 30
0.0
 42
-0.1989026346152901
  0
VERTEX
  5
4BE
  8
DEFAULT
 10
112.3323899938084
 20
27.33361828418887
 30
0.0
  0
VERTEX
  5
4BF
  8
DEFAULT
 10
112.3323809385612
 20
28.34061828418888
 30
0.0
  0
VERTEX
  5
4C0
  8
DEFAULT
 10
111.4343809385612
 20
29.23861828418885
 30
0.0
  0
VERTEX
  5
4C1
  8
DEFAULT
 10
108.230169236362
 20
29.23861828418887
 30
0.0
 42
-0.251571049460792
  0
VERTEX
  5
4C2
  8
DEFAULT
 10
107.2713807446857
 20
28.72361828418888
 30
0.0
  0
VERTEX
  5
4C3
  8
DEFAULT
 10
105.9633811324368
 20
28.72361828418886
 30
0.0
 42
-1.000000084323068
  0
VERTEX
  5
4C4
  8
DEFAULT
 10
105.9633811325042
 20
31.02361828418882
 30
0.0
  0
VERTEX
  5
4C5
  8
DEFAULT
 10
107.2713811324454
 20
31.02361828418881
 30
0.0
 42
-0.2515709245599234
  0
VERTEX
  5
4C6
  8
DEFAULT
 10
108.2301692363622
 20
30.50861828418884
 30
0.0
  0
VERTEX
  5
4C7
  8
DEFAULT
 10
111.697380332978
 20
30.50860922894163
 30
0.0
 42
-0.198902694048961
  0
VERTEX
  5
4C8
  8
DEFAULT
 10
112.1463809385612
 20
30.32261828418885
 30
0.0
  0
VERTEX
  5
4C9
  8
DEFAULT
 10
113.4129897700733
 20
29.05600945267678
 30
0.0
 42
-0.2008759561881639
  0
VERTEX
  5
4CA
  8
DEFAULT
 10
113.6023809385612
 20
28.60361828418885
 30
0.0
  0
VERTEX
  5
4CB
  8
DEFAULT
 10
113.6023809385612
 20
27.59661828418888
 30
0.0
  0
VERTEX
  5
4CC
  8
DEFAULT
 10
118.3104046556872
 20
22.88860642562585
 30
0.0
  0
VERTEX
  5
4CD
  8
DEFAULT
 10
119.4373809385612
 20
22.88861828418885
 30
0.0
  0
VERTEX
  5
4CE
  8
DEFAULT
 10
119.4373809385612
 20
22.91401828415854
 30
0.0
 42
-0.9999999157162908
  0
VERTEX
  5
4CF
  8
DEFAULT
 10
121.7373809385612
 20
22.91401847807171
 30
0.0
  0
SEQEND
  5
4D0
  8
DEFAULT
  0
POLYLINE
  5
4D1
  8
DEFAULT
 66
     1
 10
0.0
 20
0.0
 30
0.0
  0
VERTEX
  5
4D2
  8
DEFAULT
 10
107.2713811324547
 20
28.48361828418884
 30
0.0
 42
-1.000000000002749
  0
VERTEX
  5
4D3
  8
DEFAULT
 10
107.2713807446676
 20
26.18361828418883
 30
0.0
  0
VERTEX
  5
4D4
  8
DEFAULT
 10
105.9633807446797
 20
26.18361828418889
 30
0.0
 42
-0.9999997471151366
  0
VERTEX
  5
4D5
  8
DEFAULT
 10
105.9633807446768
 20
28.48361828418883
 30
0.0
  0
VERTEX
  5
4D6
  8
DEFAULT
 10
107.2713811324547
 20
28.48361828418884
 30
0.0
  0
SEQEND
  5
4D7
  8
DEFAULT
  0
POLYLINE
  5
4D8
  8
DEFAULT
 66
     1
 10
0.0
 20
0.0
 30
0.0
  0
VERTEX
  5
4D9
  8
DEFAULT
 10
92.03138074468065
 20
36.1036182841888
 30
0.0
 42
-1.000000168596186
  0
VERTEX
  5
4DA
  8
DEFAULT
 10
92.03138074467054
 20
33.80361828418886
 30
0.0
  0
VERTEX
  5
4DB
  8
DEFAULT
 10
90.72338074468183
 20
33.80361828418887
 30
0.0
 42
-0.9999998314125976
  0
VERTEX
  5
4DC
  8
DEFAULT
 10
90.72338093856118
 20
36.10361828418885
 30
0.0
  0
VERTEX
  5
4DD
  8
DEFAULT
 10
92.03138074468063
 20
36.1036182841888
 30
0.0
  0
SEQEND
  5
4DE
  8
DEFAULT
  0
POLYLINE
  5
4DF
  8
DEFAULT
 66
     1
 10
0.0
 20
0.0
 30
0.0
  0
VERTEX
  5
4E0
  8
DEFAULT
 10
92.03138074466122
 20
33.56361828418884
 30
0.0
 42
-1.00000008430433
  0
VERTEX
  5
4E1
  8
DEFAULT
 10
92.03138093856117
 20
31.26361828418884
 30
0.0
  0
VERTEX
  5
4E2
  8
DEFAULT
 10
90.72338074468195
 20
31.26361828418889
 30
0.0
 42
-0.9999997471136585
  0
VERTEX
  5
4E3
  8
DEFAULT
 10
90.72338074467356
 20
33.56361828418883
 30
0.0
  0
VERTEX
  5
4E4
  8
DEFAULT
 10
92.03138074466125
 20
33.56361828418883
 30
0.0
  0
SEQEND
  5
4E5
  8
DEFAULT
  0
POLYLINE
  5
4E6
  8
DEFAULT
 66
     1
 10
0.0
 20
0.0
 30
0.0
  0
VERTEX
  5
4E7
  8
DEFAULT
 10
92.03138113245912
 20
31.02361828418884
 30
0.0
 42
-0.999999831402823
  0
VERTEX
  5
4E8
  8
DEFAULT
 10
92.03138113243674
 20
28.72361828418886
 30
0.0
  0
VERTEX
  5
4E9
  8
DEFAULT
 10
90.72338074468564
 20
28.72361828418886
 30
0.0
 42
-0.9999999157194032
  0
VERTEX
  5
4EA
  8
DEFAULT
 10
90.72338113246681
 20
31.02361828418884
 30
0.0
  0
VERTEX
  5
4EB
  8
DEFAULT
 10
92.0313811324591
 20
31.02361828418884
 30
0.0
  0
SEQEND
  5
4EC
  8
DEFAULT
  0
POLYLINE
  5
4ED
  8
DEFAULT
 66
     1
 10
0.0
 20
0.0
 30
0.0
  0
VERTEX
  5
4EE
  8
DEFAULT
 10
92.03138113244928
 20
28.48361828418883
 30
0.0
 42
-0.9999999999985666
  0
VERTEX
  5
4EF
  8
DEFAULT
 10
92.03138074467306
 20
26.18361828418886
 30
0.0
  0
VERTEX
  5
4F0
  8
DEFAULT
 10
90.72338074466757
 20
26.18361828418887
 30
0.0
 42
-0.9999998314126036
  0
VERTEX
  5
4F1
  8
DEFAULT
 10
90.7233809385612
 20
28.48361828418887
 30
0.0
  0
VERTEX
  5
4F2
  8
DEFAULT
 10
92.03138113244927
 20
28.48361828418882
 30
0.0
  0
SEQEND
  5
4F3
  8
DEFAULT
  0
POLYLINE
  5
4F4
  8
DEFAULT
 66
     1
 10
0.0
 20
0.0
 30
0.0
  0
VERTEX
  5
4F5
  8
DEFAULT
 10
124.2773809385612
 20
22.91401809031157
 30
0.0
  0
VERTEX
  5
4F6
  8
DEFAULT
 10
124.2773809385612
 20
21.59321828418886
 30
0.0
 42
-0.2515710159538397
  0
VERTEX
  5
4F7
  8
DEFAULT
 10
123.7623809385612
 20
20.63442998638796
 30
0.0
  0
VERTEX
  5
4F8
  8
DEFAULT
 10
123.7623809385612
 20
17.49740658198972
 30
0.0
 42
-3.320926453229792
  0
VERTEX
  5
4F9
  8
DEFAULT
 10
122.4923809385612
 20
17.49740658198979
 30
0.0
  0
VERTEX
  5
4FA
  8
DEFAULT
 10
122.4923809385612
 20
20.63442998638789
 30
0.0
 42
-0.2515709245599869
  0
VERTEX
  5
4FB
  8
DEFAULT
 10
121.9773809385612
 20
21.59321809030598
 30
0.0
  0
VERTEX
  5
4FC
  8
DEFAULT
 10
121.9773809385612
 20
22.91401847806554
 30
0.0
 42
-1.000000000000006
  0
VERTEX
  5
4FD
  8
DEFAULT
 10
124.2773809385612
 20
22.91401809031228
 30
0.0
  0
SEQEND
  5
4FE
  8
DEFAULT
  0
POLYLINE
  5
4FF
  8
DEFAULT
 66
     1
 10
0.0
 20
0.0
 30
0.0
  0
VERTEX
  5
500
  8
DEFAULT
 10
145.0285926407602
 20
35.58861828418884
 30
0.0
 42
-3.320926453229939
  0
VERTEX
  5
501
  8
DEFAULT
 10
145.0285926407603
 20
34.31861828418883
 30
0.0
  0
VERTEX
  5
502
  8
DEFAULT
 10
144.9803809385612
 20
34.31861828418886
 30
0.0
  0
VERTEX
  5
503
  8
DEFAULT
 10
144.0823809385612
 20
33.42061828418886
 30
0.0
  0
VERTEX
  5
504
  8
DEFAULT
 10
144.0823718833139
 20
16.53862032803212
 30
0.0
 42
-0.1989027183095375
  0
VERTEX
  5
505
  8
DEFAULT
 10
143.8963809385612
 20
16.08961828418886
 30
0.0
  0
VERTEX
  5
506
  8
DEFAULT
 10
141.3563809385612
 20
13.54961828418886
 30
0.0
 42
-0.1989026346151813
  0
VERTEX
  5
507
  8
DEFAULT
 10
140.9073809385611
 20
13.36362733943608
 30
0.0
  0
VERTEX
  5
508
  8
DEFAULT
 10
132.0031574542669
 20
13.36377760142306
 30
0.0
  0
VERTEX
  5
509
  8
DEFAULT
 10
131.98881225754
 20
13.36426126289508
 30
0.0
  0
VERTEX
  5
50A
  8
DEFAULT
 10
131.9743549229998
 20
13.36507762883601
 30
0.0
  0
VERTEX
  5
50B
  8
DEFAULT
 10
131.9597955715769
 20
13.36623475696088
 30
0.0
  0
VERTEX
  5
50C
  8
DEFAULT
 10
131.9451448639984
 20
13.3677403645152
 30
0.0
  0
VERTEX
  5
50D
  8
DEFAULT
 10
131.9304139914446
 20
13.36960178988269
 30
0.0
  0
VERTEX
  5
50E
  8
DEFAULT
 10
131.9156146632675
 20
13.37182595397665
 30
0.0
  0
VERTEX
  5
50F
  8
DEFAULT
 10
131.9007590916759
 20
13.37441932165442
 30
0.0
  0
VERTEX
  5
510
  8
DEFAULT
 10
131.885859973314
 20
13.37738786341051
 30
0.0
  0
VERTEX
  5
511
  8
DEFAULT
 10
131.8709304676817
 20
13.38073701761801
 30
0.0
  0
VERTEX
  5
512
  8
DEFAULT
 10
131.8559841723723
 20
13.38447165359989
 30
0.0
  0
VERTEX
  5
513
  8
DEFAULT
 10
131.8410350951258
 20
13.38859603582157
 30
0.0
  0
VERTEX
  5
514
  8
DEFAULT
 10
131.8260976227302
 20
13.39311378950305
 30
0.0
  0
VERTEX
  5
515
  8
DEFAULT
 10
131.8111864868285
 20
13.39802786795273
 30
0.0
  0
VERTEX
  5
516
  8
DEFAULT
 10
131.7963167267245
 20
13.40334052192569
 30
0.0
  0
VERTEX
  5
517
  8
DEFAULT
 10
131.7815036493091
 20
13.40905327130639
 30
0.0
  0
VERTEX
  5
518
  8
DEFAULT
 10
131.7667627862653
 20
13.41516687940882
 30
0.0
  0
VERTEX
  5
519
  8
DEFAULT
 10
131.7521098487389
 20
13.42168133017698
 30
0.0
  0
VERTEX
  5
51A
  8
DEFAULT
 10
131.7375606796966
 20
13.42859580855392
 30
0.0
  0
VERTEX
  5
51B
  8
DEFAULT
 10
131.7231312042227
 20
13.43590868426923
 30
0.0
  0
VERTEX
  5
51C
  8
DEFAULT
 10
131.7088373780343
 20
13.44361749927285
 30
0.0
  0
VERTEX
  5
51D
  8
DEFAULT
 10
131.6946951345249
 20
13.451718959017
 30
0.0
  0
VERTEX
  5
51E
  8
DEFAULT
 10
131.6807203306658
 20
13.46020892775875
 30
0.0
  0
VERTEX
  5
51F
  8
DEFAULT
 10
131.6669286921213
 20
13.46908242802308
 30
0.0
  0
VERTEX
  5
520
  8
DEFAULT
 10
131.6533357579475
 20
13.47833364433107
 30
0.0
  0
VERTEX
  5
521
  8
DEFAULT
 10
131.6399568252603
 20
13.48795593125982
 30
0.0
  0
VERTEX
  5
522
  8
DEFAULT
 10
131.6268068942666
 20
13.49794182586134
 30
0.0
  0
VERTEX
  5
523
  8
DEFAULT
 10
131.6139006140588
 20
13.50828306442645
 30
0.0
  0
VERTEX
  5
524
  8
DEFAULT
 10
131.6012522295704
 20
13.51897060353809
 30
0.0
  0
VERTEX
  5
525
  8
DEFAULT
 10
131.5888755300887
 20
13.52999464531665
 30
0.0
  0
VERTEX
  5
526
  8
DEFAULT
 10
131.576783799708
 20
13.54134466671858
 30
0.0
  0
VERTEX
  5
527
  8
DEFAULT
 10
131.5649897700936
 20
13.55300945270935
 30
0.0
  0
VERTEX
  5
528
  8
DEFAULT
 10
130.2983809385612
 20
14.81961828418886
 30
0.0
 42
-0.1989026838334174
  0
VERTEX
  5
529
  8
DEFAULT
 10
130.1123899938084
 20
15.26861828418886
 30
0.0
  0
VERTEX
  5
52A
  8
DEFAULT
 10
130.1123809385612
 20
20.63442998638797
 30
0.0
 42
-0.2515709245599395
  0
VERTEX
  5
52B
  8
DEFAULT
 10
129.5973809385612
 20
21.59321809030621
 30
0.0
  0
VERTEX
  5
52C
  8
DEFAULT
 10
129.5973809385612
 20
22.91401847808595
 30
0.0
 42
-0.9999998314008677
  0
VERTEX
  5
52D
  8
DEFAULT
 10
131.8973809385612
 20
22.91401847806981
 30
0.0
  0
VERTEX
  5
52E
  8
DEFAULT
 10
131.8973809385612
 20
21.59321847807917
 30
0.0
 42
-0.2515710607716015
  0
VERTEX
  5
52F
  8
DEFAULT
 10
131.3823809385611
 20
20.63442998638792
 30
0.0
  0
VERTEX
  5
530
  8
DEFAULT
 10
131.3823809385612
 20
15.53161828418888
 30
0.0
  0
VERTEX
  5
531
  8
DEFAULT
 10
132.2803809385611
 20
14.63361828418886
 30
0.0
  0
VERTEX
  5
532
  8
DEFAULT
 10
140.6443809385612
 20
14.63361828418886
 30
0.0
  0
VERTEX
  5
533
  8
DEFAULT
 10
142.8123810774666
 20
16.80161856199962
 30
0.0
  0
VERTEX
  5
534
  8
DEFAULT
 10
142.8123899938084
 20
33.68361624034559
 30
0.0
 42
-0.1989027183091771
  0
VERTEX
  5
535
  8
DEFAULT
 10
142.9983809385612
 20
34.13261828418885
 30
0.0
  0
VERTEX
  5
536
  8
DEFAULT
 10
144.2649897700715
 20
35.39922711569918
 30
0.0
 42
-0.2293492768218638
  0
VERTEX
  5
537
  8
DEFAULT
 10
145.0285926407603
 20
35.58861828418883
 30
0.0
  0
SEQEND
  5
538
  8
DEFAULT
  0
POLYLINE
  5
539
  8
DEFAULT
 66
     1
 10
0.0
 20
0.0
 30
0.0
  0
VERTEX
  5
53A
  8
DEFAULT
 10
139.408406750262
 20
32.2705924724881
 30
0.0
 42
-0.8241057223583014
  0
VERTEX
  5
53B
  8
DEFAULT
 10
140.2723809385612
 20
30.18482998638789
 30
0.0
  0
VERTEX
  5
53C
  8
DEFAULT
 10
140.2723809385612
 20
18.44361828418886
 30
0.0
 42
-0.2008759562244502
  0
VERTEX
  5
53D
  8
DEFAULT
 10
140.0829897700479
 20
17.99122711572835
 30
0.0
  0
VERTEX
  5
53E
  8
DEFAULT
 10
138.1847721070557
 20
16.09300945268335
 30
0.0
 42
-0.2008759561920513
  0
VERTEX
  5
53F
  8
DEFAULT
 10
137.7323809385612
 20
15.90361828418887
 30
0.0
  0
VERTEX
  5
540
  8
DEFAULT
 10
135.5161692363621
 20
15.90361828418883
 30
0.0
 42
-0.7432324686653252
  0
VERTEX
  5
541
  8
DEFAULT
 10
133.4073809385612
 20
16.53861828418886
 30
0.0
  0
VERTEX
  5
542
  8
DEFAULT
 10
133.4304067502619
 20
16.76759247248807
 30
0.0
  0
VERTEX
  5
543
  8
DEFAULT
 10
132.8383809385612
 20
17.35961828418886
 30
0.0
 42
-0.1989026838334056
  0
VERTEX
  5
544
  8
DEFAULT
 10
132.6523899938084
 20
17.80861828418885
 30
0.0
  0
VERTEX
  5
545
  8
DEFAULT
 10
132.6523809385612
 20
20.63442998638792
 30
0.0
 42
-0.2515709245598921
  0
VERTEX
  5
546
  8
DEFAULT
 10
132.1373809385612
 20
21.59321809030405
 30
0.0
  0
VERTEX
  5
547
  8
DEFAULT
 10
132.1373809385612
 20
22.91401847808397
 30
0.0
 42
-0.9999998313974882
  0
VERTEX
  5
548
  8
DEFAULT
 10
134.4373809385611
 20
22.91401847807953
 30
0.0
  0
VERTEX
  5
549
  8
DEFAULT
 10
134.4373809385611
 20
21.59321809030654
 30
0.0
 42
-0.2515709245599622
  0
VERTEX
  5
54A
  8
DEFAULT
 10
133.9223809385611
 20
20.63442998638795
 30
0.0
  0
VERTEX
  5
54B
  8
DEFAULT
 10
133.9223809385612
 20
18.07161828418884
 30
0.0
  0
VERTEX
  5
54C
  8
DEFAULT
 10
134.3284067502619
 20
17.6655924724881
 30
0.0
 42
-0.3055804955405422
  0
VERTEX
  5
54D
  8
DEFAULT
 10
135.5161692363621
 20
17.17361828418887
 30
0.0
  0
VERTEX
  5
54E
  8
DEFAULT
 10
137.4693809385612
 20
17.17361828418886
 30
0.0
  0
VERTEX
  5
54F
  8
DEFAULT
 10
139.0023809385612
 20
18.70661828418888
 30
0.0
  0
VERTEX
  5
550
  8
DEFAULT
 10
139.0023809385612
 20
30.18482998638795
 30
0.0
 42
-0.2515710159538477
  0
VERTEX
  5
551
  8
DEFAULT
 10
138.4873809385612
 20
31.14361828418886
 30
0.0
  0
VERTEX
  5
552
  8
DEFAULT
 10
138.510406750262
 20
31.37259247248807
 30
0.0
  0
VERTEX
  5
553
  8
DEFAULT
 10
137.4693809385612
 20
32.41361828418883
 30
0.0
  0
VERTEX
  5
554
  8
DEFAULT
 10
135.5161692363621
 20
32.41361828418887
 30
0.0
 42
-0.3055804955405109
  0
VERTEX
  5
555
  8
DEFAULT
 10
134.328406750262
 20
31.92164409588961
 30
0.0
  0
VERTEX
  5
556
  8
DEFAULT
 10
133.9223809385612
 20
31.51561828418885
 30
0.0
  0
VERTEX
  5
557
  8
DEFAULT
 10
133.9223809385612
 20
31.49280658198975
 30
0.0
 42
-0.2515710494605982
  0
VERTEX
  5
558
  8
DEFAULT
 10
134.4373809385611
 20
30.53401809029475
 30
0.0
  0
VERTEX
  5
559
  8
DEFAULT
 10
134.4373809385611
 20
29.21321847813367
 30
0.0
 42
-1.000000084323826
  0
VERTEX
  5
55A
  8
DEFAULT
 10
132.1373809385611
 20
29.21321828418886
 30
0.0
  0
VERTEX
  5
55B
  8
DEFAULT
 10
132.1373809385612
 20
30.53401847808269
 30
0.0
 42
-0.2515709245601107
  0
VERTEX
  5
55C
  8
DEFAULT
 10
132.6523809385612
 20
31.49280658198981
 30
0.0
 42
-0.2316248078007404
  0
VERTEX
  5
55D
  8
DEFAULT
 10
132.8417721070823
 20
32.23100945265714
 30
0.0
  0
VERTEX
  5
55E
  8
DEFAULT
 10
133.430406750262
 20
32.8196440958896
 30
0.0
  0
VERTEX
  5
55F
  8
DEFAULT
 10
133.4073809385612
 20
33.04861828418886
 30
0.0
 42
-0.7432324686653274
  0
VERTEX
  5
560
  8
DEFAULT
 10
135.5161692363621
 20
33.68361828418887
 30
0.0
  0
VERTEX
  5
561
  8
DEFAULT
 10
137.7323809385612
 20
33.68361828418885
 30
0.0
 42
-0.2008759562274224
  0
VERTEX
  5
562
  8
DEFAULT
 10
138.184772107027
 20
33.49422711567023
 30
0.0
  0
VERTEX
  5
563
  8
DEFAULT
 10
139.408406750262
 20
32.27059247248808
 30
0.0
  0
SEQEND
  5
564
  8
DEFAULT
  0
POLYLINE
  5
565
  8
DEFAULT
 66
     1
 10
0.0
 20
0.0
 30
0.0
  0
VERTEX
  5
566
  8
DEFAULT
 10
145.0285926407602
 20
40.66861828418885
 30
0.0
 42
-3.320926453229672
  0
VERTEX
  5
567
  8
DEFAULT
 10
145.0285926407603
 20
39.39861828418884
 30
0.0
  0
VERTEX
  5
568
  8
DEFAULT
 10
142.5944809385612
 20
39.39861828418886
 30
0.0
  0
VERTEX
  5
569
  8
DEFAULT
 10
141.5104809385612
 20
38.31461828418885
 30
0.0
 42
-0.1497438020310251
  0
VERTEX
  5
56A
  8
DEFAULT
 10
141.1819270668173
 20
38.14016441244842
 30
0.0
 42
-0.1717924587997151
  0
VERTEX
  5
56B
  8
DEFAULT
 10
140.2723809385612
 20
37.4936273394361
 30
0.0
  0
VERTEX
  5
56C
  8
DEFAULT
 10
127.2003809385612
 20
37.49361828418886
 30
0.0
  0
VERTEX
  5
56D
  8
DEFAULT
 10
126.3023809385612
 20
36.59561828418884
 30
0.0
  0
VERTEX
  5
56E
  8
DEFAULT
 10
126.3023809385612
 20
31.49280658198977
 30
0.0
 42
-0.2515710494607349
  0
VERTEX
  5
56F
  8
DEFAULT
 10
126.8173809385611
 20
30.53401809030256
 30
0.0
  0
VERTEX
  5
570
  8
DEFAULT
 10
126.8173809385612
 20
29.21321828418886
 30
0.0
 42
-0.9999999999999999
  0
VERTEX
  5
571
  8
DEFAULT
 10
124.5173809385612
 20
29.21321828418886
 30
0.0
  0
VERTEX
  5
572
  8
DEFAULT
 10
124.5173809385612
 20
30.53401828417664
 30
0.0
 42
-0.2515710159567041
  0
VERTEX
  5
573
  8
DEFAULT
 10
125.0323809385611
 20
31.49280658198976
 30
0.0
  0
VERTEX
  5
574
  8
DEFAULT
 10
125.0323899938084
 20
36.85861745151195
 30
0.0
 42
-0.1989026978798025
  0
VERTEX
  5
575
  8
DEFAULT
 10
125.2183809385612
 20
37.30761828418885
 30
0.0
  0
VERTEX
  5
576
  8
DEFAULT
 10
126.4849897700697
 20
38.57422711569737
 30
0.0
 42
-0.2008759561903229
  0
VERTEX
  5
577
  8
DEFAULT
 10
126.9373809385612
 20
38.76361828418884
 30
0.0
  0
VERTEX
  5
578
  8
DEFAULT
 10
140.0093809385612
 20
38.76361828418885
 30
0.0
  0
VERTEX
  5
579
  8
DEFAULT
 10
140.4549897700676
 20
39.20922711569523
 30
0.0
 42
-0.1516856180272368
  0
VERTEX
  5
57A
  8
DEFAULT
 10
140.7869576717329
 20
39.38709501736052
 30
0.0
  0
VERTEX
  5
57B
  8
DEFAULT
 10
141.8824809385611
 20
40.48261828418887
 30
0.0
 42
-0.198902691185258
  0
VERTEX
  5
57C
  8
DEFAULT
 10
142.3314813743784
 20
40.66860922894161
 30
0.0
  0
VERTEX
  5
57D
  8
DEFAULT
 10
145.0285926407603
 20
40.66861828418885
 30
0.0
  0
SEQEND
  5
57E
  8
DEFAULT
  0
POLYLINE
  5
57F
  8
DEFAULT
 66
     1
 10
0.0
 20
0.0
 30
0.0
  0
VERTEX
  5
580
  8
DEFAULT
 10
127.0573809385612
 20
35.58861828418885
 30
0.0
 42
-1.672264226310004
  0
VERTEX
  5
581
  8
DEFAULT
 10
128.8423809385612
 20
34.62982998638794
 30
0.0
  0
VERTEX
  5
582
  8
DEFAULT
 10
128.8423809385612
 20
31.49280658198974
 30
0.0
 42
-0.2515709245600887
  0
VERTEX
  5
583
  8
DEFAULT
 10
129.3573809385612
 20
30.53401847808746
 30
0.0
  0
VERTEX
  5
584
  8
DEFAULT
 10
129.3573809385612
 20
29.21321847808869
 30
0.0
 42
-1.00000008430424
  0
VERTEX
  5
585
  8
DEFAULT
 10
127.0573809385612
 20
29.21321828418886
 30
0.0
  0
VERTEX
  5
586
  8
DEFAULT
 10
127.0573809385612
 20
30.53401847807336
 30
0.0
 42
-0.2515709245599811
  0
VERTEX
  5
587
  8
DEFAULT
 10
127.5723809385611
 20
31.49280658198977
 30
0.0
  0
VERTEX
  5
588
  8
DEFAULT
 10
127.5723809385612
 20
34.62982998638793
 30
0.0
 42
-0.2515710159539606
  0
VERTEX
  5
589
  8
DEFAULT
 10
127.0573809385612
 20
35.58861828418885
 30
0.0
  0
SEQEND
  5
58A
  8
DEFAULT
  0
POLYLINE
  5
58B
  8
DEFAULT
 66
     1
 10
0.0
 20
0.0
 30
0.0
  0
VERTEX
  5
58C
  8
DEFAULT
 10
145.0285926407603
 20
38.12861828418887
 30
0.0
 42
-3.320926453229824
  0
VERTEX
  5
58D
  8
DEFAULT
 10
145.0285926407603
 20
36.85861828418888
 30
0.0
  0
VERTEX
  5
58E
  8
DEFAULT
 10
143.0753809385612
 20
36.85861828418885
 30
0.0
  0
VERTEX
  5
58F
  8
DEFAULT
 10
141.3597721070539
 20
35.1430094526815
 30
0.0
 42
-0.2008759561910158
  0
VERTEX
  5
590
  8
DEFAULT
 10
140.9073809385612
 20
34.95361828418886
 30
0.0
  0
VERTEX
  5
591
  8
DEFAULT
 10
132.2803809385612
 20
34.95361828418885
 30
0.0
  0
VERTEX
  5
592
  8
DEFAULT
 10
131.3823809385612
 20
34.05561828418884
 30
0.0
  0
VERTEX
  5
593
  8
DEFAULT
 10
131.3823809385612
 20
31.49280658198979
 30
0.0
 42
-0.2515709245599235
  0
VERTEX
  5
594
  8
DEFAULT
 10
131.8973809385612
 20
30.5340184780732
 30
0.0
  0
VERTEX
  5
595
  8
DEFAULT
 10
131.8973809385612
 20
29.21321809028908
 30
0.0
 42
-0.9999998313969473
  0
VERTEX
  5
596
  8
DEFAULT
 10
129.5973809385612
 20
29.21321809030158
 30
0.0
  0
VERTEX
  5
597
  8
DEFAULT
 10
129.5973809385612
 20
30.53401847806992
 30
0.0
 42
-0.2515709245599039
  0
VERTEX
  5
598
  8
DEFAULT
 10
130.1123809385612
 20
31.49280658198974
 30
0.0
  0
VERTEX
  5
599
  8
DEFAULT
 10
130.1123899938084
 20
34.31861839124187
 30
0.0
 42
-0.1989026328093344
  0
VERTEX
  5
59A
  8
DEFAULT
 10
130.2983809385612
 20
34.76761828418885
 30
0.0
  0
VERTEX
  5
59B
  8
DEFAULT
 10
131.5649897700704
 20
36.03422711569812
 30
0.0
 42
-0.2008759561898511
  0
VERTEX
  5
59C
  8
DEFAULT
 10
132.0173809385612
 20
36.22361828418885
 30
0.0
  0
VERTEX
  5
59D
  8
DEFAULT
 10
140.6443809385611
 20
36.22361828418886
 30
0.0
  0
VERTEX
  5
59E
  8
DEFAULT
 10
142.3599897700648
 20
37.93922711569243
 30
0.0
 42
-0.200875956193215
  0
VERTEX
  5
59F
  8
DEFAULT
 10
142.8123809385612
 20
38.12861828418885
 30
0.0
  0
VERTEX
  5
5A0
  8
DEFAULT
 10
145.0285926407603
 20
38.12861828418886
 30
0.0
  0
SEQEND
  5
5A1
  8
DEFAULT
  0
POLYLINE
  5
5A2
  8
DEFAULT
 66
     1
 10
0.0
 20
0.0
 30
0.0
  0
VERTEX
  5
5A3
  8
DEFAULT
 10
133.0435926407602
 20
87.02361828418886
 30
0.0
 42
-3.320926453229829
  0
VERTEX
  5
5A4
  8
DEFAULT
 10
133.0435926407603
 20
85.75361828418886
 30
0.0
  0
VERTEX
  5
5A5
  8
DEFAULT
 10
129.1661692363621
 20
85.75361828418886
 30
0.0
 42
-3.320926453230174
  0
VERTEX
  5
5A6
  8
DEFAULT
 10
129.1661692363621
 20
87.02361828418887
 30
0.0
  0
VERTEX
  5
5A7
  8
DEFAULT
 10
133.0435926407602
 20
87.02361828418884
 30
0.0
  0
SEQEND
  5
5A8
  8
DEFAULT
  0
POLYLINE
  5
5A9
  8
DEFAULT
 66
     1
 10
0.0
 20
0.0
 30
0.0
  0
VERTEX
  5
5AA
  8
DEFAULT
 10
148.8385926407603
 20
87.0236182841888
 30
0.0
 42
-3.320926453229736
  0
VERTEX
  5
5AB
  8
DEFAULT
 10
148.8385926407603
 20
85.75361828418882
 30
0.0
  0
VERTEX
  5
5AC
  8
DEFAULT
 10
144.9611692363621
 20
85.75361828418885
 30
0.0
 42
-3.320926453230129
  0
VERTEX
  5
5AD
  8
DEFAULT
 10
144.9611692363621
 20
87.02361828418888
 30
0.0
  0
VERTEX
  5
5AE
  8
DEFAULT
 10
148.8385926407603
 20
87.02361828418884
 30
0.0
  0
SEQEND
  5
5AF
  8
DEFAULT
  0
CIRCLE
  5
5B0
  8
DEFAULT
 10
-148.5273809385612
 20
45.11361828418887
 30
0.0
 40
1.150000000000006
210
0.0
220
0.0
230
-1.0
  0
CIRCLE
  5
5B1
  8
DEFAULT
 10
-148.5273809385612
 20
42.57361828418888
 30
0.0
 40
1.150000000000006
210
0.0
220
0.0
230
-1.0
  0
CIRCLE
  5
5B2
  8
DEFAULT
 10
-148.5273809385612
 20
40.03361828418886
 30
0.0
 40
1.150000000000006
210
0.0
220
0.0
230
-1.0
  0
CIRCLE
  5
5B3
  8
DEFAULT
 10
-148.5273809385612
 20
37.49361828418884
 30
0.0
 40
1.150000000000006
210
0.0
220
0.0
230
-1.0
  0
POLYLINE
  5
5B4
  8
DEFAULT
 66
     1
 10
0.0
 20
0.0
 30
0.0
  0
VERTEX
  5
5B5
  8
DEFAULT
 10
144.8373809385612
 20
32.41361828418886
 30
0.0
 42
-1.672264226310056
  0
VERTEX
  5
5B6
  8
DEFAULT
 10
146.6223809385611
 20
31.45482998638791
 30
0.0
  0
VERTEX
  5
5B7
  8
DEFAULT
 10
146.6223809385612
 20
15.90712541983481
 30
0.0
  0
VERTEX
  5
5B8
  8
DEFAULT
 10
146.6222866134912
 20
15.89212550636907
 30
0.0
  0
VERTEX
  5
5B9
  8
DEFAULT
 10
146.6218387111877
 20
15.87714877806954
 30
0.0
  0
VERTEX
  5
5BA
  8
DEFAULT
 10
146.6210389382202
 20
15.86220766395112
 30
0.0
  0
VERTEX
  5
5BB
  8
DEFAULT
 10
146.6198895787188
 20
15.8473144643682
 30
0.0
  0
VERTEX
  5
5BC
  8
DEFAULT
 10
146.6183934836208
 20
15.83248131786569
 30
0.0
  0
VERTEX
  5
5BD
  8
DEFAULT
 10
146.6165540576731
 20
15.81772016903286
 30
0.0
  0
VERTEX
  5
5BE
  8
DEFAULT
 10
146.6143752442892
 20
15.80304273753363
 30
0.0
  0
VERTEX
  5
5BF
  8
DEFAULT
 10
146.6118615083844
 20
15.78846048847553
 30
0.0
  0
VERTEX
  5
5C0
  8
DEFAULT
 10
146.6090178173175
 20
15.77398460426605
 30
0.0
  0
VERTEX
  5
5C1
  8
DEFAULT
 10
146.6058496200845
 20
15.75962595809105
 30
0.0
  0
VERTEX
  5
5C2
  8
DEFAULT
 10
146.6023628249179
 20
15.74539508913441
 30
0.0
  0
VERTEX
  5
5C3
  8
DEFAULT
 10
146.5985637754554
 20
15.7313021796422
 30
0.0
  0
VERTEX
  5
5C4
  8
DEFAULT
 10
146.5944592256442
 20
15.71735703391776
 30
0.0
  0
VERTEX
  5
5C5
  8
DEFAULT
 10
146.5900563135587
 20
15.70356905931734
 30
0.0
  0
VERTEX
  5
5C6
  8
DEFAULT
 10
146.5853625343057
 20
15.68994724929883
 30
0.0
  0
VERTEX
  5
5C7
  8
DEFAULT
 10
146.5803857121952
 20
15.67650016855881
 30
0.0
  0
VERTEX
  5
5C8
  8
DEFAULT
 10
146.5751339723565
 20
15.66323594027707
 30
0.0
  0
VERTEX
  5
5C9
  8
DEFAULT
 10
146.5696157119716
 20
15.65016223547069
 30
0.0
  0
VERTEX
  5
5CA
  8
DEFAULT
 10
146.5638395713001
 20
15.63728626444502
 30
0.0
  0
VERTEX
  5
5CB
  8
DEFAULT
 10
146.5578144046598
 20
15.62461477031347
 30
0.0
  0
VERTEX
  5
5CC
  8
DEFAULT
 10
146.5515492515228
 20
15.61215402454451
 30
0.0
  0
VERTEX
  5
5CD
  8
DEFAULT
 10
146.5450533078804
 20
15.59990982448135
 30
0.0
  0
VERTEX
  5
5CE
  8
DEFAULT
 10
146.5383358980169
 20
15.58788749276821
 30
0.0
  0
VERTEX
  5
5CF
  8
DEFAULT
 10
146.5314064468292
 20
15.5760918786064
 30
0.0
  0
VERTEX
  5
5D0
  8
DEFAULT
 10
146.5242744528119
 20
15.56452736075447
 30
0.0
  0
VERTEX
  5
5D1
  8
DEFAULT
 10
146.516949461823
 20
15.55319785217857
 30
0.0
  0
VERTEX
  5
5D2
  8
DEFAULT
 10
146.5094410417298
 20
15.54210680625271
 30
0.0
  0
VERTEX
  5
5D3
  8
DEFAULT
 10
146.5017587580238
 20
15.531257224403
 30
0.0
  0
VERTEX
  5
5D4
  8
DEFAULT
 10
146.493912150485
 20
15.52065166508612
 30
0.0
  0
VERTEX
  5
5D5
  8
DEFAULT
 10
146.4859107109593
 20
15.51029225398919
 30
0.0
  0
VERTEX
  5
5D6
  8
DEFAULT
 10
146.4777638623065
 20
15.50018069533662
 30
0.0
  0
VERTEX
  5
5D7
  8
DEFAULT
 10
146.4694809385612
 20
15.49031828418886
 30
0.0
  0
VERTEX
  5
5D8
  8
DEFAULT
 10
145.4928008162614
 20
14.37907897329035
 30
0.0
  0
VERTEX
  5
5D9
  8
DEFAULT
 10
144.4677423492164
 20
13.26783992375831
 30
0.0
  0
VERTEX
  5
5DA
  8
DEFAULT
 10
143.3943055374262
 20
12.15660113559272
 30
0.0
  0
VERTEX
  5
5DB
  8
DEFAULT
 10
142.2724903808908
 20
11.0453626087936
 30
0.0
  0
VERTEX
  5
5DC
  8
DEFAULT
 10
142.2606204973718
 20
11.03190447931047
 30
0.0
  0
VERTEX
  5
5DD
  8
DEFAULT
 10
142.2483665446284
 20
11.01877823635776
 30
0.0
  0
VERTEX
  5
5DE
  8
DEFAULT
 10
142.235742671479
 20
11.00600012015222
 30
0.0
  0
VERTEX
  5
5DF
  8
DEFAULT
 10
142.2227639307229
 20
10.99358555400783
 30
0.0
  0
VERTEX
  5
5E0
  8
DEFAULT
 10
142.2094462193618
 20
10.98154908233646
 30
0.0
  0
VERTEX
  5
5E1
  8
DEFAULT
 10
142.1958062138064
 20
10.96990431395461
 30
0.0
  0
VERTEX
  5
5E2
  8
DEFAULT
 10
142.1818613006221
 20
10.95866387115913
 30
0.0
  0
VERTEX
  5
5E3
  8
DEFAULT
 10
142.1676295034126
 20
10.94783934496864
 30
0.0
  0
VERTEX
  5
5E4
  8
DEFAULT
 10
142.1531294064833
 20
10.93744125685635
 30
0.0
  0
VERTEX
  5
5E5
  8
DEFAULT
 10
142.1383800759509
 20
10.92747902722417
 30
0.0
  0
VERTEX
  5
5E6
  8
DEFAULT
 10
142.1234009789888
 20
10.91796095079025
 30
0.0
  0
VERTEX
  5
5E7
  8
DEFAULT
 10
142.1082119019027
 20
10.90889417898334
 30
0.0
  0
VERTEX
  5
5E8
  8
DEFAULT
 10
142.0928328677348
 20
10.90028470935827
 30
0.0
  0
VERTEX
  5
5E9
  8
DEFAULT
 10
142.0772840540799
 20
10.89213738197003
 30
0.0
  0
VERTEX
  5
5EA
  8
DEFAULT
 10
142.0615857117794
 20
10.88445588256989
 30
0.0
  0
VERTEX
  5
5EB
  8
DEFAULT
 10
142.0457580851298
 20
10.877242752417
 30
0.0
  0
VERTEX
  5
5EC
  8
DEFAULT
 10
142.0298213342058
 20
10.87049940443413
 30
0.0
  0
VERTEX
  5
5ED
  8
DEFAULT
 10
142.0137954598552
 20
10.86422614537812
 30
0.0
  0
VERTEX
  5
5EE
  8
DEFAULT
 10
141.9977002318724
 20
10.85842220364329
 30
0.0
  0
VERTEX
  5
5EF
  8
DEFAULT
 10
141.9815551208055
 20
10.85308576227228
 30
0.0
  0
VERTEX
  5
5F0
  8
DEFAULT
 10
141.9653792337913
 20
10.84821399671228
 30
0.0
  0
VERTEX
  5
5F1
  8
DEFAULT
 10
141.9491912547561
 20
10.84380311682597
 30
0.0
  0
VERTEX
  5
5F2
  8
DEFAULT
 10
141.9330093892557
 20
10.83984841264628
 30
0.0
  0
VERTEX
  5
5F3
  8
DEFAULT
 10
141.9168513141682
 20
10.83634430335146
 30
0.0
  0
VERTEX
  5
5F4
  8
DEFAULT
 10
141.9007341323913
 20
10.83328438893202
 30
0.0
  0
VERTEX
  5
5F5
  8
DEFAULT
 10
141.8846743326384
 20
10.8306615040233
 30
0.0
  0
VERTEX
  5
5F6
  8
DEFAULT
 10
141.8686877543685
 20
10.82846777338628
 30
0.0
  0
VERTEX
  5
5F7
  8
DEFAULT
 10
141.852789557836
 20
10.82669466853423
 30
0.0
  0
VERTEX
  5
5F8
  8
DEFAULT
 10
141.8369941991912
 20
10.82533306502279
 30
0.0
  0
VERTEX
  5
5F9
  8
DEFAULT
 10
141.8213154105233
 20
10.82437329994625
 30
0.0
  0
VERTEX
  5
5FA
  8
DEFAULT
 10
141.8057661846939
 20
10.82380522921092
 30
0.0
  0
VERTEX
  5
5FB
  8
DEFAULT
 10
126.9373827553108
 20
10.82362733943609
 30
0.0
  0
VERTEX
  5
5FC
  8
DEFAULT
 10
126.9209467652048
 20
10.82384064683207
 30
0.0
  0
VERTEX
  5
5FD
  8
DEFAULT
 10
126.904527290232
 20
10.82447900927941
 30
0.0
  0
VERTEX
  5
5FE
  8
DEFAULT
 10
126.8881407873311
 20
10.82554114598943
 30
0.0
  0
VERTEX
  5
5FF
  8
DEFAULT
 10
126.8718036033233
 20
10.8270249298271
 30
0.0
  0
VERTEX
  5
600
  8
DEFAULT
 10
126.8555319208219
 20
10.82892739793973
 30
0.0
  0
VERTEX
  5
601
  8
DEFAULT
 10
126.8393417052857
 20
10.83124476649764
 30
0.0
  0
VERTEX
  5
602
  8
DEFAULT
 10
126.8232486535781
 20
10.8339724494102
 30
0.0
  0
VERTEX
  5
603
  8
DEFAULT
 10
126.8072681443735
 20
10.83710508084566
 30
0.0
  0
VERTEX
  5
604
  8
DEFAULT
 10
126.7914151907314
 20
10.84063654134973
 30
0.0
  0
VERTEX
  5
605
  8
DEFAULT
 10
126.7757043951354
 20
10.84455998732843
 30
0.0
  0
VERTEX
  5
606
  8
DEFAULT
 10
126.7601499072633
 20
10.84886788363366
 30
0.0
  0
VERTEX
  5
607
  8
DEFAULT
 10
126.7447653847255
 20
10.8535520389673
 30
0.0
  0
VERTEX
  5
608
  8
DEFAULT
 10
126.729563956977
 20
10.85860364380032
 30
0.0
  0
VERTEX
  5
609
  8
DEFAULT
 10
126.7145581925722
 20
10.86401331048882
 30
0.0
  0
VERTEX
  5
60A
  8
DEFAULT
 10
126.6997600698978
 20
10.86977111525752
 30
0.0
  0
VERTEX
  5
60B
  8
DEFAULT
 10
126.6851809514845
 20
10.87586664171519
 30
0.0
  0
VERTEX
  5
60C
  8
DEFAULT
 10
126.6708315619601
 20
10.8822890255635
 30
0.0
  0
VERTEX
  5
60D
  8
DEFAULT
 10
126.6567219696752
 20
10.88902700016241
 30
0.0
  0
VERTEX
  5
60E
  8
DEFAULT
 10
126.6428615719969
 20
10.89606894262037
 30
0.0
  0
VERTEX
  5
60F
  8
DEFAULT
 10
126.6292590842342
 20
10.90340292008636
 30
0.0
  0
VERTEX
  5
610
  8
DEFAULT
 10
126.6159225321298
 20
10.9110167359326
 30
0.0
  0
VERTEX
  5
611
  8
DEFAULT
 10
126.6028592478221
 20
10.91889797553183
 30
0.0
  0
VERTEX
  5
612
  8
DEFAULT
 10
126.5900758691604
 20
10.9270340513502
 30
0.0
  0
VERTEX
  5
613
  8
DEFAULT
 10
126.5775783422282
 20
10.93541224709639
 30
0.0
  0
VERTEX
  5
614
  8
DEFAULT
 10
126.5653719269133
 20
10.94401976068886
 30
0.0
  0
VERTEX
  5
615
  8
DEFAULT
 10
126.5534612053449
 20
10.95284374582558
 30
0.0
  0
VERTEX
  5
616
  8
DEFAULT
 10
126.5418500930039
 20
10.96187135196431
 30
0.0
  0
VERTEX
  5
617
  8
DEFAULT
 10
126.5305418523009
 20
10.97108976254535
 30
0.0
  0
VERTEX
  5
618
  8
DEFAULT
 10
126.5195391084103
 20
10.9804862313133
 30
0.0
  0
VERTEX
  5
619
  8
DEFAULT
 10
126.5088438671399
 20
10.99004811661825
 30
0.0
  0
VERTEX
  5
61A
  8
DEFAULT
 10
126.4984575346159
 20
10.99976291360089
 30
0.0
  0
VERTEX
  5
61B
  8
DEFAULT
 10
126.4883809385612
 20
11.00961828418887
 30
0.0
  0
VERTEX
  5
61C
  8
DEFAULT
 10
125.2183809385612
 20
12.27961828418886
 30
0.0
  0
VERTEX
  5
61D
  8
DEFAULT
 10
125.2085255679732
 20
12.28969487871541
 30
0.0
  0
VERTEX
  5
61E
  8
DEFAULT
 10
125.1988107709906
 20
12.30008120660076
 30
0.0
  0
VERTEX
  5
61F
  8
DEFAULT
 10
125.1892488856856
 20
12.31077644004252
 30
0.0
  0
VERTEX
  5
620
  8
DEFAULT
 10
125.1798524169177
 20
12.32177917283775
 30
0.0
  0
VERTEX
  5
621
  8
DEFAULT
 10
125.1706340063366
 20
12.3330873991052
 30
0.0
  0
VERTEX
  5
622
  8
DEFAULT
 10
125.1616064001979
 20
12.34469849360068
 30
0.0
  0
VERTEX
  5
623
  8
DEFAULT
 10
125.1527824150611
 20
12.35660919384741
 30
0.0
  0
VERTEX
  5
624
  8
DEFAULT
 10
125.1441749014687
 20
12.36881558430287
 30
0.0
  0
VERTEX
  5
625
  8
DEFAULT
 10
125.1357967057225
 20
12.38131308278077
 30
0.0
  0
VERTEX
  5
626
  8
DEFAULT
 10
125.1276606299041
 20
12.39409642934116
 30
0.0
  0
VERTEX
  5
627
  8
DEFAULT
 10
125.1197793903049
 20
12.40715967785384
 30
0.0
  0
VERTEX
  5
628
  8
DEFAULT
 10
125.1121655744587
 20
12.42049619042845
 30
0.0
  0
VERTEX
  5
629
  8
DEFAULT
 10
125.1048315969927
 20
12.4340986348913
 30
0.0
  0
VERTEX
  5
62A
  8
DEFAULT
 10
125.0977896545347
 20
12.44795898547111
 30
0.0
  0
VERTEX
  5
62B
  8
DEFAULT
 10
125.0910516799358
 20
12.46206852683653
 30
0.0
  0
VERTEX
  5
62C
  8
DEFAULT
 10
125.0846292960875
 20
12.47641786160511
 30
0.0
  0
VERTEX
  5
62D
  8
DEFAULT
 10
125.0785337696298
 20
12.49099692141793
 30
0.0
  0
VERTEX
  5
62E
  8
DEFAULT
 10
125.0727759648611
 20
12.50579498164622
 30
0.0
  0
VERTEX
  5
62F
  8
DEFAULT
 10
125.0673662981726
 20
12.52080067976595
 30
0.0
  0
VERTEX
  5
630
  8
DEFAULT
 10
125.0623146933396
 20
12.53600203740445
 30
0.0
  0
VERTEX
  5
631
  8
DEFAULT
 10
125.057630538006
 20
12.55138648602937
 30
0.0
  0
VERTEX
  5
632
  8
DEFAULT
 10
125.0533226417008
 20
12.56694089621556
 30
0.0
  0
VERTEX
  5
633
  8
DEFAULT
 10
125.049399195722
 20
12.58265161039031
 30
0.0
  0
VERTEX
  5
634
  8
DEFAULT
 10
125.045867735218
 20
12.59850447892161
 30
0.0
  0
VERTEX
  5
635
  8
DEFAULT
 10
125.0427351037825
 20
12.61448489937947
 30
0.0
  0
VERTEX
  5
636
  8
DEFAULT
 10
125.0400074208699
 20
12.63057785876565
 30
0.0
  0
VERTEX
  5
637
  8
DEFAULT
 10
125.037690052312
 20
12.64676797847505
 30
0.0
  0
VERTEX
  5
638
  8
DEFAULT
 10
125.0357875841994
 20
12.66303956172101
 30
0.0
  0
VERTEX
  5
639
  8
DEFAULT
 10
125.0343038003617
 20
12.67937664312881
 30
0.0
  0
VERTEX
  5
63A
  8
DEFAULT
 10
125.0332416636517
 20
12.69576304017659
 30
0.0
  0
VERTEX
  5
63B
  8
DEFAULT
 10
125.0326033012044
 20
12.71218240614121
 30
0.0
  0
VERTEX
  5
63C
  8
DEFAULT
 10
125.0323809385612
 20
20.63442998638793
 30
0.0
 42
-0.2515709245600145
  0
VERTEX
  5
63D
  8
DEFAULT
 10
124.5173809385613
 20
21.59321809030441
 30
0.0
  0
VERTEX
  5
63E
  8
DEFAULT
 10
124.5173809385613
 20
22.91401828407425
 30
0.0
 42
-0.9999999157547851
  0
VERTEX
  5
63F
  8
DEFAULT
 10
126.8173809385611
 20
22.91401847806758
 30
0.0
  0
VERTEX
  5
640
  8
DEFAULT
 10
126.8173809385612
 20
21.59321809028544
 30
0.0
 42
-0.2515709245601117
  0
VERTEX
  5
641
  8
DEFAULT
 10
126.3023809385612
 20
20.63442998638796
 30
0.0
  0
VERTEX
  5
642
  8
DEFAULT
 10
126.3023809385612
 20
12.99161828418885
 30
0.0
  0
VERTEX
  5
643
  8
DEFAULT
 10
127.2003809385612
 20
12.09361828418885
 30
0.0
  0
VERTEX
  5
644
  8
DEFAULT
 10
141.4828064492508
 20
12.09361828418885
 30
0.0
 42
0.0259948793199612
  0
VERTEX
  5
645
  8
DEFAULT
 10
145.3523809385611
 20
16.1385349508555
 30
0.0
  0
VERTEX
  5
646
  8
DEFAULT
 10
145.3523809385612
 20
31.45482998638792
 30
0.0
 42
-0.2725891778311271
  0
VERTEX
  5
647
  8
DEFAULT
 10
144.8373809385612
 20
32.41361828418886
 30
0.0
  0
SEQEND
  5
648
  8
DEFAULT
  0
CIRCLE
  5
649
  8
44
 10
-94.50738093856117
 20
89.28361828418886
 30
0.0
 40
1.15
210
0.0
220
0.0
230
-1.0
  0
CIRCLE
  5
64A
  8
44
 10
-97.35738093856119
 20
84.48361828418885
 30
0.0
 40
1.15
210
0.0
220
0.0
230
-1.0
  0
CIRCLE
  5
64B
  8
44
 10
-91.10738093856119
 20
84.48361828418885
 30
0.0
 40
1.15
210
0.0
220
0.0
230
-1.0
  0
CIRCLE
  5
64C
  8
20
 10
-151.7823809385612
 20
10.10861828418886
 30
0.0
 40
1.5
210
0.0
220
0.0
230
-1.0
  0
CIRCLE
  5
64D
  8
20
 10
-106.3173809385612
 20
10.10861828418886
 30
0.0
 40
1.5
210
0.0
220
0.0
230
-1.0
  0
CIRCLE
  5
64E
  8
20
 10
-151.7823809385612
 20
73.67861828418884
 30
0.0
 40
1.5
210
0.0
220
0.0
230
-1.0
  0
CIRCLE
  5
64F
  8
20
 10
-101.1673809385612
 20
88.36676267192955
 30
0.0
 40
1.5
210
0.0
220
0.0
230
-1.0
  0
ENDSEC
  0
EOF
